<svg version="1.1" xmlns="http://www.w3.org/2000/svg" x="0" y="0" viewBox="0 0 512 480" xml:space="preserve"><style type="text/css">
	.st0{fill:#CAD0D7;}
	.st1{fill:#E1E6E9;}
	.st2{fill:#99A5AD;}
	.st3{fill:#5A5B67;}
	.st4{fill:#BCBEC0;}
	.st5{fill:#36373F;}
	.st6{fill:#69B4E4;}
	.st7{fill:#FCB33B;}
</style><path class="st0" d="M496 0H16C7.2 0 0 7.2 0 16v448c0 8.8 7.2 16 16 16h480c8.8 0 16-7.2 16-16V16C512 7.2 504.8 0 496 0zM496 456c0 4.4-3.6 8-8 8H24c-4.4 0-8-3.6-8-8V72c0-4.4 3.6-8 8-8h464c4.4 0 8 3.6 8 8V456z"/><path class="st1" d="M490 40H118c-3.3 0-6-2.7-6-6v-4c0-3.3 2.7-6 6-6h372c3.3 0 6 2.7 6 6v4C496 37.3 493.3 40 490 40z"/><path class="st2" d="M24 40L24 40c-4.4 0-8-3.6-8-8v0c0-4.4 3.6-8 8-8h0c4.4 0 8 3.6 8 8v0C32 36.4 28.4 40 24 40zM64 32L64 32c0-4.4-3.6-8-8-8h0c-4.4 0-8 3.6-8 8v0c0 4.4 3.6 8 8 8h0C60.4 40 64 36.4 64 32zM96 32L96 32c0-4.4-3.6-8-8-8h0c-4.4 0-8 3.6-8 8v0c0 4.4 3.6 8 8 8h0C92.4 40 96 36.4 96 32z"/><path class="st0" d="M121 400c0 13.3-10.7 24-24 24s-24-10.7-24-24 10.7-24 24-24S121 386.7 121 400z"/><path class="st0" d="M377 392H153c-4.4 0-8-3.6-8-8l0 0c0-4.4 3.6-8 8-8h224c4.4 0 8 3.6 8 8l0 0C385 388.4 381.4 392 377 392zM297 416L297 416c0-4.4-3.6-8-8-8H153c-4.4 0-8 3.6-8 8l0 0c0 4.4 3.6 8 8 8h136C293.4 424 297 420.4 297 416z"/><path class="st3" d="M440 265v68.3c0 10-7.8 18.1-17.7 18.6 0 0 0 0 0 0h-1H383 274.2 247 88c-8.8 0-16-7.2-16-16v-23.1l76.3-74.2c6.4-6.4 16.8-6.4 23.2 0l49.5 54.6c0-0.1 0-0.2 0-0.4l90.9-89.1c6.4-6.4 16.8-6.4 23.2 0l62.5 61.2H440z"/><path class="st4" d="M125.9 287.8l-6-6c-1.6-1.6-1.6-4.1 0-5.7l29.2-29.2c1.6-1.6 4.1-1.6 5.7 0l6 6c1.6 1.6 1.6 4.1 0 5.7l-29.2 29.2C130 289.4 127.5 289.4 125.9 287.8zM283.4 265.2l29.2-29.2c1.6-1.6 1.6-4.1 0-5.7l-6-6c-1.6-1.6-4.1-1.6-5.7 0l-29.2 29.2c-1.6 1.6-1.6 4.1 0 5.7l6 6C279.3 266.8 281.8 266.8 283.4 265.2z"/><path class="st5" d="M274.2 352l-53.4-58.9 0.2-0.2c9.3-1.8 22.9-3.1 30.9 2.6 7.9 5.3 44.5 45.3 54.8 56.6H274.2z"/><path class="st5" d="M399.8 267.1l40.2 39.3V336c0 8.8-7.2 16-16 16h-1.7c-0.3-9.6-2.7-27.2-14.5-42.2 -10.5-12.8-18.5-20.5-18.5-20.5S376.4 272.5 399.8 267.1z"/><path class="st6" d="M221 292.9l-0.2 0.2 -49.3-54.4c-6.4-6.4-16.8-6.4-23.2 0L72 312.9V112c0-8.8 7.2-16 16-16h336c8.8 0 16 7.2 16 16v194.5l-40.2-39.3 -64.7-63.3c-6.4-6.4-16.8-6.4-23.2 0L221 292.9z"/><path class="st7" d="M176 160c0 17.7-14.3 32-32 32s-32-14.3-32-32 14.3-32 32-32S176 142.3 176 160z"/><path class="st2" d="M62.1 254.2c-2.8 2.4-7.1 2.4-9.9 0l-18.2-25.6c-1.1-1.2-1.9-2.8-1.9-4.6 0-1.8 0.9-3.4 1.9-4.6l18.2-25.6c2.8-2.4 7.1-2.4 9.9 0 2.6 2.6 2.6 6.6 0 9.2l-13.5 21 13.5 21C64.6 247.6 64.6 251.6 62.1 254.2zM449.9 254.2c2.8 2.4 7.1 2.4 9.9 0l18.2-25.6c1.1-1.2 1.9-2.8 1.9-4.6 0-1.8-0.9-3.4-1.9-4.6l-18.2-25.6c-2.8-2.4-7.1-2.4-9.9 0 -2.6 2.6-2.6 6.6 0 9.2l13.5 21 -13.5 21C447.4 247.6 447.4 251.6 449.9 254.2z"/></svg>