<svg xmlns="http://www.w3.org/2000/svg" id="Layer_1" viewBox="156 -64.4 383.2 193.4">
  <style>
    .st0{fill:#00c9a7}.st1{fill:none;stroke:#1e2022;stroke-miterlimit:10}.st2{fill:#377dff}.st3{fill:#fff}.st4{fill:#d8d8d8}.st5{fill:#ececec}.st6{fill:#b7d2f9}.st7{fill:#f2f3f7}.st8{fill:#dfe2ec}.st11{fill:#de4437}.st13{fill:#fec55e}.st14{opacity:.2;fill:#231f20;enable-background:new}.st16{fill:#4d5068}.st18{fill:#9e9e9e}.st19{fill:#c5c5c5}.st20{fill:#8184c4}.st21{opacity:.3;fill:#414042;enable-background:new}.st22{fill:#212121}.st23{fill:#fed17e}.st24{fill:#f1f2f2}.st25{fill:#414042}.st26{fill:#191c3c}.st29{opacity:.3}.st33{opacity:.2;fill:#191c3c;enable-background:new}.st34{fill:#fcd991}.st35{opacity:.3;fill:#231f20;enable-background:new}.st37{fill:#575a8f}.st39{opacity:.3;fill:#191c3c;enable-background:new}.st41{fill:#6371c5}.st43{fill:#ddb758}.st44{fill:#093a66}.st45{fill:#272834}.st46{fill:#efdcb4}.st51{fill:#e2c076}.st54{fill:#db6767}
  </style>
  <path d="M214.7 38.3c-.1 0-.2.1-.3.1-2.7 1.3-4.2 1.1-6.8-.1-2.5-1.1-4.8-2.5-6.9-4.3-2.6-2.3-4.6-5.3-5-8.7-.1-.8-.1-1.6.4-2.2.6-.9 1.9-1 2.9-.6s1.8 1.1 2.5 1.9c.3.3.7.6 1.1.7s1 0 1.2-.4c.4-.6-.3-1.3-.8-1.8-1.3-1.1-2.5-1.7-3.8-2.6-1.7-1.2-3.2-2.6-4.2-4.5-.9-1.8-1.1-4.1-.2-5.9.3-.6.7-1.1 1.2-1.4.9-.6 2.1-.6 3.2-.3 1.1.2 2.1.6 3.2.8 2.6.3 3.6-1.6 3.6-4 0-1.6-.6-3.2-.6-4.8-.2-2.8 1.2-5.8 3.8-7.1 2.6-1.2 6.1-.1 7.1 2.6 1 2.9-1.3 6.2.2 9 .5.9 1.6 2.2 2.5 2.7 1.4.9 3.5-.2 5.2-.1.4 0 .8.1 1 .3.2.2.3.5.3.7.4 2-.3 4.2-1.9 5.6-1.7 1.6-4.7 2.4-5.4 4.8-.5 1.5-.3 5.3 2.2 4.9.9-.1 1.5-1 2.4-1.3 1.1-.4 2.3.4 2.8 1.4s.3 2.3-.1 3.3c-.7 1.7-1.9 3-3.2 4.3-2.5 2.8-4.2 5.4-7.6 7z" class="st0"/>
  <path d="M211.1 2.9v74.2M218 13.1l-6.9 6.9-6.9-6.9M218 27l-6.9 6.8-6.9-6.8" class="st1"/>
  <path d="M525.3 80.9c-.1.1-.2.1-.3.2-3.4 1.6-5.1 1.3-8.4-.2-3-1.4-5.9-3-8.4-5.2-3.2-2.8-5.6-6.6-6.1-10.8-.1-.9-.1-2 .4-2.7.8-1 2.3-1.2 3.5-.7s2.2 1.4 3.1 2.3c.4.4.8.7 1.4.9.5.1 1.2 0 1.5-.5.4-.8-.3-1.7-1-2.2-1.6-1.3-3-2.1-4.7-3.2-2.1-1.5-4-3.2-5.1-5.5s-1.4-5.1-.2-7.3c.4-.7.9-1.3 1.5-1.7 1.2-.7 2.6-.7 4-.4 1.3.3 2.6.8 4 .9 3.2.3 4.5-1.9 4.4-4.9 0-2-.7-3.9-.8-5.9-.2-3.5 1.5-7.2 4.7-8.7 3.1-1.5 7.5-.1 8.7 3.2 1.2 3.6-1.6 7.6.3 11 .6 1.1 2 2.7 3 3.3 1.8 1.1 4.3-.2 6.3-.1.5 0 .9.1 1.3.4.2.2.3.6.4.9.5 2.5-.4 5.2-2.3 6.9-2.1 1.9-5.8 2.9-6.7 5.9-.6 1.9-.3 6.6 2.7 6.1 1.1-.2 1.9-1.3 2.9-1.6 1.3-.4 2.9.4 3.4 1.7.6 1.3.4 2.8-.1 4.1-.8 2.1-2.4 3.7-3.9 5.3-3.2 3.3-5.3 6.5-9.5 8.5z" class="st0"/>
  <path d="M520.9 37.3v91.3M529.3 50l-8.4 8.4-8.5-8.4M529.3 66.9l-8.4 8.5-8.5-8.5" class="st1"/>
  <g>
    <g id="buildingSite_79_">
      <path id="buildingSite_802_" d="M280.1 119.1H162.8V46.6c0-.7.6-1.3 1.3-1.3h114.8c.7 0 1.3.6 1.3 1.3v72.5h-.1z" class="st2"/>
      <path id="buildingSite_799_" d="M168.8 52h105.3v61.1H168.8z" class="st3"/>
      <path id="buildingSite_76_" d="M287 122.4H156c3.7 3.7 8.8 5.8 14.1 5.8H273c5.2 0 10.2-2.1 14-5.8z" class="st4"/>
      <path id="buildingSite_75_" d="M156 118.7h131v3.7H156z" class="st5"/>
      <path id="buildingSite_77_" d="M229.6 121.6h-16.2c-.6 0-1-.5-1-1 0-.6.5-1 1-1h16.2c.6 0 1 .5 1 1s-.5 1-1 1z" class="st4"/>
      <path id="buildingSite_80_" d="M191.8 70.5h-12.6c-1.2 0-2.1-1-2.1-2.1 0-1.2 1-2.1 2.1-2.1h12.7c1.2 0 2.1 1 2.1 2.1 0 1.2-1 2.1-2.2 2.1z" class="st6"/>
      <path id="buildingSite_84_" d="M217.4 82.1h-18.6c-1.2 0-2.1-1-2.1-2.1 0-1.2 1-2.1 2.1-2.1h18.6c1.2 0 2.1 1 2.1 2.1 0 1.2-1 2.1-2.1 2.1z" class="st7"/>
      <path id="buildingSite_87_" d="M231.9 82.1h-7.2c-1.2 0-2.1-1-2.1-2.1 0-1.2 1-2.1 2.1-2.1h7.2c1.2 0 2.1 1 2.1 2.1.1 1.2-.9 2.1-2.1 2.1z" class="st6"/>
      <path id="buildingSite_85_" d="M217.4 93.7h-30c-1.2 0-2.1-1-2.1-2.1 0-1.2 1-2.1 2.1-2.1h30c1.2 0 2.1 1 2.1 2.1 0 1.2-1 2.1-2.1 2.1z" class="st7"/>
      <path id="buildingSite_88_" d="M225.5 93.7h40c1.2 0 2.1-1 2.1-2.1 0-1.2-1-2.1-2.1-2.1h-40c-1.2 0-2.1 1-2.1 2.1 0 1.2.9 2.1 2.1 2.1z" class="st7"/>
      <path id="buildingSite_86_" d="M196.1 105.4h-17c-1.2 0-2.1-1-2.1-2.1 0-1.2 1-2.1 2.1-2.1h17c1.2 0 2.1 1 2.1 2.1.1 1.1-.9 2.1-2.1 2.1z" class="st7"/>
      <path id="buildingSite_89_" d="M203.3 105.4h5.5c1.2 0 2.1-1 2.1-2.1 0-1.2-1-2.1-2.1-2.1h-5.5c-1.2 0-2.1 1-2.1 2.1s.9 2.1 2.1 2.1z" class="st8"/>
      <path id="buildingSite_90_" d="M215.9 105.4h41.3c1.2 0 2.1-1 2.1-2.1 0-1.2-1-2.1-2.1-2.1h-41.3c-1.2 0-2.1 1-2.1 2.1s1 2.1 2.1 2.1z" class="st7"/>
      <path id="buildingSite_83_" d="M231.9 70.5h-31.5c-1.2 0-2.1-1-2.1-2.1 0-1.2 1-2.1 2.1-2.1h31.5c1.2 0 2.1 1 2.1 2.1.1 1.2-.9 2.1-2.1 2.1z" class="st7"/>
      <path id="buildingSite_91_" d="M239.1 70.5h11.1c1.2 0 2.1-1 2.1-2.1 0-1.2-1-2.1-2.1-2.1h-11.1c-1.2 0-2.1 1-2.1 2.1 0 1.2.9 2.1 2.1 2.1z" class="st7"/>
    </g>
  </g>
  <g>
    <path d="M445.8 129h-185V-59.3c0-2.8 2.3-5.1 5.1-5.1h174.7c2.8 0 5.1 2.3 5.1 5.1V129h.1z" class="st6"/>
    <path fill="#f3f4f9" d="M267.6-34.2h172.2V129H267.6z"/>
    <path fill="#e7eaf3" d="M282.9-22.2h141.5v54.4H282.9z"/>
    <path d="M324.3-22.2h100.2v54.4H324.3z" class="st2"/>
    <path d="M282.9-22.2h141.6V1.1H282.9z" class="st2"/>
    <path d="M316.7 16.7c-1.5 0-2.7-1.2-2.7-2.7V-3.9c0-1.5 1.2-2.7 2.7-2.7 1.5 0 2.7 1.2 2.7 2.7V14c0 1.5-1.2 2.7-2.7 2.7zM306.2 9.8c-1.5 0-2.7-1.2-2.7-2.7V-3.7c0-1.5 1.2-2.7 2.7-2.7 1.5 0 2.7 1.2 2.7 2.7V7.1c0 1.5-1.2 2.7-2.7 2.7z" class="st2"/>
    <path d="M311.5-9.7c-1.5 0-2.7 1.2-2.7 2.7V4c.1-1.4 1.2-2.5 2.6-2.5 1.4 0 2.5 1.1 2.6 2.5V-7c.1-1.5-1.1-2.7-2.5-2.7zM321.9-8c-1.5 0-2.7 1.2-2.7 2.7v11c.1-1.4 1.2-2.5 2.6-2.5 1.4 0 2.5 1.1 2.6 2.5V-5.4c.1-1.4-1-2.6-2.5-2.6z" class="st2"/>
    <path d="M310.9-51.6h92.3v7.6h-92.3z" class="st3"/>
    <path d="M432.3-50.4h-7c-.5 0-.9-.4-.9-.9s.4-.9.9-.9h7c.5 0 .9.4.9.9s-.4.9-.9.9zM432.3-46.9h-7c-.5 0-.9-.4-.9-.9s.4-.9.9-.9h7c.5 0 .9.4.9.9s-.4.9-.9.9zM432.3-43.5h-7c-.5 0-.9-.4-.9-.9s.4-.9.9-.9h7c.5 0 .9.4.9.9s-.4.9-.9.9z" class="st2"/>
    <circle cx="278.8" cy="-47.8" r="3.7" class="st11"/>
    <circle cx="289.7" cy="-47.8" r="3.7" fill="#ffc107"/>
    <circle cx="300.6" cy="-47.8" r="3.7" class="st0"/>
    <path d="M282.9 48.5h141.5v6.7H282.9zM282.9 64.3h141.5V71H282.9zM282.9 80h141.5v6.7H282.9zM282.9 95.8h141.5v6.7H282.9z" class="st8"/>
  </g>
  <g>
    <path d="M249.7-15.3v143.9M272.3-15.3v143.9M249.7 5.8h22.6M249.7-4h22.6M249.7 15.5h22.6M249.7 25.2h22.6M249.7 34.9h22.6M249.7 44.6h22.6M249.7 54.4h22.6M249.7 64.1h22.6M249.7 73.8h22.6M249.7 83.5h22.6M249.7 93.3h22.6M249.7 103h22.6M249.7 112.7h22.6M249.7 122.4h22.6" class="st1"/>
  </g>
  <g>
    <g id="buildingSite_334_">
      <g id="buildingSite_404_">
        <path id="buildingSite_408_" d="M211.9 101.9h2l2.8-8.4c.2-.5.1-1-.1-1.5l-3.7-6.5h-.8l-.1 7c.1.1.7.3.8.4.5.5.5 1.4 0 1.9s-1.4.5-1.9 0-.5-1.4 0-1.9c.1-.1.5-.4.6-.4l.2-6.9h-.6l-3.8 6.5c-.3.5-.3 1-.2 1.5l2.7 8.4 2.1-.1z" class="st13"/>
        <path id="buildingSite_407_" d="M209.9 101.9h4l.9-2.8H209z" class="st14"/>
        <path id="buildingSite_406_" fill="#717386" d="M207.5 100.4h8.8v15.9h-8.8z"/>
        <path id="buildingSite_405_" d="M211.9 100.4h4.4v15.9h-4.4z" class="st16"/>
      </g>
      <g id="buildingSite_392_">
        <path id="buildingSite_401_" fill="#9a9dd0" d="M228 96.2v3.8c0 .7.6 1.3 1.3 1.3 1.4 0 2.5 1.1 2.5 2.5v10.3c0 1.3 1.1 2.4 2.5 2.3 1.2-.1 2-1.2 2-2.4v-10.1c0-1.4 1.1-2.5 2.5-2.5.7 0 1.3-.6 1.3-1.3v-3.9H228zm5.2 17.7c0-.4.4-.8.8-.8s.8.4.8.8-.4.8-.8.8-.8-.4-.8-.8z"/>
        <path id="buildingSite_400_" d="M228 84.5h12v8.7h-12z" class="st13"/>
        <path id="buildingSite_399_" d="M228 84.5h4.8v8.7H228z" class="st13"/>
        <path id="buildingSite_398_" d="M228 92.7h12v3.5h-12z" class="st18"/>
        <path id="buildingSite_397_" d="M228 92.9h12v.5h-12z" class="st19"/>
        <path id="buildingSite_396_" d="M228 94.2h12v.5h-12z" class="st19"/>
        <path id="buildingSite_395_" d="M228 95.4h12v.5h-12z" class="st19"/>
        <path id="buildingSite_394_" d="M234 96.2v16.9c-.4 0-.8.4-.8.8s.4.8.8.8v1.6c-1.3 0-2.3-1-2.3-2.3v-10.3c0-1.4-1.1-2.5-2.5-2.5-.7 0-1.3-.6-1.3-1.3v-3.7h6.1z" class="st20"/>
        <path id="buildingSite_393_" d="M232.1 84.5v3.4c0 .5.4 1 1 1 .5 0 1-.4 1-1v-1c0-.4.4-.8.8-.8s.8.4.8.8v3.6c0 .4.4.8.8.8s.8-.4.8-.8v-1.7c.9 0 1.6-.7 1.6-1.6v-2.8h-6.8v.1z" class="st2"/>
      </g>
      <path id="buildingSite_391_" d="M228 84.5V99.8c0 .7.6 1.3 1.3 1.3h.4V88.2l-1.4-3.6-.3-.1z" class="st21"/>
      <g id="buildingSite_384_">
        <path id="buildingSite_390_" d="M223.6 88.2h4.9v24.4h-4.9z" class="st13"/>
        <path id="buildingSite_389_" d="M228.6 113.8h-4.9v1.4c0 .6.5 1.2 1.2 1.2h2.6c.6 0 1.2-.5 1.2-1.2l-.1-1.4z" class="st13"/>
        <path id="buildingSite_388_" d="M223.6 112.6h4.9v1.2h-4.9z" class="st22"/>
        <path id="buildingSite_387_" d="M223.6 88.2h2.5v24.4h-2.5z" class="st23"/>
        <path id="buildingSite_386_" d="M225.9 82.5l-2.3 5.7h4.9l-2.3-5.7c0-.2-.2-.2-.3 0z" class="st24"/>
        <path id="buildingSite_385_" d="M226 82.1l-.6 1.5h1.3l-.6-1.5h-.1z" class="st22"/>
      </g>
      <path id="buildingSite_383_" d="M214.4 100.4l2.3-6.8c.2-.5.1-1-.1-1.5l-3.2-5.7V116c0 .6.5 1.1 1.1 1.1h1.9v-15.9h-2v-.8z" class="st21"/>
      <g id="buildingSite_359_">
        <path id="buildingSite_382_" d="M215.4 81.4h3.9c.6 0 1 .5 1 1v32.9c0 .6-.5 1-1 1h-3.9c-.6 0-1-.5-1-1V82.4c0-.5.4-1 1-1z" class="st2"/>
        <path id="buildingSite_381_" d="M215.5 81.4h2.1v34.9h-2.1c-.6 0-1.1-.5-1.1-1.1V82.5c0-.6.5-1.1 1.1-1.1z" class="st6"/>
        <path id="buildingSite_380_" d="M214.4 113.9h.7v.4h-.7z" class="st25"/>
        <path id="buildingSite_379_" d="M214.4 112.4h.7v.4h-.7z" class="st25"/>
        <path id="buildingSite_378_" d="M214.4 110.8h.7v.4h-.7z" class="st25"/>
        <path id="buildingSite_377_" d="M214.4 109.3h.7v.4h-.7z" class="st25"/>
        <path id="buildingSite_376_" d="M214.3 107.7h1.5v.4h-1.5z" class="st25"/>
        <path id="buildingSite_375_" d="M214.4 106.2h.7v.4h-.7z" class="st25"/>
        <path id="buildingSite_374_" d="M214.4 104.6h.7v.4h-.7z" class="st25"/>
        <path id="buildingSite_373_" d="M214.4 103.1h.7v.4h-.7z" class="st25"/>
        <path id="buildingSite_372_" d="M214.4 101.5h.7v.4h-.7z" class="st25"/>
        <path id="buildingSite_371_" d="M214.3 100h1.5v.4h-1.5z" class="st25"/>
        <path id="buildingSite_370_" d="M214.4 98.4h.7v.4h-.7z" class="st25"/>
        <path id="buildingSite_369_" d="M214.4 96.9h.7v.4h-.7z" class="st25"/>
        <path id="buildingSite_368_" d="M214.4 95.3h.7v.4h-.7z" class="st25"/>
        <path id="buildingSite_367_" d="M214.4 93.8h.7v.4h-.7z" class="st25"/>
        <path id="buildingSite_366_" d="M214.3 92.2h1.5v.4h-1.5z" class="st25"/>
        <path id="buildingSite_365_" d="M214.4 90.7h.7v.4h-.7z" class="st25"/>
        <path id="buildingSite_364_" d="M214.4 89.1h.7v.4h-.7z" class="st25"/>
        <path id="buildingSite_363_" d="M214.4 87.6h.7v.4h-.7z" class="st25"/>
        <path id="buildingSite_362_" d="M214.4 86h.7v.4h-.7z" class="st25"/>
        <path id="buildingSite_361_" d="M214.3 84.5h1.5v.4h-1.5z" class="st25"/>
        <path id="buildingSite_360_" d="M214.4 82.9h.7v.4h-.7z" class="st25"/>
      </g>
      <path id="buildingSite_358_" d="M219.3 81.4v6.9h-.6v7.6h.6v20.4c.6 0 1-.5 1-1.1V82.5c0-.6-.4-1-1-1.1z" class="st21"/>
      <g id="buildingSite_349_">
        <path id="buildingSite_357_" d="M220.4 95.6h2.6v20.7h-2.6z" class="st26"/>
        <path id="buildingSite_356_" fill="#474963" d="M221.7 95.6h1.3v20.7h-1.3z"/>
        <path id="buildingSite_355_" d="M219.8 91h3.5v4.9h-3.5z" class="st26"/>
        <path id="buildingSite_354_" d="M219.8 91h3.5v.3h-3.5z" class="st3"/>
        <path id="buildingSite_353_" d="M219.8 88.3h3.5V91h-3.5z" class="st26"/>
        <path id="buildingSite_352_" d="M223.2 82.7l-2.8-2.4v8h2.8z" class="st18"/>
        <path id="buildingSite_351_" d="M220.4 81.2v7.1h2.8v-4.7z" class="st5"/>
        <path id="buildingSite_350_" fill="#b1b1b1" d="M221.8 88.3h1.4v-4.7l-1.4-1.2z"/>
      </g>
      <g id="buildingSite_342_" class="st29">
        <path id="buildingSite_348_" d="M214.4 116.3h4.9c.3 0 .5-.1.7-.3v-.1c.1-.1.1-.2.2-.3s.1-.3.1-.4v-9.1h-12.8v10.2h6.9z" class="st21"/>
        <path id="buildingSite_347_" d="M223.6 115c0 .7.6 1.3 1.3 1.3h2.4c.7 0 1.3-.6 1.3-1.3v-9h-4.9v9h-.1z" class="st21"/>
        <path id="buildingSite_346_" d="M223 116.3v-10.2h-2.6v10.2h1.3z" class="st21"/>
        <path id="buildingSite_343_" d="M231.7 106.1v8c0 .2 0 .3.1.5 0 .1 0 .1.1.2 0 .1 0 .2.1.2 0 .1.1.2.1.2l.1.1c.1.1.1.2.2.3l.1.1c.1.1.2.2.3.2.4.3.9.4 1.5.4 1.2-.1 2-1.2 2-2.4v-7.8h-4.6zm2.3 8.6c-.4 0-.8-.4-.8-.8s.4-.8.8-.8.8.4.8.8-.3.8-.8.8z" class="st21"/>
      </g>
      <g id="buildingSite_335_">
        <path id="buildingSite_341_" d="M241.2 128.6H207v-21.4h36.3v19.3c0 1.1-.9 2.1-2.1 2.1z" class="st13"/>
        <path id="buildingSite_340_" fill="#bf9447" d="M205.4 128.6h1.6v-21.4h-3.7v19.3c0 1.1.9 2.1 2.1 2.1z"/>
        <path id="buildingSite_339_" d="M203.3 111.7h2.4l1.3-4.5-3.7.9z" class="st14"/>
        <path id="buildingSite_338_" d="M202.7 109.9h2.6c.2 0 .4-.1.4-.3l1.2-2.4h-3.7l-1 2c-.1.3.2.7.5.7z" class="st13"/>
        <path id="buildingSite_337_" d="M243.3 111.7v-3.6l-36.3-.9 2 4.5z" class="st14"/>
        <path id="buildingSite_336_" d="M244.3 109.9h-35.1c-.2 0-.3-.1-.4-.2l-1.8-2.5h36.3l1.4 1.9c.3.3.1.8-.4.8z" class="st13"/>
      </g>
    </g>
    <path fill="#8c98a4" d="M486.2 51.8H394c-1.2 0-2.1 1-2.1 2.2v75h96.4V54.1c0-1.3-.9-2.3-2.1-2.3z" opacity=".3"/>
    <path id="buildingSite_333_" fill="#f5f7f9" d="M495.4 129H395.1V56.3c0-2.4 2-4.4 4.4-4.4h91.4c2.4 0 4.4 2 4.4 4.4V129h.1z"/>
    <path id="buildingSite_332_" d="M495.4 61.2v-7.4c0-1.2-1-2.2-2.2-2.2h-95.8c-1.2 0-2.2 1-2.2 2.2v7.4h100.2z" class="st2"/>
    <path id="buildingSite_331_" d="M402.6 56.7c0 .7-.6 1.3-1.3 1.3-.7 0-1.3-.6-1.3-1.3s.6-1.3 1.3-1.3c.8 0 1.3.6 1.3 1.3z" class="st3"/>
    <path id="buildingSite_330_" d="M406.9 56.7c0 .7-.6 1.3-1.3 1.3-.7 0-1.3-.6-1.3-1.3s.6-1.3 1.3-1.3c.7 0 1.3.6 1.3 1.3z" class="st3"/>
    <path id="buildingSite_329_" d="M411.2 56.7c0 .7-.6 1.3-1.3 1.3s-1.3-.6-1.3-1.3.6-1.3 1.3-1.3 1.3.6 1.3 1.3z" class="st3"/>
    <path id="buildingSite_328_" d="M493.2 51.9h-2.8c1.2 0 2.2 1 2.2 2.2V129h2.8V54.1c0-1.2-1-2.2-2.2-2.2z" class="st33"/>
    <path d="M405.1 70.8h-1.6c-1 0-1.8-.8-1.8-1.8s.8-1.8 1.8-1.8h1.6c1 0 1.8.8 1.8 1.8s-.8 1.8-1.8 1.8zM405.1 79.9h-1.6c-1 0-1.8-.8-1.8-1.8s.8-1.8 1.8-1.8h1.6c1 0 1.8.8 1.8 1.8s-.8 1.8-1.8 1.8zM405.1 88.9h-1.6c-1 0-1.8-.8-1.8-1.8s.8-1.8 1.8-1.8h1.6c1 0 1.8.8 1.8 1.8s-.8 1.8-1.8 1.8zM405.1 97.9h-1.6c-1 0-1.8-.8-1.8-1.8s.8-1.8 1.8-1.8h1.6c1 0 1.8.8 1.8 1.8s-.8 1.8-1.8 1.8zM405.1 107h-1.6c-1 0-1.8-.8-1.8-1.8s.8-1.8 1.8-1.8h1.6c1 0 1.8.8 1.8 1.8s-.8 1.8-1.8 1.8zM405.1 116h-1.6c-1 0-1.8-.8-1.8-1.8s.8-1.8 1.8-1.8h1.6c1 0 1.8.8 1.8 1.8s-.8 1.8-1.8 1.8zM405.1 125.1h-1.6c-1 0-1.8-.8-1.8-1.8s.8-1.8 1.8-1.8h1.6c1 0 1.8.8 1.8 1.8s-.8 1.8-1.8 1.8zM483.4 70.8h-1.6c-1 0-1.8-.8-1.8-1.8s.8-1.8 1.8-1.8h1.6c1 0 1.8.8 1.8 1.8s-.8 1.8-1.8 1.8z" class="st8"/>
    <path d="M483.4 79.9h-1.6c-1 0-1.8-.8-1.8-1.8s.8-1.8 1.8-1.8h1.6c1 0 1.8.8 1.8 1.8s-.8 1.8-1.8 1.8z" class="st20"/>
    <path d="M483.4 88.9h-1.6c-1 0-1.8-.8-1.8-1.8s.8-1.8 1.8-1.8h1.6c1 0 1.8.8 1.8 1.8s-.8 1.8-1.8 1.8z" class="st34"/>
    <path d="M483.4 97.9h-1.6c-1 0-1.8-.8-1.8-1.8s.8-1.8 1.8-1.8h1.6c1 0 1.8.8 1.8 1.8s-.8 1.8-1.8 1.8z" class="st20"/>
    <path d="M483.4 107h-1.6c-1 0-1.8-.8-1.8-1.8s.8-1.8 1.8-1.8h1.6c1 0 1.8.8 1.8 1.8s-.8 1.8-1.8 1.8z" class="st34"/>
    <path d="M483.4 116h-1.6c-1 0-1.8-.8-1.8-1.8s.8-1.8 1.8-1.8h1.6c1 0 1.8.8 1.8 1.8s-.8 1.8-1.8 1.8z" class="st20"/>
    <path d="M483.4 125.1h-1.6c-1 0-1.8-.8-1.8-1.8s.8-1.8 1.8-1.8h1.6c1 0 1.8.8 1.8 1.8s-.8 1.8-1.8 1.8zM434.9 70.8h-23.1c-1 0-1.8-.8-1.8-1.8s.8-1.8 1.8-1.8h23.1c1 0 1.8.8 1.8 1.8s-.8 1.8-1.8 1.8z" class="st8"/>
    <path d="M440.6 70.8h4.7c1 0 1.8-.8 1.8-1.8s-.8-1.8-1.8-1.8h-4.7c-1 0-1.8.8-1.8 1.8s.8 1.8 1.8 1.8zM422.3 79.9h-10.4c-1 0-1.8-.8-1.8-1.8s.8-1.8 1.8-1.8h10.4c1 0 1.8.8 1.8 1.8s-.8 1.8-1.8 1.8z" class="st13"/>
    <path d="M431.6 79.9h31.2c1 0 1.8-.8 1.8-1.8s-.8-1.8-1.8-1.8h-31.2c-1 0-1.8.8-1.8 1.8s.8 1.8 1.8 1.8z" class="st2"/>
    <path d="M455.8 88.9h-43.9c-1 0-1.8-.8-1.8-1.8s.8-1.8 1.8-1.8h43.9c1 0 1.8.8 1.8 1.8s-.8 1.8-1.8 1.8zM465.5 97.9h-53.6c-1 0-1.8-.8-1.8-1.8s.8-1.8 1.8-1.8h53.6c1 0 1.8.8 1.8 1.8s-.8 1.8-1.8 1.8z" class="st8"/>
    <path d="M455.8 107h-16.2c-1 0-1.8-.8-1.8-1.8s.8-1.8 1.8-1.8h16.2c1 0 1.8.8 1.8 1.8s-.8 1.8-1.8 1.8z" class="st2"/>
    <path d="M433 107h-21.1c-1 0-1.8-.8-1.8-1.8s.8-1.8 1.8-1.8H433c1 0 1.8.8 1.8 1.8s-.8 1.8-1.8 1.8zM445.3 116h-33.4c-1 0-1.8-.8-1.8-1.8s.8-1.8 1.8-1.8h33.4c1 0 1.8.8 1.8 1.8s-.8 1.8-1.8 1.8z" class="st8"/>
    <path d="M451.3 116H462c1 0 1.8-.8 1.8-1.8s-.8-1.8-1.8-1.8h-10.7c-1 0-1.8.8-1.8 1.8s.8 1.8 1.8 1.8z" class="st13"/>
    <path d="M455.8 125.1h-43.9c-1 0-1.8-.8-1.8-1.8s.8-1.8 1.8-1.8h43.9c1 0 1.8.8 1.8 1.8s-.8 1.8-1.8 1.8z" class="st8"/>
    <g id="buildingSite_320_">
      <path id="buildingSite_327_" d="M426.2 116.7l-6.4-.5 5.1-5.9z" class="st13"/>
      <path id="buildingSite_326_" d="M421.1 122.5l-6.4-.5 5.1-5.8z" class="st13"/>
      <path id="buildingSite_325_" d="M433.6 128.3h-17.7l15.4-17.5z" class="st13"/>
      <path id="buildingSite_324_" d="M433.6 128.3l-12.5-5.8 5.1-5.9z" class="st23"/>
      <path id="buildingSite_323_" d="M414.7 122l1.2 6.3 5.1-5.8z" class="st23"/>
      <path id="buildingSite_322_" d="M419.8 116.2l1.3 6.3 5.1-5.8z" class="st23"/>
      <path id="buildingSite_321_" d="M424.9 110.3l1.3 6.3 5.1-5.8z" class="st23"/>
    </g>
    <g id="buildingSite_121_">
      <g id="buildingSite_307_">
        <path id="buildingSite_319_" d="M405.3 126.9c-3.7 3.1-9.2 2.6-12.2-1.1-3.1-3.7-2.6-9.2 1.1-12.2 3.7-3.1 9.2-2.6 12.2 1.1 3.1 3.7 2.6 9.2-1.1 12.2z" class="st34"/>
        <path d="M402.1 118.6l-2.8 5.9c0 .1-.1.1-.2.1h-.1c-.1 0-.2-.1-.2-.3l1-4.1-2.1.5h-.1c-.1 0-.1 0-.2-.1s-.1-.1-.1-.2l1-4.2c0-.1.1-.2.2-.2h1.7c.1 0 .2.1.2.2v.1l-.9 2.4 2-.5h.1c.1 0 .1 0 .2.1.3.1.3.2.3.3z" class="st3"/>
      </g>
      <path id="buildingSite_306_" d="M398.6 120.5c0-2.9-1.3-5.4-3.3-7.2-.4.2-.8.5-1.2.8-2 1.7-3 4-3.1 6.4.1 1.9.7 3.7 2 5.3.6.8 1.4 1.4 2.2 1.9 2.1-1.7 3.4-4.3 3.4-7.2z" class="st35"/>
      <g id="buildingSite_150_">
        <path id="buildingSite_305_" d="M397.1 119.4c0 5.3-4.3 9.5-9.5 9.5-5.3 0-9.5-4.3-9.5-9.5 0-5.3 4.3-9.5 9.5-9.5s9.5 4.3 9.5 9.5z" class="st2"/>
        <path d="M390.1 122.7c0 .1 0 .2-.1.2 0 0-.5.2-1.1.2-1.6 0-3-1-3.4-2.5h-.5c-.1 0-.2-.1-.2-.2v-.6c0-.1.1-.2.2-.2h.3v-.6h-.4c-.1 0-.2-.1-.2-.2v-.6c0-.1.1-.2.2-.2h.5c.5-1.5 1.8-2.4 3.4-2.4.5 0 1 .1 1 .1s.1 0 .1.1v.1l-.2.8c0 .1-.1.1-.2.1 0 0-.4-.1-.7-.1-.9 0-1.6.5-2 1.3h2.5c.1 0 .1 0 .1.1v.1l-.1.6c0 .1-.1.1-.2.1h-2.6v.6h2.4c.1 0 .1 0 .1.1v.1l-.1.6c0 .1-.1.1-.2.1h-2c.3.8 1.1 1.3 2 1.3.5 0 .8-.1.8-.1h.1l.1.1.4 1z" class="st3"/>
      </g>
      <path id="buildingSite_149_" d="M383.9 111.7c-3.3 1.4-5.7 4.6-5.9 8.4.2 3.2 2.1 6 4.7 7.6 4-2.9 5.4-8.3 3.3-12.9-.5-1.2-1.2-2.2-2.1-3.1z" class="st35"/>
      <g id="buildingSite_134_">
        <ellipse id="buildingSite_148_" cx="374.9" cy="118.5" class="st13" rx="10.5" ry="10.5"/>
        <path d="M381 114.6v6.9c0 .5-.4.9-.9.9H371c-.5 0-.9-.4-.9-.9v-6.9c0-.5.4-.9.9-.9h9.1c.4 0 .9.4.9.9zm-10.3 0v1.3h9.5v-1.3c0-.1-.1-.2-.2-.2h-9.1c-.1 0-.2.1-.2.2zm9.5 7v-3.5h-9.5v3.5c0 .1.1.2.2.2h9.1c.1 0 .2-.1.2-.2zm-8.7-1.3h1.5v.7h-1.5v-.7zm2.2 0h2.2v.7h-2.2v-.7z" class="st3"/>
      </g>
      <path id="buildingSite_133_" d="M365.4 122.9c.7 1.5 1.7 2.7 2.8 3.6.6-.8 1.2-1.8 1.5-2.8 1.4-4.1.2-8.5-2.9-11.2-1.5 1.8-2.4 4.1-2.4 6.5.1 1.3.4 2.6 1 3.9z" class="st35"/>
      <g id="buildingSite_122_">
        <path id="buildingSite_132_" d="M367.7 122c-1.9 5.4-7.9 8.3-13.3 6.4-5.4-1.9-8.3-7.9-6.4-13.3 1.9-5.4 7.8-8.3 13.3-6.4 5.5 2 8.3 7.9 6.4 13.3z" class="st0"/>
        <path d="M358.2 122.2v.9c0 .1-.1.2-.2.2h-.7c-.1 0-.2-.1-.2-.2v-.9c-1.2-.2-1.9-.9-2-1s-.1-.2 0-.2l.6-.7.1-.1h.1s.8.7 1.7.7c.5 0 1.1-.3 1.1-.9 0-.5-.6-.8-1.4-1.1-1-.4-2.2-.9-2.2-2.2 0-1 .8-1.8 1.9-2v-1c0-.1.1-.2.2-.2h.7c.1 0 .2.1.2.2v.9c1.1.1 1.7.7 1.7.7.1.1.1.1 0 .2l-.4.8-.1.1h-.1s-.7-.6-1.5-.6c-.7 0-1.1.3-1.1.8 0 .6.7.8 1.4 1.1 1 .4 2.1.8 2.1 2.1s-.8 2.2-1.9 2.4z" class="st3"/>
      </g>
    </g>
    <g id="buildingSite_33_">
      <g id="buildingSite_117_">
        <path id="buildingSite_120_" d="M339.5 119.5c0 5.1-4.1 9.3-9.3 9.3-5.1 0-9.3-4.1-9.3-9.3s4.1-9.3 9.3-9.3c5.1 0 9.3 4.2 9.3 9.3z" class="st2"/>
        <g id="buildingSite_118_">
          <path id="buildingSite_119_" d="M329.4 122.4l-3-3 1-1 2 1.9 3.6-3.7 1.1 1.1z" class="st3"/>
        </g>
      </g>
      <path id="buildingSite_116_" d="M321 119.5c0 2.9 1.4 5.6 3.5 7.2 1-.8 1.9-1.9 2.5-3.1 1.9-4 .8-8.6-2.4-11.4-2.3 1.8-3.6 4.4-3.6 7.3z" class="st35"/>
      <g id="buildingSite_107_">
        <path id="buildingSite_115_" d="M325.2 123.6c-2.3 4.7-7.9 6.7-12.6 4.4-4.7-2.3-6.7-7.9-4.4-12.6 2.3-4.7 7.9-6.7 12.6-4.4s6.7 7.9 4.4 12.6z" class="st13"/>
        <g id="buildingSite_108_">
          <path id="buildingSite_110_" d="M316.2 118.3l1-2.1 1.7.8-1 2.1 2.1 1-.7 1.5-2.1-1-1 2.1-1.7-.8 1-2.1-2-1 .7-1.5 2 1z" class="st3"/>
        </g>
      </g>
      <path id="buildingSite_105_" d="M312 111.3c-1.6.9-3 2.3-3.9 4.1-2.1 4.4-.5 9.7 3.6 12.2 2.8-1.7 4.7-4.7 4.7-8.2 0-3.4-1.8-6.4-4.4-8.1z" class="st35"/>
      <g id="buildingSite_34_">
        <circle id="buildingSite_103_" cx="305.4" cy="119.3" r="9.6" class="st26"/>
        <path d="M308.9 119.5c.2.3.3.7.3 1.2-.1.6-.3 1.1-.8 1.3-.4.2-1 .4-1.7.4v1.2h-.9v-1.2h-.7v1.2h-.9v-1.2h-1.7l.2-1h.7c.1 0 .2-.1.2-.3v-3.8c0-.2-.1-.3-.3-.3H302.5v-.9h1.7v-1.4h.9v1.4h.7v-1.3h.9v1.4c.6.1 1 .2 1.4.4s.6.6.6 1c.1.7-.2 1.1-.7 1.4.3 0 .7.2.9.5zm-3.8-.8h.1c.5 0 .9 0 1.1-.1.5-.1.7-.4.7-.7 0-.4-.2-.6-.7-.8-.3-.1-.6-.1-1.1-.1h-.2l.1 1.7zm.2 2.7c.6 0 1 0 1.3-.1.5-.1.8-.4.8-.8s-.3-.7-.8-.8c-.3-.1-.7-.1-1.3-.1h-.2v1.8h.2z" class="st3"/>
      </g>
    </g>
    <g id="buildingSite_29_">
      <path id="buildingSite_30_" d="M281.9 120.6h2.3c.5 0 .9-.4.9-.9v-3c0-.5-.4-.9-.9-.9h-1.8c-.3 0-.6-.2-.7-.5-.1-.2-.1-.3-.2-.5-.1-.3-.1-.6.1-.8l1.3-1.3c.3-.3.3-.9 0-1.2l-2.1-2.1c-.3-.3-.9-.3-1.2 0l-1.3 1.3c-.2.2-.5.3-.8.1-.2-.1-.4-.2-.6-.2-.3-.1-.4-.4-.4-.7v-1.8c0-.5-.4-.9-.9-.9h-3c-.5 0-.9.4-.9.9v1.8c0 .3-.2.6-.5.7-.2.1-.4.1-.5.2-.3.1-.6.1-.8-.1l-1.3-1.3c-.3-.3-.9-.3-1.2 0l-2.1 2.1c-.3.3-.3.9 0 1.2l1.3 1.3c.2.2.3.5.2.8-.1.2-.2.4-.2.6-.1.3-.4.4-.7.4h-1.8c-.5 0-.9.4-.8.9v3c0 .5.4.9.9.8h1.8c.3 0 .6.2.7.5.1.2.1.3.2.5.1.3.1.6-.1.8l-1.3 1.3c-.3.3-.3.9 0 1.2l2.1 2.1c.3.3.9.3 1.2 0l1.3-1.3c.2-.2.5-.3.8-.1.2.1.4.2.6.2.3.1.4.4.4.7v1.8c0 .5.4.9.9.8h3c.5 0 .9-.4.8-.9v-1.8c0-.3.2-.6.5-.7.2-.1.3-.1.5-.2.3-.1.6-.1.8.1l1.3 1.3c.3.3.9.3 1.2 0l2.1-2.1c.3-.3.3-.9 0-1.2l-1.3-1.3c-.2-.2-.3-.5-.1-.8.1-.2.3-.8.3-.8zm-11.8-3.1c.5-2.6 3.2-4.1 5.6-3.2 1.9.7 3 2.7 2.6 4.7-.5 2.6-3.2 4.1-5.6 3.2-1.8-.7-2.9-2.7-2.6-4.7z" class="st13"/>
    </g>
    <g id="buildingSite_857_">
      <g id="buildingSite_868_">
        <path id="buildingSite_901_" fill="#fdfdfe" d="M195.5 128.6h-24.9c-1.2 0-2.2-1-2.2-2.2v-20.6h27.1c.4 0 .8.3.8.8v21.3c-.1.3-.4.7-.8.7z"/>
        <path id="buildingSite_900_" d="M171.3 124.7c-1 0-3 .2-3 2.3v-22.4c0-1.3 1-2.3 2.3-2.3h.7v22.4z" class="st37"/>
      </g>
      <path id="buildingSite_834_" d="M187.4 119.2h1.5c.3 0 .5-.2.5-.5v-1.9c0-.3-.2-.5-.5-.5h-1.2c-.2 0-.4-.1-.4-.3 0-.1-.1-.2-.1-.3-.1-.2-.1-.4.1-.5l.8-.8c.2-.2.2-.6 0-.8l-1.3-1.3c-.2-.2-.6-.2-.8 0l-.8.8c-.1.1-.3.2-.5.1-.1-.1-.2-.1-.4-.1-.2-.1-.3-.2-.3-.4v-1.2c0-.3-.2-.5-.5-.5h-1.9c-.3 0-.5.2-.5.5v1.2c0 .2-.1.4-.3.4-.1 0-.2.1-.3.1-.2.1-.4.1-.5-.1l-.9-.9c-.2-.2-.6-.2-.8 0l-1.3 1.3c-.2.2-.2.6 0 .8l.8.8c.1.1.2.3.1.5-.1.1-.1.2-.1.4-.1.2-.2.3-.4.3h-1.2c-.3 0-.5.2-.5.5v1.9c0 .3.2.5.5.5h1.2c.2 0 .4.1.4.3 0 .1.1.2.1.3.1.2.1.4-.1.5l-.8.8c-.2.2-.2.6 0 .8l1.3 1.3c.2.2.6.2.8 0l.8-.8c.1-.1.3-.2.5-.1.1.1.2.1.4.1.2.1.3.2.3.4v1.2c0 .3.2.5.5.5h1.9c.3 0 .5-.2.5-.5v-1.2c0-.2.1-.4.3-.4.1 0 .2-.1.3-.1.2-.1.4-.1.5.1l.8.8c.2.2.6.2.8 0l1.3-1.3c.2-.2.2-.6 0-.8l-.8-.8c-.1-.1-.2-.3-.1-.5.2-.2.3-.6.3-.6zm-7.5-2c.3-1.7 2-2.6 3.6-2 1.2.5 1.9 1.7 1.7 3-.3 1.7-2 2.6-3.6 2-1.2-.4-1.9-1.7-1.7-3z" class="st2"/>
      <path id="buildingSite_858_" d="M196.2 128v-21.7c0-.3-.3-.6-.6-.6h-1.8V127.9c0 .3.3.6.6.6h1.2c.4.1.6-.2.6-.5z" class="st21"/>
      <g id="buildingSite_838_">
        <path id="buildingSite_856_" d="M194.6 103.9h2.5v21.6h-2.5z" class="st13"/>
        <path id="buildingSite_855_" d="M197.1 125.4h-2.5v2.3c0 .5.4.8.8.8h.9c.5 0 .8-.4.8-.8v-2.3z" class="st37"/>
        <path id="buildingSite_852_" fill="#fde1a7" d="M194.6 103.9h1.3v21.6h-1.3z"/>
        <path id="buildingSite_851_" d="M195.7 100.9l-1.2 2.9h2.6l-1.2-2.9c0-.1-.1-.1-.2 0z" class="st24"/>
        <path id="buildingSite_850_" d="M195.8 100.8l-.3.8h.7l-.4-.8c0-.1 0-.1 0 0z" class="st22"/>
        <path id="buildingSite_854_" d="M194.6 124.8h2.5v.6h-2.5z" class="st22"/>
      </g>
    </g>
  </g>
  <g>
    <path d="M495.4 118.5l-.7.3-.4-.8 1.1-.3v-1.9L486 93.1l-1.3-14.2s1.3-1.7 2.3-4.6c.6-1.8.4-4.3.2-5.9h.6V66h-.3c1.2-2.3 3.8-8.9 5.9-14.5h-16.9l-.7.7v-.7h-31.7v9c0 1.2.9 2.1 2.1 2.1h8.8c-.3.1-.6.3-.8.5l5.3.6h2.7l2.3-1.1h8.8c-.5 1.5-1 2.7-1.3 3.4h-1v2.4h.4l-1 5.1-.1.6-5.8 18.9-1.9 26.5h1.4v1.1h-1.3l-2.1 2.4h-4.5c-2.7 0-5.3 1.5-6.5 4h-.7v1.5h19.5V127h-.7v-6.4h-1v-1.1h1.5l4.4-28.1v-.1l2.6-3.9 3.6 10.3 11.8 21.2.9-.3.6 1.1-.8.4-1 3-5.1.1c-2.5 1-3.1 1.1-3.4 3.6h-.4v1.5H492l3.4-1.4v-8.4z" class="st39"/>
    <g id="buildingSite_49_">
      <g id="buildingSite_64_">
        <path id="buildingSite_67_" d="M474.1 43.5l-22.7 11.3c-.4.2-.8 0-1-.3l-6.9-13.9c-.2-.4 0-.8.3-1l22.7-11.3c.4-.2.8 0 1 .3l6.9 13.9c.2.4 0 .8-.3 1z" class="st13"/>
        <path id="buildingSite_66_" d="M474.4 42.9l-15.5-2.6c-.4-.1-.8.1-.9.5l-7.2 13.9c.3.1.6.2.8 0l22.3-11.1c.3-.1.4-.4.5-.7z" class="st23"/>
        <path id="buildingSite_65_" d="M443.5 40.1l15.5 2.6c.4.1.8-.1.9-.5l7.2-13.9c-.3-.1-.6-.2-.8 0L444 39.4c-.3.2-.5.5-.5.7z" class="st23"/>
      </g>
      <path id="buildingSite_58_" d="M448.2 37.4c2.4 2.7 6.4 3.5 9.8 1.9 3.4-1.7 5.1-5.4 4.4-8.9l-14.2 7z" class="st35"/>
      <g id="buildingSite_52_">
        <path id="buildingSite_57_" d="M461.4 27.4c2 4.1.4 9.1-3.7 11.1s-9.1.4-11.1-3.7-.4-9.1 3.7-11.1 9.1-.4 11.1 3.7z" class="st2"/>
        <path id="buildingSite_56_" fill="#71a2ea" d="M458.5 28.9c1.2 2.5.2 5.5-2.3 6.8-2.5 1.2-5.5.2-6.8-2.3-1.2-2.5-.2-5.5 2.3-6.8 2.5-1.2 5.6-.2 6.8 2.3z"/>
        <g id="buildingSite_53_">
          <path id="buildingSite_55_" d="M456.5 33.3l-1.2.6-2.4-4.8-1.1.6-.6-1.2 2.3-1.2z" class="st3"/>
        </g>
      </g>
    </g>
    <g id="buildingSite_43_">
      <path id="buildingSite_48_" d="M473.6 52.1l-17.9-10.8c-.3-.2-.4-.6-.2-1l7.3-12.1c.2-.3.6-.4 1-.2l17.9 10.8c.3.2.4.6.2 1l-7.3 12.1c-.2.3-.7.4-1 .2z" class="st3"/>
      <path id="buildingSite_47_" d="M471.5 44.6l-10.2-6.1c1.7-2.8 5.3-3.7 8.1-2 2.9 1.7 3.8 5.3 2.1 8.1z" class="st13"/>
      <path id="buildingSite_46_" d="M461.5 42.2l8.9-2.1 1.9 8.7z" class="st37"/>
      <path id="buildingSite_45_" d="M456.9 39.5l9-2.2 1.9 8.7z" class="st41"/>
      <path id="buildingSite_44_" d="M474 38.8l2 1.2c.2.1.3.4.1.6-.1.2-.4.3-.6.1l-.1-.1c-.2-.1-.4-.1-.5.1-.1.2-.1.4.1.5l2.1 1.3c.2.1.2.3.1.5s-.3.2-.5.1l-6.6-4c-.2-.1-.2-.3-.1-.5s.3-.2.5-.1l.4.3c.2.1.4.1.5-.1.1-.2.1-.4-.1-.5l-1.9-1.1c-.2-.1-.3-.4-.1-.6.1-.2.4-.3.6-.1l4.1 2.4z" class="st41"/>
    </g>
    <g id="buildingSite_35_">
      <g id="buildingSite_36_">
        <path id="buildingSite_42_" d="M475.6 62.6h-26.5V45.7h28.7v14.8c0 1.2-1 2.1-2.2 2.1z" class="st34"/>
        <path id="buildingSite_41_" fill="#bda36d" d="M448.3 62.6h.8V45.7h-3v14.8c0 1.2 1 2.1 2.2 2.1z"/>
        <path id="buildingSite_40_" d="M446.1 49.3h1.9l1.1-3.6-3 .7z" class="st33"/>
        <path id="buildingSite_39_" d="M445.7 47.9h2.1c.1 0 .3-.1.4-.2l.9-1.9h-3l-.8 1.6c-.1.2.1.5.4.5z" class="st34"/>
        <path id="buildingSite_38_" d="M477.8 49.3v-2.9l-28.7-.7 1.5 3.6z" class="st33"/>
        <path id="buildingSite_37_" d="M478.6 47.9h-27.7c-.1 0-.2-.1-.3-.2l-1.5-2h28.7l1.1 1.5c.2.3 0 .7-.3.7z" class="st34"/>
      </g>
    </g>
    <path d="M465.9 118.7h2.8v3.1h-2.8z" class="st43"/>
    <path d="M493.7 117.1h2.8v3.1h-2.8z" class="st43" transform="rotate(153.805 495.1 118.65)"/>
    <path d="M488.9 66.9l-4.6 10-9.7 14.6-4.4 28.1h-5.7l1.9-26.5 5.8-18.9 1.5-7.3z" class="st11"/>
    <g class="st29">
      <path d="M486.1 73l-13.2-2-.6 3.1-.7 2.2c1.5 3.8 3 9.2 3.1 15.1l9.6-14.5 1.8-3.9z" class="st26"/>
    </g>
    <path d="M488.7 29.4h5.8v6.8h-5.8z" class="st43"/>
    <path d="M494.5 33.1l-5.8-2.1v-1.6h5.8z" class="st39"/>
    <path d="M487.6 32.8l7.8 2v1.5s3.1 4.1 2.9 6.2-8.2 23.6-9.4 24.4h-15.3s6.1-16 6.5-17.8c0 0 1.9-8.6 5.2-11.3 0 0 1-1.7 2-2.2 0 .1.9-1 .3-2.8z" class="st44"/>
    <path d="M488.5 51.3l-4.6-5.9 4.2-3.6c1.4-1.5 3.8-1.5 5.3-.1s1.5 3.8.1 5.3l-5 4.3z" class="st45"/>
    <path d="M487.8 50.6l-4.5-5.9 4.9-3.8c1.5-1.2 3.7-.9 4.9.7l.3.3c1.2 1.5.9 3.7-.7 4.9l-4.9 3.8z" class="st44"/>
    <path d="M478.4 54.3c-.7 1.8-1.4 3.8-2.1 5.7l3.4-1.6 8.8-7.1-3.4-4.5-6.7 7.5z" class="st26"/>
    <path d="M464.2 63.7l14.4-6.8 8.8-7.1-3.4-4.5-7.2 8-13 8.1.5.6-2.6.1c-1.1 0-4.1-.4-5.3.9l5.3.6 2.5.1z" class="st43"/>
    <path d="M488.9 66.9s.9 4.5 0 7.4-2.3 4.6-2.3 4.6l1.3 14.2 10.1 24.3-5.4 1.6-11.8-21.2-8.5-24.3 1.3-6.6h15.3z" class="st11"/>
    <path d="M496.8 30.9h-8.4c-1.3 0-2.4-1.1-2.4-2.4v-2.7h-2.1c-.9-7.1 2.1-9.2 2.1-9.2h10.8v14.3z" class="st46"/>
    <path fill="#2e5f7a" d="M500 17.8c-.2-1.2-1-3.2-2.1-3.8-.6-.3-1.3-.3-1.9 0 0-.8-.5-1.8-1.3-1.8-.5 0-1.1.2-1.6.3-1.8.6-3.6 1.2-5.5 1.1-2 0-3.7-.8-5-2.2 0 1.1.2 2.2.5 3.3.1.4.3.8.5 1.1.3.5.8.8 1.4 1.2 1.5 1 2.6.4 4.2.5.7 0 1.3.2 2 .2.6 0 1.4-.2 2 .1 1.9 1-2.5 3.6-2.5 4.5 1-.5 2-1.1 2.9-1.6-1 1.2-2.1 2.5-2.1 4.1.7-.7 1.6-1.2 2.6-1.4-.3.7-.6 1.3-1 2-.1.2-.2.5 0 .6.3.2.7-.4 1-.2-.4.9-.8 1.8-1.2 2.8.4-.2.8-.4 1-.7-.3 1-.2 2.1.2 3 .7-.1 1.3.5 2.1.6.7.1 1.1-.4 1.6-.6.7-.3 1.7-.3 2.4-.1-.3-.5-.6-1-.7-1.6-.4-1.5.4-2.6.6-4 .2-1.7.2-3.4.2-5.1-.1-.8-.1-1.6-.3-2.3z"/>
    <path d="M473 66.1h16.8v2.4H473z" class="st45"/>
    <path d="M463.4 62.9l-1.7-1.7c-.3-.2-.4-.5-.3-.8.2-.3.5-.4.8-.3l2.3 1.2c.3.2.4.5.3.8-.2.3-1.1.9-1.4.8z" class="st43"/>
    <path d="M469.7 120.7h-5.1l-2.1 2.4h-4.4c-2.7 0-5.3 1.5-6.5 4h18v-6.4h.1z" class="st16"/>
    <path d="M468.7 123.9c0 .9-.7 1.6-1.6 1.6s-1.6-.7-1.6-1.6c0-.9.7-1.6 1.6-1.6s1.6.7 1.6 1.6z" class="st3"/>
    <path d="M450.9 127.1h19.5v1.5h-19.5z" class="st13"/>
    <path d="M498 118.3l-4.7 2-1 3-5.1.1c-2.5 1.1-3.2 1.1-3.4 3.8h9.4l7.2-3-2.4-5.9z" class="st16"/>
    <path d="M498.3 121.6c.3.8 0 1.7-.9 2.1-.8.3-1.7 0-2.1-.9-.3-.8 0-1.7.9-2.1.8-.3 1.7.1 2.1.9z" class="st3"/>
    <path d="M483.4 127H494v1.5h-10.6z" class="st13"/>
    <path d="M493.4 125.5h7.9v1.5h-7.9z" class="st13" transform="scale(-1) rotate(-23.186 -615.424 2424.457)"/>
  </g>
  <g>
    <path d="M310.4 2.5c0-.1-.1-.2-.2-.3-.1-.1-.2-.1-.4-.1H309.5c0-.5 0-1-.1-1.5h-.1V.2c-5.5 0-10.9-.1-16.4-.1v.3h-.1c-.1 1.3-.2 2.5 0 3.8h.1v.3c5.5 0 10.9.1 16.4.1v-.3h.2c.1-.6.1-1.1.1-1.7H309.9V8c0 .1-.1.1-.1.2l-.2.1-.4.2-.8.4-3 1.4-3 1.4-.4.2c-.1.1-.2.1-.3.2s-.1.2-.2.3c0 .1-.1.2-.1.3V14.6h-.8v.3c0 .1 0 .1.1.1h.7-.7c-.2 0-.3.1-.3.3l-.1 1.2c-.5.2-1.1.4-1.6.6s-1 .4-1.3.9c-.2.3-.3.6-.3 1-.1.7-.1 1.4 0 2.2v.6l-.3-.1-12.6 8.7s-7.3-3.8-10.9-5.3c-2.4-1-3.9-.6-4.6-.3l-.6-3.2c.8.1 1.7-.1 2.6-.1.7 0 1.4 0 1.9-.4.7-.5 1-1.3 1.2-2.1.2-.5.3-1.1.5-1.6s.3-1 .3-1.6c0-.5-.2-1-.6-1.3h.7c.2 0 .4-.2.3-.4-.2-1-.5-2-.7-3-.2-1.1 0-2.2-.7-3.2.2-.2.3-.4.5-.6.2-.4.4-.8.3-1.2-.1-.5-.5-1-.9-1.2-1.2-.6-2.1-.4-3.3 0-.5.2-1.2.2-1.6-.2-.2-.1-.3-.3-.4-.5-.7-.9-2.2-1-3-.2-.8.8-1.1 1.4-2.2 1.8-.7.2-1.5.5-2 1.1V9c.1.2.2.4.2.7.1.3-.1.6-.2.8V15c.6.6.5 1.4.5 2.3 0 .5-.3.8-.5 1.2V20c.4.5 1.2.5 1.8.2v.3c0 .2.2.4.4.4h.4l-.6 4.3h-.9l-1.2.4v87h2.2v-1.4h-.6v-.4l-.6-2.2h-.4v-.3h.8l1.5-26.3 6.3-17.2 9.4 10.7-7.3 22.3.9.1-.3.6h-.5l-1.3 1.6v1.3h-.5v1h14.9v-1h-.3v-.1c0-.9-.6-1.7-1.5-1.8l-4.7-1h-3.3l.2-.4.9.1 11.8-24.6-11.6-20-.6-1 1.4-17.5 9.7 1.3c.5.1 1-.1 1.4-.5.1-.1.2-.3.3-.4l10.7-11.9v.3c0 .2.1.3.3.3h2.6c.2 0 .3-.1.3-.3l-.1-1.7c.4-.2.7-.5.9-1 .2-.6 0-.7-.1-1.2-.1-.4.1-.7-.3-.9 0 0-.1 0-.1-.1s0-.2.1-.2c.3-.3.2-.9-.1-1.1-.1-.1-.3-.2-.5-.3l-.1-2c0-.2-.2-.3-.3-.3h-.5.6c.1 0 .1 0 .1-.1v-.3h-.7v-2c0-.1.1-.1.1-.2l.4-.2 3-1.4 3-1.4.8-.4.4-.2.2-.1c.1 0 .1-.1.1-.1.2-.1.3-.3.3-.5V2.5c.2.1.2 0 .2 0zm-10.6 20.7l-.2-.1c.1 0 .1 0 .2-.1v.2z" class="st39"/>
    <path d="M308.4 2.7v-.2c0-.1-.1-.2-.2-.3-.1-.1-.2-.1-.4-.1h-1.9v.5h1.9V8c0 .1-.1.1-.1.2l-.2.1-.4.2-.8.4-3 1.4-3 1.4-.4.2c-.1.1-.2.1-.3.2-.1.1-.1.2-.2.3 0 .1-.1.2-.1.3V15h.5V12.6c0-.1.1-.1.1-.2l.4-.2 3-1.4 3-1.4.8-.4.4-.2.2-.1c.1 0 .1-.1.1-.1.2-.1.3-.3.3-.5V2.5c.3.3.3.2.3.2z" class="st3"/>
    <path d="M307.3 4.4h-.3V.6h.3c.2 1.2.2 2.5 0 3.8zM290.6 4.2h.3V.4h-.3c-.1 1.2-.1 2.5 0 3.8z" class="st13"/>
    <path fill="#5891ed" d="M307.2.2c.1 1.5.1 3 0 4.5-5.5 0-10.9-.1-16.4-.1-.1-1.5-.1-3 0-4.5 5.4 0 10.9 0 16.4.1z"/>
    <path d="M290.7 2.3c0 .7 0 1.5.1 2.2 5.5 0 10.9.1 16.4.1.1-.7.1-1.5.1-2.2-5.6 0-11.1-.1-16.6-.1z" class="st2"/>
    <path d="M297.7 23.9c0 .2.1.3.3.3h2.6c.2 0 .3-.1.3-.3l-.3-8.5c0-.2-.2-.3-.3-.3h-1.9c-.2 0-.3.1-.3.3l-.4 8.5z" class="st13"/>
    <path fill="#bf9855" d="M300.5 14.7v.3c0 .1 0 .1-.1.1h-2c-.1 0-.1 0-.1-.1v-.3h2.2z"/>
    <path fill="#feca71" d="M299.5 15.1h-1c-.2 0-.3.1-.3.3l-.4 8.5c0 .2.1.3.3.3h1.3l.1-9.1z"/>
    <path d="M301.2 17.7c-.8-.8-2.2.2-3 .5.5-.2.7-1.1.3-1.5-.1-.1-.1-.1-.2-.1h-.3c-.5.2-1.1.4-1.6.6s-1 .4-1.3.9c-.2.3-.3.6-.3 1-.1.7-.1 1.4 0 2.2v.8c.5.6 1.3.6 2 1 .2.1.4.2.6.1.2 0 .4-.1.6-.2.7-.3 1.5-.6 2.3-.6.7 0 1.3-.4 1.5-1.1.2-.6 0-.7-.1-1.2-.1-.4.1-.7-.3-.9 0 0-.1 0-.1-.1s0-.2.1-.2c.2-.4.1-.9-.2-1.2zM257 106.4h2.5v3.6H257z" class="st51"/>
    <path d="M270.5 96.8h3.6v2.5h-3.6z" class="st51" transform="rotate(115.722 272.254 98.078)"/>
    <path d="M256.5 4.5c0-.2 0-.4-.1-.6-.2-.3-.5-.4-.8-.4-.3 0-.6 0-.9-.1s-.5-.3-.8-.3c-.7-.1-1.3.9-2 .7-.2 0-.3-.1-.5-.2-.6-.2-1.2.3-1.3.9-.2.6 0 1.2.1 1.8.2.8.9 2.2 1.4 2.9 1.3 0 1.6.4 2.9.5 0 0 .6-1 .5-1h.1c.1-.3.5-.6.7-.9.3-.3.6-.7.8-1.1.1-.3.1-.7.1-1.1-.2-.3-.2-.7-.2-1.1zM266.6 25.8h-5.8l1-7.6h3.3z" class="st51"/>
    <path d="M258.8 50.7L254 80.8l2.4 27.6h3.9l1.6-26.3 6.3-17.2 9.4 10.7-7.4 22.3 4.5.2 11.8-24.6-13.3-22.8z" class="st44"/>
    <path fill="#113651" d="M260.8 50.7h-2L254 80.8l2.4 27.6h.5l-.9-27.6z"/>
    <path d="M278 75.2l-8.3-11.8-1.5 1.5 9.4 10.7z" class="st45"/>
    <path d="M265.1 18.2h-3.3l-.6 4.6 4.5-1.5z" class="st39"/>
    <path d="M268 21h-6.9c-.2 0-.4-.2-.4-.4V6.2h6.9c.9 0 1.7.2 2.5.6 2.3 1.2 1.8 2.8 2 4.3.2 1 .5 2 .7 3 0 .2-.1.4-.3.4-.6 0-1.6.1-1.6.1l.4 2.5c.3 2-1.3 3.9-3.3 3.9z" class="st46"/>
    <path fill="#1e2022" d="M271.7 14.5c-1.7-1-2.7 1.1-3.9 1.7-.6.2-1.4.2-1.7-.4-.5-.7-.9-2.1-.8-2.9.1-.8.2-1.6.5-2.3.4-.7 1-1.5 1.8-1.9.4-.2.8-.3 1.2-.2.6.1.9.3 1.5.1.6-.2 1.2-.8 1.6-1.4.2-.4.4-.8.3-1.2-.1-.5-.5-1-.9-1.2-1.2-.6-2.1-.4-3.3 0-.5.2-1.2.2-1.6-.2-.2-.1-.3-.3-.4-.5-.7-.9-2.2-1-3-.2-.8.8-1.1 1.4-2.2 1.8-.7.2-1.6.6-2.1 1.2-.7 1.1.2 1.7.3 2.7.1.5-.3.9-.5 1.3-.5.8-.7 1.8-.5 2.7.1.4.3.9.6 1.1.8.6.7 1.5.7 2.5 0 .8-.7 1.2-.7 1.9-.1 1.5 2.2 1.5 2.7.3.6-1.6.1-3.4.1-5 0-.9 1-2.1 2-1.4.6.4.5 1 .5 1.6 0 .9-.1 1.8-.1 2.7-.1 1.3-.6 3.1.8 4 1.3.7 2.4.3 3.8.3.7 0 1.4 0 1.9-.4.7-.5 1-1.3 1.2-2.1.2-.5.3-1.1.5-1.6s.3-1 .3-1.6c0-.6-.2-1.1-.6-1.4z"/>
    <path d="M258.8 50.7l-.8 4.9c1.4 0 3.3.3 4.6-.2 1.5-.6 2.8-1.9 4.5-1.8.8.1 1.5.4 2.2.6 1 .3 2.1.3 3.1.1.9-.2 1.6-.7 2.5-.9l-1.6-2.7h-14.5z" class="st39"/>
    <path d="M265.9 25.2s1.5-1.5 5.1 0c3.5 1.5 10.9 5.3 10.9 5.3l12.6-8.7 3.6 1.6-11 12.1c-.3.6-1 1-1.7.9l-9.7-1.3-1.4 17.5c-.9.1-1.6.7-2.5.9-1 .2-2 .2-3-.1-.7-.2-1.4-.6-2.1-.6-1.6-.1-2.8 1.1-4.3 1.7-1.4.6-3.8.1-5.2.3-.4-1.8 1.2-4 1-5.9-.3-2.9-.9-6-2.6-8.4l-8.9-17.2L251 9.4h4.1L252.8 21l3.3 5.8 4.1-1.5 5.7-.1z" class="st11"/>
    <path d="M283.3 30.5l11.6-8.5-.5-.3-12.5 8.8zM259 54.6c.7 0 1.4.1 2 0h-2zM259.6 48.8c-.3-2.9-.9-6-2.6-8.4l-8.9-17.2 3.3-13.9h-.5l-4.3 13.9 8.9 17.2c1.7 2.4 2.3 5.5 2.6 8.4.2 1.9-1.4 4.1-1 5.9.4-.1.9-.1 1.5 0-.3-1.9 1.2-4.1 1-5.9z" class="st54"/>
    <g>
      <path fill="#d15a5a" d="M283.8 34.9l-9.7-1.3s-.8 19.1.1 18.9l1.4-17.5 9.7 1.3c.7.1 1.4-.3 1.7-.9 0 .1-2.5-.4-3.2-.5z"/>
    </g>
    <path d="M260.5 112.7H256v-2l.6-2h3.3l.6 2.2z" class="st11"/>
    <path d="M255.4 111.3h5.7v1.4h-5.7z" class="st16"/>
    <path d="M283.1 102.4h-14v-2.3l1.3-1.6h6.5l4.7 1c.9.2 1.5 1 1.5 1.8v1.1z" class="st11"/>
    <path d="M268.6 101.4h14.9v1h-14.9z" class="st16"/>
  </g>
</svg>