          <svg xmlns="http://www.w3.org/2000/svg" viewBox="196 -89.7 439.8 227.7">
            <g fill="#377DFF" opacity=".15">
              <ellipse cx="622.6" cy="57" opacity=".5" rx="10.4" ry="10.4"/>
              <path d="M483.7-72.5c0 7.5-6.1 13.5-13.5 13.5-7.5 0-13.5-6.1-13.5-13.5 0-7.5 6.1-13.5 13.5-13.5 7.4-.1 13.5 6 13.5 13.5zM297.8-55.3c0 3.8-3.1 6.9-6.9 6.9-3.8 0-6.9-3.1-6.9-6.9s3.1-6.9 6.9-6.9c3.8 0 6.9 3.1 6.9 6.9zM540.1-42.2c0 3.8-3.1 6.9-6.9 6.9s-6.9-3.1-6.9-6.9c0-3.8 3.1-6.9 6.9-6.9s6.9 3.1 6.9 6.9z" opacity=".5"/>
              <circle cx="375.8" cy="-82.8" r="6.9" opacity=".5"/>
              <path d="M635.8 87.2c0 1.6-1.3 2.8-2.8 2.8-1.6 0-2.8-1.3-2.8-2.8 0-1.6 1.3-2.8 2.8-2.8 1.6-.1 2.8 1.2 2.8 2.8zM525.9-67c0 1.2-1 2.1-2.1 2.1-1.2 0-2.1-1-2.1-2.1 0-1.2 1-2.1 2.1-2.1s2.1.9 2.1 2.1z" opacity=".5"/>
              <circle cx="318.1" cy="-82.8" r="2.8" opacity=".5"/>
              <path d="M221.9-22.7c0 2-1.6 3.7-3.7 3.7-2 0-3.7-1.6-3.7-3.7 0-2 1.6-3.7 3.7-3.7 2 .1 3.7 1.7 3.7 3.7zM629.9 12.2c0 2-1.6 3.7-3.7 3.7-2 0-3.7-1.6-3.7-3.7 0-2 1.6-3.7 3.7-3.7s3.7 1.7 3.7 3.7z" opacity=".5"/>
              <ellipse cx="254.8" cy="-34.2" opacity=".5" rx="15.6" ry="15.6"/>
              <path d="M208 93.6c0 2-1.6 3.7-3.7 3.7-2 0-3.7-1.6-3.7-3.7s1.6-3.7 3.7-3.7c2 0 3.7 1.7 3.7 3.7z" opacity=".5"/>
              <circle cx="602.7" cy="-42.2" r="15.1" opacity=".5"/>
              <ellipse cx="208" cy="25.5" opacity=".5" rx="12" ry="12"/>
              <path d="M620.6 137.7c0-28.2-6-55.1-16.8-79.3 3.9-8.1 6.1-17.1 6.1-26.7 0-34-27.5-61.5-61.5-61.5-6.4 0-12.5 1-18.3 2.8-30.2-19.2-66.1-30.4-104.6-30.4-4.8 0-9.6.2-14.3.5C402.8-63.2 392.3-67 381-67c-21.4 0-39.7 13.4-46.9 32.3-14.8 7.9-28.5 17.6-40.7 28.8-4-.9-8.1-1.4-12.4-1.4-30.8 0-55.7 24.9-55.7 55.7 0 13.4 4.7 25.7 12.6 35.3-4.9 17.1-7.6 35.2-7.6 53.9l390.3.1z" opacity=".5"/>
              <path d="M566.1 137.3C566.1 59 502.7-4.4 424.4-4.4S282.7 59 282.7 137.3h283.4z" opacity=".5"/>
            </g>
            <path fill="#00C9A7" d="M275.6 47.2c-.1 0-.2.1-.3.1-2.7 1.3-4.2 1.1-6.8-.1-2.5-1.1-4.8-2.5-6.9-4.3-2.6-2.3-4.6-5.3-5-8.7-.1-.8-.1-1.6.4-2.2.6-.9 1.9-1 2.9-.6s1.8 1.1 2.5 1.9c.3.3.7.6 1.1.7.4.1 1 0 1.2-.4.4-.6-.3-1.3-.8-1.8-1.3-1.1-2.5-1.7-3.8-2.6-1.7-1.2-3.2-2.6-4.2-4.5-.9-1.8-1.1-4.1-.2-5.9.3-.6.7-1.1 1.2-1.4.9-.6 2.1-.6 3.2-.3 1.1.2 2.1.6 3.2.8 2.6.3 3.6-1.6 3.6-4 0-1.6-.6-3.2-.6-4.8-.2-2.8 1.2-5.8 3.8-7.1 2.6-1.2 6.1-.1 7.1 2.6 1 2.9-1.3 6.2.2 9 .5.9 1.6 2.2 2.5 2.7 1.4.9 3.5-.2 5.2-.1.4 0 .8.1 1 .3.2.2.3.5.3.7.4 2-.3 4.2-1.9 5.6-1.7 1.6-4.7 2.4-5.4 4.8-.5 1.5-.3 5.3 2.2 4.9.9-.1 1.5-1 2.4-1.3 1.1-.4 2.3.4 2.8 1.4s.3 2.3-.1 3.3c-.7 1.7-1.9 3-3.2 4.3-2.5 2.8-4.2 5.4-7.6 7z"/>
            <path fill="none" stroke="#1E2022" stroke-miterlimit="10" d="M272 11.8V86M278.9 22l-6.9 6.9-6.9-6.9M278.9 35.9l-6.9 6.8-6.9-6.8"/>
            <path fill="#00C9A7" d="M586.2 89.8c-.1.1-.2.1-.3.2-3.4 1.6-5.1 1.3-8.4-.2-3-1.4-5.9-3-8.4-5.2-3.2-2.8-5.6-6.6-6.1-10.8-.1-.9-.1-2 .4-2.7.8-1 2.3-1.2 3.5-.7s2.2 1.4 3.1 2.3c.4.4.8.7 1.4.9.5.1 1.2 0 1.5-.5.4-.8-.3-1.7-1-2.2-1.6-1.3-3-2.1-4.7-3.2-2.1-1.5-4-3.2-5.1-5.5-1.1-2.3-1.4-5.1-.2-7.3.4-.7.9-1.3 1.5-1.7 1.2-.7 2.6-.7 4-.4 1.3.3 2.6.8 4 .9 3.2.3 4.5-1.9 4.4-4.9 0-2-.7-3.9-.8-5.9-.2-3.5 1.5-7.2 4.7-8.7 3.1-1.5 7.5-.1 8.7 3.2 1.2 3.6-1.6 7.6.3 11 .6 1.1 2 2.7 3 3.3 1.8 1.1 4.3-.2 6.3-.1.5 0 .9.1 1.3.4.2.2.3.6.4.9.5 2.5-.4 5.2-2.3 6.9-2.1 1.9-5.8 2.9-6.7 5.9-.6 1.9-.3 6.6 2.7 6.1 1.1-.2 1.9-1.3 2.9-1.6 1.3-.4 2.9.4 3.4 1.7.6 1.3.4 2.8-.1 4.1-.8 2.1-2.4 3.7-3.9 5.3-3.2 3.3-5.3 6.5-9.5 8.5z"/>
            <path fill="none" stroke="#1E2022" stroke-miterlimit="10" d="M581.8 46.2v91.3M590.2 58.9l-8.4 8.4-8.5-8.4M590.2 75.8l-8.4 8.5-8.5-8.5"/>
            <g>
              <path fill="none" stroke="#1E2022" stroke-miterlimit="10" d="M203 137.2h18.8"/>
            </g>
            <g fill="none" stroke="#1E2022" stroke-miterlimit="10">
              <path d="M625.4 137.5h-26.8c0-2.3-1.8-4.1-4.1-4.1s-4.1 1.8-4.1 4.1"/>
              <path d="M592.3 133.9c0-2.3-1.8-4.1-4.1-4.1s-4.1 1.8-4.1 4.1"/>
            </g>
            <g>
              <path fill="#377DFF" d="M341 128H223.7V55.5c0-.7.6-1.3 1.3-1.3h114.8c.7 0 1.3.6 1.3 1.3V128h-.1z"/>
              <path fill="#FFF" d="M229.7 60.9H335V122H229.7z"/>
              <path fill="#D8D8D8" d="M347.9 131.3h-131c3.7 3.7 8.8 5.8 14.1 5.8h102.9c5.2 0 10.2-2.1 14-5.8z"/>
              <path fill="#ECECEC" d="M216.9 127.6h131v3.7h-131z"/>
              <path fill="#D8D8D8" d="M290.5 130.5h-16.2c-.6 0-1-.5-1-1 0-.6.5-1 1-1h16.2c.6 0 1 .5 1 1s-.5 1-1 1z"/>
              <path fill="#B7D2F9" d="M252.7 79.4h-12.6c-1.2 0-2.1-1-2.1-2.1 0-1.2 1-2.1 2.1-2.1h12.7c1.2 0 2.1 1 2.1 2.1 0 1.2-1 2.1-2.2 2.1z"/>
              <path fill="#F2F3F7" d="M278.3 91h-18.6c-1.2 0-2.1-1-2.1-2.1 0-1.2 1-2.1 2.1-2.1h18.6c1.2 0 2.1 1 2.1 2.1 0 1.2-1 2.1-2.1 2.1z"/>
              <path fill="#B7D2F9" d="M292.8 91h-7.2c-1.2 0-2.1-1-2.1-2.1 0-1.2 1-2.1 2.1-2.1h7.2c1.2 0 2.1 1 2.1 2.1.1 1.2-.9 2.1-2.1 2.1z"/>
              <path fill="#F2F3F7" d="M278.3 102.6h-30c-1.2 0-2.1-1-2.1-2.1 0-1.2 1-2.1 2.1-2.1h30c1.2 0 2.1 1 2.1 2.1 0 1.2-1 2.1-2.1 2.1zM286.4 102.6h40c1.2 0 2.1-1 2.1-2.1 0-1.2-1-2.1-2.1-2.1h-40c-1.2 0-2.1 1-2.1 2.1 0 1.2.9 2.1 2.1 2.1zM257 114.3h-17c-1.2 0-2.1-1-2.1-2.1 0-1.2 1-2.1 2.1-2.1h17c1.2 0 2.1 1 2.1 2.1.1 1.1-.9 2.1-2.1 2.1z"/>
              <path fill="#DFE2EC" d="M264.2 114.3h5.5c1.2 0 2.1-1 2.1-2.1 0-1.2-1-2.1-2.1-2.1h-5.5c-1.2 0-2.1 1-2.1 2.1s.9 2.1 2.1 2.1z"/>
              <path fill="#F2F3F7" d="M276.8 114.3h41.3c1.2 0 2.1-1 2.1-2.1 0-1.2-1-2.1-2.1-2.1h-41.3c-1.2 0-2.1 1-2.1 2.1s1 2.1 2.1 2.1zM292.8 79.4h-31.5c-1.2 0-2.1-1-2.1-2.1 0-1.2 1-2.1 2.1-2.1h31.5c1.2 0 2.1 1 2.1 2.1.1 1.2-.9 2.1-2.1 2.1zM300 79.4h11.1c1.2 0 2.1-1 2.1-2.1 0-1.2-1-2.1-2.1-2.1H300c-1.2 0-2.1 1-2.1 2.1 0 1.2.9 2.1 2.1 2.1z"/>
            </g>
            <g>
              <path fill="#B7D2F9" d="M506.7 137.9h-185V-50.4c0-2.8 2.3-5.1 5.1-5.1h174.7c2.8 0 5.1 2.3 5.1 5.1v188.3h.1z"/>
              <path fill="#F3F4F9" d="M328.5-25.3h172.2v163.2H328.5z"/>
              <path fill="#E7EAF3" d="M343.8-13.3h141.5v54.4H343.8z"/>
              <path fill="#377DFF" d="M385.2-13.3h100.2v54.4H385.2z"/>
              <path fill="#377DFF" d="M343.8-13.3h141.6V10H343.8z"/>
              <path fill="#377DFF" d="M377.6 25.6c-1.5 0-2.7-1.2-2.7-2.7V5c0-1.5 1.2-2.7 2.7-2.7 1.5 0 2.7 1.2 2.7 2.7v17.9c0 1.5-1.2 2.7-2.7 2.7zM367.1 18.7c-1.5 0-2.7-1.2-2.7-2.7V5.2c0-1.5 1.2-2.7 2.7-2.7 1.5 0 2.7 1.2 2.7 2.7V16c0 1.5-1.2 2.7-2.7 2.7z"/>
              <path fill="#377DFF" d="M372.4-.8c-1.5 0-2.7 1.2-2.7 2.7v11c.1-1.4 1.2-2.5 2.6-2.5 1.4 0 2.5 1.1 2.6 2.5v-11c.1-1.5-1.1-2.7-2.5-2.7zM382.8.9c-1.5 0-2.7 1.2-2.7 2.7v11c.1-1.4 1.2-2.5 2.6-2.5s2.5 1.1 2.6 2.5V3.5c.1-1.4-1-2.6-2.5-2.6z"/>
              <path fill="#FFF" d="M371.8-42.7h92.3v7.6h-92.3z"/>
              <g fill="#377DFF">
                <path d="M493.2-41.5h-7c-.5 0-.9-.4-.9-.9s.4-.9.9-.9h7c.5 0 .9.4.9.9s-.4.9-.9.9zM493.2-38h-7c-.5 0-.9-.4-.9-.9s.4-.9.9-.9h7c.5 0 .9.4.9.9s-.4.9-.9.9zM493.2-34.6h-7c-.5 0-.9-.4-.9-.9s.4-.9.9-.9h7c.5 0 .9.4.9.9s-.4.9-.9.9z"/>
              </g>
              <circle cx="339.7" cy="-38.9" r="3.7" fill="#DE4437"/>
              <circle cx="350.6" cy="-38.9" r="3.7" fill="#FFC107"/>
              <circle cx="361.5" cy="-38.9" r="3.7" fill="#00C9A7"/>
              <path fill="#DFE2EC" d="M343.8 57.4h141.5v6.7H343.8zM343.8 73.2h141.5v6.7H343.8zM343.8 88.9h141.5v6.7H343.8zM343.8 104.7h141.5v6.7H343.8z"/>
            </g>
            <g>
              <g fill="none" stroke="#1E2022" stroke-miterlimit="10">
                <path d="M310.6-6.4v143.9M333.2-6.4v143.9M310.6 14.7h22.6M310.6 4.9h22.6M310.6 24.4h22.6M310.6 34.1h22.6M310.6 43.8h22.6M310.6 53.5h22.6M310.6 63.3h22.6M310.6 73h22.6M310.6 82.7h22.6M310.6 92.4h22.6M310.6 102.2h22.6M310.6 111.9h22.6M310.6 121.6h22.6M310.6 131.3h22.6"/>
              </g>
            </g>
            <g>
              <path fill="#FEC55E" d="M272.8 110.8h2l2.8-8.4c.2-.5.1-1-.1-1.5l-3.7-6.5h-.8l-.1 7c.1.1.7.3.8.4.5.5.5 1.4 0 1.9s-1.4.5-1.9 0-.5-1.4 0-1.9c.1-.1.5-.4.6-.4l.2-6.9h-.6l-3.8 6.5c-.3.5-.3 1-.2 1.5l2.7 8.4 2.1-.1z"/>
              <path fill="#231F20" d="M270.8 110.8h4l.9-2.8h-5.8z" opacity=".2"/>
              <path fill="#717386" d="M268.4 109.3h8.8v15.9h-8.8z"/>
              <path fill="#4D5068" d="M272.8 109.3h4.4v15.9h-4.4z"/>
              <path fill="#9A9DD0" d="M288.9 105.1v3.8c0 .7.6 1.3 1.3 1.3 1.4 0 2.5 1.1 2.5 2.5V123c0 1.3 1.1 2.4 2.5 2.3 1.2-.1 2-1.2 2-2.4v-10.1c0-1.4 1.1-2.5 2.5-2.5.7 0 1.3-.6 1.3-1.3v-3.9h-12.1zm5.2 17.7c0-.4.4-.8.8-.8s.8.4.8.8-.4.8-.8.8-.8-.4-.8-.8z"/>
              <path fill="#FEC55E" d="M288.9 93.4h12v8.7h-12z"/>
              <path fill="#FEC55E" d="M288.9 93.4h4.8v8.7h-4.8z"/>
              <path fill="#9E9E9E" d="M288.9 101.6h12v3.5h-12z"/>
              <path fill="#C5C5C5" d="M288.9 101.8h12v.5h-12zM288.9 103.1h12v.5h-12zM288.9 104.3h12v.5h-12z"/>
              <path fill="#8184C4" d="M294.9 105.1V122c-.4 0-.8.4-.8.8s.4.8.8.8v1.6c-1.3 0-2.3-1-2.3-2.3v-10.3c0-1.4-1.1-2.5-2.5-2.5-.7 0-1.3-.6-1.3-1.3v-3.7h6.1z"/>
              <path fill="#377DFF" d="M293 93.4v3.4c0 .5.4 1 1 1 .5 0 1-.4 1-1v-1c0-.4.4-.8.8-.8s.8.4.8.8v3.6c0 .4.4.8.8.8s.8-.4.8-.8v-1.7c.9 0 1.6-.7 1.6-1.6v-2.8H293v.1z"/>
              <path fill="#414042" d="M288.9 93.4V108.7c0 .7.6 1.3 1.3 1.3h.4V97.1l-1.4-3.6-.3-.1z" opacity=".3"/>
              <g>
                <path fill="#FEC55E" d="M284.5 97.1h4.9v24.4h-4.9zM289.5 122.7h-4.9v1.4c0 .6.5 1.2 1.2 1.2h2.6c.6 0 1.2-.5 1.2-1.2l-.1-1.4z"/>
                <path fill="#212121" d="M284.5 121.5h4.9v1.2h-4.9z"/>
                <path fill="#FED17E" d="M284.5 97.1h2.5v24.4h-2.5z"/>
                <path fill="#F1F2F2" d="M286.8 91.4l-2.3 5.7h4.9l-2.3-5.7c0-.2-.2-.2-.3 0z"/>
                <path fill="#212121" d="M286.9 91l-.6 1.5h1.3L287 91h-.1z"/>
              </g>
              <path fill="#414042" d="M275.3 109.3l2.3-6.8c.2-.5.1-1-.1-1.5l-3.2-5.7V124.9c0 .6.5 1.1 1.1 1.1h1.9v-15.9h-2v-.8z" opacity=".3"/>
              <g>
                <path fill="#377DFF" d="M276.3 90.3h3.9c.6 0 1 .5 1 1v32.9c0 .6-.5 1-1 1h-3.9c-.6 0-1-.5-1-1V91.3c0-.5.4-1 1-1z"/>
                <path fill="#B7D2F9" d="M276.4 90.3h2.1v34.9h-2.1c-.6 0-1.1-.5-1.1-1.1V91.4c0-.6.5-1.1 1.1-1.1z"/>
                <path fill="#414042" d="M275.3 122.8h.7v.4h-.7zM275.3 121.3h.7v.4h-.7zM275.3 119.7h.7v.4h-.7zM275.3 118.2h.7v.4h-.7zM275.2 116.6h1.5v.4h-1.5zM275.3 115.1h.7v.4h-.7zM275.3 113.5h.7v.4h-.7zM275.3 112h.7v.4h-.7zM275.3 110.4h.7v.4h-.7zM275.2 108.9h1.5v.4h-1.5zM275.3 107.3h.7v.4h-.7zM275.3 105.8h.7v.4h-.7zM275.3 104.2h.7v.4h-.7zM275.3 102.7h.7v.4h-.7zM275.2 101.1h1.5v.4h-1.5zM275.3 99.6h.7v.4h-.7zM275.3 98h.7v.4h-.7zM275.3 96.5h.7v.4h-.7zM275.3 94.9h.7v.4h-.7zM275.2 93.4h1.5v.4h-1.5zM275.3 91.8h.7v.4h-.7z"/>
              </g>
              <path fill="#414042" d="M280.2 90.3v6.9h-.6v7.6h.6v20.4c.6 0 1-.5 1-1.1V91.4c0-.6-.4-1-1-1.1z" opacity=".3"/>
              <g>
                <path fill="#191C3C" d="M281.3 104.5h2.6v20.7h-2.6z"/>
                <path fill="#474963" d="M282.6 104.5h1.3v20.7h-1.3z"/>
                <path fill="#191C3C" d="M280.7 99.9h3.5v4.9h-3.5z"/>
                <path fill="#FFF" d="M280.7 99.9h3.5v.3h-3.5z"/>
                <path fill="#191C3C" d="M280.7 97.2h3.5v2.7h-3.5z"/>
                <path fill="#9E9E9E" d="M284.1 91.6l-2.8-2.4v8h2.8z"/>
                <path fill="#ECECEC" d="M281.3 90.1v7.1h2.8v-4.7z"/>
                <path fill="#B1B1B1" d="M282.7 97.2h1.4v-4.7l-1.4-1.2z"/>
              </g>
              <g fill="#414042" opacity=".3">
                <path d="M275.3 125.2h4.9c.3 0 .5-.1.7-.3v-.1c.1-.1.1-.2.2-.3s.1-.3.1-.4V115h-12.8v10.2h6.9zM284.5 123.9c0 .7.6 1.3 1.3 1.3h2.4c.7 0 1.3-.6 1.3-1.3v-9h-4.9v9h-.1zM283.9 125.2V115h-2.6v10.2h1.3zM292.6 115v8c0 .2 0 .3.1.5 0 .1 0 .1.1.2 0 .1 0 .2.1.2 0 .1.1.2.1.2l.1.1c.1.1.1.2.2.3l.1.1c.1.1.2.2.3.2.4.3.9.4 1.5.4 1.2-.1 2-1.2 2-2.4V115h-4.6zm2.3 8.6c-.4 0-.8-.4-.8-.8s.4-.8.8-.8.8.4.8.8-.3.8-.8.8z" opacity=".3"/>
              </g>
              <g>
                <path fill="#FEC55E" d="M302.1 137.5h-34.2v-21.4h36.3v19.3c0 1.1-.9 2.1-2.1 2.1z"/>
                <path fill="#BF9447" d="M266.3 137.5h1.6v-21.4h-3.7v19.3c0 1.1.9 2.1 2.1 2.1z"/>
                <path fill="#231F20" d="M264.2 120.6h2.4l1.3-4.5-3.7.9z" opacity=".2"/>
                <path fill="#FEC55E" d="M263.6 118.8h2.6c.2 0 .4-.1.4-.3l1.2-2.4h-3.7l-1 2c-.1.3.2.7.5.7z"/>
                <path fill="#231F20" d="M304.2 120.6V117l-36.3-.9 2 4.5z" opacity=".2"/>
                <path fill="#FEC55E" d="M305.2 118.8h-35.1c-.2 0-.3-.1-.4-.2l-1.8-2.5h36.3l1.4 1.9c.3.3.1.8-.4.8z"/>
              </g>
              <path fill="#8C98A4" d="M547.1 60.7h-92.2c-1.2 0-2.1 1-2.1 2.2v75h96.4V63c0-1.3-.9-2.3-2.1-2.3z" opacity=".3"/>
              <g>
                <path fill="#F5F7F9" d="M556.3 137.9H456V65.2c0-2.4 2-4.4 4.4-4.4h91.4c2.4 0 4.4 2 4.4 4.4v72.7h.1z"/>
                <path fill="#377DFF" d="M556.3 70.1v-7.4c0-1.2-1-2.2-2.2-2.2h-95.8c-1.2 0-2.2 1-2.2 2.2v7.4h100.2z"/>
                <path fill="#FFF" d="M463.5 65.6c0 .7-.6 1.3-1.3 1.3-.7 0-1.3-.6-1.3-1.3s.6-1.3 1.3-1.3c.8 0 1.3.6 1.3 1.3zM467.8 65.6c0 .7-.6 1.3-1.3 1.3-.7 0-1.3-.6-1.3-1.3s.6-1.3 1.3-1.3c.7 0 1.3.6 1.3 1.3zM472.1 65.6c0 .7-.6 1.3-1.3 1.3-.7 0-1.3-.6-1.3-1.3s.6-1.3 1.3-1.3 1.3.6 1.3 1.3z"/>
                <path fill="#191C3C" d="M554.1 60.8h-2.8c1.2 0 2.2 1 2.2 2.2v74.9h2.8V63c0-1.2-1-2.2-2.2-2.2z" opacity=".2"/>
                <path fill="#DFE2EC" d="M466 79.7h-1.6c-1 0-1.8-.8-1.8-1.8s.8-1.8 1.8-1.8h1.6c1 0 1.8.8 1.8 1.8s-.8 1.8-1.8 1.8zM466 88.8h-1.6c-1 0-1.8-.8-1.8-1.8s.8-1.8 1.8-1.8h1.6c1 0 1.8.8 1.8 1.8s-.8 1.8-1.8 1.8zM466 97.8h-1.6c-1 0-1.8-.8-1.8-1.8s.8-1.8 1.8-1.8h1.6c1 0 1.8.8 1.8 1.8s-.8 1.8-1.8 1.8zM466 106.8h-1.6c-1 0-1.8-.8-1.8-1.8s.8-1.8 1.8-1.8h1.6c1 0 1.8.8 1.8 1.8s-.8 1.8-1.8 1.8zM466 115.9h-1.6c-1 0-1.8-.8-1.8-1.8s.8-1.8 1.8-1.8h1.6c1 0 1.8.8 1.8 1.8s-.8 1.8-1.8 1.8zM466 124.9h-1.6c-1 0-1.8-.8-1.8-1.8s.8-1.8 1.8-1.8h1.6c1 0 1.8.8 1.8 1.8s-.8 1.8-1.8 1.8zM466 134h-1.6c-1 0-1.8-.8-1.8-1.8s.8-1.8 1.8-1.8h1.6c1 0 1.8.8 1.8 1.8s-.8 1.8-1.8 1.8zM544.3 79.7h-1.6c-1 0-1.8-.8-1.8-1.8s.8-1.8 1.8-1.8h1.6c1 0 1.8.8 1.8 1.8s-.8 1.8-1.8 1.8z"/>
                <path fill="#8184C4" d="M544.3 88.8h-1.6c-1 0-1.8-.8-1.8-1.8s.8-1.8 1.8-1.8h1.6c1 0 1.8.8 1.8 1.8s-.8 1.8-1.8 1.8z"/>
                <path fill="#FCD991" d="M544.3 97.8h-1.6c-1 0-1.8-.8-1.8-1.8s.8-1.8 1.8-1.8h1.6c1 0 1.8.8 1.8 1.8s-.8 1.8-1.8 1.8z"/>
                <path fill="#8184C4" d="M544.3 106.8h-1.6c-1 0-1.8-.8-1.8-1.8s.8-1.8 1.8-1.8h1.6c1 0 1.8.8 1.8 1.8s-.8 1.8-1.8 1.8z"/>
                <path fill="#FCD991" d="M544.3 115.9h-1.6c-1 0-1.8-.8-1.8-1.8s.8-1.8 1.8-1.8h1.6c1 0 1.8.8 1.8 1.8s-.8 1.8-1.8 1.8z"/>
                <path fill="#8184C4" d="M544.3 124.9h-1.6c-1 0-1.8-.8-1.8-1.8s.8-1.8 1.8-1.8h1.6c1 0 1.8.8 1.8 1.8s-.8 1.8-1.8 1.8z"/>
                <path fill="#DFE2EC" d="M544.3 134h-1.6c-1 0-1.8-.8-1.8-1.8s.8-1.8 1.8-1.8h1.6c1 0 1.8.8 1.8 1.8s-.8 1.8-1.8 1.8zM495.8 79.7h-23.1c-1 0-1.8-.8-1.8-1.8s.8-1.8 1.8-1.8h23.1c1 0 1.8.8 1.8 1.8s-.8 1.8-1.8 1.8z"/>
                <path fill="#FEC55E" d="M501.5 79.7h4.7c1 0 1.8-.8 1.8-1.8s-.8-1.8-1.8-1.8h-4.7c-1 0-1.8.8-1.8 1.8s.8 1.8 1.8 1.8zM483.2 88.8h-10.4c-1 0-1.8-.8-1.8-1.8s.8-1.8 1.8-1.8h10.4c1 0 1.8.8 1.8 1.8s-.8 1.8-1.8 1.8z"/>
                <path fill="#377DFF" d="M492.5 88.8h31.2c1 0 1.8-.8 1.8-1.8s-.8-1.8-1.8-1.8h-31.2c-1 0-1.8.8-1.8 1.8s.8 1.8 1.8 1.8z"/>
                <path fill="#DFE2EC" d="M516.7 97.8h-43.9c-1 0-1.8-.8-1.8-1.8s.8-1.8 1.8-1.8h43.9c1 0 1.8.8 1.8 1.8s-.8 1.8-1.8 1.8zM526.4 106.8h-53.6c-1 0-1.8-.8-1.8-1.8s.8-1.8 1.8-1.8h53.6c1 0 1.8.8 1.8 1.8s-.8 1.8-1.8 1.8z"/>
                <path fill="#377DFF" d="M516.7 115.9h-16.2c-1 0-1.8-.8-1.8-1.8s.8-1.8 1.8-1.8h16.2c1 0 1.8.8 1.8 1.8s-.8 1.8-1.8 1.8z"/>
                <path fill="#DFE2EC" d="M493.9 115.9h-21.1c-1 0-1.8-.8-1.8-1.8s.8-1.8 1.8-1.8h21.1c1 0 1.8.8 1.8 1.8s-.8 1.8-1.8 1.8zM506.2 124.9h-33.4c-1 0-1.8-.8-1.8-1.8s.8-1.8 1.8-1.8h33.4c1 0 1.8.8 1.8 1.8s-.8 1.8-1.8 1.8z"/>
                <path fill="#FEC55E" d="M512.2 124.9h10.7c1 0 1.8-.8 1.8-1.8s-.8-1.8-1.8-1.8h-10.7c-1 0-1.8.8-1.8 1.8s.8 1.8 1.8 1.8z"/>
                <path fill="#DFE2EC" d="M516.7 134h-43.9c-1 0-1.8-.8-1.8-1.8s.8-1.8 1.8-1.8h43.9c1 0 1.8.8 1.8 1.8s-.8 1.8-1.8 1.8z"/>
              </g>
              <g>
                <path fill="#FEC55E" d="M487.1 125.6l-6.4-.5 5.1-5.9zM482 131.4l-6.4-.5 5.1-5.8z"/>
                <path fill="#FEC55E" d="M494.5 137.2h-17.7l15.4-17.5z"/>
                <path fill="#FED17E" d="M494.5 137.2l-12.5-5.8 5.1-5.9zM475.6 130.9l1.2 6.3 5.1-5.8z"/>
                <path fill="#FED17E" d="M480.7 125.1l1.3 6.3 5.1-5.8zM485.8 119.2l1.3 6.3 5.1-5.8z"/>
              </g>
              <g>
                <path fill="#FCD991" d="M466.2 135.8c-3.7 3.1-9.2 2.6-12.2-1.1-3.1-3.7-2.6-9.2 1.1-12.2 3.7-3.1 9.2-2.6 12.2 1.1 3.1 3.7 2.6 9.2-1.1 12.2z"/>
                <path fill="#FFF" d="M463 127.5l-2.8 5.9c0 .1-.1.1-.2.1h-.1c-.1 0-.2-.1-.2-.3l1-4.1-2.1.5h-.1c-.1 0-.1 0-.2-.1s-.1-.1-.1-.2l1-4.2c0-.1.1-.2.2-.2h1.7c.1 0 .2.1.2.2v.1l-.9 2.4 2-.5h.1c.1 0 .1 0 .2.1.3.1.3.2.3.3z"/>
                <path fill="#231F20" d="M459.5 129.4c0-2.9-1.3-5.4-3.3-7.2-.4.2-.8.5-1.2.8-2 1.7-3 4-3.1 6.4.1 1.9.7 3.7 2 5.3.6.8 1.4 1.4 2.2 1.9 2.1-1.7 3.4-4.3 3.4-7.2z" opacity=".3"/>
                <path fill="#377DFF" d="M458 128.3c0 5.3-4.3 9.5-9.5 9.5-5.3 0-9.5-4.3-9.5-9.5 0-5.3 4.3-9.5 9.5-9.5s9.5 4.3 9.5 9.5z"/>
                <path fill="#FFF" d="M451 131.6c0 .1 0 .2-.1.2 0 0-.5.2-1.1.2-1.6 0-3-1-3.4-2.5h-.5c-.1 0-.2-.1-.2-.2v-.6c0-.1.1-.2.2-.2h.3v-.6h-.4c-.1 0-.2-.1-.2-.2v-.6c0-.1.1-.2.2-.2h.5c.5-1.5 1.8-2.4 3.4-2.4.5 0 1 .1 1 .1s.1 0 .1.1v.1l-.2.8c0 .1-.1.1-.2.1 0 0-.4-.1-.7-.1-.9 0-1.6.5-2 1.3h2.5c.1 0 .1 0 .1.1v.1l-.1.6c0 .1-.1.1-.2.1h-2.6v.6h2.4c.1 0 .1 0 .1.1v.1l-.1.6c0 .1-.1.1-.2.1h-2c.3.8 1.1 1.3 2 1.3.5 0 .8-.1.8-.1h.1l.1.1.4 1z"/>
                <path fill="#231F20" d="M444.8 120.6c-3.3 1.4-5.7 4.6-5.9 8.4.2 3.2 2.1 6 4.7 7.6 4-2.9 5.4-8.3 3.3-12.9-.5-1.2-1.2-2.2-2.1-3.1z" opacity=".3"/>
                <ellipse cx="435.8" cy="127.4" fill="#FEC55E" rx="10.5" ry="10.5"/>
                <path fill="#FFF" d="M441.9 123.5v6.9c0 .5-.4.9-.9.9h-9.1c-.5 0-.9-.4-.9-.9v-6.9c0-.5.4-.9.9-.9h9.1c.4 0 .9.4.9.9zm-10.3 0v1.3h9.5v-1.3c0-.1-.1-.2-.2-.2h-9.1c-.1 0-.2.1-.2.2zm9.5 7V127h-9.5v3.5c0 .1.1.2.2.2h9.1c.1 0 .2-.1.2-.2zm-8.7-1.3h1.5v.7h-1.5v-.7zm2.2 0h2.2v.7h-2.2v-.7z"/>
                <path fill="#231F20" d="M426.3 131.8c.7 1.5 1.7 2.7 2.8 3.6.6-.8 1.2-1.8 1.5-2.8 1.4-4.1.2-8.5-2.9-11.2-1.5 1.8-2.4 4.1-2.4 6.5.1 1.3.4 2.6 1 3.9z" opacity=".3"/>
                <g>
                  <path fill="#00C9A7" d="M428.6 130.9c-1.9 5.4-7.9 8.3-13.3 6.4-5.4-1.9-8.3-7.9-6.4-13.3 1.9-5.4 7.8-8.3 13.3-6.4 5.5 2 8.3 7.9 6.4 13.3z"/>
                  <path fill="#FFF" d="M419.1 131.1v.9c0 .1-.1.2-.2.2h-.7c-.1 0-.2-.1-.2-.2v-.9c-1.2-.2-1.9-.9-2-1-.1-.1-.1-.2 0-.2l.6-.7.1-.1h.1s.8.7 1.7.7c.5 0 1.1-.3 1.1-.9 0-.5-.6-.8-1.4-1.1-1-.4-2.2-.9-2.2-2.2 0-1 .8-1.8 1.9-2v-1c0-.1.1-.2.2-.2h.7c.1 0 .2.1.2.2v.9c1.1.1 1.7.7 1.7.7.1.1.1.1 0 .2l-.4.8-.1.1h-.1s-.7-.6-1.5-.6c-.7 0-1.1.3-1.1.8 0 .6.7.8 1.4 1.1 1 .4 2.1.8 2.1 2.1s-.8 2.2-1.9 2.4z"/>
                </g>
              </g>
              <g>
                <path fill="#377DFF" d="M400.4 128.4c0 5.1-4.1 9.3-9.3 9.3-5.1 0-9.3-4.1-9.3-9.3s4.1-9.3 9.3-9.3c5.1 0 9.3 4.2 9.3 9.3z"/>
                <path fill="#FFF" d="M390.3 131.3l-3-3 1-1 2 1.9 3.6-3.7 1.1 1.1z"/>
                <path fill="#231F20" d="M381.9 128.4c0 2.9 1.4 5.6 3.5 7.2 1-.8 1.9-1.9 2.5-3.1 1.9-4 .8-8.6-2.4-11.4-2.3 1.8-3.6 4.4-3.6 7.3z" opacity=".3"/>
                <path fill="#FEC55E" d="M386.1 132.5c-2.3 4.7-7.9 6.7-12.6 4.4s-6.7-7.9-4.4-12.6c2.3-4.7 7.9-6.7 12.6-4.4 4.7 2.3 6.7 7.9 4.4 12.6z"/>
                <path fill="#FFF" d="M377.1 127.2l1-2.1 1.7.8-1 2.1 2.1 1-.7 1.5-2.1-1-1 2.1-1.7-.8 1-2.1-2-1 .7-1.5 2 1z"/>
                <path fill="#231F20" d="M372.9 120.2c-1.6.9-3 2.3-3.9 4.1-2.1 4.4-.5 9.7 3.6 12.2 2.8-1.7 4.7-4.7 4.7-8.2 0-3.4-1.8-6.4-4.4-8.1z" opacity=".3"/>
                <g>
                  <circle cx="366.3" cy="128.2" r="9.6" fill="#191C3C"/>
                  <path fill="#FFF" d="M369.8 128.4c.2.3.3.7.3 1.2-.1.6-.3 1.1-.8 1.3-.4.2-1 .4-1.7.4v1.2h-.9v-1.2h-.7v1.2h-.9v-1.2h-1.7l.2-1h.7c.1 0 .2-.1.2-.3v-3.8c0-.2-.1-.3-.3-.3H363.4v-.9h1.7v-1.4h.9v1.4h.7v-1.3h.9v1.4c.6.1 1 .2 1.4.4s.6.6.6 1c.1.7-.2 1.1-.7 1.4.3 0 .7.2.9.5zm-3.8-.8h.1c.5 0 .9 0 1.1-.1.5-.1.7-.4.7-.7 0-.4-.2-.6-.7-.8-.3-.1-.6-.1-1.1-.1h-.2l.1 1.7zm.2 2.7c.6 0 1 0 1.3-.1.5-.1.8-.4.8-.8s-.3-.7-.8-.8c-.3-.1-.7-.1-1.3-.1h-.2v1.8h.2z"/>
                </g>
              </g>
              <g>
                <path fill="#FEC55E" d="M342.8 129.5h2.3c.5 0 .9-.4.9-.9v-3c0-.5-.4-.9-.9-.9h-1.8c-.3 0-.6-.2-.7-.5-.1-.2-.1-.3-.2-.5-.1-.3-.1-.6.1-.8l1.3-1.3c.3-.3.3-.9 0-1.2l-2.1-2.1c-.3-.3-.9-.3-1.2 0l-1.3 1.3c-.2.2-.5.3-.8.1-.2-.1-.4-.2-.6-.2-.3-.1-.4-.4-.4-.7V117c0-.5-.4-.9-.9-.9h-3c-.5 0-.9.4-.9.9v1.8c0 .3-.2.6-.5.7-.2.1-.4.1-.5.2-.3.1-.6.1-.8-.1l-1.3-1.3c-.3-.3-.9-.3-1.2 0l-2.1 2.1c-.3.3-.3.9 0 1.2l1.3 1.3c.2.2.3.5.2.8-.1.2-.2.4-.2.6-.1.3-.4.4-.7.4H325c-.5 0-.9.4-.8.9v3c0 .5.4.9.9.8h1.8c.3 0 .6.2.7.5.1.2.1.3.2.5.1.3.1.6-.1.8l-1.3 1.3c-.3.3-.3.9 0 1.2l2.1 2.1c.3.3.9.3 1.2 0l1.3-1.3c.2-.2.5-.3.8-.1.2.1.4.2.6.2.3.1.4.4.4.7v1.8c0 .5.4.9.9.8h3c.5 0 .9-.4.8-.9v-1.8c0-.3.2-.6.5-.7.2-.1.3-.1.5-.2.3-.1.6-.1.8.1l1.3 1.3c.3.3.9.3 1.2 0l2.1-2.1c.3-.3.3-.9 0-1.2l-1.3-1.3c-.2-.2-.3-.5-.1-.8.1-.2.3-.8.3-.8zm-11.8-3.1c.5-2.6 3.2-4.1 5.6-3.2 1.9.7 3 2.7 2.6 4.7-.5 2.6-3.2 4.1-5.6 3.2-1.8-.7-2.9-2.7-2.6-4.7z"/>
              </g>
              <g>
                <path fill="#FDFDFE" d="M256.4 137.5h-24.9c-1.2 0-2.2-1-2.2-2.2v-20.6h27.1c.4 0 .8.3.8.8v21.3c-.1.3-.4.7-.8.7z"/>
                <path fill="#575A8F" d="M232.2 133.6c-1 0-3 .2-3 2.3v-22.4c0-1.3 1-2.3 2.3-2.3h.7v22.4z"/>
                <path fill="#377DFF" d="M248.3 128.1h1.5c.3 0 .5-.2.5-.5v-1.9c0-.3-.2-.5-.5-.5h-1.2c-.2 0-.4-.1-.4-.3 0-.1-.1-.2-.1-.3-.1-.2-.1-.4.1-.5l.8-.8c.2-.2.2-.6 0-.8l-1.3-1.3c-.2-.2-.6-.2-.8 0l-.8.8c-.1.1-.3.2-.5.1-.1-.1-.2-.1-.4-.1-.2-.1-.3-.2-.3-.4v-1.2c0-.3-.2-.5-.5-.5h-1.9c-.3 0-.5.2-.5.5v1.2c0 .2-.1.4-.3.4-.1 0-.2.1-.3.1-.2.1-.4.1-.5-.1l-.9-.9c-.2-.2-.6-.2-.8 0l-1.3 1.3c-.2.2-.2.6 0 .8l.8.8c.1.1.2.3.1.5-.1.1-.1.2-.1.4-.1.2-.2.3-.4.3h-1.2c-.3 0-.5.2-.5.5v1.9c0 .3.2.5.5.5h1.2c.2 0 .4.1.4.3 0 .1.1.2.1.3.1.2.1.4-.1.5l-.8.8c-.2.2-.2.6 0 .8l1.3 1.3c.2.2.6.2.8 0l.8-.8c.1-.1.3-.2.5-.1.1.1.2.1.4.1.2.1.3.2.3.4v1.2c0 .3.2.5.5.5h1.9c.3 0 .5-.2.5-.5v-1.2c0-.2.1-.4.3-.4.1 0 .2-.1.3-.1.2-.1.4-.1.5.1l.8.8c.2.2.6.2.8 0l1.3-1.3c.2-.2.2-.6 0-.8l-.8-.8c-.1-.1-.2-.3-.1-.5.2-.2.3-.6.3-.6zm-7.5-2c.3-1.7 2-2.6 3.6-2 1.2.5 1.9 1.7 1.7 3-.3 1.7-2 2.6-3.6 2-1.2-.4-1.9-1.7-1.7-3z"/>
                <path fill="#414042" d="M257.1 136.9v-21.7c0-.3-.3-.6-.6-.6h-1.8V136.8c0 .3.3.6.6.6h1.2c.4.1.6-.2.6-.5z" opacity=".3"/>
                <g>
                  <path fill="#FEC55E" d="M255.5 112.8h2.5v21.6h-2.5z"/>
                  <path fill="#575A8F" d="M258 134.3h-2.5v2.3c0 .5.4.8.8.8h.9c.5 0 .8-.4.8-.8v-2.3z"/>
                  <path fill="#FDE1A7" d="M255.5 112.8h1.3v21.6h-1.3z"/>
                  <path fill="#F1F2F2" d="M256.6 109.8l-1.2 2.9h2.6l-1.2-2.9c0-.1-.1-.1-.2 0z"/>
                  <path fill="#212121" d="M256.7 109.7l-.3.8h.7l-.4-.8c0-.1 0-.1 0 0zM255.5 133.7h2.5v.6h-2.5z"/>
                </g>
              </g>
            </g>
            <g>
              <path fill="#191C3C" d="M556.3 127.4l-.7.3-.4-.8 1.1-.3v-1.9l-9.4-22.7-1.3-14.2s1.3-1.7 2.3-4.6c.6-1.8.4-4.3.2-5.9h.6v-2.4h-.3c1.2-2.3 3.8-8.9 5.9-14.5h-16.9l-.7.7v-.7H505v9c0 1.2.9 2.1 2.1 2.1h8.8c-.3.1-.6.3-.8.5l5.3.6h2.7l2.3-1.1h8.8c-.5 1.5-1 2.7-1.3 3.4h-1v2.4h.4l-1 5.1-.1.6-5.8 18.9-1.9 26.5h1.4v1.1h-1.3l-2.1 2.4H517c-2.7 0-5.3 1.5-6.5 4h-.7v1.5h19.5v-1.5h-.7v-6.4h-1v-1.1h1.5l4.4-28.1v-.1l2.6-3.9 3.6 10.3 11.8 21.2.9-.3.6 1.1-.8.4-1 3-5.1.1c-2.5 1-3.1 1.1-3.4 3.6h-.4v1.5h10.6l3.4-1.4v-8.4z" opacity=".3"/>
              <path fill="#FEC55E" d="M535 52.4l-22.7 11.3c-.4.2-.8 0-1-.3l-6.9-13.9c-.2-.4 0-.8.3-1l22.7-11.3c.4-.2.8 0 1 .3l6.9 13.9c.2.4 0 .8-.3 1z"/>
              <path fill="#FED17E" d="M535.3 51.8l-15.5-2.6c-.4-.1-.8.1-.9.5l-7.2 13.9c.3.1.6.2.8 0l22.3-11.1c.3-.1.4-.4.5-.7z"/>
              <path fill="#FED17E" d="M504.4 49l15.5 2.6c.4.1.8-.1.9-.5l7.2-13.9c-.3-.1-.6-.2-.8 0l-22.3 11.1c-.3.2-.5.5-.5.7z"/>
              <path fill="#231F20" d="M509.1 46.3c2.4 2.7 6.4 3.5 9.8 1.9 3.4-1.7 5.1-5.4 4.4-8.9l-14.2 7z" opacity=".3"/>
              <path fill="#377DFF" d="M522.3 36.3c2 4.1.4 9.1-3.7 11.1s-9.1.4-11.1-3.7c-2-4.1-.4-9.1 3.7-11.1s9.1-.4 11.1 3.7z"/>
              <path fill="#19A0FF" d="M519.4 37.8c1.2 2.5.2 5.5-2.3 6.8-2.5 1.2-5.5.2-6.8-2.3-1.2-2.5-.2-5.5 2.3-6.8 2.5-1.2 5.6-.2 6.8 2.3z"/>
              <path fill="#FFF" d="M517.4 42.2l-1.2.6-2.4-4.8-1.1.6-.6-1.2 2.3-1.2zM534.5 61l-17.9-10.8c-.3-.2-.4-.6-.2-1l7.3-12.1c.2-.3.6-.4 1-.2l17.9 10.8c.3.2.4.6.2 1l-7.3 12.1c-.2.3-.7.4-1 .2z"/>
              <path fill="#FEC55E" d="M532.4 53.5l-10.2-6.1c1.7-2.8 5.3-3.7 8.1-2 2.9 1.7 3.8 5.3 2.1 8.1z"/>
              <path fill="#575A8F" d="M522.4 51.1l8.9-2.1 1.9 8.7z"/>
              <path fill="#6371C5" d="M517.8 48.4l9-2.2 1.9 8.7zM534.9 47.7l2 1.2c.2.1.3.4.1.6-.1.2-.4.3-.6.1l-.1-.1c-.2-.1-.4-.1-.5.1-.1.2-.1.4.1.5l2.1 1.3c.2.1.2.3.1.5s-.3.2-.5.1l-6.6-4c-.2-.1-.2-.3-.1-.5s.3-.2.5-.1l.4.3c.2.1.4.1.5-.1.1-.2.1-.4-.1-.5l-1.9-1.1c-.2-.1-.3-.4-.1-.6.1-.2.4-.3.6-.1l4.1 2.4z"/>
              <path fill="#FCD991" d="M536.5 71.5H510V54.6h28.7v14.8c0 1.2-1 2.1-2.2 2.1z"/>
              <path fill="#BDA36D" d="M509.2 71.5h.8V54.6h-3v14.8c0 1.2 1 2.1 2.2 2.1z"/>
              <path fill="#191C3C" d="M507 58.2h1.9l1.1-3.6-3 .7z" opacity=".2"/>
              <path fill="#FCD991" d="M506.6 56.8h2.1c.1 0 .3-.1.4-.2l.9-1.9h-3l-.8 1.6c-.1.2.1.5.4.5z"/>
              <path fill="#191C3C" d="M538.7 58.2v-2.9l-28.7-.7 1.5 3.6z" opacity=".2"/>
              <path fill="#FCD991" d="M539.5 56.8h-27.7c-.1 0-.2-.1-.3-.2l-1.5-2h28.7l1.1 1.5c.2.3 0 .7-.3.7z"/>
              <path fill="#DDB758" d="M526.8 127.6h2.8v3.1h-2.8zM557.93 128.3l-2.513 1.235-1.368-2.781 2.512-1.236z"/>
              <path fill="#DE4437" d="M549.8 75.8l-4.6 10-9.7 14.6-4.4 28.1h-5.7l1.9-26.5 5.8-18.9 1.5-7.3z"/>
              <path fill="#191C3C" d="M547 81.9l-13.2-2-.6 3.1-.7 2.2c1.5 3.8 3 9.2 3.1 15.1l9.6-14.5 1.8-3.9z" opacity=".3"/>
              <path fill="#DDB758" d="M549.6 38.3h5.8v6.8h-5.8z"/>
              <path fill="#191C3C" d="M555.4 42l-5.8-2.1v-1.6h5.8z" opacity=".3"/>
              <path fill="#093A66" d="M548.5 41.7l7.8 2v1.5s3.1 4.1 2.9 6.2c-.2 2.1-8.2 23.6-9.4 24.4h-15.3s6.1-16 6.5-17.8c0 0 1.9-8.6 5.2-11.3 0 0 1-1.7 2-2.2 0 .1.9-1 .3-2.8z"/>
              <path fill="#272834" d="M549.4 60.2l-4.6-5.9 4.2-3.6c1.4-1.5 3.8-1.5 5.3-.1s1.5 3.8.1 5.3l-5 4.3z"/>
              <path fill="#093A66" d="M548.7 59.5l-4.5-5.9 4.9-3.8c1.5-1.2 3.7-.9 4.9.7l.3.3c1.2 1.5.9 3.7-.7 4.9l-4.9 3.8z"/>
              <path fill="#191C3C" d="M539.3 63.2c-.7 1.8-1.4 3.8-2.1 5.7l3.4-1.6 8.8-7.1-3.4-4.5-6.7 7.5z"/>
              <path fill="#DDB758" d="M525.1 72.6l14.4-6.8 8.8-7.1-3.4-4.5-7.2 8-13 8.1.5.6-2.6.1c-1.1 0-4.1-.4-5.3.9l5.3.6 2.5.1z"/>
              <path fill="#DE4437" d="M549.8 75.8s.9 4.5 0 7.4-2.3 4.6-2.3 4.6l1.3 14.2 10.1 24.3-5.4 1.6-11.8-21.2-8.5-24.3 1.3-6.6h15.3z"/>
              <path fill="#EFDCB4" d="M557.7 39.8h-8.4c-1.3 0-2.4-1.1-2.4-2.4v-2.7h-2.1c-.9-7.1 2.1-9.2 2.1-9.2h10.8v14.3z"/>
              <g>
                <path fill="#2E5F7A" d="M560.9 26.7c-.2-1.2-1-3.2-2.1-3.8-.6-.3-1.3-.3-1.9 0 0-.8-.5-1.8-1.3-1.8-.5 0-1.1.2-1.6.3-1.8.6-3.6 1.2-5.5 1.1-2 0-3.7-.8-5-2.2 0 1.1.2 2.2.5 3.3.1.4.3.8.5 1.1.3.5.8.8 1.4 1.2 1.5 1 2.6.4 4.2.5.7 0 1.3.2 2 .2.6 0 1.4-.2 2 .1 1.9 1-2.5 3.6-2.5 4.5 1-.5 2-1.1 2.9-1.6-1 1.2-2.1 2.5-2.1 4.1.7-.7 1.6-1.2 2.6-1.4-.3.7-.6 1.3-1 2-.1.2-.2.5 0 .6.3.2.7-.4 1-.2-.4.9-.8 1.8-1.2 2.8.4-.2.8-.4 1-.7-.3 1-.2 2.1.2 3 .7-.1 1.3.5 2.1.6.7.1 1.1-.4 1.6-.6.7-.3 1.7-.3 2.4-.1-.3-.5-.6-1-.7-1.6-.4-1.5.4-2.6.6-4 .2-1.7.2-3.4.2-5.1-.1-.8-.1-1.6-.3-2.3z"/>
              </g>
              <path fill="#272834" d="M533.9 75h16.8v2.4h-16.8z"/>
              <path fill="#DDB758" d="M524.3 71.8l-1.7-1.7c-.3-.2-.4-.5-.3-.8.2-.3.5-.4.8-.3l2.3 1.2c.3.2.4.5.3.8-.2.3-1.1.9-1.4.8z"/>
              <path fill="#4D5068" d="M530.6 129.6h-5.1l-2.1 2.4H519c-2.7 0-5.3 1.5-6.5 4h18l.1-6.4z"/>
              <path fill="#FFF" d="M529.6 132.8c0 .9-.7 1.6-1.6 1.6s-1.6-.7-1.6-1.6c0-.9.7-1.6 1.6-1.6s1.6.7 1.6 1.6z"/>
              <path fill="#FEC55E" d="M511.8 136h19.5v1.5h-19.5z"/>
              <path fill="#4D5068" d="M558.9 127.2l-4.7 2-1 3-5.1.1c-2.5 1.1-3.2 1.1-3.4 3.8h9.4l7.2-3-2.4-5.9z"/>
              <path fill="#FFF" d="M559.2 130.5c.3.8 0 1.7-.9 2.1-.8.3-1.7 0-2.1-.9-.3-.8 0-1.7.9-2.1.8-.3 1.7.1 2.1.9z"/>
              <path fill="#FEC55E" d="M544.3 135.9h10.6v1.5h-10.6z"/>
              <path fill="#FEC55E" d="M562.162 134.255l-7.262 3.11-.59-1.378 7.262-3.11z"/>
            </g>
            <g>
              <path fill="#191C3C" d="M371.3 11.4c0-.1-.1-.2-.2-.3-.1-.1-.2-.1-.4-.1H370.4c0-.5 0-1-.1-1.5h-.1v-.4c-5.5 0-10.9-.1-16.4-.1v.3h-.1c-.1 1.3-.2 2.5 0 3.8h.1v.3c5.5 0 10.9.1 16.4.1v-.3h.2c.1-.6.1-1.1.1-1.7H370.8V16.9c0 .1-.1.1-.1.2l-.2.1-.4.2-.8.4-3 1.4-3 1.4-.4.2c-.1.1-.2.1-.3.2-.1.1-.1.2-.2.3 0 .1-.1.2-.1.3V23.5h-.8v.3c0 .1 0 .1.1.1h.7-.7c-.2 0-.3.1-.3.3l-.1 1.2c-.5.2-1.1.4-1.6.6s-1 .4-1.3.9c-.2.3-.3.6-.3 1-.1.7-.1 1.4 0 2.2v.6l-.3-.1-12.6 8.7s-7.3-3.8-10.9-5.3c-2.4-1-3.9-.6-4.6-.3l-.6-3.2c.8.1 1.7-.1 2.6-.1.7 0 1.4 0 1.9-.4.7-.5 1-1.3 1.2-2.1.2-.5.3-1.1.5-1.6s.3-1 .3-1.6c0-.5-.2-1-.6-1.3h.7c.2 0 .4-.2.3-.4-.2-1-.5-2-.7-3-.2-1.1 0-2.2-.7-3.2.2-.2.3-.4.5-.6.2-.4.4-.8.3-1.2-.1-.5-.5-1-.9-1.2-1.2-.6-2.1-.4-3.3 0-.5.2-1.2.2-1.6-.2-.2-.1-.3-.3-.4-.5-.7-.9-2.2-1-3-.2-.8.8-1.1 1.4-2.2 1.8-.7.2-1.5.5-2 1.1v2.1c.1.2.2.4.2.7.1.3-.1.6-.2.8v4.5c.6.6.5 1.4.5 2.3 0 .5-.3.8-.5 1.2v1.5c.4.5 1.2.5 1.8.2v.3c0 .2.2.4.4.4h.4l-.6 4.3h-.9l-1.2.4v87h2.2v-1.4h-.6v-.4l-.6-2.2h-.4v-.3h.8l1.5-26.3 6.3-17.2 9.4 10.7-7.3 22.3.9.1-.3.6h-.5l-1.3 1.6v1.3h-.5v1h14.9v-1h-.3v-.1c0-.9-.6-1.7-1.5-1.8l-4.7-1h-3.3l.2-.4.9.1 11.8-24.6-11.6-20-.6-1 1.4-17.5 9.7 1.3c.5.1 1-.1 1.4-.5.1-.1.2-.3.3-.4l10.7-11.9v.3c0 .2.1.3.3.3h2.6c.2 0 .3-.1.3-.3l-.1-1.7c.4-.2.7-.5.9-1 .2-.6 0-.7-.1-1.2-.1-.4.1-.7-.3-.9 0 0-.1 0-.1-.1s0-.2.1-.2c.3-.3.2-.9-.1-1.1-.1-.1-.3-.2-.5-.3l-.1-2c0-.2-.2-.3-.3-.3h-.5.6c.1 0 .1 0 .1-.1v-.3h-.7v-2c0-.1.1-.1.1-.2l.4-.2 3-1.4 3-1.4.8-.4.4-.2.2-.1c.1 0 .1-.1.1-.1.2-.1.3-.3.3-.5V11.4c.2.1.2 0 .2 0zm-10.6 20.7l-.2-.1c.1 0 .1 0 .2-.1v.2z" opacity=".3"/>
              <path fill="#FFF" d="M369.3 11.6v-.2c0-.1-.1-.2-.2-.3-.1-.1-.2-.1-.4-.1h-1.9v.5h1.9V16.9c0 .1-.1.1-.1.2l-.2.1-.4.2-.8.4-3 1.4-3 1.4-.4.2c-.1.1-.2.1-.3.2s-.1.2-.2.3c0 .1-.1.2-.1.3v2.3h.5V21.5c0-.1.1-.1.1-.2l.4-.2 3-1.4 3-1.4.8-.4.4-.2.2-.1c.1 0 .1-.1.1-.1.2-.1.3-.3.3-.5v-5.6c.3.3.3.2.3.2z"/>
              <path fill="#FEC55E" d="M368.2 13.3h-.3V9.5h.3c.2 1.2.2 2.5 0 3.8zM351.5 13.1h.3V9.3h-.3c-.1 1.2-.1 2.5 0 3.8z"/>
              <path fill="#19A0FF" d="M368.1 9.1c.1 1.5.1 3 0 4.5-5.5 0-10.9-.1-16.4-.1-.1-1.5-.1-3 0-4.5 5.4 0 10.9 0 16.4.1z"/>
              <path fill="#377DFF" d="M351.6 11.2c0 .7 0 1.5.1 2.2 5.5 0 10.9.1 16.4.1.1-.7.1-1.5.1-2.2-5.6 0-11.1-.1-16.6-.1z"/>
              <path fill="#FEC55E" d="M358.6 32.8c0 .2.1.3.3.3h2.6c.2 0 .3-.1.3-.3l-.3-8.5c0-.2-.2-.3-.3-.3h-1.9c-.2 0-.3.1-.3.3l-.4 8.5z"/>
              <path fill="#BF9855" d="M361.4 23.6v.3c0 .1 0 .1-.1.1h-2c-.1 0-.1 0-.1-.1v-.3h2.2z"/>
              <path fill="#FECA71" d="M360.4 24h-1c-.2 0-.3.1-.3.3l-.4 8.5c0 .2.1.3.3.3h1.3l.1-9.1z"/>
              <path fill="#E2C076" d="M362.1 26.6c-.8-.8-2.2.2-3 .5.5-.2.7-1.1.3-1.5-.1-.1-.1-.1-.2-.1h-.3c-.5.2-1.1.4-1.6.6s-1 .4-1.3.9c-.2.3-.3.6-.3 1-.1.7-.1 1.4 0 2.2v.8c.5.6 1.3.6 2 1 .2.1.4.2.6.1.2 0 .4-.1.6-.2.7-.3 1.5-.6 2.3-.6.7 0 1.3-.4 1.5-1.1.2-.6 0-.7-.1-1.2-.1-.4.1-.7-.3-.9 0 0-.1 0-.1-.1s0-.2.1-.2c.2-.4.1-.9-.2-1.2zM317.9 115.3h2.5v3.6h-2.5zM335.063 105.945l-1.562 3.243-2.252-1.085 1.562-3.243zM317.4 13.4c0-.2 0-.4-.1-.6-.2-.3-.5-.4-.8-.4s-.6 0-.9-.1c-.3-.1-.5-.3-.8-.3-.7-.1-1.3.9-2 .7-.2 0-.3-.1-.5-.2-.6-.2-1.2.3-1.3.9-.2.6 0 1.2.1 1.8.2.8.9 2.2 1.4 2.9 1.3 0 1.6.4 2.9.5 0 0 .6-1 .5-1h.1c.1-.3.5-.6.7-.9.3-.3.6-.7.8-1.1.1-.3.1-.7.1-1.1-.2-.3-.2-.7-.2-1.1zM327.5 34.7h-5.8l1-7.6h3.3z"/>
              <path fill="#093A66" d="M319.7 59.6l-4.8 30.1 2.4 27.6h3.9l1.6-26.3 6.3-17.2 9.4 10.7-7.4 22.3 4.5.2 11.8-24.6-13.3-22.8z"/>
              <path fill="#113651" d="M321.7 59.6h-2l-4.8 30.1 2.4 27.6h.5l-.9-27.6z"/>
              <path fill="#272834" d="M338.9 84.1l-8.3-11.8-1.5 1.5 9.4 10.7z"/>
              <path fill="#191C3C" d="M326 27.1h-3.3l-.6 4.6 4.5-1.5z" opacity=".3"/>
              <path fill="#EFDCB4" d="M328.9 29.9H322c-.2 0-.4-.2-.4-.4V15.1h6.9c.9 0 1.7.2 2.5.6 2.3 1.2 1.8 2.8 2 4.3.2 1 .5 2 .7 3 0 .2-.1.4-.3.4-.6 0-1.6.1-1.6.1l.4 2.5c.3 2-1.3 3.9-3.3 3.9z"/>
              <path fill="#1E2022" d="M332.6 23.4c-1.7-1-2.7 1.1-3.9 1.7-.6.2-1.4.2-1.7-.4-.5-.7-.9-2.1-.8-2.9.1-.8.2-1.6.5-2.3.4-.7 1-1.5 1.8-1.9.4-.2.8-.3 1.2-.2.6.1.9.3 1.5.1.6-.2 1.2-.8 1.6-1.4.2-.4.4-.8.3-1.2-.1-.5-.5-1-.9-1.2-1.2-.6-2.1-.4-3.3 0-.5.2-1.2.2-1.6-.2-.2-.1-.3-.3-.4-.5-.7-.9-2.2-1-3-.2s-1.1 1.4-2.2 1.8c-.7.2-1.6.6-2.1 1.2-.7 1.1.2 1.7.3 2.7.1.5-.3.9-.5 1.3-.5.8-.7 1.8-.5 2.7.1.4.3.9.6 1.1.8.6.7 1.5.7 2.5 0 .8-.7 1.2-.7 1.9-.1 1.5 2.2 1.5 2.7.3.6-1.6.1-3.4.1-5 0-.9 1-2.1 2-1.4.6.4.5 1 .5 1.6 0 .9-.1 1.8-.1 2.7-.1 1.3-.6 3.1.8 4 1.3.7 2.4.3 3.8.3.7 0 1.4 0 1.9-.4.7-.5 1-1.3 1.2-2.1.2-.5.3-1.1.5-1.6s.3-1 .3-1.6-.2-1.1-.6-1.4z"/>
              <path fill="#191C3C" d="M319.7 59.6l-.8 4.9c1.4 0 3.3.3 4.6-.2 1.5-.6 2.8-1.9 4.5-1.8.8.1 1.5.4 2.2.6 1 .3 2.1.3 3.1.1.9-.2 1.6-.7 2.5-.9l-1.6-2.7h-14.5z" opacity=".3"/>
              <path fill="#DE4437" d="M326.8 34.1s1.5-1.5 5.1 0c3.5 1.5 10.9 5.3 10.9 5.3l12.6-8.7 3.6 1.6-11 12.1c-.3.6-1 1-1.7.9l-9.7-1.3-1.4 17.5c-.9.1-1.6.7-2.5.9-1 .2-2 .2-3-.1-.7-.2-1.4-.6-2.1-.6-1.6-.1-2.8 1.1-4.3 1.7-1.4.6-3.8.1-5.2.3-.4-1.8 1.2-4 1-5.9-.3-2.9-.9-6-2.6-8.4l-8.9-17.2 4.3-13.9h4.1l-2.3 11.6 3.3 5.8 4.1-1.5 5.7-.1z"/>
              <path fill="#DB6767" d="M344.2 39.4l11.6-8.5-.5-.3-12.5 8.8zM319.9 63.5c.7 0 1.4.1 2 0h-2zM320.5 57.7c-.3-2.9-.9-6-2.6-8.4L309 32.1l3.3-13.9h-.5l-4.3 13.9 8.9 17.2c1.7 2.4 2.3 5.5 2.6 8.4.2 1.9-1.4 4.1-1 5.9.4-.1.9-.1 1.5 0-.3-1.9 1.2-4.1 1-5.9z"/>
              <g>
                <path fill="#D15A5A" d="M344.7 43.8l-9.7-1.3s-.8 19.1.1 18.9l1.4-17.5 9.7 1.3c.7.1 1.4-.3 1.7-.9 0 .1-2.5-.4-3.2-.5z"/>
              </g>
              <path fill="#DE4437" d="M321.4 121.6h-4.5v-2l.6-2h3.3l.6 2.2z"/>
              <path fill="#4D5068" d="M316.3 120.2h5.7v1.4h-5.7z"/>
              <path fill="#DE4437" d="M344 111.3h-14V109l1.3-1.6h6.5l4.7 1c.9.2 1.5 1 1.5 1.8v1.1z"/>
              <path fill="#4D5068" d="M329.5 110.3h14.9v1h-14.9z"/>
            </g>
          </svg>