<svg xmlns="http://www.w3.org/2000/svg" id="Layer_1" viewBox="-24 2.9 149.5 116.1">
  <style>
    .st1{opacity:.15;fill:#19a0ff;enable-background:new}.st2{fill:#fff}.st3{fill:none;stroke:#377dff;stroke-width:1.5;stroke-miterlimit:10}.st6{fill:#19a0ff}
  </style>
  <path fill="#f8fafd" d="M50.8 3.3C9.5 3.3-24 36.8-24 78c0 15 4.5 29 12.1 40.8h125.3c7.6-11.7 12.1-25.7 12.1-40.8 0-41.2-33.5-74.7-74.7-74.7z"/>
  <g id="XMLID_by142_">
    <path id="XMLID_by198_" d="M95.7 23.4c-.6-1.7-2.2-3-4.1-3-.8 0-1.6.2-2.2.7-.4-2.7-2.7-4.8-5.6-4.8-2.5 0-4.7 1.7-5.4 4-.3-.1-.7-.1-1-.1-1.9 0-3.5 1.4-3.8 3.3H73c-1.6 0-2.9 1.3-2.9 2.9v.2c0 1.6 1.3 2.9 2.9 2.9h22.7c1.6 0 2.9-1.3 2.9-2.9v-.2c0-1.7-1.3-3-2.9-3z" class="st1"/>
    <path id="XMLID_by192_" d="M77 29.3h-4c-1.6 0-2.9-1.3-2.9-2.9v-.2c0-1.6 1.3-2.9 2.9-2.9h.6c.3-1.8 1.9-3.3 3.8-3.3.3 0 .7.1 1 .1.7-2.3 2.9-4 5.4-4 2.8 0 5.1 2.1 5.6 4.8.6-.4 1.4-.7 2.2-.7 1.9 0 3.5 1.3 4 3h.1c1.6 0 2.9 1.3 2.9 2.9v.2c0 1.6-1.3 2.9-2.9 2.9H77v.1z" class="st1"/>
  </g>
  <g id="XMLID_by179_">
    <path id="XMLID_by181_" d="M41.8 8c-.4-1.2-1.6-2.1-2.9-2.1-.6 0-1.1.2-1.6.5-.3-1.9-2-3.4-4-3.4-1.8 0-3.3 1.2-3.8 2.8-.2-.1-.5-.1-.7-.1-1.4 0-2.5 1-2.7 2.3h-.5c-1.1 0-2.1.9-2.1 2.1v.2c0 1.1.9 2.1 2.1 2.1h16.2c1.1 0 2.1-.9 2.1-2.1V10c0-1.1-.9-2-2.1-2z" class="st1"/>
    <path id="XMLID_by180_" d="M28.5 12.2h-2.9c-1.1 0-2.1-.9-2.1-2.1V10c0-1.1.9-2.1 2.1-2.1h.5c.2-1.3 1.3-2.3 2.7-2.3.2 0 .5 0 .7.1.5-1.6 2-2.8 3.9-2.8 2 0 3.7 1.5 4 3.4.5-.3 1-.5 1.6-.5 1.3 0 2.5.9 2.8 2.1h.1c1.1 0 2.1.9 2.1 2.1v.2c0 1.1-.9 2.1-2.1 2.1h-3.1l-10.3-.1z" class="st1"/>
  </g>
  <g id="XMLID_by176_">
    <path id="XMLID_by178_" d="M123.8 36.4c-.3-.8-1-1.3-1.8-1.3-.4 0-.7.1-1 .3-.2-1.2-1.2-2.2-2.5-2.2-1.1 0-2.1.8-2.4 1.8-.1 0-.3-.1-.5-.1-.9 0-1.6.6-1.7 1.5h-.3c-.7 0-1.3.6-1.3 1.3v.1c0 .7.6 1.3 1.3 1.3h10.3c.7 0 1.3-.6 1.3-1.3v-.1c-.1-.7-.7-1.3-1.4-1.3z" class="st1"/>
    <path id="XMLID_by177_" d="M115.3 39.2h-1.8c-.7 0-1.3-.6-1.3-1.3v-.1c0-.7.6-1.3 1.3-1.3h.3c.1-.8.9-1.5 1.7-1.5.2 0 .3 0 .5.1.3-1 1.3-1.8 2.4-1.8 1.3 0 2.3.9 2.5 2.2.3-.2.6-.3 1-.3.9 0 1.6.6 1.8 1.3h.1c.7 0 1.3.6 1.3 1.3v.1c0 .7-.6 1.3-1.3 1.3h-8.5z" class="st1"/>
  </g>
  <g id="XMLID_by399_">
    <path id="XMLID_by654_" d="M63.7 42.4h27v75.4h-27z" class="st2"/>
    <path id="XMLID_by653_" d="M63.7 42.4h27v14.7h-27z" class="st2"/>
    <path id="XMLID_by59_" d="M66 42.4h24.7v75.3h-27" class="st3"/>
    <g id="XMLID_by650_">
      <path id="XMLID_by651_" d="M66 57.1h24.7" class="st3"/>
    </g>
    <path id="XMLID_by645_" d="M66 61.7h22.1" class="st3"/>
    <path id="XMLID_by86_" d="M66 65.9h22.1" class="st3"/>
    <path id="XMLID_by107_" d="M66 70.2h22.1" class="st3"/>
    <path id="XMLID_by108_" d="M66 74.4h22.1" class="st3"/>
    <path id="XMLID_by110_" d="M66 78.7h22.1" class="st3"/>
    <path id="XMLID_by111_" d="M66 82.9h22.1" class="st3"/>
    <path id="XMLID_by113_" d="M66 87.2h22.1" class="st3"/>
    <path id="XMLID_by114_" d="M66 91.4h22.1" class="st3"/>
    <path id="XMLID_by115_" d="M66 95.7h22.1" class="st3"/>
    <path id="XMLID_by117_" d="M66 99.9h22.1" class="st3"/>
    <path id="XMLID_by118_" d="M66 104.2h22.1" class="st3"/>
    <path id="XMLID_by119_" d="M66 108.4h22.1" class="st3"/>
    <path id="XMLID_by121_" d="M66 112.7h22.1" class="st3"/>
    <g id="XMLID_by405_">
      <path id="XMLID_by422_" d="M67.3 44.4v10.3" class="st3"/>
      <path id="XMLID_by421_" d="M70.3 44.4v10.3" class="st3"/>
      <path id="XMLID_by420_" d="M73.2 44.4v10.3" class="st3"/>
      <path id="XMLID_by419_" d="M76.2 44.4v10.3" class="st3"/>
      <path id="XMLID_by410_" d="M79.2 44.4v10.3" class="st3"/>
      <path id="XMLID_by408_" d="M82.1 44.4v10.3" class="st3"/>
      <path id="XMLID_by407_" d="M85.1 44.4v10.3" class="st3"/>
      <path id="XMLID_by406_" d="M88 44.4v10.3" class="st3"/>
    </g>
  </g>
  <g id="XMLID_by891_">
    <path id="XMLID_by972_" d="M44.6 24.9h16.5v7.6H44.6z" class="st2"/>
    <path id="XMLID_by970_" d="M44.6 24.9h16.5v7.6H44.6z" class="st3"/>
    <path id="XMLID_by969_" d="M41.2 30.1h23.3v87.4H41.2z" class="st2"/>
    <path id="XMLID_by967_" d="M44.6 11.1v14.5" class="st3"/>
    <path id="XMLID_by966_" d="M61.1 11.1v14.5" class="st3"/>
    <path id="XMLID_by965_" d="M52.8 15.4v9.5" class="st3"/>
    <path id="XMLID_by652_" d="M41.2 44.9V30.1h23.3v87.4" class="st3"/>
    <path id="XMLID_by893_" d="M46 30.1v16.6" class="st3"/>
    <path id="XMLID_by892_" d="M59.2 30.1v87.1" class="st3"/>
  </g>
  <g id="XMLID_by655_">
    <path id="XMLID_by890_" d="M12.1 117.7H35V37.5H16v33h-3.9z" class="st2"/>
    <path id="XMLID_by428_" d="M35 37.5H16v32.8h-3.9v47.4" class="st3"/>
    <path id="XMLID_by888_" fill="#19a0ff" d="M38.3 117.7h-3.4v-85l3.4-2.3z" opacity=".5"/>
    <path id="XMLID_by427_" d="M34.9 45.7v-13l3.4-2.3v15" class="st3"/>
    <path id="XMLID_by886_" d="M38.3 13.3v18.2" class="st3"/>
    <path id="XMLID_by841_" d="M15.9 40.1h18.8" class="st3"/>
    <path id="XMLID_by840_" d="M15.9 43.2h18.8" class="st3"/>
    <path id="XMLID_by839_" d="M15.9 46.3h18.8" class="st3"/>
    <path id="XMLID_by838_" d="M15.9 49.4h18.8" class="st3"/>
    <path id="XMLID_by837_" d="M15.9 52.6h18.8" class="st3"/>
    <path id="XMLID_by836_" d="M15.9 55.7h11.3" class="st3"/>
    <path id="XMLID_by835_" d="M15.9 58.8h11.3" class="st3"/>
    <path id="XMLID_by834_" d="M15.9 61.9h9.3" class="st3"/>
    <path id="XMLID_by833_" d="M15.9 65h8.3" class="st3"/>
    <path id="XMLID_by828_" d="M15.9 68.1h18.8" class="st3"/>
    <path id="XMLID_by827_" d="M15.9 70.3h18.8" class="st3"/>
    <g id="XMLID_by815_">
      <path id="XMLID_by826_" d="M13.7 72v1.5" class="st3"/>
      <path id="XMLID_by825_" d="M15.9 72v1.5" class="st3"/>
      <path id="XMLID_by824_" d="M18.1 72v1.5" class="st3"/>
      <path id="XMLID_by823_" d="M20.3 72v1.5" class="st3"/>
      <path id="XMLID_by822_" d="M22.6 72v1.5" class="st3"/>
      <path id="XMLID_by821_" d="M24.8 72v1.5" class="st3"/>
      <path id="XMLID_by820_" d="M27 72v1.5" class="st3"/>
      <path id="XMLID_by819_" d="M29.2 72v1.5" class="st3"/>
      <path id="XMLID_by818_" d="M31.4 72v1.5" class="st3"/>
      <path id="XMLID_by816_" d="M33.6 72v1.5" class="st3"/>
    </g>
    <g id="XMLID_by804_">
      <path id="XMLID_by814_" d="M13.7 75.1v1.5" class="st3"/>
      <path id="XMLID_by813_" d="M15.9 75.1v1.5" class="st3"/>
      <path id="XMLID_by812_" d="M18.1 75.1v1.5" class="st3"/>
      <path id="XMLID_by811_" d="M20.3 75.1v1.5" class="st3"/>
      <path id="XMLID_by810_" d="M22.6 75.1v1.5" class="st3"/>
      <path id="XMLID_by809_" d="M24.8 75.1v1.5" class="st3"/>
      <path id="XMLID_by808_" d="M27 75.1v1.5" class="st3"/>
      <path id="XMLID_by807_" d="M29.2 75.1v1.5" class="st3"/>
      <path id="XMLID_by806_" d="M31.4 75.1v1.5" class="st3"/>
      <path id="XMLID_by805_" d="M33.6 75.1v1.5" class="st3"/>
    </g>
    <g id="XMLID_by791_">
      <path id="XMLID_by802_" d="M13.7 78.2v1.5" class="st3"/>
      <path id="XMLID_by801_" d="M15.9 78.2v1.5" class="st3"/>
      <path id="XMLID_by800_" d="M18.1 78.2v1.5" class="st3"/>
      <path id="XMLID_by799_" d="M20.3 78.2v1.5" class="st3"/>
      <path id="XMLID_by798_" d="M22.6 78.2v1.5" class="st3"/>
      <path id="XMLID_by797_" d="M24.8 78.2v1.5" class="st3"/>
      <path id="XMLID_by796_" d="M27 78.2v1.5" class="st3"/>
      <path id="XMLID_by795_" d="M29.2 78.2v1.5" class="st3"/>
      <path id="XMLID_by794_" d="M31.4 78.2v1.5" class="st3"/>
      <path id="XMLID_by793_" d="M33.6 78.2v1.5" class="st3"/>
    </g>
    <g id="XMLID_by780_">
      <path id="XMLID_by790_" d="M13.7 81.3v1.5" class="st3"/>
      <path id="XMLID_by789_" d="M15.9 81.3v1.5" class="st3"/>
      <path id="XMLID_by788_" d="M18.1 81.3v1.5" class="st3"/>
      <path id="XMLID_by787_" d="M20.3 81.3v1.5" class="st3"/>
      <path id="XMLID_by786_" d="M22.6 81.3v1.5" class="st3"/>
      <path id="XMLID_by785_" d="M24.8 81.3v1.5" class="st3"/>
      <path id="XMLID_by784_" d="M27 81.3v1.5" class="st3"/>
      <path id="XMLID_by783_" d="M29.2 81.3v1.5" class="st3"/>
      <path id="XMLID_by782_" d="M31.4 81.3v1.5" class="st3"/>
      <path id="XMLID_by781_" d="M33.6 81.3v1.5" class="st3"/>
    </g>
    <g id="XMLID_by768_">
      <path id="XMLID_by779_" d="M13.7 84.4v1.5" class="st3"/>
      <path id="XMLID_by777_" d="M15.9 84.4v1.5" class="st3"/>
      <path id="XMLID_by776_" d="M18.1 84.4v1.5" class="st3"/>
      <path id="XMLID_by775_" d="M20.3 84.4v1.5" class="st3"/>
      <path id="XMLID_by774_" d="M22.6 84.4v1.5" class="st3"/>
      <path id="XMLID_by773_" d="M24.8 84.4v1.5" class="st3"/>
      <path id="XMLID_by772_" d="M27 84.4v1.5" class="st3"/>
      <path id="XMLID_by771_" d="M29.2 84.4v1.5" class="st3"/>
      <path id="XMLID_by770_" d="M31.4 84.4v1.5" class="st3"/>
      <path id="XMLID_by769_" d="M33.6 84.4v1.5" class="st3"/>
    </g>
    <g id="XMLID_by757_">
      <path id="XMLID_by767_" d="M13.7 87.5V89" class="st3"/>
      <path id="XMLID_by766_" d="M15.9 87.5V89" class="st3"/>
      <path id="XMLID_by765_" d="M18.1 87.5V89" class="st3"/>
      <path id="XMLID_by764_" d="M20.3 87.5V89" class="st3"/>
      <path id="XMLID_by763_" d="M22.6 87.5V89" class="st3"/>
      <path id="XMLID_by762_" d="M24.8 87.5V89" class="st3"/>
      <path id="XMLID_by761_" d="M27 87.5V89" class="st3"/>
      <path id="XMLID_by760_" d="M29.2 87.5V89" class="st3"/>
      <path id="XMLID_by759_" d="M31.4 87.5V89" class="st3"/>
      <path id="XMLID_by758_" d="M33.6 87.5V89" class="st3"/>
    </g>
    <g id="XMLID_by746_">
      <path id="XMLID_by756_" d="M13.7 90.6v1.5" class="st3"/>
      <path id="XMLID_by755_" d="M15.9 90.6v1.5" class="st3"/>
      <path id="XMLID_by754_" d="M18.1 90.6v1.5" class="st3"/>
      <path id="XMLID_by753_" d="M20.3 90.6v1.5" class="st3"/>
      <path id="XMLID_by752_" d="M22.6 90.6v1.5" class="st3"/>
      <path id="XMLID_by751_" d="M24.8 90.6v1.5" class="st3"/>
      <path id="XMLID_by750_" d="M27 90.6v1.5" class="st3"/>
      <path id="XMLID_by749_" d="M29.2 90.6v1.5" class="st3"/>
      <path id="XMLID_by748_" d="M31.4 90.6v1.5" class="st3"/>
      <path id="XMLID_by747_" d="M33.6 90.6v1.5" class="st3"/>
    </g>
    <g id="XMLID_by735_">
      <path id="XMLID_by745_" d="M13.7 93.7v1.5" class="st3"/>
      <path id="XMLID_by744_" d="M15.9 93.7v1.5" class="st3"/>
      <path id="XMLID_by743_" d="M18.1 93.7v1.5" class="st3"/>
      <path id="XMLID_by742_" d="M20.3 93.7v1.5" class="st3"/>
      <path id="XMLID_by741_" d="M22.6 93.7v1.5" class="st3"/>
      <path id="XMLID_by740_" d="M24.8 93.7v1.5" class="st3"/>
      <path id="XMLID_by739_" d="M27 93.7v1.5" class="st3"/>
      <path id="XMLID_by738_" d="M29.2 93.7v1.5" class="st3"/>
      <path id="XMLID_by737_" d="M31.4 93.7v1.5" class="st3"/>
      <path id="XMLID_by736_" d="M33.6 93.7v1.5" class="st3"/>
    </g>
    <g id="XMLID_by724_">
      <path id="XMLID_by734_" d="M13.7 96.8v1.5" class="st3"/>
      <path id="XMLID_by733_" d="M15.9 96.8v1.5" class="st3"/>
      <path id="XMLID_by732_" d="M18.1 96.8v1.5" class="st3"/>
      <path id="XMLID_by731_" d="M20.3 96.8v1.5" class="st3"/>
      <path id="XMLID_by730_" d="M22.6 96.8v1.5" class="st3"/>
      <path id="XMLID_by729_" d="M24.8 96.8v1.5" class="st3"/>
      <path id="XMLID_by728_" d="M27 96.8v1.5" class="st3"/>
      <path id="XMLID_by727_" d="M29.2 96.8v1.5" class="st3"/>
      <path id="XMLID_by726_" d="M31.4 96.8v1.5" class="st3"/>
      <path id="XMLID_by725_" d="M33.6 96.8v1.5" class="st3"/>
    </g>
    <g id="XMLID_by713_">
      <path id="XMLID_by723_" d="M13.7 99.9v1.5" class="st3"/>
      <path id="XMLID_by722_" d="M15.9 99.9v1.5" class="st3"/>
      <path id="XMLID_by721_" d="M18.1 99.9v1.5" class="st3"/>
      <path id="XMLID_by720_" d="M20.3 99.9v1.5" class="st3"/>
      <path id="XMLID_by719_" d="M22.6 99.9v1.5" class="st3"/>
      <path id="XMLID_by718_" d="M24.8 99.9v1.5" class="st3"/>
      <path id="XMLID_by717_" d="M27 99.9v1.5" class="st3"/>
      <path id="XMLID_by716_" d="M29.2 99.9v1.5" class="st3"/>
      <path id="XMLID_by715_" d="M31.4 99.9v1.5" class="st3"/>
      <path id="XMLID_by714_" d="M33.6 99.9v1.5" class="st3"/>
    </g>
    <g id="XMLID_by700_">
      <path id="XMLID_by712_" d="M13.7 103v1.5" class="st3"/>
      <path id="XMLID_by711_" d="M15.9 103v1.5" class="st3"/>
      <path id="XMLID_by709_" d="M18.1 103v1.5" class="st3"/>
      <path id="XMLID_by708_" d="M20.3 103v1.5" class="st3"/>
      <path id="XMLID_by707_" d="M22.6 103v1.5" class="st3"/>
      <path id="XMLID_by706_" d="M24.8 103v1.5" class="st3"/>
      <path id="XMLID_by705_" d="M27 103v1.5" class="st3"/>
      <path id="XMLID_by703_" d="M29.2 103v1.5" class="st3"/>
      <path id="XMLID_by702_" d="M31.4 103v1.5" class="st3"/>
      <path id="XMLID_by701_" d="M33.6 103v1.5" class="st3"/>
    </g>
    <g id="XMLID_by689_">
      <path id="XMLID_by699_" d="M13.7 106.1v1.5" class="st3"/>
      <path id="XMLID_by698_" d="M15.9 106.1v1.5" class="st3"/>
      <path id="XMLID_by697_" d="M18.1 106.1v1.5" class="st3"/>
      <path id="XMLID_by696_" d="M20.3 106.1v1.5" class="st3"/>
      <path id="XMLID_by695_" d="M22.6 106.1v1.5" class="st3"/>
      <path id="XMLID_by694_" d="M24.8 106.1v1.5" class="st3"/>
      <path id="XMLID_by693_" d="M27 106.1v1.5" class="st3"/>
      <path id="XMLID_by692_" d="M29.2 106.1v1.5" class="st3"/>
      <path id="XMLID_by691_" d="M31.4 106.1v1.5" class="st3"/>
      <path id="XMLID_by690_" d="M33.6 106.1v1.5" class="st3"/>
    </g>
    <g id="XMLID_by678_">
      <path id="XMLID_by688_" d="M13.7 109.2v1.5" class="st3"/>
      <path id="XMLID_by687_" d="M15.9 109.2v1.5" class="st3"/>
      <path id="XMLID_by686_" d="M18.1 109.2v1.5" class="st3"/>
      <path id="XMLID_by685_" d="M20.3 109.2v1.5" class="st3"/>
      <path id="XMLID_by684_" d="M22.6 109.2v1.5" class="st3"/>
      <path id="XMLID_by683_" d="M24.8 109.2v1.5" class="st3"/>
      <path id="XMLID_by682_" d="M27 109.2v1.5" class="st3"/>
      <path id="XMLID_by681_" d="M29.2 109.2v1.5" class="st3"/>
      <path id="XMLID_by680_" d="M31.4 109.2v1.5" class="st3"/>
      <path id="XMLID_by679_" d="M33.6 109.2v1.5" class="st3"/>
    </g>
    <g id="XMLID_by667_">
      <path id="XMLID_by677_" d="M13.7 112.3v1.5" class="st3"/>
      <path id="XMLID_by676_" d="M15.9 112.3v1.5" class="st3"/>
      <path id="XMLID_by675_" d="M18.1 112.3v1.5" class="st3"/>
      <path id="XMLID_by674_" d="M20.3 112.3v1.5" class="st3"/>
      <path id="XMLID_by673_" d="M22.6 112.3v1.5" class="st3"/>
      <path id="XMLID_by672_" d="M24.8 112.3v1.5" class="st3"/>
      <path id="XMLID_by671_" d="M27 112.3v1.5" class="st3"/>
      <path id="XMLID_by670_" d="M29.2 112.3v1.5" class="st3"/>
      <path id="XMLID_by669_" d="M31.4 112.3v1.5" class="st3"/>
      <path id="XMLID_by668_" d="M33.6 112.3v1.5" class="st3"/>
    </g>
    <g id="XMLID_by656_">
      <path id="XMLID_by666_" d="M13.7 115.4v1.5" class="st3"/>
      <path id="XMLID_by665_" d="M15.9 115.4v1.5" class="st3"/>
      <path id="XMLID_by664_" d="M18.1 115.4v1.5" class="st3"/>
      <path id="XMLID_by663_" d="M20.3 115.4v1.5" class="st3"/>
      <path id="XMLID_by662_" d="M22.6 115.4v1.5" class="st3"/>
      <path id="XMLID_by661_" d="M24.8 115.4v1.5" class="st3"/>
      <path id="XMLID_by660_" d="M27 115.4v1.5" class="st3"/>
      <path id="XMLID_by659_" d="M29.2 115.4v1.5" class="st3"/>
      <path id="XMLID_by658_" d="M31.4 115.4v1.5" class="st3"/>
      <path id="XMLID_by657_" d="M33.6 115.4v1.5" class="st3"/>
    </g>
  </g>
  <g id="XMLID_by435_">
    <circle id="XMLID_by842_" cx="38.6" cy="81.4" r="19" fill="#fff" opacity=".3"/>
    <path id="XMLID_by512_" d="M38.5 102v9" class="st3"/>
    <path id="XMLID_by509_" d="M38.5 59.7c-12 0-21.7 9.7-21.7 21.7s9.7 21.7 21.7 21.7 21.7-9.7 21.7-21.7-9.7-21.7-21.7-21.7zm0 38.2c-9.1 0-16.5-7.4-16.5-16.5s7.4-16.5 16.5-16.5S55 72.3 55 81.4c-.1 9.1-7.4 16.5-16.5 16.5z" class="st6"/>
    <path id="XMLID_by57_" d="M22 67.3c-3.2 3.8-5.2 8.7-5.2 14.1 0 12 9.7 21.7 21.7 21.7s21.7-9.7 21.7-21.7c0-5.4-2-10.3-5.2-14.1" class="st3"/>
    <path id="XMLID_by506_" d="M34.2 108.3h8.6v9.4h-8.6z" class="st2"/>
    <path id="XMLID_by56_" d="M42.8 117.6v-9.3h-8.6v9.3" class="st3"/>
    <path id="XMLID_by54_" d="M34 114.5h9" class="st3"/>
    <path id="XMLID_by412_" d="M38.6 46.7c-8.3 0-15 6.7-15 15s15 25.3 15 25.3 15-17 15-25.3-6.7-15-15-15zm0 22.3c-4.8 0-8.7-3.9-8.7-8.7s3.9-8.7 8.7-8.7 8.7 3.9 8.7 8.7c0 4.8-3.9 8.7-8.7 8.7z" class="st6"/>
    <path id="XMLID_by45_" d="M25.8 53.8c-1.4 2.3-2.3 5-2.3 7.9 0 8.3 15 25.3 15 25.3s15-17 15-25.3-6.7-15-15-15c-1.9 0-3.7.4-5.4 1m-4 2.3c-.4.3-.8.7-1.2 1.1M38.6 69c-4.8 0-8.7-3.9-8.7-8.7s3.9-8.7 8.7-8.7 8.7 3.9 8.7 8.7c0 4.8-3.9 8.7-8.7 8.7z" class="st3"/>
  </g>
</svg>