<svg xmlns="http://www.w3.org/2000/svg" viewBox="0 0 315.1 163.1">
  <style>
    .chatting-girl-1{fill:#377dff}.chatting-girl-3{fill:#00c671}.chatting-girl-5{fill:#191c3c}.chatting-girl-7{fill:#1e2022}.chatting-girl-9{fill:#fff}.chatting-girl-10{opacity:.3}.chatting-girl-11{fill:#ddb758}.chatting-girl-13{fill:#de4437}.chatting-girl-14{opacity:.3;fill:#191c3c}.chatting-girl-15{fill:#093a66}.chatting-girl-17{fill:#f5f7f9}.chatting-girl-18{fill:#dfe2ec}
  </style>
  <g opacity=".15">
    <ellipse cx="306.8" cy="104.7" class="chatting-girl-1 wojo primary fill" opacity=".4" rx="7.5" ry="7.5"/>
    <path d="M74.1 24.2c0 2.7-2.2 4.9-4.9 4.9s-5-2.1-5-4.9 2.2-4.9 4.9-4.9 5 2.2 5 4.9zM247.7 33.6c0 2.7-2.2 4.9-4.9 4.9s-4.9-2.2-4.9-4.9 2.2-4.9 4.9-4.9 4.9 2.2 4.9 4.9zM316.3 126.3c0 1.1-.9 2-2 2s-2-.9-2-2 .9-2 2-2 2 .9 2 2z" class="chatting-girl-1 wojo primary fill" opacity=".4"/>
    <circle cx="88.7" cy="4.5" r="2" class="chatting-girl-1 wojo primary fill" opacity=".4"/>
    <path d="M312.1 72.6c0 1.4-1.1 2.7-2.7 2.7-1.4 0-2.7-1.1-2.7-2.7 0-1.4 1.1-2.7 2.7-2.7 1.5.1 2.7 1.3 2.7 2.7z" class="chatting-girl-1 wojo primary fill" opacity=".4"/>
    <ellipse cx="43.3" cy="39.4" class="chatting-girl-1 wojo primary fill" opacity=".4" rx="11.2" ry="11.2"/>
    <path d="M9.8 130.9c0 1.4-1.1 2.7-2.7 2.7-1.4 0-2.7-1.1-2.7-2.7s1.1-2.7 2.7-2.7c1.5.1 2.7 1.3 2.7 2.7zM300.9 162.5c0-78.3-63.4-141.7-141.7-141.7S17.5 84.2 17.5 162.5h283.4z" class="chatting-girl-1 fill-primary" opacity=".4"/>
  </g>
  <path d="M130.1 162.7s-1.1.5 0 0zm9.9-9.8c-10.3-10.6-22.7-19.6-36.8-23.6-14.1-4.1-30.3-2.7-42.6 5.6 17.7 18.7 43.8 29.1 69.5 27.7 3.7.3 14.6.4 17.7-1.4.8-.5-1.6-3.3-3.8-5.5-.7-.6-3.3-2.1-4-2.8z" class="chatting-girl-3"/>
  <path d="M144 155.8c-.7-.7-3.2-2.2-3.8-2.9-10.3-10.6-22.7-19.6-36.8-23.6-6.9-1.9-14.1-2.6-21.1-1.9 8.1.3 16.3 2.5 23.6 6.2 12.9 6.6 23.1 17.3 31.2 29.4 4.3 0 9.2-.4 11-1.5.5-.8-2.1-3.4-4.1-5.7z" class="chatting-girl-5" opacity=".2"/>
  <path d="M152.2 130.7c2.1 5.9 4.8 14.7 2.3 20.5-1.9 4.5-5.5 11.1-10 10.2-3.8-4.9-11.5-15.1-16.5-19.1-4.1-3.3-10.4-6.7-14.4-10.3-9.9-8.9-13.7-21-19.2-33.1 10 1 19.9 2.9 29.7 5.6 6.3 1.8 12.8 4.1 17.6 8.5 5.3 4.6 8.3 11.1 10.5 17.7z" class="chatting-girl-3"/>
  <path fill="#f5f7f9" d="M130.8 142.6c-3.4-4-9.2-8.5-12.4-12.6-6.7-8.8-9.1-18.8-11.5-29.5-4.1-.7-8.2-1.2-12.4-1.6 5.5 12.2 9.3 24.2 19.2 33.1 3.8 3.6 10.3 7 14.4 10.3 2.3 1.9 5.4 5.2 8.2 8.7-1.8-3.3-3.7-6.5-5.5-8.4z" opacity=".08"/>
  <path d="M157.3 98.9c3.4 9.2 3.3 19.2 3.3 29 0 3.7 1 9.9 0 13.5-.7 3-2.7 5.9-4.5 8.4-1.6 2.2-3.4-.4-4.9-2.6-1.2-2.1-3.6-5.6-2.5-4.8-1.6-5.6-2.6-9.2-4.1-15-1.5-4.4-2.9-8.8-3.7-13.3-1.9-11.3.3-22.7 2.5-33.9 6.2 4.9 11.1 11.5 13.9 18.7z" class="chatting-girl-3"/>
  <path d="M67.9 136.8c12.8-.4 25.3 0 37.6 3.4 11.7 3.3 22.4 8.9 32 16.2.5.4 1-.4.5-.8a96.97 96.97 0 0 0-32.3-16.1c-12.5-3.6-25-3.7-37.9-3-.2.1-.2.3.1.3zM98.7 102.7c10.3 4.9 19.8 11.3 27.9 19.2 8.8 8.7 14.7 18.9 21.3 29.1.1.3.7 0 .4-.3-11.3-21.1-27.2-38.9-49.6-48.3 0 0-.2.1 0 .3zM144 84.8c6.7 19.9 14.6 39.1 10 60.6-.1.4.5.7.7.1 4.3-20.5-1.9-42.3-10.6-60.8-.1-.2-.3 0-.1.1z" class="chatting-girl-7"/>
  <path d="M77.1 144c1.4-1.4 2.7-2.9 4.3-4 1.6-1.2 3.3-2.1 5.1-3 .1-.1 0-.3-.1-.3-3.7 1.1-7.4 4.1-9.3 7.3-.1 0-.1 0 0 0zM87.4 149.1c3.6-6.5 8.8-8.4 15.8-9.2.5 0 .4-.8-.1-.7-6.6.8-13.4 2.9-15.7 9.9-.1 0 0 0 0 0zM100.2 149.9c4.1-3.2 8.2-8.1 14-6.6.3.1.4-.4.1-.4-5.8-1.5-10.4 3.3-14.3 6.9-.1.1 0 .2.2.1zM112.8 156.6c3.8-4.8 9.3-9.2 15.7-5.9.4.1.7-.4.3-.5-6.3-3.3-12.8.8-16.2 6.3-.1.1.1.3.2.1zM83.4 128.7c.8 4.1 4.4 6.6 7.7 8.8.3.1.4-.3.3-.4-3.3-2.2-6.6-4.4-7.7-8.4 0-.2-.3-.1-.3 0z" class="chatting-girl-7"/>
  <path d="M97 129.6c1.5 4 4.1 7.4 7.1 10.3.3.3.7-.1.4-.4-3.2-2.9-5.4-6.2-7.5-9.9 0 0-.1 0 0 0zM108.4 134.1c.7 1.9 1.6 3.6 2.9 5.2 1 1.2 2.3 3.4 3.7 4 .1 0 .3 0 .4-.1l.1-.1c.1-.1.1-.4-.1-.5l-.1-.1c-.1-.1-.3 0-.4 0l-.1.1c-.1.1-.1.3.1.4.5.1-1.5-2.2-1.5-2.2-.5-.7-1.1-1.2-1.6-1.9-1.2-1.5-2.3-3.2-3.2-4.9-.1 0-.2 0-.2.1zM117.9 138.9c2.5 4.3 6.5 8.1 10.3 11.1.4.4 1.1-.3.7-.7-4.1-3.2-7.3-6.9-10.7-10.7-.2 0-.5.2-.3.3zM104.7 116.1c7.1-.4 13.3-.1 19.5 3.8.4.3.8-.4.4-.7-5.5-3.6-13.5-5.8-20-3.6-.2.2-.2.5.1.5zM115.8 127.9c3.4 0 6.7-.1 10 .7 3 .7 5.9 1.8 8.9 2.9.4.1.5-.4.1-.7-6-2.2-12.8-4.8-19.2-3.2.1.2.1.3.2.3zM129 138.4c2.3.1 4.8.4 7.1.8 2.7.5 4.5 1.9 6.3 4 .3.3.8-.1.5-.5-1.6-1.9-3.3-3.3-5.9-4-2.6-.5-5.4-.7-8.1-.5 0-.1 0 .2.1.2z" class="chatting-girl-7"/>
  <path d="M119.3 107.9c.1 2.6 1.5 5.2 2.5 7.6.7 1.5 1.2 4.1 3.2 4.4.1 0 .3-.1.1-.3-3.3-2.7-3.4-8.1-5.6-11.7 0-.2-.2-.2-.2 0zM130 111c.7 7.1 2.9 14.1 5.4 20.7.1.3.7.1.5-.1-2.6-6.7-4-13.6-5.6-20.6-.1-.1-.3-.1-.3 0zM141.5 126c0 6 1.5 12.2 2.5 18.1.1.4.8.3.7-.1-1.1-6-1.9-11.9-2.9-18 0-.3-.3-.3-.3 0zM141.8 96.1c4.3 4.8 7.7 10 10.4 15.8.3.4 1 .1.7-.4-2.7-5.9-6.3-11.1-10.8-15.8-.2-.2-.6.1-.3.4z" class="chatting-girl-7"/>
  <path d="M155.5 97.2c-2.1 4.5-2.5 10.4-2.7 15.4 0 .4.7.4.7 0 .1-2.9.4-5.6 1-8.5.4-2.3 1.1-4.5 1.4-6.9 0-.2-.3-.2-.4 0zM147.8 114.3c3.2 4.9 5.2 9.9 7.4 15.4 0 .1.3 0 .3-.1-.8-5.5-3.8-11.3-7.4-15.4-.3-.1-.4 0-.3.1zM155.8 130c1.4-3.6 2.5-7 4.5-10.2.1-.3-.3-.5-.4-.3-1.9 3.2-3.8 6.8-4.1 10.5-.2.1-.2.1 0 0z" class="chatting-girl-7"/>
  <g>
    <path d="M156.1 32.8l-8-4.5V19c0-.7-.5-1.2-1.2-1.2H54c-.7 0-1.2.5-1.2 1.2v29.1c0 .7.5 1.2 1.2 1.2h92.8c.7 0 1.2-.5 1.2-1.2v-9.2l8-4.5c.7-.5.7-1.4.1-1.6z" class="chatting-girl-1 fill-primary"/>
    <path d="M123.4 43.3H140c1 0 1.6-.7 1.6-1.6V25.1c0-1-.7-1.6-1.6-1.6h-16.6c-1 0-1.6.7-1.6 1.6v16.6c-.1 1 .8 1.6 1.6 1.6zM63.6 28.8h49c1.1 0 1.9-.8 1.9-1.9 0-1.1-.8-1.9-1.9-1.9h-49c-1.1 0-1.9.8-1.9 1.9.2 1.1 1 1.9 1.9 1.9zM63.6 36.2h49c1.1 0 1.9-.8 1.9-1.9 0-1.1-.8-1.9-1.9-1.9h-49c-1.1 0-1.9.8-1.9 1.9.2 1.1 1 1.9 1.9 1.9zM80.1 43.6h32.7c1.1 0 1.9-.8 1.9-1.9 0-1.1-.8-1.9-1.9-1.9H80.1c-1.1 0-1.9.8-1.9 1.9 0 1.1.8 1.9 1.9 1.9z" class="chatting-girl-9"/>
  </g>
  <g>
    <g class="chatting-girl-10">
      <path d="M240.5 145.9c0-.1-.1-.4-.3-.5 0 0 0-.1-.1-.1-.4-.8-1.2-1.6-2.1-1.9-2.5-1.5-6.2-2.6-8-3l4.9-1.2v-.7l2.5.8c.7.3 1.5-.1 1.8-.8v-.4c.5 0 1.1-.4 1.2-1 .1-.4 0-.8-.1-1.1.5 0 1-.4 1.1-1 .1-.5 0-1-.3-1.4.4-.1.7-.4.8-.8.3-.7-.1-1.5-.8-1.8l-1.1-.4 10.4-15.7c.1-.3-.1-.5-.4-.5l-24 6.5-10-11v13l.7.4-.7.1v39.5h12.4c17.9-4.1 12.1-17 12.1-17z" class="chatting-girl-5"/>
    </g>
    <g class="chatting-girl-10">
      <path d="M156.1 149.9c1.8-2.5 3.8-5.5 4.5-8.4.8-3.6 0-9.7 0-13.5.1-9.7.1-19.8-3.2-28.8l1.8 7.7-.4 6.9-.4-.1-1.8-16.3c-2.6-6.2-6.7-11.7-12.1-15.9-.4 10.4-.7 33.4 4 40.5.8 1.4 2.3 2.5 4.1 3.4-4.3-1.9-7.8-3.2-10.2-4-.1 0-.4-.1-.5-.1h-.1c-.1 0-.3-.1-.5-.1h-.1c-.1 0-.3-.1-.4-.1h-.1c-.1 0-.3-.1-.4-.1h-.1c-.1 0-.1 0-.3-.1h-.2-.1-.1c-.3 0-.5 0-.8.1-.1 0-.3 0-.3.1-.1 0-.3.1-.3.1-.7.3-1.4.8-1.9 1.4-1.2 1.2-2.2 2.9-2.6 4.5v.2c-.4 1.6-.4 3.3-.1 4.9.5 2.9 1.9 5.6 4 7.8.1.1.1.3.3.3.4.4.8.8 1.4 1.2 2.5 2.1 5.2 4.3 7.6 6 .3.3.7.5 1 .7.4.3.8.5 1.1.8.4.3.8.5 1.1.8s.5.4.8.5c.1.1.4.3.5.4.3.3.5.4.7.4l-8 1c-1.9 0-3.6 1.2-4.4 2.9-.3.5-.4 1.2-.4 1.8v.1c0 .3 0 .5.1.8.1.7.4 1.2.7 1.8.8 1.2 2.3 2.1 4 2.1h2.7c.1 0 .3 0 .3-.1.1 0 .1 0 .3-.1.3-.1.5-.3.8-.4.1 0 .1-.1.1-.3v-.3c3-1.6 5.2-6.2 6.7-9.6 0-.1.1-.3.1-.4.2.3.6 0 1.1-.5zm1.7-22.4v.4c-.7-.4-1.5-.8-2.2-1.1 0 0-.1 0-.1-.1h-.1c.8.3 1.6.5 2.4.8z" class="chatting-girl-5"/>
    </g>
    <path d="M196 36.2c.7-2.2-1-4.4-2.6-6-3.3-3.2-7.3-5.6-11.8-5.9-4.1-.3-9.2 2.5-11.9 5.5-1.6 1.8-2.9 4-4.1 6-1.1 1.8-1.6 3.8-1.8 6-.1 2.5 1 5.1 0 7.6-.3.7-.8 1.4-1.1 2.2-.7 1.6-.1 3.6.3 5.4.1.7.4 1.4.4 1.9 0 1.1-.5 2.2-.8 3.2-.7 2.5.3 5.6 2.6 6.7.8.4 1.8.4 2.7.4.3 0 .7 0 1-.1.8-.4.8-1.6 1.4-2.6.5-1.1 2.1-1.4 3.3-1.4s2.6.1 3.7-.4c3-1.5 2.3-6.6 5.1-8.4 1.2-.8 2.9-.8 4-1.8 1.4-1.1 1.5-3 2.2-4.5.7-1.4 1.6-2.5 2.6-3.6 2.3-2.9 4-6.5 4.7-10" class="chatting-girl-5"/>
    <path d="M188.9 87.8l-18.4-1.9-6.9-20 5.6-2.2 12.9.2 8.4 2z" class="chatting-girl-11"/>
    <path fill="#09324c" d="M161.8 125.9h42.4v25.5h-42.4z"/>
    <path d="M183.7 64.3s7.8 1.8 10.6 2.7c0 0 8.5.8 11.1 12.2l6.6 29.7 13.9 15.1-5.4 4.1-17.7-12.1c-1-.7-1.8-1.8-2.1-2.9l-5-19.1.3 15.8s11.1 16.2 7.8 21.7l-42.6-2.3 1.2-22.1-4.8-21.4 2.9-18.4 8.8-3.3s-2.1 11.8 8.8 13.3c-.1-.2 9.5-2.8 5.6-13z" class="chatting-girl-13"/>
    <g class="chatting-girl-10">
      <path d="M195.9 102.8l-.1-8.8c-2.2 3.6-3.4 11-5.8 14.3-.4.5-.8 1.1-1 1.6-.4 1.4.3 2.9 1.2 4 1 1.1 2.3 1.8 3.6 2.6 2.5 1.8 4.7 4.1 6.2 6.7 1.1 1.9 3.4 5.8 2.3 8h1.5c3.4-5.5-7.8-21.7-7.8-21.7l-.1-6.7z" class="chatting-girl-5"/>
    </g>
    <path d="M207 116.1c-1-.7-1.8-1.8-2.1-2.9L195.7 94l2.7 10.7 2.2 8.5c.3 1.2 1.1 2.2 2.1 2.9l17.7 12.1 1-.8-14.4-11.3z" class="chatting-girl-14"/>
    <path d="M155 151.4s-7.3-5.2-12.9-10c-4.3-3.7-6-8.9-5.4-14.6v-.1s2.5-6.3 6-6.3c0 0 21.8 5.6 37.8 21.1l26.9 8.8-49.7 6.3-2.7-5.2z" class="chatting-girl-15"/>
    <path fill="#f7f9fa" d="M158.9 152.2c-.5-1-1.1-1.9-2.1-2.5-.5-.4-1.2-.5-1.8-.8-1.8-1.1-2.5-3.4-3.8-4.9-1.2-1.4-2.9-2.1-4-3.4-1-1.2-1.5-2.7-2.2-4.1-.5-1.4-1.1-2.7-1.6-4.1-.5-1.4-1.1-2.9-1.1-4.4 0-1 1.5-7.1 3.2-6.6-1.9-.5-2.9-.8-2.9-.8-1.2 0-2.3.8-3.4 1.8-2.5 2.6-3.6 6.3-2.7 9.7.7 3.7 2.6 7 5.5 9.5 5.6 4.8 12.9 10 12.9 10l2.6 5.4 4.9-.7c-.8-1.6-2.5-1.9-3.4-3.6.1-.2.1-.3-.1-.5z" opacity=".07"/>
    <path d="M165.3 154v1.7l42.1-5.4-12.6-4.1-8.4-2.4z" class="chatting-girl-14"/>
    <path d="M225.8 139.9s10.4 2.2 11.4 6c0 0 5.8 12.9-12.1 17h-54V154l25.7-6.9 29-7.2z" class="chatting-girl-15"/>
    <path d="M237.1 145.9c-.3-1.1-1.8-2.7-2.7-2.7 0 1.2.7 2.3.7 3.6 0 1.6-.8 3.3-1.9 4.5-1.6 1.8-4 2.9-6.2 4-1.4.7-2.7 1.2-4.1 1.9-1.2.5-2.5 1.1-3.8 1.5-4.4 1.1-9.1-.3-13.5.5-2.7.5-5.5.7-8.2 1-2.2.1-26.2 1.6-26.2 1.2v1.6h54c17.6-4.2 11.9-17.1 11.9-17.1z" class="chatting-girl-14"/>
    <path d="M171.2 154l-3.4-2.6c-1.1-.8-2.5-1.2-3.8-1.1l-16.9 1.9c-2.6 0-4.7 2.1-4.7 4.7v.1c0 2.6 2.1 4.7 4.7 4.7h24.2c-.1 0-.1-7.7-.1-7.7z" class="chatting-girl-11"/>
    <path d="M167.7 151.4c-1.1-.8-2.5-1.2-3.8-1.1l-16.9 1.9c-2.6 0-4.7 2.1-4.7 4.7v.1c0 .5.1 1.1.3 1.5.7-1.8 2.3-3.2 4.4-3.2l16.9-1.9c1.4-.1 2.7.3 3.8 1.1l3.4 2.6V154l-3.4-2.6z" class="chatting-girl-5"/>
    <path d="M151.8 155.5v-.1c0-1.4.5-2.7 1.2-3.8l-6.2.7c-2.6 0-4.7 2.1-4.7 4.7v.1c0 2.6 2.1 4.7 4.7 4.7H158c-3.3 0-6.2-2.8-6.2-6.3z" class="chatting-girl-5"/>
    <path d="M172.9 139.5l34.2-8.8 12.1 10.8-22.4 5.6z" class="chatting-girl-17"/>
    <path d="M178.4 139.5l31.5-8.1 9.3 9.6-18.2 4.5z" class="chatting-girl-18"/>
    <path fill="#d8d7d6" d="M197.4 146l-24.6-6.5v.4c0 .7.4 1.2 1.1 1.5l21 6.5c.5.1 1.2 0 1.6-.5l.9-1.4z"/>
    <path fill="#bebcba" d="M195.5 148l36.2-9.1v-1.5l-34.3 8.6z"/>
    <path d="M186.4 125.9l8.7 2.1c.3.1.7.3 1 .4l4.3 3.2c.7.5 1.2 1.2 1.5 1.9l1.4 2.3.7 4.5c-.8.7-1.9.1-2.1-.8l-.1-2.5c-.4-.8-2.2-2.6-3-2.7l-2.5-.5 1.9 3.3c.5.8-.1 1.9-1.1 1.9l-4.8-5.8-8.5-3.4 2.6-3.9z" class="chatting-girl-11"/>
    <path d="M196.8 146.5l12.5-21.8c0-.1.1-.1.1-.1l37.2-10c.3-.1.5.3.4.5l-15.5 23.2c0 .1-.1.1-.3.1l-34.2 8.5c0 .1-.3-.2-.2-.4z" class="chatting-girl-17"/>
    <path d="M224.7 131.4c-.7 1.5-2.1 2.7-3.3 2.7-1.1 0-1.5-1.2-1-2.7.7-1.5 2.1-2.7 3.3-2.7 1.3-.1 1.7 1.1 1 2.7z" class="chatting-girl-18"/>
    <path d="M161.8 128.1c-3.7-1.9-7.3-3.6-10.2-4.7.1.1.1.4.3.5 5.6 8.5 33.4 8.1 33.4 8.1l1.8-3.8-2.3-2.3h-22.9c-.1 0-.1 2.2-.1 2.2z" class="chatting-girl-14"/>
    <path d="M165 65.3s-10.6 4-11.9 4.7c-.5.3-4.8 1.8-4.9 6.7-.1 4.9-1.8 36.5 3.8 45s33.5 9.6 33.5 9.6l3-6-26.6-11.7-3-27.6 6.1-20.7z" class="chatting-girl-13"/>
    <path d="M161.7 113.6l-2.9-27.7-.4 1.7 1.2 27.1 27.9 12.4.8-1.8z" class="chatting-girl-14"/>
    <path d="M236.9 133.4l-4.3-1.4c-.7-.3-1.1-1-.8-1.8.3-.7 1-1.1 1.8-.8l4.3 1.4c.7.3 1.1 1 .8 1.8-.3.7-.9 1.1-1.8.8z" class="chatting-girl-11"/>
    <path d="M236.5 135.7l-4.9-1.6c-.7-.3-1.1-1-.8-1.8.3-.7 1-1.1 1.8-.8l4.9 1.6c.7.3 1.1 1 .8 1.8-.3.6-1.1 1-1.8.8z" class="chatting-girl-11"/>
    <path d="M235.6 137.7l-4-1.4c-.7-.3-1.1-1-.8-1.8.3-.7 1-1.1 1.8-.8l4 1.4c.7.3 1.1 1 .8 1.8-.3.6-1.2 1-1.8.8z" class="chatting-girl-11"/>
    <path d="M234.2 139l-2.5-.8c-.7-.3-1.1-1-.8-1.8.3-.7 1-1.1 1.8-.8l2.5.8c.7.3 1.1 1 .8 1.8-.3.7-1.1 1.1-1.8.8zM198.9 136.7l-.4-3.6 1.8-.1.5 5.4c-.9.1-1.8-.7-1.9-1.7zM171.8 58.4h10.6v13.7h-10.6z" class="chatting-girl-11"/>
    <path d="M182.4 63.4L171.8 66v-7.6h10.6z" class="chatting-girl-14"/>
    <path fill="#efdcb4" d="M197.1 41.1l-1.2-6.7c-2.7 1.1-5.8 1.8-8.7 2.1-1 .1-1.9.1-2.9.4-2.1.7-3.4 2.3-4.1 4.3-.5 1.5.1 4.8-1.9 5.1-1 .1-1.8-.4-2.3-1.2-.5-.7-1.1-1.5-1.6-2.2-1.6-1.5-3.7-.5-3.8 1.6-.1 1.2.4 2.6 1.4 3.4 1 1 2.5 1.4 2.9 2.6.3.5.3 1 .3 1.5.1 1.8.7 3.6 1.6 5.2 1.5 2.3 4 3.7 6.3 4.9 2.7 1.5 5.5 2.3 6.7-1.1 1-2.7 4.3-4 5.4-6.7.5-1.4 0-2.7 0-4.3-.1-3.2 2.1-5.4 1.9-8.9z"/>
    <path d="M194.9 50.2c.1-3.3 2.3-5.6 2.2-9.1l-1.2-6.7c-.5.1-1 .4-1.5.5l1.1 6.2c.1 3.4-2.1 5.8-2.2 9.1-.1 1.5.5 2.7 0 4.3-1 2.7-4.3 4-5.4 6.7-.5 1.4-1.2 2.1-2.2 2.3 1.6.3 3-.1 3.7-2.3 1-2.7 4.3-4 5.4-6.7.5-1.6 0-2.8.1-4.3z" class="chatting-girl-5" opacity=".1"/>
    <path d="M164.4 49c1.2.1 2.1 1.5 2.1 2.7s-.4 2.5-.7 3.7-.4 2.6.3 3.6c.5.8 1.6 1.4 2.1 2.3.8 1.8-1.2 3.7-1.5 5.6-.3 3 4 5.2 3.6 8.2-.1.8-.5 1.6-.5 2.5.1 1.5 1.9 2.7 1.6 4.4-.1.4-.3.8-.1 1.2.1.3.4.4.8.5.8.3 1.9.5 2.3-.3.5-1-.8-2.1-.4-3.2 1.5.3 3 .7 4.5 1 .3.1.7.1 1-.1.1-.1.3-.3.3-.5.4-1.8-1.2-3.3-2.2-4.9-.1-.3-.3-.4-.3-.7 0-.5.5-1 1.1-1.1 1-.4 1.9-1.1 2.2-2.1.3-1.2-.5-2.3-1.2-3.4-1.1-1.5-2.1-3.4-1.6-5.4.3-1.2 1.2-2.5 1.1-3.8-.1-2.5-3.3-3.8-3.6-6.3-.1-.5 0-1.2 0-1.8-.1-1.2-1.1-2.5-2.2-3-1.1-.7-2.5-1-3.7-1.2-1-.3-2.1-.4-3-.3-1 .3-1.9 1-1.9 2.1" class="chatting-girl-5"/>
  </g>
</svg>