<svg xmlns="http://www.w3.org/2000/svg" viewBox="0 0 315.1 163.1">
  <style>
    .chatting-boy-1{fill:#377dff}.chatting-boy-3{fill:#00c9a7}.chatting-boy-4{fill:none;stroke:#1e2022;stroke-width:.9128;stroke-miterlimit:10}.chatting-boy-5{opacity:.3;fill:#191c3c}.chatting-boy-7{fill:#fff}.chatting-boy-8{fill:#191c3c}.chatting-boy-9{fill:#ddb758}.chatting-boy-11{fill:#19a0ff}.chatting-boy-13{fill:#c6e8f7}.chatting-boy-14{fill:none;stroke:#fff;stroke-width:.9128;stroke-miterlimit:10}
  </style>
  <g opacity=".15">
    <ellipse cx="305.6" cy="105.1" class="chatting-boy-1 wojo primary fill" opacity=".4" rx="7.5" ry="7.5"/>
    <path d="M72.9 24.6c0 2.7-2.2 4.9-4.9 4.9s-5-2.1-5-4.9 2.2-4.9 4.9-4.9 5 2.2 5 4.9zM246.5 34c0 2.7-2.2 4.9-4.9 4.9s-4.9-2.2-4.9-4.9 2.2-4.9 4.9-4.9 4.9 2.2 4.9 4.9zM315.1 126.7c0 1.1-.9 2-2 2s-2-.9-2-2 .9-2 2-2 2 .9 2 2z" class="chatting-boy-1 fill-primary" opacity=".4"/>
    <circle cx="87.5" cy="4.9" r="2" class="chatting-boy-1 wojo primary fill" opacity=".4"/>
    <path d="M310.9 73c0 1.4-1.1 2.7-2.7 2.7-1.4 0-2.7-1.1-2.7-2.7 0-1.4 1.1-2.7 2.7-2.7 1.5.1 2.7 1.3 2.7 2.7z" class="chatting-boy-1 fill-primary" opacity=".4"/>
    <ellipse cx="42.1" cy="39.8" class="chatting-boy-1 wojo primary fill" opacity=".4" rx="11.2" ry="11.2"/>
    <path d="M8.6 131.3c0 1.4-1.1 2.7-2.7 2.7-1.4 0-2.7-1.1-2.7-2.7s1.1-2.7 2.7-2.7c1.5.1 2.7 1.3 2.7 2.7zM299.8 162.9c0-78.3-63.4-141.7-141.7-141.7S16.4 84.6 16.4 162.9h283.4z" class="chatting-boy-1 fill-primary" opacity=".4"/>
  </g>
  <path d="M185.9 138.9c-.1 0-.2.1-.3.1-2.7 1.3-4.1 1.1-6.8-.2-2.5-1.1-4.7-2.5-6.8-4.2-2.6-2.3-4.6-5.3-4.9-8.7-.1-.7-.1-1.6.4-2.2.6-.8 1.9-1 2.8-.6 1 .4 1.7 1.1 2.6 1.8.4.3.6.6 1.1.7s.9 0 1.2-.4c.4-.6-.3-1.4-.8-1.8-1.3-1.1-2.5-1.6-3.7-2.6-1.6-1.2-3.2-2.6-4.1-4.5-.9-1.8-1.1-4.1-.2-5.9.3-.5.7-1.1 1.2-1.4.9-.5 2.1-.5 3.2-.4 1.1.3 2.1.6 3.2.7 2.6.3 3.6-1.6 3.6-3.9 0-1.6-.5-3.1-.6-4.7-.2-2.8 1.2-5.8 3.7-7 2.6-1.2 6.1-.1 7 2.6 1 2.9-1.3 6.1.2 8.9.5.9 1.6 2.1 2.5 2.6 1.5.9 3.5-.2 5.1-.1.4 0 .7.1 1 .4.2.2.3.5.3.7.4 2-.4 4.2-1.8 5.6-1.7 1.6-4.7 2.4-5.4 4.7-.5 1.6-.3 5.3 2.2 4.9.9-.2 1.6-1 2.4-1.4 1.1-.4 2.3.4 2.7 1.4.5 1 .4 2.3-.1 3.3-.6 1.6-1.9 3-3.2 4.3-2.7 3.1-4.4 5.7-7.7 7.3z" class="chatting-boy-3"/>
  <path d="M182.3 103.7v58.8M189.1 113.9l-6.8 6.8-6.9-6.8M189.1 127.6l-6.8 6.8-6.9-6.8" class="chatting-boy-4"/>
  <path d="M196.3 108.4c-.3-.3-.6-.3-1-.4-1.6-.1-3.7.9-5.1.1-.8-.5-1.9-1.7-2.5-2.6-1.1-2-.2-4.3 0-6.5-.9 0-1.7.4-2.3 1.1-.6.8-.6 2-.5 3.1.5 4.7 3.4 8.9 6.9 12.1.3.3.6.5.9.7.7-.5 1.5-.9 2-1.4 1.6-1.4 2.3-3.6 1.8-5.6.1-.1 0-.4-.2-.6z" class="chatting-boy-5"/>
  <g>
    <path d="M214 121.3c-.1.1-.3.1-.4.2-3.8 1.8-5.8 1.6-9.5-.2-3.4-1.6-6.7-3.5-9.5-5.9-3.6-3.2-6.3-7.4-6.9-12.1-.1-1.1-.1-2.2.5-3.1.8-1.2 2.6-1.4 4-.8s2.5 1.6 3.6 2.6c.5.5.9.8 1.6 1 .6.2 1.4 0 1.6-.5.5-.8-.4-1.8-1.1-2.5-1.7-1.5-3.5-2.4-5.3-3.7-2.4-1.6-4.5-3.7-5.8-6.2-1.3-2.6-1.6-5.8-.3-8.2.4-.7 1-1.5 1.7-1.9 1.3-.8 3-.8 4.5-.5s2.9.9 4.5 1.1c3.7.4 5-2.2 4.9-5.5-.1-2.2-.7-4.4-.9-6.7-.2-3.9 1.7-8.1 5.3-9.8 3.6-1.6 8.5-.1 9.8 3.7 1.4 4-1.7 8.6.3 12.4.6 1.3 2.2 3 3.5 3.7 2 1.2 4.8-.2 7.1-.1.5 0 1.1.1 1.5.5.3.3.4.6.5 1 .5 2.8-.5 5.8-2.6 7.8-2.4 2.2-6.6 3.3-7.6 6.7-.6 2.1-.4 7.4 3 6.8 1.3-.2 2.1-1.5 3.3-1.8 1.5-.5 3.2.5 3.9 1.9.6 1.5.5 3.1-.1 4.7-.9 2.3-2.7 4.2-4.5 6-3.5 3.5-5.9 7.1-10.6 9.4z" class="chatting-boy-3"/>
    <path d="M208.9 72.1v90.4M218.5 86.3l-9.6 9.6-9.4-9.6M218.5 105.5l-9.6 9.6-9.4-9.6" class="chatting-boy-4"/>
  </g>
  <g>
    <path d="M154.9 19.9l5.3-3v-6.1c0-.5.4-.8.8-.8h61.7c.5 0 .8.4.8.8v19.4c0 .5-.4.8-.8.8H161c-.5 0-.8-.4-.8-.8V24l-5.3-3c-.4-.3-.4-.9 0-1.1z" class="chatting-boy-1 fill-primary"/>
    <path d="M176.6 27h-11c-.6 0-1.1-.5-1.1-1.1v-11c0-.6.5-1.1 1.1-1.1h11c.6 0 1.1.5 1.1 1.1v11c0 .6-.4 1.1-1.1 1.1zM216.3 17.3h-32.6c-.7 0-1.3-.5-1.3-1.3 0-.7.5-1.3 1.3-1.3h32.6c.7 0 1.3.5 1.3 1.3s-.5 1.3-1.3 1.3zM216.3 22.2h-32.6c-.7 0-1.3-.5-1.3-1.3 0-.7.5-1.3 1.3-1.3h32.6c.7 0 1.3.5 1.3 1.3s-.5 1.3-1.3 1.3zM205.5 27.2h-21.7c-.7 0-1.3-.5-1.3-1.3 0-.7.5-1.3 1.3-1.3h21.7c.7 0 1.3.5 1.3 1.3 0 .7-.7 1.3-1.3 1.3z" class="chatting-boy-7"/>
  </g>
  <g>
    <path d="M113.6 155.7l-7.1 2.3c-1 .4-1.8 1.1-2.3 2.1v.1c0 1.3 1.1 2.4 2.4 2.4h10.1v-8.9l-3.1 2zM104.7 57.8v.5c0 .5.2 1.2.5 1.6l.3.3c.2.3.4.5.4.9.1.5.4 1 .8 1.3l1.7 1c.2.1.4.2.6.2h2.6l1.9-.5 3 .5V58l-3.6.3-.5-1.2c-.5-.9-1.4-1.6-2.5-1.6l-5.5-.3-6.4-6.6c-.2-.2-.5-.2-.7 0-.2.2-.2.5 0 .7l5.9 5.9c-.2.2-.4.4-.4.6 0 .4.3.7.7.7l1.1.1.8.8v.1l-.7.3z" class="chatting-boy-5"/>
    <g>
      <path d="M113 61.9c-.3.3-.5.3-.7 0L99.6 49.3c-.2-.2-.2-.5 0-.7.2-.2.5-.2.7 0L113 61.2c.3.2.3.6 0 .7z" class="chatting-boy-8"/>
      <path d="M139.69 25.234l7.235-3.175 3.295 7.508-7.234 3.175z" class="chatting-boy-9"/>
      <path d="M147.1 22.8l-5.2 7.7-2.3-5.2 7.3-3.2z" class="chatting-boy-5"/>
      <path fill="#efdcb4" d="M147.2 23l-9 7.4c-2 .9-4.4.2-5.5-1.7l-1-1.7-1.2.5c-.5.2-1.1-.1-1.1-.6l-.5-3.9c-.1-.4 0-.8.2-1.2l.8-1.5-1.6-3.5c-.2-.4 0-2.4.3-2.6l12.9-4 5.7 12.8z"/>
      <path d="M130.5 157.9h-11.7l4.2-3 1-2.8h6.5zM167 152.4l-10.2 5.1 2-4.7-.6-2.9 5.6-3.5z" class="chatting-boy-9"/>
      <path d="M145.9 85s.8 26.9 0 28.5c0 0 12.8 15.6 19 34l-6.6 3.7-23.6-34.3 4.6-31.7 6.6-.2z" class="chatting-boy-11"/>
      <path d="M138.7 118.6s5.8-25.8 5.8-27.8c0-.5.6-1.1 1.4-1.8-.1-2.5-.1-4-.1-4h-6.5l-4.6 31.7 8.5 12.3c0-1.5-4.4-9.3-4.5-10.4z" class="chatting-boy-5"/>
      <path d="M127.2 81.8l-1.4 36.3-2.6 35.5h7.9s7.1-25.7 5.8-35.1c0 0 5.8-25.8 5.8-27.8.2-1.9 7.1-4.6 6.3-9.6l-5.1-4.5-15.6 1.6-1.1 3.6z" class="chatting-boy-11"/>
      <path fill="#f7f9fa" d="M129.5 81.8l1.1-3.4 13.5-1.5-.3-.2-15.6 1.6-1.1 3.4-1.4 36.3-2.6 35.5h2.4c.2-2.8.4-5.6.4-8.4 0-2.3.5-4.5.4-6.8 0-1.5-.3-3-.2-4.5.2-1.6.9-3.5 1.3-5.1.5-1.8.9-3.7 1.1-5.5.2-2.3-.3-4.7-.5-6.9-.3-2.8-.4-5.8-.4-8.6 0-1.9.5-3.5.7-5.2.4-2.1.1-4.4.2-6.5.2-3.1.7-6.1.9-9.1 0-1.3-.3-3.5.1-5.1z" opacity=".09"/>
      <path d="M153.2 46.5l4.9 8.3c.8 1.4.5 3.2-.6 4.3l-8.1 7.5-4.1-5.2 7.9-14.9z" class="chatting-boy-9"/>
      <path d="M149 81.2l-5.1-4.5-15.6 1.6-1.1 3.4-.1.5c8.7-1.8 17.8 2.9 21.4 2.1.4-.8.7-1.9.5-3.1zM153.2 46.5l-7.9 14.8 4.1 5.2 2.6-2.4c1.3-6.3 3.1-13.8 3.1-13.8.1-.2.1-.3.2-.5l-2.1-3.3z" class="chatting-boy-5"/>
      <path d="M149.3 27.2s.6 1.5 1.6 2.2c.9.8 5.8 5.8 5.6 9.5 0 0 .8 2.2-2.8 11.4 0 0-4.7 19.5-4.3 21.9.5 2.4 2.6 11.4 2.6 11.4s-13.6-5.8-27.7-1.6c0 0 3.1-17.5 3.4-20.8 0 0 7.1-23.9 11.7-27.7l9.9-6.3z" class="chatting-boy-13"/>
      <path d="M149.8 27.7l-.6-2.8s-8.2 3.8-9.5 6.7l-.8 4.9c-.1-.1 6.5-7.7 10.9-8.8z" class="chatting-boy-7"/>
      <path d="M166.9 150.1l2.4 4.5c.5.9 0 2-.9 2.3l-14.8 5h-6.7s-.7-.6-.9-1.6l7.7-3.6 3.5-4.7 3.2 2.3 4.6-1.6 1.9-2.6z" class="chatting-boy-8"/>
      <path d="M169.4 154.1l.7 1.3c.3.5.1 1.1-.5 1.4l-14.5 5.8H148c-1.2 0-2.1-1-2.1-2.1h10l13.5-6.4z" class="chatting-boy-7"/>
      <path d="M131.5 154.2v5.2c0 1-.8 1.7-1.7 1.7h-16.4l-6.9-1.2c.4-1 1.2-1.7 2.3-2.1l7.1-2.3 5.4-3.5 2 4.3h5.9l2.3-2.1z" class="chatting-boy-8"/>
      <path d="M130.1 162.5h-21.3c-1.3 0-2.4-1.1-2.4-2.4v-.1H132v.6c0 1-.8 1.9-1.9 1.9z" class="chatting-boy-7"/>
      <path d="M116.4 155.3l.6 1.2M117.9 154.3l.7 1.2M117.9 154.3l.7 1.2M119.5 153.3l.6 1.2M154.1 156.2l1.1.6M155.4 154.4l1 .7M156.5 152.8l1.1.7" class="chatting-boy-14"/>
      <path fill="#fec55e" d="M127.9 9.1c.1 0 .1-.1 0 0 .4-.2.8-.3 1.1-.5s.5-.5.6-.7c.4-.5 1-.7 1.4-1.1.6-.5 1.1-.8 1.9-1 .8-.1 1.7 0 2.6-.1 1.5-.2 3-1 4.4-.5 1 .4 1.6 1.3 2.3 2.2 1.2 1.8 2.5 3.7 3.3 5.7.7 1.8.6 4 .8 6 .1.5.1 1-.1 1.5s-.6 1-.5 1.6c-.1-.6-1.1-1.7-1.4-2.4-.4-.7-.5-1.3-1.4-1.6-.4-.1-.9-.1-1.2-.5-.2-.2-.3-.5-.4-.6-.2-.5-.3-.8-.6-1.2-.3-.4-.7-.5-1.2-.5-.2 0-.4.1-.5.2s-.1.2-.2.2c-.2.2-.5.2-.6.3-1 .5-.1 2-.1 2.7 0 .8-.5 1.8-1.3 2-.2-.6-.4-1.3-.7-1.9-.6-1.2-1.8-2-2.9-2.7-.5-.4-1.1-.7-1.6-1.2-.4-.3-.6-.5-1.1-.5s-.9.5-1.2.8c-.8 1.4-2.6 2.9-4.2 1.6-.6-.5-.9-1.5-.9-2.3 0-1.3.6-1.8 1.3-2.7.7-1.3 1.1-2.3 2.4-2.8z"/>
      <path d="M139 67.2l7.5-13.2-6.8-2.9-3.3 5.8-7.5.5c-.7 2.3-1.2 3.7-1.2 3.7-.1.7-.3 2.4-.5 4.3l11.8 1.8z" class="chatting-boy-5"/>
      <path fill="#f7f9fa" d="M156.5 38.9c.3-3.8-4.6-8.8-5.6-9.5-.9-.8-1.6-2.2-1.6-2.2l-1 .6c0 .6.2 1.4.4 2 .3.8.5 1.8.1 2.6-.6 1.4-2.6 1.5-3.5 2.6-.9 1.2-.5 3 .1 4.4 1 2.6 2.2 5.6 1.2 8.2-.3.6-.6 1.3-.7 1.9-.3 2 1.7 3.7 1.7 5.7s-2 3.5-2.6 5.4c-.7 2.3.5 4.7.6 7 0 1.9-.7 3.8-.6 5.8.1 1.3.5 2.5.9 3.7.5 1.6 1.1 3.4 1.6 5.1.8.3 1.6.5 2.2.6 0-.2.1-.3.1-.5.3-1.5.5-2.9.7-4.4-.5-2.4-1.1-4.7-1.3-5.8-.5-2.4 4.3-21.9 4.3-21.9 3.8-9.1 3-11.3 3-11.3z" opacity=".04"/>
      <path d="M139.4 50.7l-3.1 6-20.9 1.5-.5-1.2c-.5-.9-1.4-1.6-2.5-1.6l-6.5-.3c-.5 0-.8.4-.8.7 0 .4.3.7.7.7l2 .2-.1.8-.8.2v.5c0 .5.2 1.2.5 1.6l.3.3c.2.3.4.5.4.9.1.5.4 1 .8 1.3l1.7 1c.2.1.4.2.6.2h2.6l1.9-.5 22.5 3.2 8.1-12-6.9-3.5z" class="chatting-boy-9"/>
      <path d="M148.4 55.9l-9.7-5.8 5.2-12.5c1.4-3.1 5-4.5 8.1-3.1 3.1 1.4 3.6 5 2.1 8.1l-5.7 13.3z" class="chatting-boy-5"/>
      <path d="M147.4 54.5l-9.1-4.3 4.7-13c1.4-3.1 5-4.5 8.1-3.1 3.1 1.4 4.5 5 3.1 8.1l-6.8 12.3z" class="chatting-boy-13"/>
    </g>
  </g>
</svg>