<svg xmlns="http://www.w3.org/2000/svg" viewBox="389 -177.7 849.4 419.7">
  <linearGradient id="a" x1="389.632" x2="473.325" y1="132.85" y2="132.85" gradientTransform="matrix(1 0 0 -1 0 64.6)" gradientUnits="userSpaceOnUse">
    <stop offset="0" stop-color="#ffc107"/>
    <stop offset="1" stop-color="#de4437"/>
  </linearGradient>
  <path fill="url(#a)" d="M466.6-20.2c-7.3 5.4-17.7 3.7-23.1-3.6l-50.7-69.4c-5.4-7.3-3.7-17.7 3.6-23.1 7.3-5.4 17.7-3.7 23.1 3.6l50.7 69.4c5.3 7.4 3.7 17.8-3.6 23.1z"/>
  <linearGradient id="b" x1="755.173" x2="819.912" y1="202.75" y2="202.75" gradientTransform="matrix(1 0 0 -1 0 64.6)" gradientUnits="userSpaceOnUse">
    <stop offset="0" stop-color="#377dff"/>
    <stop offset="1" stop-color="#00dffc"/>
  </linearGradient>
  <path fill="url(#b)" d="M814.7-101c-5.7 4.1-13.7 2.9-17.8-2.8l-39.2-53.7c-4.1-5.7-2.9-13.7 2.8-17.8 5.7-4.1 13.7-2.9 17.8 2.8l39.2 53.7c4.1 5.7 2.9 13.7-2.8 17.8z"/>
  <linearGradient id="c" x1="1105" x2="1128" y1="132.8" y2="132.8" gradientTransform="matrix(1 0 0 -1 0 64.6)" gradientUnits="userSpaceOnUse">
    <stop offset="0" stop-color="#377dff"/>
    <stop offset="1" stop-color="#00dffc"/>
  </linearGradient>
  <circle cx="1116.5" cy="-68.2" r="11.5" fill="url(#c)"/>
  <linearGradient id="d" x1="389" x2="418" y1="-75.2" y2="-75.2" gradientTransform="matrix(1 0 0 -1 0 64.6)" gradientUnits="userSpaceOnUse">
    <stop offset="0" stop-color="#ffc107"/>
    <stop offset="1" stop-color="#de4437"/>
  </linearGradient>
  <circle cx="403.5" cy="139.8" r="14.5" fill="url(#d)"/>
  <linearGradient id="e" x1="528.173" x2="592.912" y1="-129.25" y2="-129.25" gradientTransform="matrix(1 0 0 -1 0 64.6)" gradientUnits="userSpaceOnUse">
    <stop offset="0" stop-color="#377dff"/>
    <stop offset="1" stop-color="#00dffc"/>
  </linearGradient>
  <path fill="url(#e)" d="M587.7 231c-5.7 4.1-13.7 2.9-17.8-2.8l-39.2-53.7c-4.1-5.7-2.9-13.7 2.8-17.8 5.7-4.1 13.7-2.9 17.8 2.8l39.2 53.7c4.1 5.7 2.9 13.7-2.8 17.8z"/>
  <linearGradient id="f" x1="1154.632" x2="1238.325" y1="-126.15" y2="-126.15" gradientTransform="matrix(1 0 0 -1 0 64.6)" gradientUnits="userSpaceOnUse">
    <stop offset="0" stop-color="#ffc107"/>
    <stop offset="1" stop-color="#de4437"/>
  </linearGradient>
  <path fill="url(#f)" d="M1231.6 238.8c-7.3 5.4-17.7 3.7-23.1-3.6l-50.7-69.4c-5.4-7.3-3.7-17.7 3.6-23.1 7.3-5.4 17.7-3.7 23.1 3.6l50.7 69.4c5.3 7.4 3.7 17.8-3.6 23.1z"/>
</svg>