<svg xmlns="http://www.w3.org/2000/svg" viewBox="0 0 72 64">
  <path fill="#97a4af" d="M34.4 28.5l-1-.3 1.8-5.7c.1-.5.5-.9.9-1.1.4-.2.9-.2 1.4 0l3.4 1.2-.3.9-3.4-1.2c-.2-.1-.4-.1-.6 0-.2.1-.3.3-.4.5l-1.8 5.7zm-6.6-.3l-1 .2-1.1-4.9v-.1l-8.4 9.3c-.3.3-.6.4-1 .4-.1 0-.3 0-.4-.1L4.3 28.3 7.2 41l-1 .2-2.9-12.7c-.1-.4 0-.8.2-1.2.2-.3.6-.5 1-.6l2.1-.5.2 1-1.7.4 11.1 4.5c.1 0 .3 0 .4-.1l8-8.8L12.2 26l-.2-1 12.9-2.9c.4-.1.8 0 1.2.2.3.2.5.6.6 1l1.1 4.9zm-16.9-1.9l-.2-1-2.4.6.2 1 2.4-.6zm24.3-8.5v-7.5h-6.7v6.5c-.4-.1-.8-.1-1.2 0-1.1.2-1.9.9-1.8 1.7.1.7 1.1 1.2 2.2 1 1.1-.2 1.8-.8 1.8-1.6v-6.6h4.7v5.5c-.4-.1-.8-.1-1.2 0-1.1.2-1.9.9-1.8 1.7.1.7 1.1 1.2 2.2 1 1.1-.2 1.8-.8 1.8-1.7zm-7.7.7h-.3c-.4 0-.7-.2-.7-.2 0-.1.3-.4 1-.5h.4c.3 0 .5.1.6.3-.1 0-.4.3-1 .4zm5.7 0h-.3c-.4 0-.7-.2-.7-.2 0-.1.3-.4 1-.5h.4c.3 0 .5.1.6.3-.1 0-.4.3-1 .4zm15.6-6h1.5v-1h-1.5v1zm10.8 2.2h-7.8v1h7.8v-1zm-4 33.7c-1.2 0-2.3 1.1-2.3 2.3s1.1 2.3 2.3 2.3 2.3-1.1 2.3-2.3-1.1-2.3-2.3-2.3zm0 3.6c-.7 0-1.3-.6-1.3-1.3s.6-1.3 1.3-1.3c.7 0 1.3.6 1.3 1.3s-.6 1.3-1.3 1.3zM28.8 34.1c-1.7 0-3.2.4-4.6 1.3l.5.9c1.2-.8 2.6-1.1 4-1.1 2.7 0 5.2 1.3 6.7 3.6l.8-.5c-1.5-2.7-4.3-4.2-7.4-4.2zm41-19.6v37.6c0 1.7-1.3 3-3 3h-57c-3.5 0-6.2-2.7-6.2-6.2v-.4c0-3.5 2.7-6.2 6.2-6.2h.3c1-3.5 4-5.9 7.7-5.9h1.1c1.7-4.1 5.8-6.9 10.3-6.9 4.8 0 8.9 2.9 10.4 7.2h-1.1c-1.5-3.7-5.1-6.2-9.3-6.2-4.2 0-7.8 2.6-9.4 6.2 1.5.6 2.5 2.1 2.5 3.8h-1c0-1.7-1.3-3.1-3.1-3.1h-.6c-3.5 0-6.3 2.5-6.9 5.9h-.9c-2.9 0-5.2 2.3-5.2 5.2v.4c0 2.9 2.3 5.2 5.2 5.2h32.6c-.5-.5-.8-1.2-.8-2V14.5c0-1.7 1.3-3 3-3h3.2v1h-3.2c-1.1 0-2 .9-2 2v37.6c0 1.1.9 2 2 2H66.8c1.1 0 2-.9 2-2V14.5c0-1.1-.9-2-2-2H50.7v-1h16.1c1.7 0 3 1.3 3 3z"/>
</svg>