<svg xmlns="http://www.w3.org/2000/svg" id="Layer_1" viewBox="0 0 48 40">
  <style>
    .st0{fill:#97a4af}
  </style>
  <path id="XMLID_3_" d="M24.6 33.5c-.7-1.2-1.9-2-3.3-2-.2 0-.5 0-.8.1-.6-1.6-2.2-2.6-4.1-2.6-1.7 0-3.3 1-4 2.4-1.4 0-2.6.9-3.1 2.1-1.4.1-2.6 1.3-2.6 2.9 0 1.5 1.3 2.8 2.8 2.8h14.4c1.5 0 2.8-1.3 2.8-2.9 0-1.4-.9-2.5-2.1-2.8zm1.1 2.9c0 1-.8 1.8-1.8 1.8H9.5c-1 0-1.8-.8-1.8-1.8v-.1c0-1 .8-1.8 1.8-1.8h.5c.2-1.2 1.2-2.1 2.4-2.1.2 0 .4 0 .6.1.4-1.4 1.8-2.5 3.4-2.5 1.8 0 3.2 1.3 3.5 3 .4-.2.9-.4 1.4-.4 1.2 0 2.2.8 2.6 1.9 1 0 1.8.8 1.8 1.8v.1z" class="st0"/>
  <path id="XMLID_7_" d="M24.3 5.7c-.1-1-.8-1.7-1.6-2-.5-.8-1.4-1.3-2.3-1.3h-.3c-.6-1-1.6-1.6-2.8-1.6-1.1 0-2.2.6-2.8 1.5-.9.1-1.7.6-2.1 1.3-1 .2-1.8 1.1-1.8 2.2V6c0 1.2 1 2.1 2.2 2.1H22c1.2 0 2.2-1 2.2-2.2l.1-.2zm-2.2 1.4h-9.2c-.7 0-1.2-.5-1.2-1.1v-.1c0-.7.6-1.2 1.2-1.2h.3c.1-.7.7-1.3 1.5-1.3.1 0 .3.1.4.1.3-.9 1.2-1.6 2.2-1.6 1.1 0 2 .8 2.2 1.9.3-.2.6-.3.9-.3.7 0 1.4.5 1.6 1.2.7 0 1.2.5 1.3 1.2 0 .7-.6 1.2-1.2 1.2z" class="st0"/>
  <path id="XMLID_16_" d="M46.1 21.3c-.1-1.8-1.5-3.1-3.2-3.1h-.1c-1-1.9-2.8-3-4.9-3H15.5l-8-8.5c-.5-.5-1-.6-1.3-.6H3.6c-.6 0-1.1.2-1.4.7-.4.5-.4 1.2-.2 1.8l3.4 6.6c-1 .2-1.8 1.1-1.8 2.2v.2c0 1.2 1 2.2 2.2 2.2h.8c1.4 3.1 4.5 5.2 8 5.2H20v.3c0 1.2 1 2.2 2.2 2.2H33c1.2 0 2.2-1 2.2-2.2V25H43c1.7 0 3.1-1.4 3.1-3.1v-.6zM2.9 8.2c-.2-.5.2-1.1.7-1.1h2.6c.2 0 .4.1.6.3l7.3 7.8H6.5l-3.6-7zm3 8h8.7c.6 0 1.2.5 1.2 1.2v.2c-.1.7-.6 1.2-1.2 1.2H5.8c-.6 0-1.2-.5-1.2-1.2v-.2c0-.6.5-1.2 1.3-1.2M34.2 25v.3c0 .6-.5 1.2-1.2 1.2H22.2c-.6 0-1.2-.5-1.2-1.2v-.6c0-.3.1-.5.3-.7.2-.3.5-.5.9-.5H33c.4 0 .7.2.9.5.1.2.3.4.3.7v.3zm10.9-3.1c0 1.1-.9 2.1-2.1 2.1h-7.9c-.3-.9-1.1-1.5-2.1-1.5H22.2c-1 0-1.8.6-2.1 1.5h-5.5c-3 0-5.6-1.7-6.9-4.2h6.9c1.1 0 2-.9 2.2-2.1v-.4c0-.4-.1-.9-.4-1.2h21.5c2 0 3.6 1.2 4.3 3h.7c1.2 0 2.1 1 2.2 2.2v.6z" class="st0"/>
  <g id="XMLID_13_">
    <g id="XMLID_452_">
      <path id="XMLID_30_" d="M35.9 17.8h3.9v1h-3.9z" class="st0"/>
    </g>
    <g id="XMLID_451_">
      <path id="XMLID_28_" d="M31.4 17.8h1.9v1h-1.9z" class="st0"/>
    </g>
    <g id="XMLID_453_">
      <path id="XMLID_26_" d="M28.2 17.8h2v1h-2z" class="st0"/>
    </g>
    <g id="XMLID_454_">
      <path id="XMLID_24_" d="M25.1 17.8H27v1h-1.9z" class="st0"/>
    </g>
    <g id="XMLID_455_">
      <path id="XMLID_21_" d="M22 17.8h1.9v1H22z" class="st0"/>
    </g>
    <g id="XMLID_456_">
      <path id="XMLID_17_" d="M18.8 17.8h2v1h-2z" class="st0"/>
    </g>
  </g>
  <path id="XMLID_6_" d="M22.8 14.1h-1c-.1-.2-.1-.5-.1-.8v-.2c0-1.7 1.3-3.1 3-3.2.6-1.5 2.1-2.5 3.7-2.5h.1c.9-1.8 2.7-3 4.8-3 2.2 0 4.2 1.4 5 3.4.4-.1.7-.2 1.1-.2 1.5 0 3 .9 3.8 2.4 1.4.3 2.5 1.6 2.5 3.1v.2c0 1.5-1 2.7-2.4 3.1-.2-.3-.5-.6-.8-.9 1.2 0 2.2-1 2.2-2.2v-.2c0-1.2-1-2.2-2.2-2.2-.5-1.3-1.7-2.3-3.1-2.3-.6 0-1.2.2-1.7.5-.4-2.1-2.2-3.7-4.4-3.7-2 0-3.6 1.3-4.2 3.1-.2-.1-.5-.1-.7-.1-1.5 0-2.7 1.1-3 2.5h-.5c-1.2 0-2.2 1-2.2 2.2v.2c-.1.3 0 .6.1.8zm10.5-6.8c.8 0 1.6.5 2.3 1.4l.8-.7c-.9-1.1-1.9-1.7-3.1-1.7-2-.1-3.6 1.6-3.6 1.7l.7.7s1.3-1.4 2.9-1.4z" class="st0"/>
</svg>