<svg xmlns="http://www.w3.org/2000/svg" viewBox="52 -32.2 151.5 112.2">
  <path fill="#377DFF" d="M140-.9h27v75.4h-27z"/>
  <path fill="#FFF" d="M140-.9h27v14.7h-27z"/>
  <path fill="none" stroke="#377DFF" stroke-miterlimit="10" stroke-width="1.5" d="M141.6-.9H167v75.3h-27"/>
  <path fill="none" stroke="#FFF" stroke-miterlimit="10" stroke-width="1.5" d="M142.3 18.4h22.1M142.3 22.7h22.1M142.3 26.9h22.1M142.3 31.2h22.1M142.3 35.4h22.1M142.3 39.7h22.1M142.3 43.9h22.1M142.3 48.2h22.1M142.3 52.4h22.1M142.3 56.7h22.1M142.3 60.9h22.1M142.3 65.2h22.1M142.3 69.4h22.1"/>
  <g fill="none" stroke="#377DFF" stroke-miterlimit="10" stroke-width="1.5">
    <path d="M143.6 1.1v10.4M146.6 1.1v10.4M149.5 1.1v10.4M152.5 1.1v10.4M155.5 1.1v10.4M158.4 1.1v10.4M161.4 1.1v10.4M164.4 1.1v10.4"/>
  </g>
  <g>
    <path fill="#FFF" d="M120.9-18.3h16.5v7.6h-16.5z"/>
    <path fill="none" stroke="#377DFF" stroke-miterlimit="10" stroke-width="1.5" d="M120.9-18.3h16.5v7.6h-16.5z"/>
    <path fill="#FFF" d="M117.5-13.1h23.3v87.4h-23.3z"/>
    <path fill="none" stroke="#377DFF" stroke-miterlimit="10" stroke-width="1.5" d="M120.9-32.2v14.5M137.4-32.2v14.5M129.1-27.8v9.4M117.5 75.1v-87.4h23.3v87M122.3-12.3v87.4M135.5-12v87.1"/>
  </g>
  <g>
    <path fill="#FFF" d="M88.5 75.1h22.9V-5.1H92.3v33h-3.8z"/>
    <path fill="none" stroke="#377DFF" stroke-miterlimit="10" stroke-width="1.5" d="M111.4-5.1H92.3v32.8h-3.8v47.4"/>
    <g fill="none" stroke="#377DFF" stroke-miterlimit="10" stroke-width="1.5">
      <path d="M111.2 75.1v-85l3.4-2.2v87.2M114.6-29.3v18.2"/>
    </g>
    <g fill="none" stroke="#377DFF" stroke-miterlimit="10" stroke-width="1.5">
      <path d="M92.3-2.5H111M92.3.6H111M92.3 3.8H111M92.3 6.9H111M92.3 10H111M92.3 13.1H111M92.3 16.2H111M92.3 19.3H111M92.3 22.5H111M92.3 25.6H111M92.3 27.7H111"/>
    </g>
    <g fill="none" stroke="#377DFF" stroke-miterlimit="10" stroke-width="1.5">
      <path d="M90.1 29.4v1.5M92.3 29.4v1.5M94.5 29.4v1.5M96.7 29.4v1.5M98.9 29.4v1.5M101.1 29.4v1.5M103.3 29.4v1.5M105.5 29.4v1.5M107.7 29.4v1.5M109.9 29.4v1.5M90.1 32.5V34M92.3 32.5V34M94.5 32.5V34M96.7 32.5V34M98.9 32.5V34M101.1 32.5V34M103.3 32.5V34M105.5 32.5V34M107.7 32.5V34M109.9 32.5V34"/>
      <g>
        <path d="M90.1 35.6v1.5M92.3 35.6v1.5M94.5 35.6v1.5M96.7 35.6v1.5M98.9 35.6v1.5M101.1 35.6v1.5M103.3 35.6v1.5M105.5 35.6v1.5M107.7 35.6v1.5M109.9 35.6v1.5"/>
      </g>
      <g>
        <path d="M90.1 38.7v1.5M92.3 38.7v1.5M94.5 38.7v1.5M96.7 38.7v1.5M98.9 38.7v1.5M101.1 38.7v1.5M103.3 38.7v1.5M105.5 38.7v1.5M107.7 38.7v1.5M109.9 38.7v1.5"/>
      </g>
      <g>
        <path d="M90.1 41.8v1.5M92.3 41.8v1.5M94.5 41.8v1.5M96.7 41.8v1.5M98.9 41.8v1.5M101.1 41.8v1.5M103.3 41.8v1.5M105.5 41.8v1.5M107.7 41.8v1.5M109.9 41.8v1.5"/>
      </g>
      <g>
        <path d="M90.1 44.9v1.5M92.3 44.9v1.5M94.5 44.9v1.5M96.7 44.9v1.5M98.9 44.9v1.5M101.1 44.9v1.5M103.3 44.9v1.5M105.5 44.9v1.5M107.7 44.9v1.5M109.9 44.9v1.5"/>
      </g>
      <g>
        <path d="M90.1 48v1.5M92.3 48v1.5M94.5 48v1.5M96.7 48v1.5M98.9 48v1.5M101.1 48v1.5M103.3 48v1.5M105.5 48v1.5M107.7 48v1.5M109.9 48v1.5"/>
      </g>
      <g>
        <path d="M90.1 51.1v1.5M92.3 51.1v1.5M94.5 51.1v1.5M96.7 51.1v1.5M98.9 51.1v1.5M101.1 51.1v1.5M103.3 51.1v1.5M105.5 51.1v1.5M107.7 51.1v1.5M109.9 51.1v1.5"/>
      </g>
      <g>
        <path d="M90.1 54.2v1.5M92.3 54.2v1.5M94.5 54.2v1.5M96.7 54.2v1.5M98.9 54.2v1.5M101.1 54.2v1.5M103.3 54.2v1.5M105.5 54.2v1.5M107.7 54.2v1.5M109.9 54.2v1.5"/>
      </g>
      <g>
        <path d="M90.1 57.3v1.5M92.3 57.3v1.5M94.5 57.3v1.5M96.7 57.3v1.5M98.9 57.3v1.5M101.1 57.3v1.5M103.3 57.3v1.5M105.5 57.3v1.5M107.7 57.3v1.5M109.9 57.3v1.5"/>
      </g>
      <g>
        <path d="M90.1 60.4v1.5M92.3 60.4v1.5M94.5 60.4v1.5M96.7 60.4v1.5M98.9 60.4v1.5M101.1 60.4v1.5M103.3 60.4v1.5M105.5 60.4v1.5M107.7 60.4v1.5M109.9 60.4v1.5"/>
      </g>
      <g>
        <path d="M90.1 63.5V65M92.3 63.5V65M94.5 63.5V65M96.7 63.5V65M98.9 63.5V65M101.1 63.5V65M103.3 63.5V65M105.5 63.5V65M107.7 63.5V65M109.9 63.5V65"/>
      </g>
      <g>
        <path d="M90.1 66.6v1.5M92.3 66.6v1.5M94.5 66.6v1.5M96.7 66.6v1.5M98.9 66.6v1.5M101.1 66.6v1.5M103.3 66.6v1.5M105.5 66.6v1.5M107.7 66.6v1.5M109.9 66.6v1.5"/>
      </g>
      <g>
        <path d="M90.1 69.7v1.5M92.3 69.7v1.5M94.5 69.7v1.5M96.7 69.7v1.5M98.9 69.7v1.5M101.1 69.7v1.5M103.3 69.7v1.5M105.5 69.7v1.5M107.7 69.7v1.5M109.9 69.7v1.5"/>
      </g>
      <g>
        <path d="M90.1 72.9v1.4M92.3 72.9v1.4M94.5 72.9v1.4M96.7 72.9v1.4M98.9 72.9v1.4M101.1 72.9v1.4M103.3 72.9v1.4M105.5 72.9v1.4M107.7 72.9v1.4M109.9 72.9v1.4"/>
      </g>
    </g>
  </g>
  <path fill="#377DFF" d="M52 75.2h151.5V80H52zM170.8 75.2V3.8l21.4 15.5v55.8zM84.7 75.2V3.8L63.3 19.3v55.8z"/>
</svg>