<svg xmlns="http://www.w3.org/2000/svg" id="Layer_1" viewBox="-24 2.9 149.5 116.1">
  <style>
    .st1{opacity:.4;fill:#19a0ff;enable-background:new}.st2{fill:none;stroke:#377dff;stroke-width:1.5;stroke-miterlimit:10}.st3{opacity:.5;fill:#19a0ff;enable-background:new}.st4{fill:#fff}.st5{opacity:.15;fill:#19a0ff;enable-background:new}.st6{fill:none;stroke:#19a0ff;stroke-width:1.5;stroke-miterlimit:10}.st7{opacity:.5}
  </style>
  <path fill="#f8fafd" d="M50.8 3.3C9.5 3.3-24 36.8-24 78c0 15 4.5 29 12.1 40.8h125.3c7.6-11.7 12.1-25.7 12.1-40.8 0-41.2-33.5-74.7-74.7-74.7z"/>
  <g id="forSale_507_">
    <path id="forSale_363_" d="M55.9 68.8H-4.4L-9.6 76H61z" class="st1"/>
    <path id="forSale_362_" d="M61 76l-5.1-7.2H-4.4L-9.6 76" class="st2"/>
    <path id="forSale_359_" d="M41.6 75.9H-9.5v42.5h70.4V75.9z" class="st2"/>
    <path id="forSale_358_" d="M-5.8 81h4.4v6.1h-4.4z" class="st1"/>
    <path id="forSale_357_" d="M1.1 81h4.4v6.1H1.1z" class="st1"/>
    <path id="forSale_356_" d="M-5.8 89.8h4.4v6.1h-4.4z" class="st1"/>
    <path id="forSale_355_" d="M1.1 89.8h4.4v6.1H1.1z" class="st1"/>
    <path id="forSale_354_" d="M-5.8 98.6h4.4v6.1h-4.4z" class="st1"/>
    <path id="forSale_353_" d="M1.1 98.6h4.4v6.1H1.1z" class="st1"/>
    <path id="forSale_352_" d="M-9.1 76.9h56.7v2.6H-9.1z" class="st3"/>
    <path id="forSale_351_" d="M-10.5 75.7h58v2.6h-58z" class="st4"/>
    <path id="forSale_350_" d="M-10.5 75.7h58v2.6h-58z" class="st2"/>
    <path id="forSale_349_" d="M7.5 79.5h5.9v38.9H7.5z" class="st3"/>
    <path id="forSale_348_" d="M9.2 64.3h33.6V118H9.2z" class="st4"/>
    <path id="forSale_347_" d="M9.1 64.7h33.6v53.7H9.1z" class="st2"/>
    <path id="forSale_346_" d="M9.5 64.5h32.9v3.1H9.5z" class="st3"/>
    <path id="forSale_345_" d="M7.5 63h36.9v3.1H7.5z" class="st4"/>
    <path id="forSale_344_" d="M41.1 66.1H7.5V63h32.8" class="st2"/>
    <path id="forSale_343_" d="M19.6 69.9H24v9.2h-4.4z" class="st1"/>
    <path id="forSale_340_" d="M27.8 70h4.4v9.2h-4.4z" class="st1"/>
    <path id="forSale_339_" d="M19.6 82H24v9.2h-4.4z" class="st1"/>
    <path id="forSale_335_" d="M27.8 82h4.4v9.2h-4.4z" class="st1"/>
    <path id="forSale_332_" d="M11.4 81.9h4.4v9.2h-4.4z" class="st1"/>
    <path id="forSale_331_" d="M11.2 69.9h4.4v9.2h-4.4z" class="st1"/>
    <path id="forSale_330_" d="M36.1 70h4.4v9.2h-4.4z" class="st1"/>
    <path id="forSale_329_" d="M36 81.9h4.4v9.2H36z" class="st1"/>
    <path id="forSale_328_" d="M31.7 118.2H20.4v-8.1c0-3.1 2.5-5.6 5.6-5.6 3.1 0 5.6 2.5 5.6 5.6v8.1h.1z" class="st4"/>
    <path id="forSale_327_" d="M31.7 118.2H20.4v-8.1c0-3.1 2.5-5.6 5.6-5.6 3.1 0 5.6 2.5 5.6 5.6v8.1h.1z" class="st2"/>
    <path id="forSale_326_" d="M26 104.8v13.4" class="st2"/>
    <path id="forSale_324_" d="M12.2 67.6h3v50.9h-3z" class="st3"/>
    <path id="forSale_323_" d="M36.5 67.6h3.1v50.9h-3.1z" class="st3"/>
    <path id="forSale_319_" d="M13.4 66.1h4.1v52.4h-4.1z" class="st4"/>
    <path id="forSale_317_" d="M16 66.1h1.1v52.4H16z" class="st5"/>
    <path id="forSale_316_" d="M13.4 66.1h4.1v52.4h-4.1z" class="st2"/>
    <path id="forSale_315_" d="M34.3 66.1h4.1v52.4h-4.1z" class="st4"/>
    <path id="forSale_313_" d="M34.3 66.1h1.3v52.4h-1.3z" class="st5"/>
    <path id="forSale_312_" d="M34.3 66.1h4.1v52.4h-4.1z" class="st2"/>
    <path id="forSale_311_" d="M46.9 63.3H5.2L26 48.1z" class="st1"/>
    <path id="forSale_310_" d="M41.1 63.3H5.2L26 48.1l15.5 11.3" class="st2"/>
    <path id="forSale_309_" d="M-.9 104.7h-5.5" class="st6"/>
    <path id="forSale_308_" d="M6 104.7H.5" class="st6"/>
    <path id="forSale_307_" d="M-.9 95.9h-5.5" class="st6"/>
    <path id="forSale_306_" d="M6 95.9H.5" class="st6"/>
    <path id="forSale_304_" d="M-.9 87h-5.5" class="st6"/>
    <path id="forSale_303_" d="M6 87H.5" class="st6"/>
    <path id="forSale_301_" d="M24.4 91.2H19" class="st6"/>
    <path id="forSale_300_" d="M33 91.2h-5.5" class="st6"/>
    <path id="forSale_299_" d="M24.4 79.1H19" class="st6"/>
    <path id="forSale_295_" d="M12.8 79.1h-2.1" class="st6"/>
    <path id="forSale_294_" d="M12.8 91.1h-2.1" class="st6"/>
    <path id="forSale_291_" d="M33 79.1h-5.5" class="st6"/>
  </g>
  <g id="forSale_142_" class="st7">
    <path id="forSale_198_" d="M95.7 23.4c-.6-1.7-2.2-3-4.1-3-.8 0-1.6.2-2.2.7-.4-2.7-2.7-4.8-5.6-4.8-2.5 0-4.7 1.7-5.4 4-.3-.1-.7-.1-1-.1-1.9 0-3.5 1.4-3.8 3.3H73c-1.6 0-2.9 1.3-2.9 2.9v.2c0 1.6 1.3 2.9 2.9 2.9h22.7c1.6 0 2.9-1.3 2.9-2.9v-.2c0-1.7-1.3-3-2.9-3z" class="st5"/>
    <path id="forSale_192_" d="M77 29.3h-4c-1.6 0-2.9-1.3-2.9-2.9v-.2c0-1.6 1.3-2.9 2.9-2.9h.6c.3-1.8 1.9-3.3 3.8-3.3.3 0 .7.1 1 .1.7-2.3 2.9-4 5.4-4 2.8 0 5.1 2.1 5.6 4.8.6-.4 1.4-.7 2.2-.7 1.9 0 3.5 1.3 4 3h.1c1.6 0 2.9 1.3 2.9 2.9v.2c0 1.6-1.3 2.9-2.9 2.9H77v.1z" class="st5"/>
  </g>
  <g id="forSale_179_" class="st7">
    <path id="forSale_181_" d="M41.8 8c-.4-1.2-1.6-2.1-2.9-2.1-.6 0-1.1.2-1.6.5-.3-1.9-2-3.4-4-3.4-1.8 0-3.3 1.2-3.8 2.8-.2-.1-.5-.1-.7-.1-1.4 0-2.5 1-2.7 2.3h-.5c-1.1 0-2.1.9-2.1 2.1v.2c0 1.1.9 2.1 2.1 2.1h16.2c1.1 0 2.1-.9 2.1-2.1V10c0-1.1-.9-2-2.1-2z" class="st5"/>
    <path id="forSale_180_" d="M28.5 12.2h-2.9c-1.1 0-2.1-.9-2.1-2.1V10c0-1.1.9-2.1 2.1-2.1h.5c.2-1.3 1.3-2.3 2.7-2.3.2 0 .5 0 .7.1.5-1.6 2-2.8 3.9-2.8 2 0 3.7 1.5 4 3.4.5-.3 1-.5 1.6-.5 1.3 0 2.5.9 2.8 2.1h.1c1.1 0 2.1.9 2.1 2.1v.2c0 1.1-.9 2.1-2.1 2.1h-3.1l-10.3-.1z" class="st5"/>
  </g>
  <g id="forSale_176_" class="st7">
    <path id="forSale_178_" d="M123.8 36.4c-.3-.8-1-1.3-1.8-1.3-.4 0-.7.1-1 .3-.2-1.2-1.2-2.2-2.5-2.2-1.1 0-2.1.8-2.4 1.8-.1 0-.3-.1-.5-.1-.9 0-1.6.6-1.7 1.5h-.3c-.7 0-1.3.6-1.3 1.3v.1c0 .7.6 1.3 1.3 1.3h10.3c.7 0 1.3-.6 1.3-1.3v-.1c-.1-.7-.7-1.3-1.4-1.3z" class="st5"/>
    <path id="forSale_177_" d="M115.3 39.2h-1.8c-.7 0-1.3-.6-1.3-1.3v-.1c0-.7.6-1.3 1.3-1.3h.3c.1-.8.9-1.5 1.7-1.5.2 0 .3 0 .5.1.3-1 1.3-1.8 2.4-1.8 1.3 0 2.3.9 2.5 2.2.3-.2.6-.3 1-.3.9 0 1.6.6 1.8 1.3h.1c.7 0 1.3.6 1.3 1.3v.1c0 .7-.6 1.3-1.3 1.3h-8.5z" class="st5"/>
  </g>
  <g id="forSale_125_">
    <path id="forSale_279_" d="M41.5 53.8h53.9v64.9H41.5z" class="st4"/>
    <path id="forSale_124_" d="M41.5 118.5V53.8h53.9v64.9" class="st2"/>
    <path id="forSale_275_" d="M62.1 99.5h12.8v18.9H62.1z" class="st1"/>
    <path id="forSale_9_" d="M62.1 99.5h12.8v18.9H62.1z" class="st2"/>
    <path fill="none" d="M41.8 118.3h54"/>
    <path id="forSale_8_" d="M68.5 100.8V117" class="st2"/>
    <path id="forSale_271_" d="M47.3 62.9h6.3v6.3h-6.3z" class="st1"/>
    <path id="forSale_270_" d="M59.1 62.9h6.3v6.3h-6.3z" class="st1"/>
    <path id="forSale_7_" d="M70.9 62.9h6.3v6.3h-6.3z" class="st1"/>
    <path id="forSale_6_" d="M82.8 62.9h6.3v6.3h-6.3z" class="st1"/>
    <path id="forSale_257_" d="M47.3 73.8h6.3v6.3h-6.3z" class="st1"/>
    <path id="forSale_255_" d="M59.1 73.8h6.3v6.3h-6.3z" class="st1"/>
    <path id="forSale_254_" d="M70.9 73.8h6.3v6.3h-6.3z" class="st1"/>
    <path id="forSale_5_" d="M82.8 73.8h6.3v6.3h-6.3z" class="st1"/>
    <path id="forSale_252_" d="M47.3 84.6h6.3v6.3h-6.3z" class="st1"/>
    <path id="forSale_249_" d="M59.1 84.6h6.3v6.3h-6.3z" class="st1"/>
    <path id="forSale_247_" d="M70.9 84.6h6.3v6.3h-6.3z" class="st1"/>
    <path id="forSale_246_" d="M82.8 84.6h6.3v6.3h-6.3z" class="st1"/>
    <path id="forSale_245_" d="M47.3 62.9h6.3v6.3h-6.3z" class="st2"/>
    <path id="forSale_4_" d="M59.1 62.9h6.3v6.3h-6.3z" class="st2"/>
    <path id="forSale_242_" d="M70.9 62.9h6.3v6.3h-6.3z" class="st2"/>
    <path id="forSale_241_" d="M82.8 62.9h6.3v6.3h-6.3z" class="st2"/>
    <path id="forSale_230_" d="M47.3 73.8h6.3v6.3h-6.3z" class="st2"/>
    <path id="forSale_227_" d="M59.1 73.8h6.3v6.3h-6.3z" class="st2"/>
    <path id="forSale_219_" d="M70.9 73.8h6.3v6.3h-6.3z" class="st2"/>
    <path id="forSale_3_" d="M82.8 73.8h6.3v6.3h-6.3z" class="st2"/>
    <path id="forSale_204_" d="M47.3 84.6h6.3v6.3h-6.3z" class="st2"/>
    <path id="forSale_203_" d="M47.3 99.4h6.3v13.9h-6.3z" class="st1"/>
    <path id="forSale_200_" d="M82.8 99.4h6.3v13.9h-6.3z" class="st1"/>
    <path id="forSale_197_" d="M47.3 99.4h6.3v13.9h-6.3z" class="st2"/>
    <path id="forSale_191_" d="M82.8 99.4h6.3v13.9h-6.3z" class="st2"/>
    <path id="forSale_2_" d="M59.1 84.6h6.3v6.3h-6.3z" class="st2"/>
    <path id="forSale_1_" d="M70.9 84.6h6.3v6.3h-6.3z" class="st2"/>
    <path id="forSale_165_" d="M82.8 84.6h6.3v6.3h-6.3z" class="st2"/>
    <path id="forSale_162_" d="M39.3 48.2h58.3v7.7H39.3z" class="st4"/>
    <path id="forSale_160_" d="M97.1 55.9H39.8c-.3 0-.5-.2-.5-.5v-6.7c0-.3.2-.5.5-.5h57.3c.3 0 .5.2.5.5v6.7c0 .3-.2.5-.5.5z" class="st2"/>
    <path id="forSale_158_" d="M51.5 44.8l-2.9-1.5-2.9 1.5c-.1 0-.2 0-.2-.1l.6-3.2-2.3-2.3c-.1-.1 0-.2.1-.2l3.2-.5 1.5-2.9c0-.1.2-.1.2 0l1.4 2.9 3.2.5c.1 0 .1.1.1.2l-2.4 2.3.4 3.3c.2 0 .1.1 0 0z" class="st2"/>
    <path id="forSale_153_" d="M64.5 44.8l-2.9-1.5-2.9 1.5c-.1 0-.2 0-.2-.1l.6-3.2-2.3-2.3c-.1-.1 0-.2.1-.2l3.2-.5 1.5-2.9c0-.1.2-.1.2 0l1.4 2.9 3.2.5c.1 0 .1.1.1.2l-2.4 2.3.4 3.3c.2 0 .1.1 0 0z" class="st2"/>
    <path id="forSale_152_" d="M77.6 44.8l-2.9-1.5-2.9 1.5c-.1 0-.2 0-.2-.1l.6-3.2-2.3-2.3c-.1-.1 0-.2.1-.2l3.2-.5 1.5-2.9c0-.1.2-.1.2 0l1.4 2.9 3.2.5c.1 0 .1.1.1.2l-2.4 2.3.4 3.3c.2 0 .1.1 0 0z" class="st2"/>
    <path id="forSale_149_" d="M90.6 44.8l-2.9-1.5-2.9 1.5c-.1 0-.2 0-.2-.1l.6-3.2-2.3-2.3c-.1-.1 0-.2.1-.2l3.2-.5 1.5-2.9c0-.1.2-.1.2 0l1.4 2.9 3.2.5c.1 0 .1.1.1.2l-2.4 2.3.4 3.3c.2 0 .1.1 0 0z" class="st2"/>
    <g id="forSale_128_">
      <path fill="#de4437" d="M120.1 109.4H99.8c-.6 0-1-.5-1-1V96.8c0-.6.5-1 1-1h20.3c.6 0 1 .5 1 1v11.6c0 .5-.4 1-1 1z"/>
      <path d="M105.4 97.9h2.2v.6h-1.5v.9h1.1v.5h-1.1v1.5h-.7v-3.5zM109.6 101.4c-1 0-1.8-.7-1.8-1.8 0-1 .8-1.8 1.8-1.8s1.8.7 1.8 1.8c0 1-.8 1.8-1.8 1.8zm0-.6c.6 0 1.1-.5 1.1-1.2s-.4-1.2-1.1-1.2c-.6 0-1.1.4-1.1 1.2s.5 1.2 1.1 1.2zM113.3 97.9c.8 0 1.3.5 1.3 1.1 0 .4-.2.9-.8 1l.8 1.4h-.8l-.8-1.4h-.3v1.4h-.7v-3.5h1.3zm-.1.5h-.6v1h.6c.4 0 .6-.2.6-.5s-.2-.5-.6-.5zM105.7 107.4c-.7 0-1.3-.4-1.3-1h.8c0 .3.2.5.5.5s.5-.2.5-.4c0-.8-1.8-.3-1.8-1.6 0-.6.5-1 1.2-1s1.2.4 1.3 1h-.8c0-.2-.2-.4-.5-.4s-.5.1-.5.4c0 .7 1.8.3 1.8 1.5 0 .5-.4 1-1.2 1zM109.7 106.7h-1.4l-.2.7h-.7l1.3-3.5h.8l1.3 3.5h-.7l-.4-.7zm-.7-2l-.5 1.5h1l-.5-1.5zM111.8 103.9v2.9h1.2v.6h-1.9v-3.5h.7zM115.4 104.4h-1.3v.9h1.2v.6h-1.2v.9h1.3v.6h-2v-3.5h2v.5z" class="st4"/>
      <path id="forSale_129_" fill="none" stroke="#de4437" d="M109.9 109.4v8.7"/>
    </g>
  </g>
</svg>