<svg xmlns="http://www.w3.org/2000/svg" viewBox="52 -32.2 151.5 112.2">
  <path fill="#FFF" d="M145.9 9.2c0-10.9-8.9-19.8-19.8-19.8s-19.8 8.9-19.8 19.8c0 7.3 4 13.7 9.9 17.1v12.3h19.7V26.3c6-3.4 10-9.8 10-17.1z"/>
  <path fill="#377DFF" d="M116.3 26.3H136v12.9h-19.7z"/>
  <path fill="none" stroke="#377DFF" stroke-miterlimit="10" stroke-width="1.5" d="M113.3 32.3H139"/>
  <path fill="none" stroke="#FFF" stroke-miterlimit="10" stroke-width="1.5" d="M115.6 32.3h21.2"/>
  <path fill="none" stroke="#377DFF" stroke-miterlimit="10" stroke-width="1.5" d="M126-18.7v5.6M134.7-14.4l-1 2.6M144-12.2L140.5-8M148.3-3.6L145.5-2M153.7 4.3l-5.4 1M151 13.6l-2.7-.5M150.6 23.2l-4.9-2.8M142.6 28.6l-1.8-2.2M110.2 28.6l1.7-1.8M102 23.7l4.8-2.8M101.2 14l2.9-.4M98.5 4.9l5.5.9M104-3l2.5 1.4M107.8-11.9l3.7 4.3M117.2-14.2l.9 2.6M136 37.2V26.3c5.9-3.4 9.9-9.8 9.9-17.1 0-10.9-8.9-19.8-19.8-19.8s-19.8 8.9-19.8 19.8c0 7.3 4 13.7 9.9 17.1v10.9"/>
  <path fill="#377DFF" d="M95.3 39.8h8.4v39.3h-8.4z"/>
  <path fill="none" stroke="#377DFF" stroke-miterlimit="10" stroke-width="1.5" d="M97.3 79.1h6.3V39.8h-8.4V77c0 1.2.9 2.1 2.1 2.1z"/>
  <path fill="#FFF" d="M90.9 45.5h8.4l2.8-5.7h-8.5z"/>
  <path fill="none" stroke="#377DFF" stroke-miterlimit="10" stroke-width="1.5" d="M90.9 45.5h8.4l2.8-5.7h-8.5z"/>
  <path fill="#FFF" d="M151.7 79.1h-48V39.8h51v36.3c-.1 1.7-1.4 3-3 3z" opacity=".9"/>
  <path fill="#19A0FF" d="M151.7 79.1h-48V39.8h51v36.3c-.1 1.7-1.4 3-3 3z"/>
  <path fill="none" stroke="#377DFF" stroke-miterlimit="10" stroke-width="1.5" d="M154.6 61.6V68M154.6 72.3v3.5c0 1.9-1.5 3.4-3.4 3.4h-47.6V39.8h51v18.1"/>
  <path fill="#FFF" d="M159 45.5h-51l-2.8-5.7h51z"/>
  <path fill="none" stroke="#377DFF" stroke-miterlimit="10" stroke-width="1.5" d="M159 45.5h-51l-2.8-5.7h51z"/>
  <g fill="none" stroke="#377DFF" stroke-miterlimit="10" stroke-width="1.5">
    <path d="M131.7-2.6s3 .6 3.1 3c0 0 2.7.5 1.9 3.7 0 0 2 1.5 1.4 5 0 0 2.8 1.9-.3 4.7v.3s.4 2.3-2.2 4.2c0 0-1.1.9-2.9 3.1-.9 1.1-3.7 2.3-5.1-1.9V-1.8c-.2 0 1.7-3.5 4.1-.8zM120.7-2.6s-3 .6-3.1 3c0 0-2.7.5-1.9 3.7 0 0-2 1.5-1.4 5 0 0-2.8 1.9.3 4.7v.3s-.4 2.3 2.2 4.2c0 0 1.1.9 2.9 3.1.9 1.1 3.7 2.3 5.1-1.9V-1.8c.2 0-1.6-3.5-4.1-.8z"/>
    <path d="M135.1 5.8c-.7.4-1.4.6-2.2.4-.7-.1-1.4-.6-1.8-1.2-.4-.7-.6-1.4-.4-2.2M132.8 13.2c-.7.4-1.4.6-2.2.4-.7-.1-1.4-.6-1.8-1.2-.4-.7-.6-1.4-.4-2.2M137.7 13.8c-.6 0-1.2-.3-1.6-.8-.4-.4-.6-1-.6-1.7 0-.6.3-1.2.8-1.6M130.7 9.2c-.5-.6-.7-1.3-.7-2.1.1-.8.5-1.5 1-1.9"/>
    <path d="M135.9 12.7c-.2-.7-.8-1.3-1.5-1.6-.7-.3-1.5-.4-2.2-.1M132.7 1.9c-.5-.5-.9-1.2-.9-2s.2-1.5.7-2.1M128.9 2c.7 0 1.5-.3 2-.8.6-.6.8-1.3.8-2M129.3 20.4c.6-.6 1.3-.9 2-.9s1.5.3 2 .8M130.6 15.9c-.3.7-.3 1.5 0 2.2.3.7.8 1.2 1.6 1.5M117.4 5.9c.7.4 1.4.6 2.2.4.7-.1 1.4-.6 1.8-1.2.4-.7.6-1.4.4-2.2M119.6 13.2c.7.4 1.4.6 2.2.4.7-.1 1.4-.6 1.8-1.2.4-.7.6-1.4.4-2.2M114.7 13.8c.6 0 1.2-.3 1.6-.8.4-.4.6-1 .6-1.7 0-.6-.3-1.2-.8-1.6M122.3 9.2c.5-.6.7-1.3.7-2.1-.1-.8-.5-1.5-1-1.9"/>
    <path d="M116.6 12.8c.2-.7.8-1.3 1.5-1.6s1.5-.4 2.2-.1M119.8 1.9c.5-.5.9-1.2.9-2s-.2-1.5-.7-2.1M123.5 2c-.7 0-1.5-.3-2-.8-.6-.6-.8-1.3-.8-2M123.1 20.5c-.6-.6-1.3-.9-2-.9s-1.5.3-2 .8M121.8 16c.3.7.3 1.5 0 2.2s-.8 1.2-1.6 1.5"/>
  </g>
  <g>
    <path fill="none" stroke="#377DFF" stroke-miterlimit="10" stroke-width="1.5" d="M70.9 70.9c-6.3 0-11.4-5.1-11.4-11.4s5.1-11.4 11.4-11.4c4.4 0 8.2 2.5 10.1 6.1M53.5 68.6c0-1.7.6-3.4 1.5-4.7 1.1-1.5 2.7-2.6 4.5-3.1M80.5 72.1c0-1.7.6-3.4 1.5-4.7 1.1-1.5 2.7-2.6 4.5-3.1M158.7 56.1c2.6-3.9 7-6.5 12-6.5 7.3 0 13.4 5.5 14.2 12.6"/>
    <path fill="#FFF" d="M162.9 70.9c0 4.6-5.9 8.3-13.2 8.3-7.3 0-13.2-3.7-13.2-8.3 0-4.6 5.9-8.3 13.2-8.3 7.3 0 13.2 3.7 13.2 8.3z"/>
    <circle cx="154.2" cy="68.1" r="8.3" fill="#FFF"/>
    <ellipse cx="139.4" cy="68.3" fill="#FFF" rx="10.6" ry="10.6"/>
    <path fill="none" stroke="#377DFF" stroke-miterlimit="10" stroke-width="1.5" d="M145.9 68.1c0-4.6 3.7-8.3 8.3-8.3 1.7 0 3.4.5 4.7 1.5"/>
    <path fill="none" stroke="#377DFF" stroke-miterlimit="10" stroke-width="1.5" d="M139.3 78.9c-5.9 0-10.6-4.8-10.6-10.6 0-5.9 4.8-10.6 10.6-10.6 3.7 0 7 1.9 8.9 4.8M192.3 78.9c5.4 0 9.9-4.4 9.9-9.9 0-5.4-4.4-9.9-9.9-9.9-3.4 0-6.5 1.8-8.2 4.4"/>
  </g>
  <g>
    <circle cx="172.7" cy="-8" r="6.4" fill="#DE4437"/>
    <path fill="#FFF" d="M175.1-7.8c.1.2.2.5.2.8-.1.4-.2.7-.5.9-.3.1-.7.3-1.1.3v.8h-.6v-.8h-.5v.8h-.6v-.8h-1.1l.1-.7h.4c.1 0 .1-.1.1-.2v-2.5c0-.1-.1-.2-.2-.2h-.6v-.6h1.1v-.9h.6v.9h.5v-.9h.6v.9c.4.1.7.1.9.3s.4.4.4.7c.1.5-.1.7-.5.9.4-.1.6.1.8.3zm-2.6-.6c.4 0 .7 0 .8-.1.3-.1.5-.3.5-.5 0-.3-.1-.4-.5-.5-.2-.1-.4-.1-.7-.1h-.1v1.2zm.2 1.8c.4 0 .7 0 .9-.1.3-.1.5-.3.5-.5 0-.3-.2-.5-.5-.5-.2-.1-.5-.1-.9-.1h-.1l.1 1.2z"/>
    <path fill="#377DFF" d="M186.5 25.4c0 2.1-1.7 3.8-3.8 3.8s-3.8-1.7-3.8-3.8 1.7-3.8 3.8-3.8c2.1.1 3.8 1.8 3.8 3.8z"/>
    <path fill="#FFF" d="M182.4 26.6l-1.3-1.2.5-.4.8.8 1.4-1.5.5.4z"/>
    <path fill="#FFC107" d="M86-5.5c-1.3 2.6-4.4 3.7-7 2.5-2.6-1.3-3.7-4.4-2.5-7 1.3-2.6 4.4-3.7 7-2.5 2.7 1.3 3.8 4.4 2.5 7z"/>
    <path fill="#FFF" d="M81-8.4l.6-1.2.9.4-.6 1.2 1.2.6-.4.8-1.2-.6-.6 1.2-.9-.4.6-1.2-1.1-.6.4-.8 1.1.6z"/>
    <g>
      <path fill="#FFC107" d="M129.4-26.5c-.7 2-3 3.1-5 2.4s-3.1-3-2.4-5 3-3.1 5-2.4c2.1.7 3.1 2.9 2.4 5z"/>
      <path fill="#FFF" d="M125.8-26.4v.3s0 .1-.1.1h-.3s-.1 0-.1-.1v-.3c-.5-.1-.7-.3-.8-.4v-.1l.2-.3s.3.3.6.3c.2 0 .4-.1.4-.3s-.2-.3-.5-.4c-.4-.2-.8-.3-.8-.8 0-.4.3-.7.7-.8v-.5s0-.1.1-.1h.5s.1 0 .1.1v.3c.4 0 .6.3.6.3v.1l-.1.3s-.3-.2-.6-.2-.4.1-.4.3c0 .2.3.3.5.4.4.2.8.3.8.8s-.4.9-.8 1z"/>
    </g>
    <g>
      <path fill="#377DFF" d="M79.4 24.9c0 4.6-3.8 8.3-8.3 8.3-4.6 0-8.3-3.8-8.3-8.3 0-4.6 3.8-8.3 8.3-8.3 4.6 0 8.3 3.8 8.3 8.3z"/>
      <path fill="#FFF" d="M73.3 27.8c0 .1 0 .2-.1.2 0 0-.4.2-1 .2-1.4 0-2.6-.9-3-2.2h-.4c-.1 0-.2-.1-.2-.2v-.5c0-.1.1-.2.2-.2h.3v-.5h-.3c-.1 0-.2-.1-.2-.2v-.5c0-.1.1-.2.2-.2h.4c.4-1.3 1.6-2.1 3-2.1.4 0 .9.1.9.1s.1 0 .1.1v.1l-.2.7c0 .1-.1.1-.2.1 0 0-.3-.1-.6-.1-.8 0-1.4.4-1.7 1.1h2.2c.1 0 .1 0 .1.1v.1l-.1.5c0 .1-.1.1-.2.1h-2.3v.5h2.1c.1 0 .1 0 .1.1v.1l-.1.5c0 .1-.1.1-.2.1h-1.7c.3.7 1 1.1 1.7 1.1.4 0 .7-.1.7-.1h.1l.1.1.3.9z"/>
    </g>
  </g>
</svg>