<svg xmlns="http://www.w3.org/2000/svg" id="Layer_1" viewBox="488 -394.8 1023.5 837.8">
  <ellipse cx="664" cy="413" fill="#377DFF" opacity=".1" rx="176" ry="30"/>
  <ellipse cx="1335.5" cy="406" fill="#377DFF" opacity=".1" rx="176" ry="30"/>
  <path fill="#377DFF" d="M762.4-394.3c-46 2.5-92.5 15.9-128.4 44.8-31.5 25.4-54.2 65.2-48.7 105.3 6.5 47.3 48.7 81.7 64.4 126.8 10.1 29 8.5 61 1.9 91-4.2 19.3-10.8 38.7-23.3 54-22.6 27.6-63.3 40.9-74.4 74.7-12.1 36.8 18.3 72.9 46.9 99.1 22.8 20.9 46.7 41.7 75.4 53.1 21 8.4 43.8 11.4 66.4 12.6 62.4 3.3 124.7-6.7 183-29.2 27.9-10.8 54.9-24.6 84.1-31.1 62.3-13.9 126.3 6.2 189.4 15.5 54.1 8 109 8.2 163.2.5 34.1-4.9 69.3-13.6 94.9-36.5 26-23.3 39-59.3 37.6-94.2-1.4-34.9-16.2-68.5-37.8-95.9-28-35.4-66.6-60.6-100.2-90.7a432.66 432.66 0 0 1-86.2-106.6c-13.2-23-24.4-47.4-41.5-67.7-26.7-31.6-65.3-50.3-104-64.8-89.2-33.4-181.6-40.2-274.6-55-29.2-4.7-58.7-7.3-88.1-5.7z" opacity=".1"/>
  <g opacity=".7">
    <path fill="#FFF" d="M746.5-27.7h191V79h-191z"/>
    <circle cx="782.5" cy="19.7" r="19.9" fill="#377DFF" opacity=".2"/>
    <path fill="#377DFF" d="M826.6-3.9h86.6v5.5h-86.6zM826.6 10h44.1v5.5h-44.1zM826.6 23.9H898v5.5h-71.4zM826.6 37.8h86.6v5.5h-86.6zM889.3 57.8h24v10.5h-24z" opacity=".2"/>
    <path fill="#FFF" d="M907.3-322.6h191v106.7h-191z"/>
    <circle cx="943.3" cy="-275.2" r="19.9" fill="#377DFF" opacity=".2"/>
    <path fill="#377DFF" d="M987.4-298.8h86.6v5.4h-86.6zM987.4-284.9h44.1v5.4h-44.1zM987.4-271h71.4v5.5h-71.4zM987.4-257.1h86.6v5.4h-86.6zM1050-237.1h24v10.5h-24z" opacity=".2"/>
    <path fill="#FFF" d="M970.9-143.4h191v106.7h-191z"/>
    <ellipse cx="1006.8" cy="-96.1" fill="#377DFF" opacity=".2" rx="19.9" ry="19.9"/>
    <path fill="#377DFF" d="M1051-119.6h86.6v5.5H1051zM1051-105.7h44.1v5.5H1051zM1051-91.8h71.4v5.5H1051zM1051-77.9h86.6v5.5H1051zM1113.6-57.9h24v10.5h-24z" opacity=".2"/>
  </g>
  <path fill="#377DFF" d="M679.9-259.1H1001v181.4H679.9z" opacity=".1"/>
  <path fill="#FFF" d="M682.1-256.8h316.6v176.9H682.1z"/>
  <ellipse cx="741.8" cy="-178.3" fill="#377DFF" opacity=".2" rx="33" ry="33"/>
  <path fill="#377DFF" d="M814.9-217.4h143.6v9H814.9zM814.9-194.3h73.2v9h-73.2zM814.9-171.3h118.3v9H814.9zM814.9-148.3h143.6v9H814.9z" opacity=".2"/>
  <path fill="#377DFF" d="M918.8-115h39.7v17.5h-39.7z"/>
  <path fill="#377DFF" d="M905.1-14h305.4v170.7H905.1z" opacity=".1"/>
  <path fill="#FFF" d="M907.2-12.8h301.2v168.3H907.2z"/>
  <circle cx="963.9" cy="61.9" r="31.4" fill="#377DFF" opacity=".2"/>
  <path fill="#377DFF" d="M1033.5 24.7h136.6v8.6h-136.6zM1033.5 46.7h69.6v8.6h-69.6zM1033.5 68.6h112.6v8.6h-112.6zM1033.5 90.5h136.6v8.6h-136.6z" opacity=".2"/>
  <path fill="#377DFF" d="M1132.4 122.1h37.8v16.6h-37.8z" opacity=".5"/>
  <g opacity=".1">
    <linearGradient id="SVGID_1_" x1="659.52" x2="659.52" y1="842" y2="842.18" gradientTransform="matrix(1 0 0 -1 -88.27 735.32)" gradientUnits="userSpaceOnUse">
      <stop offset="0" stop-color="gray" stop-opacity=".25"/>
      <stop offset=".54" stop-color="gray" stop-opacity=".12"/>
      <stop offset="1" stop-color="gray" stop-opacity=".1"/>
    </linearGradient>
    <path fill="url(#SVGID_1_)" d="M570.9-106.9l.7.2c-.2-.2-.5-.2-.7-.2z"/>
  </g>
  <linearGradient id="SVGID_2_" x1="716.117" x2="716.117" y1="307.12" y2="911.069" gradientTransform="matrix(1 0 0 -1 -88.27 735.32)" gradientUnits="userSpaceOnUse">
    <stop offset="0" stop-color="gray" stop-opacity=".25"/>
    <stop offset=".54" stop-color="gray" stop-opacity=".12"/>
    <stop offset="1" stop-color="gray" stop-opacity=".1"/>
  </linearGradient>
  <path fill="url(#SVGID_2_)" d="M725.6 9.3c-2.2-14.8-15.7-49.5-15.7-49.5-.2-1-.5-2.1-.8-3.1-9.6-32.9-22.8-35.8-22.8-35.8l-47.4-10.1c.4.2.7.6 1 .9l-.8.1c-2.2-2.6-3.6-5.7-4.2-9-.1-.5-.2-1-.2-1.5 13.2-12.9 13.5-34 .6-47.2-1-1.1-2.2-2.1-3.3-3-.5-.4-1-.8-1.5-1.1 2.2-2.4 2.3-5.7.6-9-3.7-7.8-11.9-12.7-20.2-15.1-6.4-1.8-13.3-2.4-19.6-.4-3.6 1.1-6.9 3.1-10.3 4.8-6.3 3.1-13.2 5.6-18 10.8-1.1 1.2-2.1 2.8-1.8 4.3.3 1.2 1.2 2.1 1.8 3.2 1.4 2.4 1 5.3.1 7.9-.9 2.6-2.3 5-2.9 7.6-.6 2.6-.4 5.7 1.6 7.6 1 .8 2 1.5 3 2.1 1.1.9 2 2 2.8 3.2l5.6 7.6c2.6 3.4 5 6.9 7 10.7 1.4 2.8 2.5 5.7 4.4 8.2.6.7 1.2 1.4 1.9 2-.2-.1-.4-.1-.6-.2 1.7 1.6 3.9 2.5 6.3 2.4h.3c.4 0 .8-.2 1.1-.5v1c.1 3.6.1 7.5-.2 11.2l-.4-.2c-1.3-.7-2.9-.5-4.1.4l-43.7 35s-9.5 13-8.2 35.4l-7.6 33.6s-9.6 28.5-2.2 48.9c7.4 20.4 11.6 32 11.6 32s2.9 23.1 7.4 25 6.3 2.9 6.3 2.9l.9 5.5s.3.5.8 1.5c3.2 5.6 15.1 25.3 22.1 23.2.9 5.4 1.2 10.8 1.1 16.2l6.8 46s4.8 12.5 4.5 19.1 5.6 15.9 5.6 15.9c-3.6 6.5-4.6 14.1-2.9 21.4 2.8 12.2 6.3 68.7 6.3 68.7l5.1 13.7-.1 16c-.4 2.6-1.5 5-3.2 7.1-3.3 3.6-3.1 7.8-11 12.7-7.9 4.9-13 6.8-13 13.3 0 .9-.1 1.8-.2 2.7-.7 4.8-2.2 7.4 12.5 8.8 17.2 1.6 28.7-9.6 28.7-9.6s2.5-4.6 14.5-6.4c0 0 4.1-.2 4.3-3.8.1-1.2.1-3.6 0-6.2-.2-5-.7-10.8-1.3-11.1-.8-.3-2.2-5.4-2.7-7.2h3.3s3.1-23.1 0-38.1-.3-25.6-.3-25.6l-.6-39.6s-4.2-4.2-.9-11.9c3.3-7.7 0-45.8 0-45.8s1.2-13.7 4.6-16.9.2-20 0-20.9l6 20.2s2.6 40.2 8.3 47.5l1.6 18.2s11.5 16.7 9.3 25.8 2.4 41.6 2.4 41.6v33.3s-5.2 13.4 2.1 18.2l3.1-.1c-1.1 1-1.8 2.4-3 3.6-1.4 1.4-2.2 6.8-2.6 11.5-.4 3.9-.5 7.3-.5 7.3s3.1 4.9 8.8 5.2c5.7.3 24.7 14.8 24.7 14.8s18.8 0 23.6-1l.3-.1c1.6-.5 2.9-1.6 3.7-3 1-1.7 1.3-3.6.9-5.5-.6-2.9-2.9-6-7.9-8.7-12.6-6.7-14.5-12.9-14.5-12.9l-8.3-12.4h1.2s-.7-13.1 8.2-27.8l-.6-64.8s3.7-22.3-2.6-34.3c0 0-.5-12.8 3.7-16.7 4.2-3.9-5.6-43.7-5.6-43.7s-2-21.3-4.4-40.8c9.9 9.4 20.2-24.5 22-30.5h.3s0-.2-.1-.4.1-.4.1-.4-2.2-7.8-.6-6.3c1.6 1.6 5.6-4.4 5.6-4.4s-.6-32.5 6.3-48.8-3.3-56.4-3.3-56.4zM696 29.9c1 19.7-.2 62-.2 62s-1.4 5.4-2.8 11.8l-1-40.2-1-37.8 5 4.2zM569.3 16.3s5 62.6 0 71.6c-1.4 2.6-2.6 7.1-3.6 12.4-1.6-4.3-5.1-14.5-3.9-19.9 1.6-7-3.2-25.3-3.2-25.8s-.4-10.2 3.1-17.7 1.2-10.7 1.2-10.7 2.8-12.2 6.4-9.9z"/>
  <path fill="#EFB7B9" d="M581.4 157.2c-4.4 19.2-21.7-9.8-25.6-16.8l-.8-1.4 1.9-8.8 9.9-4c1.6.8 3.1 1.8 4.4 2.9 5.5 4.2 13.6 13.3 10.2 28.1zM715.9 125.9l-.1.4c0 .1-.1.3-.1.5-1.7 6-11.8 39.7-21.6 30.3-10.7-10.3-5.5-33.8-5.5-33.8h.1l22.5-2.3 4.5 4.6.2.3z"/>
  <path fill="#444053" d="M702.9 291.6l.6 64.3c-8.8 14.6-8.1 27.6-8.1 27.6l-29 1.2c-7.1-4.8-2-18-2-18v-33.1s-4.5-32.3-2.4-41.3-9.1-25.6-9.1-25.6l-1.6-18c-5.5-7.2-8.1-47.1-8.1-47.1l-5.9-20c.1.9 3.2 17.7 0 20.8s-4.5 16.8-4.5 16.8 3.2 37.8 0 45.5.9 12 .9 12l.6 39.3s-2.8 10.5.3 25.4c3.1 14.9 0 37.8 0 37.8h-31.2l.1-16-5.1-13.6s-3.5-56-6.2-68.2c-1.6-7.2-.6-14.7 2.9-21.2 0 0-5.8-9.3-5.5-15.8.3-6.5-4.4-18.9-4.4-18.9l-6.7-45.7c.2-8.8-.9-17.5-3.3-26-3.9-13-9.7-30-9.7-30l6.5.6 32.9 2.9s80-5.4 83.6-.9c.8 1.5 1.3 3 1.5 4.7 3.6 16.2 8.3 66.7 8.3 66.7s9.7 39.4 5.5 43.3-3.6 16.6-3.6 16.6c6.4 11.8 2.7 33.9 2.7 33.9z"/>
  <path fill="#B07473" d="M635.3 403.3c-.2 3.6-4.2 3.8-4.2 3.8-11.7 1.8-14.2 6.4-14.2 6.4s-11.3 11.2-28.2 9.6c-14.4-1.4-13-4-12.3-8.7.1-.9.2-1.8.2-2.7 0-6.5 5-8.3 12.8-13.2 7.8-4.9 7.6-9 10.8-12.6s3.6-10.5 3.6-10.5c3.7-6.4 13 1 13 1 .4 2.3 14.3 2 14.3 2s1.8 7.4 2.8 7.8c.6.3 1.1 6.1 1.3 11 .2 2.5.2 4.9.1 6.1z"/>
  <path d="M635.3 403.3c-.2 3.6-4.2 3.8-4.2 3.8-11.7 1.8-14.2 6.4-14.2 6.4s-11.3 11.2-28.2 9.6c-14.4-1.4-13-4-12.3-8.7 6.4 1.6 18.7 3.8 25.9-.1 10-5.4 17.1-9.2 17.1-9.2l15.7-8c.3 2.6.3 5 .2 6.2z" opacity=".1"/>
  <path fill="#B07473" d="M723.5 422.6c-.8 1.4-2.1 2.5-3.6 3-.1 0-.2.1-.3.1-4.8 1-23.2 1-23.2 1s-18.7-14.5-24.3-14.8c-5.6-.3-8.7-5.2-8.7-5.2s.1-3.4.5-7.3c.4-4.6 1.2-10 2.6-11.4 2.5-2.6 3-6.2 8.7-3.9 0 0 8-14.1 17.4-3.2l9.8 14.8s1.8 6.2 14.2 12.8c5 2.7 7.2 5.8 7.8 8.6.3 1.9 0 3.9-.9 5.5z"/>
  <path d="M723.5 422.6c-1.1.9-2.3 1.9-3.6 3-.1 0-.2.1-.3.1-4.8 1-23.2 1-23.2 1s-18.7-14.5-24.3-14.8c-5.6-.3-8.7-5.2-8.7-5.2s.1-3.4.5-7.3c5.7 1.7 14.4 4.8 16.8 8 3.6 5 14.4 11.9 14.4 11.9s20.2-1.9 29.2-2.2c.4 1.9.1 3.9-.8 5.5z" opacity=".1"/>
  <path fill="#EFB7B9" d="M644.7-81.5L618-53.3s-32.3-2.4-26.7-11.9c2.9-4.9 3.3-15 3.1-23.9-.2-8.5-1.1-15.8-1.1-15.8s45.3-22.5 41.8-1.5c-.7 4-.8 8-.1 12 2 10.6 9.7 12.9 9.7 12.9z"/>
  <path d="M635.2-106.4c-.7 4-.8 8-.1 12-6.3 6.3-14.8 9.9-23.7 9.9-6.2 0-12.8-5-17.7-8-.2-8.5-.3-12.4-.3-12.4s45.2-22.6 41.8-1.5z" opacity=".1"/>
  <path fill="#EFB7B9" d="M644.7-119.7c0 18.4-14.9 33.4-33.4 33.4S578-101.2 578-119.6s14.9-33.4 33.4-33.4c7.6 0 14.9 2.6 20.8 7.3 7.9 6.3 12.5 15.9 12.5 26z"/>
  <path d="M690.1 130.8c-8.3 19.8-61.8 20.2-61.8 20.2v-21.6l-3.2-.2c1.4 6.2-2 21.2-2 21.2-42.3 6-52.5-18.1-52.5-18.1l1.5-8.2L605 127s80-5.4 83.6-.9c.7 1.5 1.3 3.1 1.5 4.7z" opacity=".1"/>
  <path fill="#E1E7EF" d="M628.4 148.4v-21.6l-3.2-.2c1.4 6.2-2 21.2-2 21.2-31.8 4.5-45.5-8-50.3-14.5-.9-1.1-1.6-2.3-2.2-3.6l12.8-72.5 3-106.8 4.6-18.7 1.1-9v-.1h.1l3.3 1.4 19.7 8.5 22.5-16.9.3-.3 1.1-.8 1.9 1.5 4.6 3.7 14.7 95.1s25.6 73.3 30.3 102.8c.2 1.2.4 2.3.5 3.3 3 27-62.8 27.5-62.8 27.5z"/>
  <circle cx="617.7" cy="-65.5" r="1.9" fill="#00C9A7"/>
  <circle cx="618.6" cy="-48.2" r="1.9" fill="#00C9A7"/>
  <circle cx="620.5" cy="-20.1" r="1.9" fill="#00C9A7"/>
  <circle cx="623.6" cy="10.1" r="1.9" fill="#00C9A7"/>
  <circle cx="625.5" cy="38.5" r="1.9" fill="#00C9A7"/>
  <circle cx="627.4" cy="68.8" r="1.9" fill="#00C9A7"/>
  <circle cx="626.7" cy="98.7" r="1.9" fill="#00C9A7"/>
  <path d="M593.5 67.7s-2.1 27.8-6 35.9-5.6 30.8-5.6 30.8l-9-1c-.9-1.1-1.6-2.3-2.2-3.6l12.9-72.6 3-106.8 4.6-18.7 1.1-9h.1c1-.5 2.2-.5 3.2 0l.4.2c-.1.4-.3.8-.4 1.1-3.5 11-4.8 31.4-4.8 31.4s5.1 37.3 5.6 54.6-2.9 57.7-2.9 57.7z" opacity=".1"/>
  <path d="M571.3 129c-.1.2-.2.5-.3.7-3.5 5.9-12.4 9.7-15.1 10.7l-.8-1.4 1.9-8.8 9.9-4c1.5.8 3 1.7 4.4 2.8z" opacity=".1"/>
  <path fill="#00C9A7" d="M547.2-12.8L539-7.9l-7.5 33.4s-9.4 28.3-2.2 48.5 11.4 31.7 11.4 31.7 2.9 23 7.2 24.8c4.3 1.8 6.2 2.9 6.2 2.9l.9 5.5s11.8-4 15.9-11-3.1-24.5-3.1-24.5-6.2-14.9-4.6-21.8c1.6-6.9-3.2-25.1-3.2-25.6s-.4-10.1 3-17.6 1.2-10.6 1.2-10.6L562 6.6l-14.8-19.4z"/>
  <path d="M690.8 124.6s-21.8 8.2-28.8 1-6.2-41-6.2-41-6.6-62.4-10.8-72.7c-4.2-10.3-2-84.2-2-84.2s-2.8-9.5-5.3-12.1c-.2-.2-.3-.3-.5-.4l.9.2 3 .6 4.6 3.7 14.7 95.1s25.6 73.3 30.3 102.8l.1 7z" opacity=".1"/>
  <path d="M715.9 126.7h-.3c-2.7.3-27 3.3-27.1-1.8 0-.6 0-1.2.1-1.8l22.5-2.3 4.5 4.6c.1.3.1.6.2.8l.1.5z" opacity=".1"/>
  <path fill="#00C9A7" d="M692.7-46.2l16 8.3s13.2 34.4 15.4 49.1c0 0 9.8 39.5 3 55.7-6.8 16.2-6.2 48.5-6.2 48.5s-3.9 5.9-5.5 4.3c-1.6-1.6.6 6.2.6 6.2s-27.2 3.6-27.4-1.7c-.2-5.3 6.3-30.9 6.3-30.9s1.7-60.8-.7-70.4-1.5-69.1-1.5-69.1z"/>
  <path d="M645.1 18.5s-9 22-11.9 23.4.6 7.2.6 7.2 16.4-22.8 11.3-30.6zM639.8-58.5c.1-.4-10.7 10.6-13.6 12.2-2.9 1.6 10.5 0 13.6-12.2zM609.7 16.8s-16.5 10.7-14.3 14.9c2.2 4.2 14.3-14.9 14.3-14.9zM639.7 172.2s14 9 35.8 11.3l-35.8-11.3zM606 193.9s13 16.3 18.9 16.8c6 .4-18.9-16.8-18.9-16.8zM624.2 257.9c-.6.3-7.4 14.7-14.3 15.2-6.9.4 14.3-15.2 14.3-15.2zM684.5 289.5s12.9-2.9 15.7 6.4c0 0-.9-2.9-15.7-6.4zM675.8 342.4s15.6-3.2 18.9 1.2-18.9-1.2-18.9-1.2zM631.6 349.8c0 .1-15.9 3.2-15.3 5.2.6 2 16.9 1.7 17.5-1.5.5-1.6-.5-3.3-2.2-3.7.1 0 .1 0 0 0zM670.6 363.5s26.1-3.2 24.5 2.3c-1.6 5.5-24.5-2.3-24.5-2.3zM533.9 41.9c.1.4 17.2 2.7 19.5 8.2 0 0-16.8-7.8-19.4-7.8M557.9 86.6s-14.2 4.5-13.2 11.3-1.4-3.2 13.2-11.3zM551.3 121s5.2-7.1 10.1-5.8c4.9 1.3-10.1 5.8-10.1 5.8zM632.2-145.7c-.5.5-1.1.9-1.7 1.2-4.1 2.4-5.2 6-7.2 10.3-1.8 3.9-3.8 8-7.4 10.2-4.7 2.8-10.9 1.8-15.8 4.3-4.4 2.3-7 7.1-6.5 12.1.3 1.9.8 3.7 1.4 5.5 1.1 3.9 1.6 7.9 1.5 12v.4c-16.5-8.2-23.2-28.3-15-44.8s28.3-23.2 44.8-15c2.1 1 4.1 2.3 5.9 3.8z" opacity=".1"/>
  <path fill="#FDD14E" d="M631.3-155.8c-3.7-7.7-11.6-12.6-19.8-15-6.3-1.8-13.1-2.4-19.3-.4-3.5 1.1-6.8 3-10.1 4.7-6.2 3.1-13 5.6-17.6 10.7-1.1 1.2-2.1 2.7-1.8 4.3.2 1.2 1.2 2.1 1.8 3.1 1.3 2.3 1 5.3.1 7.8-.9 2.6-2.2 4.9-2.9 7.6s-.4 5.7 1.6 7.6c.9.7 1.9 1.4 2.9 2.1 1.1.9 2 2 2.8 3.1l5.5 7.5c2.6 3.3 4.9 6.9 6.9 10.6 1.4 2.7 2.4 5.6 4.3 8.1s4.7 4.4 7.7 4.1c.5 0 .9-.2 1.2-.6.1-.2.2-.5.2-.8.1-4.1-.4-8.1-1.5-12-.6-1.8-1.1-3.7-1.4-5.5-.5-5 2.1-9.8 6.5-12.1 4.9-2.5 11.1-1.4 15.8-4.3 3.7-2.2 5.6-6.3 7.4-10.2 2-4.2 3.1-7.9 7.2-10.3s4.5-6 2.5-10.1z"/>
  <path d="M616.3 389.7s5.1 6.5 3.8 10.2c-1.3 3.7-3.8-10.2-3.8-10.2zM685.4 406s1.1-8.7 5.7-8.8 4.8-.5 8.2.9 6.7 3.4 5.7 3.7-6-5-11-2.3c-3.2 1.7-6.1 3.9-8.6 6.5zM601.1-56.6l14.2-10S594.4-79 591.9-77.2s-4.2 17.3-4.2 17.3l13.4 3.3z" opacity=".1"/>
  <path fill="#E1E7EF" d="M601.1-57.3l14.3-10.2S594.5-79.9 592-78.1s-4.2 18.2-4.2 18.2l13.3 2.6z"/>
  <path d="M601.1-57.3l14.3-10.2S594.5-79.9 592-78.1s-4.2 18.2-4.2 18.2l13.3 2.6z" opacity=".03"/>
  <path fill="#00C9A7" d="M594.3-78l-.4-.2c-1.3-.7-2.9-.5-4 .4L547-43s-9.3 12.9-8 35.1l25.3 35.8s2.9-12.1 6.4-9.8c0 0 4.9 62.1 0 71.1-4.9 9-7.1 42.5-7.1 42.5l16.6 1.9s1.7-22.7 5.6-30.8c3.9-8.1 6-35.9 6-35.9s3.5-40.4 2.9-57.7c-.6-17.3-5.6-54.6-5.6-54.6s1.4-21.9 5.2-32.6z"/>
  <path d="M637-63l-17.8-6.6s22.7-24.8 25.5-11.1L637-63z" opacity=".1"/>
  <path fill="#E1E7EF" d="M637-63.9l-17.8-6.6s22.7-24.9 25.5-11.1L637-63.9z"/>
  <path d="M637-63.9l-17.8-6.6s22.7-24.9 25.5-11.1L637-63.9z" opacity=".03"/>
  <path d="M636.5-85c.3 0 .5 0 .7.1l-.7-.1z" opacity=".1"/>
  <path fill="#00C9A7" d="M638.2-86.7l47.3 10.2s13 2.9 22.4 35.5C717.3-8.4 695 31.7 695 31.7l-4.9-4.2 2.5 95.3s-21.8 8.2-28.8 1c-6.9-7.2-6.2-41-6.2-41s-6.6-62.4-10.8-72.7c-4.2-10.3-2-84.2-2-84.2s-4-13.2-6.6-12.6z"/>
  <path d="M681.4-26c-.7.6-1.4 29.5 1.5 51.4 1.8 13.4 4.5 26.6 8.2 39.6l-4.3-88s-3.4-4.9-5.4-3zM675.6-50.8c1.2.7 6.2 12.7 3.9 17.6s-3.9-17.6-3.9-17.6zM631-155.8c-2.3-4.6-5.9-8.4-10.4-10.9 3.3 2.4 6 5.5 7.8 9.1 2 4 1.4 8.1-2.5 10.4-3.9 2.3-5.2 6-7.2 10.3-1.8 3.9-3.8 8-7.4 10.2-4.7 2.8-10.9 1.8-15.8 4.3-4.4 2.3-7 7.1-6.5 12.1.3 1.9.8 3.7 1.4 5.5 1.1 3.9 1.6 7.9 1.5 12 0 .3 0 .5-.1.8-.3.4-.7.6-1.2.6-1.2.1-2.5-.1-3.6-.7 1.6 1.6 3.9 2.5 6.2 2.4.5 0 .9-.2 1.2-.6.1-.2.2-.5.2-.8.1-4.1-.4-8.1-1.5-12-.6-1.8-1.1-3.7-1.4-5.5-.5-5 2.1-9.8 6.5-12.1 4.9-2.5 11.1-1.4 15.8-4.3 3.7-2.2 5.7-6.3 7.4-10.2 2-4.2 3.1-7.9 7.2-10.3 4-2.2 4.4-6.2 2.4-10.3z" opacity=".1"/>
  <ellipse cx="1456.2" cy="366.9" fill="#377DFF" opacity=".1" rx="41" ry="5.6"/>
  <ellipse cx="1134.8" cy="419.8" fill="#377DFF" opacity=".1" rx="29.1" ry="4"/>
  <ellipse cx="874.1" cy="390.1" fill="#377DFF" opacity=".1" rx="29.1" ry="4"/>
  <path fill="#377DFF" d="M890.1 381c1.8-1.5 3.2-3.5 3.8-5.8.5-2.3-.5-5-2.7-5.9-2.5-.9-5.1.8-7.1 2.5s-4.3 3.7-6.9 3.3c2.7-2.5 4-6.2 3.2-9.8-.1-.7-.4-1.4-.9-2-1.4-1.5-3.9-.8-5.5.3-5.2 3.7-6.6 10.7-6.7 17.1-.5-2.3-.1-4.7-.1-7s-.6-5-2.6-6.2c-1.2-.7-2.6-1-4-1-2.3-.1-4.9.2-6.5 1.9-2 2.1-1.5 5.7.3 8s4.4 3.8 6.8 5.4c1.9 1.2 3.6 2.7 4.8 4.6.1.3.3.5.4.8h14.7c3.3-1.6 6.3-3.7 9-6.2zM1472.9 359.9c1.8-1.5 3.2-3.5 3.9-5.8.5-2.3-.5-5-2.7-5.9-2.5-.9-5.1.8-7.1 2.5s-4.3 3.7-6.9 3.3c2.7-2.5 4-6.2 3.2-9.8-.1-.7-.4-1.4-.9-2-1.4-1.5-3.8-.8-5.5.3-5.2 3.7-6.7 10.7-6.7 17.1-.5-2.3-.1-4.7-.1-7s-.7-5-2.6-6.2c-1.2-.7-2.6-1-4-1-2.3-.1-4.9.2-6.5 1.9-2 2.1-1.5 5.7.3 8s4.3 3.8 6.8 5.4c1.9 1.2 3.6 2.7 4.8 4.6.1.3.3.5.4.8h14.7c3.1-1.6 6.2-3.7 8.9-6.2zM1142.7 406.7c1.8-1.5 3.2-3.5 3.8-5.8.5-2.3-.5-5-2.7-5.9-2.5-.9-5.1.8-7.1 2.5s-4.3 3.7-6.9 3.3c2.7-2.5 4-6.2 3.2-9.8-.1-.7-.4-1.4-.9-2-1.4-1.5-3.8-.8-5.5.3-5.2 3.7-6.7 10.7-6.7 17.1-.5-2.3-.1-4.7-.1-7s-.7-5-2.6-6.2c-1.2-.7-2.6-1-4-1-2.3-.1-4.9.2-6.5 1.9-2 2.1-1.5 5.7.3 8s4.3 3.8 6.8 5.4c2 1.2 3.6 2.8 4.9 4.7.1.3.3.5.4.8h14.6c3.3-1.7 6.3-3.9 9-6.3z"/>
  <linearGradient id="SVGID_3_" x1="1432.07" x2="1432.07" y1="311.043" y2="892.689" gradientTransform="matrix(1 0 0 -1 -88.27 735.32)" gradientUnits="userSpaceOnUse">
    <stop offset="0" stop-color="gray" stop-opacity=".25"/>
    <stop offset=".54" stop-color="gray" stop-opacity=".12"/>
    <stop offset="1" stop-color="gray" stop-opacity=".1"/>
  </linearGradient>
  <path fill="url(#SVGID_3_)" d="M1436.6-49.6c-13.1-.3-24.7-9.6-31.3-20.8-1.7-2.7-2.8-5.7-3.2-8.9 0-.7.2-1.4.4-2.1.4-1.1.8-2.1 1-3.3.1-.4.1-.9 0-1.3v-.1c.3-2.4-1.1-4.8-2.9-6.4s-4-2.9-5.8-4.5c-5.6-5-7.3-12.9-7.5-20.5v-.4c.1-3.2.3-6.5.3-9.7 0-1.8 0-3.7-.2-5.5-.5-4.6-2.3-9.2-5.9-12.2-9.4-7.6-25.2.3-34.9-6.9-2.4-1.8-4.3-4.4-7.1-5-2.2-.5-4.4.2-6.5.9-7.2 2.4-15.1 5.5-17.9 12.4-1.6 4-1.2 8.5-2.6 12.5-1 2.7-2.8 5-4.1 7.6-1.1 1.9-1.6 4.1-1.5 6.3-.1 1.1.1 2.3.5 3.4.5 1.3 1.3 2.4 2.3 3.3-.4.8-.8 1.5-1.4 2.2-1.8 2.2-4.6 3.8-6.5 6-3.5 4.1-3.4 9.6-1.7 14.4 1.7 4.8 4.9 9.2 7 13.8.9 2 1.7 4.3.7 6.3-.7 1.4-2.1 2.5-3.2 3.7-1.6 1.8-2.6 4-2.9 6.4-21.4 4.9-21.4 22.1-21.4 22.1l-11.6 29.1s-1.8 4.9-4 11.4L1251 2.2l9.5 15.9c-1.8 6.5-3.1 12.5-2.7 15.5 0 0-4.3 20 3.3 23.5l16.7 7.5c.7.4 1.5.8 2.3 1l.7.3c.5.2 1.1.2 1.6 0H1282.7c.3 0 .7 0 1-.1.4-.2.7-.5.8-.9v-.1l5-1.5 4.2 5c1.9 1.3 3.8 2.5 5.6 3.6l-6.5 65.2s-1.1 86.7-4.3 106.4c-1.2 7.3-1.2 12.3-.8 15.7l-.1.2c.8 5.6 2.8 6.7 2.8 6.7v-.1l.1.1c1-2.5 2.1-5 3.4-7.3v1.4c-.1 7.4-.3 17.7-1 24.3-1.3 11.4 3.3 49.1 3.3 49.1l1.6 34.3c.3 5.8-1.1 11.6-3.9 16.7-3.8 6.8-8.7 16.5-9 20.8v.7l-8.4 9.7s-3.2 4.9 4 6.9c3.9 1.1 10.6 0 15.9-1.3 4.8-1.1 8.3-5.4 8.3-10.3 1.4-4.7 3.7-9.1 6.8-12.9l1.3 7.9 9 2.2 1.2-21.6c.5-1.2.7-2.5.6-3.8 1.8-15.4-4.2-14-4.2-14 .2.1.3.3.3.5-.1-.2-.2-.3-.3-.5-3.7-7.2-1.9-19-1.9-19s4.7-34.3 6.4-43.3c1.2-6.4.7-27.3.3-39.1v-1.4c13.9-.2 31-.7 43-1.8v1.4l-2.2 81c-.1 5.2-1.2 10.3-3.1 15.1 0 .1-.1.2-.1.3-2.7 6.8-4.2 13.9-4.5 21.2l-1 25.7v.7c-1.8.7-4.6 2.7-4.7 8.5-.1 8.5 14.8 5.6 14.8 5.6 14.9 0 15-15.5 15-15.5s.5-14.2 1.2-23.7-2.2-7.4-2.2-7.4l-.2 27v.2-23.7l.2-3.4V376.5l1.8-27.9s13.7-46.5 15.8-55.4c1.5-6.3.9-25.4.4-36 0-.5 0-1-.1-1.4 4.2-.4 8-.4 9.5-.4h.7s-.7-74.7-2.5-102.9-4.6-53.9-11.7-61.6C1390 86.2 1384 71.8 1380 61c8.5 3.7 17.3 6.5 26.3 8.6 22.5 4.7 19.4-14.8 19.4-14.8l-2.3-36.9h.2c-.1-9.7-.9-19.3-2.5-28.8-1.2-7.3-3-14.9-5.8-21 2.4-.9 4.8-2 7.2-3 6.1-2.7 13-6.5 13.9-13.1h-.3c.4-.7.4-1.2.5-1.6zM1297.4 3.7c.1 3.8-.1 10.4-.3 17.7l-7.1-9.5 7.2-11.6.2 3.4zm98.5 33.7l-11.9-3.8c2.1-3.3 4.6-6.3 7.3-9.1l1-1-.4.1.6-.5.3-.1-.5.5.7-.1c.7 3 2.1 5.8 4 8.1 4.3 4.7-1.1 5.9-1.1 5.9z"/>
  <path fill="#A27772" d="M1323.7 380.2l-1.4 26.3-8.8-2.2-1.9-11z"/>
  <path d="M1323.7 380.2l-1.4 26.3-8.8-2.2-1.9-11z" opacity=".1"/>
  <path fill="#CC818C" d="M1356.2 410l13.5 2.8 10-8.9v-25l.2-3.4V374.7l1.8-27.7s13.5-46.2 15.6-55c1.5-6.3.9-25.3.4-35.7-.2-4.3-.4-7.2-.4-7.2l-29.8-7.2-.6 23-2.2 80.4c-.1 5.1-1.2 10.2-3.1 15l-.1.3c-2.6 6.7-4.1 13.9-4.3 21.1l-1 25.5v2.8z"/>
  <path d="M1380 374.8v.7-.7zM1356.2 410l13.5 2.8 10-8.9v-2.1c-.1 1-.6 1.8-1.4 2.3l-.1.1c-4.7 2.5-9.9 3.5-15.2 3l-5.3-.5c-.5.1-.9.2-1.4.3v.7l-.1 2.3z" opacity=".1"/>
  <path fill="#1E2022" d="M1378.2 404.9c1-.6 1.6-1.6 1.6-2.6l.2-26.9s2.9-2.1 2.2 7.4c-.7 9.5-1.2 23.5-1.2 23.5s-.1 15.4-14.8 15.4c0 0-14.7 2.8-14.6-5.6.1-8.4 6.1-8.7 6.1-8.7l5.3.5c5.3.5 10.6-.6 15.2-3z"/>
  <path fill="#CC818C" d="M1285.8 404.3c.3 6.1 18.2 2.6 18.2 2.6l12-23.3s10-7.7 5-14.5c-.3-.4-.5-.8-.7-1.2v-.1c-.1-.2-.2-.4-.3-.5-3.6-7.1-1.8-18.8-1.8-18.8s4.7-34 6.3-43c1.2-6.3.7-27.1.3-38.8-.2-4.8-.3-8.1-.3-8.1l-29.6-7.9v8.8c-.1 7.3-.3 17.5-1 24.2-1.3 11.3 3.3 48.7 3.3 48.7l1.6 34.1c.2 5.8-1.1 11.5-3.9 16.5-3.7 6.8-8.6 16.4-8.9 20.6-.2.2-.2.5-.2.7z"/>
  <path d="M1285.8 404.3c.3 6.1 18.2 2.6 18.2 2.6l12-23.3s10-7.7 5-14.5c-.3-.4-.5-.8-.7-1.2-.2 3.5-4 12.3-4 12.3s-9.9 19.8-13 24.4c-3.1 4.6-16.8-.8-17.4-1 0 .2-.1.5-.1.7z" opacity=".1"/>
  <path fill="#1E2022" d="M1319.9 367.3s5.9-1.4 4.1 13.9c.1 3.5-1.6 6.9-4.7 8.7-4.2 2.6-10.7 8.3-13.9 19.3 0 4.9-3.4 9.2-8.1 10.3-5.3 1.2-11.9 2.3-15.7 1.3-7.1-2-4-6.9-4-6.9l8.2-9.7s14.2 5.6 17.4 1c3.2-4.6 13-24.4 13-24.4s5.5-12.2 3.7-13.5z"/>
  <path d="M1367.7 244.7l-.6 23c8-.8 13.6-1.8 14.6-3.4 2.1-3.3 9.7-4.6 16.2-5.2-.2-4.3-.4-7.2-.4-7.2l-29.8-7.2zM1294.8 262.3c.8-1.6 1.9-2.9 3.3-3.9 3.2-1.8 2.8 11.2 2.8 11.2s10.5.1 23.8-.1c-.2-4.8-.3-8.1-.3-8.1l-29.6-7.9v8.8z" opacity=".1"/>
  <path fill="#2D1582" d="M1291.4 265.3s3.5-9.5 6.6-11.2 2.8 11.2 2.8 11.2 76.9.7 80.8-5.3 26.2-5.6 26.2-5.6-.7-74.2-2.5-102.1c-1.8-27.9-4.5-53.5-11.5-61.2-4.5-5-11-21.1-14.9-31.8-2.2-5.9-3.6-10.1-3.6-10.1l-73.4 4.2-.6 5.9-7.8 78s-1 86-4.2 105.6c-3.2 19.6 2.1 22.4 2.1 22.4z"/>
  <g opacity=".1">
    <path d="M1375.7 260.1c3.8-5.9 26.2-5.6 26.2-5.6s-.7-74.2-2.5-102.1-4.4-53.5-11.4-61.2c-4.5-5-11-21.1-14.9-31.8-1.8-4.9-3.1-8.7-3.5-9.8l5.7-.3s1.4 4.3 3.6 10.1c4 10.7 10.4 26.9 14.9 31.8 7 7.7 9.8 33.2 11.5 61.2 1.7 28 2.4 102.1 2.4 102.1s-22.4-.4-26.2 5.6c-3.3 5.1-59.9 5.3-76.3 5.3 21-.1 67.5-.7 70.5-5.3zM1292.1 254.1c1.4-.8 2.1 1.4 2.5 4-1.3 2.3-2.4 4.7-3.3 7.2 0 0-2-1.1-2.8-6.6 1.1-2 2.4-3.9 3.6-4.6z"/>
  </g>
  <path fill="#1E2022" d="M1314.1-130.2c-5.1 6.9.1 16.8-5.4 23.5-1.8 2.2-4.6 3.8-6.5 6-3.5 4.1-3.3 9.6-1.6 14.3s4.8 9.1 6.9 13.7c.9 2 1.7 4.3.7 6.3-.7 1.4-2 2.4-3.1 3.6-3.5 3.9-3.6 9.4-1.7 14s5.5 8.6 9 12.5c1.4 1.5 3.2 3.2 5.5 3.2 1.2-.1 2.4-.5 3.5-1.1 8.3-4.4 14.6-11.8 17.6-20.6 2.5-8.4 2-17.3-1.5-25.4-3-7.1-7.9-13.9-7.9-21.3 0-5.9 3-11.6 3.6-17.5.7-7.2-3.6-18.6-12.3-21.7.5 4.6-4.2 7-6.8 10.5z"/>
  <path d="M1314.1-130.2c-5.1 6.9.1 16.8-5.4 23.5-1.8 2.2-4.6 3.8-6.5 6-3.5 4.1-3.3 9.6-1.6 14.3s4.8 9.1 6.9 13.7c.9 2 1.7 4.3.7 6.3-.7 1.4-2 2.4-3.1 3.6-3.5 3.9-3.6 9.4-1.7 14s5.5 8.6 9 12.5c1.4 1.5 3.2 3.2 5.5 3.2 1.2-.1 2.4-.5 3.5-1.1 8.3-4.4 14.6-11.8 17.6-20.6 2.5-8.4 2-17.3-1.5-25.4-3-7.1-7.9-13.9-7.9-21.3 0-5.9 3-11.6 3.6-17.5.7-7.2-3.6-18.6-12.3-21.7.5 4.6-4.2 7-6.8 10.5zM1370.5 121.9c-10.2.5-19.8 4.9-28.7 9.9-8.9 5-17.5 10.6-27.1 14.1M1364.2 145.9c-10.1 1-19.5 5.5-26.4 12.8-2.5 2.6-4.6 5.6-7.2 8.1-4 3.8-8.8 6.6-14.2 8M1366.3 164.1c-8.1 2.3-15.5 6.7-21.3 12.8-1.6 1.7-3 3.5-4.5 5.2-8.4 9-20.3 13.8-31.8 18.4" opacity=".1"/>
  <path fill="#CC818C" d="M1365.4-89c.2 8.1.9 16.2 2.1 24.3.9 5.7 2.3 10.9 4.2 13.1 5.6 6.6-27.3 15.6-27.3 15.6L1325-51s15.4-14.2 8.2-28c-7.2-13.8 32.2-10 32.2-10z"/>
  <path d="M1301.3 59.3h77.7c-2.2-5.9-3.6-10.1-3.6-10.1l-73.4 4.2-.7 5.9z" opacity=".1"/>
  <path fill="#DE4437" d="M1296.3 57.9h83c-2.3-8.3 0-16.1 3.3-22 2.3-4.2 5.3-8 8.7-11.3l.6-.5 29-6.4 1.6-.3s.2-52.7-18.4-59.9c-18.6-7.2-29.8-17-29.8-17l-25.6 7.9-18.9-9.5c-6.1 6.5-22.2 4-22.2 4-26.3 3-26.3 22.9-26.3 22.9s15.4 35.9 16.6 35.9-1.6 56.2-1.6 56.2z"/>
  <path d="M1325 24.4s-16.9-3.8-22.7-10.3M1410.3 4.8l-19.6 16.1c.1 1.3.4 2.5.7 3.8l.6-.5 29-6.4-10.7-13zM1357.2 52.3s4.3 2.4 10.9 5.6h11.3c-2.3-8.3 0-16.1 3.3-22l-19.9-6.4c6.7 6.3-5.6 22.8-5.6 22.8z" opacity=".1"/>
  <path fill="#DE4437" d="M1292.8-40.7l-11.7 6.3-11.4 28.9s-11.9 31.7-10.7 40.1c0 0-4.2 19.8 3.3 23.3l19.5 8.8c.9.4 2 0 2.4-.9.2-.5.2-1.1-.1-1.6-2.8-5.3-5.8-13.5-1-18l-5.6-11.6 20.3-33.1 6.8-11.4-11.8-30.8z"/>
  <path d="M1318.7 17.8c1 4.1 4.4 10.5 15.7 12.8l12.4 10.1 13.2 6 5.4 2.4 2.3-16.4-5.2-2.8-6-3.3s-13.6-24.6-35.1-14.2c-2.1 1-3.2 3.2-2.7 5.4z" opacity=".1"/>
  <path fill="#CC818C" d="M1319.4 16.4c1 4.1 4.4 10.5 15.7 12.8l12.4 10.1 13.2 6 5.4 2.4 2.3-16.4-5.2-2.8-6-3.3S1343.6.6 1322.1 11c-2.1 1-3.2 3.2-2.7 5.4z"/>
  <circle cx="1343.7" cy="-97.7" r="30.1" opacity=".1"/>
  <circle cx="1343.7" cy="-98.4" r="30.1" fill="#CC818C"/>
  <path d="M1362.3-34.1l-9-17.6s13.2-5.3 14.2-11.5 12.7 7.3 10.1 11.7-15.3 17.4-15.3 17.4z" opacity=".1"/>
  <path fill="#DE4437" d="M1362.3-35.5l-9-17.6s13.2-5.3 14.2-11.5 12.7 7.3 10.1 11.7-15.3 17.4-15.3 17.4z"/>
  <path fill="#F6F8FB" d="M1288.3 9.9l50 67.2s-18.4 10-43.8-7.9l-11-13-31.3-52.7 36.1 6.4z"/>
  <path fill="#CC818C" d="M1278.5 46.4l4.5-.1s27.8-27 34.6-13.3-17.3 26.4-17.3 26.4l-7.3 4-9.6 2.8-6.1-8.2 1.2-11.6z"/>
  <path d="M1285.2 61c.4 1.5.8 3.3.1 4.7-.2.4-.5.7-.8.9-.3.1-.7.2-1 .1-2.4-.2-4.6-1.3-6.3-3.1-1.6-1.8-3-3.8-4.1-5.9-1.2-2.1-2.5-4.5-2.1-7 .5-2.7 2.9-4.5 5.2-6 4.6-3 4.7.5 5.8 4.4l3.2 11.9z" opacity=".1"/>
  <path fill="#DE4437" d="M1284.5 61c.4 1.5.8 3.3.1 4.7-.2.4-.5.7-.8.9-.3.1-.7.2-1 .1-2.4-.2-4.6-1.3-6.3-3.1-1.6-1.8-3-3.8-4.1-5.9-1.2-2.1-2.5-4.5-2.1-7 .5-2.7 2.9-4.5 5.2-6 4.6-3 4.7.5 5.8 4.4l3.2 11.9z"/>
  <path d="M1297.7 1.5l2.3-3.9-2 7.3zM1360.7 45.4l5.4 2.4 2.3-16.4-5.2-2.8c3.5 4 .4 11.5-2.5 16.8zM1382.2 26.3s-17.3 1-24.7-3.7" opacity=".1"/>
  <g opacity=".1">
    <path d="M1380.1 37.3c2.3-4.2 5.3-8 8.7-11.3.8-.5 1.7-1 2.6-1.4l27-5.5 1.6-.3s.2-52.7-18.4-59.9c-10.5-4-20.3-9.5-29.1-16.4l2-.6s11.2 9.8 29.8 17 18.4 59.9 18.4 59.9h-2.8l-27.6 5.3-1.6 1.5c-3.5 3.5-6.4 7.4-8.8 11.7-3.6 6.8-4.5 14.7-2.3 22.1h-2.9c-2.3-8.4.1-16.1 3.4-22.1zM1306.4-55.7c.5-.1.9-.1 1.3-.2 1.9.3 3.8.4 5.7.5-2.3.1-4.7 0-7-.3zM1346-50.3l-17.1-8.6c.4-.3.7-.6 1-.9l17.8 9-1.7.5z"/>
  </g>
  <path fill="#DE4437" d="M1411 3.4l11.4 14 2.3 38s3 19.4-19.1 14.7c-22.1-4.7-47.8-19.1-47.8-19.1s12.4-16.6 5.6-22.9l31.7 10.3s5.4-1.2 1.2-5.8-4.9-13.1-4.9-13.1L1411 3.4z"/>
  <path d="M1416.2 43.5l6.3 7.2c-3.3-1-5.8-3.8-6.3-7.2zM1405.4 42.3l9.8 12.6-4.9 1.2zM1307.8-112.2c-1.1-2.6-.3-5.7 1-8.2 1.3-2.5 3.1-4.8 4-7.5 1.5-4 1-8.5 2.6-12.4 2.8-6.9 10.6-10 17.7-12.3 2.1-.7 4.3-1.4 6.4-.9 2.8.7 4.7 3.3 7 5 9.6 7.1 25.2-.7 34.4 6.8 3.5 2.9 5.3 7.5 5.8 12.1s0 9.1 0 13.7c-.2 8 1.3 16.8 7.3 22.1 1.8 1.6 3.9 2.8 5.7 4.5 1.8 1.7 3.2 4 2.8 6.4-.2 1.1-.6 2.2-1 3.2-1.2 4.2.6 8.6 2.8 12.4 6.5 11.2 17.9 20.4 30.8 20.7-.9 6.5-7.7 10.3-13.7 13-7.7 3.4-15.7 6.8-24.1 6.3-8.4-.5-17.1-5.8-18.6-14-.5-2.8-.4-6.3-2.9-7.8-1.5-.9-3.4-.7-5-1.4-2.3-1-3.5-3.5-4.2-5.9-1.6-4.9-2.4-10.1-2.5-15.2-.1-6.1.7-12.8-2.8-17.9-3.2-4.7-8.9-7-12.7-11.3-3.4-4-7.2-8.8-12.8-9.5-7.4-1.2-23.4 9.3-28-1.9z" opacity=".1"/>
  <path fill="#1E2022" d="M1307.8-113.6c-1.1-2.6-.3-5.7 1-8.2 1.3-2.5 3.1-4.8 4-7.5 1.5-4 1-8.5 2.6-12.4 2.8-6.9 10.6-10 17.7-12.3 2.1-.7 4.3-1.4 6.4-.9 2.8.7 4.7 3.3 7 5 9.6 7.1 25.2-.7 34.4 6.8 3.5 2.9 5.3 7.5 5.8 12.1s0 9.1 0 13.7c-.2 8 1.3 16.8 7.3 22.1 1.8 1.6 3.9 2.8 5.7 4.5 1.8 1.7 3.2 4 2.8 6.4-.3 1.1-.6 2.2-1 3.2-1.2 4.2.6 8.6 2.8 12.4 6.5 11.2 17.9 20.4 30.8 20.7-.9 6.5-7.7 10.3-13.7 13-7.7 3.4-15.7 6.8-24.1 6.3-8.4-.5-17.1-5.8-18.6-14-.5-2.8-.4-6.3-2.9-7.8-1.5-.9-3.4-.7-5-1.4-2.3-1-3.5-3.5-4.2-5.9-1.6-4.9-2.4-10.1-2.5-15.2-.1-6.1.7-12.8-2.8-17.9-3.2-4.7-8.9-7-12.7-11.3-3.4-4-7.2-8.8-12.8-9.5-7.4-1.2-23.4 9.3-28-1.9z"/>
  <path d="M1329.1-36.3l17.2-14s-11.8-6.4-13.2-11.9-10.8 2.6-9.9 7.5 5.9 18.4 5.9 18.4z" opacity=".1"/>
  <path fill="#DE4437" d="M1329.8-38.4l17.2-14s-11.8-6.4-13.2-11.9c-1.4-5.5-10.8 2.6-9.9 7.5.9 4.9 5.9 18.4 5.9 18.4z"/>
  <circle cx="1347.7" cy="-40.7" r="1.4" opacity=".1"/>
  <circle cx="1347.7" cy="-33.1" r="1.4" opacity=".1"/>
  <circle cx="1347.7" cy="-25.5" r="1.4" opacity=".1"/>
  <g opacity=".1">
    <path d="M1314.7-133c1.4-3.8 1.1-8 2.3-11.7-.6.8-1.1 1.7-1.5 2.7-1.6 3.9-1.1 8.4-2.6 12.4 0 .1-.1.1-.1.2.8-1.2 1.4-2.4 1.9-3.6zM1423.5-38.8c-7.7 3.4-15.7 6.8-24.1 6.3s-17.1-5.8-18.6-14c-.5-2.8-.4-6.3-2.9-7.8-1.5-.9-3.4-.7-5-1.4-2.3-1-3.5-3.5-4.2-5.9-1.6-4.9-2.4-10.1-2.5-15.3-.1-6.1.7-12.8-2.8-17.9-3.2-4.7-8.9-7-12.7-11.3-3.4-4-7.2-8.8-12.8-9.5-7.7-1-23.8 9.5-28.3-1.7-.7-2.1-.6-4.4.3-6.5-.3.6-.7 1.1-.9 1.7-1.3 2.5-2.1 5.6-1 8.2 4.6 11.2 20.7.7 28.4 1.7 5.6.8 9.3 5.6 12.8 9.5 3.7 4.3 9.4 6.7 12.6 11.4 3.5 5 2.7 11.7 2.8 17.9.1 5.2.9 10.3 2.5 15.3.8 2.4 1.9 5 4.2 5.9 1.6.7 3.5.5 5 1.4 2.5 1.5 2.4 5 2.9 7.8 1.5 8.3 10.2 13.6 18.6 14.1 8.4.5 16.5-2.9 24.1-6.3 5.5-2.5 11.7-5.9 13.3-11.4-2.7 3.4-7.4 5.9-11.7 7.8z"/>
  </g>
</svg>