<svg xmlns="http://www.w3.org/2000/svg" id="Layer_1" viewBox="66 -30.5 204 124.5">
  <style>
    .st2{fill:#377dff}.st3{fill:#fff}.st4{opacity:.35;fill:#377dff;enable-background:new}.st6{fill:#ffc107}.st11,.st13,.st7{fill:none;stroke:#de4437;stroke-width:1.5;stroke-miterlimit:10}.st11,.st13{stroke:#377dff}.st13{stroke:#fff}
  </style>
  <g id="getAnswered_304_">
    <g id="getAnswered_61_">
      <linearGradient id="SVGID_1_" x1="134.665" x2="104.085" y1="26.935" y2="79.9" gradientTransform="matrix(1.1458 -.00131 -.3345 -1.1635 -8.816 73.61)" gradientUnits="userSpaceOnUse">
        <stop offset="0" stop-color="#fff"/>
        <stop offset="1" stop-color="#196eff"/>
      </linearGradient>
      <path fill="url(#SVGID_1_)" d="M149.1 24.4L93.5-26.4 71-1.9 126.7 49z" opacity=".35"/>
      <path id="getAnswered_83_" fill="#fff" stroke="#377dff" stroke-miterlimit="10" stroke-width="1.5" d="M76.9-28.6c5.1-2 11-1.3 15.6 2.3 6 4.7 7.8 12.8 4.7 19.4l5.7 8.8c.1.2-.1.5-.3.4l-9.9-3.5c-5.6 4.5-13.8 4.7-19.8.1-6.6-5.2-8.1-14.6-3.5-21.5"/>
      <path id="getAnswered_77_" d="M71.6-13.8c0 6.2 5 11.3 11.3 11.3 6.2 0 11.3-5 11.3-11.3S89-25 82.8-25s-11.2 5-11.2 11.2z" class="st2"/>
      <g id="getAnswered_107_">
        <path id="getAnswered_30_" d="M84.4-11.4h-2.7v-1.3c0-.5.1-.9.2-1.1s.4-.6.8-1l1.2-1.2c.2-.2.3-.5.3-.8s-.1-.6-.3-.8c-.2-.2-.4-.3-.7-.3-.3 0-.6.1-.8.4-.2.3-.3.6-.4 1.1h-2.8c.1-1.2.6-2.1 1.3-2.8.7-.7 1.7-1 2.8-1 1.1 0 2 .3 2.7.9.7.6 1 1.4 1 2.5 0 .5-.1.8-.2 1.1-.1.2-.2.4-.2.5s-.2.3-.3.5c-.2.2-.3.3-.3.4l-.8.8c-.3.2-.4.5-.5.6-.1.2-.1.4-.1.7v.8h-.2zM82-8c-.3-.3-.5-.7-.5-1.1s.2-.8.5-1.1c.3-.3.7-.5 1.1-.5s.8.2 1.1.5c.3.3.5.7.5 1.1s-.2.8-.5 1.1c-.3.3-.7.5-1.1.5-.4-.1-.8-.2-1.1-.5z" class="st3"/>
      </g>
    </g>
    <path id="getAnswered_2_" d="M188.7 66.3V.9h-3.5c-.7 0-1.4.7-1.4 1.6v66.7H188.4c.2 0 .3-1.3.3-2.9z" class="st4"/>
    <linearGradient id="SVGID_2_" x1="236.943" x2="237.149" y1="-6.811" y2="54.866" gradientTransform="matrix(.8901 -.4146 -.5277 -1.1328 28.545 173.17)" gradientUnits="userSpaceOnUse">
      <stop offset="0" stop-color="#fff" stop-opacity="0"/>
      <stop offset="1" stop-color="#196eff"/>
    </linearGradient>
    <path fill="url(#SVGID_2_)" d="M218.4 94l49.3-23-32.5-69.6L186 24.3z" opacity=".35"/>
    <g id="getAnswered_139_">
      <path id="getAnswered_193_" d="M235.4 69h-49.5V17.9h49.5z" class="st3"/>
      <path id="getAnswered_183_" d="M235.4 17.9h-49.5V2.7c0-1 .8-1.8 1.8-1.8h46.7c.5 0 1 .4 1 1v16z" class="st2"/>
      <path id="getAnswered_182_" d="M197.7 9.3c0 1.6-1.3 2.9-2.9 2.9s-2.9-1.3-2.9-2.9c0-1.6 1.3-2.9 2.9-2.9 1.6 0 2.9 1.3 2.9 2.9z" class="st6"/>
      <g id="getAnswered_178_">
        <path id="getAnswered_179_" d="M194.6 64.8h-.4v-2.7h.4v2.7zm0-5.3h-.4v-2.7h.4v2.7zm0-5.3h-.4v-2.7h.4v2.7zm0-5.4h-.4v-2.7h.4v2.7zm0-5.3h-.4v-2.7h.4v2.7zm0-5.3h-.4v-2.7h.4v2.7zm0-5.3h-.4v-2.7h.4v2.7zm0-5.4h-.4v-2.7h.4v2.7z" class="st6"/>
      </g>
      <path id="getAnswered_177_" d="M196 58c0 .9-.7 1.6-1.6 1.6-.9 0-1.6-.7-1.6-1.6s.7-1.6 1.6-1.6c.9-.1 1.6.7 1.6 1.6z" class="st6"/>
      <path id="getAnswered_151_" d="M196 42.1c0 .9-.7 1.6-1.6 1.6-.9 0-1.6-.7-1.6-1.6s.7-1.6 1.6-1.6c.9-.1 1.6.7 1.6 1.6z" class="st6"/>
      <path id="getAnswered_150_" d="M196 26.2c0 .9-.7 1.6-1.6 1.6-.9 0-1.6-.7-1.6-1.6 0-.9.7-1.6 1.6-1.6.9-.1 1.6.7 1.6 1.6z" class="st6"/>
      <path id="getAnswered_142_" d="M199.2 26.2H230" class="st7"/>
      <path id="getAnswered_157_" d="M199.2 40.9H230" class="st7"/>
      <path id="getAnswered_161_" d="M199.2 43.7H230" class="st7"/>
      <path id="getAnswered_162_" d="M199.2 46.6H230" class="st7"/>
      <path id="getAnswered_164_" d="M199.2 56.3h30.9" class="st7"/>
      <path id="getAnswered_176_" d="M199.2 59H230" class="st7"/>
      <path id="getAnswered_181_" d="M199.1 61.7h21.3" class="st7"/>
      <path id="getAnswered_163_" d="M199.2 49.4h11.4" class="st7"/>
      <path id="getAnswered_141_" d="M199.2 29.1H230" class="st7"/>
      <path id="getAnswered_144_" d="M199.2 32H230" class="st7"/>
      <path id="getAnswered_148_" d="M199.2 34.9h11.4" class="st7"/>
    </g>
    <path id="getAnswered_4_" d="M211.7 41.8h.8V21.1c0-1.2-.4-2.3-1.1-3.2-.2-.4-.5-.7-.9-.9-.9-.7-2-1.1-3.2-1.1H180v78.2H186.2v-.8h-4.7V80.8H205V80h4.5c1.2 0 2.2-1 2.2-2.2v-9.9" class="st4"/>
    <g id="getAnswered_18_">
      <linearGradient id="getAnswered_5_" x1="164.85" x2="164.85" y1="47" y2="-6.1" gradientTransform="matrix(1 0 0 -1 0 63)" gradientUnits="userSpaceOnUse">
        <stop offset="0" stop-color="#2d1582"/>
        <stop offset="1" stop-color="#19a0ff"/>
      </linearGradient>
      <path id="getAnswered_701_" fill="url(#getAnswered_5_)" d="M209.5 69.1h-89.3V18.2c0-1.2 1-2.2 2.2-2.2h84.9c1.2 0 2.2 1 2.2 2.2v50.9z"/>
      <path id="getAnswered_697_" d="M125.1 21.2h79.7v41.9h-79.7z" class="st3"/>
      <path id="getAnswered_684_" fill="#fff" d="M151.4 77.1h26.9V93h-26.9z" opacity=".5"/>
      <path id="getAnswered_683_" fill="#19a0ff" d="M151.4 79.2h26.9v8h-26.9z" opacity=".5"/>
      <path id="getAnswered_682_" d="M151.4 77.1h26.9V93h-26.9z" class="st11"/>
      <path id="getAnswered_681_" d="M209.5 67.1h-89.3v9.8c0 1.2 1 2.2 2.2 2.2h84.8c1.2 0 2.2-1 2.2-2.2l.1-9.8z" class="st3"/>
      <path id="getAnswered_47_" fill="#00c9a7" d="M128.4 24.3h36.5v35.4h-36.5z"/>
      <path id="getAnswered_159_" d="M131.1 29.1h14.3" class="st13"/>
      <path id="getAnswered_44_" d="M131.1 35.4h31.6" class="st13"/>
      <path id="getAnswered_3_" d="M131.1 38.7h31.6" class="st13"/>
      <path id="getAnswered_42_" d="M131.1 41.9h27.2" class="st13"/>
      <path id="getAnswered_41_" d="M131.1 45.2h27.2" class="st13"/>
      <path id="getAnswered_1_" d="M131.1 48.4h27.2" class="st13"/>
      <path id="getAnswered_167_" d="M131.1 51.7h19.2" class="st13"/>
    </g>
    <path id="getAnswered_301_" d="M126.8 51.1h-9V78.4c0 1.1.9 2 2 2h9.5v.8h1.2V54.8c0-2-1.7-3.7-3.7-3.7z" class="st4"/>
    <g id="getAnswered_19_">
      <path id="getAnswered_35_" d="M94 93.8h33.7v-39c0-1.2-1-2.2-2.2-2.2H96.2c-1.2 0-2.2 1-2.2 2.2v39z" class="st3"/>
      <path id="getAnswered_34_" d="M101.2 52.6H97c-1.6 0-2.9 1.3-2.9 2.9v33.8" class="st11"/>
      <path id="getAnswered_33_" d="M108.9 52.6H104" class="st11"/>
      <path id="getAnswered_340_" d="M127.7 89.3V55.5c0-1.6-1.3-2.9-2.9-2.9h-14.7" class="st11"/>
      <path id="getAnswered_339_" d="M96.8 58.7h28.1v35H96.8z" class="st2"/>
      <path id="getAnswered_32_" d="M107.3 56.2h7.1" class="st11"/>
      <path id="getAnswered_27_" d="M129.6 93.8v-1.1c0-1.1-.9-2-2-2h-3c-.4-1.6-1-3.1-1.8-4.4l2.2-2.2c.8-.8.8-2 0-2.8l-1.6-1.6c-.8-.8-2-.8-2.8 0l-2.2 2.2c-1.3-.8-2.8-1.5-4.4-1.8v-3c0-1.1-.9-2-2-2h-2.3c-1.1 0-2 .9-2 2v3c-1.6.4-3 1-4.3 1.8l-2.1-2.2c-.8-.8-2-.8-2.8 0l-1.6 1.6c-.8.8-.8 2 0 2.8l2.1 2.2c-.8 1.3-1.5 2.8-1.8 4.4h-3c-1.1 0-2 .9-2 2v1.2h12.5c0-3.5 2.8-6.2 6.3-6.2s6.3 2.8 6.3 6.2l12.3-.1z" class="st3"/>
      <path id="getAnswered_20_" fill="none" stroke="#ffc107" stroke-miterlimit="10" stroke-width="1.5" d="M129.6 93.8v-1.1c0-1.1-.9-2-2-2h-3c-.4-1.6-1-3.1-1.8-4.4l2.2-2.2c.8-.8.8-2 0-2.8l-1.6-1.6c-.8-.8-2-.8-2.8 0l-2.2 2.2c-1.3-.8-2.8-1.5-4.4-1.8v-3c0-1.1-.9-2-2-2h-2.3c-1.1 0-2 .9-2 2v3c-1.6.4-3 1-4.3 1.8l-2.1-2.2c-.8-.8-2-.8-2.8 0l-1.6 1.6c-.8.8-.8 2 0 2.8l2.1 2.2c-.8 1.3-1.5 2.8-1.8 4.4h-3c-1.1 0-2 .9-2 2v1.2m12.4-.1c0-3.5 2.8-6.2 6.3-6.2s6.3 2.8 6.3 6.2"/>
    </g>
    <g id="getAnswered_37_">
      <path id="getAnswered_767_" d="M196.7 72.9v5.2" class="st11"/>
      <path id="getAnswered_764_" d="M196.7 48.5c-6.9 0-12.5 5.6-12.5 12.5s5.6 12.5 12.5 12.5 12.5-5.6 12.5-12.5-5.6-12.5-12.5-12.5zm0 22c-5.2 0-9.5-4.3-9.5-9.5s4.3-9.5 9.5-9.5 9.5 4.3 9.5 9.5c0 5.3-4.3 9.5-9.5 9.5z" class="st3"/>
      <path id="getAnswered_114_" d="M203.7 50.7c-2-1.4-4.4-2.2-7-2.2-6.9 0-12.5 5.6-12.5 12.5s5.6 12.5 12.5 12.5 12.5-5.6 12.5-12.5" class="st11"/>
      <path id="getAnswered_113_" d="M208.9 58.2c-.5-2.2-1.6-4.2-3.1-5.8" class="st11"/>
      <path id="getAnswered_762_" d="M195.5 53.1c4.7 0 8.6 3.8 8.6 8.6" class="st11"/>
      <path id="getAnswered_761_" d="M194.2 76.5v15.1c0 .8.6 1.4 1.4 1.4h2c.8 0 1.4-.6 1.4-1.4V76.5h-4.8z" class="st3"/>
      <path id="getAnswered_40_" d="M194.2 76.5v15.1c0 .8.6 1.4 1.4 1.4h2c.8 0 1.4-.6 1.4-1.4V76.5h-4.8z" class="st11"/>
      <path id="getAnswered_758_" d="M194.1 80.1h5.2" class="st11"/>
      <path id="getAnswered_39_" d="M194.1 82.7h5.2" class="st11"/>
    </g>
  </g>
</svg>