<svg xmlns="http://www.w3.org/2000/svg" id="Layer_1" viewBox="52 -20.5 176 105.5">
  <style>
    .st1{fill:none;stroke:#377dff;stroke-width:1.5;stroke-miterlimit:10}.st2{fill:#fff}.st3,.st4,.st5,.st6{opacity:.3;fill:#19a0ff;enable-background:new}.st4,.st5,.st6{opacity:.1}.st5,.st6{opacity:.5}.st6{opacity:.4;fill:#377dff}.st8{fill:#19a0ff}.st9{fill:none;stroke:#fff;stroke-width:1.5;stroke-miterlimit:10}.st10,.st11,.st12,.st13,.st14{opacity:.6;fill:#fff;enable-background:new}.st11,.st12,.st13,.st14{opacity:.4}.st12,.st13,.st14{opacity:.3}.st13,.st14{opacity:.2}.st14{opacity:.1}
  </style>
  <path id="graphicDesign_558_" fill="#19a0ff" d="M172.5 58.9H79.3V5.4c0-1.1.9-2 2-2h89.2c1.1 0 2 .9 2 2v53.5z" opacity=".6"/>
  <path id="graphicDesign_556_" d="M86.6 3.4h6" class="st1"/>
  <path id="graphicDesign_68_" d="M79.3 50.4V5.2c0-1 .8-1.8 1.8-1.8h4.2" class="st1"/>
  <path id="graphicDesign_66_" d="M172.5 21.8v24.5" class="st1"/>
  <path id="graphicDesign_63_" d="M94.6 3.4h59.1" class="st1"/>
  <path id="graphicDesign_554_" d="M84.4 8.9h83.2v43.8H84.4z" class="st2"/>
  <path id="graphicDesign_553_" d="M145.8 8.9h21.8v43.8h-21.8z" class="st3"/>
  <path id="graphicDesign_552_" d="M146.9 28.5h19.6v12.1h-19.6z" class="st2"/>
  <path id="graphicDesign_551_" d="M84.4 8.9h5.2v43.8h-5.2z" class="st4"/>
  <path id="graphicDesign_547_" d="M84.4 8.9h83.2v5H84.4z" class="st4"/>
  <path id="graphicDesign_546_" d="M111.9 67.3H140v16.6h-28.1z" class="st2"/>
  <path id="graphicDesign_545_" d="M111.9 69H140v8.3h-28.1z" class="st5"/>
  <path id="graphicDesign_544_" d="M111.9 67.3H140v16.6h-28.1z" class="st1"/>
  <path id="graphicDesign_543_" d="M172.5 56.8H79.3v10.6c0 1.1.9 2 2 2h89.2c1.1 0 2-.9 2-2V56.8z" class="st2"/>
  <path id="graphicDesign_70_" d="M147.5 56.8h-42.2" class="st1"/>
  <path id="graphicDesign_69_" d="M105.3 69.4h37.2" class="st1"/>
  <path id="graphicDesign_541_" d="M106.4 84.2h39.4" class="st1"/>
  <path id="graphicDesign_540_" d="M86.2 19.2h1.5v1.5h-1.5z" class="st6"/>
  <path id="graphicDesign_539_" d="M146.9 18.5h1.5V20h-1.5z" class="st2"/>
  <path id="graphicDesign_538_" d="M148.9 18.5h1.5V20h-1.5z" class="st2"/>
  <path id="graphicDesign_537_" d="M151 18.5h1.5V20H151z" class="st2"/>
  <path id="graphicDesign_536_" d="M153 18.5h1.5V20H153z" class="st2"/>
  <path id="graphicDesign_535_" d="M155.1 18.5h1.5V20h-1.5z" class="st2"/>
  <path id="graphicDesign_534_" d="M157.1 18.5h1.5V20h-1.5z" class="st2"/>
  <path id="graphicDesign_533_" d="M159.2 18.5h1.5V20h-1.5z" class="st2"/>
  <path id="graphicDesign_532_" d="M161.2 18.5h1.5V20h-1.5z" class="st2"/>
  <path id="graphicDesign_531_" d="M163.3 18.5h1.5V20h-1.5z" class="st2"/>
  <path id="graphicDesign_530_" d="M165.3 18.5h1.5V20h-1.5z" class="st2"/>
  <g id="graphicDesign_519_">
    <path id="graphicDesign_529_" d="M146.9 20.7h1.5v1.5h-1.5z" class="st2"/>
    <path id="graphicDesign_528_" d="M148.9 20.7h1.5v1.5h-1.5z" class="st2"/>
    <path id="graphicDesign_527_" d="M151 20.7h1.5v1.5H151z" class="st2"/>
    <path id="graphicDesign_526_" d="M153 20.7h1.5v1.5H153z" class="st2"/>
    <path id="graphicDesign_525_" d="M155.1 20.7h1.5v1.5h-1.5z" class="st2"/>
    <path id="graphicDesign_524_" d="M157.1 20.7h1.5v1.5h-1.5z" class="st2"/>
    <path id="graphicDesign_523_" d="M159.2 20.7h1.5v1.5h-1.5z" class="st2"/>
    <path id="graphicDesign_522_" d="M161.2 20.7h1.5v1.5h-1.5z" class="st2"/>
    <path id="graphicDesign_521_" d="M163.3 20.7h1.5v1.5h-1.5z" class="st2"/>
    <path id="graphicDesign_520_" d="M165.3 20.7h1.5v1.5h-1.5z" class="st2"/>
  </g>
  <g id="graphicDesign_501_">
    <path id="graphicDesign_518_" d="M146.9 22.8h1.5v1.5h-1.5z" class="st2"/>
    <path id="graphicDesign_515_" d="M148.9 22.8h1.5v1.5h-1.5z" class="st2"/>
    <path id="graphicDesign_510_" d="M151 22.8h1.5v1.5H151z" class="st2"/>
    <path id="graphicDesign_508_" d="M153 22.8h1.5v1.5H153z" class="st2"/>
    <path id="graphicDesign_507_" d="M155.1 22.8h1.5v1.5h-1.5z" class="st2"/>
    <path id="graphicDesign_506_" d="M157.1 22.8h1.5v1.5h-1.5z" class="st2"/>
    <path id="graphicDesign_505_" d="M159.2 22.8h1.5v1.5h-1.5z" class="st2"/>
    <path id="graphicDesign_504_" d="M161.2 22.8h1.5v1.5h-1.5z" class="st2"/>
    <path id="graphicDesign_503_" d="M163.3 22.8h1.5v1.5h-1.5z" class="st2"/>
    <path id="graphicDesign_502_" d="M165.3 22.8h1.5v1.5h-1.5z" class="st2"/>
  </g>
  <path id="graphicDesign_500_" d="M146.9 24.9h1.5v1.5h-1.5z" class="st2"/>
  <path id="graphicDesign_499_" d="M148.9 24.9h1.5v1.5h-1.5z" class="st2"/>
  <path id="graphicDesign_498_" d="M151 24.9h1.5v1.5H151z" class="st2"/>
  <path id="graphicDesign_497_" d="M153 24.9h1.5v1.5H153z" class="st2"/>
  <path id="graphicDesign_496_" d="M155.1 24.9h1.5v1.5h-1.5z" class="st2"/>
  <path id="graphicDesign_495_" d="M88 10.6h3.2v1.5H88z" class="st6"/>
  <path id="graphicDesign_494_" d="M94.6 10.6h3.2v1.5h-3.2z" class="st6"/>
  <path id="graphicDesign_493_" d="M101.2 10.6h3.2v1.5h-3.2z" class="st6"/>
  <path id="graphicDesign_492_" d="M107.8 10.6h3.2v1.5h-3.2z" class="st6"/>
  <path id="graphicDesign_491_" d="M114.5 10.6h3.2v1.5h-3.2z" class="st6"/>
  <path id="graphicDesign_490_" d="M121.1 10.6h3.2v1.5h-3.2z" class="st6"/>
  <path id="graphicDesign_489_" d="M86.2 22.1h1.5v1.5h-1.5z" class="st6"/>
  <path id="graphicDesign_488_" d="M86.2 24.9h1.5v1.5h-1.5z" class="st6"/>
  <path id="graphicDesign_487_" d="M86.2 27.7h1.5v1.5h-1.5z" class="st6"/>
  <path id="graphicDesign_486_" d="M86.2 30.6h1.5v1.5h-1.5z" class="st6"/>
  <path id="graphicDesign_406_" d="M86.2 33.4h1.5v1.5h-1.5z" class="st6"/>
  <path id="graphicDesign_331_" d="M86.2 36.2h1.5v1.5h-1.5z" class="st6"/>
  <path id="graphicDesign_330_" d="M86.2 39.1h1.5v1.5h-1.5z" class="st6"/>
  <path id="graphicDesign_328_" d="M86.2 41.9h1.5v1.5h-1.5z" class="st6"/>
  <path id="graphicDesign_326_" d="M86.2 44.8h1.5v1.5h-1.5z" class="st6"/>
  <path id="graphicDesign_294_" d="M100 21.5h33.7v25.4H100z" class="st3"/>
  <path id="graphicDesign_662_" fill="#377dff" d="M113.4 46.9c.4 0 10.2-11.1 10.2-11.1l10.2 11.1h-20.4z"/>
  <path id="graphicDesign_656_" d="M100 46.9c.4 0 12-13.1 12-13.1l12 13.1h-24z" class="st8"/>
  <path id="graphicDesign_655_" d="M121.3 27.9c0 1.5-1.2 2.7-2.7 2.7s-2.7-1.2-2.7-2.7 1.2-2.7 2.7-2.7c1.5 0 2.7 1.2 2.7 2.7z" class="st2"/>
  <path id="graphicDesign_604_" d="M202.1 83.6h-50.3c-1.1 0-2-.9-2-2V50.1c0-1.1.9-2 2-2h50.3c1.1 0 2 .9 2 2v31.6c0 1-.9 1.9-2 1.9z" class="st2"/>
  <path id="graphicDesign_555_" d="M197.8 48.1h3.5c1.5 0 2.8 1.2 2.8 2.8v30c0 1.5-1.2 2.8-2.8 2.8h-48.7c-1.5 0-2.8-1.2-2.8-2.8v-30c0-1.5 1.2-2.8 2.8-2.8h45.2z" class="st1"/>
  <path id="graphicDesign_601_" d="M160.2 52.4h39.1v26.8h-39.1z" class="st8"/>
  <path id="graphicDesign_600_" d="M160.2 52.4h39.1v26.8h-39.1z" class="st1"/>
  <path id="graphicDesign_599_" d="M160.2 47.8v35.8" class="st1"/>
  <path id="graphicDesign_598_" d="M154.8 53v3.9" class="st1"/>
  <path id="graphicDesign_597_" d="M154.8 60.2v3.9" class="st1"/>
  <path id="graphicDesign_596_" d="M154.8 67.4v3.8" class="st1"/>
  <path id="graphicDesign_594_" d="M154.8 74.5v3.9" class="st1"/>
  <path id="graphicDesign_593_" d="M164.8 60.2v-4h3.5" class="st9"/>
  <path id="graphicDesign_591_" d="M194.8 71.2v4h-3.5" class="st9"/>
  <path id="graphicDesign_590_" d="M149.8 65.7h-3c-1.5 0-2.7 1.2-2.7 2.7v15.8" class="st1"/>
  <g id="graphicDesign_587_">
    <path id="graphicDesign_589_" d="M209.5 84.2h-1.9l-.8-4.1V41.3l1.7-3.5 1.7 3.5v38.8l-.7 4.1z" class="st5"/>
    <path id="graphicDesign_588_" d="M209.5 84.2h-1.9l-.8-4.1V41.3l1.4-3c.1-.2.4-.2.5 0l1.4 3v38.8l-.6 4.1z" class="st1"/>
  </g>
  <path id="graphicDesign_76_" d="M106.1 70.2V51.8H93.7v12.3L81.3 51.7l-2 1.9V67.2l2.3 2.2h23.7v.8z" class="st3"/>
  <path id="graphicDesign_693_" d="M66 72.9h31.1v10.9H66z" class="st2"/>
  <path id="graphicDesign_692_" d="M65.9 72.8h5.3v10.9h-5.3z" class="st10"/>
  <path id="graphicDesign_691_" d="M71.2 72.9h5.3v10.9h-5.3z" class="st11"/>
  <path id="graphicDesign_690_" d="M76.5 72.8h5.3v10.9h-5.3z" class="st12"/>
  <path id="graphicDesign_689_" d="M81.7 72.8H87v10.9h-5.3z" class="st13"/>
  <path id="graphicDesign_606_" d="M87 72.9h5.3v10.9H87z" class="st13"/>
  <path id="graphicDesign_605_" d="M66 72.9h31.1v10.9H66z" class="st1"/>
  <path id="graphicDesign_678_" d="M81 52h10.9v31.1H81z" class="st2" transform="rotate(-45.001 86.49 67.587)"/>
  <path id="graphicDesign_677_" d="M71.8 55.8h10.9v5.3H71.8z" class="st10" transform="rotate(-45.001 77.285 58.444)"/>
  <path id="graphicDesign_676_" d="M75.6 59.5h10.9v5.3H75.6z" class="st11" transform="rotate(-45.001 81.033 62.164)"/>
  <path id="graphicDesign_675_" d="M79.3 63.2h10.9v5.3H79.3z" class="st12" transform="rotate(-45.001 84.78 65.884)"/>
  <path id="graphicDesign_674_" d="M83 66.9h10.9v5.3H83z" class="st13" transform="rotate(-45.001 88.458 69.533)"/>
  <path id="graphicDesign_673_" d="M86.7 70.7h10.9V76H86.7z" class="st14" transform="rotate(-45.001 92.135 73.323)"/>
  <path id="graphicDesign_603_" d="M81 52h10.9v31.1H81z" class="st1" transform="rotate(-45.001 86.49 67.587)"/>
  <path id="graphicDesign_671_" d="M92.4 52.6h10.9v31.1H92.4z" class="st2"/>
  <path id="graphicDesign_670_" d="M92.4 52.5h10.9v5.3H92.4z" class="st10"/>
  <path id="graphicDesign_669_" d="M92.4 57.7h10.9V63H92.4z" class="st11"/>
  <path id="graphicDesign_668_" d="M92.4 63h10.9v5.3H92.4z" class="st12"/>
  <path id="graphicDesign_667_" d="M92.4 68.3h10.9v5.3H92.4z" class="st13" transform="rotate(4.516 97.836 70.912)"/>
  <path id="graphicDesign_666_" d="M92.4 73.5h10.9v5.3H92.4z" class="st14"/>
  <path id="graphicDesign_665_" d="M97.1 81.1c0 .4.3.8.8.8.4 0 .8-.3.8-.8 0-.4-.3-.8-.8-.8-.4 0-.8.4-.8.8z" class="st1"/>
  <path id="graphicDesign_649_" d="M92.4 52.6h10.9v31.1H92.4z" class="st1"/>
  <path id="graphicDesign_660_" d="M103 57.7H92.5" class="st1"/>
  <path id="graphicDesign_602_" d="M103 63H92.5" class="st1"/>
  <path id="graphicDesign_661_" d="M103 68.2H92.5" class="st1"/>
  <path id="graphicDesign_664_" d="M103 73.5H92.5" class="st1"/>
  <path id="graphicDesign_694_" d="M82.8 56.7l-7.4 7.4" class="st1"/>
  <path id="graphicDesign_586_" d="M86.8 60.2l-7.5 7.4" class="st1"/>
  <path id="graphicDesign_695_" d="M90.7 63.6l-7.5 7.5" class="st1"/>
  <path id="graphicDesign_696_" d="M92.3 69.5l-5.8 5.8" class="st1"/>
  <path id="graphicDesign_699_" d="M87 75.3v8.4" class="st1"/>
  <path id="graphicDesign_585_" d="M81.7 72.8v10.9" class="st1"/>
  <path id="graphicDesign_700_" d="M76.5 72.8v10.9" class="st1"/>
  <path id="graphicDesign_557_" d="M71.2 72.8v10.9" class="st1"/>
  <path id="graphicDesign_451_" d="M92.5 76.7L90.2 79" class="st1"/>
  <path id="graphicDesign_672_" d="M103 78.8H92.5" class="st1"/>
  <path id="graphicDesign_73_" d="M172.5 5.4c0-1.1-.9-2-2-2h-16.9c0 .4-.1.9-.1 1.3 0 3.2.9 6.3 2.5 9l-1.6 8.8 9.7-1.8c2.2 1 4.5 1.4 6.9 1.4.7 0 1.4-.1 2.1-.1v-.4h-.8V5.4h.2z" class="st3"/>
  <path id="graphicDesign_650_" d="M157 20.2l8.8-1.6c2.1.9 4.4 1.5 6.8 1.5 9.3 0 16.8-7.5 16.8-16.8s-7.5-16.8-16.8-16.8S155.8-6 155.8 3.3c0 3.3 1 6.3 2.6 8.9l-1.4 8z" class="st8"/>
  <path id="graphicDesign_648_" d="M157 20.2l8.8-1.6c2.1.9 4.4 1.5 6.8 1.5 9.3 0 16.8-7.5 16.8-16.8s-7.5-16.8-16.8-16.8S155.8-6 155.8 3.3c0 3.3 1 6.3 2.6 8.9l-1.4 8z" class="st1"/>
  <path id="graphicDesign_646_" d="M172.7 16.3c-7 0-12.6-5.8-12.6-12.9 0-7.2 5.7-12.9 12.6-12.9s12.6 5.8 12.6 12.9-5.7 12.9-12.6 12.9z" class="st2"/>
  <path id="graphicDesign_635_" d="M172-.5h2.4v2.4H172z" class="st1"/>
  <path id="graphicDesign_632_" d="M164.1 6.4h2.4v2.4h-2.4z" class="st1"/>
  <path id="graphicDesign_627_" d="M165.3 6.4c0-3.2 2.6-5.7 5.7-5.7h.9" class="st1"/>
  <path id="graphicDesign_637_" d="M179.4 6.4h2.4v2.4h-2.4z" class="st1"/>
  <path id="graphicDesign_636_" d="M180.6 6.4c0-3.2-2.6-5.7-5.7-5.7h-.9" class="st1"/>
  <path id="graphicDesign_616_" d="M174 .7h7.5" class="st1"/>
  <path id="graphicDesign_615_" d="M164.1.7h7.7" class="st1"/>
  <path id="graphicDesign_614_" d="M183 .7c0-.5-.4-.9-.9-.9s-.9.4-.9.9.4.9.9.9c.4 0 .9-.4.9-.9z" class="st1"/>
  <path id="graphicDesign_613_" d="M164.4.7c0-.5-.4-.9-.9-.9s-.9.4-.9.9.4.9.9.9.9-.4.9-.9z" class="st1"/>
  <path id="graphicDesign_639_" d="M172.7-20.5v5.6" class="st1"/>
  <path id="graphicDesign_638_" d="M178.1-17l-.7 2.8" class="st1"/>
  <path id="graphicDesign_640_" d="M184.5-17.3l-2.8 4.9" class="st1"/>
  <path id="graphicDesign_641_" d="M187.5-11.6l-2 2" class="st1"/>
  <path id="graphicDesign_642_" d="M193.3-8.7l-4.9 2.9" class="st1"/>
  <path id="graphicDesign_643_" d="M193-2.2l-2.8.8" class="st1"/>
  <path id="graphicDesign_645_" d="M196.5 3.2h-5.6" class="st1"/>
  <path id="graphicDesign_651_" d="M193 8.9l-2.7-.9" class="st1"/>
  <path id="graphicDesign_652_" d="M193.4 15.1l-4.9-2.8" class="st1"/>
  <path id="graphicDesign_653_" d="M187.7 18.5l-2-2.4" class="st1"/>
  <path id="graphicDesign_654_" d="M184.8 23.9l-2.8-4.8" class="st1"/>
  <path id="graphicDesign_663_" d="M178.4 23.6l-.8-2.7" class="st1"/>
  <path id="graphicDesign_709_" d="M152.2-1.6l2.7.7" class="st1"/>
  <path id="graphicDesign_711_" d="M151.7-8.1l4.9 2.7" class="st1"/>
  <path id="graphicDesign_713_" d="M157.4-11.1l2 1.9" class="st1"/>
  <path id="graphicDesign_716_" d="M160.2-17l2.9 4.8" class="st1"/>
  <path id="graphicDesign_717_" d="M166.6-16.8l.9 2.7" class="st1"/>
  <g id="graphicDesign_43_">
    <path id="graphicDesign_75_" d="M52 84.2h2.7" class="st1"/>
    <path id="graphicDesign_90_" d="M221.9 84.2h6.1" class="st1"/>
    <path id="graphicDesign_293_" d="M56.6 84.2h163.8" class="st1"/>
  </g>
</svg>