<svg xmlns="http://www.w3.org/2000/svg" id="Layer_1" viewBox="62 -44.1 195.7 152.1">
  <style>
    .st1{fill:#fff}.st2{fill:#377dff}.st4{fill:#e7eaf3}.st5{fill:#19a0ff}.st6{fill:#fdd14e}.st7{fill:#ffc107}.st8{fill:#dfe2ec}.st9{fill:#efa02e}.st10{opacity:.5;fill:#fff;enable-background:new}.st11{fill:#00c9a7}.st12{fill:#191c3c}.st13{fill:none;stroke:#191c3c;stroke-miterlimit:10}.st14{fill:#1e2022}.st15{fill:#f9c582}.st19{opacity:.3;fill:#191c3c;enable-background:new}.st20{fill:#edf1f9}.st28{fill:#707176}
  </style>
  <ellipse cx="159.8" cy="100.2" fill="#e7eaf3" opacity=".49" rx="95.4" ry="7.8"/>
  <g id="Layer_14">
    <path id="houseAgency_208_" d="M232.6 102.6H123.8V23.3c0-2.4 2-4.4 4.4-4.4h100c2.4 0 4.4 2 4.4 4.4v79.3z" class="st1"/>
    <path id="houseAgency_207_" d="M232.6 29v-8.1c0-1.3-1.1-2.4-2.4-2.4h-104c-1.3 0-2.4 1.1-2.4 2.4V29h108.8z" class="st2"/>
    <path id="houseAgency_206_" d="M131.9 24.1c0 .8-.6 1.4-1.4 1.4s-1.4-.6-1.4-1.4.6-1.4 1.4-1.4c.7 0 1.4.6 1.4 1.4z" class="st1"/>
    <path id="houseAgency_205_" d="M136.5 24.1c0 .8-.6 1.4-1.4 1.4-.8 0-1.4-.6-1.4-1.4s.6-1.4 1.4-1.4c.8 0 1.4.6 1.4 1.4z" class="st1"/>
    <path id="houseAgency_204_" d="M141.1 24.1c0 .8-.6 1.4-1.4 1.4s-1.4-.6-1.4-1.4.6-1.4 1.4-1.4c.8 0 1.4.6 1.4 1.4z" class="st1"/>
    <path id="houseAgency_203_" fill="#1f2b3d" d="M230.2 18.9h-3.1c1.3 0 2.4 1.1 2.4 2.4v81.3h3.1V21.3c0-1.4-1.1-2.4-2.4-2.4z" opacity=".2"/>
    <path d="M134.6 39.4h-1.7c-1.1 0-1.9-.9-1.9-1.9 0-1.1.9-1.9 1.9-1.9h1.7c1.1 0 1.9.9 1.9 1.9 0 1.1-.9 1.9-1.9 1.9zM134.6 49.3h-1.7c-1.1 0-1.9-.9-1.9-1.9 0-1.1.9-1.9 1.9-1.9h1.7c1.1 0 1.9.9 1.9 1.9 0 1-.9 1.9-1.9 1.9zM134.6 59.1h-1.7c-1.1 0-1.9-.9-1.9-1.9 0-1.1.9-1.9 1.9-1.9h1.7c1.1 0 1.9.9 1.9 1.9 0 1-.9 1.9-1.9 1.9zM134.6 68.9h-1.7c-1.1 0-1.9-.9-1.9-1.9 0-1.1.9-1.9 1.9-1.9h1.7c1.1 0 1.9.9 1.9 1.9 0 1-.9 1.9-1.9 1.9zM134.6 78.7h-1.7c-1.1 0-1.9-.9-1.9-1.9 0-1.1.9-1.9 1.9-1.9h1.7c1.1 0 1.9.9 1.9 1.9 0 1-.9 1.9-1.9 1.9zM134.6 88.5h-1.7c-1.1 0-1.9-.9-1.9-1.9 0-1.1.9-1.9 1.9-1.9h1.7c1.1 0 1.9.9 1.9 1.9 0 1.1-.9 1.9-1.9 1.9zM134.6 98.4h-1.7c-1.1 0-1.9-.9-1.9-1.9 0-1.1.9-1.9 1.9-1.9h1.7c1.1 0 1.9.9 1.9 1.9 0 1-.9 1.9-1.9 1.9zM219.6 39.4h-1.7c-1.1 0-1.9-.9-1.9-1.9 0-1.1.9-1.9 1.9-1.9h1.7c1.1 0 1.9.9 1.9 1.9 0 1.1-.9 1.9-1.9 1.9z" class="st4"/>
    <path d="M219.6 49.3h-1.7c-1.1 0-1.9-.9-1.9-1.9 0-1.1.9-1.9 1.9-1.9h1.7c1.1 0 1.9.9 1.9 1.9 0 1-.9 1.9-1.9 1.9z" class="st5"/>
    <path d="M219.6 59.1h-1.7c-1.1 0-1.9-.9-1.9-1.9 0-1.1.9-1.9 1.9-1.9h1.7c1.1 0 1.9.9 1.9 1.9 0 1-.9 1.9-1.9 1.9z" class="st6"/>
    <path d="M219.6 68.9h-1.7c-1.1 0-1.9-.9-1.9-1.9 0-1.1.9-1.9 1.9-1.9h1.7c1.1 0 1.9.9 1.9 1.9 0 1-.9 1.9-1.9 1.9z" class="st5"/>
    <path d="M219.6 78.7h-1.7c-1.1 0-1.9-.9-1.9-1.9 0-1.1.9-1.9 1.9-1.9h1.7c1.1 0 1.9.9 1.9 1.9 0 1-.9 1.9-1.9 1.9z" class="st6"/>
    <path d="M219.6 88.5h-1.7c-1.1 0-1.9-.9-1.9-1.9 0-1.1.9-1.9 1.9-1.9h1.7c1.1 0 1.9.9 1.9 1.9 0 1.1-.9 1.9-1.9 1.9z" class="st5"/>
    <path d="M219.6 98.4h-1.7c-1.1 0-1.9-.9-1.9-1.9 0-1.1.9-1.9 1.9-1.9h1.7c1.1 0 1.9.9 1.9 1.9 0 1-.9 1.9-1.9 1.9zM167 39.4h-25c-1.1 0-1.9-.9-1.9-1.9 0-1.1.9-1.9 1.9-1.9h25c1.1 0 1.9.9 1.9 1.9 0 1.1-.9 1.9-1.9 1.9z" class="st4"/>
    <path d="M173.1 39.4h5.1c1.1 0 1.9-.9 1.9-1.9 0-1.1-.9-1.9-1.9-1.9h-5.1c-1.1 0-1.9.9-1.9 1.9 0 1.1.8 1.9 1.9 1.9zM153.3 49.3h-11.4c-1.1 0-1.9-.9-1.9-1.9 0-1.1.9-1.9 1.9-1.9h11.3c1.1 0 1.9.9 1.9 1.9.1 1-.8 1.9-1.8 1.9z" class="st7"/>
    <path d="M163.3 49.3h33.9c1.1 0 1.9-.9 1.9-1.9 0-1.1-.9-1.9-1.9-1.9h-33.9c-1.1 0-1.9.9-1.9 1.9 0 1 .8 1.9 1.9 1.9z" class="st2"/>
    <path d="M189.6 59.1h-47.7c-1.1 0-1.9-.9-1.9-1.9 0-1.1.9-1.9 1.9-1.9h47.7c1.1 0 1.9.9 1.9 1.9 0 1-.8 1.9-1.9 1.9zM200.1 68.9h-58.2c-1.1 0-1.9-.9-1.9-1.9 0-1.1.9-1.9 1.9-1.9h58.2c1.1 0 1.9.9 1.9 1.9 0 1-.8 1.9-1.9 1.9z" class="st4"/>
    <path d="M189.6 78.7H172c-1.1 0-1.9-.9-1.9-1.9 0-1.1.9-1.9 1.9-1.9h17.6c1.1 0 1.9.9 1.9 1.9 0 1-.8 1.9-1.9 1.9z" class="st2"/>
    <path d="M164.8 78.7h-22.9c-1.1 0-1.9-.9-1.9-1.9 0-1.1.9-1.9 1.9-1.9h22.9c1.1 0 1.9.9 1.9 1.9.1 1-.8 1.9-1.9 1.9zM178.2 88.5h-36.3c-1.1 0-1.9-.9-1.9-1.9 0-1.1.9-1.9 1.9-1.9h36.3c1.1 0 1.9.9 1.9 1.9 0 1.1-.8 1.9-1.9 1.9z" class="st4"/>
    <path d="M184.7 88.5h11.6c1.1 0 1.9-.9 1.9-1.9 0-1.1-.9-1.9-1.9-1.9h-11.6c-1.1 0-1.9.9-1.9 1.9 0 1.1.8 1.9 1.9 1.9z" class="st7"/>
    <path d="M189.6 98.4h-47.7c-1.1 0-1.9-.9-1.9-1.9 0-1.1.9-1.9 1.9-1.9h47.7c1.1 0 1.9.9 1.9 1.9 0 1-.8 1.9-1.9 1.9z" class="st8"/>
    <g>
      <g id="houseAgency_18_">
        <path id="houseAgency_24_" d="M160.4 9.2h-17.2c-.3 0-.5-.2-.5-.5V5c0-.3.2-.5.5-.5h17.2c.3 0 .5.2.5.5v3.7c0 .3-.2.5-.5.5z" class="st7"/>
        <path d="M160.6 8.5H143c-.1 0-.2 0-.3-.1V9c0 .1.1.2.2.2h17.9c.1 0 .2-.1.2-.2v-.6c-.2.1-.3.1-.4.1z" class="st9"/>
        <path id="houseAgency_20_" d="M152.2 4.5h4.3v4.7h-4.3z" class="st10"/>
        <path id="houseAgency_19_" d="M157.4 4.5h1.1v4.7h-1.1z" class="st10"/>
      </g>
      <g id="houseAgency_14_">
        <path id="houseAgency_17_" d="M160.4 13.9h-17.3c-.3 0-.5-.2-.5-.5V9.7c0-.3.2-.5.5-.5h17.2c.3 0 .5.2.5.5v3.7c.1.3-.1.5-.4.5z" class="st7"/>
        <path d="M160.6 13.2h-17.7c-.1 0-.2 0-.3-.1v.6c0 .1.1.2.2.2h17.9c.1 0 .2-.1.2-.2v-.6c-.1.1-.2.1-.3.1z" class="st9"/>
        <path id="houseAgency_16_" d="M152.2 9.1h4.3v4.7h-4.3z" class="st10"/>
        <path id="houseAgency_15_" d="M157.3 9.2h1.1v4.7h-1.1z" class="st10"/>
      </g>
      <g id="houseAgency_10_">
        <path id="houseAgency_13_" d="M159.5 18.5h-17.2c-.3 0-.5-.2-.5-.5v-3.7c0-.3.2-.5.5-.5h17.2c.3 0 .5.2.5.5V18c0 .3-.2.5-.5.5z" class="st7"/>
        <path d="M159.7 17.8h-17.6c-.1 0-.2 0-.3-.1v.6c0 .1.1.2.2.2h17.9c.1 0 .2-.1.2-.2v-.6c-.2.1-.3.1-.4.1z" class="st9"/>
        <path id="houseAgency_12_" d="M151.3 13.8h4.3v4.7h-4.3z" class="st10"/>
        <path id="houseAgency_11_" d="M156.5 13.8h1.1v4.7h-1.1z" class="st10"/>
      </g>
      <g id="houseAgency_37_">
        <path id="houseAgency_40_" d="M179.1 9.2h-17.2c-.3 0-.5-.2-.5-.5V5c0-.3.2-.5.5-.5h17.2c.3 0 .5.2.5.5v3.7c0 .3-.2.5-.5.5z" class="st7"/>
        <path d="M179.4 8.5h-17.7c-.1 0-.2 0-.3-.1V9c0 .1.1.2.2.2h17.9c.1 0 .2-.1.2-.2v-.6c-.1.1-.2.1-.3.1z" class="st9"/>
        <path id="houseAgency_39_" d="M171 4.5h4.3v4.7H171z" class="st10"/>
        <path id="houseAgency_38_" d="M176.1 4.4h1.1v4.7h-1.1z" class="st10"/>
      </g>
      <g id="houseAgency_9_">
        <path id="houseAgency_36_" d="M179.5 4.8h-17.2c-.3 0-.5-.2-.5-.5V.6c0-.3.2-.5.5-.5h17.2c.3 0 .5.2.5.5v3.7c0 .3-.2.5-.5.5z" class="st7"/>
        <path d="M179.7 4.1H162c-.1 0-.2 0-.3-.1v.6c0 .1.1.2.2.2h17.9c.1 0 .2-.1.2-.2V4c-.1.1-.2.1-.3.1z" class="st9"/>
        <path id="houseAgency_35_" d="M171.3 0h4.3v4.7h-4.3z" class="st10"/>
        <path id="houseAgency_34_" d="M176.5.1h1.1v4.7h-1.1z" class="st10"/>
      </g>
      <g id="houseAgency_41_">
        <path id="houseAgency_44_" d="M179.1.2h-17.3c-.3 0-.5-.2-.5-.5V-4c0-.3.2-.5.5-.5H179c.3 0 .5.2.5.5v3.7c.1.3-.1.5-.4.5z" class="st7"/>
        <path d="M179.3-.5h-17.7c-.1 0-.2 0-.3-.1V0c0 .1.1.2.2.2h17.9c.1 0 .2-.1.2-.2v-.6c-.1.1-.2.1-.3.1z" class="st9"/>
        <path id="houseAgency_43_" d="M170.9-4.5h4.3V.2h-4.3z" class="st10"/>
        <path id="houseAgency_42_" d="M176-4.5h1.1V.2H176z" class="st10"/>
      </g>
      <g id="houseAgency_7_">
        <path id="houseAgency_32_" d="M179.5 13.8h-17.2c-.3 0-.5-.2-.5-.5V9.6c0-.3.2-.5.5-.5h17.2c.3 0 .5.2.5.5v3.7c0 .3-.2.5-.5.5z" class="st7"/>
        <path d="M179.7 13.1H162c-.1 0-.2 0-.3-.1v.6c0 .1.1.2.2.2h17.9c.1 0 .2-.1.2-.2V13c-.1.1-.2.1-.3.1z" class="st9"/>
        <path id="houseAgency_31_" d="M171.3 9.1h4.3v4.7h-4.3z" class="st10"/>
        <path id="houseAgency_8_" d="M176.5 9.1h1.1v4.7h-1.1z" class="st10"/>
      </g>
      <g id="houseAgency_25_">
        <path id="houseAgency_28_" d="M178.6 18.5h-17.2c-.3 0-.5-.2-.5-.5v-3.7c0-.3.2-.5.5-.5h17.2c.3 0 .5.2.5.5V18c0 .2-.2.5-.5.5z" class="st7"/>
        <path d="M178.9 17.8h-17.7c-.1 0-.2 0-.3-.1v.6c0 .1.1.2.2.2H179c.1 0 .2-.1.2-.2v-.6c-.1.1-.2.1-.3.1z" class="st9"/>
        <path id="houseAgency_27_" d="M170.5 13.7h4.3v4.7h-4.3z" class="st10"/>
        <path id="houseAgency_26_" d="M175.6 13.8h1.1v4.7h-1.1z" class="st10"/>
      </g>
    </g>
    <g>
      <path d="M96.5 67.6c.2-.8.3-1.6.1-2.4-.1-.3-.2-.6-.4-.9l-.6-.3c-2.9-1-6.1 0-8.4 1.9-2 1.7-3.5 3.9-5 6.1-.8 1.2-1.6 2.3-2.3 3.5l-.1 3.9c2.6-1.5 5.4-2.4 8.1-3.6 3.4-1.5 6.6-3.6 8.3-7.1.1-.4.2-.7.3-1.1z" class="st11"/>
      <path d="M80.9 76.5c3.9-2.8 8.5-4.7 11.7-8.3.1-.1-.1-.3-.2-.2-3.2 3.6-7.7 5.6-11.5 8.5-.1 0-.1.1 0 0z" class="st12"/>
      <path d="M89.8 67.3c-1.1 1.4-2.2 3.2-2.5 5 0 .1.1.2.2.1.8-1.7 1.4-3.4 2.6-4.9.1-.2-.1-.4-.3-.2zM85.6 70.2c-.4.7-.7 1.3-1 2.1-.3.7-.7 1.4-.7 2.1 0 .1.2.2.3.1.5-.5.6-1.2.9-1.8.3-.8.6-1.6.8-2.4 0-.2-.2-.3-.3-.1zM82.9 75.3c.6.2 1.2.2 1.8.2.5 0 1.1.1 1.6-.1.1-.1.1-.3 0-.3-.5-.2-1 0-1.5 0-.6 0-1.2-.1-1.7 0-.3 0-.4.2-.2.2zM86.7 73c.7.4 1.8.8 2.7.5.1 0 .1-.2 0-.2-.4-.1-.7 0-1.1-.1-.5 0-1-.2-1.5-.3-.1 0-.1.1-.1.1z" class="st12"/>
      <path d="M74.6 62.6c-1-1.8-2.5-3.8-4.5-3.8-1.7 0-3.2 1.4-3.7 3s-.2 3.4.3 5c1.9 5.8 6.9 10.6 12.8 12.1l.2-.4c-.6-5.5-2.4-11-5.1-15.9z" class="st11"/>
      <path d="M69.1 62.5c4.5 3.6 6.1 10.2 8.7 15.1.1.1.3 0 .2-.1-1.2-2.9-2.7-5.8-4.1-8.6-1.2-2.5-2.5-4.8-4.8-6.6.1-.1-.1.1 0 .2z" class="st12"/>
      <path d="M73.1 62.1c.1.8.1 1.6-.1 2.4-.1.6-.5 1.2-.5 1.9 0 .1.1.2.2.1 1-1 .9-3.2.6-4.4 0-.2-.2-.1-.2 0zM69.4 67.8c1.3 1.1 3 2.3 4.7 2.4.1 0 .2-.2.1-.3-.8-.4-1.6-.6-2.4-1-.8-.4-1.5-.8-2.3-1.3-.1-.1-.2.1-.1.2zM74.7 66.4v1.7c-.1.6-.2 1.1-.2 1.7 0 .1.2.2.3.1.5-1 .3-2.5.1-3.5 0-.1-.2-.1-.2 0z" class="st12"/>
      <path d="M80 25.9v68.4" class="st13"/>
      <path d="M79.8 41.6s0-.1 0 0c-.1-.1-.1 0 0 0zM82.6 47.6s0-.1 0 0c-.1-.1-.1 0 0 0z" class="st14"/>
      <g id="houseAgency_45_">
        <path id="houseAgency_54_" d="M98 43.2c0 9.9-8.1 18-18 18s-18-8.1-18-18 8.1-18 18-18c10 0 18 8 18 18z" class="st7"/>
        <path id="houseAgency_53_" d="M96.1 43.2c0 8.9-7.2 16-16 16-8.9 0-16-7.2-16-16 0-8.9 7.2-16 16-16 8.8-.1 16 7.1 16 16z" class="st6"/>
        <path id="houseAgency_52_" d="M94.2 43.2c0 7.8-6.3 14.2-14.2 14.2S65.9 51 65.9 43.2 72.2 29 80.1 29s14.1 6.4 14.1 14.2z" class="st7"/>
        <g id="houseAgency_46_">
          <g id="houseAgency_49_">
            <path id="houseAgency_51_" d="M81.9 50.4h-5.2c-1.2 0-2.2-1-2.2-2.2v-1.1h3.1v.2h4.3c.8 0 1.5-.7 1.5-1.5 0-.5-.4-1-1-1h-3.9c-2.3 0-4.1-1.8-4.1-4.1v-.6c0-2.6 2.1-4.6 4.6-4.6h5.2c1.2 0 2.2 1 2.2 2.2V39h-3.1v-.3H79c-.8 0-1.5.7-1.5 1.5v.6c0 .5.4 1 1 1h3.9c2.3 0 4.1 1.8 4.1 4.1 0 2.4-2.1 4.5-4.6 4.5z" class="st14"/>
          </g>
          <g id="houseAgency_47_">
            <path id="houseAgency_48_" d="M78.9 34H82v18.3h-3.1z" class="st14"/>
          </g>
        </g>
      </g>
    </g>
    <g>
      <path d="M105.6 86.1v15.2" class="st13"/>
      <path d="M105.5 91.1c.1 0 .1-.1 0-.1v.1zM106.4 92.9z" class="st14"/>
      <g id="houseAgency_88_">
        <path id="houseAgency_97_" d="M110.9 87.4c0 3.1-2.5 5.6-5.6 5.6s-5.6-2.5-5.6-5.6 2.5-5.6 5.6-5.6 5.6 2.6 5.6 5.6z" class="st7"/>
        <path id="houseAgency_95_" d="M110.3 87.4c0 2.8-2.2 5-5 5s-5-2.2-5-5 2.2-5 5-5 5 2.3 5 5z" class="st6"/>
        <path id="houseAgency_94_" d="M109.7 87.4c0 2.4-2 4.4-4.4 4.4-2.4 0-4.4-2-4.4-4.4s2-4.4 4.4-4.4c2.5 0 4.4 2 4.4 4.4z" class="st7"/>
        <g id="houseAgency_89_">
          <g id="houseAgency_92_">
            <path id="houseAgency_93_" d="M105.9 89.7h-1.6c-.4 0-.7-.3-.7-.7v-.3h1v.1h1.3c.3 0 .5-.2.5-.5 0-.2-.1-.3-.3-.3h-1.2c-.7 0-1.3-.6-1.3-1.3v-.2c0-.8.6-1.4 1.4-1.4h1.6c.4 0 .7.3.7.7v.4h-1v-.1H105c-.3 0-.5.2-.5.5v.2c0 .2.1.3.3.3h1.2c.7 0 1.3.6 1.3 1.3.1.6-.6 1.3-1.4 1.3z" class="st14"/>
          </g>
          <g id="houseAgency_90_">
            <path id="houseAgency_91_" d="M105 84.6h1v5.7h-1z" class="st14"/>
          </g>
        </g>
      </g>
    </g>
    <g>
      <path d="M100 87.4c.1-.4.2-.9.1-1.3 0-.2-.1-.4-.2-.5-.1-.1-.2-.1-.3-.2-1.6-.6-3.3 0-4.6 1-1.1.9-1.9 2.1-2.7 3.3-.4.6-.8 1.3-1.3 1.9l-.1 2.1c1.4-.8 2.9-1.3 4.4-2 1.9-.8 3.6-2 4.5-3.9l.2-.4z" class="st11"/>
      <path d="M91.4 92.3c2.1-1.5 4.6-2.5 6.4-4.5.1-.1 0-.1-.1-.1-1.8 1.9-4.2 3-6.3 4.6 0-.1 0 0 0 0z" class="st12"/>
      <path d="M96.3 87.2c-.6.8-1.2 1.7-1.4 2.7 0 .1.1.1.1 0 .4-.9.8-1.8 1.3-2.7.2 0 .1-.1 0 0zM94 88.8c-.2.4-.4.7-.5 1.1-.1.4-.4.8-.4 1.2 0 .1.1.1.1.1.3-.3.3-.6.5-1s.3-.9.4-1.3c.1-.1-.1-.2-.1-.1zM92.5 91.6c.3.1.6.1 1 .1.3 0 .6 0 .9-.1.1 0 0-.1 0-.2-.3-.1-.6 0-.8 0h-1c-.1.1-.2.2-.1.2zM94.6 90.4c.4.2 1 .4 1.4.3.1 0 .1-.1 0-.1h-.6c-.2-.2-.5-.2-.8-.2 0-.1 0 0 0 0z" class="st12"/>
      <path d="M88 84.7c-.5-1-1.3-2.1-2.5-2.1-.9 0-1.7.8-2 1.6-.3.9-.1 1.9.2 2.7 1 3.2 3.8 5.8 7 6.6l.1-.2c-.3-3-1.3-5.9-2.8-8.6z" class="st11"/>
      <path d="M85 84.6c2.5 2 3.3 5.6 4.8 8.3 0 .1.2 0 .1-.1-.7-1.6-1.5-3.2-2.2-4.7-.7-1.4-1.4-2.6-2.7-3.5 0-.1 0 0 0 0z" class="st12"/>
      <path d="M87.2 84.4c.1.4 0 .9 0 1.3-.1.3-.3.7-.3 1 0 .1.1.1.1 0 .5-.5.5-1.7.3-2.4 0 0-.1 0-.1.1zM85.2 87.5c.7.6 1.6 1.3 2.6 1.3.1 0 .1-.1 0-.1-.4-.2-.9-.3-1.3-.5-.5-.3-.9-.5-1.3-.7 0-.1-.1 0 0 0zM88.1 86.8v.9c0 .3-.1.6-.1.9 0 .1.1.1.1 0 .3-.5.2-1.3.1-1.9 0 0-.1 0-.1.1z" class="st12"/>
      <path d="M90.9 70.2v31.1" class="st13"/>
      <path d="M90.8 73.2c.1 0 .1-.1 0 0 0-.1 0 0 0 0zM92.3 76.5c.1 0 .1 0 0 0z" class="st14"/>
      <g id="houseAgency_55_">
        <path id="houseAgency_64_" d="M100.3 72.8c0 5.4-4.4 9.8-9.8 9.8s-9.8-4.4-9.8-9.8 4.4-9.8 9.8-9.8 9.8 4.4 9.8 9.8z" class="st7"/>
        <path id="houseAgency_76_" d="M99.2 72.8c0 4.8-3.9 8.7-8.7 8.7s-8.7-3.9-8.7-8.7c0-4.8 3.9-8.7 8.7-8.7 4.8 0 8.7 3.9 8.7 8.7z" class="st6"/>
        <path id="houseAgency_75_" d="M98.2 72.8c0 4.3-3.5 7.7-7.7 7.7-4.3 0-7.7-3.5-7.7-7.7 0-4.3 3.5-7.7 7.7-7.7s7.7 3.4 7.7 7.7z" class="st7"/>
        <g id="houseAgency_56_">
          <g id="houseAgency_73_">
            <path id="houseAgency_74_" d="M91.5 76.7h-2.9c-.7 0-1.2-.5-1.2-1.2v-.6h1.7v.1h2.4c.5 0 .8-.4.8-.8 0-.3-.2-.5-.5-.5h-2.1c-1.2 0-2.2-1-2.2-2.2v-.3c0-1.4 1.1-2.5 2.5-2.5h2.9c.7 0 1.2.5 1.2 1.2v.7h-1.7v-.2H90c-.5 0-.8.4-.8.8v.3c0 .3.2.5.5.5h2.1c1.2 0 2.2 1 2.2 2.2 0 1.4-1.1 2.5-2.5 2.5z" class="st14"/>
          </g>
          <g id="houseAgency_57_">
            <path id="houseAgency_72_" d="M89.9 67.8h1.7v10h-1.7z" class="st14"/>
          </g>
        </g>
      </g>
    </g>
    <g>
      <path d="M72.1 84.8v16.5" class="st13"/>
      <path d="M72 93c.1 0 .1-.1 0-.1v.1zM73.5 96.1s0-.1 0 0c0-.1 0 0 0 0z" class="st14"/>
      <g id="houseAgency_264_">
        <path id="houseAgency_272_" d="M81.1 87c0 5.2-4.2 9.4-9.4 9.4s-9.4-4.2-9.4-9.4 4.2-9.4 9.4-9.4 9.4 4.2 9.4 9.4z" class="st7"/>
        <path id="houseAgency_271_" d="M80 87c0 4.6-3.7 8.3-8.3 8.3-4.6 0-8.3-3.7-8.3-8.3 0-4.6 3.7-8.3 8.3-8.3 4.6-.1 8.3 3.7 8.3 8.3z" class="st6"/>
        <path id="houseAgency_270_" d="M79.1 87c0 4.1-3.3 7.4-7.4 7.4-4.1 0-7.4-3.3-7.4-7.4s3.3-7.4 7.4-7.4c4.1 0 7.4 3.3 7.4 7.4z" class="st7"/>
        <g id="houseAgency_265_">
          <g id="houseAgency_268_">
            <path id="houseAgency_269_" d="M72.7 90.7h-2.8c-.6 0-1.1-.5-1.1-1.1V89h1.6v.1h2.2c.4 0 .8-.4.8-.8 0-.3-.2-.5-.5-.5h-2c-1.2 0-2.1-1-2.1-2.1v-.3c0-1.3 1.1-2.4 2.4-2.4h2.7c.6 0 1.1.5 1.1 1.1v.7h-1.6v-.2h-2.2c-.4 0-.8.4-.8.8v.3c0 .3.2.5.5.5h2c1.2 0 2.1 1 2.1 2.1.1 1.4-1 2.4-2.3 2.4z" class="st14"/>
          </g>
          <g id="houseAgency_266_">
            <path id="houseAgency_267_" d="M71.1 82.2h1.6v9.5h-1.6z" class="st14"/>
          </g>
        </g>
      </g>
    </g>
  </g>
  <g id="Layer_17">
    <path d="M239.2-25.8h6.8v6.4h-6.8z" class="st15"/>
    <path fill="#eaae6e" d="M243.3 93.5l-1.9 2.3-5.6 1.2-.5 3.6h15.6l-.7-7.1z"/>
    <path fill="#e6e7e8" d="M235.8 97l-4.4.6-.5.6c-.3.3-.4.8-.2 1.2.3.7 1 1.3 1.7 1.6l3.4 1.2h15.3v-5.1h-1l-7.6 3.2-5.1.1-1.9-1.3.3-2.1z"/>
    <path d="M235.6 98.6l.2-1.6v.1l-.2 1.4zM232.4 100.5c-.8-.3-1.4-.8-1.7-1.6 0-.1 0-.1-.1-.2-.1.2 0 .5.1.7.3.7 1 1.3 1.7 1.6l3.4 1.2h15.3v-.5h-15.3l-3.4-1.2z" class="st12"/>
    <path fill="#196eff" d="M252.4 32.6l-1.5 4.9.4 26.7s3 7.8 1.1 14.6l-2.3 14.7H247l-.6-61.2 6 .3z"/>
    <path d="M241.7 93.5l-1.9 2.3-5.6 1.2-.5 3.6h15.6l-.7-7.1z" class="st15"/>
    <path d="M235.9 21v5.1l1.3 28.2c.1 2.3.5 4.6 1.2 6.8.3 2.3 1.1 4.4 2.4 6.3l.2.3.8 25.8h6.8l1.7-11.3s1.6-9-.8-15V37.4l1.5-2.1c1.6-2.2 2.5-4.9 2.5-7.6 0-2-.4-3.9-1.3-5.7l-.5-1.1-15.8.1z" class="st2"/>
    <path d="M234.2 97l-4.4.6-.5.6c-.3.3-.4.8-.2 1.2.3.7 1 1.3 1.7 1.6l3.4 1.2h15.3v-5.1h-1l-7.6 3.2-5.1.1-1.9-1.3.3-2.1z" class="st1"/>
    <path d="M234 98.6l.2-1.6v.1l-.2 1.4zM230.8 100.5c-.8-.3-1.4-.8-1.7-1.6 0-.1 0-.1-.1-.2-.1.2 0 .5.1.7.3.7 1 1.3 1.7 1.6l3.4 1.2h15.3v-.5h-15.3l-3.4-1.2z" class="st12"/>
    <path d="M252.1 22l-.5-1.1h-15.7v2.7h.1c1 .2 2.1.2 3.1-.1.7-.2 1.3-.5 2-.6.5-.1.9 0 1.4 0 3.5.3 6.9.6 10.4 1-.3-.6-.5-1.3-.8-1.9z" class="st19"/>
    <path d="M237.3-12.6l-3.4 7.7c-.4.9-.6 1.8-.6 2.8V-1c0 1.2.3 2.4.9 3.4 0 3.9.1 7.8.1 11.7 0 2 0 4 .1 6.1 0 .6-.1 1.3 0 1.8.1.6.4.6 1.1.7 1 .2 2.1.2 3.1-.1.7-.2 1.3-.5 2-.6.5-.1.9 0 1.4 0 3.6.3 7.2.7 10.8 1-.1 0-.6-1.7-.6-1.9-.1-.5-.1-.9-.1-1.4 0-1-.1-2.1-.2-3.1-.1-1.3-.2-2.6-.2-4-.2-2.7.1-5.4.9-8l2.4-8.3c1-3.5.9-7.3-.4-10.7l-3.2-8.4-5.4 2.1-6.6 1.4-2.1 6.7z" class="st20"/>
    <path d="M246-25.8l-6.8 4v-4z" class="st19"/>
    <path d="M231-36v3.4c0 .5.3.9.7 1.2l.6.4s-.3 1.7-.9 2.7c-.2.3-.1.6.1.8.4.3.9.6 1.5.5l1 2.9c.4 1.1 1.5 1.6 2.6 1.3l6.2-2.2 2.1-8.4-2-5.2-9.1.4c-.1-.2-2.8.8-2.8 2.2z" class="st15"/>
    <linearGradient id="SVGID_1_" x1="229.691" x2="257.7" y1="-112.724" y2="-112.724" gradientTransform="translate(0 89.979)" gradientUnits="userSpaceOnUse">
      <stop offset=".009" stop-color="#54585e"/>
      <stop offset="1" stop-color="#838891"/>
    </linearGradient>
    <path fill="url(#SVGID_1_)" d="M257.6-6.6c-.1-.6-.2-1.1-.4-1.7-.3-1.1-.6-2.2-.9-3.2-.3-1-.6-2.1-1-3.1-.3-.7-.7-1.3-.9-2-.4-1.4 0-2.9-.2-4.3-.2-2.3-1.6-4.3-1.9-6.5-.1-1 0-2-.1-2.9-.2-1.8-1.4-3.2-2.3-4.8-.8-1.2-2.1-2.2-2.7-3.6-.3-.7-.3-1.6-.6-2.3-.6-1.5-2-2.4-3.5-2.8-1.5-.4-2.9 0-4.4-.2-1.3-.1-2.4-.2-3.7.2-2.2.7-5.5 2.3-5.3 5 .1.8.4 1.6.7 2.3.1.3.3.7.6.8.5.2 1.1-.1 1.6-.3l.2.1 1.2 1.1.7.7.2.2c.3.3.6.5 1 .6.5.2 1.1.3 1.5.6s.6.7.9 1.1c.7 1.4 1 3 2 4.1.4.4.9.8 1.3 1.2 1.1 1.3 1.1 3.2 1.9 4.6 1.2 2.1 4 3 5.1 5.2.8 1.6.5 3.4 1.1 5.1.4 1 1 1.9 1.3 2.9.2 1 .1 2 .1 2.9 0 1 .3 2.1 1 2.7 0-.6.6-1.2 1.2-1.3.3.9.4 1.8.2 2.8.1-.5.7-.8 1.2-.9 1.4-.3 2.4-.3 2.8-1.9.2-.8.2-1.6.1-2.4z"/>
    <path fill="#191c3c" d="M247.3-8.2l-7.9.5L238 9l-3.7 1.4.1 5.9 5.2-.4c2.7-.2 4.9-2.2 5.3-4.9l2.4-19.2z" opacity=".2"/>
    <path d="M238.9-8.2l-1.4 16.7-12.6 4.8-4.9-3.1h-3.8l-1 1.9v2.1h.9l.1-1.1.4-.1 5.1 3.7h2.7l14.5-1.1c2.7-.2 4.9-2.2 5.3-4.9l3-18.7h-8.3v-.2z" class="st15"/>
    <path d="M234.5 7.4c0-.2-.1-.5-.1-.7 0-.8.8-1.5 1.4-1.9-.4 0-.9-.2-1.1-.6-.2-.4.1-1 .5-1-.2-.1-.4-.3-.6-.4 1.1 0 2.1-.6 2.7-1.5-.8.4-1.8.8-2.7.4-.6-.3-1-.9-1.3-1.6.1.7.4 1.5.8 2.1l.1 6.3c.3-.2.4-.6.3-1.1z" class="st12" opacity=".2"/>
    <path d="M238.8-7.2h8.4l.1-1h-8.4z" class="st19"/>
    <path d="M238.3-8.2v-3.2c0-2.5.7-4.9 1.9-7h6.8c.7 2.7 1.1 5.4 1.1 8.2v2.1l-9.8-.1z" class="st20"/>
    <path d="M251.7 8c-.1.6-.1 1.1-.2 1.7-.5-.8-.7-1.7-.8-2.6.4.4.7.7 1 .9zm1.1-4.9c-1 1.2-1.4 3-1 4.5.2-1 .3-2 .6-3l.4-1.5c0 .1 0 .1 0 0zm-2.2 7.8c-.5 0-.9.1-1.4.1 1.1.4 1.9 1.6 2 2.8-.2-.1-.4-.1-.6 0 .5.6.9 1.2 1.2 2l-.2-3.1c-.1-.9 0-1.8 0-2.8-.4-.1-.9-.1-1.3-.2 0 .5 1.1.7.8 1.1-.2.1-.3.1-.5.1z" class="st12" opacity=".14"/>
    <path d="M249.2 89.2l-.2 1.4h-.2l.1-.4c.1-.3.2-.6.3-1zM248 43.3c-.3 1.2-.6 2.4-.8 3.7-.2 2 .2 4 .4 6.1.3 3.1.2 6.2.2 9.3-.3-.3-.6-.5-.9-.8.1.1.2 1.3.2 1.6.2.6.4 1.1.6 1.6.4 1 1.1 1.9 1.6 2.8.3-1.1.1-2.3.1-3.4v-6.7-8-6.7c0-1.2.1-2.4 0-3.5v-1.5-.4c0-.1-.1-.2-.2-.3-.1-.1-.1-.2-.2-.3-.2 1-.2 2.2-.4 3.3-.2 1-.4 2.1-.6 3.2zm1.4 44.2l.8-5.3c.2-1 .3-1.9.3-2.9.2-2.3.2-4.6 0-6.9-.1-1.3-.3-2.5-.7-3.7-.1-.5-.2-1.3-.7-1.4-.7-.2-1.4-.1-2-.5-.1 0-.2-.1-.2 0 0 0-.1.1-.1.2 0 .4.4.7.7.9.1.1.9.6 1 .6-.8.2-1.7.2-2.5 0 .9.8 1.7 1.8 2.3 2.8.3.5.5 1.1.7 1.7s.3 1.1-.5.7c-.2-.1-.5-.3-.7-.2.4.7.8 1.3 1 2 .1.4.3.8.4 1.2.1.3.1.8.2 1.1-.5-.7-1.3-1.3-2.2-1.4.6 1.6 1.2 3.1 1.8 4.7-.4-.1-.8-.1-1.3-.2 1.4 1.9 1.9 4.3 1.7 6.6z" class="st12" opacity=".12"/>
    <g opacity=".1">
      <path d="M235-37.2z" class="st12"/>
    </g>
    <path fill="#fff3df" d="M242.4-41.1c1.5.4 2.4 1 2.7 2.6.1 1-.7 2-.9 2.9-.9 3.5-.6 6.4 1.9 9.4 1.7 2 4.2 3.3 5.4 5.7 1.3 2.4 1 5.2.7 7.9h-.1c.3-4.7-.4-7.8-3.7-11.3-1.3-1.3-2.7-2.3-3.6-3.9-.9-1.5-1.3-3.2-1.2-4.9 0-2.6 3.2-7-1.2-8.4zm3.4 19.5c2.6-1.1 2.1 3.8 2.9 4.9 1.2 1.5 2.7 1.6 3.1 4.1.4 2.5.4 5.2 3.4 5.8.1 0 .1-.1 0-.1-4.3-1.2-2.3-4.7-3.5-7.5-.9-2-3-1.3-3.5-4.4-.2-1.5.1-3.9-2.4-2.8zm.4-11.9c1.7-.7 1.8 2.9 1.9 3.7.1.8.3 1.6.6 2.4.5 1.4 1.4 2.6 2.6 3.3 0 0 .1 0 .1-.1-1.3-1.1-2.2-2.3-2.7-3.9-.4-1.4-.4-2.8-.7-4.1-.2-.9-.8-1.8-1.8-1.3-.1 0 0 0 0 0zm-10-5.6c1.2-1.9 2.9 1.1 3.1 1.9.1.3.1.6.1.9.1.9.4 1.8.8 2.6.8 1.7 2 3.2 3.5 4.2.1 0 .1-.1.1-.1-1.4-1.2-2.6-2.5-3.4-4.2-.5-1.1-.8-2.3-1-3.5-.1-.5 0-1-.2-1.5-.6-1-2.5-1.5-3-.3zm-5 1.7c.3-.4.7-.7 1.2-.8.6-.6 1.2-.5 1.7.2.9.5.9.7 1.3 1.4.4.8.9 1.7 1.4 2.4.9 1.2 1.9 2.3 3.2 3.1 0 0 .1 0 0-.1-1.6-1.1-2.8-2.4-3.8-4-.5-.9-.9-2.2-1.6-2.9-1-1.1-2.6-.6-3.4.7-.1 0 0 0 0 0zm1.9-3c2.4-2 4.6-1.7 6.9.4.8.7 1.4 1.2 2.4 1.2.1 0 .1-.1 0-.1-2.2-.2-3.1-2.6-5.2-3-1.6-.3-2.9.4-4.1 1.5zm15.7 6.5c1.4 1.2 1.3 4 1.8 5.7.6 1.9 1.3 3.8 1.8 5.7h.1c-.4-2.5-1.6-4.7-2.1-7.2-.5-1.7 0-3-1.6-4.2 0 0-.1 0 0 0zm4.9 20.2c.3 1.2.1 2.2 1 3.1.8.8 1.6 1.3 1.8 2.5.3 1.8-1 3.2-2.3 4.2v.1c1.5-.9 2.8-2.5 2.5-4.3-.1-1-.6-1.5-1.3-2.1-.7-.6-.9-.5-1.2-1.4-.3-.7-.2-1.4-.5-2.1.1-.1 0 0 0 0z" opacity=".3"/>
    <g>
      <path d="M230.1 18.5h-26.2c-.6 0-1-.5-1-1v-.2c0-.6.5-1 1-1h26.2c.6 0 1 .5 1 1v.2c.1.5-.4 1-1 1z" class="st8"/>
      <path d="M230 18h-26.1c-.5 0-.9-.4-1.1-.9 0 .1-.1.2-.1.3 0 .6.5 1.1 1.1 1.1h26.1c.6 0 1.1-.5 1.1-1.1 0-.1 0-.2-.1-.3.1.6-.3.9-.9.9z" class="st28"/>
      <path d="M205.2 16.5c-.2.1-.4.1-.5-.1L194.2-2.4c-.1-.2 0-.3.1-.4.2-.1.3 0 .4.1l10.5 18.8c.2.1.1.3 0 .4z" class="st8"/>
      <path d="M204.9 16.4L194.4-2.3c-.1-.2 0-.4.1-.5h.1c-.1 0-.2-.1-.3 0-.2.1-.2.3-.1.5l10.5 18.7c.1.1.2.2.4.1-.1 0-.2 0-.2-.1z" class="st28"/>
      <path d="M221.8 16.8h2.1v.8h-2.1zM224.2 16.8h2.1v.8h-2.1zM206.9 16.9h2.1v.8h-2.1z" class="st12"/>
    </g>
  </g>
</svg>