<svg xmlns="http://www.w3.org/2000/svg" viewBox="36 -36 120 120">
  <path fill="none" stroke="#BDC5D1" stroke-linecap="round" stroke-linejoin="round" stroke-miterlimit="10" stroke-width="3" d="M88.9 6.5c-2.7 0-5.2 1.2-6.8 3.2v-17h-36c-5 0-9.1 4.1-9.1 9.1v36h16.7c-1.8-1.6-3-4-3-6.6 0-4.9 3.9-8.8 8.8-8.8s8.8 3.9 8.8 8.8c0 2.6-1.1 5-3 6.6H82v-17c1.6 2 4 3.2 6.8 3.2 4.8 0 8.7-3.9 8.7-8.7.2-4.9-3.7-8.8-8.6-8.8zM53.8 37.8H37v36c0 5 4.1 9.1 9.1 9.1h36V66.2c-1.6 1.8-4 3-6.6 3-4.9 0-8.8-3.9-8.8-8.8s3.9-8.8 8.8-8.8c2.6 0 5 1.1 6.6 3V37.8H65.5M82.2 66.3V83h36c5 0 9.1-4.1 9.1-9.1v-36h-16.7c1.8 1.6 3 4 3 6.6 0 4.9-3.9 8.8-8.8 8.8S96 49.4 96 44.5c0-2.6 1.1-5 3-6.6H82.2v16.7"/>
  <path fill="#BDC5D1" d="M141.9-19.9c-1.4-4.8-6.5-7.6-11.3-6.2L96-16.2l4.6 16.1c1-2.2 3-3.9 5.5-4.7 4.7-1.4 9.6 1.3 10.9 6 1.4 4.7-1.3 9.6-6 10.9-2.5.7-5.1.3-7.1-1l4.6 16.1 15.7-4.5c-1.1 2-1.5 4.4-.8 6.8 1.4 4.7 6.3 7.5 11.1 6.1 4.7-1.4 7.5-6.3 6.1-11.1-.7-2.4-2.3-4.3-4.3-5.4l15.6-4.5-10-34.5z" opacity=".5"/>
  <path fill="#377DFF" d="M146-29.4c-1.4-4.8-6.5-7.6-11.3-6.2l-34.6 10 4.6 16.1c1-2.2 3-3.9 5.5-4.7 4.7-1.4 9.6 1.3 10.9 6 1.4 4.7-1.3 9.6-6 10.9-2.5.7-5.1.3-7.1-1l4.6 16.1 15.7-4.5c-1.1 2-1.5 4.4-.8 6.8 1.4 4.7 6.3 7.5 11.1 6.1 4.7-1.4 7.5-6.3 6.1-11.1-.7-2.4-2.3-4.3-4.3-5.4L156 5.2l-10-34.6z"/>
</svg>