<svg xmlns="http://www.w3.org/2000/svg" viewBox="0 0 120 120">
  <style>
    .icon-8-0{fill:none;stroke:#377dff}.icon-8-1{fill:none;stroke:#bdc5d1}
  </style>
  <path stroke-linecap="round" stroke-linejoin="round" stroke-miterlimit="10" stroke-width="3" d="M104.7 93.2c-2 3-4.4 5.8-6.9 8.4" class="icon-8-0"/>
  <path stroke-linecap="round" stroke-linejoin="round" stroke-miterlimit="10" stroke-width="3" d="M41.5 6.8c2.1-.6 4.3-1.1 6.5-1.5M16.2 22.2c3.8-3.9 8.1-7.3 12.8-10.1M8.3 32.7c.8-1.4 1.7-2.8 2.6-4.1" class="icon-8-1" opacity=".5"/>
  <path stroke-linecap="round" stroke-linejoin="round" stroke-miterlimit="10" stroke-width="3" d="M57.4 118.4c-9.8 0-19.1-2.5-27.1-6.9M82.4 112.6c-1.9.9-3.8 1.7-5.8 2.5" class="icon-8-0"/>
  <path stroke-linecap="round" stroke-linejoin="round" stroke-miterlimit="10" stroke-width="3" d="M44.6 46.9h32.1M14.1 46.9h23.2M14.1 76h60.8M90.2 76h10.6M57.4 15.4v92.1M71 17.4c-4.3-1.3-8.8-2-13.6-2-25.4 0-46.1 20.6-46.1 46 0 25.5 20.6 46.1 46.1 46.1s46.1-20.6 46.1-46.1c0-5.3-.9-10.4-2.6-15.2" class="icon-8-1 fill-none stroke-gray-400"/>
  <path stroke-linecap="round" stroke-linejoin="round" stroke-miterlimit="10" stroke-width="3" d="M70.4 21.6c-1.3-1.4-2.8-2.6-4.3-3.5-2.7-1.7-5.7-2.7-8.7-2.7-14.3 0-25.9 20.6-25.9 46.1s11.6 46.1 25.9 46.1c14.3 0 25.9-20.6 25.9-46.1 0-4.7-.4-9.3-1.2-13.6" class="icon-8-1"/>
  <path fill="#bdc5d1" d="M97.2 9.3c-11.5 0-20.7 9.3-20.7 20.7 0 6.1 7.2 19.7 19 36 .4.6 1 .8 1.7.8s1.3-.3 1.7-.8c11.8-16.1 19-29.7 19-36 0-11.4-9.3-20.7-20.7-20.7z" opacity=".5"/>
  <path fill="#377dff" d="M91.1 1.6c-11.5 0-20.7 9.3-20.7 20.7 0 6.1 7.2 19.7 19 36 .4.6 1 .8 1.7.8s1.3-.3 1.7-.8c11.8-16.1 19-29.7 19-36-.1-11.3-9.4-20.7-20.7-20.7z"/>
  <circle cx="91.1" cy="22.4" r="9.6" fill="none" stroke="#fff" stroke-linecap="round" stroke-linejoin="round" stroke-miterlimit="10" stroke-width="3"/>
</svg>
