<svg xmlns="http://www.w3.org/2000/svg" viewBox="0 0 120 120">
  <style>
    .icon-17-0{fill:none;stroke:#bdc5d1}.icon-17-2{fill:none;stroke:#377dff}.icon-17-4{fill:none;stroke:#fff}
  </style>
  <g opacity=".5">
    <path stroke-linecap="round" stroke-linejoin="round" stroke-miterlimit="10" stroke-width="3" d="M90.9 31.3h9.3M105.4 29.4h5.7v3.8h-5.7zM90.9 41.5h9.3M105.4 39.6h5.7v3.8h-5.7zM90.9 51.7h9.3M105.4 49.8h5.7v3.8h-5.7zM90.9 61.9h9.3M105.4 60h5.7v3.8h-5.7z" class="icon-17-0"/>
    <g>
      <path stroke-linecap="round" stroke-linejoin="round" stroke-miterlimit="10" stroke-width="3" d="M90.9 72.1h9.3M105.4 70.2h5.7V74h-5.7z" class="icon-17-0"/>
    </g>
    <g>
      <path stroke-linecap="round" stroke-linejoin="round" stroke-miterlimit="10" stroke-width="3" d="M90.9 82.3h9.3M105.4 80.4h5.7v3.8h-5.7z" class="icon-17-0"/>
    </g>
    <g>
      <path stroke-linecap="round" stroke-linejoin="round" stroke-miterlimit="10" stroke-width="3" d="M90.9 92.5h9.3M105.4 90.6h5.7v3.8h-5.7z" class="icon-17-0"/>
    </g>
  </g>
  <path stroke-linecap="round" stroke-linejoin="round" stroke-miterlimit="10" stroke-width="3" d="M83.4 20.5h35.1v82.8H1.5V20.5h5.2M29.8 20.5h5.8" class="icon-17-0"/>
  <path stroke-linecap="round" stroke-linejoin="round" stroke-miterlimit="10" stroke-width="3" d="M24.3 96.1H12.2c-3 0-5.5-2.5-5.5-5.5V18.1c0-3 2.5-5.5 5.5-5.5h12.1c3 0 5.5 2.5 5.5 5.5v72.5c0 3-2.5 5.5-5.5 5.5zM17.8 96.1v13.2H6.7" class="icon-17-2"/>
  <path fill="#377dff" d="M35.6 10.7h47.8v28.8H35.6z"/>
  <path stroke-linecap="round" stroke-linejoin="round" stroke-miterlimit="10" stroke-width="3" d="M47.9 22.6h8.9M47.9 27.5h3M69.1 22.6h2M41 15.8h36.9v18.6H41z" class="icon-17-4 fill-none stroke-white"/>
  <g>
    <path stroke-linecap="round" stroke-linejoin="round" stroke-miterlimit="10" stroke-width="3" d="M40.3 63.1h9.8v4.1h-9.8z" class="icon-17-2"/>
    <path stroke-linecap="round" stroke-linejoin="round" stroke-miterlimit="10" stroke-width="3" d="M40.3 47h6.4v4.1h-6.4zM51 47h6.4v4.1H51zM61.6 47H68v4.1h-6.4zM72.3 47h6.4v4.1h-6.4zM54.6 63.1h9.8v4.1h-9.8zM68.9 63.1h9.8v4.1h-9.8z" class="icon-17-0" opacity=".5"/>
    <g stroke-linecap="round" stroke-linejoin="round" stroke-miterlimit="10" stroke-width="3" class="icon-17-0" opacity=".5">
      <path d="M40.3 72.3h9.8v4.1h-9.8zM54.6 72.3h9.8v4.1h-9.8zM68.9 72.3h9.8v4.1h-9.8z" class="icon-17-0"/>
    </g>
    <g stroke-linecap="round" stroke-linejoin="round" stroke-miterlimit="10" stroke-width="3" class="icon-17-0" opacity=".5">
      <path d="M40.3 81.6h9.8v4.1h-9.8zM54.6 81.6h9.8v4.1h-9.8zM68.9 81.6h9.8v4.1h-9.8z" class="icon-17-0"/>
    </g>
    <g stroke-linecap="round" stroke-linejoin="round" stroke-miterlimit="10" stroke-width="3" class="icon-17-0" opacity=".5">
      <path d="M40.3 90.9h9.8V95h-9.8zM54.6 90.9h9.8V95h-9.8zM68.9 90.9h9.8V95h-9.8z" class="icon-17-0"/>
    </g>
  </g>
</svg>