<svg xmlns="http://www.w3.org/2000/svg" viewBox="-39 -10 120 120">
  <path fill="none" stroke="#BDC5D1" stroke-linecap="round" stroke-linejoin="round" stroke-miterlimit="10" stroke-width="3" d="M4 12"/>
  <ellipse cx="26.9" cy="59.7" fill="#BDC5D1" opacity=".5" rx="36.7" ry="36.7"/>
  <ellipse cx="21" cy="50.8" fill="#FFF" rx="36.7" ry="36.7"/>
  <path fill="none" stroke="#BDC5D1" stroke-linecap="round" stroke-linejoin="round" stroke-miterlimit="10" stroke-width="3" d="M80.2 50.9c0 11.5-26.5 20.8-59.2 20.8s-59.2-9.3-59.2-20.8c0-6.3 7.9-11.9 20.4-15.7M73.7 41.4c.9.6 1.7 1.3 2.5 1.9"/>
  <path fill="none" stroke="#377DFF" stroke-linecap="round" stroke-linejoin="round" stroke-miterlimit="10" stroke-width="3" d="M18.1 76.3c-.9-.8-1.9-1.6-2.8-2.4-3-2.6-6-5.4-9-8.3C-16.8 42.5-29 17.1-20.9 9"/>
  <path fill="none" stroke="#BDC5D1" stroke-linecap="round" stroke-linejoin="round" stroke-miterlimit="10" stroke-width="3" d="M52.6 32.8h-63.2M21 14.1v48.6M5.8 58.7c-.2-2.5-.3-5.1-.3-7.8 0-20.3 7-36.8 15.5-36.8s15.5 16.5 15.5 36.8c0 2.7-.1 5.3-.3 7.8"/>
  <path fill="none" stroke="#377DFF" stroke-linecap="round" stroke-linejoin="round" stroke-miterlimit="10" stroke-width="3" d="M31.6 15.7c10.1-6.3 19.1-9.6 25.3-9.1"/>
  <ellipse cx="21" cy="50.8" fill="none" stroke="#377DFF" stroke-linecap="round" stroke-linejoin="round" stroke-miterlimit="10" stroke-width="3" rx="36.7" ry="36.7"/>
  <path fill="none" stroke="#377DFF" stroke-linecap="round" stroke-linejoin="round" stroke-miterlimit="10" stroke-width="3" d="M63.5 76.2c2.6 7.5 2.6 13.4-.6 16.6-6.1 6.1-21.8.8-39-11.9M65.4 15.9c.2 14.1-11.2 28.6-19.7 38.7C33.9 68.8 19.5 82 3 90.3c-5.6 2.8-12.3 5.7-18.7 4.9"/>
  <path fill="none" stroke="#BDC5D1" stroke-linecap="round" stroke-linejoin="round" stroke-miterlimit="10" stroke-width="3" d="M42.3 50.5H-.3"/>
  <circle cx="-17.3" cy="90.1" r="7.5" fill="#BDC5D1" opacity=".5"/>
  <circle cx="-21.4" cy="92.8" r="7.5" fill="#377DFF" stroke="#377DFF" stroke-linecap="round" stroke-linejoin="round" stroke-miterlimit="10" stroke-width="3"/>
  <circle cx="-21.4" cy="92.8" r="3.7" fill="#FFF"/>
  <path fill="#BDC5D1" d="M76.2 11.3c0 4.7-3.8 8.6-8.6 8.6S59 16.1 59 11.3s3.8-8.6 8.6-8.6 8.6 3.9 8.6 8.6z" opacity=".5"/>
  <path fill="#377DFF" stroke="#377DFF" stroke-linecap="round" stroke-linejoin="round" stroke-miterlimit="10" stroke-width="2.5" d="M70.8 9.3c0 4.7-3.8 8.6-8.6 8.6s-8.6-3.8-8.6-8.6S57.4.7 62.2.7s8.6 3.9 8.6 8.6z"/>
  <path fill="#FFF" d="M66.6 9.3c0 2.4-2 4.4-4.4 4.4s-4.4-2-4.4-4.4 2-4.4 4.4-4.4 4.4 2 4.4 4.4z"/>
  <path fill="none" stroke="#BDC5D1" stroke-linecap="round" stroke-linejoin="round" stroke-miterlimit="10" stroke-width="3" d="M69 38.7"/>
  <path fill="none" stroke="#377DFF" stroke-linecap="round" stroke-linejoin="round" stroke-miterlimit="10" stroke-width="3" d="M-22.9 80.8"/>
  <path fill="none" stroke="#BDC5D1" stroke-linecap="round" stroke-linejoin="round" stroke-miterlimit="10" stroke-width="3" d="M-20.5 74.4c.6-1.4 2.4-6.2 3.1-7.6M-15.5 6.6c1-.1 3.6-.5 4.8-.4"/>
</svg>