<svg xmlns="http://www.w3.org/2000/svg" viewBox="0 0 120 120">
  <style>
    .icon-16-2{fill:none;stroke:#fff}.icon-16-3{fill:none;stroke:#bdc5d1}
  </style>
  <path fill="#bdc5d1" d="M19.3 28.1C14 33.4 10.9 40.6 11 48.2c.2 10.7 5.1 26.6 24.7 46.2 11.5 11.5 21.5 17.7 29.8 20.7 11.8 4.3 25.1 1.2 34-7.7 1.8-1.8 1.8-4.8 0-6.6L85.2 86.5c-1.8-1.8-4.7-1.8-6.5-.1l-8.6 8s-25.3-9.2-37.6-37.6l7.7-7.7c2.1-2.1 2.1-5.5 0-7.6L26.9 28.1c-2.1-2.1-5.5-2.1-7.6 0z" opacity=".5"/>
  <path fill="#377dff" d="M9 30.9C3.7 36.2.6 43.4.7 51c.2 10.7 5.1 26.6 24.7 46.2 11.5 11.5 21.5 17.7 29.8 20.7 11.8 4.3 25.1 1.2 34-7.7 1.8-1.8 1.8-4.8 0-6.6L74.9 89.2c-1.8-1.8-4.7-1.8-6.5-.1l-8.6 8s-25.3-9.2-37.6-37.6l7.7-7.7c2.1-2.1 2.1-5.5 0-7.6L16.6 30.9c-2.1-2.1-5.5-2.1-7.6 0z"/>
  <path stroke-linecap="round" stroke-linejoin="round" stroke-miterlimit="10" stroke-width="3" d="M9 32.2l14.4 14.4M88.7 111.9L74 97.2M61.3 97.1l-5.2 5.3S47.2 99.5 37.4 90M32.5 84.9s-3.7-3.9-5.9-7.7" class="icon-16-2"/>
  <path stroke-linecap="round" stroke-linejoin="round" stroke-miterlimit="10" stroke-width="3" d="M64.3 1.7c1.7-.1 3.3-.1 5 0" class="icon-16-3"/>
  <path stroke-dasharray="11.2267,11.2267" stroke-linecap="round" stroke-linejoin="round" stroke-miterlimit="10" stroke-width="3" d="M80.4 3.5c5.3 1.5 10.5 3.8 15.3 6.9" class="icon-16-3"/>
  <path stroke-linecap="round" stroke-linejoin="round" stroke-miterlimit="10" stroke-width="3" d="M100.2 13.8c1.3 1.1 2.5 2.2 3.7 3.4M103.9 17.1c19.2 19.2 19.2 50.4 0 69.7M28.9 17.1c9.8-9.8 22.5-15 35.4-15.5M97.5 71.1l-3.8-1.9M101.5 49.1l-4.1 1M49.4 23.1l1.7 5.4M71.4 19l-1 4.1M91.9 29.2l-4.6 4.6" class="icon-16-3"/>
  <path fill="none" stroke="#377dff" stroke-linecap="round" stroke-linejoin="round" stroke-miterlimit="10" stroke-width="3" d="M41.2 29.2c14-14 36.6-14 50.6 0s14 36.6 0 50.6"/>
  <path stroke-linecap="round" stroke-linejoin="round" stroke-miterlimit="10" stroke-width="3" d="M53.7 66.9h9.2M55.4 54.1h5.3M72.4 54.1h5.3M53.7 41.1h9.2M53.7 57.2v6.5M80.3 55.5v10.8M80.3 41.1v10.7M69.6 41.1v10.7M62.9 44.8v6.7M107.9 38.6s5.5 11.5.8 25.9M42.1 17.4s3.4-2.6 7.3-3.6M104.2 31.8l-3.4-5.3" class="icon-16-3"/>
</svg>
