<svg xmlns="http://www.w3.org/2000/svg" viewBox="-39 -10 120 120">
  <path fill="#BDC5D1" d="M73.1-1.6h-89.4c-3.4 0-6.1 2.8-6.1 6.1v23.4c0 3.4 2.8 6.1 6.1 6.1h5.1v10L4.5 34h13.6l10.3 10.3L38.8 34h13.6L68 44V34h5.1c3.4 0 6.1-2.8 6.1-6.1V4.5c0-3.4-2.7-6.1-6.1-6.1z" opacity=".5"/>
  <path fill="#377DFF" d="M65.7-7.4h-89.4c-3.4 0-6.1 2.8-6.1 6.1v23.4c0 3.4 2.8 6.1 6.1 6.1h5.1v10l15.7-10h13.6L21 38.6l10.3-10.3h13.6l15.7 10v-10h5.1c3.4 0 6.1-2.8 6.1-6.1V-1.3c0-3.3-2.7-6.1-6.1-6.1z"/>
  <g fill="none" stroke-linecap="round" stroke-linejoin="round" stroke-miterlimit="10" stroke-width="3">
    <path stroke="#BDC5D1" d="M67.4 66.8c.4-1.2.6-2.6.6-3.9 0-6.6-4.7-11.5-10.5-11.5S47 56.3 47 62.9c0 1.4.2 2.7.6 3.9-.8.5-1.4 1.5-1.4 2.6 0 1.4.9 2.6 2.2 3 1.5 4.5 5 7.7 9.1 7.7s7.6-3.2 9.1-7.7c1.3-.4 2.2-1.5 2.2-3-.1-1.1-.6-2-1.4-2.6z"/>
    <path stroke="#BDC5D1" d="M62.6 61l-.5-2.6s-1.1 0-2.9 1.6c-3.7 3.4-7.9.7-7.9.7M66.6 85.9l10 4.2c1.9.9 2.6 2.8 2.6 4.7v7.2"/>
    <path stroke="#377DFF" d="M57.6 87.4l3.8 4.4 5.2-5.7-2.2-3.9"/>
    <path stroke="#BDC5D1" d="M48.5 85.9l-9.8 4c-.6.4-1.1.9-1.6 1.5-.7.9-1 2-1 3.2v7.4"/>
    <path stroke="#377DFF" d="M57.6 87.4l-3.9 4.4-5.2-5.7 2.2-3.9M64.4 82.2l-6.8 5.2M50.7 82.2l6.9 5.2"/>
    <path stroke="#BDC5D1" d="M79.2 102c-6.1 3.4-13.5 5.4-21.5 5.4s-15.4-2-21.5-5.4"/>
  </g>
  <g fill="none" stroke-linecap="round" stroke-linejoin="round" stroke-miterlimit="10" stroke-width="3">
    <path stroke="#BDC5D1" d="M30.7 60.2c.4-1.2.6-2.6.6-3.9 0-6.6-4.7-11.5-10.5-11.5s-10.5 4.9-10.5 11.5c0 1.4.2 2.7.6 3.9-.8.5-1.4 1.5-1.4 2.6 0 1.4.9 2.6 2.2 3 1.5 4.5 5 7.7 9.1 7.7s7.6-3.2 9.1-7.7c1.3-.4 2.2-1.5 2.2-3 0-1.1-.6-2.1-1.4-2.6z"/>
    <path stroke="#BDC5D1" d="M26 54.4l-.5-2.6s-1.1 0-2.9 1.6c-3.7 3.4-7.9.7-7.9.7M29.9 79.3l10 4.2c1.9.9 2.6 2.8 2.6 4.7"/>
    <path stroke="#377DFF" d="M20.9 80.8l3.9 4.3 5.2-5.6-2.3-3.9"/>
    <path stroke="#BDC5D1" d="M11.9 79.3l-9.8 4c-.6.4-1.1.9-1.6 1.5-.7.9-1 2-1 3.2"/>
    <path stroke="#377DFF" d="M20.9 80.8L17 85.1l-5.2-5.6 2.3-3.9M27.7 75.6l-6.8 5.2M14.1 75.6l6.8 5.2"/>
    <path stroke="#BDC5D1" d="M36.2 98.2c-4.6 1.6-9.8 2.5-15.2 2.5-5.5 0-10.6-.9-15.3-2.6"/>
  </g>
  <g fill="none" stroke-linecap="round" stroke-linejoin="round" stroke-miterlimit="10" stroke-width="3">
    <path stroke="#BDC5D1" d="M-6 66.8c.4-1.2.6-2.6.6-3.9 0-6.6-4.7-11.5-10.5-11.5s-10.5 4.9-10.5 11.5c0 1.4.2 2.7.6 3.9-.8.5-1.4 1.5-1.4 2.6 0 1.4.9 2.6 2.2 3 1.5 4.5 5 7.7 9.1 7.7s7.6-3.2 9.1-7.7c1.3-.4 2.2-1.5 2.2-3 0-1.1-.6-2-1.4-2.6z"/>
    <path stroke="#BDC5D1" d="M-10.7 61l-.5-2.6s-1.1 0-2.9 1.6c-3.7 3.4-7.9.7-7.9.7M-6.8 85.9l10 4.2c1.9.9 2.6 2.8 2.6 4.7v7.2"/>
    <path stroke="#377DFF" d="M-15.8 87.4l3.9 4.4 5.2-5.7-2.2-3.9"/>
    <path stroke="#BDC5D1" d="M-24.8 85.9l-9.8 4c-.6.4-1.1.9-1.6 1.5-.7.9-1 2-1 3.2v7.4"/>
    <path stroke="#377DFF" d="M-15.8 87.4l-3.8 4.4-5.2-5.7 2.2-3.9M-8.9 82.2l-6.9 5.2M-22.6 82.2l6.8 5.2"/>
    <path stroke="#BDC5D1" d="M5.8 102c-6.1 3.4-13.5 5.4-21.5 5.4s-15.4-2-21.5-5.4"/>
  </g>
  <path fill="none" stroke="#FFF" stroke-linecap="round" stroke-linejoin="round" stroke-miterlimit="10" stroke-width="3" d="M21.4-.9L10.2 15.8h10.3L19.1 27l12.7-17H20.5z"/>
  <g fill="none" stroke="#FFF" stroke-linecap="round" stroke-linejoin="round" stroke-miterlimit="10" stroke-width="3" opacity=".5">
    <path d="M42.6 4.6h15.1M42.6 11.2h15.1M42.6 17.8h6.2"/>
    <g>
      <path d="M-15.7 4.6H-.6M-15.7 11.2H-.6M-15.7 17.8h6.2"/>
    </g>
  </g>
</svg>