<svg xmlns="http://www.w3.org/2000/svg" viewBox="-39 -10 120 120">
  <path fill="none" stroke="#377DFF" stroke-linecap="round" stroke-linejoin="round" stroke-miterlimit="10" stroke-width="3" d="M49.1 100.7h19.3"/>
  <path fill="#BDC5D1" d="M-14.4 46.6h93.1c.8 0 1.5.7 1.5 1.5v60.1c0 .8-.7 1.5-1.5 1.5h-91.6c-.8 0-1.5-.7-1.5-1.5V46.6" opacity=".3"/>
  <path fill="#FFF" stroke="#BDC5D1" stroke-linecap="round" stroke-linejoin="round" stroke-miterlimit="10" stroke-width="3" d="M68.7 45.3v63.1h-94.5V45.3"/>
  <path fill="#BDC5D1" d="M1.8 45.4v35.2l3-3c1-1 2.5-1 3.5 0l.9 1c1.1 1.2 2.8 1 3.8-.3 1-1.4 2.7-1.5 3.8-.3l2.7 2.7V45.4" opacity=".5"/>
  <path fill="#377DFF" stroke="#377DFF" stroke-linecap="round" stroke-linejoin="round" stroke-miterlimit="10" stroke-width="3" d="M-4.9 45.4v28.1l3-2.4c1-.8 2.5-.8 3.5 0l.9.8c1.1.9 2.8.8 3.8-.3s2.7-1.2 3.8-.3l2.7 2.2V45.4"/>
  <path fill="none" stroke="#377DFF" stroke-linecap="round" stroke-linejoin="round" stroke-miterlimit="10" stroke-width="3" d="M13.2 95.5H-5.2M13.2 89.5H7.3M2.5 89.5h-7.7"/>
  <path fill="none" stroke="#FFF" stroke-linecap="round" stroke-linejoin="round" stroke-miterlimit="10" stroke-width="3" d="M-.4 45.4v16.3"/>
  <path fill="none" stroke="#BDC5D1" stroke-linecap="round" stroke-linejoin="round" stroke-miterlimit="10" stroke-width="3" d="M36.3 45.3v42.2M36.3 96.1v12.3M26.9 45.3h-52.7l-10.8-23.1h62l10.8 23.1h19.3M44.8 26.6H27.5M21.4 28.2h-46.9M76.8 28.2H51.1"/>
  <path fill="none" stroke="#377DFF" stroke-linecap="round" stroke-linejoin="round" stroke-miterlimit="10" stroke-width="3" d="M62 21.7c0-1.3.2-2.5.5-3.7"/>
  <path fill="none" stroke="#BDC5D1" stroke-linecap="round" stroke-linejoin="round" stroke-miterlimit="10" stroke-width="3" d="M60.9 45.3h7.7l10.8-23.1H47.1L36.3 45.3"/>
  <path fill="none" stroke="#377DFF" stroke-linecap="round" stroke-linejoin="round" stroke-miterlimit="10" stroke-width="3" d="M-31.4-3.4c-2-.3-4-.4-6.1-.4M-10.4 15.9c-1-6.8-5.7-13-11.7-16.3M66.3 9.6c2.4-2.7 5.9-4 9.5-4"/>
  <path fill="#BDC5D1" d="M31.1 17v-4.2c3.1-1.9 5.1-5.3 5.1-9.1 0-6-4.8-10.8-10.8-10.8S14.6-2.2 14.6 3.7c0 3.9 2 7.2 5.1 9.1V17" opacity=".5"/>
  <path fill="#377DFF" d="M27.1 14.4v-4.2c3.1-1.9 5.1-5.3 5.1-9.1 0-6-4.8-10.8-10.8-10.8S10.7-4.9 10.7 1.1c0 3.9 2 7.2 5.1 9.1v4.2"/>
  <path fill="#FFF" d="M23.5 5.6V4c1.1-.7 1.9-1.9 1.9-3.4 0-2.2-1.8-4-4-4s-4 1.8-4 4c0 1.4.8 2.7 1.9 3.4v1.5"/>
</svg>