<svg xmlns="http://www.w3.org/2000/svg" viewBox="-39 0 120 120">
  <path fill="none" stroke="#377DFF" stroke-linecap="round" stroke-linejoin="round" stroke-miterlimit="10" stroke-width="3" d="M-32.3 100.8l-5.4 5.4M-29.6 111.2l-2.4 2.3"/>
  <circle cx="47.2" cy="41.8" r="17.1" fill="#BDC5D1" opacity=".5"/>
  <circle cx="45.4" cy="36.2" r="17.1" fill="#377DFF"/>
  <path fill="none" stroke="#FFF" stroke-linecap="round" stroke-linejoin="round" stroke-miterlimit="10" stroke-width="3" d="M42.7 25.1c2-.5 4.1-.4 6.1.2M37.3 44.3c-4.5-4.5-4.5-11.7 0-16.2"/>
  <g fill="none" stroke="#BDC5D1" stroke-linecap="round" stroke-linejoin="round" stroke-miterlimit="10" stroke-width="3">
    <path d="M3.5 42.2c-9.8-1.6-20.2 1.4-27.8 9-3 3-5.2 6.4-6.8 10 7-1.3 15.1-1.5 23.8-.4 2.8-6.4 6.4-12.7 10.8-18.6zM21.4 106.4c-.1.5-.6 4-.7 4.4-.1.6-.2 1.3-.3 1.9 3.6-1.6 7.1-3.8 10-6.8C38 98.3 41 88 39.4 78.1c-6 4.4-12.2 8-18.6 10.7.6 4.7.8 9.2.7 13.5"/>
  </g>
  <g fill="none" stroke="#BDC5D1" stroke-linecap="round" stroke-linejoin="round" stroke-miterlimit="10" stroke-width="3">
    <path d="M13.1 73.8c4.8 4.4 9.9 8 15.4 11.1M-3.3 53c3 5.4 6.7 10.6 11.1 15.4"/>
  </g>
  <path fill="none" stroke="#BDC5D1" stroke-linecap="round" stroke-linejoin="round" stroke-miterlimit="10" stroke-width="3" d="M-5 86.6c-1.5-1.5-1.5-3.9 0-5.4l20-20c1.5-1.5 3.9-1.5 5.4 0 1.5 1.5 1.5 3.9 0 5.4l-20 20c-1.5 1.5-3.9 1.5-5.4 0z"/>
  <g fill="none" stroke="#BDC5D1" stroke-linecap="round" stroke-linejoin="round" stroke-miterlimit="10" stroke-width="3">
    <path d="M7.7 79.2c4.1 3.7 8.4 6.9 12.9 9.7 10.9-4.7 21.5-11.8 30.9-21.2 19.3-19.3 29-43.9 28.1-65.8C57.7 1 33.2 10.7 13.8 30 4.4 39.4-2.6 50-7.4 60.9c2.8 4.5 6 8.9 9.7 12.9"/>
    <path d="M55.8 4.9c2.6 4.3 5.6 8.2 9.2 11.7 3.6 3.6 7.5 6.6 11.7 9.1"/>
  </g>
  <path fill="none" stroke="#377DFF" stroke-linecap="round" stroke-linejoin="round" stroke-miterlimit="10" stroke-width="3" d="M16.8 93.9c-3.4-2.1-6.8-4.6-10.1-7.4l-3.3 3.3c-3.1 3.1-8.2 3.1-11.3 0-3.1-3.1-3.1-8.2 0-11.3l3.3-3.3c-2.9-3.4-5.5-7-7.8-10.6-2.9 1.6-5.8 3.7-8.4 6.4-7.5 7.5-11 17-9.6 24.1 1.5.3 3.1.4 4.8.3-1.4 4.5-1.7 8.8-.9 12.6 3.8.8 8.2.4 12.6-.9-.1 1.7-.1 3.3.3 4.8 7.1 1.5 16.6-2 24.1-9.6 2.6-2.5 4.7-5.4 6.3-8.4z"/>
  <g fill="none" stroke-linecap="round" stroke-linejoin="round" stroke-miterlimit="10" stroke-width="3">
    <path stroke="#377DFF" d="M-19.6 55l-9.3 9.3"/>
    <path stroke="#BDC5D1" d="M-22.7 65.8l-6.9 6.9M-33.5 68.9l-1.5 1.5"/>
    <path stroke="#377DFF" d="M26.5 101.2l-14.8 14.9"/>
    <path stroke="#BDC5D1" d="M15.8 104.3l-7 6.9M4.2 115.8l-2.3 2.4"/>
  </g>
</svg>