<svg xmlns="http://www.w3.org/2000/svg" viewBox="0 0 120 120">
  <style>
    .icon-2-0{fill:none;stroke:#377dff}.icon-2-1{fill:none;stroke:#bdc5d1}
  </style>
  <path stroke-linecap="round" stroke-linejoin="round" stroke-miterlimit="10" stroke-width="3" d="M15.1 75.6V11l4.4-4.3 4.3 4.3 4.3-4.3 4.3 4.3 4.3-4.3L41 11l4.3-4.3 4.3 4.3 4.3-4.3 4.3 4.3 4.3-4.3 4.3 4.3 4.3-4.3 4.3 4.3 4.3-4.3L84 11l5-4.3 4.4 4.3v96.5c0 3.2 2.6 5.8 5.8 5.8 3.2 0 5.8-2.6 5.8-5.8V13.2h-5.8v93.1M99.1 113.3h-73" class="icon-2-1"/>
  <path fill="#bdc5d1" d="M78.1 44.5H39.2c-4.1 0-7.3-3.3-7.3-7.3 0-4.1 3.3-7.3 7.3-7.3h38.9c4.1 0 7.3 3.3 7.3 7.3.1 4-3.2 7.3-7.3 7.3z" opacity=".5"/>
  <path fill="#377dff" d="M73.1 38H34.2c-4.1 0-7.3-3.3-7.3-7.3 0-4.1 3.3-7.3 7.3-7.3h38.9c4.1 0 7.3 3.3 7.3 7.3.1 4-3.2 7.3-7.3 7.3z"/>
  <path fill="#fff" d="M65.4 32.3H41.9c-.9 0-1.6-.7-1.6-1.6 0-.9.7-1.6 1.6-1.6h23.5c.9 0 1.6.7 1.6 1.6 0 .8-.7 1.6-1.6 1.6z"/>
  <g opacity=".5">
    <path stroke-linecap="round" stroke-linejoin="round" stroke-miterlimit="10" stroke-width="3" d="M3.8 86h29.3M3.8 93.5h29.3M3.8 101.1h14.5M27.3 101.1h5.8" class="icon-2-1"/>
  </g>
  <path stroke-linecap="round" stroke-linejoin="round" stroke-miterlimit="10" stroke-width="3" d="M54.4 90.6v12.2M62.3 87.1v15.7M70.3 89.7v13.1M78.3 81.8v21" class="icon-2-1" opacity=".5"/>
  <path stroke-linecap="round" stroke-linejoin="round" stroke-miterlimit="10" stroke-width="3" d="M50.6 86l13.6-10.4 4.8 5.7 11.9-10.1" class="icon-2-0"/>
</svg>