<svg xmlns="http://www.w3.org/2000/svg" viewBox="-39 -10 120 120">
  <path fill="none" stroke="#377DFF" stroke-linecap="round" stroke-linejoin="round" stroke-miterlimit="10" stroke-width="3" d="M5.9 88H36v11.4H5.9z"/>
  <path fill="none" stroke="#BDC5D1" stroke-linecap="round" stroke-linejoin="round" stroke-miterlimit="10" stroke-width="3" d="M43.9 106.1V81.3H-1.9v24.8"/>
  <path fill="none" stroke="#377DFF" stroke-linecap="round" stroke-linejoin="round" stroke-miterlimit="10" stroke-width="3" d="M57.3 106.5h-72.6"/>
  <path fill="#BDC5D1" stroke="#BDC5D1" stroke-linecap="round" stroke-linejoin="round" stroke-miterlimit="10" stroke-width="3" d="M26 12l5.3 10.9 12 1.7-8.7 8.4 2.1 12L26 39.3 15.3 45l2-12-8.6-8.4 11.9-1.7z" opacity=".5"/>
  <path fill="#377DFF" stroke="#377DFF" stroke-linecap="round" stroke-linejoin="round" stroke-miterlimit="10" stroke-width="3" d="M21 7.1l5.3 10.8 12 1.8-8.6 8.4 2 11.9L21 34.4 10.3 40l2-11.9-8.6-8.4 12-1.8z"/>
  <path fill="#FFF" d="M21 16.3l2.4 4.8 5.3.7-3.9 3.7.9 5.3-4.7-2.5-4.7 2.5.9-5.3-3.9-3.7 5.3-.7z"/>
  <path fill="none" stroke="#377DFF" stroke-linecap="round" stroke-linejoin="round" stroke-miterlimit="10" stroke-width="3" d="M2.8 48.9c.6 1 1.4 2.1 2.3 3.1"/>
  <path fill="none" stroke="#BDC5D1" stroke-linecap="round" stroke-linejoin="round" stroke-miterlimit="10" stroke-width="3" d="M14.9 81.2v-1.9c0-5.5-2.6-10.6-7-13.9C-3 57.1-14.3 43.6-14.3 22V-6.5H55L54.9 22c0 18.4-10.8 35.4-21.9 43.5-4.5 3.3-7.2 8.5-7.2 14.1v1.6"/>
  <path fill="none" stroke="#BDC5D1" stroke-linecap="round" stroke-linejoin="round" stroke-miterlimit="10" stroke-width="3" d="M-8.2 47.4c-20.3 0-29.6-16.8-29.6-37.4V5.5c0-1.9 1.1-3.5 2.5-3.5h21M48.5 47.4c21.7 0 31.3-16.8 31.3-37.4V5.5c0-1.9-1.1-3.5-2.5-3.5h-22"/>
  <path fill="none" stroke="#377DFF" stroke-linecap="round" stroke-linejoin="round" stroke-miterlimit="10" stroke-width="3" d="M-5.4 22.2c.3 6.6 1.6 13.2 4.1 19.1"/>
</svg>