<svg xmlns="http://www.w3.org/2000/svg" viewBox="36 -36 120 120">
  <g fill="none" stroke="#377DFF" stroke-linecap="round" stroke-linejoin="round" stroke-miterlimit="10" stroke-width="3">
    <path d="M103.7 31.4c1.3 1.7 3.3 2.8 5.6 2.8 3.8 0 6.9-3.1 6.9-6.9 0-3.8-3.1-6.9-6.9-6.9h-.1c-3 0-5.3-2.4-5.3-5.3 0-3 2.4-5.3 5.3-5.3 1.8 0 3.3.9 4.3 2.2M109.2 9.7v-3M109.2 37.2v-3"/>
  </g>
  <g fill="none" stroke="#BDC5D1" stroke-linecap="round" stroke-linejoin="round" stroke-miterlimit="10" stroke-width="3">
    <path d="M101.3-12.7v-8.2M118.7-20.9v8.2"/>
  </g>
  <path fill="#377DFF" d="M95.1-35.1h29.8c.8 0 1.3.8 1 1.5l-5.7 11.9c-.2.4-.6.6-1 .6h-18.4c-.4 0-.8-.2-1-.6l-5.7-11.9c-.3-.7.2-1.5 1-1.5z"/>
  <path fill="none" stroke="#BDC5D1" stroke-linecap="round" stroke-linejoin="round" stroke-miterlimit="10" stroke-width="3" d="M137.5 52.3c1.3-2.2 2.1-4.7 2.1-7.5V15.6c0-13.3-8.8-24.6-20.9-28.3h-17.4C89.2-9 80.4 2.3 80.4 15.6v24.7"/>
  <g fill="none" stroke="#FFF" stroke-linecap="round" stroke-linejoin="round" stroke-miterlimit="10" stroke-width="3">
    <path d="M112.9-24.3l2.4-6.3M107.1-24.3l-2.5-6.3"/>
  </g>
  <g fill="none" stroke="#BDC5D1" stroke-linecap="round" stroke-linejoin="round" stroke-miterlimit="10" stroke-width="3">
    <path d="M122.9 23.3h1.8M95.3 23.3H97"/>
  </g>
  <path fill="#BDC5D1" d="M126.7 57.8L148 52c2.6-.7 5.3.7 6.2 3.3.7 2.3-.2 5.1-2.6 6.2l-41.3 20.7c-4.6 2.2-9.9 2.5-14.4.5L73 72.9H62.7c-.7 0-1.3-.6-1.3-1.3v-8l65.3-5.8z" opacity=".5"/>
  <path fill="#FFF" stroke="#BDC5D1" stroke-linecap="round" stroke-linejoin="round" stroke-miterlimit="10" stroke-width="3" d="M113.8 50.3l34.3-7.1c2.6-.7 5.3.7 6.2 3.3.7 2.3-.2 5.1-2.6 6.2l-41.3 20.7c-4.6 2.2-9.9 2.5-14.4.5l-23-9.8H61.5"/>
  <path fill="#FFF" stroke="#BDC5D1" stroke-linecap="round" stroke-linejoin="round" stroke-miterlimit="10" stroke-width="3" d="M61.3 31.5h11.6L97.3 39h14.3c3.3 0 6 2.7 6 6 0 3.1-2.5 5.5-5.5 5.5H97.3c-3.2 0-5.8 2.6-5.8 5.8"/>
  <path fill="#377DFF" d="M37.9 68.2h21.7c1 0 1.7-.7 1.7-1.7V29.1c0-1-.7-1.7-1.7-1.7H37.9c-1 0-1.7.7-1.7 1.7v37.3c0 .9.7 1.8 1.7 1.8z"/>
  <path fill="none" stroke="#FFF" stroke-linecap="round" stroke-linejoin="round" stroke-miterlimit="10" stroke-width="3" d="M49.8 42.8v3.8"/>
</svg>