<svg xmlns="http://www.w3.org/2000/svg" viewBox="-39 -10 120 120">
  <circle cx="43.2" cy="82.3" r="27.2" fill="#BDC5D1" opacity=".5"/>
  <circle cx="33.2" cy="73.8" r="27.2" fill="#377DFF"/>
  <path fill="#FFF" d="M37.4 72.9c1.3.4 2.3 1.1 3.2 2 .9 1 1.5 2.1 1.8 3.3s.2 2.6-.2 3.9c-.5 1.4-1.4 2.6-2.7 3.4-1.3.8-2.7 1.3-4.2 1.3v3.1c0 .3-.1.6-.3.7s-.4.3-.7.3h-2.1c-.3 0-.6-.1-.7-.3s-.3-.4-.3-.7v-3.1c-2.1 0-4-.6-5.6-1.9-.2-.2-.3-.5-.4-.8 0-.3.1-.6.3-.8l2.2-2.2.6-.3c.2 0 .5 0 .7.2.6.4 1.4.6 2.2.6h4.3c.5 0 1-.2 1.3-.6.4-.4.6-.8.6-1.4 0-.4-.1-.8-.4-1.1-.3-.3-.6-.6-1-.7L29.3 76c-1.5-.4-2.7-1.2-3.7-2.3-1-1.1-1.6-2.4-1.8-3.9-.1-1.4.2-2.7.8-3.9s1.5-2.1 2.6-2.9c1.1-.7 2.4-1.1 3.8-1.1h.1v-3.1c0-.3.1-.6.3-.7s.4-.3.7-.3h2.1c.3 0 .6.1.7.3s.3.4.3.7v3.1c2.1 0 3.9.6 5.6 1.9.3.2.4.5.5.8 0 .3-.1.6-.3.8l-2.2 2.3-.6.3c-.2 0-.5 0-.7-.1-.6-.5-1.4-.7-2.2-.7H31c-.5 0-1 .2-1.3.6-.4.4-.6.8-.6 1.4 0 .4.1.8.4 1.1.3.3.6.6 1 .7l6.9 1.9z"/>
  <path fill="none" stroke="#BDC5D1" stroke-linecap="round" stroke-linejoin="round" stroke-miterlimit="10" stroke-width="3" d="M-.6 71.7h-31.3c-2.7 0-5-2.2-5-5V-2.5c0-2.7 2.2-5 5-5h106c2.7 0 5 2.2 5 5v69.2c0 2.7-2.2 5-5 5"/>
  <ellipse cx="-3.7" cy="2.6" fill="none" stroke="#BDC5D1" stroke-linecap="round" stroke-linejoin="round" stroke-miterlimit="10" stroke-width="3" opacity=".5" rx="3.1" ry="3.1"/>
  <circle cx="-15.4" cy="2.6" r="3.1" fill="none" stroke="#BDC5D1" stroke-linecap="round" stroke-linejoin="round" stroke-miterlimit="10" stroke-width="3" opacity=".5"/>
  <circle cx="-27" cy="2.6" r="3.1" fill="none" stroke="#377DFF" stroke-linecap="round" stroke-linejoin="round" stroke-width="3"/>
  <path fill="none" stroke="#377DFF" stroke-linecap="round" stroke-linejoin="round" stroke-width="3" d="M-24.3 53.8L4.3 38.1l5.3 5.8 22.6-13.8 7.3 8.4 31.9-26.9"/>
  <path fill="none" stroke="#377DFF" stroke-linecap="round" stroke-linejoin="round" stroke-width="3" d="M62.3 13.6l9.1-2-3 8.6"/>
  <path fill="none" stroke="#BDC5D1" stroke-linecap="round" stroke-linejoin="round" stroke-width="3" d="M44.5 24.8V7.3h5.8v12.3M21.8 29V13.6h5.7v11.2M10.4 35.4v-9.1h5.7v5.9M-1 33.3V22h5.7v8.1m-17.1 9.5v-8h5.7v4.8m39.9-12.8v-5.8h5.7v10.1" opacity=".5"/>
</svg>