<svg xmlns="http://www.w3.org/2000/svg" viewBox="-39 -10 120 120">
  <circle cx="23.6" cy="52.7" r="23.4" fill="#BDC5D1" opacity=".5"/>
  <circle cx="19.6" cy="44.2" r="23.4" fill="#377DFF"/>
  <circle cx="19.6" cy="44.2" r="9.8" fill="none" stroke="#FFF" stroke-miterlimit="10" stroke-width="3"/>
  <path fill="none" stroke="#377DFF" stroke-linecap="round" stroke-linejoin="round" stroke-miterlimit="10" stroke-width="3" d="M-11.3 93.1l-11.1 16.1h-8.4L-20 85.6M53.4 93.1l11 16.1h8.4L62 85.6"/>
  <circle cx="21" cy="47.2" r="40.9" fill="none" stroke="#BDC5D1" stroke-linecap="round" stroke-linejoin="round" stroke-miterlimit="10" stroke-width="3"/>
  <path fill="none" stroke="#BDC5D1" stroke-linecap="round" stroke-linejoin="round" stroke-miterlimit="10" stroke-width="3" d="M69 18c5.2 8.5 8.2 18.5 8.2 29.2 0 31-25.1 56.1-56.1 56.1s-56.3-25.1-56.3-56.1S-10-8.9 21-8.9c10.5 0 20.4 2.9 28.8 8"/>
  <path fill="none" stroke="#BDC5D1" stroke-linecap="round" stroke-linejoin="round" stroke-miterlimit="10" stroke-width="3" d="M19.6 44.3l39-38.9 1.5-1.5"/>
  <path fill="#BDC5D1" d="M55.4 14.9h10.4L77.1 3.5l-8.9-1.4-1.5-9L55.4 4.4v10.5" opacity=".5"/>
  <path fill="#377DFF" d="M51.4 12.6h10.5L73.2 1.2l-9-1.5-1.4-8.9L51.4 2.1v10.5"/>
  <path fill="none" stroke="#FFF" stroke-linecap="round" stroke-linejoin="round" stroke-miterlimit="10" stroke-width="3" d="M59.2-1.2l-.9-5.5"/>
  <path fill="none" stroke="#377DFF" stroke-linecap="round" stroke-linejoin="round" stroke-miterlimit="10" stroke-width="3" d="M.2 3c.6-.3 1.2-.5 1.8-.8M-15.8 15.1c3.5-4 7.6-7.4 12.2-10.1"/>
</svg>