<svg xmlns="http://www.w3.org/2000/svg" xmlns:xlink="http://www.w3.org/1999/xlink" viewBox="-39 0 120 120">
  <path fill="#BDC5D1" stroke="#BDC5D1" stroke-linecap="round" stroke-linejoin="round" stroke-miterlimit="10" stroke-width="3" d="M60.8 100.9c-7.4 7.8-16.6 13.9-26.9 17.6C7.2 109-12 83.6-12 53.9V28.6l45.8-15.2 45.8 15.2v25.3c0 9.2-1.8 18-5.2 26 .1 0-5.8 13.9-13.6 21z" opacity=".4"/>
  <path fill="#FFF" stroke="#BDC5D1" stroke-linecap="round" stroke-linejoin="round" stroke-miterlimit="10" stroke-width="3" d="M43.4 98.9c-8.3 8.7-18.5 15.5-30 19.6-29.6-10.5-51-38.8-51-71.9V18.3l51-16.9 51 16.9v28.2c0 10.2-2.1 20-5.8 29 .1 0-6.4 15.5-15.2 23.4z"/>
  <path fill="#BDC5D1" stroke="#BDC5D1" stroke-linecap="round" stroke-linejoin="round" stroke-miterlimit="10" stroke-width="3" d="M13.4 1.5v117c11.5-4.1 21.8-10.9 30-19.6 8.7-7.9 15.3-23.4 15.3-23.4 3.7-8.9 5.8-18.7 5.8-29V18.3L13.4 1.5z" opacity=".2"/>
  <circle cx="11.8" cy="57.5" r="28.8" fill="#377DFF"/>
  <defs>
    <circle id="a" cx="11.8" cy="57.5" r="28.8"/>
  </defs>
  <clipPath id="b">
    <use overflow="visible" xlink:href="#a"/>
  </clipPath>
  <circle cx="11.5" cy="86.2" r="21.7" fill="#FFF" clip-path="url(#b)"/>
  <g>
    <circle cx="11.8" cy="57.5" r="28.8" fill="none"/>
  </g>
  <circle cx="11.8" cy="46.7" r="8.3" fill="#FFF"/>
</svg>