<svg xmlns="http://www.w3.org/2000/svg" viewBox="-39 0 120 120">
  <path fill="none" stroke="#BDC5D1" stroke-linecap="round" stroke-linejoin="round" stroke-miterlimit="10" stroke-width="3" d="M60.8 26.9l6.7-2.8M8.1 26.9l-6.7-2.8M60.8 48.7l6.7 2.8M8.1 48.7l-6.7 2.8M45.4 11.5l2.7-6.7M20.8 4.8l2.7 6.7M9.2 12.5l5.1 5.1M59.7 12.5l-5.1 5.1M9.2 63.1l5.1-5.1M59.7 63.1L54.6 58M34.5 2.1v7.2M63 37.8h7.2M-1.3 37.8H6M45.3 96.7L62.6 92c2.1-.6 4.3.6 5 2.7.6 1.9-.2 4.1-2.1 5L32 116.5c-3.7 1.8-8 2-11.7.4L1.7 109h-9.4M-7.8 82.5h9.4l19.8 6.1H33c2.7 0 4.9 2.2 4.9 4.9 0 2.5-2 4.5-4.5 4.5h-12c-2.6 0-4.7 2.1-4.7 4.7"/>
  <path fill="#377DFF" d="M-26.8 112.3h17.6c.8 0 1.4-.6 1.4-1.4V80.6c0-.8-.6-1.4-1.4-1.4h-17.6c-.8 0-1.4.6-1.4 1.4v30.3c0 .7.6 1.4 1.4 1.4z"/>
  <path fill="none" stroke="#BDC5D1" stroke-linecap="round" stroke-linejoin="round" stroke-miterlimit="10" stroke-width="3" d="M45.1 62.6v-7.8c5.7-3.6 9.5-9.8 9.5-17 0-11.1-9-20.1-20.1-20.1s-20.1 9-20.1 20.1c0 7.2 3.8 13.5 9.5 17v7.8"/>
  <path fill="none" stroke="#377DFF" stroke-linecap="round" stroke-linejoin="round" stroke-miterlimit="10" stroke-width="3" d="M34.5 55.4v14.3M45.1 69.7H23.8M29.4 77.9h10.1"/>
  <path fill="none" stroke="#FFF" stroke-linecap="round" stroke-linejoin="round" stroke-miterlimit="10" stroke-width="3" d="M-17.2 85.7v3.1"/>
  <circle cx="37.8" cy="40.8" r="10.6" fill="#BDC5D1" opacity=".5"/>
  <circle cx="34.2" cy="36.7" r="10.6" fill="#377DFF"/>
  <path fill="none" stroke="#FFF" stroke-linecap="round" stroke-linejoin="round" stroke-miterlimit="10" stroke-width="3" d="M34.2 41.7v-2M34.2 34.1"/>
</svg>