<svg xmlns="http://www.w3.org/2000/svg" id="Layer_1" viewBox="417 -310 905 685">
  <style>
    .st1{fill:#377dff}.st2{fill:#f8fafd}.st4{fill:#de4437}.st7{fill:none;stroke:#1e2022;stroke-width:2;stroke-miterlimit:10}.st15{opacity:.1;enable-background:new}.st16{fill:#f2b08d}.st18{fill:#39447a}.st20{fill:#ededf4}.st21,.st24{opacity:5.000000e-002;enable-background:new}.st24{opacity:.3;fill:none;stroke:#fff;stroke-miterlimit:10}.st30{fill:#1a2246}.st32{opacity:.1}.st33{fill:#e0a17e}.st35{fill:#293158}
  </style>
  <path fill="#e7eaf3" d="M678.4-310V-134.2h203.1V-310z"/>
  <path d="M679.7-310h200.5v5.7H679.7z" class="st1"/>
  <path d="M679.7-304.5h200.5v168.1H679.7z" class="st2"/>
  <path fill="#fff" d="M689-278.3h182.3v113.8H689z"/>
  <circle cx="683.4" cy="-307.2" r="1" class="st4"/>
  <circle cx="686.3" cy="-307.2" r="1" fill="#ffc107"/>
  <circle cx="689.2" cy="-307.2" r="1" fill="#00c9a7"/>
  <path d="M707.8-268.6v89.2h147.4" class="st7"/>
  <path fill="#377dff" d="M720.8-206.4H736v23.5h-15.2z" opacity=".5"/>
  <path fill="#377dff" d="M746.9-227.2h15.2v44.4h-15.2z" opacity=".7"/>
  <path d="M773-214.6h15.2v31.8H773z" opacity=".5"/>
  <path fill="#377dff" d="M799.1-234.2h15.2v51.3h-15.2z" opacity=".8"/>
  <path d="M825.2-252.5h15.2v69.6h-15.2z" class="st1"/>
  <path d="M728.2-220.7l26.6-24 26.1 22.7 25.6-27.4 26.1-10.9" class="st7"/>
  <circle cx="728.2" cy="-220.7" r="3" class="st1"/>
  <circle cx="780.4" cy="-222.5" r="3" class="st1"/>
  <circle cx="807" cy="-249.4" r="3" class="st1"/>
  <circle cx="754.8" cy="-245.1" r="3" class="st1"/>
  <circle cx="832.6" cy="-260.3" r="3" class="st1"/>
  <ellipse cx="867.3" cy="246.4" class="st2" rx="450.3" ry="128.6"/>
  <path fill="#535461" d="M963.4-1.4s12.4-61.1 60-55.4c0 0 32.8 2.3 39.6 23.8v47.5L963.4-1.4z"/>
  <linearGradient id="SVGID_1_" x1="1096.649" x2="1096.649" y1="509.2" y2="713.098" gradientTransform="matrix(1 0 0 -1 -147.48 524.5)" gradientUnits="userSpaceOnUse">
    <stop offset="0" stop-color="gray" stop-opacity=".25"/>
    <stop offset=".54" stop-color="gray" stop-opacity=".12"/>
    <stop offset="1" stop-color="gray" stop-opacity=".1"/>
  </linearGradient>
  <path fill="url(#SVGID_1_)" d="M1074.8-102c-5.6-.6-10.9-3-16.1-5.3-8.7-4-17.7-8.1-24.5-15.5-10.2-11-13.8-27.2-21-40.9-2.6-5.3-6.2-10.2-10.5-14.3-3.5-3.2-7.6-5.8-12.1-7.5-8.8-3.5-18.5-3.8-27.5-1l5-.8-21.4 6.8c-2.7.9-5.6 1.9-6.9 4.6s-.5 6.5 1.4 9 4.6 3.9 7.2 5.3l2.3 1.2c-3.7 8.7-2.6 18.7 2.8 26.4v21.9c-5.3 1.9-10.9 2.6-16.5 2.1-1.5.5-3 1.3-4.2 2.4-2.6 2-5.9 6-7.3 13.4-2.3 12.5-28 54.9-30.7 59.3l-42 11 .3.2-.8.2s.3.3.8.9c-4.7.3-13.1.3-19.7-2.8-6.8-3.2-17.7.1-23.8 2.4-1.3.5-2 2-1.5 3.3.2.6.6 1 1.1 1.3 8.2 4.6 17.4 7.3 26.8 7.6 10.3.5 18.7.6 24.4.5.3 1.8-.2 3.5-1.3 4.9l50.2-7.2c1.5-.8 2.9-1.8 4.2-2.9 3.1-2.5 5.7-5.4 7.9-8.7l10.8-14.1c.7 2.4 7.7 28.3 5.4 36.9l-2.5 9.5 14.8 1.5v-.3l44.7 6v-1h.1l.2-8.4 51.8-1.7s9-7.3 5.1-19c-3.9-11.7-2.5-45.6-2.5-45.6-1.4-9.4-3.4-18.7-6.2-27.8 11.5-1.6 22.6-4.8 33.3-9.4 5.2-2.2 10.4-4.9 14-9.6-4 4.5-10 5.8-15.6 5.2z"/>
  <path fill="#fe5858" d="M953.5-159.5h42v65h-42z"/>
  <path d="M953.5-159.5h42v65h-42z" class="st15"/>
  <path d="M962.2-135.6c5.3 7 6.3 16.3 2.5 24.2-6.4 13.8-2.5 33.7 2.7 36.7s25.7 7.2 32.1-1.7 6-34.3 3.9-38-17.8-6.8-17.1-27.7l-24.1 6.5z" class="st16"/>
  <path d="M959.5-109.9s8.2 55.2 36.1 17.2l-2.3 104-50.5-6.7 16.7-114.5z" class="st15"/>
  <path fill="#f1c413" d="M959.5-109s8.2 55.2 36.1 17.2l-2.3 104-50.5-6.7L959.5-109z"/>
  <path d="M990.3-11.5s-15.2 1.9-25.7-2.7c0 0-20 5.4-18 10.1s47.9 5 47.9 5l-4.2-12.4zM859.9-25s-13.2 2.1-22.7-2.4c-6.6-3.1-17.2.1-23.1 2.3-1.3.5-1.9 2-1.4 3.2.2.5.6 1 1.1 1.3 7.9 4.5 16.8 7 25.9 7.4 19.4 1 31.9.3 31.9.3L859.9-25z" class="st16"/>
  <path d="M986.8-84.2l-7.7 74 7.1-1.3s11 9.1 1.5 14.6l55.1-1.7s8.7-7.1 4.9-18.5-2.4-44.2-2.4-44.2-5.7-41.5-16.9-43.7c0 0-22.8-4.5-36.1-19.3l-5.5 40.1z" class="st15"/>
  <path d="M987.8-84.1l-7.7 74 7.1-1.3s11 9.1 1.5 14.6l55.1-1.8s8.7-7.1 4.9-18.5-2.4-44.2-2.4-44.2-5.7-41.5-16.9-43.7c0 0-22.8-4.5-36.1-19.3l-5.5 40.2z" class="st18"/>
  <path d="M966.1-118s-12.9 10.9-29.2 9.2c0 0-8.2 2.1-10.5 14.9s-29.9 57.8-29.9 57.8l-41 10.7s11.8 11.2 6.7 17.7l48.6-6.9c4.5-2.7 8.3-6.4 11.1-10.8l11-14.3s7.7 27.2 5.3 36l-2.5 9.2L950 7s.7-36.2 4.1-50.3c1.5-6.1 2.7-12.2 3.6-18.4 2.3-15.8 6-39.8 7.4-43l1-13.3z" class="st15"/>
  <path d="M966.7-118.4s-12.9 10.9-29.2 9.2c0 0-8.2 2.1-10.5 14.9s-29.9 57.8-29.9 57.8l-41 10.7s11.8 11.2 6.7 17.7l48.6-6.9c4.5-2.7 8.3-6.4 11.1-10.8l11-14.3s7.7 27.2 5.3 36l-2.5 9.2 14.3 1.4s.7-36.2 4.1-50.3c1.5-6.1 2.7-12.2 3.6-18.4 2.3-15.8 6-39.8 7.4-43l1-13.2z" class="st18"/>
  <path d="M990.3-128.2c-2.3-3.7-4.4-5.3-4.1-12.4l-24.1 6.5c2.9 3.7 4.5 8.2 4.8 12.9 1.7.5 3.5.9 5.3 1.1 6.5.7 13.1-4.6 18.1-8.1z" class="st15"/>
  <circle cx="974.9" cy="-147.8" r="26.3" class="st16"/>
  <path d="M937.4-72.1s4.8 7 1.8 11.2-3.6 10.6-2.5 14.7M1014.4-73.1s8.8 40.3 6.4 44.1M994.5-17.6s24.9 1.9 23.5-3.7" class="st15"/>
  <path fill="#ec5245" d="M962.8-183.5c8.7-2.7 18.1-2.4 26.6 1 4.3 1.7 8.3 4.2 11.8 7.3 4.1 4 7.6 8.7 10.1 13.9 6.9 13.2 10.5 29 20.3 39.6 6.5 7.1 15.2 11.1 23.7 15 5 2.3 10.2 4.5 15.6 5.2s11.2-.6 15.3-4.7c-3.5 4.5-8.5 7.1-13.5 9.3-19.7 8.5-41.2 11.8-62.5 9.6-6-.6-12-1.7-17.6-4.4-4-1.9-7.9-4.9-9.5-9.4-3.6-10.4 6.6-21.4 4.7-32.4-1-5.6-5.1-10-9.7-12.7s-9.7-4-14.5-5.8c-5.1-2.1-10.1-4.5-14.9-7.1-2.5-1.3-5.2-2.8-7-5.1s-2.8-6-1.4-8.7 4.1-3.7 6.7-4.5l20.7-6.7"/>
  <path d="M1223.6 21.2l-423.1-35-54.3 11.3 3.4 75.8 3.7.4 4.2 113.8 415.2 74.7 44.1-37.3V101.5l5.7-3.3z" class="st20"/>
  <path d="M1224.2 21.2l-1.2 77-45.8 21.4-.5-80.3z" class="st21"/>
  <path d="M1216.8 101.5l.6 121.1-44.1 37.3 2.8-140.3z" class="st21"/>
  <path d="M753.9 78.2l422.5 51.6.3-9.8-423.1-45.6z" class="st21"/>
  <path d="M1216.8 106v-4.5L1175 120v9.8z" class="st21"/>
  <path fill="#f4f4f8" d="M745.6-2.5l54.3-11.3 423.1 35-47.5 18.1z"/>
  <ellipse cx="1266.7" cy="165.5" fill="#e26e69" rx="32.6" ry="12"/>
  <ellipse cx="1266.7" cy="164.2" class="st21" rx="16.6" ry="6.1"/>
  <path d="M1234.2 162.9s35.9 19.9 65.1 2.7c0 0-4 69.1-23.9 75.8h-26.6c0-.1-22.6-46.6-14.6-78.5z" class="st4"/>
  <path d="M1294.9 36.2c9.1 33.4-29.9 128.5-29.9 128.5s-82-62-91.1-95.4c-8.8-33.5 11.2-67.8 44.7-76.6 33-8.6 66.9 10.7 76.3 43.5z" class="st1"/>
  <path d="M1294.9 36.2c9.1 33.4-29.9 128.5-29.9 128.5s-82-62-91.1-95.4c-8.8-33.5 11.2-67.8 44.7-76.6 33-8.6 66.9 10.7 76.3 43.5z" class="st15"/>
  <path d="M1218.2-7.5s51 77 47.2 172.4" class="st24"/>
  <path d="M1307.9 97.3s-46.3-25.2-40.4 67.7c0 0 38.6-1.4 52.3-32.9 5.5-12.7.7-27.5-11.2-34.5l-.7-.3z" class="st1"/>
  <path d="M1308.6 97.4s-6 48.2-41.2 67.6" class="st24"/>
  <path d="M1295 167.8c-1.3 15.9-6.9 65.3-23.6 70.8h-23.9c.8 1.7 1.2 2.7 1.2 2.7h26.6c19.9-6.7 23.9-75.8 23.9-75.8-1.3.9-2.8 1.6-4.2 2.3z" class="st21"/>
  <circle cx="1108.2" cy="-163.2" r="37.3" class="st1"/>
  <circle cx="1108.2" cy="-163.2" r="31.7" class="st20"/>
  <circle cx="1108.2" cy="-163.2" r="2.3" fill="#1e2022"/>
  <path fill="none" stroke="#1e2022" stroke-linecap="round" stroke-miterlimit="10" d="M1121.8-186.9l-13.6 23.7"/>
  <path fill="none" stroke="#1e2022" stroke-linecap="round" stroke-miterlimit="10" stroke-width="2" d="M1108.9-162.9l13.5 7.1"/>
  <linearGradient id="SVGID_2_" x1="688.271" x2="688.271" y1="240.597" y2="760.886" gradientTransform="matrix(1 0 0 -1 -147.48 524.5)" gradientUnits="userSpaceOnUse">
    <stop offset="0" stop-color="gray" stop-opacity=".25"/>
    <stop offset=".54" stop-color="gray" stop-opacity=".12"/>
    <stop offset="1" stop-color="gray" stop-opacity=".1"/>
  </linearGradient>
  <path fill="url(#SVGID_2_)" d="M620.4 251.1c-3.9-2.4-5.9-8.4-7-13.5l2.5-.8s-8.1-84.2-9.9-88.7-3.6-20.6-3.6-20.6l-2.9-87.8c13.5-4.9 19.2-14.4 21.1-18.5.7-1.2 1.3-2.5 1.7-3.8-19-23.3-34.3-86-34.3-86l2.6-6.6 1.1-2.9c3.8 15.9 20.7 23 20.7 23l-.3-2.3c.7.3 1.1.5 1.1.5 3.5 2.6 7.3 4 10.9 2.7 11.1-4.2 10.9-23.6 10.8-25.8v-2L624-122.3c-.3 2-.7 4-1.4 6-.6-8.4-1.4-24 .5-32.9 2.1-9.9-18.7-3.1-24.1 8.6-3.9-5.2-10-8.4-16.5-8.6-18.9-.8-31.8-12.7-34-14.9-.5-2-.9-4.1-1.1-6.2 7.5-6.7 11-16.7 9.4-26.6.5-.2 1-.5 1.4-.7 6.7-4 8.9-12.6 9.3-20.3v-1.3c.1-2.6-.5-5.8-3-6.3-3.3-.7-5.7 4.3-9 3.7-1-.2-1.9-.8-2.6-1.6-2.3-2.3-3.8-5.1-6-7.4-3.4-3.4-8.1-5.1-12.9-5.5-4.8-.3-9.6.2-14.2 1.3-2.6.4-5 1.3-7.3 2.5s-3.9 3.4-4.4 6c-.1.5-.1 1-.1 1.6 0 .8 0 1.7.1 2.5 0 .4-.1.7-.1 1.1-.5 2.4-2.4 4.1-4.5 5.4-2.1 1.3-4.4 2.1-6.3 3.5-3.1 2.4-5.3 5.8-6.1 9.7-.5 2.2-.7 4.4-.7 6.6 0 2 .1 4 .4 6 .8 6.7 2.7 13.2 5.6 19.3.9 2.1 2.2 4.2 3.6 6 2.1 2.3 4.6 4.4 7.3 6 1.1.7 2.4 1.5 3.7 1.1.4-.1.7-.3 1-.6 1.9-1.5 2.5-4 2.4-6.5 0 .3.1.5.1.8l.2.1c.1 1.6.1 3.2 0 4.9-1.7 1.4-13 10.9-25.7 16.1-8.7 3.6-15.3 10.9-18 19.9-1.9 6.5-4.8 12.7-8.5 18.4-1.8 2.7-9.9 39.4-15.4 46.6-4.5 6 13.7 39 26.6 51.7l.6.5c3 3.1 5.8 5.3 8 6-.3-2-.5-4.1-.5-6.1 1.5 2 2.9 4 4.2 5.9-.5 2.8-1.1 5.6-1.9 8.3-9 34-3.6 34.9-3.6 34.9s.3.1.7.3c.5 1.4 1.1 1.5 1.1 1.5s.3.1.8.3c.2 39.2 6.4 82.1 6.4 82.1s-5.4 53.8-2.7 63.6c2.7 9.8 0 52 0 52l1.9.5c-1 5.3-3 11.8-7.3 15.6-8.1 7.2-16.3 19.7-5.4 23.3s25.3.9 27.1-9.9l.9-8.1 12.6-4.5-2.2-15c3.6-5.7-.6-34.3-.6-34.3s2.7-9.9 6.3-68.1l.3-4.8c0-.5.1-.9.1-1.4.1-1.2.2-2.4.3-3.5 0-.4.1-.8.1-1.2.1-1.5.3-3 .5-4.4 0-.2.1-.4.1-.7.2-1.2.3-2.4.5-3.6l.2-1.2c.2-1.1.3-2.2.5-3.2 0-.3.1-.6.1-.9.2-1.3.4-2.6.7-3.9l.2-.8c.2-1 .4-2 .6-2.9l.2-1.1.6-3 .1-.6c.3-1.2.5-2.3.8-3.4l.2-.9c.2-.8.4-1.7.6-2.5l.2-.9c.3-1 .5-2 .8-3v-.1c.3-1 .6-1.9.9-2.9l.3-.8c.2-.7.4-1.4.7-2.1l.2-.7c.3-.9.6-1.7.9-2.5l.1-.4c.3-.7.5-1.4.8-2.1l.3-.7c.2-.6.5-1.2.7-1.8l.2-.5.9-2.1.2-.4c.2-.5.5-1 .7-1.5l.3-.6c.2-.5.5-1 .7-1.5l.1-.3c.3-.6.5-1.1.8-1.6l.2-.4.6-1.1.2-.4.7-1.3v-.1l.7-1.2.2-.3c1.1-1.9 2.3-3.7 3.6-5.4 0 0 31.7 77.1 30.9 90.5-.8 13.4 5.4 43 5.4 43s2.7 9.9 3.6 16.1c.8 5.3 5.5 26.2 6.8 32.3l.2 1v.1l.1.3V245.4l-.9 10.9 11.7 7.2c6.3 17.9 19.9 17 30.7 12.5s-3.6-20.5-10.9-24.9zm-13.2-364.5l-.1-.1v-.2l.1.3zM488.9-33.1c-.6-.5-1.3-1.1-2-1.8-.8-.8-1.5-1.6-2.2-2.5l.5.5c.7.7 1.4 1.3 2.1 1.8.1-10.3-.3-20.5-1.2-30.8.4-.7.8-1.4 1.2-1.9 1.2 11.5 1.8 23.1 1.6 34.7z"/>
  <linearGradient id="SVGID_3_" x1="3170.686" x2="3170.686" y1="560.5" y2="694.8" gradientTransform="rotate(180 1857.26 262.25)" gradientUnits="userSpaceOnUse">
    <stop offset="0" stop-color="gray" stop-opacity=".25"/>
    <stop offset=".54" stop-color="gray" stop-opacity=".12"/>
    <stop offset="1" stop-color="gray" stop-opacity=".1"/>
  </linearGradient>
  <path fill="url(#SVGID_3_)" d="M514.1-170.2v.2l-.2-.3.2.1zM486.8-37.7c-3.6-3.9-6.9-8.9-6.5-14.4.7-8.5 4.6-15.6 6.8-18.9 1.2 11.6 1.8 23.3 1.7 35-.7-.4-1.4-1-2-1.7zm120.5-79.6l.1.3-.1-.1v-.2z"/>
  <path d="M610.4 223.5s.9 16.7 7.9 21.1 21.1 20.2 10.5 24.6-23.7 5.3-29.9-12.3l-11.4-7 1.8-22 21.1-4.4zM490.9 228.8s0 16.7-7.9 23.7-15.8 19.3-5.3 22.8 24.6.9 26.4-9.7l.9-7.9 12.3-4.4-3.5-24.6h-22.9v.1z" class="st30"/>
  <path fill="#3b477b" d="M597.2 17.1l3.5 106.3s1.8 15.8 3.5 20.2 9.7 86.9 9.7 86.9l-25.5 8.8s-6.1-27.2-7-33.4c-.9-6.2-3.5-15.8-3.5-15.8s-6.1-29-5.3-42.2c.8-13.2-29.9-88.7-29.9-88.7s-18.4 22-22 79c-3.6 57-6.1 66.8-6.1 66.8s4.4 30.7 0 34.3c-4.4 3.6-26.4-2.6-26.4-2.6s2.6-41.3 0-50.9c-2.6-9.6 2.6-62.3 2.6-62.3S474.2 7.7 495.2-15.2l91.3-6.1 10.7 38.4z"/>
  <g class="st32">
    <path d="M608.6 230.5s-7.9-82.5-9.7-86.9c-1.8-4.4-3.5-20.2-3.5-20.2l-3.5-106.3-10.4-38.3 5.2-.4L597.2 17l3.5 106.3s1.8 15.8 3.5 20.2 9.6 86.9 9.6 86.9l-25.5 8.8-.4-1.7 20.7-7zM509.4 239.3c4.4-3.5 0-34.3 0-34.3s2.6-9.7 6.1-66.7 22-79 22-79 .7 1.8 2 4.9c-5.5 9.3-16.1 32.2-18.7 74.1-3.5 57.1-6.1 66.7-6.1 66.7s4.4 30.7 0 34.3c-1.4 1.1-4.5 1.3-8.1 1 1-.1 2-.5 2.8-1z"/>
  </g>
  <path d="M548-190.1s-7 31.6 12.3 48.3-45.7 29.8-57.1 15.8c-11.4-14 7.9-21.1 7.9-21.1s9.7-7.9 0-31.6l36.9-11.4z" class="st33"/>
  <path fill="#f0f1f5" d="M553.3-155l-22.8 24.6-17.7-23.6L498-83l5.3 82.5s42.2 11.4 65.9-10.5l-7-76.4-8.9-67.6z"/>
  <path d="M555-4l3.5 11.5s-41.3 7-55.3 3.5l3.5-12.3S545.4 8.3 555-4z" class="st15"/>
  <path d="M555-5.7l3.5 11.4s-41.3 7-55.3 3.5l3.5-12.3s38.7 9.7 48.3-2.6z" class="st30"/>
  <path d="M547.1-161.2s13.2 14 33.4 14.9 22.8 25.5 22.8 25.5l7 65s-16.7-7-20.2-22.8l-4.4 11.4s14.9 61.5 33.4 84.3c0 0-7.9 26.4-46.5 22.8 0 0-21.1-9.7-20.2-34.3l-6.8-38.5c-2.4-13.5-3.4-27.3-3-41l4.5-87.3z" class="st15"/>
  <path d="M548-162.9s13.2 14.1 33.4 14.9c20.2.8 22.8 25.5 22.8 25.5l7 65s-16.7-7-20.2-22.8l-4.4 11.4s15 61.4 33.4 84.3c0 0-7.9 26.4-46.5 22.8 0 0-21.1-9.7-20.2-34.3l-6.9-38.4c-2.4-13.5-3.4-27.3-3-41l4.6-87.4z" class="st35"/>
  <path d="M515.3-156.9s-9.8 11.4-23.2 17c-8.5 3.6-14.9 10.7-17.5 19.5-1.9 6.4-4.6 12.5-8.3 18.1-1.8 2.6-9.7 38.6-14.9 45.7-5.2 7.1 21.1 51.8 32.5 55.3 0 0-4.4-24.6 13.2-27.2 0 0-15.8-9.7-14.9-21.1.9-11.4 7.9-20.2 7.9-20.2s6.1 44.8-2.6 78.2c-8.7 33.4-3.5 34.3-3.5 34.3s36 17.6 30.7-65c-5.3-82.6-.9-113.3-.9-113.3l1.5-21.3z" class="st15"/>
  <path d="M482.1-3.1s-3.5-19.4 8.1-25.6c-.4 11.6-1.6 24.1-4.6 35.3-8.8 33.4-3.5 34.3-3.5 34.3.9.4 1.9.8 2.9 1 8.4 2.1 32.2 2.2 27.9-66-5.3-82.6-.9-113.4-.9-113.4l3.5-20.2s-11.8 10.4-25.2 16c-8.5 3.6-14.9 10.7-17.5 19.5-1.9 6.4-4.6 12.5-8.3 18.1-1.8 2.6-9.7 38.6-14.9 45.7-4.4 5.9 13.3 38.2 25.9 50.6 2.5 2.5 4.8 4.1 6.6 4.7zm-.5-41.6c-1-2.1-1.4-4.4-1.3-6.7.6-8.4 4.6-15.4 6.7-18.5.7-1.1 1.2-1.7 1.2-1.7 1.5 12.5 2.2 25 2.1 37.6-3-2.5-6.7-6.3-8.7-10.7z" class="st35"/>
  <path d="M527.8-159.4c-4.4 0-8.7-1-12.6-2.9-.7-5-2-10-4-14.7l36.9-11.4c-1.3 7.1-1.6 14.3-.8 21.5-5.3 4.8-12.3 7.5-19.5 7.5z" class="st15"/>
  <circle cx="527.8" cy="-190.1" r="29" class="st33"/>
  <path d="M616.5 15.4c-18.4-22.8-33.4-84.3-33.4-84.3l4.4-11.4c.4 1.7.9 3.3 1.6 4.9l-2.5 6.5S601.5-7.4 620 15.4c0 0-7.2 24-41.4 23.1 31.2-.9 37.9-23.1 37.9-23.1z"/>
  <path d="M620.9-110.2s-2.6-25.5 0-37.8c2.6-12.3-30.7 1.8-23.7 18.4s14 26.4 14 26.4l9.7-7z" class="st33"/>
  <path d="M621.8-121.6l10.5 39.5s.9 21.1-10.5 25.5c-11.4 4.4-25.5-21.1-25.5-21.1l7-36.9s15 16.7 18.5-7z" class="st15"/>
  <path d="M621.8-119.9l10.5 39.5s.9 21.1-10.5 25.5C610.4-50.5 596.3-76 596.3-76l7-36.9s15 16.7 18.5-7z" class="st35"/>
  <path d="M621.8-119.9l10.5 39.5s.9 21.1-10.5 25.5C610.4-50.5 596.3-76 596.3-76l7-36.9s15 16.7 18.5-7z" opacity=".02"/>
  <path d="M485.7 6.6c-8.8 33.4-3.5 34.3-3.5 34.3.9.4 1.9.8 2.9 1 8.9-17.8 10.4-46.9 9.6-72v-.6c-.5-15.9-1.9-31.7-4.1-47.4-1 .9-2.2 3.9-3.4 8.3.7-1.1 1.2-1.7 1.2-1.7 1.5 12.5 2.2 25 2.1 37.6.1 1.8.1 3.5-.1 5.3-.5 11.6-1.8 24-4.7 35.2z" class="st15"/>
  <path d="M481.7-9.7l1 1.3c3.4 4.3 6.3 8.8 8.8 13.7 5.3 11.4 23.6-19.8 7.9-29-2.6-1.5-5-2.8-7.3-4l-1.8-.9c-7.2 3.8-8.6 12.7-8.6 18.9z" class="st33"/>
  <path d="M481.7-9.7l1 1.3s.4-16.4 9.4-19.4l-1.8-.9c-7.2 3.9-8.6 12.8-8.6 19zM528.2-198.1c1.6-.6 3.3-1.4 5-.9.8.3 1.4.8 2 1.4 2.3 2.2 4.5 4.7 7.6 5.3 1.9.3 3.8.2 5.7-.3 3.2-.6 6.6-1.2 9.4-2.9 6.5-3.9 8.6-12.3 9-19.9.1-2.6-.4-5.9-2.9-6.4-3.2-.7-5.5 4.2-8.8 3.6-1-.2-1.9-.8-2.5-1.5-2.2-2.2-3.7-5-5.9-7.3-3.4-3.2-7.9-5.1-12.5-5.4-4.6-.3-9.3.2-13.8 1.3-2.5.4-4.9 1.2-7.1 2.4-2.2 1.2-3.8 3.4-4.3 5.9-.2 1.7.2 3.4-.1 5.1-.5 2.3-2.4 4.1-4.4 5.3-2 1.2-4.3 2-6.2 3.4-3 2.4-5.1 5.7-5.9 9.5-.8 3.7-.9 7.6-.3 11.4.8 6.6 2.6 12.9 5.4 18.9.9 2.1 2.1 4.1 3.5 5.9 2.1 2.3 4.5 4.3 7.1 5.9 1.1.7 2.4 1.5 3.6 1.1.4-.1.7-.3 1-.6 2.5-2.1 2.7-5.9 2-9s-2.1-6.2-2.3-9.4c-.1-.9.1-1.8.5-2.6.5-.7 1.1-1.2 1.8-1.8.9-1 1.5-2.1 2-3.3 1.3-3 2.7-6.1 3-9.5.3-2.7-.3-5.4-1.7-7.8 2.7 2.6 6.6 3.4 10.1 2.2z" class="st15"/>
  <path fill="#463e3b" d="M528.2-199.1c1.6-.6 3.3-1.4 5-.9.8.3 1.4.8 2 1.4 2.3 2.2 4.5 4.7 7.6 5.3 1.9.3 3.8.2 5.7-.3 3.2-.6 6.6-1.2 9.4-2.9 6.5-3.9 8.6-12.3 9-19.9.1-2.6-.4-5.9-2.9-6.4-3.2-.7-5.5 4.2-8.8 3.6-1-.2-1.9-.8-2.5-1.5-2.2-2.2-3.7-5-5.9-7.3-3.4-3.2-7.9-5.1-12.5-5.4-4.6-.3-9.3.2-13.8 1.3-2.5.4-4.9 1.2-7.1 2.4-2.2 1.2-3.8 3.4-4.3 5.9-.2 1.7.2 3.4-.1 5.1-.5 2.3-2.4 4.1-4.4 5.3-2 1.2-4.3 2-6.2 3.4-3 2.4-5.1 5.7-5.9 9.5-.8 3.7-.9 7.6-.3 11.4.8 6.6 2.6 12.9 5.4 18.9.9 2.1 2.1 4.1 3.5 5.9 2.1 2.3 4.5 4.3 7.1 5.9 1.1.7 2.4 1.5 3.6 1.1.4-.1.7-.3 1-.6 2.5-2.1 2.7-5.9 2-9s-2.1-6.2-2.3-9.4c-.1-.9.1-1.8.5-2.6.5-.7 1.1-1.2 1.8-1.8.9-1 1.5-2.1 2-3.3 1.3-3 2.7-6.1 3-9.5.3-2.7-.3-5.4-1.7-7.8 2.7 2.6 6.6 3.4 10.1 2.2z"/>
</svg>