<svg xmlns="http://www.w3.org/2000/svg" id="Layer_1" viewBox="66 -19.4 204.1 102.4">
  <style>
    .st0{fill:#fff}.st1{fill:none;stroke:#377dff;stroke-width:1.5;stroke-miterlimit:10}.st2{opacity:.3;fill:#19a0ff;enable-background:new}.st4{fill:#377dff}.st5,.st6{fill:none;stroke:#fff;stroke-width:1.5;stroke-miterlimit:10}.st6{stroke:#377dff;stroke-linecap:round}.st7{opacity:.5;fill:#19a0ff;enable-background:new}
  </style>
  <g id="innovation_415_">
    <g id="innovation_391_">
      <path id="innovation_394_" d="M228.3 25.9c0-1.9-1.6-3.5-3.5-3.5l-35.3.2c-2.5 0-4.5 2.3-4.5 5.1v54.6l43.4-.2-.1-56.2z" class="st0"/>
      <path id="innovation_393_" d="M228.3 82V25.8c0-1.9-1.6-3.5-3.5-3.5l-35.3.2" class="st1"/>
      <path id="innovation_199_" d="M184.9 29.7v12.8" class="st1"/>
      <path id="innovation_387_" d="M196.1 40.7c3.7-3.7 9.6-3.7 13.3 0s3.7 9.6 0 13.3c-3.7 3.7-9.6 3.7-13.3 0-3.7-3.7-3.7-9.7 0-13.3z" class="st2"/>
      <g id="innovation_358_">
        <g id="innovation_411_">
          <circle id="innovation_413_" cx="207.2" cy="51.8" r="9.4" fill="none" stroke="#377dff" stroke-dasharray="1.9681,1.9681" stroke-miterlimit="10" stroke-width="1.5"/>
        </g>
      </g>
      <path id="innovation_213_" d="M183.4 22.3h41.2s-3.7.2-3.7 3.7v2.2h-41.2V26c0-2 1.6-3.7 3.7-3.7z" class="st4"/>
      <path id="innovation_390_" d="M183.4 22.3h41.2s-3.7.2-3.7 3.7v2.2h-41.2V26c0-2 1.6-3.7 3.7-3.7z" class="st1"/>
    </g>
    <g id="innovation_210_">
      <path id="innovation_163_" d="M101.1 22.8V17c0-.8-.6-1.4-1.4-1.4H89.6c-.8 0-1.4.6-1.4 1.4v63.8c0 .8.6 1.4 1.4 1.4" class="st1"/>
      <path id="innovation_247_" d="M88.2 75.7h7.9" class="st1"/>
      <path id="innovation_246_" d="M88.2 70.1h4" class="st1"/>
      <path id="innovation_245_" d="M88.2 64.6h4" class="st1"/>
      <path id="innovation_254_" d="M88.2 59.1h4" class="st1"/>
      <path id="innovation_244_" d="M88.2 53.5h7.9" class="st1"/>
      <path id="innovation_243_" d="M88.2 48h4" class="st1"/>
      <path id="innovation_239_" d="M88.2 42.5h4" class="st1"/>
      <path id="innovation_238_" d="M88.2 37h4" class="st1"/>
      <path id="innovation_193_" d="M88.4 31.4h7.7" class="st1"/>
      <path id="innovation_383_" d="M88.6 25.9h3.9" class="st1"/>
      <path id="innovation_386_" d="M88.8 20.4h3.9" class="st1"/>
    </g>
    <g id="innovation_116_">
      <path id="innovation_751_" d="M147.9 82.2V27.4c0-1.7-1.3-3-3-3h-44.2c-1.7 0-3 1.3-3 3v54.8h50.2z" class="st0"/>
      <path id="innovation_739_" d="M97.7 32.2V27c0-1.4 1.1-2.5 2.5-2.5h45.2c1.4 0 2.5 1.1 2.5 2.5v5.2H97.7z" class="st4"/>
      <path id="innovation_735_" d="M97.7 32.3h50.2" class="st1"/>
      <path id="innovation_734_" d="M103.4 28.7h2" class="st5"/>
      <path id="innovation_727_" d="M108.1 28.7h2" class="st5"/>
      <path id="innovation_726_" d="M112.7 28.7h2" class="st5"/>
      <path id="innovation_725_" d="M104.4 38.1h36.8v14.5h-36.8z" class="st2"/>
      <path id="innovation_724_" d="M104.4 61.8h11.2v14.5h-11.2z" class="st2"/>
      <path id="innovation_723_" d="M119.6 61.8h11.2v14.5h-11.2z" class="st2"/>
      <path id="innovation_164_" d="M147.9 46.8V27.4c0-1.7-1.3-3-3-3h-44.2c-1.7 0-3 1.3-3 3v54.8" class="st1"/>
    </g>
    <g id="innovation_184_">
      <path id="innovation_186_" d="M136.9-11h4.3" class="st6"/>
      <path id="innovation_185_" d="M139.1-8.9v-4.2" class="st6"/>
    </g>
    <g id="innovation_252_">
      <path id="innovation_389_" d="M239.3 23.9h4.3" class="st6"/>
      <path id="innovation_388_" d="M241.5 26v-4.2" class="st6"/>
    </g>
    <g id="innovation_212_">
      <path id="innovation_236_" d="M220.2-3.9l3-3" class="st6"/>
      <path id="innovation_235_" d="M223.2-3.9l-3-3" class="st6"/>
    </g>
    <g id="innovation_248_">
      <path id="innovation_251_" d="M72.2 30.4l3-3" class="st6"/>
      <path id="innovation_250_" d="M75.2 30.4l-3-3" class="st6"/>
    </g>
    <path id="innovation_135_" d="M109.2-11h17.4" class="st1"/>
    <path id="innovation_403_" d="M242.5 32.3h27.6" class="st1"/>
    <path id="innovation_201_" d="M184.3-5.4h32.3" class="st1"/>
    <path id="innovation_414_" d="M66 5.2h51.3" class="st1"/>
    <path id="innovation_105_" d="M131.6-11h-3.5" class="st1"/>
    <path id="innovation_143_" d="M83.5 54.7c0 1-.8 1.9-1.9 1.9-1 0-1.9-.8-1.9-1.9 0-1 .8-1.9 1.9-1.9s1.9.8 1.9 1.9z" class="st4"/>
    <path id="innovation_404_" d="M126.2 14.8c0 .6-.5 1-1 1-.6 0-1-.5-1-1 0-.6.5-1 1-1 .5-.1 1 .4 1 1z" class="st4"/>
    <path id="innovation_410_" d="M224.3-16.8c0 .6-.5 1-1 1-.6 0-1-.5-1-1s.5-1 1-1c.5-.1 1 .4 1 1z" class="st4"/>
    <path id="innovation_407_" d="M200.2 12.2c0 .8-.6 1.4-1.4 1.4-.8 0-1.4-.6-1.4-1.4 0-.8.6-1.4 1.4-1.4.8 0 1.4.6 1.4 1.4z" class="st4"/>
    <path id="innovation_408_" d="M94.2-14.4c0 .8-.6 1.4-1.4 1.4-.8 0-1.4-.6-1.4-1.4s.6-1.4 1.4-1.4c.7 0 1.4.6 1.4 1.4z" class="st4"/>
    <path id="innovation_406_" d="M246.2 39.8c0 .6-.5 1-1 1-.6 0-1-.5-1-1 0-.6.5-1 1-1s1 .4 1 1z" class="st4"/>
    <path id="innovation_240_" d="M206 82.1c3.7-1.3 6.4-4.8 6.8-9.4.1-1 0-2-.3-3 1.6-1.8 2.7-4.2 2.9-6.9.2-2.5-.6-5-2.4-6.9-1.9-2-4.6-3.3-7.4-3.4-1-1.7-2.8-2.8-4.8-2.8-.6 0-1.2.1-1.8.3-.5-.8-1.1-1.6-1.7-2.3-2.1-2.1-4.8-3.2-7.8-3.2-1.6 0-3.2.4-4.6 1v36.4H202.7v.2h3.3z" class="st7"/>
    <path id="innovation_237_" d="M147.9 60.7c-.1 0-.2-.1-.2-.1.1-.2.2-.4.2-.7V52c-1.6-4.7-6.1-8-11.3-8-5.4 0-10 3.6-11.5 8.6-1.1-.2-2.2 0-3.2.5l.4.7c-.7.4-1.3 1-1.8 1.7h-.4c-4 0-7.3 3.3-7.3 7.3 0 .9.2 1.7.4 2.5-2.6 1.8-4.1 4.7-4.1 7.9 0 4.3 2.8 7.9 6.7 9.2h2.9v-.3c1.4 0 2.7-.3 3.9-.9 1 .6 2.2.9 3.5.9h21.8V60.7z" class="st7"/>
    <g id="innovation_15_">
      <path id="innovation_162_" d="M222.2 82H104.8c-4.7 0 1.9-2.3 1.9-6.4 0-4.1 7.3-8.4 12-8.4h95.9c4.7 0 8.5 3.3 8.5 7.4.1 4 1.2 7.4-.9 7.4z" class="st0"/>
      <ellipse id="innovation_161_" cx="138.6" cy="56" class="st0" rx="11.3" ry="11.3"/>
      <path id="innovation_158_" d="M130.8 57.7c0 2.5-2 4.5-4.5 4.5s-4.5-2-4.5-4.5 2-4.5 4.5-4.5 4.5 2 4.5 4.5z" class="st0"/>
      <path id="innovation_157_" d="M128.6 62.7c0 3.6-2.9 6.6-6.6 6.6-3.6 0-6.6-2.9-6.6-6.6 0-3.6 2.9-6.6 6.6-6.6 3.6.1 6.6 3 6.6 6.6z" class="st0"/>
      <path id="innovation_416_" d="M116.3 75.2a6.7 6.7 0 1 1-13.4 0 6.7 6.7 0 0 1 13.4 0z" class="st0"/>
      <path id="innovation_417_" d="M109.2 76.5c0 3-2.5 5.5-5.5 5.5s-5.5-2.5-5.5-5.5 2.5-5.5 5.5-5.5c3.1 0 5.5 2.5 5.5 5.5z" class="st0"/>
      <path id="innovation_156_" d="M129.5 73.1c0 4.9-4 8.9-8.9 8.9s-8.9-4-8.9-8.9 4-8.9 8.9-8.9c5 0 8.9 4 8.9 8.9z" class="st0"/>
      <path id="innovation_419_" d="M111.8 73.1c0-3 1.5-5.7 3.8-7.3" class="st1"/>
      <path id="innovation_151_" d="M152.3 64.9c0 2.1-1.7 3.7-3.7 3.7-2.1 0-3.7-1.7-3.7-3.7 0-2.1 1.7-3.7 3.7-3.7 2.1 0 3.7 1.7 3.7 3.7z" class="st0"/>
      <circle id="innovation_150_" cx="187.5" cy="55.5" r="10.2" class="st0"/>
      <path id="innovation_435_" d="M199.5 61.2c-.3 3.6-2.9 6.6-6.6 6.6-3.6 0-6.6-2.9-6.6-6.6 0-3.6 2.9-6.6 6.6-6.6 3.7.1 6.9 3 6.6 6.6z" class="st0"/>
      <path id="innovation_148_" d="M192.9 65.7c-.3 3.6-2.9 6.6-6.6 6.6-3.6 0-6.6-2.9-6.6-6.6 0-3.6 2.9-6.6 6.6-6.6 3.7.1 7 3 6.6 6.6z" class="st0"/>
      <path id="innovation_144_" d="M147.9 65.8c-.6 3.6-5.6 6.6-12.5 6.6s-12.5-2.9-12.5-6.6c0-3.6 5.6-6.6 12.5-6.6 6.9.1 13.1 3 12.5 6.6z" class="st0"/>
      <path id="innovation_142_" d="M212.6 62.8c-.5 5.3-4.3 9.6-9.6 9.6s-9.6-4.3-9.6-9.6 4.3-9.6 9.6-9.6 10.1 4.3 9.6 9.6z" class="st0"/>
      <path id="innovation_418_" d="M222.5 73.3c-.4 4.8-3.9 8.6-8.6 8.6-4.8 0-8.6-3.9-8.6-8.6s3.9-8.6 8.6-8.6 9 3.9 8.6 8.6z" class="st0"/>
      <path id="innovation_421_" d="M228.5 75.8c-.3 3.4-2.8 6.2-6.2 6.2s-6.2-2.8-6.2-6.2c0-3.4 2.8-6.2 6.2-6.2s6.5 2.8 6.2 6.2z" class="st0"/>
      <path id="innovation_141_" d="M210 72.7c-.5 5.1-4.1 9.2-9.2 9.2s-9.2-4.1-9.2-9.2 4.1-9.2 9.2-9.2c5 0 9.6 4.1 9.2 9.2z" class="st0"/>
      <path id="innovation_140_" d="M184.8 62.3c0 3.3-2.7 6-6 6s-6-2.7-6-6 2.7-6 6-6 6 2.7 6 6z" class="st0"/>
      <path id="innovation_139_" d="M177 67.6c0 1.9-1.6 3.5-3.5 3.5s-3.5-1.6-3.5-3.5 1.6-3.5 3.5-3.5 3.5 1.5 3.5 3.5z" class="st0"/>
      <path id="innovation_138_" d="M169.7 67.9c0-1.9 1.6-3.5 3.5-3.5" class="st1"/>
      <path id="innovation_137_" d="M162.6 69.8c0 2.2-3.1 4.1-7 4.1s-7-1.8-7-4.1 3.1-4.1 7-4.1 7 1.9 7 4.1z" class="st0"/>
      <path id="innovation_434_" d="M203.2 53.5c0 2.6-4.4 9.5-4.4 6.4 0-2.6-4.7-2.1-4.7-4.7s2.1-4.7 4.7-4.7 4.4.4 4.4 3z" class="st0"/>
      <path id="innovation_136_" d="M196.9 50.8c.6-.3 1.2-.4 1.9-.4 1.9 0 3.6 1.1 4.3 2.8" class="st1"/>
      <path id="innovation_133_" d="M180.2 62.7c-1.9-1.9-3-4.4-3-7.2s1.1-5.4 3-7.2c1.9-1.9 4.4-3 7.2-3s5.4 1.1 7.2 3c1.9 1.9 3 4.4 3 7.2" class="st1"/>
      <path id="innovation_440_" d="M178.8 68.3c-3.3 0-6-2.7-6-6 0-2.8 1.9-5.1 4.5-5.8" class="st1"/>
      <path id="innovation_115_" d="M127.3 56c0-6.2 5-11.3 11.3-11.3 6.2 0 11.3 5 11.3 11.3 0 4.2-2.3 7.8-5.7 9.8" class="st1"/>
      <path id="innovation_112_" d="M124.2 53.7c.6-.3 1.3-.5 2.1-.5.5 0 .9.1 1.3.2" class="st1"/>
      <path id="innovation_109_" d="M148.6 61.2c2.1 0 3.7 1.7 3.7 3.7 0 2.1-1.7 3.7-3.7 3.7" class="st1"/>
      <path id="innovation_106_" d="M177 73.6h-26.5l7.7-8.6V33h8.2l-.4 29.2c0 1.8.8 3.4 2.2 4.5l8.8 6.9z" class="st0"/>
      <path id="innovation_514_" d="M166.2 33v30.4c0 1.8 1.4 3.2 3.2 3.2h.9" class="st1"/>
      <path id="innovation_512_" d="M152.3 65.8h2.9c1.6 0 2.9-1.3 2.9-2.9V33" class="st1"/>
      <path id="innovation_104_" d="M154.5 79.7c0-.6.1-1.2.3-1.8.2-.6.6-1.1 1-1.5.4-.5 1-.8 1.6-1.1.6-.3 1.2-.4 1.9-.4.6 0 1.2.1 1.8.3.6.2 1.1.6 1.5 1" class="st1"/>
      <path id="innovation_103_" d="M130.8 68.2c0-.6.1-1.2.3-1.8.2-.6.6-1.1 1-1.5s1-.8 1.6-1.1c.6-.3 1.2-.4 1.9-.4.6 0 1.2.1 1.8.3.6.2 1.1.6 1.5 1" class="st1"/>
      <path id="innovation_102_" d="M184.8 59.3c.6-.2 1.2-.4 1.8-.4s1.2.1 1.8.3c.6.2 1.1.6 1.6 1 .5.5.8 1 1.1 1.6.2.6.4 1.2.4 1.8 0 .6-.1 1.2-.3 1.8" class="st1"/>
      <path id="innovation_101_" d="M159.9 75c.1-.6.3-1.2.6-1.8.3-.6.8-1 1.3-1.4s1.1-.6 1.7-.8c.6-.2 1.2-.2 1.8-.1" class="st1"/>
      <path id="innovation_98_" d="M191.5 76c.1-.6.3-1.2.6-1.8.3-.6.8-1 1.3-1.4s1.1-.6 1.7-.8c.6-.2 1.2-.2 1.8-.1" class="st1"/>
      <path id="innovation_97_" d="M176 81.3c-.6-.2-1.2-.5-1.6-.9-.5-.4-.9-.9-1.2-1.5-.3-.6-.4-1.2-.5-1.8 0-.6 0-1.2.2-1.8" class="st1"/>
      <path id="innovation_96_" d="M117.4 67.4a6.42 6.42 0 0 1-1.9-4.6c0-3.6 2.9-6.6 6.6-6.6 1.6 0 3 .6 4.2 1.5" class="st1"/>
      <path id="innovation_95_" d="M200.7 53.5c.7-.2 1.5-.3 2.3-.3 5.3 0 10.1 4.3 9.6 9.6-.3 3.8-2.4 7.1-5.6 8.7" class="st1"/>
      <path id="innovation_155_" d="M102.8 75.2c0-3.7 3-6.7 6.7-6.7 1.1 0 2.1.3 3 .7" class="st1"/>
      <path id="innovation_420_" d="M103.8 82c-3 0-5.5-2.5-5.5-5.5s3-5.5 6-5.5" class="st1"/>
      <path id="innovation_423_" d="M212.1 64.9c.6-.1 1.2-.2 1.8-.2 4.8 0 9 3.9 8.6 8.6-.2 2.2-1 4.1-2.3 5.6" class="st1"/>
      <path id="innovation_64_" d="M222.3 69.6c3.4 0 6.5 2.8 6.2 6.2-.3 3.4-2.8 6.2-6.2 6.2" class="st1"/>
    </g>
    <g id="innovation_166_">
      <path id="innovation_192_" d="M163.4 34.2h-2.8c-.5 0-1-.5-1-1v-5.3c0-.5.5-1 1-1h2.8c.5 0 1 .5 1 1v5.3c0 .5-.5 1-1 1z" class="st7"/>
      <path id="innovation_190_" d="M163.4 34.2h-2.8c-.5 0-1-.5-1-1v-5.3c0-.5.5-1 1-1h2.8c.5 0 1 .5 1 1v5.3c0 .5-.5 1-1 1z" class="st1"/>
      <path id="innovation_183_" d="M178-2.7c0-8.8-7.1-15.9-15.9-15.9s-15.9 7.1-15.9 15.9c0 5.9 3.2 11 8 13.8v15.7l2.3 4.3h10.9l2.7-4.3V11.1c4.7-2.8 7.9-7.9 7.9-13.8z" class="st0"/>
      <path id="innovation_181_" d="M170.1 26.7l-2.7 4.3h-10.9l-2.3-4.3z" class="st7"/>
      <path id="innovation_180_" d="M150-13c-2.3 2.8-3.7 6.3-3.7 10.3 0 5.9 3.2 11 8 13.8v15.7l2.3 4.3h10.9l2.7-4.3V11.1c4.8-2.7 8-7.9 8-13.8 0-8.8-7.1-15.9-15.9-15.9-2.1 0-4.1.4-6 1.2" class="st1"/>
      <path id="innovation_179_" d="M154.2-16.5c-1.2.7-1.7.9-2.7 1.9" class="st1"/>
      <path id="innovation_566_" d="M151.8 15.9h20.7" class="st1"/>
      <path id="innovation_178_" d="M151.8 19.5h20.7" class="st1"/>
      <path id="innovation_177_" d="M151.8 23.1h20.7" class="st1"/>
      <path id="innovation_176_" d="M151.8 26.7h20.7" class="st1"/>
      <ellipse id="innovation_175_" cx="162" cy="-3.2" class="st4" rx="11.2" ry="11.2"/>
      <path id="innovation_576_" d="M165.5-5.7c0-1.9-1.5-3.4-3.4-3.4s-3.4 1.5-3.4 3.4c0 .9.4 1.8 1 2.4l-1 5.9h6.5l-1-5.7c.8-.6 1.3-1.5 1.3-2.6z" class="st0"/>
    </g>
    <g id="innovation_43_">
      <path id="innovation_189_" d="M79.8 82.2h163.8" class="st1"/>
      <path id="innovation_188_" d="M75.2 82.2h2.7" class="st1"/>
      <path id="innovation_187_" d="M245.2 82.2h6" class="st1"/>
    </g>
    <g id="innovation_395_">
      <path id="innovation_405_" d="M232 82.2h3.4c.3 0 .5-.2.5-.5V33.2 33l-1.7-3.7c-.2-.4-.7-.4-.8 0l-1.7 3.7V81.8c-.2.2 0 .4.3.4z" class="st0"/>
      <path id="innovation_402_" d="M231.5 34.7h4.3v42.9h-4.3z" class="st7"/>
      <path id="innovation_400_" d="M231.5 82.2h4.3V33.1l-1.9-4.1c-.1-.2-.4-.2-.5 0l-1.9 4.1v49.1z" class="st1"/>
      <path id="innovation_399_" d="M236 34.7h-4.5" class="st1"/>
      <path id="innovation_398_" d="M236.2 77.6h-5" class="st1"/>
    </g>
  </g>
</svg>