<svg xmlns="http://www.w3.org/2000/svg" id="Layer_1" viewBox="404 -47.4 880.3 159.4">
  <style>
    .st0{fill:#e7eaf3;stroke:#aab4ce;stroke-miterlimit:10}.st2{fill:#fff}.st3{fill:#fec55e}.st4{opacity:.2;fill:#231f20;enable-background:new}.st8{fill:#9e9e9e}.st9{fill:#c5c5c5}.st10{fill:#8184c4}.st11{fill:#377dff}.st12{opacity:.3;fill:#414042;enable-background:new}.st13{fill:#212121}.st14{fill:#fed17e}.st15{fill:#f1f2f2}.st17{fill:#414042}.st18{fill:#191c3c}.st22{opacity:.3}.st26{fill:#dfe2ec}.st27{fill:#fcd991}.st28{opacity:.3;fill:#231f20;enable-background:new}.st30{fill:#575a8f}.st32{fill:#13d7b6}.st37{fill:#1e2022}.st38{fill:#7c98d6}.st40{fill:#00c671}.st41{opacity:.2}.st43{opacity:8.000000e-002;fill:#f5f7f9;enable-background:new}.st45{fill:#ddb758}.st47{opacity:.3;fill:#191c3c;enable-background:new}.st48{fill:#093a66}.st50{fill:#f5f7f9}.st55{fill:#e7eaf3}.st57{fill:#296ad3}.st58,.st59,.st62{opacity:.15;fill:#191c3c;enable-background:new}.st59,.st62{opacity:.3;fill:#30334f}.st62{opacity:.1}.st63{fill:#6371c5}.st64{fill:#9fb9cc}.st65{opacity:.1;fill:#fff;enable-background:new}
  </style>
  <path d="M1199.2 104.5H406.8L470.2 81l811.2-6.6z" class="st0"/>
  <path d="M1199.2 105.5H406.8L470.2 82l811.2-6.6z" class="st0"/>
  <path d="M1199.2 106.5H406.8L470.2 83l811.2-6.6z" class="st0"/>
  <path d="M1199.2 107.5H406.8L470.2 84l811.2-6.6z" class="st0"/>
  <path d="M1199.2 108.5H406.8L470.2 85l811.2-6.6z" class="st0"/>
  <path d="M1199.2 109.5H406.8L470.2 86l811.2-6.6z" class="st0"/>
  <path d="M1199.2 110.5H406.8L470.2 87l811.2-6.6z" class="st0"/>
  <path d="M1199.2 111.5H406.8L470.2 88l811.2-6.6z" class="st0"/>
  <path fill="#f7f8f9" d="M468.6-47.4H1284v128H468.6z"/>
  <path d="M1284.3-47.4H938.1l346.2 127.8z" class="st2"/>
  <g>
    <g id="maintenanceMode_334_">
      <g id="maintenanceMode_404_">
        <path id="maintenanceMode_408_" d="M485.9 72.1h2l2.8-8.4c.2-.5.1-1-.1-1.5l-3.7-6.5h-.8l-.1 7c.1.1.7.3.8.4.5.5.5 1.4 0 1.9s-1.4.5-1.9 0-.5-1.4 0-1.9c.1-.1.5-.4.6-.4l.2-6.9h-.6l-3.8 6.5c-.3.5-.3 1-.2 1.5l2.7 8.4 2.1-.1z" class="st3"/>
        <path id="maintenanceMode_407_" d="M483.9 72.1h4l.9-2.8H483z" class="st4"/>
        <path id="maintenanceMode_406_" fill="#717386" d="M481.5 70.6h8.8v15.9h-8.8z"/>
        <path id="maintenanceMode_405_" fill="#4d5068" d="M485.9 70.6h4.4v15.9h-4.4z"/>
      </g>
      <g id="maintenanceMode_392_">
        <path id="maintenanceMode_401_" fill="#9a9dd0" d="M502 66.4v3.8c0 .7.6 1.3 1.3 1.3 1.4 0 2.5 1.1 2.5 2.5v10.3c0 1.3 1.1 2.4 2.5 2.3 1.2-.1 2-1.2 2-2.4V74.1c0-1.4 1.1-2.5 2.5-2.5.7 0 1.3-.6 1.3-1.3v-3.9H502zm5.2 17.7c0-.4.4-.8.8-.8s.8.4.8.8-.4.8-.8.8-.8-.4-.8-.8z"/>
        <path id="maintenanceMode_400_" d="M502 54.7h12v8.7h-12z" class="st3"/>
        <path id="maintenanceMode_399_" d="M502 54.7h4.8v8.7H502z" class="st3"/>
        <path id="maintenanceMode_398_" d="M502 62.9h12v3.5h-12z" class="st8"/>
        <path id="maintenanceMode_397_" d="M502 63.1h12v.5h-12z" class="st9"/>
        <path id="maintenanceMode_396_" d="M502 64.4h12v.5h-12z" class="st9"/>
        <path id="maintenanceMode_395_" d="M502 65.6h12v.5h-12z" class="st9"/>
        <path id="maintenanceMode_394_" d="M508 66.4v16.9c-.4 0-.8.4-.8.8s.4.8.8.8v1.6c-1.3 0-2.3-1-2.3-2.3V73.9c0-1.4-1.1-2.5-2.5-2.5-.7 0-1.3-.6-1.3-1.3v-3.7h6.1z" class="st10"/>
        <path id="maintenanceMode_393_" d="M506.1 54.7v3.4c0 .5.4 1 1 1 .5 0 1-.4 1-1v-1c0-.4.4-.8.8-.8s.8.4.8.8v3.6c0 .4.4.8.8.8s.8-.4.8-.8V59c.9 0 1.6-.7 1.6-1.6v-2.8l-6.8.1c0-.1 0 0 0 0z" class="st11"/>
      </g>
      <path id="maintenanceMode_391_" d="M502 54.7V70c0 .7.6 1.3 1.3 1.3h.4V58.4l-1.4-3.6-.3-.1z" class="st12"/>
      <g id="maintenanceMode_384_">
        <path id="maintenanceMode_390_" d="M497.6 58.4h4.9v24.4h-4.9z" class="st3"/>
        <path id="maintenanceMode_389_" d="M502.6 84h-4.9v1.4c0 .6.5 1.2 1.2 1.2h2.6c.6 0 1.2-.5 1.2-1.2l-.1-1.4z" class="st3"/>
        <path id="maintenanceMode_388_" d="M497.6 82.8h4.9V84h-4.9z" class="st13"/>
        <path id="maintenanceMode_387_" d="M497.6 58.4h2.5v24.4h-2.5z" class="st14"/>
        <path id="maintenanceMode_386_" d="M499.9 52.7l-2.3 5.7h4.9l-2.3-5.7c0-.2-.2-.2-.3 0z" class="st15"/>
        <path id="maintenanceMode_385_" d="M500 52.3l-.6 1.5h1.3l-.6-1.5h-.1z" class="st13"/>
      </g>
      <path id="maintenanceMode_383_" d="M488.4 70.6l2.3-6.8c.2-.5.1-1-.1-1.5l-3.2-5.7V86.2c0 .6.5 1.1 1.1 1.1h1.9V71.4h-2v-.8z" class="st12"/>
      <g id="maintenanceMode_359_">
        <path id="maintenanceMode_382_" d="M489.4 51.6h3.9c.6 0 1 .5 1 1v32.9c0 .6-.5 1-1 1h-3.9c-.6 0-1-.5-1-1V52.6c0-.5.4-1 1-1z" class="st11"/>
        <path id="maintenanceMode_381_" fill="#b7d2f9" d="M489.5 51.6h2.1v34.9h-2.1c-.6 0-1.1-.5-1.1-1.1V52.7c0-.6.5-1.1 1.1-1.1z"/>
        <path id="maintenanceMode_380_" d="M488.4 84.1h.7v.4h-.7z" class="st17"/>
        <path id="maintenanceMode_379_" d="M488.4 82.6h.7v.4h-.7z" class="st17"/>
        <path id="maintenanceMode_378_" d="M488.4 81h.7v.4h-.7z" class="st17"/>
        <path id="maintenanceMode_377_" d="M488.4 79.5h.7v.4h-.7z" class="st17"/>
        <path id="maintenanceMode_376_" d="M488.3 77.9h1.5v.4h-1.5z" class="st17"/>
        <path id="maintenanceMode_375_" d="M488.4 76.4h.7v.4h-.7z" class="st17"/>
        <path id="maintenanceMode_374_" d="M488.4 74.8h.7v.4h-.7z" class="st17"/>
        <path id="maintenanceMode_373_" d="M488.4 73.3h.7v.4h-.7z" class="st17"/>
        <path id="maintenanceMode_372_" d="M488.4 71.7h.7v.4h-.7z" class="st17"/>
        <path id="maintenanceMode_371_" d="M488.3 70.2h1.5v.4h-1.5z" class="st17"/>
        <path id="maintenanceMode_370_" d="M488.4 68.6h.7v.4h-.7z" class="st17"/>
        <path id="maintenanceMode_369_" d="M488.4 67.1h.7v.4h-.7z" class="st17"/>
        <path id="maintenanceMode_368_" d="M488.4 65.5h.7v.4h-.7z" class="st17"/>
        <path id="maintenanceMode_367_" d="M488.4 64h.7v.4h-.7z" class="st17"/>
        <path id="maintenanceMode_366_" d="M488.3 62.4h1.5v.4h-1.5z" class="st17"/>
        <path id="maintenanceMode_365_" d="M488.4 60.9h.7v.4h-.7z" class="st17"/>
        <path id="maintenanceMode_364_" d="M488.4 59.3h.7v.4h-.7z" class="st17"/>
        <path id="maintenanceMode_363_" d="M488.4 57.8h.7v.4h-.7z" class="st17"/>
        <path id="maintenanceMode_362_" d="M488.4 56.2h.7v.4h-.7z" class="st17"/>
        <path id="maintenanceMode_361_" d="M488.3 54.7h1.5v.4h-1.5z" class="st17"/>
        <path id="maintenanceMode_360_" d="M488.4 53.1h.7v.4h-.7z" class="st17"/>
      </g>
      <path id="maintenanceMode_358_" d="M493.3 51.6v6.9h-.6v7.6h.6v20.4c.6 0 1-.5 1-1.1V52.7c0-.6-.4-1-1-1.1z" class="st12"/>
      <g id="maintenanceMode_349_">
        <path id="maintenanceMode_357_" d="M494.4 65.8h2.6v20.7h-2.6z" class="st18"/>
        <path id="maintenanceMode_356_" fill="#474963" d="M495.7 65.8h1.3v20.7h-1.3z"/>
        <path id="maintenanceMode_355_" d="M493.8 61.2h3.5v4.9h-3.5z" class="st18"/>
        <path id="maintenanceMode_354_" d="M493.8 61.2h3.5v.3h-3.5z" class="st2"/>
        <path id="maintenanceMode_353_" d="M493.8 58.5h3.5v2.7h-3.5z" class="st18"/>
        <path id="maintenanceMode_352_" d="M497.2 52.9l-2.8-2.4v8h2.8z" class="st8"/>
        <path id="maintenanceMode_351_" fill="#ececec" d="M494.4 51.4v7.1h2.8v-4.7z"/>
        <path id="maintenanceMode_350_" fill="#b1b1b1" d="M495.8 58.5h1.4v-4.7l-1.4-1.2z"/>
      </g>
      <g id="maintenanceMode_342_" class="st22">
        <path id="maintenanceMode_6_" d="M488.4 86.5h4.9c.3 0 .5-.1.7-.3v-.1c.1-.1.1-.2.2-.3.1-.1.1-.3.1-.4v-9.1h-12.8v10.2h6.9z" class="st12"/>
        <path id="maintenanceMode_347_" d="M497.6 85.2c0 .7.6 1.3 1.3 1.3h2.4c.7 0 1.3-.6 1.3-1.3v-9h-4.9v9h-.1z" class="st12"/>
        <path id="maintenanceMode_346_" d="M497 86.5V76.3h-2.6v10.2h1.3z" class="st12"/>
        <path id="maintenanceMode_343_" d="M505.7 76.3v8c0 .2 0 .3.1.5 0 .1 0 .1.1.2 0 .1 0 .2.1.2 0 .1.1.2.1.2l.1.1c.1.1.1.2.2.3l.1.1c.1.1.2.2.3.2.4.3.9.4 1.5.4 1.2-.1 2-1.2 2-2.4v-7.8h-4.6zm2.3 8.6c-.4 0-.8-.4-.8-.8s.4-.8.8-.8.8.4.8.8-.3.8-.8.8z" class="st12"/>
      </g>
      <g id="maintenanceMode_335_">
        <path id="maintenanceMode_341_" d="M515.2 98.8H481V77.4h36.3v19.3c0 1.1-.9 2.1-2.1 2.1z" class="st3"/>
        <path id="maintenanceMode_340_" fill="#bf9447" d="M479.4 98.8h1.6V77.4h-3.7v19.3c0 1.1.9 2.1 2.1 2.1z"/>
        <path id="maintenanceMode_339_" d="M477.3 81.9h2.4l1.3-4.5-3.7.9z" class="st4"/>
        <path id="maintenanceMode_338_" d="M476.7 80.1h2.6c.2 0 .4-.1.4-.3l1.2-2.4h-3.7l-1 2c-.1.3.2.7.5.7z" class="st3"/>
        <path id="maintenanceMode_337_" d="M517.3 81.9v-3.6l-36.3-.9 2 4.5z" class="st4"/>
        <path id="maintenanceMode_336_" d="M518.3 80.1h-35.1c-.2 0-.3-.1-.4-.2l-1.8-2.5h36.3l1.4 1.9c.3.3.1.8-.4.8z" class="st3"/>
      </g>
    </g>
    <path fill="#8c98a4" d="M760.2 8H668c-1.2 0-2.1 1-2.1 2.2v75h96.4V10.3c0-1.3-.9-2.3-2.1-2.3z" opacity=".3"/>
    <path id="maintenanceMode_333_" d="M769.4 84.2H669.1V11.5c0-2.4 2-4.4 4.4-4.4h91.4c2.4 0 4.4 2 4.4 4.4v72.7h.1z" class="st2"/>
    <path id="maintenanceMode_332_" d="M769.4 16.4V9c0-1.2-1-2.2-2.2-2.2h-95.8c-1.2 0-2.2 1-2.2 2.2v7.4h100.2z" class="st11"/>
    <path id="maintenanceMode_331_" d="M676.6 11.9c0 .7-.6 1.3-1.3 1.3-.7 0-1.3-.6-1.3-1.3s.6-1.3 1.3-1.3c.8 0 1.3.6 1.3 1.3z" class="st2"/>
    <path id="maintenanceMode_330_" d="M680.9 11.9c0 .7-.6 1.3-1.3 1.3-.7 0-1.3-.6-1.3-1.3s.6-1.3 1.3-1.3c.7 0 1.3.6 1.3 1.3z" class="st2"/>
    <path id="maintenanceMode_329_" d="M685.2 11.9c0 .7-.6 1.3-1.3 1.3-.7 0-1.3-.6-1.3-1.3s.6-1.3 1.3-1.3 1.3.6 1.3 1.3z" class="st2"/>
    <path id="maintenanceMode_328_" fill="#191c3c" d="M767.2 7.1h-2.8c1.2 0 2.2 1 2.2 2.2v74.9h2.8V9.3c0-1.2-1-2.2-2.2-2.2z" opacity=".2"/>
    <path d="M679.1 26h-1.6c-1 0-1.8-.8-1.8-1.8s.8-1.8 1.8-1.8h1.6c1 0 1.8.8 1.8 1.8s-.8 1.8-1.8 1.8zM679.1 35.1h-1.6c-1 0-1.8-.8-1.8-1.8s.8-1.8 1.8-1.8h1.6c1 0 1.8.8 1.8 1.8s-.8 1.8-1.8 1.8zM679.1 44.1h-1.6c-1 0-1.8-.8-1.8-1.8s.8-1.8 1.8-1.8h1.6c1 0 1.8.8 1.8 1.8s-.8 1.8-1.8 1.8zM679.1 53.1h-1.6c-1 0-1.8-.8-1.8-1.8s.8-1.8 1.8-1.8h1.6c1 0 1.8.8 1.8 1.8s-.8 1.8-1.8 1.8zM679.1 62.2h-1.6c-1 0-1.8-.8-1.8-1.8s.8-1.8 1.8-1.8h1.6c1 0 1.8.8 1.8 1.8s-.8 1.8-1.8 1.8zM679.1 71.2h-1.6c-1 0-1.8-.8-1.8-1.8s.8-1.8 1.8-1.8h1.6c1 0 1.8.8 1.8 1.8s-.8 1.8-1.8 1.8zM679.1 80.3h-1.6c-1 0-1.8-.8-1.8-1.8s.8-1.8 1.8-1.8h1.6c1 0 1.8.8 1.8 1.8s-.8 1.8-1.8 1.8zM757.4 26h-1.6c-1 0-1.8-.8-1.8-1.8s.8-1.8 1.8-1.8h1.6c1 0 1.8.8 1.8 1.8s-.8 1.8-1.8 1.8z" class="st26"/>
    <path d="M757.4 35.1h-1.6c-1 0-1.8-.8-1.8-1.8s.8-1.8 1.8-1.8h1.6c1 0 1.8.8 1.8 1.8s-.8 1.8-1.8 1.8z" class="st10"/>
    <path d="M757.4 44.1h-1.6c-1 0-1.8-.8-1.8-1.8s.8-1.8 1.8-1.8h1.6c1 0 1.8.8 1.8 1.8s-.8 1.8-1.8 1.8z" class="st27"/>
    <path d="M757.4 53.1h-1.6c-1 0-1.8-.8-1.8-1.8s.8-1.8 1.8-1.8h1.6c1 0 1.8.8 1.8 1.8s-.8 1.8-1.8 1.8z" class="st10"/>
    <path d="M757.4 62.2h-1.6c-1 0-1.8-.8-1.8-1.8s.8-1.8 1.8-1.8h1.6c1 0 1.8.8 1.8 1.8s-.8 1.8-1.8 1.8z" class="st27"/>
    <path d="M757.4 71.2h-1.6c-1 0-1.8-.8-1.8-1.8s.8-1.8 1.8-1.8h1.6c1 0 1.8.8 1.8 1.8s-.8 1.8-1.8 1.8z" class="st10"/>
    <path d="M757.4 80.3h-1.6c-1 0-1.8-.8-1.8-1.8s.8-1.8 1.8-1.8h1.6c1 0 1.8.8 1.8 1.8s-.8 1.8-1.8 1.8zM708.9 26h-23.1c-1 0-1.8-.8-1.8-1.8s.8-1.8 1.8-1.8h23.1c1 0 1.8.8 1.8 1.8s-.8 1.8-1.8 1.8z" class="st26"/>
    <path d="M714.6 26h4.7c1 0 1.8-.8 1.8-1.8s-.8-1.8-1.8-1.8h-4.7c-1 0-1.8.8-1.8 1.8s.8 1.8 1.8 1.8zM696.3 35.1h-10.4c-1 0-1.8-.8-1.8-1.8s.8-1.8 1.8-1.8h10.4c1 0 1.8.8 1.8 1.8s-.8 1.8-1.8 1.8z" class="st3"/>
    <path d="M705.6 35.1h31.2c1 0 1.8-.8 1.8-1.8s-.8-1.8-1.8-1.8h-31.2c-1 0-1.8.8-1.8 1.8s.8 1.8 1.8 1.8z" class="st11"/>
    <path d="M729.8 44.1h-43.9c-1 0-1.8-.8-1.8-1.8s.8-1.8 1.8-1.8h43.9c1 0 1.8.8 1.8 1.8s-.8 1.8-1.8 1.8zM739.5 53.1h-53.6c-1 0-1.8-.8-1.8-1.8s.8-1.8 1.8-1.8h53.6c1 0 1.8.8 1.8 1.8s-.8 1.8-1.8 1.8z" class="st26"/>
    <path d="M729.8 62.2h-16.2c-1 0-1.8-.8-1.8-1.8s.8-1.8 1.8-1.8h16.2c1 0 1.8.8 1.8 1.8s-.8 1.8-1.8 1.8z" class="st11"/>
    <path d="M707 62.2h-21.1c-1 0-1.8-.8-1.8-1.8s.8-1.8 1.8-1.8H707c1 0 1.8.8 1.8 1.8s-.8 1.8-1.8 1.8zM719.3 71.2h-33.4c-1 0-1.8-.8-1.8-1.8s.8-1.8 1.8-1.8h33.4c1 0 1.8.8 1.8 1.8s-.8 1.8-1.8 1.8z" class="st26"/>
    <path d="M725.3 71.2H736c1 0 1.8-.8 1.8-1.8s-.8-1.8-1.8-1.8h-10.7c-1 0-1.8.8-1.8 1.8s.8 1.8 1.8 1.8z" class="st3"/>
    <path d="M729.8 80.3h-43.9c-1 0-1.8-.8-1.8-1.8s.8-1.8 1.8-1.8h43.9c1 0 1.8.8 1.8 1.8s-.8 1.8-1.8 1.8z" class="st26"/>
    <g id="maintenanceMode_33_">
      <g id="maintenanceMode_117_">
        <path id="maintenanceMode_120_" d="M613.5 89.7c0 5.1-4.1 9.3-9.3 9.3-5.1 0-9.3-4.1-9.3-9.3s4.1-9.3 9.3-9.3c5.1 0 9.3 4.2 9.3 9.3z" class="st11"/>
        <g id="maintenanceMode_118_">
          <path id="maintenanceMode_119_" d="M603.4 92.6l-3-3 1-1 2 1.9 3.6-3.7 1.1 1.1z" class="st2"/>
        </g>
      </g>
      <path id="maintenanceMode_116_" d="M595 89.7c0 2.9 1.4 5.6 3.5 7.2 1-.8 1.9-1.9 2.5-3.1 1.9-4 .8-8.6-2.4-11.4-2.3 1.8-3.6 4.4-3.6 7.3z" class="st28"/>
      <g id="maintenanceMode_107_">
        <path id="maintenanceMode_115_" d="M599.2 93.8c-2.3 4.7-7.9 6.7-12.6 4.4-4.7-2.3-6.7-7.9-4.4-12.6 2.3-4.7 7.9-6.7 12.6-4.4s6.7 7.9 4.4 12.6z" class="st3"/>
        <g id="maintenanceMode_108_">
          <path id="maintenanceMode_110_" d="M590.2 88.5l1-2.1 1.7.8-1 2.1 2.1 1-.7 1.5-2.1-1-1 2.1-1.7-.8 1-2.1-2-1 .7-1.5 2 1z" class="st2"/>
        </g>
      </g>
      <path id="maintenanceMode_105_" d="M586 81.5c-1.6.9-3 2.3-3.9 4.1-2.1 4.4-.5 9.7 3.6 12.2 2.8-1.7 4.7-4.7 4.7-8.2 0-3.4-1.8-6.4-4.4-8.1z" class="st28"/>
      <g id="maintenanceMode_34_">
        <circle id="maintenanceMode_103_" cx="579.4" cy="89.5" r="9.6" class="st18"/>
        <path d="M582.9 89.7c.2.3.3.7.3 1.2-.1.6-.3 1.1-.8 1.3-.4.2-1 .4-1.7.4v1.2h-.9v-1.2h-.7v1.2h-.9v-1.2h-1.7l.2-1h.7c.1 0 .2-.1.2-.3v-3.8c0-.2-.1-.3-.3-.3H576.5v-.9h1.7v-1.4h.9v1.4h.7V85h.9v1.4c.6.1 1 .2 1.4.4s.6.6.6 1c.1.7-.2 1.1-.7 1.4.3 0 .7.2.9.5zm-3.8-.8h.1c.5 0 .9 0 1.1-.1.5-.1.7-.4.7-.7 0-.4-.2-.6-.7-.8-.3-.1-.6-.1-1.1-.1h-.2l.1 1.7zm.2 2.7c.6 0 1 0 1.3-.1.5-.1.8-.4.8-.8s-.3-.7-.8-.8c-.3-.1-.7-.1-1.3-.1h-.2v1.8h.2z" class="st2"/>
      </g>
    </g>
    <g id="maintenanceMode_29_">
      <path id="maintenanceMode_30_" d="M555.9 90.8h2.3c.5 0 .9-.4.9-.9v-3c0-.5-.4-.9-.9-.9h-1.8c-.3 0-.6-.2-.7-.5-.1-.2-.1-.3-.2-.5-.1-.3-.1-.6.1-.8l1.3-1.3c.3-.3.3-.9 0-1.2l-2.1-2.1c-.3-.3-.9-.3-1.2 0l-1.3 1.3c-.2.2-.5.3-.8.1-.2-.1-.4-.2-.6-.2-.3-.1-.4-.4-.4-.7v-1.8c0-.5-.4-.9-.9-.9h-3c-.5 0-.9.4-.9.9v1.8c0 .3-.2.6-.5.7-.2.1-.4.1-.5.2-.3.1-.6.1-.8-.1l-1.3-1.3c-.3-.3-.9-.3-1.2 0l-2.1 2.1c-.3.3-.3.9 0 1.2l1.3 1.3c.2.2.3.5.2.8-.1.2-.2.4-.2.6-.1.3-.4.4-.7.4h-1.8c-.5 0-.9.4-.8.9v3c0 .5.4.9.9.8h1.8c.3 0 .6.2.7.5.1.2.1.3.2.5.1.3.1.6-.1.8l-1.3 1.3c-.3.3-.3.9 0 1.2l2.1 2.1c.3.3.9.3 1.2 0l1.3-1.3c.2-.2.5-.3.8-.1.2.1.4.2.6.2.3.1.4.4.4.7v1.8c0 .5.4.9.9.8h3c.5 0 .9-.4.8-.9v-1.8c0-.3.2-.6.5-.7.2-.1.3-.1.5-.2.3-.1.6-.1.8.1l1.3 1.3c.3.3.9.3 1.2 0l2.1-2.1c.3-.3.3-.9 0-1.2l-1.3-1.3c-.2-.2-.3-.5-.1-.8.1-.2.3-.8.3-.8zm-11.8-3.1c.5-2.6 3.2-4.1 5.6-3.2 1.9.7 3 2.7 2.6 4.7-.5 2.6-3.2 4.1-5.6 3.2-1.8-.7-2.9-2.7-2.6-4.7z" class="st3"/>
    </g>
    <g id="maintenanceMode_857_">
      <g id="maintenanceMode_868_">
        <path id="maintenanceMode_901_" fill="#fdfdfe" d="M469.5 98.8h-24.9c-1.2 0-2.2-1-2.2-2.2V76h27.1c.4 0 .8.3.8.8v21.3c-.1.3-.4.7-.8.7z"/>
        <path id="maintenanceMode_900_" d="M445.3 94.9c-1 0-3 .2-3 2.3V74.8c0-1.3 1-2.3 2.3-2.3h.7v22.4z" class="st30"/>
      </g>
      <path id="maintenanceMode_834_" d="M461.4 89.4h1.5c.3 0 .5-.2.5-.5V87c0-.3-.2-.5-.5-.5h-1.2c-.2 0-.4-.1-.4-.3 0-.1-.1-.2-.1-.3-.1-.2-.1-.4.1-.5l.8-.8c.2-.2.2-.6 0-.8l-1.3-1.3c-.2-.2-.6-.2-.8 0l-.8.8c-.1.1-.3.2-.5.1-.1-.1-.2-.1-.4-.1-.2-.1-.3-.2-.3-.4v-1.2c0-.3-.2-.5-.5-.5h-1.9c-.3 0-.5.2-.5.5v1.2c0 .2-.1.4-.3.4-.1 0-.2.1-.3.1-.2.1-.4.1-.5-.1l-.9-.9c-.2-.2-.6-.2-.8 0l-1.3 1.3c-.2.2-.2.6 0 .8l.8.8c.1.1.2.3.1.5-.1.1-.1.2-.1.4-.1.2-.2.3-.4.3h-1.2c-.3 0-.5.2-.5.5v1.9c0 .3.2.5.5.5h1.2c.2 0 .4.1.4.3 0 .1.1.2.1.3.1.2.1.4-.1.5l-.8.8c-.2.2-.2.6 0 .8l1.3 1.3c.2.2.6.2.8 0l.8-.8c.1-.1.3-.2.5-.1.1.1.2.1.4.1.2.1.3.2.3.4v1.2c0 .3.2.5.5.5h1.9c.3 0 .5-.2.5-.5V93c0-.2.1-.4.3-.4.1 0 .2-.1.3-.1.2-.1.4-.1.5.1l.8.8c.2.2.6.2.8 0l1.3-1.3c.2-.2.2-.6 0-.8l-.8-.8c-.1-.1-.2-.3-.1-.5.2-.2.3-.6.3-.6zm-7.5-2c.3-1.7 2-2.6 3.6-2 1.2.5 1.9 1.7 1.7 3-.3 1.7-2 2.6-3.6 2-1.2-.4-1.9-1.7-1.7-3z" class="st11"/>
      <path id="maintenanceMode_858_" d="M470.2 98.2V76.5c0-.3-.3-.6-.6-.6h-1.8V98.1c0 .3.3.6.6.6h1.2c.4.1.6-.2.6-.5z" class="st12"/>
      <g id="maintenanceMode_838_">
        <path id="maintenanceMode_856_" d="M468.6 74.1h2.5v21.6h-2.5z" class="st3"/>
        <path id="maintenanceMode_855_" d="M471.1 95.6h-2.5v2.3c0 .5.4.8.8.8h.9c.5 0 .8-.4.8-.8v-2.3z" class="st30"/>
        <path id="maintenanceMode_852_" fill="#fde1a7" d="M468.6 74.1h1.3v21.6h-1.3z"/>
        <path id="maintenanceMode_851_" d="M469.7 71.1l-1.2 2.9h2.6l-1.2-2.9c0-.1-.1-.1-.2 0z" class="st15"/>
        <path id="maintenanceMode_850_" d="M469.8 71l-.3.8h.7l-.4-.8c0-.1 0-.1 0 0z" class="st13"/>
        <path id="maintenanceMode_854_" d="M468.6 95h2.5v.6h-2.5z" class="st13"/>
      </g>
    </g>
    <g>
      <g id="maintenanceMode_615_">
        <g id="maintenanceMode_873_">
          <path id="maintenanceMode_883_" d="M551.5 27.9h-5.2c-.4 0-.7-.3-.7-.7V-6.9c0-.4.3-.7.7-.7h5.2c.4 0 .7.3.7.7v34.1c0 .4-.3.7-.7.7z" class="st32"/>
          <path id="maintenanceMode_882_" d="M547.8-4.8h1.8V-3h-1.8z" class="st2"/>
          <path id="maintenanceMode_881_" d="M547.8-1.3h1.8V.5h-1.8z" class="st2"/>
          <path id="maintenanceMode_880_" d="M547.8 2.2h1.8V4h-1.8z" class="st2"/>
          <path id="maintenanceMode_879_" d="M547.8 5.7h1.8v1.8h-1.8z" class="st2"/>
          <path id="maintenanceMode_878_" d="M547.8 9.3h1.8v1.8h-1.8z" class="st2"/>
          <path id="maintenanceMode_877_" d="M547.8 12.8h1.8v1.8h-1.8z" class="st2"/>
          <path id="maintenanceMode_876_" d="M547.8 16.3h1.8v1.8h-1.8z" class="st2"/>
          <path id="maintenanceMode_875_" d="M547.8 19.8h1.8v1.8h-1.8z" class="st2"/>
          <path id="maintenanceMode_874_" d="M547.8 23.4h1.8v1.8h-1.8z" class="st2"/>
        </g>
        <g id="maintenanceMode_610_">
          <path id="maintenanceMode_861_" d="M576.2 26.2l-4.9 1.8c-.4.1-.8-.1-.9-.4l-11.5-32c-.1-.4.1-.8.4-.9l4.9-1.8c.4-.1.8.1.9.4l11.5 32c.1.3-.1.7-.4.9z" class="st32"/>
          <path id="maintenanceMode_844_" d="M566.3-1.3c.5 1.3-.2 2.8-1.5 3.3s-2.8-.2-3.3-1.5.2-2.8 1.5-3.3 2.8.2 3.3 1.5z" class="st2"/>
          <path id="maintenanceMode_847_" d="M573.9 19.9c.5 1.3-.2 2.8-1.5 3.3s-2.8-.2-3.3-1.5.2-2.8 1.5-3.3c1.3-.6 2.8.1 3.3 1.5z" class="st2"/>
        </g>
        <g id="maintenanceMode_652_">
          <path id="maintenanceMode_841_" fill="#4d40ad" d="M558.3-10.1h-5.7c-.3 0-.5.2-.5.5v37c0 .3.2.5.5.5h5.7c.3 0 .5-.2.5-.5v-37c0-.3-.2-.5-.5-.5z"/>
          <path id="maintenanceMode_9_" fill="#2d1582" d="M552.9 27.9h2.6v-38h-2.6c-.4 0-.8.3-.8.8v36.5c0 .4.4.7.8.7z"/>
          <path id="maintenanceMode_835_" d="M552.1-5.5h6.7v5.3h-6.7z" class="st2"/>
          <path id="maintenanceMode_8_" d="M552.1 18h6.7v5.3h-6.7z" class="st2"/>
        </g>
        <g id="maintenanceMode_648_">
          <path id="maintenanceMode_651_" fill="#efa02e" d="M544.9 27.9h-8.3c-.3 0-.6-.3-.6-.6v-39c0-.3.3-.6.6-.6h8.3c.3 0 .6.3.6.6v39c0 .4-.3.6-.6.6z"/>
          <path id="maintenanceMode_650_" fill="#fdd14e" d="M536.9 27.9h3.8v-40.1h-3.8c-.5 0-.9.4-.9.9v38.4c0 .4.4.8.9.8z"/>
          <path id="maintenanceMode_649_" d="M541.9 25.1h-2.2c-.2 0-.3-.1-.3-.3V-7.3c0-.2.1-.3.3-.3h2.2c.2 0 .3.1.3.3v32.1c0 .2-.2.3-.3.3z" class="st37"/>
        </g>
      </g>
      <path d="M509.8 28.2h90.3v5.6h-90.3z" class="st38"/>
      <path fill="#7c98d6" d="M509.8 33.4l3.1 2.9h91.3l-.1-5.7-4-2.4v5.2z" opacity=".2"/>
    </g>
  </g>
  <g>
    <path d="M1016 98.9s0 .1 0 0c.7.4 0 0 0 0zm-9.1-4.5c-1.4 1.5-3.1 3.3-2.5 3.6 2 1.2 9.2 1.1 11.7.9 17 .8 34.2-6 45.8-18.4-8-5.5-18.7-6.4-28.1-3.7-9.4 2.7-17.6 8.6-24.3 15.6-.5.6-2.2 1.6-2.6 2z" class="st40"/>
    <path fill="#05331e" d="M1006.9 94.4c.5-.5 2.1-1.4 2.6-1.9 6.8-7 15-12.9 24.3-15.6 4.5-1.3 9.3-1.8 14-1.3-5.4.2-10.8 1.6-15.5 4-8.5 4.3-15.3 11.4-20.5 19.4-2.9 0-6.1-.3-7.3-1-.7-.3 1-2.1 2.4-3.6z"/>
    <path d="M1008.2 66.2c3.2-2.9 7.5-4.4 11.6-5.6 6.4-1.8 13-3.1 19.6-3.7-3.6 8-6.2 16-12.7 21.9-2.6 2.3-6.8 4.6-9.5 6.8-3.2 2.6-8.3 9.3-10.9 12.6-3 .6-5.3-3.7-6.6-6.7-1.7-3.8.2-9.6 1.5-13.5 1.6-4.5 3.6-8.8 7-11.8z" class="st40"/>
    <path d="M1015.5 85.7c2.3-2.6 6-5.6 8.2-8.3 4.5-5.8 6-12.5 7.6-19.4 2.7-.5 5.4-.8 8.1-1.1-3.6 8-6.2 16-12.7 21.9-2.6 2.3-6.8 4.6-9.5 6.8-1.6 1.2-3.5 3.4-5.5 5.7 1.4-2.3 2.7-4.3 3.8-5.6z" class="st43"/>
    <path d="M1007.3 44.6c1.5 7.4 2.9 15 1.6 22.4-.5 3-1.5 5.9-2.4 8.8-1.1 3.8-1.7 6.1-2.7 9.9.8-.5-.8 1.8-1.6 3.1-.9 1.4-2.2 3.2-3.2 1.7-1.2-1.7-2.5-3.6-3-5.6-.6-2.4 0-6.4 0-8.9-.1-6.5-.1-13.1 2.1-19.2 1.8-4.7 5-9.1 9.2-12.2z" class="st40"/>
    <path d="M1057.1 81.9c-8.4-.3-16.7 0-24.9 2.3-7.7 2.2-14.7 5.8-21.1 10.7-.3.3-.7-.3-.3-.6 6.4-4.8 13.6-8.5 21.3-10.6 8.3-2.3 16.5-2.5 25-2 .1 0 .1.2 0 .2zM1036.7 59.3c-6.8 3.2-13 7.4-18.4 12.7-5.8 5.7-9.7 12.5-14 19.2-.1.2-.4 0-.3-.2 7.4-13.9 17.9-25.7 32.7-31.9 0 0 .1.2 0 .2zM1006.9 47.5c-4.4 13.2-9.6 25.8-6.6 40 .1.3-.4.4-.5.1-2.8-13.5 1.3-27.9 6.9-40.2.1 0 .2.1.2.1z" class="st37"/>
    <path d="M1051 86.6c-.9-.9-1.8-1.9-2.8-2.7s-2.2-1.3-3.3-2c-.1 0 0-.2.1-.2 2.3.9 4.7 2.8 6 4.9.1 0 0 .1 0 0zM1044.2 90c-2.4-4.3-5.8-5.5-10.4-6.1-.4 0-.3-.5.1-.5 4.3.6 8.7 1.9 10.3 6.6.1 0 0 0 0 0zM1035.8 90.5c-2.7-2.1-5.5-5.3-9.3-4.3-.2.1-.3-.2-.1-.3 3.8-1 6.9 2.1 9.5 4.5 0 .1-.1.2-.1.1zM1027.5 95c-2.5-3.2-6.2-6.1-10.4-3.9-.2.1-.5-.2-.2-.4 4.2-2.2 8.5.6 10.6 4.3.1 0 0 0 0 0zM1046.8 76.6c-.6 2.7-2.9 4.3-5.1 5.8-.2.1-.3-.2-.1-.3 2.2-1.4 4.3-2.9 5-5.6.1-.1.2-.1.2.1z" class="st37"/>
    <path d="M1037.9 77.1c-1 2.6-2.7 4.9-4.7 6.8-.2.2-.4-.1-.2-.2 2-1.9 3.5-4.1 4.9-6.6-.1 0 0 0 0 0zM1030.3 80.1c-.5 1.3-1.1 2.4-1.9 3.5-.6.8-1.6 2.3-2.5 2.6-.1 0-.2 0-.2-.1l-.1-.1c-.1-.1-.1-.3 0-.4 0 0 .1 0 .1-.1h.3l.1.1c.1.1.1.2-.1.2-.3 0 1-1.4 1-1.4.4-.4.8-.8 1.1-1.3.8-1 1.5-2.1 2.1-3.2.1.1.2.2.1.2zM1024 83.3c-1.7 2.8-4.2 5.3-6.8 7.3-.3.2-.7-.2-.4-.4 2.7-2.1 4.8-4.5 7-7.1.1 0 .3.1.2.2zM1032.8 68.2c-4.7-.3-8.7-.1-12.9 2.5-.3.2-.5-.3-.3-.4 3.7-2.4 8.9-3.8 13.2-2.3.1 0 .1.2 0 .2zM1025.4 76.1c-2.3 0-4.4-.1-6.7.5-2 .5-3.9 1.2-5.9 1.9-.3.1-.4-.3-.1-.4 3.9-1.5 8.4-3.2 12.7-2 .1-.1.1 0 0 0zM1016.7 82.9c-1.6.1-3.2.2-4.7.5-1.8.3-3 1.2-4.2 2.6-.2.2-.5-.1-.3-.3 1.1-1.3 2.2-2.2 3.9-2.6 1.7-.4 3.5-.5 5.3-.4.1 0 .1.2 0 .2z" class="st37"/>
    <path d="M1023.1 62.8c-.1 1.7-1 3.4-1.7 4.9-.4 1-.8 2.7-2.1 2.9-.1 0-.2-.1-.1-.2 2.2-1.8 2.3-5.3 3.7-7.7.1 0 .2 0 .2.1zM1016.1 64.9c-.4 4.7-1.9 9.3-3.5 13.7-.1.2-.4.1-.3-.1 1.7-4.5 2.7-9 3.8-13.6-.2-.1 0-.1 0 0zM1008.5 74.7c0 4-1 8-1.6 11.9 0 .3-.5.2-.5-.1.7-3.9 1.3-7.9 1.9-11.8 0-.1.2-.1.2 0zM1008.3 55c-2.8 3.2-5.1 6.6-6.9 10.4-.1.3-.6 0-.5-.3 1.8-3.9 4.1-7.4 7.2-10.4.1-.1.3.1.2.3z" class="st37"/>
    <path d="M999.2 55.7c1.3 3 1.6 6.9 1.8 10.1 0 .3-.4.3-.5 0-.1-1.9-.3-3.7-.6-5.6-.3-1.5-.7-3-.9-4.5 0-.1.1-.1.2 0zM1004.3 67.1c-2.1 3.3-3.4 6.5-4.9 10.1 0 .1-.2 0-.2-.1.5-3.6 2.6-7.4 4.9-10.2.2 0 .3.1.2.2zM999.1 77.4c-.9-2.3-1.7-4.6-3-6.7-.1-.2.2-.3.3-.2 1.2 2.1 2.4 4.5 2.7 6.9.1 0 0 0 0 0z" class="st37"/>
    <g id="maintenanceMode_121_">
      <g id="maintenanceMode_307_">
        <path id="maintenanceMode_319_" d="M1232.3 83.1c-3.7 3.1-9.2 2.6-12.2-1.1-3.1-3.7-2.6-9.2 1.1-12.2 3.7-3.1 9.2-2.6 12.2 1.1 3.1 3.7 2.6 9.2-1.1 12.2z" class="st27"/>
        <path d="M1229.1 74.8l-2.8 5.9c0 .1-.1.1-.2.1h-.1c-.1 0-.2-.1-.2-.3l1-4.1-2.1.5h-.1c-.1 0-.1 0-.2-.1s-.1-.1-.1-.2l1-4.2c0-.1.1-.2.2-.2h1.7c.1 0 .2.1.2.2v.1l-.9 2.4 2-.5h.1c.1 0 .1 0 .2.1.3.1.3.2.3.3z" class="st2"/>
      </g>
      <path id="maintenanceMode_306_" d="M1225.6 76.7c0-2.9-1.3-5.4-3.3-7.2-.4.2-.8.5-1.2.8-2 1.7-3 4-3.1 6.4.1 1.9.7 3.7 2 5.3.6.8 1.4 1.4 2.2 1.9 2.1-1.7 3.4-4.3 3.4-7.2z" class="st28"/>
      <g id="maintenanceMode_1_">
        <path id="maintenanceMode_305_" d="M1224.1 75.6c0 5.3-4.3 9.5-9.5 9.5-5.3 0-9.5-4.3-9.5-9.5 0-5.3 4.3-9.5 9.5-9.5s9.5 4.3 9.5 9.5z" class="st11"/>
        <path d="M1217.1 78.9c0 .1 0 .2-.1.2 0 0-.5.2-1.1.2-1.6 0-3-1-3.4-2.5h-.5c-.1 0-.2-.1-.2-.2V76c0-.1.1-.2.2-.2h.3v-.6h-.4c-.1 0-.2-.1-.2-.2v-.6c0-.1.1-.2.2-.2h.5c.5-1.5 1.8-2.4 3.4-2.4.5 0 1 .1 1 .1s.1 0 .1.1v.1l-.2.8c0 .1-.1.1-.2.1 0 0-.4-.1-.7-.1-.9 0-1.6.5-2 1.3h2.5c.1 0 .1 0 .1.1v.1l-.1.6c0 .1-.1.1-.2.1h-2.6v.6h2.4c.1 0 .1 0 .1.1v.1l-.1.6c0 .1-.1.1-.2.1h-2c.3.8 1.1 1.3 2 1.3.5 0 .8-.1.8-.1h.1l.1.1.4 1z" class="st2"/>
      </g>
      <path id="maintenanceMode_149_" d="M1210.9 67.9c-3.3 1.4-5.7 4.6-5.9 8.4.2 3.2 2.1 6 4.7 7.6 4-2.9 5.4-8.3 3.3-12.9-.5-1.2-1.2-2.2-2.1-3.1z" class="st28"/>
      <g id="maintenanceMode_134_">
        <ellipse id="maintenanceMode_148_" cx="1201.9" cy="74.7" class="st3" rx="10.5" ry="10.5"/>
        <path d="M1208 70.8v6.9c0 .5-.4.9-.9.9h-9.1c-.5 0-.9-.4-.9-.9v-6.9c0-.5.4-.9.9-.9h9.1c.4 0 .9.4.9.9zm-10.3 0v1.3h9.5v-1.3c0-.1-.1-.2-.2-.2h-9.1c-.1 0-.2.1-.2.2zm9.5 7v-3.5h-9.5v3.5c0 .1.1.2.2.2h9.1c.1 0 .2-.1.2-.2zm-8.7-1.3h1.5v.7h-1.5v-.7zm2.2 0h2.2v.7h-2.2v-.7z" class="st2"/>
      </g>
      <path id="maintenanceMode_133_" d="M1192.4 79.1c.7 1.5 1.7 2.7 2.8 3.6.6-.8 1.2-1.8 1.5-2.8 1.4-4.1.2-8.5-2.9-11.2-1.5 1.8-2.4 4.1-2.4 6.5.1 1.3.4 2.6 1 3.9z" class="st28"/>
      <g id="maintenanceMode_122_">
        <path id="maintenanceMode_132_" fill="#00c9a7" d="M1194.7 78.2c-1.9 5.4-7.9 8.3-13.3 6.4s-8.3-7.9-6.4-13.3c1.9-5.4 7.8-8.3 13.3-6.4 5.5 2 8.3 7.9 6.4 13.3z"/>
        <path d="M1185.2 78.4v.9c0 .1-.1.2-.2.2h-.7c-.1 0-.2-.1-.2-.2v-.9c-1.2-.2-1.9-.9-2-1s-.1-.2 0-.2l.6-.7.1-.1h.1s.8.7 1.7.7c.5 0 1.1-.3 1.1-.9 0-.5-.6-.8-1.4-1.1-1-.4-2.2-.9-2.2-2.2 0-1 .8-1.8 1.9-2v-1c0-.1.1-.2.2-.2h.7c.1 0 .2.1.2.2v.9c1.1.1 1.7.7 1.7.7.1.1.1.1 0 .2l-.4.8-.1.1h-.1s-.7-.6-1.5-.6c-.7 0-1.1.3-1.1.8 0 .6.7.8 1.4 1.1 1 .4 2.1.8 2.1 2.1s-.8 2.2-1.9 2.4z" class="st2"/>
      </g>
    </g>
    <g id="maintenanceMode_320_">
      <path id="maintenanceMode_327_" d="M1043.2 86.9l-6.4-.5 5.1-5.9z" class="st3"/>
      <path id="maintenanceMode_326_" d="M1038.1 92.7l-6.4-.5 5.1-5.8z" class="st3"/>
      <path id="maintenanceMode_5_" d="M1050.6 98.5h-17.7l15.4-17.5z" class="st3"/>
      <path id="maintenanceMode_324_" d="M1050.6 98.5l-12.5-5.8 5.1-5.9z" class="st14"/>
      <path id="maintenanceMode_323_" d="M1031.7 92.2l1.2 6.3 5.1-5.8z" class="st14"/>
      <path id="maintenanceMode_4_" d="M1036.8 86.4l1.3 6.3 5.1-5.8z" class="st14"/>
      <path id="maintenanceMode_321_" d="M1041.9 80.5l1.3 6.3 5.1-5.8z" class="st14"/>
    </g>
    <g>
      <path d="M1098.5 84.7s-.7.3 0 0zm6.3-6.2c-6.5-6.7-14.4-12.5-23.4-15-9-2.6-19.3-1.7-27.1 3.6 11.2 11.9 27.8 18.5 44.2 17.6 2.4.2 9.3.3 11.2-.9.5-.3-1-2.1-2.4-3.5-.4-.4-2-1.4-2.5-1.8z" class="st40"/>
      <g class="st41">
        <path d="M1107.4 80.3c-.4-.4-2-1.4-2.4-1.8-6.5-6.7-14.4-12.5-23.4-15-4.4-1.2-9-1.7-13.4-1.2 5.1.2 10.4 1.6 15 3.9 8.2 4.2 14.7 11 19.8 18.7 2.7 0 5.8-.3 7-1 .3-.5-1.4-2.1-2.6-3.6z" class="st18"/>
      </g>
      <path d="M1112.6 64.3c1.3 3.7 3.1 9.3 1.5 13-1.2 2.9-3.5 7.1-6.4 6.5-2.4-3.1-7.3-9.6-10.5-12.1-2.6-2.1-6.6-4.3-9.2-6.5-6.3-5.7-8.7-13.3-12.2-21 6.4.6 12.6 1.8 18.9 3.6 4 1.1 8.1 2.6 11.2 5.4 3.4 2.8 5.3 7 6.7 11.1z" class="st40"/>
      <path d="M1099 71.9c-2.2-2.5-5.8-5.4-7.9-8-4.3-5.6-5.8-11.9-7.3-18.7-2.6-.4-5.2-.8-7.9-1 3.5 7.8 5.9 15.4 12.2 21 2.4 2.3 6.5 4.4 9.2 6.5 1.5 1.2 3.4 3.3 5.2 5.5-1.2-2.1-2.4-4.1-3.5-5.3z" class="st43"/>
      <path d="M1115.8 44.1c2.2 5.8 2.1 12.2 2.1 18.4 0 2.4.6 6.3 0 8.6-.4 1.9-1.7 3.7-2.9 5.3-1 1.4-2.2-.3-3.1-1.7-.8-1.3-2.3-3.6-1.6-3.1-1-3.6-1.7-5.8-2.6-9.5-1-2.8-1.8-5.6-2.4-8.5-1.2-7.2.2-14.4 1.6-21.5 4 3.3 7.1 7.5 8.9 12z" class="st40"/>
      <path d="M1059 68.2c8.1-.3 16.1 0 23.9 2.2 7.4 2.1 14.2 5.7 20.3 10.3.3.3.6-.3.3-.5-6.1-4.6-13.1-8.1-20.5-10.2-7.9-2.3-15.9-2.4-24.1-1.9-.1 0-.1.1.1.1zM1078.6 46.6c6.5 3.1 12.6 7.2 17.7 12.2 5.6 5.5 9.3 12 13.5 18.5.1.2.4 0 .3-.2-7.2-13.4-17.3-24.7-31.5-30.7 0 0-.2 0 0 .2zM1107.4 35.2c4.3 12.6 9.3 24.8 6.4 38.5-.1.3.3.4.4.1 2.7-13.1-1.2-26.9-6.8-38.6 0-.2-.2-.1 0 0z" class="st37"/>
      <path d="M1064.8 72.8c.9-.9 1.7-1.8 2.7-2.5 1-.8 2.1-1.3 3.2-1.9.1-.1 0-.2-.1-.2-2.2.7-4.5 2.6-5.8 4.6zM1071.4 76c2.3-4.1 5.6-5.3 10-5.8.3 0 .3-.5-.1-.4-4.1.5-8.4 1.8-9.9 6.2-.1 0 0 0 0 0zM1079.5 76.5c2.6-2 5.2-5.1 8.9-4.2.2.1.3-.3.1-.3-3.7-1-6.6 2.1-9 4.5-.2 0-.1.1 0 0zM1087.5 80.8c2.4-3.1 5.9-5.8 10-3.7.3.1.4-.3.2-.3-4-2.1-8.1.5-10.2 4-.2 0 0 .1 0 0zM1068.9 63.1c.5 2.6 2.8 4.2 4.9 5.6.2.1.3-.2.2-.3-2.1-1.4-4.2-2.8-4.9-5.3-.1-.2-.2-.1-.2 0zM1077.5 63.6c1 2.5 2.6 4.7 4.5 6.5.2.2.4-.1.3-.3-2.1-1.7-3.5-3.8-4.8-6.2 0 0-.1 0 0 0z" class="st37"/>
      <path d="M1084.7 66.5c.4 1.2 1 2.3 1.8 3.3.6.8 1.5 2.2 2.4 2.5.1 0 .2 0 .3-.1l.1-.1c.1-.1.1-.3-.1-.3l-.1-.1c-.1-.1-.2 0-.3 0l-.1.1c-.1.1-.1.2.1.3.3.1-1-1.4-1-1.4-.3-.4-.7-.8-1-1.2-.8-1-1.5-2-2-3.1 0 0-.1 0-.1.1zM1090.8 69.6c1.6 2.7 4.1 5.1 6.5 7.1.3.3.7-.2.4-.4-2.6-2-4.6-4.4-6.8-6.8-.1-.1-.3 0-.1.1zM1082.4 55.1c4.5-.3 8.5-.1 12.4 2.4.3.2.5-.3.3-.4-3.5-2.3-8.6-3.7-12.7-2.3-.2.1-.2.3 0 .3zM1089.4 62.6c2.2 0 4.3-.1 6.4.4 1.9.4 3.7 1.1 5.7 1.8.3.1.3-.3.1-.4-3.8-1.4-8.1-3.1-12.2-2v.2zM1097.8 69.2c1.5.1 3.1.3 4.5.5 1.7.3 2.9 1.2 4 2.5.2.2.5-.1.3-.3-1-1.2-2.1-2.1-3.7-2.5-1.7-.3-3.4-.4-5.1-.3v.1z" class="st37"/>
      <path d="M1091.7 49.9c.1 1.7 1 3.3 1.6 4.8.4 1 .8 2.6 2 2.8.1 0 .2-.1.1-.2-2.1-1.7-2.2-5.1-3.7-7.4.1-.2 0-.2 0 0zM1098.5 51.8c.4 4.5 1.8 9 3.4 13.2.1.2.4.1.3-.1-1.7-4.3-2.5-8.6-3.6-13.1h-.1zM1105.8 61.4c0 3.8 1 7.8 1.6 11.5.1.3.5.2.4-.1-.7-3.8-1.2-7.6-1.8-11.4 0-.2-.2-.2-.2 0zM1106 42.4c2.7 3.1 4.9 6.4 6.6 10 .2.3.6.1.4-.3-1.7-3.7-4-7.1-6.9-10-.1-.1-.3.1-.1.3z" class="st37"/>
      <path d="M1114.7 43.1c-1.3 2.9-1.6 6.6-1.7 9.8 0 .3.4.3.4 0 .1-1.8.3-3.6.6-5.4.3-1.5.7-2.9.9-4.4 0-.2-.2-.2-.2 0zM1109.8 53.9c2 3.1 3.3 6.3 4.7 9.8 0 .1.2 0 .2-.1-.5-3.5-2.4-7.2-4.7-9.8-.2 0-.3.1-.2.1zM1114.9 63.9c.9-2.3 1.6-4.4 2.9-6.5.1-.2-.2-.3-.3-.2-1.2 2.1-2.5 4.3-2.6 6.7-.2.1-.2.1 0 0z" class="st37"/>
    </g>
    <g>
      <g class="st22">
        <path d="M1168.7 74c0-.1-.1-.3-.2-.3 0 0 0-.1-.1-.1-.3-.5-.8-1-1.3-1.2-1.6-1-3.9-1.7-5.1-1.9l3.1-.8v-.4l1.6.5c.4.2 1-.1 1.1-.5V69c.3 0 .7-.3.8-.6.1-.3 0-.5-.1-.7.3 0 .6-.3.7-.6.1-.3 0-.6-.2-.9.3-.1.4-.3.5-.5.2-.4-.1-1-.5-1.1l-.7-.3 6.6-10c.1-.2-.1-.3-.3-.3l-15.3 4.1-6.4-7v8.3l.4.3-.4.1v25.1h7.9c11.6-2.7 7.9-10.9 7.9-10.9z" class="st18"/>
      </g>
      <g class="st22">
        <path d="M1115 76.5c1.1-1.6 2.4-3.5 2.9-5.3.5-2.3 0-6.2 0-8.6.1-6.2.1-12.6-2-18.3l1.1 4.9-.3 4.4-.3-.1-1.1-10.4c-1.7-3.9-4.3-7.4-7.7-10.1-.3 6.6-.4 21.2 2.5 25.7.5.9 1.5 1.6 2.6 2.2-2.7-1.2-5-2-6.5-2.5-.1 0-.3-.1-.3-.1h.1c-.1 0-.2-.1-.3-.1h-.1c-.1 0-.2-.1-.3-.1h-.1c-.1 0-.2-.1-.3-.1h-.1c-.1 0-.1 0-.2-.1h-.2-.1-.1c-.2 0-.3 0-.5.1-.1 0-.2 0-.2.1-.1 0-.2.1-.2.1-.4.2-.9.5-1.2.9-.8.8-1.4 1.8-1.7 2.9v.2c-.3 1-.3 2.1-.1 3.1.3 1.8 1.2 3.6 2.5 5 .1.1.1.2.2.2.3.3.5.5.9.8 1.6 1.3 3.3 2.7 4.8 3.8.2.2.4.3.6.4.3.2.5.3.7.5.3.2.5.3.7.5s.3.3.5.3c.1.1.3.2.3.3.2.2.3.3.4.3l-5.1.6c-1.2 0-2.3.8-2.8 1.8-.2.3-.3.8-.3 1.1v.1c0 .2 0 .3.1.5.1.4.3.8.4 1.1.5.8 1.5 1.3 2.5 1.3h1.7c.1 0 .2 0 .2-.1.1 0 .1 0 .2-.1.2-.1.3-.2.5-.3.1 0 .1-.1.1-.2V83c1.9-1 3.3-3.9 4.3-6.1 0-.1.1-.2.1-.3.7.5.9.3 1.2-.1zm1.1-14.2v.3c-.4-.3-1-.5-1.4-.7 0 0-.1 0-.1-.1h-.1c.6.2 1.1.3 1.6.5z" class="st18"/>
      </g>
      <path d="M1140.4 4.3c.4-1.4-.6-2.8-1.7-3.8-2.1-2-4.6-3.6-7.5-3.7-2.6-.2-5.8 1.6-7.6 3.5-1 1.1-1.8 2.5-2.6 3.8-.7 1.1-1 2.4-1.1 3.8-.1 1.6.6 3.2 0 4.8-.2.4-.5.9-.7 1.4-.4 1-.1 2.3.2 3.4.1.4.3.9.3 1.2 0 .7-.3 1.4-.5 2-.4 1.6.2 3.6 1.7 4.3.5.3 1.1.3 1.7.3.2 0 .4 0 .6-.1.5-.3.5-1 .9-1.7.3-.7 1.3-.9 2.1-.9s1.7.1 2.4-.3c1.9-1 1.5-4.2 3.2-5.3.8-.5 1.8-.5 2.5-1.1.9-.7 1-1.9 1.4-2.9.4-.9 1-1.6 1.7-2.3 1.5-1.8 2.5-4.1 3-6.4" class="st18"/>
      <path d="M1135.9 37.1l-11.7-1.2-4.4-12.7 3.6-1.4 8.2.1 5.3 1.3z" class="st45"/>
      <path fill="#09324c" d="M1118.7 61.3h26.9v16.2h-26.9z"/>
      <path d="M1132.6 22.2s5 1.1 6.7 1.7c0 0 5.4.5 7.1 7.8l4.2 18.9 8.8 9.6-3.4 2.6-11.2-7.7c-.6-.4-1.1-1.1-1.3-1.8l-3.2-12.1.2 10s7.1 10.3 5 13.8l-27.1-1.5.8-14-3.2-13.7 1.8-11.7 5.6-2.1s-1.3 7.5 5.6 8.5c0-.2 6.1-1.9 3.6-8.3z" class="st11"/>
      <g class="st22">
        <path d="M1140.3 46.6l-.1-5.6c-1.4 2.3-2.2 7-3.7 9.1-.3.3-.5.7-.6 1-.3.9.2 1.8.8 2.5.6.7 1.5 1.1 2.3 1.7 1.6 1.1 3 2.6 3.9 4.3.7 1.2 2.2 3.7 1.5 5.1h1c2.2-3.5-5-13.8-5-13.8l-.1-4.3z" class="st18"/>
      </g>
      <path d="M1147.4 55.1c-.6-.4-1.1-1.1-1.3-1.8l-5.8-12.2 1.7 6.8 1.4 5.4c.2.8.7 1.4 1.3 1.8l11.2 7.7.6-.5-9.1-7.2z" class="st47"/>
      <path d="M1114.4 77.5s-4.6-3.3-8.2-6.4c-2.7-2.4-3.8-5.7-3.4-9.3v-.1s1.6-4 3.8-4c0 0 13.9 3.6 24 13.4l17.1 5.6-31.6 4-1.7-3.2z" class="st48"/>
      <path fill="#f7f9fa" d="M1116.8 78c-.3-.6-.7-1.2-1.3-1.6-.3-.3-.8-.3-1.1-.5-1.1-.7-1.6-2.2-2.4-3.1s-1.8-1.3-2.5-2.2c-.6-.8-1-1.7-1.4-2.6-.3-.9-.7-1.7-1-2.6s-.7-1.8-.7-2.8c0-.6 1-4.5 2-4.2-1.2-.3-1.8-.5-1.8-.5-.8 0-1.5.5-2.2 1.1-1.6 1.7-2.3 4-1.7 6.2.4 2.4 1.7 4.4 3.5 6 3.6 3.1 8.2 6.4 8.2 6.4l1.7 3.4 3.1-.4c-.5-1-1.6-1.2-2.2-2.3 0-.1 0-.2-.2-.3z" opacity=".07"/>
      <path d="M1120.9 79.2v1l26.7-3.4-8-2.6-5.3-1.5z" class="st47"/>
      <path d="M1159.3 70.2s6.6 1.4 7.2 3.8c0 0 3.7 8.2-7.7 10.8h-34.3v-5.7l16.3-4.4 18.5-4.5z" class="st48"/>
      <path d="M1166.5 74c-.2-.7-1.1-1.7-1.7-1.7 0 .8.4 1.5.4 2.3 0 1-.5 2.1-1.2 2.9-1 1.1-2.5 1.8-3.9 2.5-.9.4-1.7.8-2.6 1.2-.8.3-1.6.7-2.4 1-2.8.7-5.8-.2-8.6.3-1.7.3-3.5.4-5.2.6-1.4.1-16.6 1-16.6.8v1h34.3c11.1-2.7 7.5-10.9 7.5-10.9z" class="st47"/>
      <path d="M1124.6 79.2l-2.2-1.7c-.7-.5-1.6-.8-2.4-.7l-10.7 1.2c-1.7 0-3 1.3-3 3v.1c0 1.7 1.3 3 3 3h15.4c-.1-.1-.1-4.9-.1-4.9z" class="st45"/>
      <path d="M1122.4 77.5c-.7-.5-1.6-.8-2.4-.7l-10.7 1.2c-1.7 0-3 1.3-3 3v.1c0 .3.1.7.2 1 .4-1.1 1.5-2 2.8-2l10.7-1.2c.9-.1 1.7.2 2.4.7l2.2 1.7v-2l-2.2-1.8z" class="st18"/>
      <path d="M1112.3 80.1c0-1 .3-1.8.8-2.5l-3.9.4c-1.7 0-3 1.3-3 3v.1c0 1.7 1.3 3 3 3h7.1c-2.1 0-4-1.8-4-4z" class="st18"/>
      <path d="M1125.7 69.9l21.8-5.6 7.6 6.9-14.2 3.6z" class="st50"/>
      <path d="M1129.2 69.9l20-5.1 5.9 6.1-11.5 2.9z" class="st26"/>
      <path fill="#d8d7d6" d="M1141.3 74.1l-15.6-4.1v.3c0 .4.3.8.7 1l13.3 4.1c.3.1.8 0 1-.3l.6-1z"/>
      <path fill="#bebcba" d="M1140.1 75.3l23-5.7v-1l-21.8 5.5z"/>
      <path d="M1134.3 61.3l5.5 1.3.6.3 2.7 2c.4.3.8.8 1 1.2l.9 1.5.4 2.9c-.5.4-1.2.1-1.3-.5l-.1-1.6c-.3-.5-1.4-1.7-1.9-1.7l-1.6-.3 1.2 2.1c.3.5-.1 1.2-.7 1.2l-3.1-3.7-5.4-2.2 1.8-2.5z" class="st45"/>
      <path d="M1140.9 74.4l7.9-13.9c0-.1.1-.1.1-.1l23.6-6.4c.2-.1.3.2.3.3L1163 69c0 .1-.1.1-.2.1l-21.8 5.5c0 .1-.2-.1-.1-.2z" class="st50"/>
      <path d="M1158.6 64.8c-.4 1-1.3 1.7-2.1 1.7-.7 0-1-.8-.6-1.7.4-1 1.3-1.7 2.1-1.7.8-.1 1.1.7.6 1.7z" class="st26"/>
      <path d="M1118.7 62.7c-2.4-1.2-4.6-2.3-6.5-3 .1.1.1.3.2.3 3.6 5.4 21.2 5.1 21.2 5.1l1.1-2.4-1.5-1.5h-14.6c.1.1.1 1.5.1 1.5z" class="st47"/>
      <path d="M1120.7 22.8s-6.7 2.5-7.6 3c-.3.2-3.1 1.1-3.1 4.3-.1 3.1-1.1 23.2 2.4 28.6 3.6 5.4 21.3 6.1 21.3 6.1l1.9-3.8-16.9-7.4-1.9-17.5 3.9-13.3z" class="st11"/>
      <path d="M1118.6 53.5l-1.8-17.6-.3 1.1.8 17.2 17.7 7.9.5-1.2z" class="st47"/>
      <path d="M1166.4 66.1l-2.7-.9c-.4-.2-.7-.6-.5-1.1.2-.4.6-.7 1.1-.5l2.7.9c.4.2.7.6.5 1.1-.2.4-.5.7-1.1.5z" class="st45"/>
      <path d="M1166.1 67.5l-3.1-1c-.4-.2-.7-.6-.5-1.1.2-.4.6-.7 1.1-.5l3.1 1c.4.2.7.6.5 1.1-.1.4-.6.6-1.1.5z" class="st45"/>
      <path d="M1165.6 68.8l-2.5-.9c-.4-.2-.7-.6-.5-1.1.2-.4.6-.7 1.1-.5l2.5.9c.4.2.7.6.5 1.1-.2.4-.8.6-1.1.5z" class="st45"/>
      <path d="M1164.7 69.6l-1.6-.5c-.4-.2-.7-.6-.5-1.1.2-.4.6-.7 1.1-.5l1.6.5c.4.2.7.6.5 1.1-.2.5-.7.7-1.1.5zM1142.2 68.2l-.3-2.3 1.1-.1.3 3.4c-.4.1-1-.4-1.1-1zM1125 18.4h6.7v8.7h-6.7z" class="st45"/>
      <path d="M1131.8 21.6l-6.8 1.6v-4.8h6.8z" class="st47"/>
      <path fill="#efdcb4" d="M1141.1 7.4l-.8-4.3c-1.7.7-3.7 1.1-5.5 1.3-.6.1-1.2.1-1.8.3-1.3.4-2.2 1.5-2.6 2.7-.3 1 .1 3.1-1.2 3.2-.6.1-1.1-.3-1.5-.8-.3-.4-.7-1-1-1.4-1-1-2.4-.3-2.4 1-.1.8.3 1.7.9 2.2.6.6 1.6.9 1.8 1.7.2.3.2.6.2 1 .1 1.1.4 2.3 1 3.3 1 1.5 2.5 2.4 4 3.1 1.7 1 3.5 1.5 4.3-.7.6-1.7 2.7-2.5 3.4-4.3.3-.9 0-1.7 0-2.7-.1-2 1.3-3.4 1.2-5.6z"/>
      <path d="M1139.7 13.2c.1-2.1 1.5-3.6 1.4-5.8l-.8-4.3c-.3.1-.6.3-1 .3l.7 3.9c.1 2.2-1.3 3.7-1.4 5.8-.1 1 .3 1.7 0 2.7-.6 1.7-2.7 2.5-3.4 4.3-.3.9-.8 1.3-1.4 1.5 1 .2 1.9-.1 2.4-1.5.6-1.7 2.7-2.5 3.4-4.3.4-.9 0-1.7.1-2.6z" class="st18" opacity=".1"/>
      <path d="M1120.3 12.4c.8.1 1.3 1 1.3 1.7 0 .8-.3 1.6-.4 2.4s-.3 1.7.2 2.3c.3.5 1 .9 1.3 1.5.5 1.1-.8 2.4-1 3.6-.2 1.9 2.5 3.3 2.3 5.2-.1.5-.3 1-.3 1.6.1 1 1.2 1.7 1 2.8-.1.3-.2.5-.1.8.1.2.3.3.5.3.5.2 1.2.3 1.5-.2.3-.6-.5-1.3-.3-2 1 .2 1.9.4 2.9.6.2.1.4.1.6-.1.1-.1.2-.2.2-.3.3-1.1-.8-2.1-1.4-3.1-.1-.2-.2-.3-.2-.4 0-.3.3-.6.7-.7.6-.3 1.2-.7 1.4-1.3.2-.8-.3-1.5-.8-2.2-.7-1-1.3-2.2-1-3.4.2-.8.8-1.6.7-2.4-.1-1.6-2.1-2.4-2.3-4-.1-.3 0-.8 0-1.1-.1-.8-.7-1.6-1.4-1.9-.7-.4-1.6-.6-2.4-.8-.6-.2-1.3-.3-1.9-.2-.6.2-1.2.6-1.2 1.3" class="st18"/>
    </g>
    <g id="maintenanceMode_210_">
      <path id="maintenanceMode_221_" d="M992.1 95H911V14.5c0-2.2 1.7-3.9 3.9-3.9h73.3c2.2 0 3.9 1.7 3.9 3.9V95z" class="st2"/>
      <path id="maintenanceMode_220_" d="M992.1 22.8v-9.4c0-1.6-1.3-2.8-2.8-2.8h-75.5c-1.6 0-2.8 1.3-2.8 2.8v9.4h81.1z" class="st38"/>
      <path id="maintenanceMode_219_" d="M922.7 25h58.2v24.7h-58.2z" class="st38"/>
      <path id="maintenanceMode_218_" d="M978.4 54.6h-53.3c-1.3 0-2.4 1.1-2.4 2.4 0 1.3 1.1 2.4 2.4 2.4h53.3c1.3 0 2.4-1.1 2.4-2.4.1-1.4-1-2.4-2.4-2.4z" class="st55"/>
      <path id="maintenanceMode_217_" d="M978.6 64.9h-53.3c-1.3 0-2.4 1.1-2.4 2.4 0 1.3 1.1 2.4 2.4 2.4h53.3c1.3 0 2.4-1.1 2.4-2.4 0-1.3-1-2.4-2.4-2.4z" class="st55"/>
      <path id="maintenanceMode_216_" d="M978.8 75.3h-53.3c-1.3 0-2.4 1.1-2.4 2.4 0 1.3 1.1 2.4 2.4 2.4h53.3c1.3 0 2.4-1.1 2.4-2.4 0-1.3-1.1-2.4-2.4-2.4z" class="st55"/>
      <path id="maintenanceMode_215_" d="M979 85.7h-53.3c-1.3 0-2.4 1.1-2.4 2.4 0 1.3 1.1 2.4 2.4 2.4H979c1.3 0 2.4-1.1 2.4-2.4 0-1.3-1.1-2.4-2.4-2.4z" class="st55"/>
      <path id="maintenanceMode_214_" d="M920.5 16.7c0 .9-.7 1.6-1.6 1.6-.9 0-1.6-.7-1.6-1.6s.7-1.6 1.6-1.6c.9-.1 1.6.7 1.6 1.6z" class="st2"/>
      <path id="maintenanceMode_213_" d="M925.9 16.7c0 .9-.7 1.6-1.6 1.6-.9 0-1.6-.7-1.6-1.6s.7-1.6 1.6-1.6c.9-.1 1.6.7 1.6 1.6z" class="st2"/>
      <path id="maintenanceMode_212_" d="M931.3 16.7c0 .9-.7 1.6-1.6 1.6-.9 0-1.6-.7-1.6-1.6s.7-1.6 1.6-1.6c.9-.1 1.6.7 1.6 1.6z" class="st2"/>
      <path id="maintenanceMode_211_" fill="#97a4af" d="M989.3 10.6h-3.6c1.6 0 2.8 1.3 2.8 2.8V95h3.6V13.4c0-1.6-1.3-2.8-2.8-2.8z" opacity=".2"/>
    </g>
  </g>
  <path d="M774.2 92.5v-67l-13.6-13.3h-2.7v77.5c0 3.7 2.1 6.8 5.2 8.4h5.5c3 .1 5.6-2.4 5.6-5.6zM940.1 89.7V14.6h-26.3c-1.6 0-2.8 1.3-2.8 2.8V99h20.6c4.7-.4 8.5-4.4 8.5-9.3z" class="st47"/>
  <g>
    <path d="M719.5 52.4l-9.9-9.9v33.6L720 55.7c.5-1.1.3-2.4-.5-3.3zM716.9 94.8l-7.1-.6c.7 2.3 2.9 4 5.4 4h.5l1.2-1v-2.4z" class="st47"/>
    <g>
      <path d="M708.1-4.5h12.3V3h-12.3z" class="st3" transform="rotate(131.307 714.246 -.774)"/>
      <path d="M711.5-3.3l3.7 7.1 5.9-6.7-5.6-5z" class="st47"/>
      <path d="M712-3.9l7.2 6.3c2.2 1.9 5.6 1.7 7.5-.5l2.4-2.8 1.7.9.5-5.5c1.8-.1 3.4-1.1 4.3-2.7l-1.3-1.5-5.8-5.1c-2.2-1.9-5.5-1.7-7.4.5L712-3.9zM701.1 84.1l-1.8 4.3 3.1 5h-10.7v-3.9l3.2-6.1zM640.6 83.8l-3.2 2.9.5 5.3-8.8-4.4 1.6-3.1 5.1-3.7z" class="st3"/>
      <path d="M697.6 33L717 52.4c.9.9 1.1 2.2.5 3.3l-16.1 31.5-7.8-1.9s7.2-23.5 11.1-29.3l-23.8-15.3 16.7-7.7z" class="st11"/>
      <path d="M697.6 33l3.1 3.2 2 18.6-21.8-14.1z" class="st47"/>
      <path d="M682.4 22.2s-7.2 2-10.2 6.9l-4 9.5-15.5 19.1s-9.6 4.8-19.9 23.3l6.4 5.7 20.5-20.5 26.4-22.6 10.7-6.2-14.4-15.2z" class="st11"/>
      <path d="M713.2 2.9l14 7 25.7 1 3.8-5 3-10.2c.6 1 .9 2.1.8 3.3l-.7 5.5-1 6.3-2.5 4.1-30.5 2-13.6-5 1-9z" class="st3"/>
      <path d="M696.4 37c-1 .9-1.6 1.4-1.6 1.5-10.2-.9-14.3-10.4-15.7-15 1.9-.9 3.4-1.3 3.4-1.3L696.4 37z" class="st47"/>
      <path d="M710.6-2.5s-6.7-2.7-12.3 1.3c0 0-9.8 20.5-17.3 22.2 0 0 2.8 16.3 16.3 17.5 0 0 1.7-.6 3.3-2.9 5.9-8.6 12.9-17.7 15.7-29.3 0-.2.1-.3.1-.5l-5.8-8.3zM692.5 90.7l1.6 1.7 4.7.1 2.5-3 5.4 4.6 7.7.7v2.4l-1.8 1.5h-21.9v-8.1zM637.7 87.8l1.7 4.5 2.1 2.4 4.3 1.6v2.1l-2.4.8h-9l-8-8.8 4-6.3 1.3 1v1.8l2.7 2.3z" class="st11"/>
      <path d="M726 17l-10.3-3.8 2.4-6.1 7.7 2.1 1.4.7 25.7 1 .8-1h2.2l3.8-5 .3-.8-.1.4-1 6.4-2.1 3.4-12.9 1.5z" class="st47"/>
      <path d="M703.6 11.3l11.5 4.5 3.5-8.8L707 2.5c-2.4-1-5.2.2-6.1 2.7-1 2.4.2 5.1 2.7 6.1z" class="st11"/>
      <path d="M718.1 8.1l10.3 2.8h27.5l3.8-5 3-10.2c.6 1 .9 2.1.8 3.3l-.7 5.5-.9 5.9c0 .3-.2.6-.3.9l-2.3 3.7-31.7 3.8-12.3-3.8 2.8-6.9z" class="st3"/>
      <path d="M690.8 97.4l10.9-4h-10.9zM626.9 89.6l2.8 3 8.3-.2-6.3-2.8-2.9-3z" class="st57"/>
      <path d="M712.4-11.9c.2-.2.4-.5.5-.7.7-1 1.2-1.8 1.6-2.9.2-.6.4-1.2.8-1.6 1.3-1.4 3.9-2 5.7-2.4 2.4-.4 4.8-1.9 7.1-1.1.7.3 1.3.7 2 1.2 1.4 1 2.9 1.9 3.8 3.4.4.6.5 1.2 1.1 1.6.5.4 1.2.6 1.5 1.2.8 1.2.3 2.7-.1 4-.4 1.2-.9 2.5-1.3 3.7-.9-.5-1.2-1.5-1.7-2.3-.8-1.2-3.7-3.3-5.2-2.7-1 .4-1.3 1.6-2 2.3-.8.8-2.1 1.1-2.7 2.1-.4.6-.5 1.6-1.2 1.8.3-.1.4-2.1.4-2.4 0-.8.2-1.4.3-2.2.1-.5 0-1-.3-1.3-.2-.2-.5-.2-.7-.4-.1-.1-.2-.2-.3-.2-.2-.1-.5 0-.7.1-1.3.6-1.3 1.7-1.4 3-.2.1-.4-.1-.6-.2-.2-.1-.3-.1-.5-.1-.9-.1-1.8-.2-2.6.4-.9.7-1.3 1.5-1.7 2.5-.2.4-.5.9-1 1.1-.2.1-.4.1-.6.1h-1.2c-.2 0-.4-.1-.5-.2-1.2-.9.2-2.6 0-3.7-.1-.4-.3-.7-.6-.9.4-.3 1.2-.4 1.5-.8.2-.2 0-1.8-.3-1.6.2-.1.5-.3.7-.4 0-.1.1-.2.2-.4z" class="st18"/>
      <path d="M708.2 21.8c-1.4 1.4-2.3 4.9-3.2 6.7 1.3-1.1 2.6-3.8 4-5.3.6-.9 1.1-1.8 1.7-2.7-.9.2-1.7.5-2.5 1.3zM708 18.7c.4.2 2.1 1.1 2.8 1.5.8-1.4 1.5-2.7 2.1-4.2-.2.1-.5.3-.6.3-.3.2-.2.5-.1.8-.2 0-.3.1-.5.1-.4.1-.6.5-.5.8-.4.1-.8.3-1.3.4-.4.2-2.5 0-1.9.3zM704.5 12c-.4-.4-.8-.9-1.3-1.5-.5-.7-.7-.6-.2.1.8 1.1 2.1 3.3 3.1 4.2.4.4-.8-1.2-.7-1.8 2.1 1.3 5.2 2.3 7.5 2.8.1-.1.1-.3.2-.4-2.8-.6-5.3-2-7.7-3.7-.2-.3-.7-.1-.9.3z" class="st58"/>
      <g class="st41">
        <path d="M670.6 41c.5.1.8-.7.4-1.1-.3-.3-.5-.4-.7-.6.1-.1.3-.1.4-.2.2-.1.2-.2.3-.4.3-.2.3-.7-.1-1-1-.7-1.5-1.2-1.8-1.5l-.4 1c0 .1.1.1.1.2-.3.3-.4.8 0 1-.1.1-.2.2-.4.3-.4.2-.4.6-.2.9-.5 0-.9.1-1.2.2l-4.4 5.4c-2.6 4.2-6.6 6.8-7.8 11.4l-.3-.3c-.4-.4-1-.1-1.1.4 0 .4-.3.6-.7.7l-.1.1s-1.4.7-3.8 2.7c1.2 0 2.3.1 3.5.2.5.1.8-.6.5-.9-.1-.2-.2-.3-.3-.4.3.1.7.1 1 .2.4.2.9 0 .9-.5v-.4c.4.5 1.1.3 1.2-.3.5-4.6 4.7-7.7 7.2-11.2 2.3-2.8 3.3-6.4 7.8-5.9zM672.2 29l-2.9 6.8c.3 0 .8.1 1.3.2.4.1.7-.4.6-.8-.4-1.9.4-4.3 1.2-6.4 0 .1-.1.1-.2.2z" class="st18"/>
      </g>
      <path d="M707.1 56.3c.5 0 .9-.3 1.4-.3s1.4.1 1-.2c-.8-.6-1.5-.8-2.4-.8.7-.2 1.4-.4 2-.5.7-.1.5-.4-.2-.3-1.1.1-2.6-.4-3.8.2-.6.2-1.1.4-1.7.7l1.3.8c-.1.2-.2.3-.3.5.1 0-.4 1.5-1.1 2-.4.7-.7 1.5-1.1 2.4 1.5-1.3 3.2-2.3 5-3.2.4-.1 0-1-.1-1.3z" class="st47"/>
    </g>
  </g>
  <g>
    <path d="M992.1 41.3V17.4c0-1.6-1.3-2.8-2.8-2.8h-9.1v.3l1.2 8.4 1.6-.5-.6 1.1-12.6 25-.5 39.9h.2l-3.9 2.5-6.2 2.3c-1.5.8-2.7 2-3.3 3.6l-.3.8h-.6v1.1h23.9V98H978v-8.4h-.3v-.9h.8l.8-30v-3.5L991 38.7l1.1 2.6zm-21.8 49.5h-.4v-2.1h.4v2.1z" class="st47"/>
    <path d="M972.8 85h7.5v8.1h-7.5z" class="st3"/>
    <path d="M1013.8 83.2h7.5v8.1h-7.5z" class="st3" transform="rotate(164.15 1017.556 87.246)"/>
    <path d="M986.1 21.7l-13.7 27.1-.5 39.9h9.2l.8-33.5 14-20z" class="st11"/>
    <path d="M985 23.9l3.4 6.4.7 14.7 6.8-9.8-9.8-13.5z" class="st59"/>
    <path d="M986.1 21.7l-.4.7 4.2 7.9 10.6 25c.7 1.6 1.7 3.2 2.9 4.5l10.2 28.3 8.1-.9-5.2-22c-.9-4-2.4-8-4.6-11.5-.6-.9-1-1.8-1-2.6l-3.8-23.2.6-2.5c.6-2.2.4-4.6-.5-6.7l-1-2.3-20.1 5.3z" class="st11"/>
    <path fill="#e5ac53" d="M971.1-14.7l-9.2 13.6c-.3.4-.8.7-1.3.8l-16.1 2.1c-.8.1-1.5-.3-1.8-1L939.9-5v-3.8c0-1.1-.9-2-1.9-2V.5l2.7 3.9c.3.4.7.7 1.2.7l19.8 1.6c.9.1 1.9-.3 2.5-1l16.9-19.1-10-1.3z"/>
    <path d="M968.3-25.7h7.3v7.6h-7.3z" class="st3" transform="scale(-1) rotate(-32.01 76.315 3388.281)"/>
    <path d="M974.7-25.5l-5.6 6-2.3-3.6L973-27z" class="st47"/>
    <path d="M963.4-37v2.9l.4.8s-.4 2-2.4 2.9c0 0-.4 1.6 1.6 1.5v3.7c0 1.3 1 2.4 2.3 2.4h5.9c1.6 0 3-1 3.5-2.5l2.7-8-1.1-4.6c.1-.2-9.3-3.4-12.9.9z" class="st3"/>
    <path d="M969.4-10.1l2.2-5.4-.8-1.2 7.8-5.1 6.3 2.3c1 .4 1.8 1.1 2.3 2l8.7 17.4c.1.2.2.3.3.4l11 15.9-23.3 7-1.7-12c-.1-.6-.4-1.1-.8-1.6l-11-13.1-1-6.6zM958.4 97.9l.3-.8c.6-1.5 1.8-2.8 3.3-3.6l6.2-2.3 4.2-2.6v2.2l4.8-.1 2-1.1h1.4v8.3h-22.2z" class="st11"/>
    <path d="M957.8 97.9h23.9v1.3h-23.9z" class="st18"/>
    <path d="M1003.9 98.3l.3-1.2c.7-1.5.7-1.5 1.8-2.5l5-3.3 3.2-3.2.5 2 4.3-1.1 1.5-1.4 1.2-.3 1.8 7.4-17.3 4.2-2.3-.6z" class="st11"/>
    <path d="M1024.8 95.5l-14.8 3.6-1.8-.8 16.3-3.9z" class="st18"/>
    <path d="M1003.4 99.1l6.6.1v-1.3h-6.6z" class="st18"/>
    <path fill="#dd931d" d="M973.5-43.3c-1.1-.2-2.3-.1-3.4.2-.7.2-1.2.7-1.9.9-.8.2-1.7 0-2.5 0-.5 0-1.1 0-1.6.1s-1 .5-1.3 1c-.2.5-.2 1-.1 1.5.1.8 0 1.8.5 2.6.4.7 1.1.8 1.8 1 .3.1.7.2.9.4.9.7.9 2.2 1.9 2.8.6.4 1.6.4 2.1 1 .4.5.3 1.2.4 1.8.1.8.7 1.5 1.5 1.8.2.1.4.1.6.3.1.1.2.3.3.5.3 1.1-.2 2.3.5 3.2.5.6 1.2.6 1.8 1 .8.5.6 1 .6 1.9 0 .7 0 1.4-.2 2-.3.8-1 1.3-1.7 1.9.6-.3 1.3-.5 1.9-.7-.1 1.5-.2 3.1-.5 4.6.9-.5 1.4-1.4 1.9-2.3.3-.6.9-1.2 1.5-1.2.2.5.5 1 .9 1.4.3-.9.8-1.9 1.5-2.6.4.6.8 1.2 1.3 1.7.5.6.9 1.3.7 2 .1-.7.4-1.5.8-2.1 1.7 1.6 3.5 3.2 5.7 3.8.2-1.5-.8-2.8-1.4-4.2-.4-.7-.9-1.7-1-2.5 0-.7.4-1.3.2-2.1-.4-1.4-2.2-2-2.5-3.5-.1-.6.1-1.3-.1-1.9-.2-.7-.8-1.1-1.2-1.6-.6-.8-.7-1.7-.8-2.6-.1-.8-.5-1.1-.8-1.8-.6-1.4 1.1-3.1-.7-4.2-.3-.2-.6-.3-.9-.5-.3-.3-.5-.7-.6-1.1-.4-.9-.9-1.8-1.5-2.7-.2-.3-.4-.6-.7-.8-.3-.2-.7-.2-1-.3-.5-.1-1-.5-1.5-.7-.5.3-.9.1-1.4 0z"/>
    <path d="M980.9-10.9c-1.3.6-2.7 1.7-2.3 3.1-1.6.4-1.9 2-3.6 2.9-.3.2-.4.6-.2.8-.3.1-.7.3-1 .4-.3.1-.3.4-.3.6-.6.4-1.1.8-1.5 1.4l.8 1c.5-.7 1-1.9 1.9-2.3.2-.1 1-1 1-1.2.6-.2.7.8.7.2 0-.2 0-.4-.1-.5 1-.9 1.5-1.8 2.6-1.8.4 0 .5-.4.2-.8-.9-1.3 1.2-3.5 1.9-3.8.8-.1.6-.4-.1 0z" class="st62"/>
    <path d="M969.4-10.1L961.8.8c-.3.4-.8.7-1.3.8l-16.1 2.1c-.8.1-1.5-.3-1.8-1l-2.8-5.8v-3.8c0-1.1-.9-2-1.9-2V2.4l2.7 3.9c.3.4.7.7 1.2.7l19.8 1.6c.9.1 1.9-.3 2.5-1L977-6.2l-7.6-3.9z" class="st3"/>
    <path d="M977.7 5.3c.1-.3.2-.7.3-1 .2-.4 0-.7-.3-.9 0-.6-1-.3-.9-.9 0-.3.9-1.6.6-1.7.2-.6-.3-.8-.1-1.3.2-.4.4-1.4.5-1.9.1-.8-.4-.9-.5-.1 0 .3-.1.5-.2.8 0 .1-.1.2-.1.2-.4 1.3-1.3 2.2-2.4 3l.8.9c.1-.1.2-.1.3-.2 0 .1-.1.3-.1.4l2.1 2.7zM985.8 9.4c.3-.4-.2-.1-.7.1-.2.1-.7.2-1.2.2-.7.1-1.5-.2-1.8-.8.4-.1 1.8-1.2 2.2-1.3.8-.2.8-.4 0-.2-1.4.3-2.7.6-4.1 1l1.1 1.4c.3.4.5.8.7 1.3 0 0 .1 0 .1-.1 0 .1-.1.1-.1.2s.1.1.1.2l.5 3.6c.1-.1.2-.2.3-.4.2-.6.4-1.3.6-1.9.1-.4-.1-.6-.4-.7.7-1.1 2-1.5 2.7-2.6z" class="st62"/>
    <path d="M1005.7 31c1.4.3 2 1.6 2.4 3l-.8-4.8h-.1c-.1 0 .1-.5 0-.8h.1l-.1-.3.4-1.6c-.8.8-2.2 1.2-3.2 1.9-.2.1-.3.3-.3.5-.5.2-1 .3-1.5.5-.6.2.8.7 1.6.6.8 0 .3.5 1.1.5 0 .2.2.4.4.5zM1012.7 55.2c-.1 0-.2-.2-.2-.3-.2-.4-.4-.7-.6-1.1-.3-.1-.5-.5-.4-.6-.2-.4-.4-.8-.5-1.2h-.2s.1 0 .1-.1l.1-.1c0-.2-.1-.4-.1-.6l-.3-1.8c-.2.6-.6 1.1-1.2 1.6-.2.1-.3.2-.3.4-.8.5-1.6.9-2.3 1.4-.7.4.8.4 1.5.1.5-.2 0 .6.5.5 0 .2.2.5.4.5.4.2.9.3 1.3.5-.4.2-.3 1-.8 1.3s-.9.6-.2.6c1 0 2.3-.2 3.2.2l.9.3c-.3-.6-.6-1.1-.9-1.6zM980.2 53.3c-.6.2-.6 1.2.1 1.2-1.1.5-2.1 1-3.1 1.6-.6.3.7.3 1.4 0 1-.3 1.6.1 2.5.7-.4 0-.8 0-1.3.1-.8.1-.8 1.2 0 1.2.4 0 .9 0 1.4.1 1 .3.2.1.7.4l.1-2.9c-.1-.2-.3-.3-.5-.4l.6-.3 2.3-3.3c-.1 0-.2.1-.3.2-1 1.1-2.6.9-3.9 1.4z" class="st59"/>
    <path d="M992.8 1.3c1.8-1.4 1.2.1 1.8-.3-.1.2-1 1.2-1.1 1.3-.3.5 1 .2 1.5.1h.1c-.1.1 0 .6-.1.6-.5.4-.1.7.5.6 1.2-.2 2.1-.2 3.2.4L996.6.9c-.2 0-.4-.3-.3-.4l-.1-.2c-.1-.1-.2-.3-.3-.4l-.4-.7c-.2.1-.3-.2-.2-.5L993.5-5c-.1.2-.2.4-.1.7.6 1.1 1 1.9.4 3.1-.5.9-1.3 1.7-2 2.5-.4.4.4.4 1 0z" class="st62"/>
    <path d="M977.3 94.4c0 .9-.7 1.6-1.6 1.6-.9 0-1.6-.7-1.6-1.6 0-.9.7-1.6 1.6-1.6s1.6.7 1.6 1.6zM1021 92.8c0 .9-.7 1.6-1.6 1.6-.9 0-1.6-.7-1.6-1.6 0-.9.7-1.6 1.6-1.6.9 0 1.6.7 1.6 1.6z" class="st63"/>
  </g>
  <g>
    <g id="maintenanceMode_2_">
      <path id="maintenanceMode_7_" d="M769.7-19.1H832c3 0 5.4 2.4 5.4 5.4v48.5s-1.5-1.9-2.5-3c-1.1-1.1-2.4-1.9-3.8-2.5-1.4-.6-3-.9-4.6-.9s-3.2.3-4.6.9c-1.4.6-2.7 1.5-3.8 2.5-1.1 1.1-1.9 2.4-2.5 3.8-.6 1.4-.9 3-.9 4.6s.3 3.2.9 4.6c.6 1.4 1.5 2.7 2.5 3.8 1.1 1.1 2.4 1.9 3.8 2.5 1.4.6 3 .9 4.6.9s3.2-.3 4.6-.9c1.4-.6 2.7-1.5 3.8-2.5 1.1-1.1 2.5-3 2.5-3v48.2c0 3-2.4 5.4-5.4 5.4h-62.3c-5.2 0-9.3-4.2-9.3-9.3V-9.7c-.1-5.2 4.1-9.4 9.3-9.4z" class="st64"/>
      <path id="maintenanceMode_3_" d="M928.7 99.1h-61.8c-3 0-5.4-2.4-5.4-5.4v-49c-.6 1.4-1.5 2.7-2.5 3.8-1.1 1.1-2.4 1.9-3.8 2.5-1.4.6-3 .9-4.6.9s-3.2-.3-4.6-.9c-1.4-.6-2.7-1.5-3.8-2.5-1.1-1.1-1.9-2.4-2.5-3.8-.6-1.4-.9-3-.9-4.6s.3-3.2.9-4.6c.6-1.4 1.5-2.7 2.5-3.8 1.1-1.1 2.4-1.9 3.8-2.5 1.4-.6 3-.9 4.6-.9s3.2.3 4.6.9c1.4.6 2.7 1.5 3.8 2.5 1.1 1.1 1.9 2.4 2.5 3.8v-49.3c0-3 2.4-5.4 5.4-5.4h61.8c5.2 0 9.3 4.2 9.3 9.3v99.6c.1 5.2-4.1 9.4-9.3 9.4z" class="st64"/>
      <path d="M837.3-13.7c0-3-2.4-5.4-5.4-5.4h-3l-68.6 68.6v13.9l77-77v-.1zM760.3 10.8v27.4l57.4-57.3h-27.4z" class="st65"/>
      <path fill="#fff" d="M938.1 35.2l-63.9 63.9h-7.3c-1.8 0-3.4-.9-4.4-2.3L938 21.3l.1 13.9zm0-25.2V-9.9c0-2.1-.7-4.1-1.9-5.6l-74.7 74.7v27.4L938.1 10z" opacity=".19"/>
    </g>
  </g>
</svg>