<svg xmlns="http://www.w3.org/2000/svg" id="Layer_1" viewBox="451 -325.5 974 714.5">
  <style>
    .st0{opacity:.1;fill:#377dff;enable-background:new}.st2{fill:#00c9a7}.st3{opacity:.3;enable-background:new}.st4{fill:#ffc107}.st7{fill:#377dff}.st10{fill:#aca9c9}.st13{fill:#f7c4a7}.st14{opacity:.1;enable-background:new}.st18{fill:#618fd8}.st19,.st20{enable-background:new}.st19{fill:#fff;opacity:.4}.st20{opacity:5.000000e-002}
  </style>
  <path d="M579.9 36.5c-12.8 3.9-24.8 13.2-28 26.2-3.7 14.9 4.8 30 6 45.3 3.9 50.3-67.6 85.7-57.4 135.1 4.1 19.6 20.4 34.1 36.6 46 25.8 19 54.5 35.9 86.3 40.6 48.2 7.2 98.5-14 145.4-.6 37.8 10.8 66.7 42.5 104.2 54.2 28.6 8.9 59.3 5.4 89 1.8 16-1.9 32.8-4.2 45.7-13.8 24-17.9 25.5-53.2 41.6-78.5 24.8-39 79.2-46.7 124.9-39.1 45.7 7.6 89.9 26.2 136.2 24.7 9.9-.3 20-1.7 28.6-6.5 10.5-5.9 17.6-16.3 23.8-26.5 39.1-64.4 60.6-138 62.3-213.4.3-13-.2-26.5-6.3-37.9-7.7-14.5-23.1-23.1-38.4-28.9-36.8-14-77.4-16.3-113.5-32.1-34.8-15.2-62.9-41.9-93.2-64.8-60.3-45.5-130.3-76.7-204.5-91.1-17.4-3.4-35.4-5.8-52.7-1.9-19.9 4.5-37.1 16.9-52.5 30.2-41 35.5-74 79.4-111.8 118.3-26.1 26.9-54.5 51.4-84.9 73.2-14 10.1-28.9 22.1-44.5 29.5-14.4 7.2-27.8 5.5-42.9 10z" class="st0"/>
  <path fill="none" stroke="#535461" stroke-miterlimit="10" stroke-width="2" d="M762.9-279.4s-38.6 51.3-11 111.2c27.6 59.9-48.2 156-48.2 156"/>
  <path d="M780.2-298.6c-3.1 13.2-17.8 21.1-17.8 21.1s-9.7-13.6-6.6-26.8c3.1-13.2 11-22.7 17.8-21.1s9.7 13.6 6.6 26.8z" class="st2"/>
  <ellipse cx="767.6" cy="-301.5" class="st2" rx="2.9" ry="7.7" transform="scale(-1) rotate(13.102 -2625.673 -6683.58)"/>
  <ellipse cx="767.6" cy="-301.5" class="st3" rx="2.9" ry="7.7" transform="scale(-1) rotate(13.102 -2625.673 -6683.58)"/>
  <path d="M773.5-239.9c-12.8 4.6-27.4-3.5-27.4-3.5s6.1-15.5 18.9-20.1 25-3 27.4 3.5c2.4 6.5-6.1 15.5-18.9 20.1z" class="st2"/>
  <ellipse cx="769" cy="-252.8" class="st2" rx="2.9" ry="7.7" transform="rotate(-109.883 768.998 -252.803)"/>
  <ellipse cx="769" cy="-252.8" class="st3" rx="2.9" ry="7.7" transform="rotate(-109.883 768.998 -252.803)"/>
  <path d="M770.6-193.1c-12.8 4.6-27.4-3.5-27.4-3.5s6.1-15.5 18.9-20.1c12.8-4.6 25-3 27.4 3.5s-6.2 15.5-18.9 20.1z" class="st2"/>
  <ellipse cx="766.1" cy="-205.3" class="st2" rx="2.9" ry="7.7" transform="rotate(-109.798 766.09 -205.297)"/>
  <ellipse cx="766.1" cy="-205.3" class="st3" rx="2.9" ry="7.7" transform="rotate(-109.798 766.09 -205.297)"/>
  <path d="M785.5-138.2c-12.8 4.6-27.4-3.5-27.4-3.5s6.1-15.5 18.9-20.1 25-3 27.4 3.5c2.4 6.5-6.2 15.5-18.9 20.1z" class="st2"/>
  <ellipse cx="781.1" cy="-150.4" class="st2" rx="2.9" ry="7.7" transform="rotate(-109.798 781.1 -150.4)"/>
  <ellipse cx="781.1" cy="-150.4" class="st3" rx="2.9" ry="7.7" transform="rotate(-109.798 781.1 -150.4)"/>
  <path d="M775.8-88.1c-12.8 4.6-27.4-3.5-27.4-3.5s6.1-15.5 18.9-20.1 25-3 27.4 3.5c2.4 6.5-6.2 15.6-18.9 20.1z" class="st2"/>
  <ellipse cx="771.4" cy="-101.1" class="st2" rx="2.9" ry="7.7" transform="rotate(-109.883 771.395 -101.103)"/>
  <ellipse cx="771.4" cy="-101.1" class="st3" rx="2.9" ry="7.7" transform="rotate(-109.883 771.395 -101.103)"/>
  <path d="M715.9-226.6c9.4 9.8 26.1 9 26.1 9s1.4-16.6-8-26.4-21.1-13.8-26.1-9c-5 4.8-1.4 16.7 8 26.4z" class="st2"/>
  <ellipse cx="725.3" cy="-235.6" class="st2" rx="7.7" ry="2.9" transform="rotate(-133.987 725.298 -235.596)"/>
  <ellipse cx="725.3" cy="-235.6" class="st3" rx="7.7" ry="2.9" transform="rotate(-133.987 725.298 -235.596)"/>
  <path d="M710.5-71.6c9.4 9.8 26.1 9 26.1 9s1.4-16.6-8-26.4c-9.4-9.8-21.1-13.8-26.1-9s-1.4 16.6 8 26.4z" class="st2"/>
  <ellipse cx="719.9" cy="-80.6" class="st2" rx="7.7" ry="2.9" transform="rotate(-133.987 719.901 -80.609)"/>
  <ellipse cx="719.9" cy="-80.6" class="st3" rx="7.7" ry="2.9" transform="rotate(-133.987 719.901 -80.609)"/>
  <path d="M723-171.8c12.1 6.1 27.6-.2 27.6-.2s-4.3-16.1-16.4-22.2-24.5-6-27.6.2c-3.1 6.3 4.3 16.1 16.4 22.2z" class="st2"/>
  <ellipse cx="728.8" cy="-183.5" class="st2" rx="7.7" ry="2.9" transform="rotate(-153.483 728.769 -183.537)"/>
  <ellipse cx="728.8" cy="-183.5" class="st3" rx="7.7" ry="2.9" transform="rotate(-153.483 728.769 -183.537)"/>
  <path d="M728.1-117.2c12.1 6.1 27.6-.2 27.6-.2s-4.3-16.1-16.4-22.2c-12.1-6.1-24.5-6-27.6.2s4.3 16.2 16.4 22.2z" class="st2"/>
  <ellipse cx="733.9" cy="-128.9" class="st2" rx="7.7" ry="2.9" transform="rotate(-153.483 733.896 -128.93)"/>
  <ellipse cx="733.9" cy="-128.9" class="st3" rx="7.7" ry="2.9" transform="rotate(-153.483 733.896 -128.93)"/>
  <path d="M576.7-169s70.6 70.6 30.7 175.3c-39.9 104.7 68.3 278.9 68.3 278.9s-1.2-.2-3.3-.5c-145-25.6-217-191.4-136.4-314.6 30-45.8 54.6-99.5 40.7-139.1z" class="st4"/>
  <path d="M451 116.5s80.6-12.8 87.9 59.4c7.3 72.2 154.9 82.2 154.9 82.2s-1 .7-2.8 1.8c-121.8 80-238.3 50.9-220.7-55.3 6.5-39.5 6-79.1-19.3-88.1z" class="st4"/>
  <path fill="#fff" d="M451 116.5s80.6-12.8 87.9 59.4c7.3 72.2 154.9 82.2 154.9 82.2s-1 .7-2.8 1.8c-121.8 80-238.3 50.9-220.7-55.3 6.5-39.5 6-79.1-19.3-88.1z" opacity=".3"/>
  <ellipse cx="556.3" cy="57.8" class="st4" rx="22.2" ry="57.8"/>
  <ellipse cx="556.3" cy="57.8" class="st3" rx="22.2" ry="57.8"/>
  <ellipse cx="530.8" cy="244.2" class="st4" rx="33.2" ry="14.9" transform="rotate(-134.999 530.797 244.21)"/>
  <ellipse cx="530.8" cy="244.2" class="st3" rx="33.2" ry="14.9" transform="rotate(-134.999 530.797 244.21)"/>
  <path d="M1174.9-60H650.5c-13.2 0-23.9 10.7-23.9 23.9v307.3c0 13.2 10.7 23.9 23.9 23.9h524.3c13.2 0 23.9-10.7 23.9-23.9V-36.1c.1-13.2-10.6-23.9-23.8-23.9z" class="st0"/>
  <path d="M658.2-55.9h509c13.7 0 24.8 11.1 24.8 24.8V266c0 13.7-11.1 24.8-24.8 24.8h-509c-13.7 0-24.8-11.1-24.8-24.8V-31c0-13.8 11.1-24.9 24.8-24.9z" class="st7"/>
  <path d="M633.4 4.8h558.7v63.6H633.4z" class="st7"/>
  <path d="M633.4 4.8h558.7v63.6H633.4z" class="st3"/>
  <path fill="#d6d6e3" d="M686.4 115.6h452.7v30.8H686.4z"/>
  <circle cx="723.9" cy="223.5" r="44.3" class="st7"/>
  <circle cx="723.9" cy="223.5" r="44.3" class="st3"/>
  <linearGradient id="SVGID_1_" x1="6006.151" x2="6006.151" y1="224.935" y2="776.88" gradientTransform="rotate(180 3637.5 282.13)" gradientUnits="userSpaceOnUse">
    <stop offset="0" stop-color="gray" stop-opacity=".25"/>
    <stop offset=".54" stop-color="gray" stop-opacity=".12"/>
    <stop offset="1" stop-color="gray" stop-opacity=".1"/>
  </linearGradient>
  <path fill="url(#SVGID_1_)" d="M1160.3-141.4c.7 2.3 2.2 4.2 4.3 5.4 9.2 6.1 29.2 4.8 31.6 4.8.5 0 1.2.9 1.9 2.4 3.5 7.3 9 28.6 9.4 33.4.5 5.8 5.9 33 14.7 43.1.3.3.5.6.8.9 8.7 8.7 18.8-.9 18.8-.9l1.5-5.1c-.4 2-.9 4.3-1.3 6.9-.2 1.3-.5 2.7-.7 4.1-1.3 8.1-2 16.2-2.1 24.4 0 3 .1 5.9.4 8.9l.3 2.4c.5 3.6.7 7.2.7 10.8-.1 21.5-5.6 48.3-5.6 48.3l.2-.1c-.1.7-.2 1-.2 1l.3-.1c-.2 1-.3 2-.4 3-1.9 13.5-2.9 30.3-3.4 40-.3 5.1 0 10.2.7 15.3l9.8 68.7v32c0 4.8.6 9.7 1.8 14.4 3.2 12.1.6 54.3-.9 74.3-.4 5.5-.7 9.3-.8 10.4v.3l.3-.1v.3c.4-.2.9-.3 1.3-.4-3.9 6-10.9 15.9-16.3 17.6-3.2 1-6 2.8-8.1 5.4l-.1.2-.2.3c-.7.9-1.1 2-1.2 3.1-.1-.2-.1-.4-.2-.6-.4 2.2.9 4.3 5.1 5.3 2.5.5 5 .7 7.5.6 14.6 0 40.5-4.5 43.4-9.3v-16.7l.5.2v.2l1.8.6 4.9-16.5c5.9-4.4 1-82.4 0-100.3-.9-16.3 9.2-81.3 11-92.8l-.2-.3.3-1.7c.4.3.7.6 1 .9.6.7 1.1 1.5 1.5 2.3.8 1.4 1.6 2.9 2.2 4.5 9.9 24.6 14.3 95.1 14.3 101.4v66.3c0 6.5.9 13 2.7 19.3.9 3.3 1.6 6.7 2.1 10.1.2 1.3.4 2.7.6 3.9s.3 2.7.5 3.9c0 .3.1.6.1.9v.4c.3 2.6.4 4.3.4 4.3 0-.1.1-.3.2-.4v.6c.1-.2.2-.5.4-.6.4-.4.8-.8 1.3-1.1v8.4l-.2-.2v1.5c10.2 7.7 26.8 10 39.5 9.9 8.3 0 14.9-1 17.3-2.2 3.3-1.6 1.5-5.4-1.5-8.3-2.3-2.3-5.4-4-7.3-3.8-3.2.3-14.2-12.1-20-19l.7-.3.9-.4V194.8s1.5-43.6 5.9-86.8c2.1-21.7-.5-43.7-7.5-64.4l-.1-.4 1.3.2c1.4.2 2.2.4 2.2.4s0-.3-.1-1h.1s-1.7-18.7-1.7-42.2c0-26.6 2.3-59.1 11.6-77.5 5.4-10.6 7.1-19 7-25.6.2-5.8-1.4-11.6-4.8-16.4-1.4-1.9-3.3-3.4-5.5-4.4l-.2-.1h-.8c-1.6-.7-3.3-1-5.1-1h-20.1c-2.3 0-4.6-.6-6.6-1.8l-7.9-4.5c-2.6-5.7-3-12.8-2.4-19.5 0-.5.1-1.1.2-1.6l.6-.6c.4-.5.8-1 1.3-1.5 0 .4 0 .8-.1 1.2-.1.6-.3 1-.5 1.1 4.3-.6 9.1-1.4 11.7-4.7.1-.1.2-.3.3-.4.8-1.3 1.4-2.6 1.9-4 .4-1 .9-1.9 1.5-2.7.7-.9 1.5-1.6 2.2-2.4l.1-.1c2.5-3 2.7-7.3 2.7-11.2 0-9.5-.2-20-6.6-27.1-5.3-5.9-13.7-8.2-21.7-8.4s-16 1.2-24 1.2c-5.4 0-12-.1-15 4.4-1.5 2.2-1.7 5.1-3.3 7.2-.9 1.2-2.3 2.3-2.4 3.8 0 .7.2 1.4.5 2v.1c1.9 3.8 6.1 6.2 10.4 6.9-.7.9-1.4 1.8-2 2.8-2.6 4.2-4 9-4 14 0 .6 0 1.1.1 1.7.4 6.7 3.4 13 8.4 17.6-.1.6-.2 1.1-.3 1.7l.2.2 1.8 1.5.2.2v1c0 .6 0 1.2-.1 1.7s0 .9-.1 1.4l-.1-.1-9.8-8.2-15.7-14.5s-39.3-28.6-41.3-15c-.2 2.4.4 4.8 1.9 6.8 7.2 11 32 20.4 32 20.4s14.8 15.6 24.7 32.5c-.3.2-.7.4-1.1.5-8.8 4.1-21.6 2.4-21.6 2.4-14.8 2.3-16.2 18.6-16.1 25.1v1.4l-19.8-46.4-.1-.1c-1.3-3.1-4.1-5.2-7.4-5.8-13.1-2.3-46-6.9-43.2 2.8zm82.4 449c.3-.1.6-.1.9-.2l-.1.1-.8.1z"/>
  <path d="M1341 298.2s18.6 23.4 22.9 23 14.3 9.1 8.6 12-38.7 4.8-55-7.7v-18.7l23.5-8.6zM1246.8 299.6s-11 19.6-18.6 22c-7.6 2.4-14.3 11-4.3 13.4s45.9-2.9 49.2-8.6V301l-26.3-1.4z" class="st10"/>
  <path fill="#2d1582" d="M1233 107.1l9.5 67.8v31.5c0 4.8.5 9.5 1.7 14.2 3.1 11.9.5 53.5-.9 73.3-.5 6.4-.8 10.6-.8 10.6 6.2-2.9 32.5 6.2 32.5 6.2l2.7-9 2.1-7.2c5.7-4.3 1-81.3 0-99-.7-12.1 4.8-51.4 8.2-74.9 1-6.7 1.8-12 2.3-15.2.3-2 .5-3.1.5-3.1 1.1.9 1.9 1.9 2.6 3.1.8 1.4 1.5 2.9 2.1 4.4 9.6 24.3 14 93.8 14 100v65.4c0 6.4.9 12.9 2.6 19.1 1.2 4.5 2 9.1 2.6 13.8.7 5.2 1 9.4 1 9.4.5-2.9 30.1-15.8 30.1-15.8v-109s1.4-43 5.7-85.6c1.9-19.4 0-38.9-5.5-57.6-1.2-4.1-2.4-7.5-3.4-10.3-1.8-4.6-3-7.2-3-7.2H1242c-1.6.3-3 3.6-4.2 8.6-.8 3.4-1.5 7.5-2.1 12-1.8 13.3-2.8 29.9-3.3 39.5-.3 4.9-.1 9.9.6 15z"/>
  <g opacity=".1">
    <path d="M1344.1 301.8v-109s1.4-43 5.7-85.6c4.3-42.6-12-75.1-12-75.1h1.9s16.3 32.5 12 75.1c-4.3 42.6-5.7 85.6-5.7 85.6v109s-29.6 12.9-30.1 15.8c0 0 0-.6-.2-1.7 6.5-4.6 28.4-14.1 28.4-14.1zM1245.4 304.1c-.9 0-1.8.2-2.6.5v-.5h2.6zM1278.1 294.6c5.7-4.3 1-81.3 0-99s11-93.2 11-93.2c.6.5 1.2 1.1 1.7 1.7-1.8 11.3-11.6 75.4-10.7 91.5 1 17.7 5.7 94.7 0 99l-4.8 16.3-1.7-.6 4.5-15.7z"/>
  </g>
  <path d="M1252.5-86.2l-10 35.4s-10.5 10-19.1 0-13.9-36.8-14.4-42.5-8.1-35.4-11-35.4-31.5 1.9-34.9-10c-2.7-9.6 29.3-5 42.2-2.9 3.2.5 5.9 2.7 7.2 5.7l19.7 47c-.1 0 10.3-12.1 20.3 2.7zM1317.1-168.4s-12.4 34.9 3.3 47.3c15.7 12.4-56.4 15.8-56.4 15.8l9.8-9.3s6.9-27.5 2.2-50.4l41.1-3.4z" class="st13"/>
  <path d="M1301.8-121.1s12.7-3.1 12.7-6.5l11.2 6.5h28.2s20.6 11.5 3.3 45.9-9.6 119-9.6 119-61.2-11-111.9 5.7c0 0 7.7-37.8 4.8-59.3s4.8-51.6 4.8-51.6l4.3-18.2s-.2-17-17.9-8.4c0 0-2.6-24.6 15.5-27.5 0 0 21 2.9 27.3-7.6 0 .1 13.9 8.2 27.3 2z" class="st14"/>
  <path fill="#de4437" d="M1301.8-122s12.7-3.1 12.7-6.5l8.2 4.7c2 1.1 4.2 1.7 6.5 1.7h19.7c4.2 0 8.1 2 10.6 5.4 4.5 6.4 8.6 18.9-2.2 40.5-17.2 34.4-9.6 119-9.6 119s-61.2-11-111.9 5.7c0 0 7.7-37.8 4.8-59.3s4.8-51.6 4.8-51.6l4.3-18.2s-.2-17-17.9-8.4c0 0-2.6-23.9 14.8-27.4.5-.1 1-.1 1.5-.1 3.7.4 21 1.6 26.5-7.7-.1.2 13.8 8.4 27.2 2.2z"/>
  <path d="M1350.1-78.5s-15.3 9.6-40.2 0c0 0-27.3-10-35.9-29.6-8.6-19.6 43.5 3.4 43.5 3.4s11 0 14.3-2.4 26.9 18 18.3 28.6z" class="st14"/>
  <path d="M1350.1-80.4s-15.3 9.6-40.2 0c0 0-27.3-10-35.9-29.6-8.6-19.6-28.7-41.2-28.7-41.2s-34.9-13.4-33-26.8 40.2 14.8 40.2 14.8l15.3 14.3 49.7 42.1s11 0 14.3-2.4 26.9 18.2 18.3 28.8z" class="st13"/>
  <path d="M1275.5-163.6l41.1-3.4c-2.1 6.3-3.6 12.8-4.3 19.5-9.9 10.3-26.3 10.8-36.8 1 1.1-5.7 1.1-11.5 0-17.1z" class="st14"/>
  <circle cx="1293.9" cy="-167.2" r="26.3" class="st13"/>
  <path d="M1308.3-161.5c-1.5-2.5 1.6-5.9.6-8.6-1-2.6-4.7-3-6-5.4-1-1.9 0-4.3-.4-6.4-.6-2.8-3.5-4.5-6.3-4.6s-5.5.9-8.2 1.8c-4.3 1.5-8.9 2.6-13.5 2.1s-9.1-3-11.1-7.1c-.3-.6-.5-1.3-.5-1.9.1-1.5 1.5-2.5 2.3-3.7 1.6-2.1 1.7-4.9 3.2-7.1 2.9-4.4 9.3-4.3 14.6-4.4 7.8 0 15.6-1.5 23.4-1.2s16 2.5 21.2 8.3c6.2 7.1 6.5 17.4 6.4 26.8 0 3.9-.2 8.1-2.6 11.1-.7.9-1.6 1.6-2.3 2.5-1.5 2-1.9 4.6-3.3 6.6-2.5 3.6-7.4 4.5-11.7 5.1 1.3-.2.2-8.7 0-9.5-1-4.1-1.9-4.1-5.8-4.4z" class="st14"/>
  <path fill="#1e2022" d="M1308.3-162.5c-1.5-2.5 1.6-5.9.6-8.6-1-2.6-4.7-3-6-5.4-1-1.9 0-4.3-.4-6.4-.6-2.8-3.5-4.5-6.3-4.6s-5.5.9-8.2 1.8c-4.3 1.5-8.9 2.6-13.5 2.1s-9.1-3-11.1-7.1c-.3-.6-.5-1.3-.5-1.9.1-1.5 1.5-2.5 2.3-3.7 1.6-2.1 1.7-4.9 3.2-7.1 2.9-4.4 9.3-4.3 14.6-4.4 7.8 0 15.6-1.5 23.4-1.2s16 2.5 21.2 8.3c6.2 7.1 6.5 17.4 6.4 26.8 0 3.9-.2 8.1-2.6 11.1-.7.9-1.6 1.6-2.3 2.5-1.5 2-1.9 4.6-3.3 6.6-2.5 3.6-7.4 4.5-11.7 5.1 1.3-.2.2-8.7 0-9.5-1-4.1-1.9-4-5.8-4.4z"/>
  <path d="M1349.8-77.3s-12.9-33.5-23-34.4c-10.1-.9 19.1 0 19.1 0l9.6 17.2-5.7 17.2z" class="st14"/>
  <path fill="#e14b5a" d="M1350.8-77.3s-12.9-33.5-23-34.4c-10.1-.9 19.1 0 19.1 0l9.6 17.2-5.7 17.2z"/>
  <path d="M1314.7 307.9c.7 5.2 1 9.4 1 9.4.5-2.9 30.1-15.8 30.1-15.8v-7.8c-.8 0-1.5 0-2.3.1-5.8.8-11.1 3.6-16 6.5-4.1 2.8-8.4 5.4-12.8 7.6z" class="st18"/>
  <path d="M1314.7 307.9c.7 5.2 1 9.4 1 9.4.5-2.9 30.1-15.8 30.1-15.8v-7.8c-.8 0-1.5 0-2.3.1-5.8.8-11.1 3.6-16 6.5-4.1 2.8-8.4 5.4-12.8 7.6z" class="st3"/>
  <path d="M1242.5 304.4c6.2-2.9 32.5 6.2 32.5 6.2l2.7-9c-4.6-.9-9.2-2.1-13.6-3.5-2.1-.6-4.1-1.4-6.1-2.3-1.3-.7-2.7-1.3-4.1-1.9-3.4-1.2-7-.7-10.5-.1-.5 6.5-.9 10.6-.9 10.6z" class="st18"/>
  <path d="M1242.5 304.4c6.2-2.9 32.5 6.2 32.5 6.2l2.7-9c-4.6-.9-9.2-2.1-13.6-3.5-2.1-.6-4.1-1.4-6.1-2.3-1.3-.7-2.7-1.3-4.1-1.9-3.4-1.2-7-.7-10.5-.1-.5 6.5-.9 10.6-.9 10.6z" class="st3"/>
  <path d="M1372.3 331.7c.8-.3 1.4-1 1.6-1.9.4 1.4-.3 2.8-1.6 3.3-5.7 2.9-38.7 4.8-55-7.7V324c16.3 12.4 49.3 10.5 55 7.7zM1223.6 333.6c10 2.4 45.9-2.9 49.2-8.6v1.4c-3.3 5.7-39.2 11-49.2 8.6-4.1-1-5.4-3-5-5.2.3 1.6 1.8 3 5 3.8z" class="st19"/>
  <path d="M1281.9-14.7s-10.5-3.4-13.4 0-27.4 11.2-27.4 11.2" class="st14"/>
  <path d="M1162.9-147.1h51.2v1.1h-51.2z" class="st2"/>
  <path d="M1162.9-146.1h51.2v1.1h-51.2z" class="st2"/>
  <path d="M1162.9-146.1h51.2v1.1h-51.2z" class="st14"/>
  <path d="M1162.9-145h51.2v1.1h-51.2zM1162.9-143.9h51.2v1.1h-51.2z" class="st2"/>
  <path d="M1162.9-143.9h51.2v1.1h-51.2z" class="st14"/>
  <path d="M1162.9-142.8h51.2v1.1h-51.2z" class="st2"/>
  <path d="M1162.9-141.8h51.2v1.1h-51.2z" class="st2"/>
  <path d="M1162.9-141.8h51.2v1.1h-51.2z" class="st14"/>
  <path d="M1162.9-140.7h51.2v1.1h-51.2zM1162.9-139.6h51.2v1.1h-51.2z" class="st2"/>
  <path d="M1162.9-139.6h51.2v1.1h-51.2z" class="st14"/>
  <path d="M1162.9-155.7h51.2v1.1h-51.2z" class="st2"/>
  <path d="M1218.5-189.8h1.1v51.2h-1.1z" class="st2" transform="scale(-1) rotate(-50.25 350.24 2599.56)"/>
  <path d="M1182.6-207.1h1.1v51.2h-1.1z" class="st2" transform="scale(-1) rotate(-50.25 387.02 2523.114)"/>
  <path d="M1162.9-154.7h51.2v1.1h-51.2z" class="st2"/>
  <path d="M1162.9-154.7h51.2v1.1h-51.2z" class="st14"/>
  <path d="M1162.9-153.6h51.2v1.1h-51.2zM1162.9-152.5h51.2v1.1h-51.2z" class="st2"/>
  <path d="M1162.9-152.5h51.2v1.1h-51.2z" class="st14"/>
  <path d="M1162.9-151.4h51.2v1.1h-51.2z" class="st2"/>
  <path d="M1162.9-150.4h51.2v1.1h-51.2z" class="st2"/>
  <path d="M1162.9-150.4h51.2v1.1h-51.2z" class="st14"/>
  <path d="M1162.9-149.3h51.2v1.1h-51.2zM1162.9-148.2h51.2v1.1h-51.2z" class="st2"/>
  <path d="M1162.9-148.2h51.2v1.1h-51.2z" class="st14"/>
  <path d="M1150.7-130.6h36.3v18.6h-36.3z" class="st2" transform="rotate(100.521 1168.889 -121.288)"/>
  <ellipse cx="1169.1" cy="-121.3" class="st2" rx="3.8" ry="7.7" transform="rotate(-169.483 1169.128 -121.271)"/>
  <ellipse cx="1169.1" cy="-121.3" class="st14" rx="3.8" ry="7.7" transform="rotate(-169.483 1169.128 -121.271)"/>
  <path d="M1153.9-55.3h36.3v18.6h-36.3z" class="st2" transform="rotate(100.521 1172.02 -46.006)"/>
  <ellipse cx="1172.3" cy="-45.9" class="st2" rx="3.8" ry="7.7" transform="rotate(-169.483 1172.262 -45.921)"/>
  <ellipse cx="1172.3" cy="-45.9" class="st14" rx="3.8" ry="7.7" transform="rotate(-169.483 1172.262 -45.921)"/>
  <path d="M1095.4-216.5h18.6v36.3h-18.6z" class="st2" transform="rotate(118.418 1104.69 -198.302)"/>
  <ellipse cx="1107.9" cy="-197.6" class="st2" rx="7.7" ry="3.8" transform="scale(-1) rotate(28.613 -774.703 -4344.317)"/>
  <ellipse cx="1107.9" cy="-197.6" class="st14" rx="7.7" ry="3.8" transform="scale(-1) rotate(28.613 -774.703 -4344.317)"/>
  <path d="M1025.3 107.1h18.6v36.3h-18.6z" class="st2" transform="rotate(118.418 1034.599 125.29)"/>
  <ellipse cx="1034.6" cy="125.4" class="st2" rx="7.7" ry="3.8" transform="rotate(-151.582 1034.591 125.412)"/>
  <ellipse cx="1034.6" cy="125.4" class="st14" rx="7.7" ry="3.8" transform="rotate(-151.582 1034.591 125.412)"/>
  <path d="M982.4-159.9h18.6v36.3h-18.6z" class="st2" transform="rotate(118.418 991.686 -141.74)"/>
  <ellipse cx="991.6" cy="-141.5" class="st2" rx="7.6" ry="3.8" transform="rotate(-151.582 991.634 -141.479)"/>
  <ellipse cx="991.6" cy="-141.5" class="st14" rx="7.6" ry="3.8" transform="rotate(-151.582 991.634 -141.479)"/>
  <path d="M1036.1-216.4h18.6v36.3h-18.6z" class="st2" transform="rotate(118.418 1045.386 -198.282)"/>
  <ellipse cx="1045.4" cy="-198.1" class="st2" rx="7.6" ry="3.8" transform="rotate(-151.582 1045.382 -198.109)"/>
  <ellipse cx="1045.4" cy="-198.1" class="st14" rx="7.6" ry="3.8" transform="rotate(-151.582 1045.382 -198.109)"/>
  <path d="M1071.1-147.5h18.6v36.3h-18.6z" class="st2" transform="scale(-1) rotate(-6.24 2372.803 19819.968)"/>
  <ellipse cx="1080.2" cy="-129.3" class="st2" rx="7.6" ry="3.8" transform="scale(-1) rotate(83.76 -144.2 -1204.741)"/>
  <ellipse cx="1080.2" cy="-129.3" class="st14" rx="7.6" ry="3.8" transform="scale(-1) rotate(83.76 -144.2 -1204.741)"/>
  <path d="M1198.1 50.2h18.6v36.3h-18.6z" class="st2" transform="scale(-1) rotate(-6.24 -1254.039 22149.805)"/>
  <ellipse cx="1207.2" cy="68.4" class="st2" rx="7.6" ry="3.8" transform="scale(-1) rotate(83.76 76.296 -1346.384)"/>
  <ellipse cx="1207.2" cy="68.4" class="st14" rx="7.6" ry="3.8" transform="scale(-1) rotate(83.76 76.296 -1346.384)"/>
  <path d="M1017.4-73h18.6v36.3h-18.6z" class="st2" transform="rotate(118.418 1026.719 -54.879)"/>
  <ellipse cx="1026.6" cy="-54.7" class="st2" rx="7.6" ry="3.8" transform="rotate(-151.582 1026.57 -54.677)"/>
  <ellipse cx="1026.6" cy="-54.7" class="st14" rx="7.6" ry="3.8" transform="rotate(-151.582 1026.57 -54.677)"/>
  <path d="M936.7-95.9h18.6v36.3h-18.6z" class="st2" transform="rotate(118.418 946.008 -77.796)"/>
  <ellipse cx="948.6" cy="-76.6" class="st2" rx="7.7" ry="3.8" transform="scale(-1) rotate(28.613 -300.284 -3719.772)"/>
  <ellipse cx="948.6" cy="-76.6" class="st14" rx="7.7" ry="3.8" transform="scale(-1) rotate(28.613 -300.284 -3719.772)"/>
  <path d="M910.9 291.7h18.6V328h-18.6z" class="st2" transform="rotate(118.418 920.228 309.88)"/>
  <ellipse cx="920.1" cy="310" class="st2" rx="7.7" ry="3.8" transform="rotate(-151.582 920.08 309.988)"/>
  <ellipse cx="920.1" cy="310" class="st14" rx="7.7" ry="3.8" transform="rotate(-151.582 920.08 309.988)"/>
  <path d="M892.2 293.6h18.6v36.3h-18.6z" class="st2" transform="rotate(100.51 901.528 311.75)"/>
  <path d="M892.2 293.6h18.6v36.3h-18.6z" class="st20" transform="rotate(100.51 901.528 311.75)"/>
  <ellipse cx="901.6" cy="312" class="st2" rx="7.7" ry="3.8" transform="rotate(-169.483 901.564 311.956)"/>
  <ellipse cx="901.6" cy="312" class="st14" rx="7.7" ry="3.8" transform="rotate(-169.483 901.564 311.956)"/>
  <path d="M895.6 304.7h18.6V341h-18.6z" class="st2" transform="rotate(100.51 904.927 322.845)"/>
  <ellipse cx="904.9" cy="323" class="st2" rx="7.7" ry="3.8" transform="rotate(-169.483 904.868 323.018)"/>
  <ellipse cx="904.9" cy="323" class="st14" rx="7.7" ry="3.8" transform="rotate(-169.483 904.868 323.018)"/>
  <path d="M948.6 338.8h18.6v36.3h-18.6z" class="st2" transform="rotate(118.418 957.918 356.96)"/>
  <ellipse cx="957.9" cy="357.1" class="st2" rx="7.7" ry="3.8" transform="rotate(-151.582 957.905 357.139)"/>
  <ellipse cx="957.9" cy="357.1" class="st14" rx="7.7" ry="3.8" transform="rotate(-151.582 957.905 357.139)"/>
  <path d="M929.9 340.7h18.6V377h-18.6z" class="st2" transform="rotate(100.51 939.218 358.842)"/>
  <path d="M929.9 340.7h18.6V377h-18.6z" class="st20" transform="rotate(100.51 939.218 358.842)"/>
  <ellipse cx="939.2" cy="359.1" class="st2" rx="7.7" ry="3.8" transform="rotate(-169.483 939.238 359.131)"/>
  <ellipse cx="939.2" cy="359.1" class="st14" rx="7.7" ry="3.8" transform="rotate(-169.483 939.238 359.131)"/>
  <path d="M933.3 351.8h18.6v36.3h-18.6z" class="st2" transform="rotate(100.51 942.599 369.931)"/>
  <ellipse cx="942.5" cy="370.1" class="st2" rx="7.7" ry="3.8" transform="rotate(-169.483 942.536 370.12)"/>
  <ellipse cx="942.5" cy="370.1" class="st14" rx="7.7" ry="3.8" transform="rotate(-169.483 942.536 370.12)"/>
  <path d="M1005.2 308.3h18.6v36.3h-18.6z" class="st2" transform="rotate(118.418 1014.51 326.492)"/>
  <ellipse cx="1014.4" cy="326.7" class="st2" rx="7.7" ry="3.8" transform="rotate(-151.582 1014.376 326.697)"/>
  <ellipse cx="1014.4" cy="326.7" class="st14" rx="7.7" ry="3.8" transform="rotate(-151.582 1014.376 326.697)"/>
  <path d="M986.5 310.5h18.6v36.3h-18.6z" class="st2" transform="rotate(100.51 995.8 328.63)"/>
  <path d="M986.5 310.5h18.6v36.3h-18.6z" class="st20" transform="rotate(100.51 995.8 328.63)"/>
  <ellipse cx="995.8" cy="328.8" class="st2" rx="7.7" ry="3.8" transform="rotate(-169.483 995.839 328.822)"/>
  <ellipse cx="995.8" cy="328.8" class="st14" rx="7.7" ry="3.8" transform="rotate(-169.483 995.839 328.822)"/>
  <path d="M989.9 321.4h18.6v36.3h-18.6z" class="st2" transform="rotate(100.51 999.215 339.541)"/>
  <ellipse cx="999.1" cy="339.7" class="st2" rx="7.7" ry="3.8" transform="rotate(-169.483 999.15 339.73)"/>
  <ellipse cx="999.1" cy="339.7" class="st14" rx="7.7" ry="3.8" transform="rotate(-169.483 999.15 339.73)"/>
</svg>