<svg xmlns="http://www.w3.org/2000/svg" id="Layer_1" viewBox="52 -20.5 176 105.5">
  <style>
    .st0{opacity:.5;fill:#19a0ff;enable-background:new}.st1{fill:#fff}.st2{fill:none;stroke:#377dff;stroke-width:1.5;stroke-miterlimit:10}.st5{fill:#19a0ff}.st7{fill:none;stroke:#fff;stroke-width:1.5;stroke-miterlimit:10}
  </style>
  <path id="mobileMarketing_319_" d="M205.6 84.4V-7.8c0-2-1.6-3.6-3.6-3.6h-52.6c-2 0-3.6 1.6-3.6 3.6v92.3l59.8-.1z" class="st0"/>
  <path id="mobileMarketing_317_" d="M201 84.1V-8.2c0-2-1.4-3.6-3-3.6h-44.6c-1.7 0-3 1.6-3 3.6v92.3H201z" class="st1"/>
  <path id="mobileMarketing_316_" d="M146.2-3.2v-6.2c0-1.7 1.3-3 3-3H203c1.7 0 3 1.3 3 3v6.2h-59.8z" class="st1"/>
  <path id="mobileMarketing_315_" d="M146.2 9.1V-8.8c0-1.7 1.3-3 3-3h8" class="st2"/>
  <path id="mobileMarketing_313_" d="M167.5-11.8h35.4c1.7 0 3 1.3 3 3v92.4" class="st2"/>
  <path id="mobileMarketing_312_" d="M160-11.8h4.1" class="st2"/>
  <path id="mobileMarketing_311_" d="M146.2-2.4h59.7" class="st2"/>
  <path id="mobileMarketing_310_" d="M153-6.6h1.4" class="st2"/>
  <path id="mobileMarketing_304_" d="M157.1-6.6h1.4" class="st2"/>
  <path id="mobileMarketing_303_" d="M161.1-6.6h1.4" class="st2"/>
  <path id="mobileMarketing_301_" d="M154.2 4.5h43.7v17.3h-43.7z" class="st0"/>
  <path id="mobileMarketing_300_" d="M154.2 32.7h13.3V50h-13.3z" class="st0"/>
  <path id="mobileMarketing_299_" fill="#19a0ff" d="M169.4 32.7h13.3V50h-13.3z" opacity=".2"/>
  <path id="mobileMarketing_295_" fill="#19a0ff" d="M184.6 32.7h13.3V50h-13.3z" opacity=".8"/>
  <path id="mobileMarketing_294_" d="M166.7 27.2h18.6" class="st2"/>
  <path id="mobileMarketing_284_" d="M79.9 84.1h33.7c1.4 0 2.6-1.1 2.6-2.6v-27c0-1.4-1.1-2.6-2.6-2.6H79.9c-1.4 0-2.6 1.1-2.6 2.6v27c0 1.4 1.2 2.6 2.6 2.6z" class="st1"/>
  <path id="mobileMarketing_283_" d="M77.3 73.7l13.5-8.2 9.3 5.4 7.9-8.4 8.2 9.2v4.8H77.3z" class="st0"/>
  <path id="mobileMarketing_281_" d="M116.2 76.5H77.3" class="st2"/>
  <path id="mobileMarketing_266_" d="M116.2 71.7l-8.2-9.2-7.9 8.4-9.3-5.4-13.5 8.2" class="st2"/>
  <path id="mobileMarketing_256_" d="M94.1 58.3c0 .9.7 1.6 1.6 1.6s1.6-.7 1.6-1.6-.7-1.6-1.6-1.6-1.6.7-1.6 1.6z" class="st0"/>
  <path id="mobileMarketing_250_" d="M94.1 58.3c0 .9.7 1.6 1.6 1.6s1.6-.7 1.6-1.6-.7-1.6-1.6-1.6-1.6.7-1.6 1.6z" class="st2"/>
  <path id="mobileMarketing_248_" d="M110.5 56.7h-8.8" class="st2"/>
  <path id="mobileMarketing_139_" d="M114 59.2h-8.9" class="st2"/>
  <path id="mobileMarketing_335_" d="M106.1 51.9H92.7" class="st2"/>
  <path id="mobileMarketing_331_" d="M77.3 66v15.5c0 1.4 1.1 2.6 2.6 2.6h33.7c1.4 0 2.6-1.1 2.6-2.6" class="st2"/>
  <path id="mobileMarketing_116_" d="M90.7 62.8l-1.4-7.4c.8-1.8 1.2-3.7 1.2-5.8 0-7.8-6.3-14.1-14.1-14.1s-14.1 6.3-14.1 14.1 6.3 14.1 14.1 14.1c2.8 0 5.3-.8 7.5-2.2l6.8 1.3z" class="st5"/>
  <path id="mobileMarketing_115_" d="M82 36.6c-1.7-.8-3.6-1.2-5.6-1.2-7.8 0-14.1 6.3-14.1 14.1s6.3 14.1 14.1 14.1c2.8 0 5.3-.8 7.5-2.2l6.8 1.2-1.4-7.4c.8-1.8 1.2-3.7 1.2-5.8 0-3.4-1.2-6.5-3.1-8.9" class="st2"/>
  <path id="mobileMarketing_112_" d="M86.4 39.6c-.9-.9-1.9-1.7-3-2.3" class="st2"/>
  <ellipse id="mobileMarketing_109_" cx="76.5" cy="49.6" class="st1" rx="10.9" ry="10.6"/>
  <g id="mobileMarketing_102_">
    <path id="mobileMarketing_747_" d="M82.3 50.5h1.6c.5 0 .9-.4.9-.9s-.4-.9-.9-.9h-1.6" class="st2"/>
    <path id="mobileMarketing_746_" d="M80.6 52.4h2.3c.5 0 .9-.4.9-.9s-.4-.9-.9-.9h-2.3" class="st2"/>
    <path id="mobileMarketing_745_" d="M81 52.4h.9c.5 0 .9.4.9.9s-.4.9-.9.9h-5.4c-.2 0-.5-.1-.6-.3l-.9-1c-.1-.1-.3-.2-.5-.2h-.2" class="st2"/>
    <path id="mobileMarketing_138_" d="M80.6 48.7h2.9c.5 0 .9-.4.9-.9s-.4-.9-.9-.9h-5.8s.8-2 .8-2.9c0-.4.1-1.3-.2-1.7-.1-.2-.9-.2-1 0 0 0-.7 2.2-1.2 2.9-.3.4-1.3 1.7-1.3 1.7h-1" class="st2"/>
    <path id="mobileMarketing_106_" d="M68.8 45.8h1" class="st2"/>
    <path id="mobileMarketing_104_" d="M72.1 45.8h1.1c.4 0 .8.4.8.8V53c0 .4-.4.8-.8.8h-4.5" class="st2"/>
    <path id="mobileMarketing_103_" d="M70.1 45.8h1.2" class="st2"/>
  </g>
  <path id="mobileMarketing_324_" d="M76.5 28.4v5.5" class="st2"/>
  <path id="mobileMarketing_323_" d="M81.3 31.8l-.8 2.7" class="st2"/>
  <path id="mobileMarketing_326_" d="M87.1 31.3l-2.8 4.8" class="st2"/>
  <path id="mobileMarketing_327_" d="M89.5 36.6l-1.9 2" class="st2"/>
  <path id="mobileMarketing_329_" d="M94.8 39.1l-4.7 2.7" class="st2"/>
  <path id="mobileMarketing_330_" d="M94.3 45.2l-2.7.4" class="st2"/>
  <path id="mobileMarketing_409_" d="M71.5 67.1l.7-2.5" class="st2"/>
  <path id="mobileMarketing_410_" d="M65.6 67.7l2.9-4.7" class="st2"/>
  <path id="mobileMarketing_411_" d="M63.1 62.5l2.1-2.1" class="st2"/>
  <path id="mobileMarketing_412_" d="M58 59.8l4.8-2.6" class="st2"/>
  <path id="mobileMarketing_413_" d="M58.4 54l2.9-.7" class="st2"/>
  <path id="mobileMarketing_414_" d="M55.3 49.2l5.5.1" class="st2"/>
  <path id="mobileMarketing_415_" d="M58.8 44.5l2.7.7" class="st2"/>
  <path id="mobileMarketing_416_" d="M58.4 38.6l4.7 2.9" class="st2"/>
  <path id="mobileMarketing_417_" d="M63.8 36.3l1.9 2" class="st2"/>
  <path id="mobileMarketing_418_" d="M66.4 31l2.6 4.9" class="st2"/>
  <path id="mobileMarketing_419_" d="M72.2 31.7l.6 2.7" class="st2"/>
  <path id="mobileMarketing_408_" d="M115.7 84.1c.7-.6 1.2-1.5 1.2-2.6h-.8v-9.7l.6-.5-.6-.6V54.5c0-1.4-1.1-2.6-2.6-2.6H106v-.7h-.9v28.9c0 1 .3 2 .9 2.8.2.5.6.9 1.1 1.1.8.6 1.7.9 2.8.9v-.8h5.8z" class="st0"/>
  <path id="mobileMarketing_407_" d="M155 82.1v-25h.8V16.4c0-1-.3-2-.9-2.8-.2-.5-.6-.9-1.1-1.1-.8-.6-1.7-.9-2.8-.9h-4.8V84H153c1.1.1 2-.8 2-1.9z" class="st0"/>
  <path id="mobileMarketing_516_" d="M151 84.1h-41c-1.1 0-2-.9-2-2V14.4c0-1.1.9-2 2-2h41c1.1 0 2 .9 2 2v67.7c0 1.1-.9 2-2 2z" class="st1"/>
  <path id="mobileMarketing_339_" d="M112 84.1c-2.2 0-4-1.8-4-4V16.4c0-2.2 1.8-4 4-4h3.8" class="st2"/>
  <path id="mobileMarketing_251_" d="M125.5 12.4H149c2.2 0 4 1.8 4 4V57" class="st2"/>
  <path id="mobileMarketing_513_" d="M123.8 17.8h13.3" class="st2"/>
  <path id="mobileMarketing_512_" d="M132.6 78.2c0 1.2-1 2.2-2.2 2.2-1.2 0-2.2-1-2.2-2.2s1-2.2 2.2-2.2c1.3 0 2.2 1 2.2 2.2z" class="st2"/>
  <path id="mobileMarketing_511_" d="M112.5 22.7h36v50.8h-36z" class="st5"/>
  <path id="mobileMarketing_97_" d="M118.1 12.4h4.7" class="st2"/>
  <path id="mobileMarketing_346_" d="M153 82.1V58.5h-13.8c-.8 0-1.5.7-1.5 1.5v23.5c0 .3.1.5.2.7H151c1.1-.1 2-1 2-2.1z" class="st0"/>
  <path id="mobileMarketing_814_" d="M176.6 84.1h-35.4c-.4 0-.7-.3-.7-.7V59.9c0-.4.3-.7.7-.7h35.4c.4 0 .7.3.7.7v23.5c0 .3-.3.7-.7.7z" class="st1"/>
  <path id="mobileMarketing_812_" d="M162.1 69.5l-5.9 3.4c-.4.2-.8-.1-.8-.5v-6.8c0-.4.5-.7.8-.5l5.9 3.4c.4.3.4.8 0 1z" class="st2"/>
  <path id="mobileMarketing_811_" d="M162.1 69.5l-5.9 3.4c-.4.2-.8-.1-.8-.5v-6.8c0-.4.5-.7.8-.5l5.9 3.4c.4.3.4.8 0 1z" class="st2"/>
  <path id="mobileMarketing_810_" d="M144.6 79.5h28.2" class="st2"/>
  <path id="mobileMarketing_809_" d="M150.9 81.8v-4.5" class="st2"/>
  <path id="mobileMarketing_426_" d="M168.8 68.2l1.4-7.8c-.8-1.8-1.3-3.9-1.3-6.1 0-8.2 6.6-14.9 14.9-14.9 8.2 0 14.9 6.6 14.9 14.9 0 8.2-6.6 14.9-14.9 14.9-2.9 0-5.6-.8-7.9-2.3l-7.1 1.3z" class="st5"/>
  <path id="mobileMarketing_425_" d="M177.8 40.7c1.8-.8 3.8-1.2 5.9-1.2 8.2 0 14.9 6.6 14.9 14.9 0 8.2-6.6 14.9-14.9 14.9-2.9 0-5.6-.8-7.9-2.3l-7.1 1.3 1.4-7.8c-.8-1.8-1.3-3.9-1.3-6.1 0-3.5 1.2-6.8 3.3-9.3" class="st2"/>
  <path id="mobileMarketing_424_" d="M173.2 43.8c.9-.9 2-1.7 3.1-2.4" class="st2"/>
  <ellipse id="mobileMarketing_423_" cx="183.7" cy="54.3" class="st1" rx="11.5" ry="11.2"/>
  <g id="mobileMarketing_95_">
    <path id="mobileMarketing_431_" d="M179.5 53.8l8-5.2" class="st2"/>
    <path id="mobileMarketing_430_" d="M187.5 60.2l-8.1-5.6" class="st2"/>
    <path id="mobileMarketing_429_" d="M178.7 52.1c1.2 0 2.1 1 2.1 2.1 0 1.2-1 2.1-2.1 2.1-1.2 0-2.1-1-2.1-2.1s.9-2.1 2.1-2.1z" class="st1"/>
    <path id="mobileMarketing_428_" d="M178.7 52.1c1.2 0 2.1 1 2.1 2.1 0 1.2-1 2.1-2.1 2.1-1.2 0-2.1-1-2.1-2.1s.9-2.1 2.1-2.1z" class="st2"/>
    <path id="mobileMarketing_427_" d="M187.5 46.5c1.2 0 2.1 1 2.1 2.1 0 1.2-1 2.1-2.1 2.1-1.2 0-2.1-1-2.1-2.1s1-2.1 2.1-2.1z" class="st1"/>
    <path id="mobileMarketing_422_" d="M187.5 46.5c1.2 0 2.1 1 2.1 2.1 0 1.2-1 2.1-2.1 2.1-1.2 0-2.1-1-2.1-2.1s1-2.1 2.1-2.1z" class="st2"/>
    <path id="mobileMarketing_421_" d="M187.5 57.9c1.2 0 2.1 1 2.1 2.1 0 1.2-1 2.1-2.1 2.1-1.2 0-2.1-1-2.1-2.1 0-1.2 1-2.1 2.1-2.1z" class="st1"/>
    <path id="mobileMarketing_420_" d="M187.5 57.9c1.2 0 2.1 1 2.1 2.1 0 1.2-1 2.1-2.1 2.1-1.2 0-2.1-1-2.1-2.1 0-1.2 1-2.1 2.1-2.1z" class="st2"/>
  </g>
  <path id="mobileMarketing_98_" d="M177.3 69.9v13.5c0 .4-.3.7-.7.7h-35.4c-.4 0-.7-.3-.7-.7V59.9c0-.4.3-.7.7-.7H168" class="st2"/>
  <g id="mobileMarketing_43_">
    <path id="mobileMarketing_189_" d="M56.6 84.1h163.8" class="st2"/>
    <path id="mobileMarketing_188_" d="M52 84.1h2.7" class="st2"/>
    <path id="mobileMarketing_187_" d="M221.9 84.1h6.1" class="st2"/>
  </g>
  <path id="mobileMarketing_452_" fill="#fff" d="M130.2 35.2c-6 .1-10.8 5.1-10.7 11.1.1 6 5.1 10.8 11.1 10.7 6-.1 10.8-5.1 10.7-11.1-.1-6.1-5.1-10.9-11.1-10.7z" opacity=".2"/>
  <path id="mobileMarketing_451_" d="M141.2 44.2c-.9-5.2-5.5-9.1-11-9-.9 0-1.8.2-2.7.4" class="st7"/>
  <path id="mobileMarketing_450_" d="M121.4 40c-.9 1.3-1.5 2.9-1.8 4.6" class="st7"/>
  <path id="mobileMarketing_449_" d="M125.9 36.1c-1.2.6-2.3 1.3-3.2 2.3" class="st7"/>
  <g id="mobileMarketing_446_">
    <path id="mobileMarketing_448_" d="M133.3 41.9h-3.5c-.7 0-1.3.6-1.3 1.3 0 .7.6 1.3 1.3 1.3h1.4c.7 0 1.3.6 1.3 1.3 0 .7-.6 1.3-1.3 1.3h-3.6" class="st7"/>
    <path id="mobileMarketing_447_" d="M130.4 39.7v9.7" class="st7"/>
  </g>
  <path id="mobileMarketing_444_" d="M135.3 46.2c0 2.7-2.2 4.9-4.9 4.9s-4.9-2.2-4.9-4.9l-9.7.1v.7c0 .8.7 1.5 1.5 1.5h2.4c.3 1.2.8 2.4 1.4 3.4l-1.7 1.7c-.6.6-.6 1.6 0 2.2l1.2 1.3c.6.6 1.6.6 2.2 0l1.7-1.7c1 .7 2.2 1.1 3.4 1.4v2.4c0 .8.7 1.5 1.5 1.5h1.8c.8 0 1.5-.7 1.5-1.5v-2.4c1.2-.3 2.4-.8 3.4-1.4l1.7 1.7c.6.6 1.6.6 2.2 0l1.3-1.3c.6-.6.6-1.6 0-2.2l-1.7-1.7c.7-1 1.1-2.2 1.4-3.4h2.4c.8 0 1.5-.7 1.5-1.5v-1l-9.6.2z" class="st1"/>
  <path id="mobileMarketing_442_" d="M135.3 46.2c0 2.7-2.2 4.9-4.9 4.9s-4.9-2.2-4.9-4.9l-9.7.1v.7c0 .8.7 1.5 1.5 1.5h2.4c.3 1.2.8 2.4 1.4 3.4l-1.7 1.7c-.6.6-.6 1.6 0 2.2l1.2 1.3c.6.6 1.6.6 2.2 0l1.7-1.7c1 .7 2.2 1.1 3.4 1.4v2.4c0 .8.7 1.5 1.5 1.5h1.8c.8 0 1.5-.7 1.5-1.5v-2.4c1.2-.3 2.4-.8 3.4-1.4l1.7 1.7c.6.6 1.6.6 2.2 0l1.3-1.3c.6-.6.6-1.6 0-2.2l-1.7-1.7c.7-1 1.1-2.2 1.4-3.4h2.4c.8 0 1.5-.7 1.5-1.5v-1l-9.6.2z" class="st2"/>
  <path id="mobileMarketing_440_" d="M130.2 31.9v1.5" class="st7"/>
  <path id="mobileMarketing_439_" d="M135.8 30.6l-1.3 3.5" class="st7"/>
  <path id="mobileMarketing_438_" d="M139.5 34.8l-1.1 1.4" class="st7"/>
  <path id="mobileMarketing_437_" d="M144.4 37.7l-3.2 1.8" class="st7"/>
  <path id="mobileMarketing_436_" d="M144.6 43.3l-1.8.3" class="st7"/>
  <path id="mobileMarketing_435_" d="M116.2 43.7l1.8.4" class="st7"/>
  <path id="mobileMarketing_434_" d="M116.2 38.1l3.2 1.8" class="st7"/>
  <path id="mobileMarketing_433_" d="M121.1 35.2l1.1 1.3" class="st7"/>
  <path id="mobileMarketing_432_" d="M124.7 30.8l1.2 3.5" class="st7"/>
</svg>