<svg xmlns="http://www.w3.org/2000/svg" id="Layer_1" viewBox="66 -19.4 204.1 102.4">
  <style>
    .st0{fill:#fff}.st1{fill:#377dff}.st2,.st3{fill:none;stroke:#377dff;stroke-width:1.5;stroke-miterlimit:10}.st3{stroke:#fff}.st4,.st5{opacity:.3;fill:#19a0ff;enable-background:new}.st5{opacity:.5}.st7{fill:none;stroke:#377dff;stroke-width:1.5;stroke-linecap:round;stroke-miterlimit:10}.st8{fill:#19a0ff}.st10,.st9{fill:none;stroke:#19a0ff;stroke-width:1.5;stroke-miterlimit:10}.st10{stroke:#377dff;stroke-dasharray:2}
  </style>
  <g id="power-tools_144_">
    <g id="power-tools_373_">
      <g id="power-tools_374_">
        <path id="power-tools_463_" d="M233.8 82.2V3.4c0-2.4-1.7-4.3-3.8-4.3h-56.5c-2.1 0-3.8 1.9-3.8 4.3v78.8h64.1z" class="st0"/>
        <path id="power-tools_460_" d="M169.7 9V2.3c0-1.8 1.4-3.2 3.2-3.2h57.7c1.8 0 3.2 1.4 3.2 3.2V9h-64.1z" class="st1"/>
        <path id="power-tools_429_" d="M170 9.1h63.8" class="st2"/>
        <path id="power-tools_428_" d="M177 4.6h1.5" class="st3"/>
        <path id="power-tools_427_" d="M181.4 4.6h1.5" class="st3"/>
        <path id="power-tools_414_" d="M185.7 4.6h1.5" class="st3"/>
        <path id="power-tools_413_" d="M178.3 16.5h47V35h-47z" class="st4"/>
        <path id="power-tools_412_" d="M178.3 46.8h14.3v18.5h-14.3z" class="st5"/>
        <path id="power-tools_411_" d="M194.6 46.8h14.3v18.5h-14.3z" class="st4"/>
        <path id="power-tools_410_" fill="#19a0ff" d="M210.9 46.8h14.3v18.5h-14.3z" opacity=".7"/>
        <path id="power-tools_409_" d="M191.8 40.9h19.9" class="st2"/>
        <path id="power-tools_158_" d="M233.8 33.7V3.4c0-2.4-1.7-4.3-3.8-4.3h-56.5c-2.1 0-3.8 1.9-3.8 4.3v15.1" class="st2"/>
        <path id="power-tools_156_" d="M233.8 82.2V54.5" class="st2"/>
      </g>
    </g>
    <g id="power-tools_184_">
      <path id="power-tools_186_" d="M149.2-15.5h4.6" class="st7"/>
      <path id="power-tools_185_" d="M151.5-13.2v-4.6" class="st7"/>
    </g>
    <g id="power-tools_137_">
      <path id="power-tools_140_" d="M70.2 42.7h4.5" class="st7"/>
      <path id="power-tools_138_" d="M72.5 45v-4.6" class="st7"/>
    </g>
    <g id="power-tools_174_">
      <path id="power-tools_176_" d="M260.1 24.8l3.3-3.2" class="st7"/>
      <path id="power-tools_175_" d="M263.4 24.8l-3.3-3.2" class="st7"/>
    </g>
    <g id="power-tools_210_">
      <path id="power-tools_243_" d="M130.1 0l3.3-3.3" class="st7"/>
      <path id="power-tools_213_" d="M133.4 0l-3.3-3.3" class="st7"/>
    </g>
    <path id="power-tools_201_" d="M89.1-15.5h54.3" class="st2"/>
    <path id="power-tools_162_" d="M246 34.9h18.7" class="st2"/>
    <path id="power-tools_136_" d="M66 23.5h27" class="st2"/>
    <path id="power-tools_161_" d="M270.1 34.9h-3.8" class="st2"/>
    <path id="power-tools_135_" d="M138.4-1.7h18.7" class="st2"/>
    <path id="power-tools_105_" d="M162.5-1.7h-3.8" class="st2"/>
    <path id="power-tools_212_" d="M75.3 16.1c0 .8-.6 1.4-1.4 1.4-.8 0-1.4-.6-1.4-1.4s.6-1.4 1.4-1.4c.8 0 1.4.6 1.4 1.4z" class="st1"/>
    <path id="power-tools_141_" d="M192.2-15.5c0 .8-.6 1.4-1.4 1.4-.8 0-1.4-.6-1.4-1.4 0-.8.6-1.4 1.4-1.4.8-.1 1.4.6 1.4 1.4z" class="st1"/>
    <path id="power-tools_142_" d="M250.8 41.9c0 .8-.6 1.4-1.4 1.4-.8 0-1.4-.6-1.4-1.4 0-.8.6-1.4 1.4-1.4.8-.1 1.4.6 1.4 1.4z" class="st1"/>
    <path id="power-tools_143_" d="M157.2 12.4c0 1.1-.9 2-2 2s-2-.9-2-2 .9-2 2-2 2 .9 2 2z" class="st1"/>
    <g id="power-tools_106_">
      <path id="power-tools_114_" d="M107.2 82.2h-4.1c-.3 0-.6-.2-.6-.6V23.3c0-.1 0-.2.1-.2l2-4.4c.2-.4.8-.4 1 0l2 4.4c0 .1.1.2.1.2v58.3c.1.3-.2.6-.5.6z" class="st0"/>
      <path id="power-tools_112_" d="M102.6 25.1h5.2v51.5h-5.2z" class="st5"/>
      <path id="power-tools_151_" d="M102.6 40.9V23.1l2.3-4.9c.1-.3.5-.3.6 0l2.3 4.9v59" class="st2"/>
      <path id="power-tools_109_" d="M102.6 82V63.6" class="st2"/>
      <path id="power-tools_107_" d="M102.4 25.1h5.4" class="st2"/>
    </g>
    <g id="power-tools_567_">
      <path id="power-tools_148_" d="M110.7 81.3V5.7c0-.5.4-.8.8-.8H122c.5 0 .8.4.8.8v12.4" class="st2"/>
      <path id="power-tools_575_" d="M110.7 75.9h5.6" class="st2"/>
      <path id="power-tools_574_" d="M110.7 67.8h5.6" class="st2"/>
      <path id="power-tools_573_" d="M110.7 59.6h5.6" class="st2"/>
      <path id="power-tools_572_" d="M110.7 51.5h5.6" class="st2"/>
      <path id="power-tools_571_" d="M110.7 43.4h5.6" class="st2"/>
      <path id="power-tools_570_" d="M110.7 35.2h5.6" class="st2"/>
      <path id="power-tools_569_" d="M110.7 27.1h5.6" class="st2"/>
      <path id="power-tools_568_" d="M110.7 19h5.6" class="st2"/>
      <path id="power-tools_104_" d="M110.7 10.9h5.6" class="st2"/>
    </g>
    <g id="power-tools_41_">
      <path id="power-tools_802_" d="M197.9 78.9h-79.7c-.5 0-1-.4-1-1V21.3c0-.5.5-1 1-1h79.6c.6 0 1 .5 1 1V78c.1.5-.4.9-.9.9z" class="st8"/>
      <path id="power-tools_801_" d="M176.1 20.3h5.6" class="st2"/>
      <path id="power-tools_157_" d="M198.9 76.9c0 1.1-.9 2-2 2h-77.6c-1.1 0-2-.9-2-2V22.3c0-1.1.9-2 2-2h55.4" class="st2"/>
      <path id="power-tools_133_" d="M183.6 20.3h10.9" class="st2"/>
      <path id="power-tools_799_" d="M121.2 24.9h73.3v47.6h-73.3z" class="st0"/>
      <path id="power-tools_798_" d="M197.5 82.2h-79.7c-1.9 0-3.5-1.4-3.9-3.3l-.6-3.5h36.9l1.4 2h10.2l1.5-2h38.9l-.5 3c-.2 2.2-2.1 3.8-4.2 3.8z" class="st0"/>
      <path id="power-tools_797_" d="M197.5 82.2h-79.7c-1.9 0-3.5-1.4-3.9-3.3l-.6-3.5h36.9l1.4 2h10.2l1.5-2h38.9l-.5 3c-.2 2.2-2.1 3.8-4.2 3.8z" class="st2"/>
    </g>
    <path id="power-tools_166_" d="M203.3 74.7h-4.4V21.3c0-.6-.5-1.1-1.1-1.1h-3.3v-.8h-.8l3.6 11.1h-2.9v51.6H200.3a5.7 5.7 0 0 0 2.4-3.6l.6-3.8z" class="st4"/>
    <g id="power-tools_64_">
      <path id="power-tools_101_" d="M203.7 32.4h3l4.4-13.4-6-10.7h-.9l-.2 10.2c.2.1 1 .4 1.2.6.8.8.8 2 0 2.8s-2 .8-2.8 0-.8-2 0-2.8c.2-.2.7-.5.9-.6l.2-10.2h-.9l-6.2 10.6 4.3 13.4 3 .1z" class="st0"/>
      <path id="power-tools_102_" d="M203.7 32.4h3l4.4-13.4-6-10.7h-.9l-.2 10.2c.2.1 1 .4 1.2.6.8.8.8 2 0 2.8s-2 .8-2.8 0-.8-2 0-2.8c.2-.2.7-.5.9-.6l.2-10.2h-.9l-6.2 10.6 4.3 13.4 3 .1z" class="st9"/>
      <path id="power-tools_98_" d="M197.3 31.4h12.9v50.8h-12.9z" class="st0"/>
      <path id="power-tools_96_" d="M203.8 8.3v10.2" class="st9"/>
      <circle id="power-tools_95_" cx="203.8" cy="20.6" r="2.3" class="st9"/>
      <path id="power-tools_164_" d="M210.2 66.4v15.8" class="st9"/>
      <path id="power-tools_163_" d="M197.3 82.2V31.4h12.9v3.5" class="st2"/>
    </g>
    <g id="power-tools_865_">
      <g id="power-tools_859_">
        <path id="power-tools_868_" d="M223.5 34.9h3.8l11.6 2.8c1.1.3 1.8 1.2 1.8 2.3v.7h-17.2v-5.8z" class="st0"/>
        <path id="power-tools_866_" d="M223.5 53.4h3.8l11.6-2.8c1.1-.3 1.8-1.2 1.8-2.3v-.7h-17.2v5.8z" class="st0"/>
        <path id="power-tools_840_" d="M223.5 34.9h3.8l11.6 2.8c1.1.3 1.8 1.2 1.8 2.3v.7h-17.2v-5.8z" class="st2"/>
        <path id="power-tools_837_" d="M223.5 53.4h3.8l11.6-2.8c1.1-.3 1.8-1.2 1.8-2.3v-.7h-17.2v5.8z" class="st2"/>
        <path id="power-tools_864_" d="M214.6 46.5h-2.7l-8.3 2c-.8.2-1.3.9-1.3 1.6v.5h12.3v-4.1z" class="st0"/>
        <path id="power-tools_862_" d="M214.6 40.9h-2.7l-8.3-2c-.8-.2-1.3-.9-1.3-1.6v-.5h12.3v4.1z" class="st0"/>
        <path id="power-tools_846_" d="M214.6 46.5h-2.7l-8.3 2c-.8.2-1.3.9-1.3 1.6v.5h12.3v-4.1z" class="st2"/>
        <path id="power-tools_844_" d="M214.6 40.9h-2.7l-8.3-2c-.8-.2-1.3-.9-1.3-1.6v-.5h12.3v4.1z" class="st2"/>
        <path id="power-tools_860_" d="M214 34.9h9.5v47.3H214z" class="st0"/>
        <path id="power-tools_838_" d="M214 82.2V34.9h9.5v47.3" class="st2"/>
        <path id="power-tools_858_" d="M214 40.1h4.3" class="st2"/>
        <path id="power-tools_857_" d="M214 44h4.3" class="st2"/>
        <path id="power-tools_856_" d="M214 48h4.3" class="st2"/>
        <path id="power-tools_854_" d="M214 71.9h4.3" class="st2"/>
        <path id="power-tools_851_" d="M214 75.9h4.3" class="st2"/>
        <path id="power-tools_849_" d="M214 79.9h4.3" class="st2"/>
        <path id="power-tools_848_" d="M211.9 53.5h12.2v15.9h-12.2z" class="st8"/>
        <path id="power-tools_845_" d="M211.9 53.5h12.2v15.9h-12.2z" class="st2"/>
        <path id="power-tools_843_" d="M207.9 58.2h2.7v6.4h-2.7z" class="st0"/>
        <path id="power-tools_839_" d="M207.9 58.2h2.7v6.4h-2.7z" class="st2"/>
        <path id="power-tools_842_" d="M240.2 44c0 1.2-1 2.2-2.2 2.2s-2.2-1-2.2-2.2 1-2.2 2.2-2.2c1.3.1 2.2 1 2.2 2.2z" class="st2"/>
      </g>
    </g>
    <g id="power-tools_103_">
      <path id="power-tools_193_" d="M93.8 82.2h-1.9c-.5 0-1-.4-1-1v-3.9c0-.6.5-1 1-1h1.9c.6 0 1 .4 1 1v3.9c0 .5-.5 1-1 1z" class="st5"/>
      <path id="power-tools_192_" d="M93.8 82.2h-1.9c-.5 0-1-.4-1-1v-3.9c0-.6.5-1 1-1h1.9c.6 0 1 .4 1 1v3.9c0 .5-.5 1-1 1z" class="st2"/>
      <path id="power-tools_191_" d="M105.8 52.3c0-7.1-5.8-12.9-12.9-12.9S80 45.2 80 52.3c0 4.8 2.6 8.9 6.5 11.2v12.7l1.8 3.5h8.9l2.2-3.5V63.5c3.8-2.3 6.4-6.4 6.4-11.2z" class="st0"/>
      <path id="power-tools_183_" d="M99.4 76.2l-2.2 3.4h-8.8l-1.9-3.4z" class="st5"/>
      <path id="power-tools_182_" d="M83.1 44c-1.9 2.2-3 5.1-3 8.3 0 4.8 2.6 8.9 6.5 11.2v12.7l1.8 3.5h8.9l2.2-3.5V63.5c3.9-2.2 6.5-6.4 6.5-11.2 0-7.1-5.8-12.9-12.9-12.9-1.7 0-3.3.3-4.8.9" class="st2"/>
      <path id="power-tools_181_" d="M86.5 41.1c-1 .6-1.3.7-2.2 1.6" class="st2"/>
      <path id="power-tools_180_" d="M84.6 67.4h16.7" class="st2"/>
      <path id="power-tools_179_" d="M84.6 70.3h16.7" class="st2"/>
      <path id="power-tools_178_" d="M84.6 73.2h16.7" class="st2"/>
      <path id="power-tools_177_" d="M84.6 76.2h16.7" class="st2"/>
      <path id="power-tools_150_" d="M99.7 52.3c0 3.7-3 6.8-6.8 6.8-3.7 0-6.8-3-6.8-6.8 0-3.7 3-6.8 6.8-6.8s6.8 3.1 6.8 6.8z" class="st5"/>
      <g id="power-tools_116_">
        <g id="power-tools_278_">
          <path id="power-tools_279_" d="M94.7 43.9l-3.9 8.3-.7-1.2h6.8l-.6 1.2-4.8 8.9-.6-.3 4-9.3.7 1.1h-6.8l.6-1.1 4.5-8z" class="st1"/>
        </g>
      </g>
    </g>
    <g id="power-tools_351_">
      <circle id="power-tools_139_" cx="158" cy="49.5" r="8.6" class="st1"/>
      <circle id="power-tools_155_" cx="158" cy="49.5" r="8.6" class="st2"/>
      <path id="power-tools_199_" d="M144.4 35.5h3.4v3.4h-3.4z" class="st2"/>
      <path id="power-tools_235_" d="M168.3 35.5h3.4v3.4h-3.4z" class="st2"/>
      <path id="power-tools_237_" d="M144.4 59.4h3.4v3.4h-3.4z" class="st2"/>
      <path id="power-tools_236_" d="M168.3 59.4h3.4v3.4h-3.4z" class="st2"/>
      <g id="power-tools_265_">
        <path id="power-tools_257_" d="M148.8 61.3h1.7" class="st10"/>
        <path id="power-tools_250_" d="M151.7 61.3h1.6" class="st10"/>
        <path id="power-tools_251_" d="M154.5 61.3h1.7" class="st10"/>
        <path id="power-tools_258_" d="M157.4 61.3h1.7" class="st10"/>
        <path id="power-tools_259_" d="M160.3 61.3h1.7" class="st10"/>
        <path id="power-tools_260_" d="M163.2 61.3h1.7" class="st10"/>
        <path id="power-tools_264_" d="M166.1 61.3h1.7" class="st10"/>
      </g>
      <g id="power-tools_238_">
        <path id="power-tools_248_" d="M148.8 37h1.7" class="st10"/>
        <path id="power-tools_247_" d="M151.7 37h1.6" class="st10"/>
        <path id="power-tools_246_" d="M154.5 37h1.7" class="st10"/>
        <path id="power-tools_245_" d="M157.4 37h1.7" class="st10"/>
        <path id="power-tools_244_" d="M160.3 37h1.7" class="st10"/>
        <path id="power-tools_240_" d="M163.2 37h1.7" class="st10"/>
        <path id="power-tools_239_" d="M166.1 37h1.7" class="st10"/>
      </g>
      <g id="power-tools_253_">
        <path id="power-tools_333_" d="M146.3 58.5v-1.7" class="st10"/>
        <path id="power-tools_325_" d="M146.3 55.6v-1.7" class="st10"/>
        <path id="power-tools_270_" d="M146.3 52.7V51" class="st10"/>
        <path id="power-tools_266_" d="M146.3 49.8v-1.6" class="st10"/>
        <path id="power-tools_256_" d="M146.3 47v-1.7" class="st10"/>
        <path id="power-tools_255_" d="M146.3 44.1v-1.7" class="st10"/>
        <path id="power-tools_254_" d="M146.3 41.2v-1.7" class="st10"/>
      </g>
      <g id="power-tools_252_">
        <path id="power-tools_342_" d="M169.9 58.5v-1.7" class="st10"/>
        <path id="power-tools_340_" d="M169.9 55.6v-1.7" class="st10"/>
        <path id="power-tools_339_" d="M169.9 52.7V51" class="st10"/>
        <path id="power-tools_338_" d="M169.9 49.8v-1.6" class="st10"/>
        <path id="power-tools_337_" d="M169.9 47v-1.7" class="st10"/>
        <path id="power-tools_336_" d="M169.9 44.1v-1.7" class="st10"/>
        <path id="power-tools_334_" d="M169.9 41.2v-1.7" class="st10"/>
      </g>
    </g>
    <g id="power-tools_3_">
      <path id="power-tools_189_" d="M73.9 82.2h175.5" class="st2"/>
      <path id="power-tools_188_" d="M69 82.2h2.9" class="st2"/>
      <path id="power-tools_187_" d="M251 82.2h6.5" class="st2"/>
    </g>
  </g>
</svg>