<svg xmlns="http://www.w3.org/2000/svg" id="Layer_1" viewBox="66 -19.4 204.1 102.4">
  <style>
    .st0{fill:#fff}.st1{fill:none;stroke:#377dff;stroke-width:1.5;stroke-miterlimit:10}.st2{opacity:.3;fill:#19a0ff;enable-background:new}.st3{fill:none;stroke:#377dff;stroke-width:1.5;stroke-linecap:round;stroke-miterlimit:10}.st4{fill:#377dff}
  </style>
  <g id="project_336_">
    <g id="project_776_">
      <path id="project_769_" d="M236.8 24.8l-.5-2.3c-.2-1.6-1.7-2.8-3.4-2.6l-34.8 4.5c-1.6.2-2.8 1.7-2.6 3.4l6.4 49.1 39.5-12.1-4.6-40z" class="st0"/>
      <path id="project_298_" d="M236.8 24.8l-.5-2.3c-.2-1.6-1.7-2.8-3.4-2.6L209 23" class="st1"/>
      <path id="project_297_" d="M206.7 82.2H244c1 0 1.9-.8 1.9-1.9V28.6c0-1-.8-1.9-1.9-1.9h-37.3c-1 0-1.9.8-1.9 1.9v51.7c0 1.1.9 1.9 1.9 1.9z" class="st2"/>
      <path id="project_296_" d="M242.6 82.2c1.8 0 3.3-1.5 3.3-3.3V30.1c0-1.8-1.5-3.3-3.3-3.3h-25.7" class="st1"/>
      <path id="project_760_" d="M249.7 32.6h-7.6" class="st1"/>
      <path id="project_759_" d="M249.7 38h-7.6" class="st1"/>
      <path id="project_292_" d="M249.7 43.3h-7.6" class="st1"/>
      <path id="project_288_" d="M249.7 48.7h-7.6" class="st1"/>
      <path id="project_763_" d="M249.7 54.1h-7.6" class="st1"/>
      <path id="project_287_" d="M249.7 59.4h-7.6" class="st1"/>
      <path id="project_285_" d="M249.7 65.3h-7.3" class="st1"/>
      <path id="project_282_" d="M249.7 70.5h-7.3" class="st1"/>
      <path id="project_279_" d="M249.7 75.7h-7.3" class="st1"/>
      <circle id="project_768_" cx="225.4" cy="48.7" r="9" class="st0"/>
      <circle id="project_771_" cx="225.4" cy="48.7" r="9" class="st1"/>
    </g>
    <g id="XMLID_567_">
      <path id="XMLID_261_" d="M106.7 81.4V6.8c0-.5.4-.8.8-.8h10.3c.5 0 .8.4.8.8v6.3" class="st1"/>
      <path id="XMLID_575_" d="M106.7 76h5.5" class="st1"/>
      <path id="XMLID_574_" d="M106.7 68h5.5" class="st1"/>
      <path id="XMLID_573_" d="M106.7 60h5.5" class="st1"/>
      <path id="XMLID_572_" d="M106.7 51.9h5.5" class="st1"/>
      <path id="XMLID_571_" d="M106.7 43.9h5.5" class="st1"/>
      <path id="XMLID_570_" d="M106.7 35.9h5.5" class="st1"/>
      <path id="XMLID_569_" d="M106.7 27.9h5.5" class="st1"/>
      <path id="XMLID_568_" d="M106.7 19.9h5.5" class="st1"/>
      <path id="XMLID_258_" d="M106.7 12h5.5" class="st1"/>
    </g>
    <g id="project_392_">
      <path id="project_397_" d="M253.2 22.6h4.3" class="st3"/>
      <path id="project_396_" d="M255.4 24.7v-4.3" class="st3"/>
    </g>
    <g id="project_263_">
      <path id="project_265_" d="M147.6 2.8h4.2" class="st3"/>
      <path id="project_264_" d="M149.7 5V.7" class="st3"/>
    </g>
    <g id="project_360_">
      <path id="project_365_" d="M211.5-7.9l3-3" class="st3"/>
      <path id="project_364_" d="M214.5-7.9l-3-3" class="st3"/>
    </g>
    <g id="project_266_">
      <path id="project_272_" d="M75.7 18l3.1-3" class="st3"/>
      <path id="project_269_" d="M78.8 18l-3.1-3" class="st3"/>
    </g>
    <path id="project_322_" d="M134.6-16.1H164" class="st1"/>
    <path id="project_171_" d="M186.5 6h29.4" class="st1"/>
    <path id="project_320_" d="M150.4-9.4h54.3" class="st1"/>
    <path id="project_259_" d="M66 28.6h27.5" class="st1"/>
    <path id="project_333_" d="M250.7 29.2h19.4" class="st1"/>
    <path id="project_318_" d="M169.1-16.1h-3.6" class="st1"/>
    <path id="project_271_" d="M180.5 15.1c0 .7-.6 1.3-1.3 1.3s-1.3-.6-1.3-1.3.6-1.3 1.3-1.3 1.3.6 1.3 1.3z" class="st4"/>
    <path id="project_278_" d="M91.7 50.8c0 1-.8 1.8-1.8 1.8s-1.8-.8-1.8-1.8.8-1.8 1.8-1.8 1.8.8 1.8 1.8z" class="st4"/>
    <path id="project_321_" d="M114.5-1.4c0 1-.8 1.8-1.8 1.8s-1.8-.8-1.8-1.8.8-1.8 1.8-1.8 1.8.8 1.8 1.8z" class="st4"/>
    <path id="project_325_" d="M259.3 66c0 1-.8 1.8-1.8 1.8s-1.8-.8-1.8-1.8.8-1.8 1.8-1.8 1.8.8 1.8 1.8z" class="st4"/>
    <g id="project_43_">
      <path id="project_172_" d="M206.6 82.2l-.3-52.9c0-4-3.6-7.2-8.1-7.2h-75.8l.3 60.2 83.9-.1z" class="st0"/>
      <path id="project_173_" d="M206.6 82.2l-.3-52.9c0-4-3.6-7.2-8.1-7.2h-75.8" class="st1"/>
      <path id="project_170_" d="M198.7 82.2h8.5V19.7c0-3.2-2.9-5.9-6.5-5.9h-2v68.4z" class="st4"/>
      <path id="project_169_" d="M207.1 28.2v-7.8c0-3.6-2.9-6.5-6.5-6.5h-2v68.3" class="st1"/>
      <path id="project_202_" d="M125.4 82.2h-8.5V19.7c0-3.2 2.9-5.9 6.5-5.9h2v68.4z" class="st4"/>
      <path id="project_200_" d="M116.9 82.2V20.4c0-3.6 2.9-6.5 6.5-6.5h2v68.3" class="st1"/>
      <circle id="project_167_" cx="166.7" cy="49.6" r="15" class="st2"/>
      <g id="project_159_">
        <g id="project_267_">
          <circle id="project_268_" cx="159.5" cy="56.8" r="15" fill="none" stroke="#377dff" stroke-dasharray="2" stroke-miterlimit="10" stroke-width="1.5"/>
        </g>
      </g>
    </g>
    <g id="project_145_">
      <path id="project_154_" d="M87.4 82.2h163.9" class="st1"/>
      <path id="project_147_" d="M82.9 82.2h2.7" class="st1"/>
      <path id="project_146_" d="M252.8 82.2h6.1" class="st1"/>
    </g>
    <path id="project_342_" fill="#19a0ff" d="M198.7 82.2h8.5v-.1h.2l-.2-44.4v-9.5h.7v-1.5l-53.7 53.8c-.4.4-.5 1-.3 1.6l.1.1h44v.1l.7-.1zm-24.5-8.6l29.7-29.7v29.7h-29.7z" opacity=".2"/>
    <g id="project_229_">
      <g id="project_203_">
        <path id="project_206_" d="M215 82.2h-57.3c-.6 0-1-.8-.5-1.2l56.6-56.6c.4-.4 1.2-.1 1.2.5v57.3zm-40.1-7.8h32.2V42.1l-32.2 32.3z" class="st0"/>
      </g>
      <g id="project_204_">
        <path id="project_209_" d="M215 82.2h-57.3c-.6 0-1-.8-.5-1.2l56.6-56.6c.4-.4 1.2-.1 1.2.5v57.3zm-40.1-7.8h32.2V42.1l-32.2 32.3z" class="st1"/>
      </g>
      <path id="project_218_" d="M165.4 78.4v3.8" class="st1"/>
      <path id="project_217_" d="M171.6 78.4v3.8" class="st1"/>
      <path id="project_220_" d="M177.9 78.4v3.8" class="st1"/>
      <path id="project_221_" d="M184.1 78.4v3.8" class="st1"/>
      <path id="project_223_" d="M190.3 78.4v3.8" class="st1"/>
      <path id="project_224_" d="M196.6 78.4v3.8" class="st1"/>
      <path id="project_226_" d="M202.8 78.4v3.8" class="st1"/>
      <path id="project_227_" d="M209.1 78.4v3.8" class="st1"/>
      <path id="project_249_" d="M211.1 75h3.8" class="st1"/>
      <path id="project_242_" d="M211.1 68.8h3.8" class="st1"/>
      <path id="project_241_" d="M211.1 62.6h3.8" class="st1"/>
      <path id="project_234_" d="M211.1 56.3h3.8" class="st1"/>
      <path id="project_233_" d="M211.1 50.1h3.8" class="st1"/>
      <path id="project_232_" d="M211.1 43.8h3.8" class="st1"/>
      <path id="project_231_" d="M211.1 37.6h3.8" class="st1"/>
      <path id="project_230_" d="M211.1 31.4h3.8" class="st1"/>
    </g>
    <g id="project_211_">
      <path id="project_257_" d="M97.1 82.2h4.2c.3 0 .6-.3.6-.6v-61c0-.1 0-.2-.1-.2l-2.1-4.6c-.2-.4-.8-.4-1 0l-2.1 4.6c0 .1-.1.2-.1.2v61c0 .4.3.6.6.6z" class="st0"/>
      <path id="project_270_" d="M96.5 22.6h5.4v53.8h-5.4V22.6z" class="st2"/>
      <path id="project_256_" d="M96.5 82.2h5.4V20.5l-2.4-5.2c-.1-.3-.5-.3-.6 0l-2.4 5.2v61.7z" class="st1"/>
      <path id="project_255_" d="M102.1 22.6h-5.6" class="st1"/>
      <path id="project_214_" d="M102.3 76.4h-6.2" class="st1"/>
    </g>
  </g>
</svg>