<svg xmlns="http://www.w3.org/2000/svg" id="Layer_1" viewBox="156 -64.4 383.2 193.4">
  <style>
    .st0{fill:#00c9a7}.st1,.st2{fill:none;stroke:#191c3c;stroke-miterlimit:10}.st2{stroke:#1e2022}.st3{fill:#fcd991}.st4{fill:#00c671}.st8{fill:#191c3c}.st10{fill:#377dff}.st11{fill:#dfe2ec}.st13{fill:#de4437}.st14{fill:#eceef4}.st15{fill:#fff}.st18{fill:#ffc107}.st23{fill:#fec55e}.st24{fill:#bf9447}.st25,.st26{opacity:.5;fill:#fff;enable-background:new}.st26{opacity:.3;fill:#191c3c}.st28{fill:#4d5068}.st29{fill:#272834}.st31{opacity:.3}.st32{fill:#231f20}.st37{fill:#575a8f}.st40{fill:#ddb758}.st41{fill:#efdcb4}.st42{fill:#093a66}.st43{fill:#424559}.st45{fill:#336dc1}.st46{fill:#c6e8f7}.st48{fill:#1e2022}
  </style>
  <path d="M482.4 109.8c-.1 0-.1.1-.2.1-2.2 1-3.4.9-5.5-.1-2-.9-3.9-2-5.5-3.4-2.1-1.8-3.7-4.3-4-7-.1-.6-.1-1.3.3-1.8.5-.7 1.5-.8 2.3-.5s1.4.9 2 1.5c.3.2.6.5.9.6s.8 0 1-.3c.3-.5-.2-1.1-.6-1.4-1-.9-2-1.3-3.1-2.1-1.4-1-2.6-2.1-3.3-3.6-.7-1.5-.9-3.3-.1-4.8.2-.4.6-.9 1-1.1.8-.5 1.7-.5 2.6-.3s1.7.5 2.6.6c2.1.2 2.9-1.3 2.9-3.2 0-1.3-.4-2.6-.5-3.8-.1-2.3 1-4.7 3.1-5.7s4.9 0 5.7 2.1c.8 2.3-1 5 .2 7.2.4.7 1.3 1.7 2 2.2 1.1.7 2.8-.1 4.1-.1.3 0 .6.1.8.3.2.2.2.4.3.6.3 1.6-.3 3.4-1.5 4.5-1.4 1.3-3.8 1.9-4.4 3.9-.4 1.2-.2 4.3 1.7 4 .7-.1 1.2-.8 1.9-1.1.9-.3 1.9.3 2.3 1.1s.3 1.8-.1 2.7c-.5 1.3-1.6 2.4-2.6 3.5-2.2 2-3.6 4-6.3 5.4z" class="st0"/>
  <path d="M479.5 81.3v47.6M485 89.5l-5.5 5.5-5.5-5.5M485 100.6l-5.5 5.5-5.5-5.5" class="st1"/>
  <path d="M181.9 104.8c-.1 0-.1.1-.2.1-1.9.9-2.9.7-4.7-.1-1.7-.8-3.3-1.7-4.7-2.9-1.8-1.6-3.1-3.7-3.4-6-.1-.5-.1-1.1.3-1.5.4-.6 1.3-.7 2-.4s1.2.8 1.7 1.3c.2.2.5.4.8.5s.7 0 .8-.3c.2-.4-.2-.9-.6-1.2-.9-.7-1.7-1.1-2.6-1.8-1.2-.8-2.2-1.8-2.8-3.1-.6-1.3-.8-2.8-.1-4.1.2-.4.5-.7.8-1 .6-.4 1.5-.4 2.2-.2s1.5.4 2.2.5c1.8.2 2.5-1.1 2.5-2.7 0-1.1-.4-2.2-.4-3.3-.1-1.9.8-4 2.6-4.8 1.8-.8 4.2 0 4.8 1.8.7 2-.9 4.2.2 6.1.3.6 1.1 1.5 1.7 1.8 1 .6 2.4-.1 3.5-.1.3 0 .5 0 .7.2.1.1.2.3.2.5.3 1.4-.2 2.9-1.3 3.8-1.2 1.1-3.2 1.6-3.7 3.3-.3 1-.2 3.7 1.5 3.4.6-.1 1-.7 1.6-.9.7-.3 1.6.2 1.9.9.3.7.2 1.6-.1 2.3-.5 1.1-1.3 2.1-2.2 3-1.8 2-2.9 3.7-5.2 4.9z" class="st0"/>
  <path d="M179.4 80.5v48.2M184.1 87.5l-4.7 4.7-4.7-4.7M184.1 97l-4.7 4.7-4.7-4.7" class="st2"/>
  <g>
    <path d="M197.9 72.2c-.1 0-.2.1-.3.1-3.1 1.5-4.7 1.2-7.7-.2-2.7-1.3-5.4-2.8-7.7-4.8-2.9-2.5-5.1-6-5.6-9.8-.1-.9-.1-1.8.4-2.5.7-1 2.1-1.1 3.2-.7 1.1.4 2 1.3 2.9 2.1.4.3.8.7 1.3.8.5.1 1.1 0 1.3-.4.4-.7-.3-1.5-.9-2-1.4-1.2-2.8-1.9-4.3-2.9-1.9-1.3-3.6-2.9-4.7-5-1-2.1-1.3-4.6-.2-6.6.3-.6.8-1.2 1.4-1.6 1-.7 2.4-.6 3.6-.4 1.2.3 2.4.7 3.6.9 2.9.3 4.1-1.8 4-4.4 0-1.8-.6-3.6-.7-5.4-.2-3.2 1.4-6.5 4.2-7.9 2.9-1.4 6.9-.1 7.9 2.9 1.1 3.3-1.4 6.9.3 10 .5 1 1.8 2.4 2.8 3 1.6 1 3.9-.2 5.8-.1.4 0 .9.1 1.2.4.2.2.3.5.4.8.4 2.3-.4 4.7-2.1 6.3-1.9 1.8-5.3 2.7-6.1 5.4-.5 1.7-.3 6 2.4 5.5 1-.2 1.7-1.2 2.7-1.5 1.2-.4 2.6.4 3.1 1.6s.4 2.5-.1 3.7c-.7 1.9-2.2 3.4-3.6 4.8-2.8 3.2-4.7 6.1-8.5 7.9z" class="st3"/>
    <path d="M193.8 32.5v95.3M201.5 44l-7.7 7.7-7.7-7.7M201.5 59.5l-7.7 7.7-7.7-7.7" class="st2"/>
  </g>
  <g>
    <path d="M508.7 83.8c-.1.1-.3.1-.4.2-4.2 2-6.4 1.7-10.4-.2-3.7-1.7-7.3-3.8-10.4-6.5-3.9-3.5-6.9-8.1-7.6-13.3-.1-1.2-.1-2.4.6-3.4.9-1.3 2.9-1.5 4.4-.9s2.7 1.7 3.9 2.8c.5.5 1 .9 1.7 1.1.7.2 1.5 0 1.8-.6.5-.9-.4-2-1.2-2.7-1.9-1.6-3.8-2.6-5.8-4-2.6-1.8-4.9-4-6.3-6.8s-1.7-6.3-.3-9c.4-.8 1.1-1.6 1.9-2.1 1.4-.9 3.3-.9 4.9-.5s3.2 1 4.9 1.2c4 .4 5.5-2.4 5.4-6-.1-2.4-.8-4.8-1-7.3-.2-4.3 1.9-8.9 5.8-10.7 3.9-1.8 9.3-.1 10.7 4 1.5 4.4-1.9 9.4.3 13.6.7 1.4 2.4 3.3 3.8 4.1 2.2 1.3 5.3-.2 7.8-.1.6 0 1.2.1 1.6.5.3.3.4.7.5 1.1.6 3.1-.5 6.4-2.8 8.5-2.6 2.4-7.2 3.6-8.3 7.3-.7 2.3-.4 8.1 3.3 7.5 1.4-.2 2.3-1.6 3.6-2 1.6-.6 3.5.5 4.3 2.1.7 1.6.5 3.4-.1 5.1-1 2.5-3 4.6-4.9 6.6-4 3.9-6.6 7.8-11.7 10.4z" class="st3"/>
    <path d="M503.2 29.8v99.1M513.6 45.5l-10.4 10.4-10.5-10.4M513.6 66.5l-10.4 10.4-10.5-10.4" class="st2"/>
  </g>
  <g>
    <path d="M410.8 128.7c.8.4 0 0 0 0zm-9.1-4.5c-1.4 1.5-3.1 3.3-2.5 3.6 2 1.2 9.2 1.1 11.7.9 17 .8 34.2-6 45.8-18.4-8-5.5-18.7-6.4-28.1-3.7s-17.6 8.6-24.3 15.6c-.5.6-2.1 1.5-2.6 2z" class="st4"/>
    <path fill="#08492c" d="M401.7 124.2c.5-.5 2.1-1.4 2.6-1.9 6.8-7 15-12.9 24.3-15.6 4.5-1.3 9.3-1.8 14-1.3-5.4.2-10.8 1.6-15.5 4-8.5 4.3-15.3 11.4-20.5 19.4-2.9 0-6.1-.3-7.3-1-.7-.3 1-2.1 2.4-3.6z" opacity=".2"/>
    <path d="M403.1 95.9c3.2-2.9 7.5-4.4 11.6-5.6 6.4-1.8 13-3.1 19.6-3.7-3.6 8-6.2 16-12.7 21.9-2.6 2.3-6.8 4.6-9.5 6.8-3.2 2.6-8.3 9.3-10.9 12.6-3 .6-5.3-3.7-6.6-6.7-1.7-3.8.2-9.6 1.5-13.5 1.6-4.4 3.6-8.7 7-11.8z" class="st4"/>
    <path fill="#f5f7f9" d="M410.4 115.5c2.3-2.6 6-5.6 8.2-8.3 4.5-5.8 6-12.5 7.6-19.4 2.7-.5 5.4-.8 8.1-1.1-3.6 8-6.2 16-12.7 21.9-2.6 2.3-6.8 4.6-9.5 6.8-1.6 1.2-3.5 3.4-5.5 5.7 1.3-2.3 2.7-4.3 3.8-5.6z" opacity=".08"/>
    <path d="M402.1 74.4c1.5 7.4 2.9 15 1.6 22.4-.5 3-1.5 5.9-2.4 8.8-1.1 3.8-1.7 6.1-2.7 9.9.8-.5-.8 1.8-1.6 3.1-.9 1.4-2.2 3.2-3.2 1.7-1.2-1.7-2.5-3.6-3-5.6-.6-2.4 0-6.4 0-8.9-.1-6.5-.1-13.1 2.1-19.2 1.8-4.8 5-9.1 9.2-12.2z" class="st4"/>
    <path d="M451.9 111.7c-8.4-.3-16.7 0-24.9 2.3-7.7 2.2-14.7 5.8-21.1 10.7-.3.3-.7-.3-.3-.6 6.4-4.8 13.6-8.5 21.3-10.6 8.3-2.3 16.5-2.5 25-2 .1 0 .1.2 0 .2zM431.6 89.1c-6.8 3.2-13 7.4-18.4 12.7-5.8 5.7-9.7 12.5-14 19.2-.1.2-.4 0-.3-.2 7.4-13.9 17.9-25.7 32.7-31.9 0 0 .1.1 0 .2zM401.7 77.3c-4.4 13.2-9.6 25.8-6.6 40 .1.3-.4.4-.5.1-2.8-13.5 1.3-27.9 6.9-40.2.1 0 .2 0 .2.1z" class="st8"/>
    <path d="M445.8 116.4c-.9-.9-1.8-1.9-2.8-2.7s-2.2-1.3-3.3-2c-.1 0 0-.2.1-.2 2.3.9 4.7 2.8 6 4.9.1 0 .1.1 0 0zM439 119.7c-2.4-4.3-5.8-5.5-10.4-6.1-.4 0-.3-.5.1-.5 4.4.7 8.8 2 10.3 6.6.1.1.1.1 0 0zM430.6 120.3c-2.7-2.1-5.5-5.3-9.3-4.3-.2.1-.3-.2-.1-.3 3.8-1 6.9 2.1 9.5 4.5.1.1 0 .2-.1.1zM422.3 124.7c-2.5-3.2-6.2-6.1-10.4-3.9-.2.1-.5-.2-.2-.4 4.2-2.1 8.5.6 10.6 4.3.1 0 0 .1 0 0zM441.6 106.3c-.6 2.7-2.9 4.3-5.1 5.8-.2.1-.3-.2-.1-.3 2.2-1.4 4.3-2.9 5-5.6.1 0 .3 0 .2.1z" class="st8"/>
    <path d="M432.7 106.9c-1 2.6-2.7 4.9-4.7 6.8-.2.2-.4-.1-.2-.2 2.1-1.9 3.5-4.1 4.9-6.6 0-.1 0 0 0 0zM425.2 109.9c-.5 1.3-1.1 2.4-1.9 3.5-.6.8-1.6 2.3-2.5 2.6-.1 0-.2 0-.2-.1l-.1-.1c-.1-.1-.1-.3 0-.4 0 0 .1 0 .1-.1h.3l.1.1c.1.1.1.2-.1.2-.3 0 1-1.4 1-1.4.4-.4.8-.8 1.1-1.3.8-1 1.5-2.1 2.1-3.2 0 .1.1.1.1.2zM418.9 113.1c-1.7 2.8-4.2 5.3-6.8 7.3-.3.2-.7-.2-.4-.4 2.7-2.1 4.8-4.5 7-7.1.1-.1.3.1.2.2zM427.6 98c-4.7-.3-8.7-.1-12.9 2.5-.3.2-.5-.3-.3-.4 3.7-2.4 8.9-3.8 13.2-2.3.2 0 .2.2 0 .2zM420.3 105.8c-2.3 0-4.4-.1-6.7.5-2 .5-3.9 1.2-5.9 1.9-.3.1-.4-.3-.1-.4 3.9-1.5 8.4-3.2 12.7-2.1v.1zM411.5 112.7c-1.6.1-3.2.2-4.7.5-1.8.3-3 1.2-4.2 2.6-.2.2-.5-.1-.3-.3 1.1-1.3 2.2-2.2 3.9-2.6 1.7-.4 3.5-.5 5.3-.4.1 0 .1.2 0 .2z" class="st8"/>
    <path d="M418 92.5c-.1 1.7-1 3.4-1.7 4.9-.4 1-.8 2.7-2.1 2.9-.1 0-.2-.1-.1-.2 2.2-1.8 2.3-5.3 3.7-7.7.1 0 .2.1.2.1zM410.9 94.7c-.4 4.7-1.9 9.3-3.5 13.7-.1.2-.4.1-.3-.1 1.7-4.5 2.7-9 3.8-13.6-.2-.1 0-.1 0 0zM403.3 104.5c0 4-1 8-1.6 11.9 0 .3-.5.2-.5-.1.7-3.9 1.3-7.9 1.9-11.8 0-.1.2-.1.2 0zM403.1 84.8c-2.8 3.2-5.1 6.6-6.9 10.4-.1.3-.6 0-.5-.3 1.8-3.9 4.1-7.4 7.2-10.4.2-.1.4.1.2.3z" class="st8"/>
    <path d="M394 85.5c1.3 3 1.6 6.9 1.8 10.1 0 .3-.4.3-.5 0-.1-1.9-.3-3.7-.6-5.6-.3-1.5-.7-3-.9-4.5 0-.1.2-.1.2 0zM399.2 96.9c-2.1 3.3-3.4 6.5-4.9 10.1 0 .1-.2 0-.2-.1.5-3.6 2.6-7.4 4.9-10.2.1 0 .2.1.2.2zM393.9 107.2c-.9-2.3-1.7-4.6-3-6.7-.1-.2.2-.3.3-.2 1.3 2 2.5 4.5 2.7 6.9.1 0 0 0 0 0z" class="st8"/>
  </g>
  <g>
    <g id="pushingBoundaries_168_">
      <path id="pushingBoundaries_183_" fill="#f7f7f9" d="M342 128.9H240.7V8.1c0-.6.5-1.2 1.2-1.2h98.9c.6 0 1.2.5 1.2 1.2v120.8z"/>
      <path id="pushingBoundaries_182_" d="M342 22.2V10.5c0-1.9-1.6-3.5-3.5-3.5h-94.3c-1.9 0-3.5 1.6-3.5 3.5v11.7H342z" class="st10"/>
      <path id="pushingBoundaries_181_" d="M255.3 28.5H328v39.4h-72.7z" class="st11"/>
      <path id="pushingBoundaries_180_" fill="#de4437" d="M259.3 60h63.3v2.4h-63.3z" opacity=".1"/>
      <path id="pushingBoundaries_179_" d="M259.3 60h35.6v2.4h-35.6z" class="st13"/>
      <path id="pushingBoundaries_178_" d="M324.9 76h-66.6c-1.7 0-3 1.4-3 3 0 1.7 1.4 3 3 3h66.6c1.7 0 3-1.4 3-3 .1-1.6-1.3-3-3-3z" class="st14"/>
      <path id="pushingBoundaries_177_" d="M325.2 89h-66.6c-1.7 0-3 1.4-3 3 0 1.7 1.4 3 3 3h66.6c1.7 0 3-1.4 3-3 0-1.7-1.4-3-3-3z" class="st14"/>
      <path id="pushingBoundaries_176_" d="M325.4 102h-66.6c-1.7 0-3 1.4-3 3 0 1.7 1.4 3 3 3h66.6c1.7 0 3-1.4 3-3 0-1.7-1.3-3-3-3z" class="st14"/>
      <path id="pushingBoundaries_175_" d="M325.6 115H259c-1.7 0-3 1.4-3 3 0 1.7 1.4 3 3 3h66.6c1.7 0 3-1.4 3-3 .1-1.7-1.3-3-3-3z" class="st14"/>
      <path id="pushingBoundaries_174_" d="M252.6 14.5c0 1.1-.9 2-2 2s-2-.9-2-2 .9-2 2-2 2 .9 2 2z" class="st15"/>
      <path id="pushingBoundaries_173_" d="M259.3 14.5c0 1.1-.9 2-2 2s-2-.9-2-2 .9-2 2-2 2 .9 2 2z" class="st15"/>
      <path id="pushingBoundaries_172_" d="M266.1 14.5c0 1.1-.9 2-2 2s-2-.9-2-2 .9-2 2-2 2 .9 2 2z" class="st15"/>
      <path id="pushingBoundaries_171_" fill="#414042" d="M338.5 6.9H334c1.9 0 3.5 1.6 3.5 3.5v118.5h4.5V10.4c0-1.9-1.6-3.5-3.5-3.5z" opacity=".2"/>
      <circle id="pushingBoundaries_170_" cx="294.9" cy="61.2" r="2.7" class="st10"/>
      <path id="pushingBoundaries_169_" d="M296.4 61.2c0 .8-.7 1.5-1.5 1.5s-1.5-.7-1.5-1.5.7-1.5 1.5-1.5c.9 0 1.5.7 1.5 1.5z" class="st13"/>
    </g>
    <path fill="#ffc107" d="M342 10.4V8.1c0-.6-.5-1.2-1.2-1.2H321v12.9c0 2.6 2.1 4.6 4.6 4.6h7.8v27.7c0 19.1-6.2 37.6-17.7 52.9v14.9H307.4c-1.2 0-2.2 1-2.2 2.2v4.6c0 1.2 1 2.2 2.2 2.2H342V10.4z" opacity=".3"/>
    <g id="pushingBoundaries_159_">
      <path id="pushingBoundaries_167_" d="M318.6 105H401v20.8h-82.4z" class="st13"/>
      <path id="pushingBoundaries_166_" d="M401 105h-82.4c11.5-15.2 17.7-33.8 17.7-52.9V19.9h46.9v32.2c.1 19.1 6.3 37.7 17.8 52.9z" class="st18"/>
      <path id="pushingBoundaries_165_" fill="#9496a4" d="M327.5 105h11.8v20.8h-11.8z"/>
      <path id="pushingBoundaries_164_" fill="#f7c66f" d="M351.1 20h-5.9v32.2c0 19.1-6.2 37.6-17.7 52.9h11.8c11.5-15.2 11.8-33.8 11.8-52.9V20z"/>
      <path id="pushingBoundaries_163_" fill="#231f20" d="M336.3 20h46.9v8.8h-46.9z" opacity=".3"/>
      <path id="pushingBoundaries_162_" d="M380.4-21.1v10.8h-13.5v-10.8c0-1-.8-1.9-1.9-1.9h-12c-1 0-1.9.8-1.9 1.9v10.8h-13.5v-10.8c0-1-.8-1.9-1.9-1.9h-9.9c-1 0-1.9.8-1.9 1.9v40.8c0 2.6 2.1 4.6 4.6 4.6h60.8c2.6 0 4.6-2.1 4.6-4.6v-40.8c0-1-.8-1.9-1.9-1.9h-9.9c-.9.1-1.7.9-1.7 1.9z" class="st18"/>
      <path id="pushingBoundaries_161_" fill="#d69d0f" d="M409.2 128.9h-98.7c-1.2 0-2.2-1-2.2-2.2v-4.5c0-1.2 1-2.2 2.2-2.2h98.7c1.2 0 2.2 1 2.2 2.2v4.5c0 1.2-1 2.2-2.2 2.2z"/>
      <path id="pushingBoundaries_160_" d="M409.2 119.9h-98.8c-1.2 0-2.2 1-2.2 2.2v2.5h103.2v-2.5c0-1.2-1-2.2-2.2-2.2z" class="st18"/>
    </g>
    <g id="pushingBoundaries_155_">
      <path id="pushingBoundaries_158_" d="M299.6 107h-44c-.3 0-.5-.2-.5-.5V95.8c0-.3.2-.5.5-.5h44c.3 0 .5.2.5.5v10.7c0 .3-.3.5-.5.5z" class="st23"/>
      <path d="M299.4 105.3h-43.6c-.2 0-.5 0-.7-.1v1.4c0 .2.2.4.4.4h44.1c.2 0 .4-.2.4-.4v-1.4c-.1 0-.4.1-.6.1z" class="st24"/>
      <path id="pushingBoundaries_157_" d="M278.6 95.3h10.7V107h-10.7z" class="st25"/>
      <path id="pushingBoundaries_156_" d="M291.3 95.3h2.8V107h-2.8z" class="st25"/>
    </g>
    <g id="pushingBoundaries_151_">
      <path id="pushingBoundaries_154_" d="M297 117.9h-44c-.3 0-.5-.2-.5-.5v-10.7c0-.3.2-.5.5-.5h44c.3 0 .5.2.5.5v10.7c0 .3-.3.5-.5.5z" class="st23"/>
      <path d="M296.8 116.2h-43.6c-.2 0-.5 0-.7-.1v1.4c0 .2.2.4.4.4H297c.2 0 .4-.2.4-.4v-1.4c-.1.1-.4.1-.6.1z" class="st24"/>
      <path id="pushingBoundaries_153_" d="M276 106.3h10.7V118H276z" class="st25"/>
      <path id="pushingBoundaries_152_" d="M288.7 106.2h2.8v11.7h-2.8z" class="st25"/>
    </g>
    <g id="pushingBoundaries_810_">
      <path id="pushingBoundaries_814_" d="M294.8 128.9h-44c-.3 0-.5-.2-.5-.5v-10.7c0-.3.2-.5.5-.5h44c.3 0 .5.2.5.5v10.7c0 .3-.2.5-.5.5z" class="st23"/>
      <path d="M294.6 127.2H251c-.2 0-.5 0-.7-.1v1.4c0 .2.2.4.4.4h44.1c.2 0 .4-.2.4-.4v-1.4c-.1 0-.3.1-.6.1z" class="st24"/>
      <path id="pushingBoundaries_812_" d="M273.9 117.2h10.7v11.7h-10.7z" class="st25"/>
      <path id="pushingBoundaries_811_" d="M286.5 117.2h2.8v11.7h-2.8z" class="st25"/>
    </g>
    <path id="pushingBoundaries_147_" d="M303 45.8l-12 6.9c-.8.5-1.8-.1-1.8-1.1V37.7c0-.9 1-1.5 1.8-1.1l12 6.9c.9.7.9 1.8 0 2.3z" class="st10"/>
    <path d="M239.7 3.2c-11.6 0-21 9.4-21 21s9.4 21 21 21 21-9.4 21-21-9.4-21-21-21z" class="st26"/>
    <g id="pushingBoundaries_138_">
      <path id="pushingBoundaries_146_" d="M257.7 24.2c0 11.6-9.4 21-21 21s-21-9.4-21-21 9.4-21 21-21 21 9.4 21 21z" class="st23"/>
      <path id="pushingBoundaries_145_" d="M255.4 24.2c0 10.3-8.4 18.7-18.7 18.7S218 34.5 218 24.2s8.4-18.7 18.7-18.7 18.7 8.4 18.7 18.7z" class="st3"/>
      <path id="pushingBoundaries_144_" d="M253.2 24.2c0 9.1-7.4 16.5-16.5 16.5s-16.5-7.4-16.5-16.5 7.4-16.5 16.5-16.5 16.5 7.4 16.5 16.5z" class="st23"/>
      <g id="pushingBoundaries_139_">
        <g id="pushingBoundaries_142_">
          <path id="pushingBoundaries_143_" d="M238.8 32.7h-6.1c-1.4 0-2.6-1.1-2.6-2.6v-1.3h3.6v.2h5c1 0 1.8-.8 1.8-1.8 0-.6-.5-1.1-1.1-1.1h-4.5c-2.6 0-4.8-2.1-4.8-4.8v-.7c0-3 2.4-5.4 5.4-5.4h6.1c1.4 0 2.6 1.1 2.6 2.6v1.5h-3.6v-.4h-5c-1 0-1.8.8-1.8 1.8v.7c0 .6.5 1.1 1.1 1.1h4.5c2.6 0 4.8 2.1 4.8 4.8 0 2.9-2.4 5.4-5.4 5.4z" class="st8"/>
        </g>
        <g id="pushingBoundaries_140_">
          <path id="pushingBoundaries_141_" d="M235.4 13.5h3.6v21.4h-3.6z" class="st8"/>
        </g>
      </g>
    </g>
    <path d="M295.3 128.4v-10.5h1.6c.2 0 .4-.2.4-.4V107h2.1c.2 0 .4-.2.4-.4V99.3h-9.1c-.2 0-.4.2-.4.4v2.1c0 .3.2.5.5.5h.4v7.2c0 .1 0 .2.1.4.1.3.3.6.5.8l.2.2 3 2.3c.4.3.4.8 0 1.1l-3 2.3c-.4.3-.7.9-.7 1.4v7.7h-.4c-.3 0-.5.2-.5.5v2.1c0 .2.2.4.4.4h3.8c.5.2.7 0 .7-.3z" class="st26"/>
    <g id="pushingBoundaries_12_">
      <g id="pushingBoundaries_95_">
        <path id="pushingBoundaries_137_" fill="#fdfdfe" d="M334.4 128.9h-25.9c-3.1 0-5.6-2.5-5.6-5.6V97.4c0-3.1 2.5-5.6 5.6-5.6h25.9c3.1 0 5.6 2.5 5.6 5.6v25.9c0 3.1-2.5 5.6-5.6 5.6z"/>
        <path id="pushingBoundaries_136_" d="M334.6 91.7h-26.3c-3 0-5.5 2.4-5.5 5.5v5.7H340v-5.7c0-3.1-2.4-5.5-5.4-5.5z" class="st10"/>
        <g id="pushingBoundaries_130_">
          <path id="pushingBoundaries_135_" d="M328.4 96.9c0 1.6-1.3 2.8-2.8 2.8-1.6 0-2.8-1.3-2.8-2.8 0-1.6 1.3-2.8 2.8-2.8 1.6 0 2.8 1.3 2.8 2.8z" class="st28"/>
          <path id="pushingBoundaries_131_" d="M327.5 96.9c0 1.1-.9 1.9-1.9 1.9-1.1 0-1.9-.9-1.9-1.9 0-1.1.9-1.9 1.9-1.9 1.1 0 1.9.9 1.9 1.9z" class="st29"/>
        </g>
        <g id="pushingBoundaries_127_">
          <path id="pushingBoundaries_129_" d="M311.3 96.9c0 1.6-1.3 2.8-2.8 2.8-1.6 0-2.8-1.3-2.8-2.8 0-1.6 1.3-2.8 2.8-2.8s2.8 1.3 2.8 2.8z" class="st28"/>
          <path id="pushingBoundaries_128_" d="M310.4 96.9c0 1.1-.9 1.9-1.9 1.9-1.1 0-1.9-.9-1.9-1.9 0-1.1.9-1.9 1.9-1.9s1.9.9 1.9 1.9z" class="st29"/>
        </g>
        <g id="pushingBoundaries_125_">
          <path id="pushingBoundaries_126_" d="M325.5 97.6c-.8 0-1.5-.7-1.5-1.5V91c0-2.7 2-5.1 4.6-5.3 3.1-.3 5.6 2.1 5.6 5.1v.9h-3v-.8c0-1.1-.8-2.1-1.9-2.2-1.3-.1-2.3.9-2.3 2.1v5.4c0 .7-.6 1.4-1.5 1.4z" class="st8"/>
        </g>
        <g id="pushingBoundaries_123_">
          <path id="pushingBoundaries_124_" d="M308.4 97.6c-.8 0-1.5-.7-1.5-1.5V91c0-2.7 2-5.1 4.6-5.3 3.1-.3 5.6 2.1 5.6 5.1v.9h-3v-.8c0-1.1-.8-2.1-1.9-2.2-1.3-.1-2.3.9-2.3 2.1v5.4c0 .7-.7 1.4-1.5 1.4z" class="st8"/>
        </g>
        <path id="pushingBoundaries_114_" fill="#8c98a4" d="M334.6 91.7h-2.8c3 0 5.5 2.4 5.5 5.5v26.3c0 3-2.4 5.5-5.5 5.5h2.7c3 0 5.5-2.4 5.5-5.5V97.2c0-3.1-2.4-5.5-5.4-5.5z" opacity=".3"/>
        <path id="pushingBoundaries_113_" d="M321.7 109.3h-2.8c-.3 0-.5-.2-.5-.5V106c0-.3.2-.5.5-.5h2.8c.3 0 .5.2.5.5v2.8c0 .3-.2.5-.5.5z" class="st11"/>
        <path id="pushingBoundaries_112_" d="M327.8 109.3H325c-.3 0-.5-.2-.5-.5V106c0-.3.2-.5.5-.5h2.8c.3 0 .5.2.5.5v2.8c0 .3-.2.5-.5.5z" class="st11"/>
        <path id="pushingBoundaries_111_" d="M333.9 109.3h-2.8c-.3 0-.5-.2-.5-.5V106c0-.3.2-.5.5-.5h2.8c.3 0 .5.2.5.5v2.8c0 .3-.2.5-.5.5z" class="st11"/>
        <path id="pushingBoundaries_109_" d="M309.5 114.8h-2.8c-.3 0-.5-.2-.5-.5v-2.8c0-.3.2-.5.5-.5h2.8c.3 0 .5.2.5.5v2.8c0 .3-.2.5-.5.5z" class="st11"/>
        <path id="pushingBoundaries_78_" d="M315.6 114.8h-2.8c-.3 0-.5-.2-.5-.5v-2.8c0-.3.2-.5.5-.5h2.8c.3 0 .5.2.5.5v2.8c0 .3-.2.5-.5.5z" class="st11"/>
        <path id="pushingBoundaries_106_" d="M321.7 114.8h-2.8c-.3 0-.5-.2-.5-.5v-2.8c0-.3.2-.5.5-.5h2.8c.3 0 .5.2.5.5v2.8c0 .3-.2.5-.5.5z" class="st11"/>
        <path id="pushingBoundaries_74_" d="M327.8 114.8H325c-.3 0-.5-.2-.5-.5v-2.8c0-.3.2-.5.5-.5h2.8c.3 0 .5.2.5.5v2.8c0 .3-.2.5-.5.5z" class="st11"/>
        <path id="pushingBoundaries_104_" d="M333.9 114.8h-2.8c-.3 0-.5-.2-.5-.5v-2.8c0-.3.2-.5.5-.5h2.8c.3 0 .5.2.5.5v2.8c0 .3-.2.5-.5.5z" class="st11"/>
        <path id="pushingBoundaries_73_" d="M309.5 120.3h-2.8c-.3 0-.5-.2-.5-.5V117c0-.3.2-.5.5-.5h2.8c.3 0 .5.2.5.5v2.8c0 .3-.2.5-.5.5z" class="st11"/>
        <path id="pushingBoundaries_102_" d="M315.6 120.3h-2.8c-.3 0-.5-.2-.5-.5V117c0-.3.2-.5.5-.5h2.8c.3 0 .5.2.5.5v2.8c0 .3-.2.5-.5.5z" class="st11"/>
        <path id="pushingBoundaries_101_" d="M321.7 120.3h-2.8c-.3 0-.5-.2-.5-.5V117c0-.3.2-.5.5-.5h2.8c.3 0 .5.2.5.5v2.8c0 .3-.2.5-.5.5z" class="st11"/>
        <path id="pushingBoundaries_100_" d="M327.8 120.3H325c-.3 0-.5-.2-.5-.5V117c0-.3.2-.5.5-.5h2.8c.3 0 .5.2.5.5v2.8c0 .3-.2.5-.5.5z" class="st11"/>
        <path id="pushingBoundaries_99_" d="M333.9 120.3h-2.8c-.3 0-.5-.2-.5-.5V117c0-.3.2-.5.5-.5h2.8c.3 0 .5.2.5.5v2.8c0 .3-.2.5-.5.5z" class="st11"/>
        <path id="pushingBoundaries_98_" d="M309.5 125.8h-2.8c-.3 0-.5-.2-.5-.5v-2.8c0-.3.2-.5.5-.5h2.8c.3 0 .5.2.5.5v2.8c0 .3-.2.5-.5.5z" class="st11"/>
        <path id="pushingBoundaries_97_" d="M315.6 125.8h-2.8c-.3 0-.5-.2-.5-.5v-2.8c0-.3.2-.5.5-.5h2.8c.3 0 .5.2.5.5v2.8c0 .3-.2.5-.5.5z" class="st11"/>
        <path id="pushingBoundaries_96_" d="M321.7 125.8h-2.8c-.3 0-.5-.2-.5-.5v-2.8c0-.3.2-.5.5-.5h2.8c.3 0 .5.2.5.5v2.8c0 .3-.2.5-.5.5z" class="st11"/>
      </g>
      <g id="pushingBoundaries_93_" class="st31">
        <path id="pushingBoundaries_94_" d="M309.6 128.5v-2c0-.3-.3-.6-.6-.6h-.2v-7.7c0-.4-.2-.8-.4-1.1l-.3-.3-3-2.3c-.1-.1-.2-.2-.2-.3s-.1-.2-.1-.3c0-.2.1-.4.3-.5l3-2.3.3-.3c.1-.1.2-.2.2-.4.1-.3.2-.5.2-.8v-7.2h.2c.3 0 .6-.3.6-.6V99.8c0-.2-.2-.4-.4-.4h-6.4v24.5c0 2.8 2.3 5.1 5.1 5.1h1.3c.2-.1.4-.3.4-.5z" class="st32"/>
      </g>
      <g id="pushingBoundaries_13_">
        <g id="pushingBoundaries_3_">
          <g id="pushingBoundaries_72_">
            <path id="pushingBoundaries_92_" fill="#fbfcfd" d="M294 127v-8.9c0-.5.3-1.1.7-1.4l3-2.3c.4-.3.4-.8 0-1.1l-3-2.3c-.4-.3-.7-.9-.7-1.4v-8.5h13.5v8.5c0 .5-.3 1.1-.7 1.4l-3 2.3c-.4.3-.4.8 0 1.1l3 2.3c.4.3.7.9.7 1.4v8.9H294z"/>
          </g>
          <g id="pushingBoundaries_70_">
            <path id="pushingBoundaries_71_" fill="#eceff6" d="M296.2 116.7l3-2.3c.4-.3.4-.8 0-1.1l-3-2.3c-.4-.3-.7-.9-.7-1.4v-8.5H294v8.5c0 .5.3 1.1.7 1.4l3 2.3c.4.3.4.8 0 1.1l-3 2.3c-.4.3-.7.9-.7 1.4v8.9h1.5v-8.9c0-.4.3-1.1.7-1.4z"/>
          </g>
          <g id="pushingBoundaries_68_" opacity=".39">
            <path id="pushingBoundaries_69_" fill="#f9fafc" d="M306.8 111c.4-.3.7-.9.7-1.4v-8.5h-1.8v8.5c0 .5-.3 1.1-.7 1.4l-3 2.3c-.4.3-.4.8 0 1.1l3 2.3c.4.3.7.9.7 1.4v8.9h1.8v-8.9c0-.5-.3-1.1-.7-1.4l-3-2.3c-.4-.3-.4-.8 0-1.1l3-2.3z"/>
          </g>
          <g id="pushingBoundaries_62_">
            <path id="pushingBoundaries_63_" d="M295.5 126.1h10.3v-4c0-.8-.5-1.6-1.2-2l-3-1.5c-.7-.4-1.5-.3-2.2 0l-2.7 1.5c-.7.4-1.2 1.2-1.2 2v4z" class="st23"/>
          </g>
          <g id="pushingBoundaries_60_" class="st31">
            <path id="pushingBoundaries_61_" d="M294 101.1h13.5v2.2H294z" class="st32"/>
          </g>
          <g id="pushingBoundaries_81_">
            <path id="pushingBoundaries_82_" d="M307.8 102.3h-14.2c-.3 0-.5-.2-.5-.5v-2c0-.3.2-.5.5-.5h14.2c.3 0 .5.2.5.5v2c0 .3-.2.5-.5.5z" class="st37"/>
          </g>
          <g id="pushingBoundaries_54_">
            <path id="pushingBoundaries_59_" fill="#797ba5" d="M307.9 99.2h-14.5c-.2 0-.4.2-.4.4v.6h15.2v-.6c.1-.2-.1-.4-.3-.4z"/>
          </g>
          <g id="pushingBoundaries_50_" class="st31">
            <path id="pushingBoundaries_51_" d="M294 124.9h13.5v2H294z" class="st32"/>
          </g>
          <g id="pushingBoundaries_10_">
            <path id="pushingBoundaries_11_" d="M307.9 128.9h-14.2c-.3 0-.5-.2-.5-.5v-2c0-.3.2-.5.5-.5h14.2c.3 0 .5.2.5.5v2c0 .3-.3.5-.5.5z" class="st37"/>
          </g>
          <g id="pushingBoundaries_8_">
            <path id="pushingBoundaries_9_" fill="#41446b" d="M293.1 127.9v.6c0 .2.2.4.4.4H308c.2 0 .4-.2.4-.4v-.6h-15.3z"/>
          </g>
          <g id="pushingBoundaries_6_">
            <path id="pushingBoundaries_7_" d="M300.6 116.4h-.3c-.3 0-.5-.2-.5-.5v-1c0-.3.2-.5.5-.5h.3c.3 0 .5.2.5.5v1c0 .3-.2.5-.5.5z" class="st23"/>
          </g>
          <g id="pushingBoundaries_4_">
            <path id="pushingBoundaries_5_" d="M300.6 108.7c-2 0-3.8-.8-5.1-2.2v2c0 .9.5 1.7 1.2 2.1l2.5 1.4c.3.2.5.5.5.9v.6c0 .3.3.6.6.6s.6-.3.6-.6v-.6c0-.4.2-.8.6-.9l2.8-1.4c.8-.4 1.3-1.3 1.3-2.2v-2.1c-1.1 1.5-2.9 2.4-5 2.4z" class="st23"/>
          </g>
        </g>
        <g id="pushingBoundaries_14_">
          <g id="pushingBoundaries_31_">
            <path id="pushingBoundaries_32_" d="M314.4 113.6h-.8c-.2 0-.4-.2-.4-.4s.2-.4.4-.4h.8c.2 0 .4.2.4.4s-.1.4-.4.4z" class="st28"/>
          </g>
          <g id="pushingBoundaries_1_">
            <path id="pushingBoundaries_2_" d="M314.9 116.3h-.1l-1.6-.4c-.2-.1-.3-.3-.3-.5.1-.2.3-.3.5-.3l1.6.4c.2.1.3.3.3.5-.1.2-.2.3-.4.3z" class="st28"/>
          </g>
          <g id="pushingBoundaries_27_">
            <path id="pushingBoundaries_28_" d="M313.1 118.5c-.1 0-.1 0-.2-.1l-.7-.4c-.2-.1-.3-.3-.1-.5.1-.2.3-.3.5-.1l.7.4c.2.1.3.3.1.5 0 .1-.2.2-.3.2z" class="st28"/>
          </g>
          <g id="pushingBoundaries_25_">
            <path id="pushingBoundaries_26_" d="M312.1 121.2c-.1 0-.2 0-.3-.1l-1.2-1.2c-.2-.2-.2-.4 0-.6.2-.2.4-.2.6 0l1.2 1.2c.2.2.2.4 0 .6-.1 0-.2.1-.3.1z" class="st28"/>
          </g>
          <g id="pushingBoundaries_23_">
            <path id="pushingBoundaries_24_" d="M309.5 122.1c-.1 0-.3-.1-.3-.2l-.4-.7c-.1-.2 0-.4.1-.5.2-.1.4 0 .5.1l.4.7c.1.2 0 .4-.1.5-.1.1-.1.1-.2.1z" class="st28"/>
          </g>
          <g id="pushingBoundaries_21_">
            <path id="pushingBoundaries_22_" d="M309.1 105.7c-.1 0-.1 0-.2-.1-.2-.1-.3-.3-.1-.5l.4-.7c.1-.2.3-.3.5-.1.2.1.3.3.1.5l-.4.7c-.1.2-.2.2-.3.2z" class="st28"/>
          </g>
          <g id="pushingBoundaries_19_">
            <path id="pushingBoundaries_20_" d="M311 107.2c-.1 0-.2 0-.3-.1-.2-.2-.2-.4 0-.6l1.2-1.2c.2-.2.4-.2.6 0s.2.4 0 .6l-1.2 1.2c-.1 0-.2.1-.3.1z" class="st28"/>
          </g>
          <g id="pushingBoundaries_17_">
            <path id="pushingBoundaries_18_" d="M312.4 109c-.1 0-.3-.1-.3-.2-.1-.2 0-.4.1-.5l.7-.4c.2-.1.4 0 .5.1.1.2 0 .4-.1.5l-.7.4c-.1.1-.1.1-.2.1z" class="st28"/>
          </g>
          <g id="pushingBoundaries_15_">
            <path id="pushingBoundaries_16_" d="M313.3 111.2c-.2 0-.3-.1-.4-.3-.1-.2.1-.4.3-.5l1.6-.4c.2-.1.4.1.5.3s-.1.4-.3.5l-1.6.4h-.1z" class="st28"/>
          </g>
        </g>
      </g>
    </g>
  </g>
  <g>
    <path d="M424.7 22.8h7.5v12.3h-7.5z" class="st40" transform="rotate(138.694 428.455 28.933)"/>
    <path d="M431.3 26.4l-3.7 7.1-6-6.7 5.6-5z" class="st26"/>
    <path d="M430.8 25.8l-7.2 6.3c-2.2 1.9-5.6 1.7-7.5-.5l-2.4-2.8-1.7.9-.5-5.5c-1.8-.1-3.4-1.1-4.3-2.7l1.3-1.5 5.8-5.1c2.2-1.9 5.5-1.7 7.4.5l9.1 10.4z" class="st41"/>
    <path d="M453.6 113.8l1.8 4.3-3.1 5H463v-3.9l-3.2-6.1zM514.1 113.5l3.2 2.9-.5 5.3 8.8-4.4-1.5-3.1-5.1-3.8z" class="st40"/>
    <path d="M457.1 62.7l-19.3 19.4c-.9.9-1.1 2.2-.5 3.3l16.1 31.5 7.8-1.9s-7.2-23.5-11.1-29.3l23.8-15.3-16.8-7.7z" class="st42"/>
    <path d="M457.1 62.7l-3.1 3.2-2 18.6 21.8-14.1z" class="st26"/>
    <path d="M472.3 51.9s7.2 2 10.2 6.9l4 9.5L502 87.4s9.6 4.8 19.9 23.3l-6.4 5.7L495 95.9l-26.4-22.6-10.7-6.2 14.4-15.2z" class="st42"/>
    <path d="M429.5 32.6l-14 7-25.7 1-3.8-5-3-10.2c-.6 1-.9 2.1-.8 3.3l.7 5.5 1 6.3 2.5 4.1 30.5 2 13.6-5-1-9z" class="st40"/>
    <path d="M458.3 66.7c1 .9 1.6 1.4 1.6 1.5 10.2-.9 14.3-10.4 15.7-15-1.9-.9-3.4-1.3-3.4-1.3l-13.9 14.8z" class="st26"/>
    <path d="M432.1 27.2s6.7-2.7 12.3 1.3c0 0 21.8 20.5 29.3 22.2 0 0-2.8 16.3-16.3 17.5 0 0-5-5-14.5-10.3 0 0-12.8-6.2-16.7-22.3l5.9-8.4z" class="st13"/>
    <path d="M462.2 120.4l-1.6 1.7-4.7.1-2.5-3-4.4 4.6-9.7.7v2.4l1.8 1.5H464v-8.1zM517 117.5l-1.7 4.5-2.1 2.4-4.3 1.6v2.1l2.4.8h9l8-8.8-4-6.3-1.2 1v1.8l-2.8 2.3z" class="st23"/>
    <path d="M416.8 46.7l10.2-3.8-2.4-6.1-7.7 2.1-1.4.7-25.7 1-.8-1h-2.2l-3.8-5-.2-.9v.5l1 6.4 2.1 3.4 12.9 1.5zM435.7 33.2l-9.1 3.6c1.3 4.8 3.4 8.6 5.6 11.7l6.9-7.9c2.4-1 2.6-2.2 1.7-4.6h1c-.9-2.6-3.7-3.8-6.1-2.8z" class="st26"/>
    <path d="M439.2 41l-11.5 4.5-3.5-8.8 11.5-4.5c2.4-1 5.2.2 6.1 2.7 1 2.4-.2 5.1-2.6 6.1z" class="st13"/>
    <path d="M424.6 37.8l-10.3 2.8h-27.5l-3.8-5-3-10.2c-.6 1-.9 2.1-.8 3.3l.7 5.5.9 5.9c0 .3.2.6.3.9l2.3 3.7 31.7 3.8 12.3-3.8-2.8-6.9z" class="st40"/>
    <path d="M463.9 127.1l-10.8-4h10.8zM527.8 119.3l-2.8 3-8.2-.2 6.2-2.8 2.9-3z" class="st43"/>
    <linearGradient id="SVGID_1_" x1="405.774" x2="432.4" y1="752.534" y2="752.534" gradientTransform="translate(0 -735.2)" gradientUnits="userSpaceOnUse">
      <stop offset="0" stop-color="#ffc107"/>
      <stop offset="1" stop-color="#dc735c"/>
    </linearGradient>
    <path fill="url(#SVGID_1_)" d="M430.3 17.8c-.2-.2-.4-.5-.5-.7-.7-1-1.2-1.8-1.6-2.9-.2-.6-.4-1.2-.8-1.6-1.3-1.4-3.9-2-5.7-2.4-2.4-.4-4.8-1.9-7.1-1.1-.7.3-1.3.7-2 1.2-1.4 1-2.9 1.9-3.8 3.4-.4.6-.5 1.2-1.1 1.6-.5.4-1.2.6-1.5 1.2-.8 1.2-.3 2.7.1 4 .4 1.2.9 2.5 1.3 3.7.9-.5 1.2-1.5 1.7-2.3.8-1.2 3.7-3.3 5.2-2.7 1 .4 1.3 1.6 2 2.3.8.8 2.1 1.1 2.7 2.1.4.6.5 1.6 1.2 1.8-.3-.1-.4-2.1-.4-2.4 0-.8-.2-1.4-.3-2.2-.1-.5 0-1 .3-1.3.2-.2.5-.2.7-.4.1-.1.2-.2.3-.2.2-.1.5 0 .7.1 1.3.6 1.3 1.7 1.4 3 .2.1.4-.1.6-.2s.3-.1.5-.1c.9-.1 1.8-.2 2.6.4.9.7 1.3 1.5 1.7 2.5.2.4.5.9 1 1.1.2.1.4.1.6.1h1.2c.2 0 .4-.1.5-.2 1.2-.9-.2-2.6 0-3.7.1-.4.3-.7.6-.9-.4-.3-1.2-.4-1.5-.8-.2-.2 0-1.8.3-1.6-.2-.1-.5-.3-.7-.4 0-.1-.1-.2-.2-.4z"/>
  </g>
  <g>
    <path d="M221.4 38.6l14 6.6c.4 0 .9.1 1.3.1 1.8 0 3.6-.3 5.2-.7h-.7l-1.5-.1 1.4-1.4c.4-.2.5-.7.3-1.1s-.7-.5-1.1-.3l-2.7 1.4-15.7-9.8-4.1-4.6c-.1-.4-.2-.7-.3-.9 0 0-.6-2.8-1.7-6-.1.8-.2 1.6-.2 2.5.1 5.5 2.3 10.6 5.8 14.3.1.1.1 0 0 0z" class="st26"/>
    <path d="M229.7 116.2h3.5v3.9h-3.5z" class="st40"/>
    <path d="M194.2 114.4h3.9v3.5h-3.9z" class="st40" transform="rotate(116.193 196.193 116.133)"/>
    <path d="M204 50.4l5.9 12.8 12.3 18.6 5.6 35.7h7.2l-2.4-33.7-7.4-24.1-1.8-9.3z" class="st45"/>
    <g class="st31">
      <path d="M207.6 58.2l16.8-2.6.8 4 .9 2.8c-1.9 4.9-3.8 11.7-4 19.2l-12.3-18.5-2.2-4.9z" class="st8"/>
    </g>
    <path d="M196.9 2.7h7.4v8.6h-7.4z" class="st40"/>
    <path d="M196.8 7.5l7.5-2.7V2.7h-7.5z" class="st26"/>
    <path d="M205.6 7l-10 2.5v1.9s-3.9 5.2-3.7 7.9c.2 2.7 10.5 30 12 31h19.4s-7.8-20.4-8.3-22.6c0 0-2.4-11-6.6-14.3 0 0-1.3-2.1-2.5-2.8.1.1-1.1-1.2-.3-3.6z" class="st46"/>
    <path fill="#272834" d="M204.5 30.6l5.8-7.5-5.3-4.6c-1.8-1.9-4.8-1.9-6.7-.1-1.9 1.8-1.9 4.8-.1 6.7l6.3 5.5z" opacity=".3"/>
    <path d="M205.3 29.7l5.7-7.5-7-5.4c-1.5-1.2-3.7-.9-4.9.7l-1.5 1.9c-1.2 1.5-.9 3.7.7 4.9l7 5.4z" class="st46"/>
    <path d="M217.4 34.4c.8 2.3 1.8 4.8 2.7 7.2l-4.4-2.1-11.2-9 4.3-5.7 8.6 9.6z" class="st26"/>
    <path d="M235.5 46.4l-18.3-8.6-11.2-9 4.3-5.7 9.1 10.2L236 43.7l-.6.8 3.3.1c1.4.1 5.3-.5 6.8 1.1l-6.7.7h-3.3z" class="st40"/>
    <path d="M204 50.4s-1.2 5.7 0 9.4 2.9 5.9 2.9 5.9l-1.7 18.1-12.8 30.9 6.9 2.1 15-27 10.8-31-1.7-8.5-19.4.1z" class="st45"/>
    <path d="M193.9 4.6h10.7c1.7 0 3-1.4 3-3v-3.5h2.2c.5-3.6-2.9-6.2-3.4-8-.9-2.8 1.2-3.7 1.2-3.7h-13.7V4.6z" class="st41"/>
    <path d="M202.9 49.3h21.4v3h-21.4z" class="st48"/>
    <path d="M236.4 45.3l2.2-2.1c.4-.2.5-.7.3-1.1-.2-.4-.7-.5-1.1-.3l-2.9 1.5c-.4.2-.5.7-.3 1.1.3.2 1.4 1.1 1.8.9z" class="st40"/>
    <path d="M228.4 118.9h6.5l2.7 3h5.5c3.5 0 6.7 2 8.3 5.1h-22.9l-.1-8.1z" class="st28"/>
    <path d="M229.7 122.9c0 1.1.9 2 2 2s2-.9 2-2-.9-2-2-2-2 .9-2 2z" class="st15"/>
    <path d="M227.6 127h24.7v1.9h-24.7z" class="st23"/>
    <path d="M192.5 115.8l6 2.5 1.3 3.8 6.5.1c3.2 1.3 4.1 1.4 4.3 4.9h-12.1l-9.2-3.9 3.2-7.4z" class="st28"/>
    <path d="M192 120c-.4 1 .1 2.2 1.1 2.7 1 .4 2.2-.1 2.7-1.1.4-1-.1-2.2-1.1-2.7-1-.4-2.2.1-2.7 1.1z" class="st15"/>
    <path d="M197.5 126.8H211v1.9h-13.5z" class="st23"/>
    <path d="M192.3 120.8h1.9v10.1h-1.9z" class="st23" transform="scale(-1) rotate(-66.814 -190.823 293.032)"/>
    <path d="M207.7-2c-2.2 0-3.4 1.4-4.9 2.1-.7.3-2.2.7-2.6 0-.6-.9-.1-3.1 0-4.1.1-1 .3-3.5.7-4.3.4-.9 1.3-1.9 2.2-2.3.5-.2 1-.3 1.5-.2.8.1 1.1.4 1.9.1s1.5-1 2-1.7c.3-.4.5-1 .4-1.5-.1-.7-.6-1.2-1.2-1.5-1.4-.8-2.6-.5-4.1 0-.7.2-1.5.3-2-.2-.2-.2-.3-.4-.5-.6-.9-1.1-2.7-1.2-3.7-.3-1 1-1.3 1.7-2.7 2.2-.9.3-2 .7-2.6 1.5-.9 1.4.2 2.1.4 3.4.1.6-.3 1.1-.7 1.6-.6 1-.9 3.7-.7 4.9.1.5.3 1.1.8 1.4 1 .8.9 1.9.9 3.2 0 1-.9 1.5-.9 2.4-.1 1.9 2.8 1.9 3.4.3.8-1.9.1-4.2.2-6.3 0-1.2 1.2-2.6 2.5-1.8.7.5.7 1.3.6 2-.1 1.1-.1 2.2-.1 3.4-.1 1.7-.7 3.9 1.1 5 1.6.9 3 .4 4.7.3.8 0 1.7 0 2.4-.5.9-.6 1.2-1.6 1.6-2.6.2-.7.4-1.4.6-2s.4-1.3.4-2c-.2-.8-.9-1.9-1.6-1.9z" class="st48"/>
  </g>
</svg>