<svg xmlns="http://www.w3.org/2000/svg" id="Layer_2" viewBox="0 0 1024 768">
  <style>
    .st0{fill:#64c5b5}.st2{fill:#fed068}.st3{fill:#e9746c}
  </style>
  <path id="XMLID_9_" d="M636.7 73.8h-9c-.6 0-1-.4-1-1v-9c0-.6.4-1 1-1h9c.6 0 1 .4 1 1v9c0 .5-.5 1-1 1z" class="st0"/>
  <path id="XMLID_11_" fill="#7b98c9" d="M123.6 221.5l-3.9 16.6c-.4 1.7-2.4 2.2-3.7 1L103.8 227c-1.2-1.2-.7-3.2 1-3.6l16.1-4.4c1.6-.6 3 .9 2.7 2.5z"/>
  <path id="XMLID_3_" d="M662.5 268.4l16.6 3.9c1.7.4 2.2 2.4 1 3.7L668 288.2c-1.2 1.2-3.2.7-3.6-1l-4.4-16.1c-.6-1.6.9-3.1 2.5-2.7z" class="st2"/>
  <path id="XMLID_2_" d="M910 252.1c0 4.5-3.7 8.2-8.2 8.2s-8.2-3.7-8.2-8.2c0-4.5 3.7-8.2 8.2-8.2s8.2 3.6 8.2 8.2z" class="st3"/>
  <path id="XMLID_14_" d="M769.7 112.7c-5.5 0-10 4.5-10 10s4.5 10 10 10 10-4.5 10-10-4.5-10-10-10zm0 17c-3.9 0-7-3.1-7-7s3.1-7 7-7 7 3.1 7 7-3.2 7-7 7z" class="st3"/>
  <path id="XMLID_10_" d="M144 96l3.2 3.2c.3.3.3.8 0 1.1l-3.7 3.7 3.7 3.7c.3.3.3.8 0 1.1L144 112c-.3.3-.8.3-1.1 0l-3.7-3.7-3.7 3.7c-.3.3-.8.3-1.1 0l-3.2-3.2c-.3-.3-.3-.8 0-1.1l3.7-3.7-3.7-3.7c-.3-.3-.3-.8 0-1.1l3.2-3.2c.3-.3.8-.3 1.1 0l3.7 3.7L143 96c.3-.2.7-.2 1 0z" class="st2"/>
  <path id="XMLID_16_" d="M309.5 369.2l-9.9-9.9c-1.6-1.6-1.6-4.1 0-5.7l9.9-9.9c1.6-1.6 4.1-1.6 5.7 0l9.9 9.9c1.6 1.6 1.6 4.1 0 5.7l-9.9 9.9c-1.7 1.5-4.2 1.5-5.7 0z" class="st0"/>
</svg>