<svg xmlns="http://www.w3.org/2000/svg" class="injected-svg js-svg-injector" data-parent="#SVGheroSectionBg" viewBox="0 0 446.3 235.7">
  <style>
    .we-have-an-idea-1{fill:#377dff}.we-have-an-idea-2{fill:#f5f7f9}.we-have-an-idea-3{fill:#00c9a7}.we-have-an-idea-4{fill:none;stroke:#1e2022;stroke-miterlimit:10}.we-have-an-idea-5{fill:#00c671}.we-have-an-idea-9{fill:#1e2022}.we-have-an-idea-11{fill:#fff}.we-have-an-idea-12{fill:#e7eaf3}.we-have-an-idea-13{fill:#dfe2ec}.we-have-an-idea-17{fill:#ffc107}.we-have-an-idea-19{fill:#fdd14e}.we-have-an-idea-20{opacity:.3;fill:#233449}.we-have-an-idea-21{opacity:.3;fill:#191c3c}.we-have-an-idea-24{fill:#e2c076}.we-have-an-idea-25{fill:#2d1582}.we-have-an-idea-26{fill:#41359b}.we-have-an-idea-28{opacity:.2;fill:#191c3c}.we-have-an-idea-29{fill:#4d5068}.we-have-an-idea-31{fill:#efdcb4}
  </style>
  <g opacity=".15">
    <ellipse cx="426.5" cy="153.8" class="we-have-an-idea-1 fill-primary" opacity=".4" rx="10.4" ry="10.4"/>
    <path d="M287.7 24.3c0 7.5-6.1 13.5-13.5 13.5-7.5 0-13.5-6.1-13.5-13.5 0-7.5 6.1-13.5 13.5-13.5s13.5 6.1 13.5 13.5zM101.8 41.6c0 3.8-3.1 6.9-6.9 6.9S88 45.4 88 41.6c0-3.8 3.1-6.9 6.9-6.9s6.9 3.1 6.9 6.9zM344.1 54.7c0 3.8-3.1 6.9-6.9 6.9s-6.9-3.1-6.9-6.9c0-3.8 3.1-6.9 6.9-6.9s6.9 3.1 6.9 6.9z" class="we-have-an-idea-1 fill-primary" opacity=".4"/>
    <circle cx="179.8" cy="14.1" r="6.9" class="we-have-an-idea-1 fill-primary" opacity=".4"/>
    <path d="M439.8 184c0 1.6-1.3 2.8-2.8 2.8-1.6 0-2.8-1.3-2.8-2.8 0-1.6 1.3-2.8 2.8-2.8 1.6 0 2.8 1.3 2.8 2.8zM329.9 29.9c0 1.2-1 2.1-2.1 2.1-1.2 0-2.1-1-2.1-2.1s1-2.1 2.1-2.1 2.1.9 2.1 2.1z" class="we-have-an-idea-1 fill-primary" opacity=".4"/>
    <circle cx="122.1" cy="14.1" r="2.8" class="we-have-an-idea-1 fill-primary" opacity=".4"/>
    <path d="M25.9 74.2c0 2-1.6 3.7-3.7 3.7-2 0-3.7-1.6-3.7-3.7 0-2 1.6-3.7 3.7-3.7 2 0 3.7 1.7 3.7 3.7zM433.9 109.1c0 2-1.6 3.7-3.7 3.7-2 0-3.7-1.6-3.7-3.7 0-2 1.6-3.7 3.7-3.7s3.7 1.6 3.7 3.7z" class="we-have-an-idea-1 fill-primary" opacity=".4"/>
    <ellipse cx="58.8" cy="62.7" class="we-have-an-idea-1 fill-primary" opacity=".4" rx="15.6" ry="15.6"/>
    <path d="M12 190.5c0 2-1.6 3.7-3.7 3.7-2 0-3.7-1.6-3.7-3.7s1.6-3.7 3.7-3.7c2 0 3.7 1.6 3.7 3.7z" class="we-have-an-idea-1 fill-primary" opacity=".4"/>
    <circle cx="406.7" cy="54.7" r="15.1" class="we-have-an-idea-1 fill-primary" opacity=".4"/>
    <ellipse cx="12" cy="122.4" class="we-have-an-idea-1 fill-primary" opacity=".4" rx="12" ry="12"/>
    <path d="M424.6 234.6c0-28.2-6-55.1-16.8-79.3 3.9-8.1 6.1-17.1 6.1-26.7 0-34-27.5-61.5-61.5-61.5-6.4 0-12.5 1-18.3 2.8-30.2-19.3-66.1-30.4-104.6-30.4-4.8 0-9.6.2-14.3.5-8.4-6.3-18.9-10.1-30.2-10.1-21.4 0-39.7 13.4-46.9 32.3-14.8 7.9-28.5 17.6-40.7 28.8-4-.9-8.1-1.4-12.4-1.4-30.8 0-55.7 24.9-55.7 55.7 0 13.4 4.7 25.7 12.6 35.3-4.9 17.1-7.6 35.2-7.6 53.9h390.3v.1z" class="we-have-an-idea-1 fill-primary" opacity=".4"/>
    <path d="M370.1 234.1c0-78.3-63.4-141.7-141.7-141.7S86.7 155.8 86.7 234.1h283.4z" class="we-have-an-idea-1 fill-primary" opacity=".4"/>
  </g>
  <path d="M336.6 144c-.1 0-.2.1-.3.1-3 1.4-4.5 1.2-7.4-.2-2.7-1.2-5.2-2.7-7.5-4.6-2.8-2.5-5-5.8-5.4-9.5-.1-.8-.1-1.7.4-2.4.7-.9 2.1-1.1 3.1-.7 1.1.4 1.9 1.2 2.8 2 .4.3.7.7 1.2.8s1 0 1.3-.4c.4-.7-.3-1.5-.9-2-1.4-1.2-2.7-1.8-4.1-2.9-1.8-1.3-3.5-2.9-4.5-4.9s-1.2-4.5-.2-6.5c.3-.6.8-1.2 1.3-1.5 1-.6 2.3-.6 3.5-.4 1.2.3 2.3.7 3.5.8 2.8.3 3.9-1.7 3.9-4.3 0-1.7-.6-3.4-.7-5.2-.2-3.1 1.3-6.4 4.1-7.7 2.8-1.3 6.7-.1 7.7 2.9 1.1 3.2-1.4 6.7.2 9.8.5 1 1.7 2.3 2.7 2.9 1.6 1 3.8-.2 5.6-.1.4 0 .8.1 1.1.4.2.2.3.5.3.8.4 2.2-.4 4.6-2 6.1-1.9 1.7-5.1 2.6-5.9 5.2-.5 1.7-.3 5.8 2.4 5.4 1-.2 1.7-1.1 2.6-1.5 1.2-.4 2.5.4 3 1.5s.4 2.5-.1 3.6c-.7 1.8-2.1 3.3-3.5 4.7-2.6 3.2-4.5 6-8.2 7.8z" class="we-have-an-idea-3"/>
  <path d="M332.7 105.5v64.4M340.2 116.6l-7.5 7.5-7.5-7.5M340.2 131.6l-7.5 7.5-7.5-7.5" class="we-have-an-idea-4"/>
  <path d="M111.4 144.4c-.1.1-.3.1-.4.2-4.2 2-6.4 1.7-10.4-.2-3.7-1.7-7.3-3.8-10.4-6.5-3.9-3.5-6.9-8.1-7.6-13.3-.1-1.2-.1-2.4.6-3.4.9-1.3 2.9-1.5 4.4-.9s2.7 1.7 3.9 2.8c.5.5 1 .9 1.7 1.1s1.5 0 1.8-.6c.5-.9-.4-2-1.2-2.7-1.9-1.6-3.8-2.6-5.8-4-2.6-1.8-4.9-4-6.3-6.8s-1.7-6.3-.3-9c.4-.8 1.1-1.6 1.9-2.1 1.4-.9 3.3-.9 4.9-.5s3.2 1 4.9 1.2c4 .4 5.5-2.4 5.4-6-.1-2.4-.8-4.8-1-7.3-.2-4.3 1.9-8.9 5.8-10.7 3.9-1.8 9.3-.1 10.7 4 1.5 4.4-1.9 9.4.3 13.6.7 1.4 2.4 3.3 3.8 4.1 2.2 1.3 5.3-.2 7.8-.1.6 0 1.2.1 1.6.5.3.3.4.7.5 1.1.6 3.1-.5 6.4-2.8 8.5-2.6 2.4-7.2 3.6-8.3 7.3-.7 2.3-.4 8.1 3.3 7.5 1.4-.2 2.3-1.6 3.6-2 1.6-.6 3.5.5 4.3 2.1.7 1.6.5 3.4-.1 5.1-1 2.5-3 4.6-4.9 6.6-4 4-6.6 7.8-11.7 10.4z" class="we-have-an-idea-3"/>
  <path d="M105.9 90.5v99M116.3 106.1l-10.4 10.4-10.5-10.4M116.3 127.1l-10.4 10.4-10.5-10.4" class="we-have-an-idea-4"/>
  <g>
    <path d="M446.3 234.4h-25c0-2.1-1.7-3.8-3.8-3.8-2.1 0-3.8 1.7-3.8 3.8" class="we-have-an-idea-4"/>
    <path d="M415.5 231.1c0-2.1-1.7-3.8-3.8-3.8-2.1 0-3.8 1.7-3.8 3.8" class="we-have-an-idea-4"/>
  </g>
  <g>
    <path d="M15.2 234.4h25c0-2.1 1.7-3.8 3.8-3.8s3.8 1.7 3.8 3.8" class="we-have-an-idea-4"/>
    <path d="M46 231.1c0-2.1 1.7-3.8 3.8-3.8s3.8 1.7 3.8 3.8" class="we-have-an-idea-4"/>
  </g>
  <g>
    <path d="M373.7 234.3s0 .1 0 0c.7.4 0 0 0 0zm-9.1-4.5c-1.4 1.5-3.1 3.3-2.5 3.6 2 1.2 9.2 1.1 11.7.9 17 .8 34.2-6 45.8-18.4-8-5.5-18.7-6.4-28.1-3.7s-17.6 8.6-24.3 15.6c-.5.6-2.2 1.6-2.6 2z" class="we-have-an-idea-5"/>
    <path fill="#05331e" d="M364.6 229.8c.5-.5 2.1-1.4 2.6-1.9 6.8-7 15-12.9 24.3-15.6 4.5-1.3 9.3-1.8 14-1.3-5.4.2-10.8 1.6-15.5 4-8.5 4.3-15.3 11.4-20.5 19.4-2.9 0-6.1-.3-7.3-1-.7-.3 1-2.1 2.4-3.6z" opacity=".2"/>
    <path d="M365.9 201.6c3.2-2.9 7.5-4.4 11.6-5.6 6.4-1.8 13-3.1 19.6-3.7-3.6 8-6.2 16-12.7 21.9-2.6 2.3-6.8 4.6-9.5 6.8-3.2 2.6-8.3 9.3-10.9 12.6-3 .6-5.3-3.7-6.6-6.7-1.7-3.8.2-9.6 1.5-13.5 1.6-4.5 3.6-8.8 7-11.8z" class="we-have-an-idea-5"/>
    <path fill="#f5f7f9" d="M373.2 221.1c2.3-2.6 6-5.6 8.2-8.3 4.5-5.8 6-12.5 7.6-19.4 2.7-.5 5.4-.8 8.1-1.1-3.6 8-6.2 16-12.7 21.9-2.6 2.3-6.8 4.6-9.5 6.8-1.6 1.2-3.5 3.4-5.5 5.7 1.4-2.3 2.7-4.3 3.8-5.6z" opacity=".08"/>
    <path d="M365 180c1.5 7.4 2.9 15 1.6 22.4-.5 3-1.5 5.9-2.4 8.8-1.1 3.8-1.7 6.1-2.7 9.9.8-.5-.8 1.8-1.6 3.1-.9 1.4-2.2 3.2-3.2 1.7-1.2-1.7-2.5-3.6-3-5.6-.6-2.4 0-6.4 0-8.9-.1-6.5-.1-13.1 2.1-19.2 1.8-4.7 5-9.1 9.2-12.2z" class="we-have-an-idea-5"/>
    <path d="M414.8 217.3c-8.4-.3-16.7 0-24.9 2.3-7.7 2.2-14.7 5.8-21.1 10.7-.3.3-.7-.3-.3-.6 6.4-4.8 13.6-8.5 21.3-10.6 8.3-2.3 16.5-2.5 25-2 .1 0 .1.2 0 .2zM394.4 194.7c-6.8 3.2-13 7.4-18.4 12.7-5.8 5.7-9.7 12.5-14 19.2-.1.2-.4 0-.3-.2 7.4-13.9 17.9-25.7 32.7-31.9 0 0 .1.2 0 .2zM364.6 182.9c-4.4 13.2-9.6 25.8-6.6 40 .1.3-.4.4-.5.1-2.8-13.5 1.3-27.9 6.9-40.2.1 0 .2.1.2.1z" class="we-have-an-idea-9"/>
    <path d="M408.7 222c-.9-.9-1.8-1.9-2.8-2.7s-2.2-1.3-3.3-2c-.1 0 0-.2.1-.2 2.3.9 4.7 2.8 6 4.9.1 0 0 .1 0 0zM401.9 225.4c-2.4-4.3-5.8-5.5-10.4-6.1-.4 0-.3-.5.1-.5 4.3.6 8.7 1.9 10.3 6.6.1 0 0 0 0 0zM393.5 225.9c-2.7-2.1-5.5-5.3-9.3-4.3-.2.1-.3-.2-.1-.3 3.8-1 6.9 2.1 9.5 4.5 0 .1-.1.2-.1.1zM385.2 230.4c-2.5-3.2-6.2-6.1-10.4-3.9-.2.1-.5-.2-.2-.4 4.2-2.2 8.5.6 10.6 4.3.1 0 0 0 0 0zM404.5 212c-.6 2.7-2.9 4.3-5.1 5.8-.2.1-.3-.2-.1-.3 2.2-1.4 4.3-2.9 5-5.6.1-.1.2-.1.2.1z" class="we-have-an-idea-9"/>
    <path d="M395.6 212.5c-1 2.6-2.7 4.9-4.7 6.8-.2.2-.4-.1-.2-.2 2-1.9 3.5-4.1 4.9-6.6-.1 0 0 0 0 0zM388 215.5c-.5 1.3-1.1 2.4-1.9 3.5-.6.8-1.6 2.3-2.5 2.6-.1 0-.2 0-.2-.1l-.1-.1c-.1-.1-.1-.3 0-.4 0 0 .1 0 .1-.1h.3l.1.1c.1.1.1.2-.1.2-.3 0 1-1.4 1-1.4.4-.4.8-.8 1.1-1.3.8-1 1.5-2.1 2.1-3.2.1.1.2.2.1.2zM381.7 218.7c-1.7 2.8-4.2 5.3-6.8 7.3-.3.2-.7-.2-.4-.4 2.7-2.1 4.8-4.5 7-7.1.1 0 .3.1.2.2zM390.5 203.6c-4.7-.3-8.7-.1-12.9 2.5-.3.2-.5-.3-.3-.4 3.7-2.4 8.9-3.8 13.2-2.3.1 0 .1.2 0 .2zM383.1 211.5c-2.3 0-4.4-.1-6.7.5-2 .5-3.9 1.2-5.9 1.9-.3.1-.4-.3-.1-.4 3.9-1.5 8.4-3.2 12.7-2.1.1 0 .1.1 0 .1zM374.4 218.3c-1.6.1-3.2.2-4.7.5-1.8.3-3 1.2-4.2 2.6-.2.2-.5-.1-.3-.3 1.1-1.3 2.2-2.2 3.9-2.6 1.7-.4 3.5-.5 5.3-.4.1 0 .1.2 0 .2z" class="we-have-an-idea-9"/>
    <path d="M380.8 198.2c-.1 1.7-1 3.4-1.7 4.9-.4 1-.8 2.7-2.1 2.9-.1 0-.2-.1-.1-.2 2.2-1.8 2.3-5.3 3.7-7.7.1 0 .2 0 .2.1zM373.8 200.3c-.4 4.7-1.9 9.3-3.5 13.7-.1.2-.4.1-.3-.1 1.7-4.5 2.7-9 3.8-13.6-.2-.1 0-.1 0 0zM366.2 210.1c0 4-1 8-1.6 11.9 0 .3-.5.2-.5-.1.7-3.9 1.3-7.9 1.9-11.8 0-.1.2-.1.2 0zM366 190.4c-2.8 3.2-5.1 6.6-6.9 10.4-.1.3-.6 0-.5-.3 1.8-3.9 4.1-7.4 7.2-10.4.1-.1.3.1.2.3z" class="we-have-an-idea-9"/>
    <path d="M356.9 191.1c1.3 3 1.6 6.9 1.8 10.1 0 .3-.4.3-.5 0-.1-1.9-.3-3.7-.6-5.6-.3-1.5-.7-3-.9-4.5 0-.1.1-.1.2 0zM362 202.5c-2.1 3.3-3.4 6.5-4.9 10.1 0 .1-.2 0-.2-.1.5-3.6 2.6-7.4 4.9-10.2.2 0 .3.1.2.2zM356.8 212.8c-.9-2.3-1.7-4.6-3-6.7-.1-.2.2-.3.3-.2 1.2 2.1 2.4 4.5 2.7 6.9.1 0 0 0 0 0z" class="we-have-an-idea-9"/>
  </g>
  <g>
    <g id="weHaveAnIdea_30_">
      <path id="weHaveAnIdea_772_" d="M303.4 222H133.8V116.7c0-.7.6-1.3 1.3-1.3h167.1c.7 0 1.3.6 1.3 1.3V222h-.1z" class="we-have-an-idea-1 fill-primary"/>
      <path id="weHaveAnIdea_769_" d="M142.5 125h152.2v88.4H142.5z" class="we-have-an-idea-11"/>
      <path id="weHaveAnIdea_675_" d="M151.9 135.2h14.8v68.5h-14.8z" class="we-have-an-idea-12"/>
      <path id="weHaveAnIdea_33_" d="M255.2 135.2h29.5v21.5h-29.5z" class="we-have-an-idea-12"/>
      <path id="weHaveAnIdea_32_" d="M285.4 180.8h-3.3v-1.3h2v-.9h1.3v2.2zm-5.9 0h-2.6v-1.3h2.6v1.3zm-5.3 0h-2.6v-1.3h2.6v1.3zm-5.3 0h-2.6v-1.3h2.6v1.3zm-5.3 0H261v-1.3h2.6v1.3zm-5.3 0h-2.6v-1.3h2.6v1.3zm-2.4-2.8h-1.3v-2.6h1.3v2.6zm29.5-2.1h-1.3v-2.6h1.3v2.6zm-29.5-3.2h-1.3V170h1.3v2.7zm29.5-2.1h-1.3V168h1.3v2.6zm-29.5-3.2h-1.3v-2.6h1.3v2.6zm29.5-2h-1.3v-2.6h1.3v2.6zm-29.5-3.3h-1.3v-2.6h1.3v2.6zm29.5-2h-1.3v-.7h-.6V158h1.9v2.1zm-4.5-.8h-2.6V158h2.6v1.3zm-5.3 0H273V158h2.6v1.3zm-5.3 0h-2.6V158h2.6v1.3zm-5.3 0h-2.6V158h2.6v1.3zm-5.3 0h-2.6V158h2.6v1.3z" class="we-have-an-idea-13"/>
      <path id="weHaveAnIdea_34_" d="M255.2 182.2h29.5v21.5h-29.5z" class="we-have-an-idea-12"/>
      <path id="weHaveAnIdea_31_" d="M169.1 135.1h13.2v41h-13.2z" class="we-have-an-idea-12"/>
      <path id="weHaveAnIdea_763_" d="M313.2 226.8H123.9c5.4 5.4 12.7 8.4 20.3 8.4h148.7c7.6 0 14.9-3 20.3-8.4z" class="we-have-an-idea-12"/>
      <path id="weHaveAnIdea_759_" fill="#fdfdfe" d="M123.9 221.5h189.3v5.3H123.9z"/>
      <path id="weHaveAnIdea_758_" d="M230.3 225.6h-23.4c-.8 0-1.4-.7-1.4-1.4 0-.8.7-1.4 1.4-1.4h23.4c.8 0 1.4.7 1.4 1.4s-.6 1.4-1.4 1.4z" class="we-have-an-idea-12"/>
      <path d="M202.3 162.5h-1l.1-1.3h.9c.5 0 1.1 0 1.6-.1l.2 1.3c-.6 0-1.2.1-1.8.1zm-3.7-.5c-.9-.2-1.8-.5-2.6-.9l.6-1.2c.8.3 1.6.6 2.4.8l-.4 1.3zm8.2-.2l-.4-1.3c.8-.2 1.6-.6 2.3-1l.6 1.2c-.8.5-1.7.8-2.5 1.1zm-13.2-2.1c-.8-.5-1.5-1.1-2.1-1.8l.9-.9c.6.6 1.2 1.1 1.9 1.6l-.7 1.1zm18-.4l-.8-1c.7-.5 1.3-1.1 1.8-1.7l1 .9c-.6.6-1.2 1.2-2 1.8zm-21.9-3.5c-.5-.8-1-1.6-1.3-2.4l1.2-.5c.3.8.7 1.5 1.2 2.2l-1.1.7zm25.6-.6l-1.1-.7c.4-.7.8-1.5 1.1-2.3l1.2.5c-.3.8-.7 1.7-1.2 2.5zm-27.8-4.4c-.2-.9-.3-1.8-.4-2.7l1.3-.1c0 .8.2 1.7.4 2.5l-1.3.3zm29.8-.8l-1.3-.2c.1-.8.2-1.7.2-2.5 0-.5 0-1-.1-1.4l1.3-.1c.1.5.1 1 .1 1.6 0 .8-.1 1.7-.2 2.6zm-28.8-4.5l-1.3-.2c.1-.9.3-1.8.6-2.7l1.3.4c-.3.8-.5 1.6-.6 2.5zm27.1-2.1c-.2-.8-.5-1.6-.9-2.3l1.2-.6c.4.8.8 1.7 1 2.6l-1.3.3zm-25.5-2.7l-1.2-.6c.4-.8.9-1.6 1.5-2.3l1 .8c-.5.7-.9 1.4-1.3 2.1zm23.3-1.8c-.5-.7-1.1-1.3-1.7-1.9l.9-1c.7.6 1.3 1.3 1.9 2l-1.1.9zm-20.2-2.1l-.9-1c.7-.6 1.4-1.1 2.2-1.6l.7 1.1c-.7.4-1.4.9-2 1.5zm16.5-1.3c-.7-.4-1.5-.8-2.2-1.1l.5-1.2c.9.3 1.7.8 2.5 1.2l-.8 1.1zm-12.2-1.3l-.5-1.2c.9-.3 1.8-.6 2.7-.7l.2 1.3c-.8.1-1.6.4-2.4.6zm7.5-.5c-.8-.2-1.7-.2-2.5-.3v-1.3c.9 0 1.8.1 2.7.3l-.2 1.3zM242.5 183.2h-71.9c-.8 0-1.5-.7-1.5-1.5s.7-1.5 1.5-1.5h71.9c.8 0 1.5.7 1.5 1.5s-.7 1.5-1.5 1.5zM242.5 190.9h-71.9c-.8 0-1.5-.7-1.5-1.5s.7-1.5 1.5-1.5h71.9c.8 0 1.5.7 1.5 1.5s-.7 1.5-1.5 1.5zM218.5 198.6h-47.9c-.8 0-1.5-.7-1.5-1.5s.7-1.5 1.5-1.5h47.9c.8 0 1.5.7 1.5 1.5s-.7 1.5-1.5 1.5zM252.2 141.1h-30.7c-.8 0-1.5-.7-1.5-1.5s.7-1.5 1.5-1.5h30.7c.8 0 1.5.7 1.5 1.5s-.7 1.5-1.5 1.5zM252.2 148.8h-30.7c-.8 0-1.5-.7-1.5-1.5s.7-1.5 1.5-1.5h30.7c.8 0 1.5.7 1.5 1.5s-.7 1.5-1.5 1.5zM243.9 156.5h-22.4c-.8 0-1.5-.7-1.5-1.5s.7-1.5 1.5-1.5h22.4c.8 0 1.5.7 1.5 1.5s-.7 1.5-1.5 1.5z" class="we-have-an-idea-12"/>
    </g>
    <g id="weHaveAnIdea_266_">
      <g id="weHaveAnIdea_322_">
        <g id="weHaveAnIdea_325_">
          <path id="weHaveAnIdea_348_" d="M351.2 160l11.8 11.4v57.9c0 2.7-2.2 4.9-4.9 4.9h-46c-2.7 0-4.9-2.2-4.9-4.9v-64.4c0-2.7 2.2-4.9 4.9-4.9h39.1z" class="we-have-an-idea-11"/>
        </g>
      </g>
      <g id="weHaveAnIdea_285_" opacity=".35">
        <g id="weHaveAnIdea_286_">
          <path id="weHaveAnIdea_315_" fill="#97a4af" d="M351.9 170.2l11.1 12.7v-11.5z"/>
        </g>
      </g>
      <g id="weHaveAnIdea_267_">
        <g id="weHaveAnIdea_275_">
          <path id="weHaveAnIdea_276_" d="M351.2 160l11.8 11.4h-9.4c-1.3 0-2.4-1.1-2.4-2.4v-9z" class="we-have-an-idea-1 fill-primary"/>
        </g>
      </g>
    </g>
    <path id="weHaveAnIdea_800_" d="M311.4 179.8h9.2v9.2h-9.2z" class="we-have-an-idea-12"/>
    <path id="weHaveAnIdea_809_" d="M358.9 182.1h-33.5c-.4 0-.8-.3-.8-.8v-.8c0-.4.3-.8.8-.8h33.5c.4 0 .8.3.8.8v.8c-.1.5-.4.8-.8.8z" class="we-have-an-idea-12"/>
    <path id="weHaveAnIdea_810_" d="M337.9 187.9h-12.5c-.4 0-.8-.3-.8-.8v-.8c0-.4.3-.8.8-.8h12.5c.4 0 .8.3.8.8v.8c0 .4-.4.8-.8.8z" class="we-have-an-idea-12"/>
    <path id="weHaveAnIdea_812_" d="M358.9 200.3h-33.5c-.4 0-.8-.3-.8-.8v-.8c0-.4.3-.8.8-.8h33.5c.4 0 .8.3.8.8v.8c-.1.4-.4.8-.8.8z" class="we-have-an-idea-12"/>
    <path id="weHaveAnIdea_811_" d="M337.9 206h-12.5c-.4 0-.8-.3-.8-.8v-.8c0-.4.3-.8.8-.8h12.5c.4 0 .8.3.8.8v.8c0 .5-.4.8-.8.8z" class="we-have-an-idea-12"/>
    <path id="weHaveAnIdea_814_" d="M358.9 218.5h-33.5c-.4 0-.8-.3-.8-.8v-.8c0-.4.3-.8.8-.8h33.5c.4 0 .8.3.8.8v.8c-.1.4-.4.8-.8.8z" class="we-have-an-idea-12"/>
    <path id="weHaveAnIdea_813_" d="M337.9 224.2h-12.5c-.4 0-.8-.3-.8-.8v-.8c0-.4.3-.8.8-.8h12.5c.4 0 .8.3.8.8v.8c0 .4-.4.8-.8.8z" class="we-have-an-idea-12"/>
    <path id="weHaveAnIdea_801_" d="M311.4 197.4h9.2v9.2h-9.2z" class="we-have-an-idea-12"/>
    <path id="weHaveAnIdea_150_" d="M311.4 215h9.2v9.2h-9.2z" class="we-have-an-idea-12"/>
    <g id="weHaveAnIdea_803_">
      <path id="weHaveAnIdea_805_" d="M316.3 188.1l-4.8-4.8 1.7-1.6 3.1 3.1 8.2-8.2 1.7 1.6z" class="we-have-an-idea-17"/>
    </g>
    <g id="weHaveAnIdea_804_">
      <path id="weHaveAnIdea_806_" d="M316.3 205.1l-4.8-4.7 1.7-1.7 3.1 3.1 8.2-8.2 1.7 1.7z" class="we-have-an-idea-17"/>
    </g>
    <g id="weHaveAnIdea_807_">
      <path id="weHaveAnIdea_808_" d="M316.3 222.2l-4.8-4.8 1.7-1.6 3.1 3.1 8.2-8.2 1.7 1.6z" class="we-have-an-idea-17"/>
    </g>
    <g id="weHaveAnIdea_238_">
      <path id="weHaveAnIdea_443_" d="M61 137.9h9.6v89.4H61z" class="we-have-an-idea-17"/>
      <path id="weHaveAnIdea_251_" fill="#9a9cbc" d="M70.6 229.6H61v3.8c0 .6.5 1.2 1.2 1.2h7.3c.6 0 1.2-.5 1.2-1.2l-.1-3.8z"/>
      <path id="weHaveAnIdea_249_" d="M61 227.3h9.6v2.3H61z" class="we-have-an-idea-9"/>
      <path id="weHaveAnIdea_241_" d="M61 137.9h4.8v89.4H61z" class="we-have-an-idea-19"/>
      <path id="weHaveAnIdea_240_" d="M65.4 126.7L61 137.9h9.6l-4.4-11.2c-.1-.3-.7-.3-.8 0z" class="we-have-an-idea-11"/>
      <path id="weHaveAnIdea_239_" d="M65.7 126l-1.2 3h2.6l-1.2-3c0-.1-.2-.1-.2 0z" class="we-have-an-idea-9"/>
    </g>
    <path d="M143.7 180h-10v41.5h-9.9v5.3c5.3 5.3 12.4 8.3 19.9 8.4.4 0 .7-.4.7-.8v-53.6c.1-.4-.2-.8-.7-.8z" class="we-have-an-idea-20"/>
    <g>
      <g id="weHaveAnIdea_449_">
        <path id="weHaveAnIdea_901_" d="M141.7 235.2H79.6c-1.2 0-2.2-1-2.2-2.2v-53h64.4c.4 0 .8.3.8.8v53.6c-.1.4-.4.8-.9.8z" class="we-have-an-idea-11"/>
        <path id="weHaveAnIdea_450_" d="M83.3 227.6c-1.9-.1-5.9.3-5.9 4.5v-54.2c0-2.5 2-4.5 4.5-4.5h1.4v54.2z" class="we-have-an-idea-1 fill-primary"/>
      </g>
      <path id="weHaveAnIdea_448_" d="M121.2 210.7h2.9c.6 0 1.1-.5 1.1-1.1v-3.7c0-.6-.5-1.1-1.1-1.1h-2.3c-.4 0-.7-.2-.8-.6l-.3-.6c-.2-.3-.1-.7.2-1l1.6-1.6c.4-.4.4-1.1 0-1.5l-2.6-2.6c-.4-.4-1.1-.4-1.5 0l-1.6 1.6c-.3.3-.6.3-1 .2-.2-.1-.5-.2-.7-.3-.3-.1-.6-.5-.6-.8v-2.3c0-.6-.5-1.1-1.1-1.1h-3.7c-.6 0-1.1.5-1.1 1.1v2.3c0 .4-.2.7-.6.8-.2.1-.4.2-.7.3-.3.2-.7.1-1-.2l-1.6-1.6c-.4-.4-1.1-.4-1.5 0l-2.6 2.6c-.4.4-.4 1.1 0 1.5l1.6 1.6c.3.3.3.6.2 1-.1.2-.2.5-.3.7-.1.3-.5.6-.8.6H99c-.6 0-1.1.5-1.1 1.1v3.7c0 .6.5 1.1 1.1 1.1h2.3c.4 0 .7.2.8.6l.3.6c.2.3.1.7-.2 1l-1.6 1.6c-.4.4-.4 1.1 0 1.5l2.6 2.6c.4.4 1.1.4 1.5 0l1.6-1.6c.3-.3.6-.3 1-.2.2.1.5.2.7.3.3.1.6.5.6.8v2.3c0 .6.5 1.1 1.1 1.1h3.7c.6 0 1.1-.5 1.1-1.1V218c0-.4.2-.7.6-.8l.6-.3c.3-.2.7-.1 1 .2l1.6 1.6c.4.4 1.1.4 1.5 0l2.6-2.6c.4-.4.4-1.1 0-1.5l-1.6-1.6c-.3-.3-.3-.6-.2-1 .4-.6.6-1.3.6-1.3zm-14.8-3.9c.6-3.3 4-5.2 7.1-4 2.3.9 3.8 3.4 3.3 5.9-.6 3.3-4 5.2-7.1 4-2.4-.9-3.8-3.5-3.3-5.9z" class="we-have-an-idea-1 fill-primary"/>
    </g>
    <ellipse cx="359.4" cy="221.7" class="we-have-an-idea-21" rx="13.9" ry="13.9"/>
    <g id="weHaveAnIdea_183_">
      <path id="weHaveAnIdea_192_" d="M375.7 221.7c0 7.8-6.3 14-14 14-7.8 0-14-6.3-14-14 0-7.8 6.3-14 14-14 7.7-.1 14 6.2 14 14z" class="we-have-an-idea-17"/>
      <path id="weHaveAnIdea_191_" fill="#efa02e" d="M374.2 221.7c0 6.9-5.6 12.5-12.5 12.5s-12.5-5.6-12.5-12.5 5.6-12.5 12.5-12.5 12.5 5.6 12.5 12.5z"/>
      <path id="weHaveAnIdea_190_" d="M372.7 221.7c0 6.1-4.9 11-11 11s-11-4.9-11-11 4.9-11 11-11c6-.1 11 4.9 11 11z" class="we-have-an-idea-17"/>
      <g id="weHaveAnIdea_185_">
        <g id="weHaveAnIdea_188_">
          <path id="weHaveAnIdea_189_" d="M363.1 227.3H359c-.9 0-1.7-.8-1.7-1.7v-.9h2.4v.2h3.4c.6 0 1.2-.5 1.2-1.2 0-.4-.3-.8-.8-.8h-3c-1.8 0-3.2-1.4-3.2-3.2v-.4c0-2 1.6-3.6 3.6-3.6h4.1c.9 0 1.7.8 1.7 1.7v1h-2.4v-.3h-3.4c-.6 0-1.2.5-1.2 1.2v.4c0 .4.3.8.8.8h3c1.8 0 3.2 1.4 3.2 3.2 0 2-1.6 3.6-3.6 3.6z" class="we-have-an-idea-9"/>
        </g>
        <g id="weHaveAnIdea_186_">
          <path id="weHaveAnIdea_187_" d="M360.8 214.5h2.4v14.3h-2.4z" class="we-have-an-idea-9"/>
        </g>
      </g>
    </g>
  </g>
  <g>
    <path d="M190.9 115.5l1.9 4c.2.5.4.9.6 1.2l.2.4c.1.2.2.3.2.4l.1.3c.2.3.3.6.5.9 1.5 2.3 3.6 2.6 5 2.5.7 0 1.4-.3 1.9-.8 1.8-1.9 4.4-5.5 6.8-9l-17.2.1zM182.3 234.2c.2-.4.4-.9.5-1.4s.1-1 .1-1.5l-.3-5.5c-.1.2-.1.3-.2.5l-.7-7.9c4.1-18.9 5-30.9 5.1-36v-2.2h2.2c.9-7.2 5.2-20.8 5.2-20.8 2.6-11.2 1.5-17.3.2-20.4v-.1c1.4-.4 2.3-.7 2.3-.7l-3.4-8.4v-.1c-.1-.2-.2-.5-.3-.7 0-.1-.1-.1-.1-.2-.1-.2-.2-.5-.3-.7 0-.1-.1-.1-.1-.2-.1-.3-.2-.6-.3-.8v-.1c-.1-.2-.2-.5-.3-.7 0-.1-.1-.2-.1-.2-.1-.2-.2-.4-.2-.6 0-.1-.1-.2-.1-.2-.1-.2-.1-.4-.2-.5 0-.1-.1-.1-.1-.2-.1-.2-.1-.4-.2-.5 0-.1-.1-.1-.1-.2l-.3-.6s0-.1-.1-.1c-.1-.2-.1-.3-.2-.4 0-.1 0-.1-.1-.2s-.1-.2-.1-.3c0-.1 0-.1-.1-.2 0-.1-.1-.2-.1-.3 0-.1 0-.1-.1-.1 0-.1-.1-.2-.1-.2v-.1c0-.1-.1-.2-.1-.2-.1-.2-.2-.5-.3-.8-.1-.5-.2-1.1-.2-1.8v-.7-.7-1.4h-25.2l1 6.4V122.5c0 .1 0 .2-.1.4 0 .2-.1.3-.1.5v.2c0 .2-.1.4-.1.7 0 .2-.1.5-.1.8v.2c-.1.3-.1.6-.2.9-.1.3-.1.7-.2 1.1v.1c-.1.4-.2.7-.2 1.1-.1.7-.3 1.3-.4 2-.2.9-.4 1.9-.6 2.8l-.3-12.9.1-4.6h-8.5l1.5 31.3h1v.6c-.5.3-1.3.9-1.4 1.1l-.6.6c-.5.5-.7 1.2-.6 1.9.1.6.2 1.2.1 1.8-.1.9-.6 1.6-.4 2.6.1.4.5.8.9.8.5 0 .9-.6 1.4-.6.4.1.6.4 1 .5.5.1.9-.4 1.4-.4.4 0 .7.4 1.1.6.1 0 .2.1.3.1v1.5c.9 5.3 0 22.4 0 22.4h1.5c-.1.4-.3 1.2-.5 2.2-1 5-3 17.1-3.5 38l-1.1 6.1-.7 3.7v2.7c0 .4.1.8.4 1.1.4.5 1 .9 1.7.9h.9c2.6 0 4.7.8 4.9-1.8l.6-7.5-.3-2.4-.9-6.5c.2-.6 3.1-13.7 7.4-30.1l1.8-6.4h3.8l.4 2.2.6 3.7c-.7 4.1.5 29.4.5 29.4l-2.1 8.2.8 9.7c0 .5.3 1 .6 1.3.4.3.8.5 1.3.5h2.5c.5 0 1-.2 1.4-.6.2-.5.4-.7.4-.8z" class="we-have-an-idea-20"/>
    <g>
      <linearGradient id="SVGID_1_" x1="173.408" x2="180.224" y1="102.106" y2="63.455" gradientUnits="userSpaceOnUse">
        <stop offset="0" stop-color="#de4437"/>
        <stop offset="1" stop-color="#ffc107"/>
      </linearGradient>
      <path fill="url(#SVGID_1_)" d="M190.6 90.5c-.2-.3-.5-.6-.7-.9-.9-1.5 1.2-3.4.6-5.1-.4-1.1-1.9-1.6-2.3-2.7-.5-1.3.6-3.1-.2-4.2-.2-.3-.6-.5-.8-.8-.6-.8-.4-1.9-.4-2.9-.1-2-1.7-3.7-2-5.7-.1-.4-.1-.8-.2-1.2-.2-.3-.4-.5-.7-.7-.9-.7-2-1.2-3.2-1.4-.5-.1-1-.2-1.3-.5s-.3-.8-.6-1.1c-.2-.1-.4-.2-.7-.2-1.1-.1-2.2-.2-3.3-.2h-.5c-1-.3-2.1.3-3 .9-1.4.8-2.8 1.7-3.7 3-.9 1.2-1.2 2.8-2.2 4-.8 1.1-2 1.5-1.8 3.2 0 .5.2.9.1 1.4-.1.4-.3.7-.3 1.1 0 .5.3 1 .3 1.5 0 .7-.5 1.4-.9 2-.5.8-.6 1.8-.5 2.8.1.5.3 1.1.3 1.6s-.1 1-.3 1.4c-.5 1.5-1.5 2.6-2.2 4-.7 1.3.6 2.4.9 3.7.3 1.2-.3 2.4-.2 3.5 0 .9.4 1.7.8 2.5.1.2.2.5.5.6.5.2.9-.4 1.2-.8.9-.9 2.4-.5 3.6-.8 1-.3 1.9-1 2.9-1s1.9.8 2.9.9c1.6.3 3-1 4.5-1.6 3.4-1.5 7.7.3 10.9-1.7.7-.4 1.2-1 1.8-1.6.7-.9 1.3-2.1.7-3z"/>
      <path d="M170.9 82.2h8.2v11h-8.2z" class="we-have-an-idea-24"/>
      <path d="M181.1 93.2h-11.3v-5.8l11.3 1zM222.3 100.7c-.5-.2-1.1-.2-1.7-.1-2.8.4-6.6 1.5-9.4 1-.3-.1-.7-.2-1-.4-.6-.4-.8-1-1.1-1.6s-.6-1.3-1.1-1.6c-2.4-1.5-1.3 2.5-1.2 3.3.3 1.9-.6 2.7-1 4.2-.4.2-.6.8-.5 1.2.1.6.5 1 1 1.4 2.6 2.4 3.8-1 5.4-2.6 2.3-2.3 6.7-3.2 9.8-3.1.5 0 1 0 1.3-.3.3-.4 0-1.1-.5-1.4z" class="we-have-an-idea-24"/>
      <path d="M182.9 122.8h-19.2V87.2l6 1.3 1.9 2.1c2.4 2.8 6.9 2.3 8.8-.8l.8-1.3 5 16.5-3.3 17.8z" class="we-have-an-idea-11"/>
      <path d="M159 179.7s-3.4 12.2-4.2 40.7l-1.8 9.7v2.7c0 1.1.9 2.1 2.1 2.1h.9c2.6 0 4.7-1.9 4.9-4.5l.6-4.7-1.2-8.8c-.2.9 2.8-12.7 7.4-30.1l2-6.9-10.7-.2z" class="we-have-an-idea-24"/>
      <path d="M159 179.7s-3.4 12.2-4.2 40.7l-1.8 9.7v2.7c0 1.1.9 2.1 2.1 2.1h.9c2.6 0 4.7-1.9 4.9-4.5l.6-4.7-1.2-8.8c-.2.9 2.8-12.7 7.4-30.1l2-6.9-10.7-.2z" class="we-have-an-idea-24"/>
      <path d="M160.9 225.5c-.2 2.5-2.4 3.4-4.9 3.4h-.9c-.8 0-1-1.8-1.4-2.4l-.7 3.7v2.7c0 1.1.9 2.1 2.1 2.1h.9c2.6 0 4.7.8 4.9-1.8l.6-7.5-.3-2.4-.3 2.2z" class="we-have-an-idea-9"/>
      <path d="M184.5 179.7s.4 13-5.2 38.7l1.2 12.9c.1 1-.1 2-.6 2.8-.3.6-1 1-1.7 1h-2.5c-1 0-1.9-.8-2-1.8l-.8-9.7 2.1-8.2s-1.2-25.3-.5-29.4l-1.1-6.3h11.1z" class="we-have-an-idea-24"/>
      <path d="M180.2 225.8c-.1.3-.2.5-.3.8-.3.6-1 1.6-1.7 1.6h-2.5c-1 0-1.9-1.3-2-2.3l-.5-3.4-.3 1.3.8 9.7c.1 1 .9 1.8 2 1.8h2.5c.7 0 1.4-.4 1.7-1 .5-.9.7-1.9.6-2.8l-.3-5.7z" class="we-have-an-idea-9"/>
      <path d="M158.4 182.4h10.5l.8-2.7H159l-.6 2.7zM173.3 179.8l.4 2.7h10.7c.1-1.8 0-2.7 0-2.7h-11.1z" class="we-have-an-idea-21"/>
      <path d="M190.3 136.2s6 4.5 1.6 23.3c0 0-4.3 13.6-5.2 20.8h-29.3s.9-17.2 0-22.4c0 0-.4-21.8 7.2-23.5l25.7 1.8z" class="we-have-an-idea-25"/>
      <path d="M190.3 136.2l-25.7-1.8c-2.1.5-3.7 2.5-4.7 5.3 2.5 1.6 5.7 4 9.1 4.2 2.4.1 4.7-1 6-3l1.7-2.6.3.5c1.3 2.8 4.3 4.3 7.4 3.7 3.2-.6 6-2.6 7.8-3.4-.9-2.2-1.9-2.9-1.9-2.9z" class="we-have-an-idea-21"/>
      <path d="M181.1 88.4s8.6 1.3 9.7 4.6l-3.8 19.6s-.7 6.5.2 8.2 7.2 17.4 7.2 17.4-4.3 1.4-10.1 2.5c-3 .6-6-1-7.4-3.7l-.3-.5-1.7 2.6c-1.3 2-3.6 3.2-6 3-3.8-.2-7.3-.9-10-2.5 0 0 3.6-16.5 3.6-17.8l-2.7-16.5 3.7-17.8c0-.2-.1-.4.1-.3l6 .2 7.8 30.8 5.2-11-1.5-18.8z" class="we-have-an-idea-25"/>
      <path d="M181.1 88.4s8.6 1.3 9.7 4.6l5.6 21.8 9-10.3 5.5 2.7s-8.2 13.1-12.2 17.2c-.5.5-1.2.8-1.9.8-1.5.1-4-.3-5.5-3.4l-4.3-9.2-5.9-24.2z" class="we-have-an-idea-25"/>
      <path d="M161.6 146.6c.3-.2.5-.5.6-1 .4-1.6-.8-3.7-.9-5.3-.2-1.8-.1-4-.1-5.8 0-1.3-.4-3-.1-4.3-1 5.1-2 16.6-2 16.6.9-.1 1.9.1 2.5-.2zM161.8 96.6l-1.8 8.7c-.1.5.2 1.4.3 1.9.2 1.4.5 2.8.7 4.1.1.7.2 1.3.3 2 0 .2.1 1.4.3 1.5.5.4.2-2.4.1-2.6-.1-1.1-.2-2.2 0-3.3.1-.5.2-.9.2-1.4s-.2-.9-.3-1.3c-.5-1.8-.1-4 0-5.8.1-1.3.1-2.6.2-3.8z" class="we-have-an-idea-21"/>
      <path d="M181.1 88.4l4.3 13.2-2 1.8 1.8 3.5-7.7 11.4 5.2-11.1zM169.7 87.4l-3.3 9.7 3.3 1.1-1.6 2.1 9.4 18zM177.4 123.5c-.1 4.2.4 9-1 13.1-.1.2.3.3.4.1 1.3-4 .9-9 .6-13.2.1 0 0 0 0 0z" class="we-have-an-idea-26"/>
      <path d="M158.2 156.2c.4.2.8.1 1.2-.1.4-.2.6-.6.8-.9.6-.9.6-1.9.6-2.9 0-.9-.3-1.9-.3-2.8V144h-1.8c-.9 4.4-1.2 9.1-1.2 11.7.2.2.4.4.7.5z" class="we-have-an-idea-21"/>
      <path d="M154.6 147.2c-.3 0-1.5 1-1.7 1.2l-.6.6c-.5.5-.7 1.2-.6 1.9.1.6.2 1.2.1 1.8-.1.9-.6 1.6-.4 2.6.1.4.5.8.9.8.5 0 .9-.6 1.4-.6.4.1.6.4 1 .5.5.1.9-.4 1.4-.4.4 0 .7.4 1.1.6.4.2.8.1 1.2-.1.4-.2.6-.6.8-.9.6-.9.6-1.9.6-2.9s-.4-2-.3-3c0-.7-.6-1.4-1.3-1.5-.6-.1-.2-.1-.8-.2-1.2-.2-1.8-.3-2.8-.4z" class="we-have-an-idea-24"/>
      <path d="M154.3 144h5.1v5.4h-5.1z" class="we-have-an-idea-24"/>
      <path d="M163.7 87.2l-5.1 2.9c-2 1.1-3.5 2.9-4.4 5l-1.9 4.5c-1.1 3.5-1 9.5-.9 10.7l1.8 36.5h7.6l-.7-26.7.5-14.9 3.1-18" class="we-have-an-idea-25"/>
      <path fill="#575a8f" d="M169.7 90.3s0-.1 0 0c0-.1 0 0 0 0z"/>
      <path d="M187.2 120.9c-.9-1.7-.2-8.2-.2-8.2l.3-1.6v.2c-.6.5-1 1.1-1.3 1.7-.8 1.8.3 5.2-1.2 6.4-.5.4-1.1.6-1.7.9-.3.1-.6.3-.8.5-.2.3-.2.7.1.9.2.1.4.1.6.1 1.7.1 3.4 1.3 3.9 3 .6 1.8 1.4 3 2.2 4.7.2.3.2.7.4 1 .5.9 1.8 1.3 2.6 1.9-1.9-4.6-4.3-10.5-4.9-11.5z" class="we-have-an-idea-28"/>
      <path d="M187 112.7c.1.2 4.3 9.2 4.3 9.2.3.7.7 1.3 1.1 1.7-.2-1.4-.9-2.7-1.4-4.1-.5-1.2-.6-2.5-1.2-3.7-.7-1.5-1-3-2.1-4.3-.1-.1-.2-.2-.3-.2s-.2.1-.3.3c0 .3-.2.7-.1 1.1z" class="we-have-an-idea-28"/>
      <path d="M205.7 104.9c-.1 0-.1 0 0 0z" class="we-have-an-idea-29"/>
      <path fill="#7a5f23" d="M179.1 82.2h-8.2v2.3l1.5 1.3c.5.4 1.1.7 1.8.7h1.3c.7 0 1.3-.3 1.8-.7l1.9-1.7v-1.9h-.1z" opacity=".3"/>
      <path d="M168.8 72.3V80c0 1 .4 1.9 1.2 2.5l2.4 2.1c.5.4 1.1.7 1.8.7h1.3c.7 0 1.3-.3 1.8-.7l3.2-2.9c.7-.6 1.1-1.5 1.1-2.5v-7s.7-3.8-2.2-5.4c0 0-4-1.6-7.8 0-.2.1-2.8.8-2.8 5.5z" class="we-have-an-idea-31"/>
      <path d="M166.8 85.4c-.1-.3-.5-.1-.5.2.1.5-2.2.9-2.5 1.3-.8 1 .3 2.7-.6 3.6-.2-.2-.4-.3-.7-.4-.5-.2-.9.3-.9.7v1c0 .3.1.5.3.7-.3.4-.6.9-.6.9-.3.4-.5.6-.7 1.1-.4.8-.5 1.6-.5 2.5.1.8 1.4 1.1 1.5.2.2-1.3.5-2.3 1.3-3.4.4-.5.8-1 .9-1.7.9-.6 1.1-1.6 1.3-2.9.1-.6.3-1.2.4-1.8.2-.1.5-.1.7-.2.2-.2.5-.2.6-.5.4-.5.3-.7 0-1.3zM189.6 94.7c-.8-1.3-.5-2.4-.7-3.8-.1-.5-.3-.8-.5-1.2-.5-.9-.6-1.5-.6-2.5-.1-2.1-3.3-2.5-3.8-.4-.2.7.8.9 1 .3.7-.7 1.3-.7 1.7.3-.1.3-.2.7-.4 1-.1.4-.2.8-.1 1.2.1.3.3.5.4.9.4.8.5 1.2.5 2.1-.1 1.9.8 4.7 3 4.8.3 0 .5-.2.5-.5 0-1.1-.5-1.3-1-2.2z" class="we-have-an-idea-17"/>
      <path d="M188.9 97.8c-2.5-1.3-1.1-3.5-2.2-5.2.2-.4.2-.9.1-1.4-.1-.6-.3-1.1-.7-1.6-.4-.4-1.2-.5-1.5-.8-.8-.8 0-1.6-.8-2.4-.5-.6-1.2-.7-1.8-.2-.7.5-.3 1.9.6 1.5-.8.3-1.1 1.4-.6 2.2.1.2.5.5.7.6 1.2.6 1-.3 2 .9-.1 0-.2 0-.3.1-1.6.6-.8 2.7.7 2.5-.1 1.2.2 2.7.6 3.6.5 1 1.3 1.7 2.4 2.1 1.1.3 1.8-1.3.8-1.9zM168.2 83.1c.1-.2.1-.4-.2-.4-4.4.1-.5 3.6-1.5 5.8-.6 1.4-1.5 1.8-1.8 3.5.1 1-.2 2-.7 2.9-.4.4-.9.7-1.3 1.1-.3.4-.3.7-.3 1.2-.1.9 1.3 1.2 1.7.5.6-1 1.9-1.4 2.4-2.7.2-.4.2-.9.3-1.3.3-1.6.3-2.4 1.3-3.7.7-.9 1.2-1.7 1.1-2.9-.1-1.5-1.9-2.9-1-4zM171 66.4c.2-.1.2-.4-.1-.5-4.3-1-1.4 3.4-2.9 5.2-1 1.2-2 1.4-2.7 2.9-.2 1-.7 1.9-1.4 2.6-.5.2-1 .5-1.5.8-.4.4-.5.6-.6 1.1-.3.9.9 1.5 1.6.9.9-.9 2.2-.9 3-2 .3-.4.4-.8.6-1.2.7-1.4.9-2.2 2.2-3.3.9-.7 1.6-1.4 1.8-2.6.2-1.2-1.1-3.1 0-3.9zM178.2 65.4c0-.2-.2-.4-.4-.2-3.3 2.8 1.9 3.1 2.5 5.5.4 1.5-.1 2.4.7 3.9.7.8 1.1 1.7 1.3 2.7-.1.5-.2 1.1-.3 1.7.1.5.2.7.5 1.1.5.8 1.8.1 1.6-.7-.2-1.2.6-2.3.2-3.6-.1-.4-.3-.8-.5-1.2-.7-1.4-1.3-2.1-1.3-3.7-.1-1.2-.2-2.1-1-3-1-1.1-3.3-1.1-3.3-2.5z" class="we-have-an-idea-17"/>
      <path d="M177.9 63.7c-.8 0-1.7-.1-2.4.5s-.6 1.7-1.7 2c-2.1.5-3.3-2.4-5.5-1.2-1.4.8-.1 3 1.3 2.2 0 0 1.8 1.1 2.2 1.3.9.3 1.8.4 2.7.2.8-.2 1.6-.7 2.1-1.3l.6-.9c.2-.2.2-.3.2-.4 0 0 0 .2.6.2 1.5-.1 1.5-2.7-.1-2.6z" class="we-have-an-idea-17"/>
      <path d="M171.5 80.5h6.8s-3.2 4-6.8 0z" class="we-have-an-idea-11"/>
      <path d="M164.5 121.7c-.3-.4-.1-1-.1-1.5 0-.7-.4-1.3-.8-1.9-.6-.8-1.2-1.6-1.9-2.4l1 6c0 .5-.5 3.1-1.2 6.3.3-.3.6-.7.8-1 .5-.9 1.1-1.8 1.6-2.6.3-.4.5-.8 1-1.1.8-.4 1.8.1 2.6-.3 0-.1-.1-.2-.1-.3-.9-.7-2.4-.3-2.9-1.2z" class="we-have-an-idea-28"/>
      <path d="M178.2 120.9c0 .4-.3.7-.7.7s-.7-.3-.7-.7.3-.7.7-.7c.4-.1.7.3.7.7z" class="we-have-an-idea-1 fill-primary"/>
    </g>
  </g>
  <g>
    <path d="M299.8 231.9l-7.9-.9-1.5-1.6h-.2l-13.8-79.6v-3.3h-.3l.6-5.2c2.3.4 4.5-7 .8-6.7l2.4-19.1h-36.7l4.8 31.1h-.3v3.3l-7.9 42.8-6.8 36.8h-.5L231 231l-7.9.9c-1.8.6-2.1 1-2.7 2.8l-.1.5h16.3l1.2-1.4v1.4h5.3v-5.8h-.3l8.7-32.1 10.9-32.5 9.9 33.2 7.8 31.4h-.3v5.8h5.3v-1.4l1.2 1.4h6.6c3.2 0 6.3-.5 9.2-1.5-.4-1-.9-1.3-2.3-1.8z" class="we-have-an-idea-20"/>
    <path d="M260 94.6h8.7v15.2H260z" class="we-have-an-idea-24"/>
    <path d="M268.8 95.7l-8.8 3.2v-4.3h8.8z" class="we-have-an-idea-21"/>
    <path d="M284.2 68.3l-3-4.3 1.1-3.5c.1-.3.1-.6.1-.9l-1.6-9.6-1.1 1.6c-.3.4-.4.8-.3 1.3l.1 5.5-4.4 4.4 2.6 2.8 1.5 4.5 5-1.8zM245.3 66.7l3-4.3-1.1-3.5c-.1-.3-.1-.6-.1-.9l1.6-9.6 1.1 1.6c.3.4.4.8.3 1.3l-.5 6.4 4.3 4.5-2.1 1.7-1.5 4.5-5-1.7z" class="we-have-an-idea-24"/>
    <path d="M268.4 98.8l12.6-2.2 7.4-8.7-10.8-20.1 6.5-2.6L299.2 90s-8.6 12.5-15.5 19.7l-4.7 37.7h-27.8l-5.8-37.7s-9-10.3-15.9-21.3l16.4-25.1 5.4 4-10.8 20.6 6.5 8.8 9.8 2.2 7.3 3.5 4.3-3.6z" class="we-have-an-idea-11"/>
    <path d="M251.2 147.4l-8.4 45.2-6.8 36.8h9.8l8.6-32.1 11-32.5 9.9 33.2 7.9 31.4h10.1l-14.3-82z" class="we-have-an-idea-29"/>
    <path d="M250.7 146.5h28.7v3.3h-28.7z" class="we-have-an-idea-9"/>
    <path d="M261.9 146.5h6.4v3.3h-6.4z" class="we-have-an-idea-17"/>
    <path d="M260.6 105.6l1.1 2.4h4.9l1.2-2.2-3.7-3.4z" class="we-have-an-idea-1 fill-primary"/>
    <path d="M281 131.8c-6.7.1-19.9.6-15.2-23.8h-2.7s-7.3 28.3 16.8 31.6l1.1-7.8z" class="we-have-an-idea-21"/>
    <path d="M256.3 85.9s0-.1 0 0c-.1-.1-.1 0 0 0z" class="we-have-an-idea-9"/>
    <path d="M253.1 80.5c0-.2 0-.4.1-.6l-.1.6zM268.3 88.1c.2-1.1.4-2.3.1-3.4-.4-1.1-1.3-1.9-2.3-2.6-1.7-1.4-3.4-2.8-5.2-4.2-.3-.3-.7-.6-1.1-.7-.5-.1-1.1.1-1.6.3-1.8.7-3.5 1.7-5 3-.1 1.5.7 2.5.5 4.2-.1 1.1-1.4 4.9-1.4 4.9.6.3 2.4.3 2.4.3-.1 2.7 0 5.6 2.8 6.6 2.1.8 3.6.5 5.8.2.8-.1 1.5-.3 2.3-.5 1.3-.3 3.2-.7 3.2-.7.3-2.1-.9-5.3-.5-7.4z" class="we-have-an-idea-31"/>
    <path id="weHaveAnIdea_67_" d="M262.7 86.5c0-1.1.4-2.4.2-3.4s-1.3-1.5-2.1-2.1c-1.2-.9-3.1-.8-4.5-.4l-1.2.3c-1.3.3-2.8.1-3.6-1-1.5-2-1.8-7.1 1.9-6.7.8.1 1.6.4 2.3.5 2.8.4 5.7-1.7 8.4-.8 1.2.4 2.3 1 3.4 1.4.4.2.8.3 1.2.6.3.3.5.6.7 1 .6 1.1 1.2 2.1 1.8 3.2.1.2.3.5.3.8s-.3.6-.6.5c.7 1.2 1.3 2.4 2 3.6-.4-.1-.8-.1-1.2 0-.4.1-.7.4-.8.8 0 .6.5.9 1 1.3.4.3.9 1 .5 1.4-.2.2-.4.2-.7.3-1.7.8.2 2 .5 3 .1.3 0 .6-.2.7-.1.1-.2.1-.4.2-1.2.4-1.5.8-.9 2.1.1.2.2.4.1.6-.2.3-.7 0-1 .1-.2 0-.3.1-.5.2-.8.5-1.9.6-2.8.1-2.4-1.3-.4-3.7-.1-5.7.1-.4-.2-.8 0-1.2.4-.8 1-3.7-.7-3.7-1.6.1-3 3.8-3 2.3z" class="we-have-an-idea-9"/>
    <path id="weHaveAnIdea_66_" d="M262.2 88.7l.7-10.9 2.1.1-.5 8.6c-.1 1.3-1.1 2.3-2.3 2.2z" class="we-have-an-idea-9"/>
    <path d="M245.9 66.1c0 .3-.3.6-.6.6s-.6-.3-.6-.6.3-.6.6-.6.6.3.6.6z" class="we-have-an-idea-9"/>
    <circle cx="284.2" cy="68.3" r=".6" class="we-have-an-idea-9"/>
    <circle cx="264.4" cy="143.5" r=".6" class="we-have-an-idea-9"/>
    <circle cx="264.4" cy="135.9" r=".6" class="we-have-an-idea-9"/>
    <circle cx="264.4" cy="128.3" r=".6" class="we-have-an-idea-9"/>
    <path id="weHaveAnIdea_65_" d="M235.5 229.4L234 231l-7.9.9c-1.8.6-2.1 1-2.7 2.8l-.1.5h16.3l1.2-1.4v1.4h5.3v-5.8H235.5z" class="we-have-an-idea-9"/>
    <path id="weHaveAnIdea_56_" d="M293.5 229.4l1.5 1.6 7.9.9c1.8.6 2.1 1 2.7 2.8l.1.5h-16.3l-1.2-1.4v1.4h-5.3v-5.8H293.5z" class="we-have-an-idea-9"/>
    <path d="M255.2 86.7c-.7 0-1.1-1.4-1.1-2.8 0-1.3.3-2.8 1.1-2.8.7 0 1.1 1.4 1.1 2.8 0 1.3-.4 2.8-1.1 2.8zm0-5.1c-.2 0-.5.8-.5 2.2s.4 2.2.5 2.2c.2 0 .5-.8.5-2.2 0-1.3-.3-2.1-.5-2.2z" class="we-have-an-idea-9"/>
    <path fill="#191c3c" d="M256 83.6h6.5v.5H256z"/>
    <path d="M253.7 83.6h.8v.5h-.8z" class="we-have-an-idea-9"/>
    <path d="M262.4 108s-4.2 32.8 25.1 29.5l2.7-4.2-3.1-4.2s-23 8.5-21.3-21.1h-3.4z" class="we-have-an-idea-1 fill-primary"/>
    <path id="weHaveAnIdea_55_" d="M255.1 98.7l4.2 9.3 4.2-5.1-3.7-3.5z" class="we-have-an-idea-21"/>
    <path id="weHaveAnIdea_54_" d="M273.2 98.7l-4.4 9.3-4.5-5.7 3.8-3.4z" class="we-have-an-idea-21"/>
    <path id="weHaveAnIdea_53_" d="M254.9 98.4l4.8 8 4.4-4.1-3.8-3.4z" class="we-have-an-idea-13"/>
    <path id="weHaveAnIdea_52_" d="M273.6 97.9l-5.1 8.5-4.4-4.1 3.7-3.4z" class="we-have-an-idea-13"/>
  </g>
  <g>
    <g id="weHaveAnIdea_3_">
      <ellipse id="weHaveAnIdea_25_" cx="264.6" cy="23.3" class="we-have-an-idea-17" rx="23.3" ry="23.3" transform="rotate(-63.57 264.622 23.302)"/>
      <path id="weHaveAnIdea_24_" d="M251.9 39.8h25.5v17.8h-25.5z" class="we-have-an-idea-17"/>
      <path id="weHaveAnIdea_23_" fill="#dadfea" d="M279 58.7l-8.5 7h-12.6l-7.7-7V47.5H279z"/>
      <path id="weHaveAnIdea_22_" d="M279.6 50.7h-30.1c-.3 0-.5-.2-.5-.5v-1c0-.3.2-.5.5-.5h30.1c.3 0 .5.2.5.5v1c.1.2-.2.5-.5.5z" class="we-have-an-idea-2"/>
      <path id="weHaveAnIdea_21_" d="M279.6 54.3h-30.1c-.3 0-.5-.2-.5-.5v-1c0-.3.2-.5.5-.5h30.1c.3 0 .5.2.5.5v1c.1.2-.2.5-.5.5z" class="we-have-an-idea-2"/>
      <path id="weHaveAnIdea_20_" d="M279.6 57.8h-30.1c-.3 0-.5-.2-.5-.5v-1c0-.3.2-.5.5-.5h30.1c.3 0 .5.2.5.5v1c.1.3-.2.5-.5.5z" class="we-have-an-idea-2"/>
      <path id="weHaveAnIdea_19_" d="M268.5 69.6h-8.8c-1.2 0-2.1-1-2.1-2.1v-2.1h13.1v2.1c-.1 1.1-1 2.1-2.2 2.1z" class="we-have-an-idea-9"/>
      <ellipse id="weHaveAnIdea_18_" cx="264.6" cy="23.3" class="we-have-an-idea-19" rx="17" ry="17"/>
      <path id="weHaveAnIdea_17_" d="M239.4 24.1h-8.1c-.5 0-.8-.4-.8-.8 0-.5.4-.8.8-.8h8.1c.5 0 .8.4.8.8s-.3.8-.8.8z" class="we-have-an-idea-17"/>
      <path id="weHaveAnIdea_16_" d="M240.3 17.6h-.2l-4-1.1c-.4-.1-.7-.6-.6-1 .1-.4.6-.7 1-.6l4 1.1c.4.1.7.6.6 1-.1.3-.5.6-.8.6z" class="we-have-an-idea-17"/>
      <path id="weHaveAnIdea_15_" d="M242.8 11.5c-.1 0-.3 0-.4-.1l-7-4.1c-.4-.2-.5-.7-.3-1.1s.7-.5 1.1-.3l7 4.1c.4.2.5.7.3 1.1-.1.3-.4.4-.7.4z" class="we-have-an-idea-17"/>
      <path id="weHaveAnIdea_14_" d="M246.8 6.3c-.2 0-.4-.1-.6-.2l-2.8-2.8c-.3-.3-.3-.8 0-1.2.3-.3.8-.3 1.2 0l2.8 2.8c.3.3.3.8 0 1.2-.2.1-.4.2-.6.2z" class="we-have-an-idea-17"/>
      <path id="weHaveAnIdea_13_" d="M282.4 6.3c-.2 0-.4-.1-.6-.3-.3-.3-.3-.8 0-1.2l2.9-2.8c.3-.3.8-.3 1.2 0 .3.3.3.8 0 1.2L283 6.1c-.2.1-.4.2-.6.2z" class="we-have-an-idea-17"/>
      <path id="weHaveAnIdea_12_" d="M286.4 11.5c-.3 0-.6-.1-.7-.4-.2-.4-.1-.9.3-1.1l7-4.1c.4-.2.9-.1 1.1.3s.1.9-.3 1.1l-7 4.1c-.1.1-.2.1-.4.1z" class="we-have-an-idea-17"/>
      <path id="weHaveAnIdea_11_" d="M289 17.6c-.4 0-.7-.2-.8-.6-.1-.4.1-.9.6-1l3.9-1.1c.4-.1.9.1 1 .6.1.4-.1.9-.6 1l-3.9 1.1h-.2z" class="we-have-an-idea-17"/>
      <path id="weHaveAnIdea_10_" d="M289.8 24.1c-.5 0-.8-.4-.8-.8 0-.5.4-.8.8-.8h8.1c.5 0 .8.4.8.8 0 .5-.4.8-.8.8h-8.1z" class="we-have-an-idea-17"/>
      <path id="weHaveAnIdea_9_" d="M293.4 31.8h-.2l-4.5-1.2c-.4-.1-.7-.6-.6-1s.6-.7 1-.6l4.5 1.2c.4.1.7.6.6 1-.1.4-.4.6-.8.6z" class="we-have-an-idea-17"/>
      <path id="weHaveAnIdea_8_" d="M293.5 40.7c-.1 0-.3 0-.4-.1l-7-4c-.4-.2-.5-.7-.3-1.1.2-.4.7-.5 1.1-.3l7 4c.4.2.5.7.3 1.1-.2.3-.4.4-.7.4z" class="we-have-an-idea-17"/>
      <path id="weHaveAnIdea_7_" d="M285.3 44.8c-.2 0-.4-.1-.6-.2l-2.9-2.9c-.3-.3-.3-.8 0-1.2.3-.3.8-.3 1.2 0l2.9 2.9c.3.3.3.8 0 1.2-.2.1-.4.2-.6.2z" class="we-have-an-idea-17"/>
      <path id="weHaveAnIdea_6_" d="M244 44.8c-.2 0-.4-.1-.6-.2-.3-.3-.3-.8 0-1.2l2.8-2.8c.3-.3.8-.3 1.2 0 .3.3.3.8 0 1.2l-2.8 2.8c-.2.1-.4.2-.6.2z" class="we-have-an-idea-17"/>
      <path id="weHaveAnIdea_5_" d="M235.8 40.8c-.3 0-.6-.1-.7-.4-.2-.4-.1-.9.3-1.1l7-4.1c.4-.2.9-.1 1.1.3.2.4.1.9-.3 1.1l-7 4.1c-.1.1-.3.1-.4.1z" class="we-have-an-idea-17"/>
      <path id="weHaveAnIdea_4_" d="M236.6 31.7c-.4 0-.7-.2-.8-.6s.1-.9.6-1l3.7-1c.4-.1.9.1 1 .6.1.4-.1.9-.6 1l-3.7 1c-.1-.1-.1 0-.2 0z" class="we-have-an-idea-17"/>
    </g>
  </g>
  <g>
    <path d="M51.9 235.2h353" class="we-have-an-idea-4"/>
  </g>
</svg>