<svg xmlns="http://www.w3.org/2000/svg" viewBox="457 -362.7 1113.8 825.7">
  <path fill="#377DFF" d="M947.9-331.5c-44.1-17.9-90.6-32.9-138.2-31-69.9 2.7-136.9 44.8-169.8 106.5-27.9 52.3-31.4 113.6-43.4 171.6-14.8 71.5-43.2 139.5-73.4 205.9-16.3 35.8-33.4 72.2-36.1 111.4-3.7 54.3 22.3 108.4 63 144.6s94.8 55.2 149.1 59.4c28.9 2.2 59.1.2 84.8-13.3 27.1-14.2 46.9-39.9 74.2-54 25.3-13 54.8-14.8 83.2-13.1 37.1 2.2 73.7 10 108.6 23.1 39.6 14.9 76.5 36.4 116 51.5s83.7 23.5 124.2 10.9c37.9-11.8 68-40.6 95-69.7 44.4-47.8 84.9-99 121.2-153.3 24.4-36.6 47.1-75.1 57.9-117.8 20.6-81.5-7.8-173.4-70.8-229-52.2-46.1-122.2-66.1-190.8-78.3-62.5-11.1-134.8-11.8-192.4-40.6-54.8-27.5-104.8-61.4-162.3-84.8z" opacity=".1"/>
  <path fill="#464A5F" d="M1391 214.2l1.7 1.7.8-2.9-.8-2.8h-2.1l.4 4z"/>
  <path d="M1391 214.2l1.7 1.7.8-2.9-.8-2.8h-2.1l.4 4z" opacity=".1"/>
  <path fill="#9C9CA1" d="M1391 214.2l1.7 1.8-1.7 1.8-1.7-.6-.4-.8 2.1-2.2z"/>
  <path d="M1391 214.2l1.7 1.8-1.7 1.8-1.7-.6-.4-.8 2.1-2.2z" opacity=".1"/>
  <path fill="#D4D7DD" d="M1083.2-89.6L900.3 93.3c-6.8 6.8-6.9 17.9 0 24.8l280.3 282.5c6.8 6.9 17.9 6.9 24.8.1l185.6-183-307.8-307.3z"/>
  <path fill="#E3E6F0" d="M1083.2-89.6L900.3 93.3c-6.8 6.8-6.9 17.9 0 24.8l280.3 282.5c6.8 6.9 17.9 6.9 24.8.1l185.6-183-307.8-307.3z" opacity=".1"/>
  <path fill="#E3E6F0" d="M1083.2-93.2L900.3 89.7c-6.8 6.8-6.9 17.9 0 24.8L1180.6 397c6.8 6.9 17.9 6.9 24.8.1l185.6-183-307.8-307.3z"/>
  <path fill="#464A5F" d="M1102.4-221.7l-16.8 127.3L1393.4 213l17.7-129.4c.8-5.9-1.2-11.8-5.4-15.9l-297-291.6c-1.5-1.4-3.8-1.4-5.3.1-.5.5-.9 1.3-1 2.1z"/>
  <path d="M1102.4-221.7l-16.8 127.3L1393.4 213l17.7-129.4c.8-5.9-1.2-11.8-5.4-15.9l-297-291.6c-1.5-1.4-3.8-1.4-5.3.1-.5.5-.9 1.3-1 2.1z" opacity=".1"/>
  <path fill="#464A5F" d="M1100-220.5l-16.8 127.3L1391 214.2l17.7-129.4c.8-5.9-1.2-11.8-5.4-15.9l-297-291.6c-1.5-1.4-3.8-1.4-5.3.1-.5.5-.9 1.3-1 2.1z"/>
  <path d="M1084-34.7l-11.1 11.2c-1.4 1.4-1.4 3.6 0 5l11.3 11.6c1.4 1.4 3.6 1.5 5 .1l11.1-10.5c1.4-1.3 1.5-3.5.2-5l-11.3-12.3c-1.3-1.5-3.5-1.6-5-.3-.1.1-.1.2-.2.2zm20.8 20.8l-11.1 11.2c-1.4 1.4-1.4 3.6 0 5l11.3 11.6c1.3 1.4 3.6 1.5 5 .1l11.1-10.5c1.4-1.3 1.5-3.6.2-5L1110-13.8c-1.3-1.4-3.5-1.5-5-.2-.1 0-.2 0-.2.1zm21.8 21.7L1115.5 19c-1.3 1.4-1.3 3.6 0 5l11.3 11.6c1.4 1.4 3.6 1.5 5 .1l11.1-10.5c1.4-1.3 1.5-3.5.2-5l-11.3-12.3c-1.3-1.5-3.5-1.6-5-.3l-.2.2zm22 22.1l-11.1 11.3c-1.3 1.4-1.3 3.6 0 5l11.3 11.6c1.4 1.4 3.6 1.5 5 .1l11.1-10.5c1.4-1.3 1.5-3.5.2-5L1153.8 30c-1.3-1.4-3.6-1.5-5-.2-.1 0-.2 0-.2.1zm22 22l-11.1 11.3c-1.4 1.4-1.4 3.6 0 5l11.3 11.6c1.4 1.4 3.6 1.5 5 .1l11.1-10.5c1.4-1.3 1.5-3.5.2-5l-11.3-12.3c-1.3-1.5-3.5-1.6-5-.4l-.2.2zm23.4 20.6l-13.8 14c-.6.6-.6 1.7 0 2.3l13.9 14.2c.6.6 1.7.6 2.3 0l13.8-13c.7-.6.7-1.7.1-2.3l-13.9-15.2c-.6-.6-1.7-.7-2.4 0 .1 0 0 0 0 0zm22.1 22.1l-13.8 14c-.6.6-.6 1.7 0 2.3l13.9 14.2c.6.6 1.7.6 2.3 0l13.8-13c.7-.6.7-1.7.1-2.3l-13.9-15.2c-.7-.7-1.7-.7-2.4 0 0-.1 0-.1 0 0zm19.5 19.5l-13.8 14c-.6.6-.6 1.7 0 2.3l13.9 14.2c.6.6 1.7.6 2.3 0l13.8-13c.7-.6.7-1.7.1-2.3l-13.9-15.1c-.7-.7-1.7-.8-2.4-.1 0-.1 0-.1 0 0zm21.8 21.8l-13.8 13.9c-.6.6-.6 1.7 0 2.3l13.9 14.2c.6.6 1.7.6 2.3 0l13.8-13c.7-.6.7-1.7.1-2.3l-13.9-15.2c-.6-.6-1.7-.6-2.4.1zm21.1 21.2l-13.8 13.9c-.6.6-.6 1.7 0 2.3l13.9 14.2c.6.6 1.7.6 2.3 0l13.8-13c.7-.6.7-1.7.1-2.3l-13.9-15.1c-.6-.7-1.7-.7-2.4 0 0-.1 0-.1 0 0zm21.2 21.1l-13.8 14c-.6.6-.6 1.7 0 2.3l13.9 14.2c.6.6 1.7.6 2.3 0l13.8-13c.7-.6.7-1.7.1-2.3l-13.9-15.2c-.6-.7-1.7-.7-2.4 0 0-.1 0-.1 0 0zm21.1 21.1l-13.8 14c-.6.6-.6 1.7 0 2.3l13.8 14.2c.6.6 1.7.7 2.3 0l13.8-13c.7-.6.7-1.7.1-2.3l-13.9-15.2c-.5-.6-1.6-.6-2.3 0 .1 0 0 0 0 0zM1063.9-14.5l-11.1 11.2c-1.4 1.4-1.4 3.6 0 5l11.3 11.6c1.3 1.4 3.6 1.5 5 .1l11.1-10.5c1.4-1.3 1.5-3.6.2-5L1069-14.4c-1.3-1.4-3.6-1.5-5-.2 0 0-.1 0-.1.1zm-44 44l-11.1 11.2c-1.4 1.4-1.4 3.6 0 5l11.3 11.5c1.3 1.4 3.5 1.4 5 .1l11.1-10.5c1.4-1.3 1.5-3.5.2-5L1025 29.6c-1.3-1.4-3.5-1.5-5-.2 0 0-.1 0-.1.1zm64.7-23.3l-11.1 11.2c-1.4 1.4-1.4 3.6 0 5l11.3 11.6c1.4 1.4 3.6 1.5 5 .1l11.1-10.5c1.4-1.3 1.5-3.6.2-5l-11.3-12.3c-1.3-1.4-3.5-1.5-5-.2 0 0-.1 0-.2.1zm21.8 21.8l-11.1 11.2c-1.4 1.4-1.4 3.6 0 5l11.3 11.6c1.3 1.4 3.6 1.5 5 .1l11.1-10.5c1.4-1.3 1.5-3.6.2-5l-11.3-12.3c-1.3-1.4-3.6-1.6-5-.2-.1 0-.1 0-.2.1zm22 22l-11.1 11.2c-1.4 1.4-1.4 3.6 0 5l11.3 11.6c1.3 1.4 3.6 1.4 5 .1l11.1-10.5c1.4-1.3 1.5-3.6.2-5l-11.3-12.3c-1.3-1.5-3.6-1.6-5-.3-.1.1-.1.2-.2.2zm-87-.5l-11.1 11.2c-1.4 1.4-1.4 3.6 0 5l11.3 11.6c1.3 1.4 3.6 1.5 5 .1l11.1-10.5c1.4-1.3 1.5-3.6.2-5l-11.3-12.3c-1.3-1.4-3.5-1.6-5-.3-.1.1-.2.1-.2.2zm21.7 21.8L1052 82.5c-1.4 1.4-1.4 3.6 0 5l11.3 11.6c1.3 1.4 3.6 1.5 5 .1l11.1-10.5c1.4-1.3 1.5-3.6.2-5l-11.3-12.3c-1.3-1.5-3.5-1.6-5-.3-.1 0-.1.1-.2.2zm22.1 22l-11.1 11.2c-1.4 1.4-1.4 3.6 0 5l11.3 11.6c1.4 1.4 3.6 1.5 5 .1l11.1-10.5c1.4-1.3 1.5-3.5.2-5l-11.3-12.3c-1.3-1.5-3.5-1.6-5-.3-.1.1-.2.1-.2.2zm65.3-21.3l-11.1 11.3c-1.4 1.4-1.4 3.6 0 5l11.3 11.6c1.3 1.4 3.6 1.5 5 .1l11.1-10.5c1.4-1.3 1.5-3.6.2-5l-11.3-12.3c-1.3-1.4-3.5-1.6-5-.2h-.2zm22 22.1l-11.1 11.2c-1.4 1.4-1.4 3.6 0 5l11.3 11.6c1.3 1.4 3.6 1.5 5 .1l11.1-10.5c1.4-1.3 1.5-3.5.2-5l-11.3-12.4c-1.3-1.4-3.5-1.5-5-.2-.1.1-.2.1-.2.2zm23.4 20.6l-13.8 14c-.6.6-.6 1.7 0 2.3l13.9 14.1c.6.6 1.7.6 2.3 0l13.8-13c.7-.6.7-1.7.1-2.3l-13.9-15.2c-.6-.6-1.7-.6-2.4.1 0-.1 0 0 0 0zm19.5 19.5l-13.8 14c-.6.6-.6 1.7 0 2.3l13.9 14.2c.6.6 1.7.6 2.3 0l13.8-13c.7-.6.7-1.7.1-2.3l-13.9-15.2c-.6-.7-1.6-.7-2.4 0 .1-.1 0-.1 0 0zm21.9 21.8l-13.8 14c-.6.6-.6 1.7 0 2.3l13.9 14.2c.6.6 1.7.6 2.3 0l13.8-13c.7-.6.7-1.7.1-2.3l-13.9-15.2c-.7-.6-1.7-.6-2.4 0zm21.1 21.2l-13.8 14c-.6.6-.6 1.7 0 2.3l13.9 14.2c.6.6 1.7.6 2.3 0l13.8-13c.7-.6.7-1.7.1-2.3l-13.9-15.2c-.6-.7-1.6-.7-2.4 0 .1-.1 0-.1 0 0zM1085.5 48.9l-11.1 11.2c-1.4 1.4-1.4 3.6 0 5l11.3 11.6c1.3 1.4 3.6 1.5 5 .1l11.1-10.5c1.4-1.3 1.5-3.6.2-5L1090.7 49c-1.3-1.4-3.5-1.5-5-.2-.1 0-.2.1-.2.1zm22 22.1l-11.1 11.2c-1.4 1.4-1.4 3.6 0 5l11.3 11.6c1.3 1.4 3.6 1.5 5 .1l11.1-10.5c1.4-1.3 1.5-3.6.2-5l-11.3-12.3c-1.3-1.4-3.5-1.6-5-.3-.1 0-.1.1-.2.2zm22 22l-11.1 11.2c-1.4 1.4-1.4 3.6 0 5l11.3 11.6c1.3 1.4 3.6 1.5 5 .1l11.1-10.5c1.4-1.3 1.5-3.6.2-5l-11.3-12.3c-1.3-1.4-3.6-1.5-5-.2 0 0-.1 0-.2.1zm22.1 22l-11.1 11.2c-1.4 1.4-1.4 3.6 0 5l11.3 11.6c1.3 1.4 3.6 1.5 5 .1l11.1-10.5c1.4-1.3 1.5-3.6.2-5l-11.3-12.3c-1.3-1.4-3.5-1.5-5-.2-.1 0-.2 0-.2.1zm23.4 20.6l-13.8 13.9c-.6.6-.6 1.7 0 2.3l13.9 14.2c.6.6 1.7.6 2.3 0l13.8-13c.7-.6.7-1.7.1-2.3l-13.9-15.2c-.6-.5-1.7-.6-2.4.1zm19.5 19.6l-13.8 13.9c-.6.6-.6 1.7 0 2.3l13.9 14.2c.6.6 1.7.6 2.3 0l13.8-13c.7-.6.7-1.7.1-2.3l-13.9-15.2c-.6-.6-1.7-.6-2.4.1 0-.1 0-.1 0 0zm21.8 21.8l-13.8 14c-.6.6-.6 1.7 0 2.3l13.9 14.2c.6.6 1.7.7 2.3 0l13.8-13c.7-.6.7-1.7.1-2.3l-13.9-15.2c-.6-.6-1.6-.7-2.4 0 .1-.1 0-.1 0 0zm21.2 21.2l-13.8 13.9c-.6.6-.6 1.7 0 2.3l13.9 14.2c.6.6 1.7.7 2.3 0l13.8-13c.7-.6.7-1.7.1-2.3l-13.8-15.2c-.6-.7-1.6-.7-2.3-.1-.2.1-.2.1-.2.2zm42.1.1l-13.8 14c-.6.6-.6 1.7 0 2.3l13.9 14.2c.6.6 1.7.7 2.3 0l13.8-13c.7-.6.7-1.7.1-2.3l-13.9-15.1c-.6-.7-1.7-.7-2.4-.1zm21.1 21.2l-13.8 13.9c-.6.6-.6 1.7 0 2.3l13.9 14.2c.6.6 1.7.7 2.3 0l13.8-13c.7-.6.7-1.7.1-2.3l-13.9-15.2c-.6-.5-1.6-.6-2.4.1.1-.1 0 0 0 0zm-107.1-19.8l-13 13.1c-.8.9-.8 2.2 0 3.1l13.1 13.4c.8.9 2.2.9 3.1.1l13-12.2c.9-.8.9-2.2.1-3.1l-13.1-14.3c-.8-.9-2.2-1-3.2-.1zm21.1 21.2l-13 13.1c-.8.9-.8 2.2 0 3.1l13.1 13.4c.8.9 2.2.9 3.1.1l13-12.2c.9-.8.9-2.2.1-3.1l-13.1-14.3c-.8-1-2.3-1-3.2-.1zm21.2 21.1l-13 13.1c-.8.9-.8 2.2 0 3.1l13.1 13.4c.8.9 2.2.9 3.1.1l13-12.2c.9-.8.9-2.2.1-3.1l-13.1-14.3c-.8-.9-2.2-1-3.1-.2 0 .1-.1.1-.1.1zm21.5 20.8l-13.8 14c-.6.6-.6 1.7 0 2.3l13.9 14.2c.6.6 1.7.6 2.3 0l13.8-13c.7-.6.7-1.7.1-2.3l-13.9-15.2c-.6-.7-1.6-.7-2.4 0 .1-.1.1-.1 0 0zM1042.1 6.1l-11.8 12.1c-1.4 1.4-1.4 3.6 0 5l33 32.7c1.4 1.3 3.5 1.4 4.9.1l12.3-11.6c1.4-1.3 1.5-3.6.2-5l-.1-.1-33.5-33.1c-1.4-1.5-3.6-1.5-5-.1zm216 213.3l-14.5 14.7c-.6.7-.6 1.7 0 2.3l35.6 35.3c.6.6 1.7.6 2.3 0l15.1-14.2c.7-.6.7-1.7 0-2.3l-36.2-35.8c-.7-.6-1.7-.6-2.3 0zM1107.9 114l-13.8 13.7c-.6.6-.6 1.7 0 2.3l76.8 78.7c.6.6 1.7.6 2.3 0l15-14.2c.7-.6.7-1.7 0-2.3l-78-78.2c-.6-.7-1.7-.7-2.3 0z" opacity=".1"/>
  <path fill="#464A5F" d="M1084-37.1l-11.1 11.3c-1.4 1.4-1.4 3.6 0 5l11.3 11.6c1.4 1.4 3.6 1.5 5 .1l11.1-10.5c1.4-1.3 1.5-3.5.2-5l-11.3-12.3c-1.3-1.4-3.5-1.6-5-.3-.1 0-.1.1-.2.1zm20.8 20.8l-11.1 11.2c-1.4 1.4-1.4 3.6 0 5l11.3 11.6c1.3 1.4 3.6 1.5 5 .1l11.1-10.5c1.4-1.3 1.5-3.6.2-5L1110-16.2c-1.3-1.4-3.5-1.5-5-.2-.1 0-.2 0-.2.1zm21.8 21.7l-11.1 11.2c-1.3 1.4-1.3 3.6 0 5l11.3 11.5c1.4 1.4 3.6 1.5 5 .1l11.1-10.5c1.4-1.3 1.5-3.6.2-5l-11.3-12.3c-1.3-1.4-3.6-1.5-5-.2l-.2.2zm22 22.1l-11.1 11.2c-1.4 1.4-1.4 3.6 0 5l11.3 11.6c1.4 1.4 3.6 1.5 5 .1l11.1-10.5c1.4-1.3 1.5-3.5.2-5l-11.3-12.4c-1.3-1.4-3.6-1.5-5-.2-.1.1-.2.1-.2.2zm22 22l-11.1 11.2c-1.4 1.4-1.4 3.6 0 5l11.3 11.6c1.4 1.4 3.6 1.5 5 .1l11.1-10.5c1.4-1.3 1.5-3.5.2-5l-11.3-12.3c-1.3-1.5-3.5-1.6-5-.3l-.2.2zm23.4 20.7l-13.8 13.9c-.6.6-.6 1.7 0 2.3l13.9 14.2c.6.6 1.7.7 2.3 0l13.8-13c.7-.6.7-1.7.1-2.3l-13.9-15.2c-.6-.6-1.7-.6-2.4.1.1-.1 0-.1 0 0zm22.1 22l-13.8 14c-.6.6-.6 1.7 0 2.3l13.9 14.2c.6.6 1.7.6 2.3 0l13.8-13c.7-.6.7-1.7.1-2.3l-13.9-15.2c-.7-.7-1.7-.7-2.4 0 0-.1 0-.1 0 0zm19.5 19.4l-13.8 13.9c-.6.6-.6 1.7 0 2.3l13.9 14.3c.6.6 1.7.6 2.3 0l13.8-13c.7-.6.7-1.7.1-2.3l-13.9-15.1c-.7-.7-1.7-.7-2.4-.1zm21.8 21.9l-13.8 13.9c-.6.6-.6 1.7 0 2.3l13.9 14.2c.6.6 1.7.7 2.3 0l13.8-13c.7-.6.7-1.7.1-2.3l-13.9-15.2c-.6-.6-1.7-.6-2.4.1 0-.1 0 0 0 0zm21.1 21.1l-13.8 13.9c-.6.6-.6 1.7 0 2.3l13.9 14.3c.6.6 1.7.6 2.3 0l13.8-13c.7-.6.7-1.7.1-2.3l-13.9-15.2c-.6-.6-1.7-.6-2.4 0zm21.2 21.2l-13.8 14c-.6.6-.6 1.7 0 2.3l13.9 14.2c.6.6 1.7.6 2.3 0l13.8-13c.7-.6.7-1.7.1-2.3l-13.9-15.2c-.6-.6-1.7-.7-2.4 0 0-.1 0 0 0 0zm21.1 21.1l-13.8 14c-.6.6-.6 1.7 0 2.3l13.8 14.2c.6.6 1.7.6 2.3 0l13.8-13c.7-.6.7-1.7.1-2.3l-13.9-15.2c-.5-.6-1.6-.6-2.3 0 .1 0 0 0 0 0zM1063.9-16.9l-11.1 11.2c-1.4 1.4-1.4 3.6 0 5l11.3 11.6c1.3 1.4 3.6 1.5 5 .1L1080.2.5c1.4-1.3 1.5-3.6.2-5L1069-16.8c-1.3-1.4-3.6-1.5-5-.2 0 0-.1 0-.1.1zm-44 43.9l-11.1 11.3c-1.4 1.4-1.4 3.6 0 5l11.3 11.6c1.3 1.4 3.5 1.4 5 .1l11.1-10.5c1.4-1.3 1.5-3.6.2-5L1025 27.2c-1.3-1.4-3.5-1.6-5.1-.2.1-.1 0 0 0 0zm64.7-23.2L1073.5 15c-1.4 1.4-1.4 3.6 0 5l11.3 11.6c1.3 1.4 3.6 1.5 5 .1l11.1-10.5c1.4-1.3 1.5-3.6.2-5l-11.3-12.3c-1.3-1.4-3.5-1.5-5-.2 0 0-.1 0-.2.1zm21.8 21.8l-11.1 11.2c-1.4 1.4-1.4 3.6 0 5l11.3 11.6c1.3 1.4 3.6 1.5 5 .1l11.1-10.5c1.4-1.3 1.5-3.6.2-5l-11.3-12.3c-1.3-1.4-3.6-1.5-5-.2-.1 0-.2 0-.2.1zm22 22l-11.1 11.2c-1.4 1.4-1.4 3.6 0 5l11.3 11.6c1.3 1.4 3.5 1.4 5 .1l11.1-10.5c1.4-1.3 1.5-3.6.2-5l-11.3-12.3c-1.3-1.4-3.6-1.5-5-.2-.1 0-.1 0-.2.1zm-87-.5l-11.1 11.2c-1.4 1.4-1.4 3.6 0 5l11.3 11.6c1.3 1.4 3.6 1.5 5 .1l11.1-10.5c1.4-1.3 1.5-3.6.2-5l-11.3-12.3c-1.3-1.4-3.5-1.5-5-.2-.2 0-.2 0-.2.1zm21.7 21.7L1052 80.1c-1.4 1.4-1.4 3.6 0 5l11.3 11.6c1.4 1.4 3.6 1.5 5 .1l11.1-10.5c1.4-1.3 1.5-3.6.2-5L1068.3 69c-1.3-1.4-3.6-1.6-5-.2-.1-.1-.1 0-.2 0zm22.1 22.1l-11.1 11.3c-1.4 1.4-1.4 3.6 0 5l11.3 11.6c1.4 1.4 3.6 1.5 5 .1l11.1-10.5c1.4-1.3 1.5-3.5.2-5l-11.3-12.3c-1.3-1.5-3.5-1.6-5-.3-.1 0-.2 0-.2.1zm65.3-21.3l-11.1 11.2c-1.4 1.4-1.4 3.6 0 5l11.3 11.6c1.3 1.4 3.6 1.5 5 .1l11.1-10.5c1.4-1.3 1.5-3.5.2-5l-11.3-12.3c-1.3-1.4-3.5-1.6-5-.3l-.2.2zm22 22l-11.1 11.2c-1.4 1.4-1.4 3.6 0 5l11.3 11.6c1.3 1.4 3.6 1.5 5 .1l11.1-10.5c1.4-1.3 1.5-3.5.2-5l-11.3-12.3c-1.3-1.5-3.5-1.6-5-.3-.1.1-.1.2-.2.2zm23.4 20.7l-13.8 14c-.6.6-.6 1.7 0 2.3l13.9 14.2c.6.6 1.7.6 2.3 0l13.8-13c.7-.6.7-1.7.1-2.3l-13.9-15.2c-.6-.7-1.7-.7-2.4 0 0-.1 0-.1 0 0zm19.5 19.5l-13.8 14c-.6.6-.6 1.7 0 2.3l13.9 14.2c.6.6 1.7.6 2.3 0l13.8-13c.7-.6.7-1.7.1-2.3l-13.9-15.2c-.6-.7-1.7-.7-2.4 0 .1-.1 0-.1 0 0zm21.9 21.8l-13.8 14c-.6.6-.6 1.7 0 2.3l13.9 14.2c.6.6 1.7.6 2.3 0l13.8-13c.7-.6.7-1.7.1-2.3l-13.9-15.1c-.7-.7-1.7-.8-2.4-.1zm21.1 21.2l-13.8 14c-.6.6-.6 1.7 0 2.3l13.9 14.2c.6.6 1.7.6 2.3 0l13.8-13c.7-.6.7-1.7.1-2.3l-13.9-15.2c-.6-.7-1.7-.7-2.4 0 .1-.1 0-.1 0 0zM1085.5 46.5l-11.1 11.2c-1.4 1.4-1.4 3.6 0 5l11.3 11.6c1.3 1.4 3.6 1.5 5 .1l11.1-10.5c1.4-1.3 1.5-3.6.2-5l-11.3-12.3c-1.3-1.4-3.5-1.5-5-.2-.1 0-.2.1-.2.1zm22 22l-11.1 11.2c-1.4 1.4-1.4 3.6 0 5l11.3 11.6c1.3 1.4 3.6 1.5 5 .1l11.1-10.5c1.4-1.3 1.5-3.6.2-5l-11.3-12.3c-1.3-1.5-3.5-1.6-5-.3-.1.1-.1.2-.2.2zm22 22.1l-11.1 11.2c-1.4 1.4-1.4 3.6 0 5l11.3 11.6c1.3 1.4 3.6 1.5 5 .1l11.1-10.5c1.4-1.3 1.5-3.6.2-5l-11.3-12.3c-1.3-1.4-3.5-1.5-5-.2 0-.1-.1 0-.2.1zm22.1 22l-11.1 11.2c-1.4 1.4-1.4 3.6 0 5l11.3 11.6c1.3 1.4 3.6 1.5 5 .1l11.1-10.5c1.4-1.3 1.5-3.6.2-5l-11.3-12.3c-1.3-1.5-3.5-1.6-5-.3-.1.1-.2.1-.2.2zm23.4 20.6l-13.8 14c-.6.6-.6 1.7 0 2.3l13.9 14.2c.6.6 1.7.7 2.3 0l13.8-13c.7-.6.7-1.7.1-2.3l-13.9-15.1c-.6-.7-1.7-.8-2.4-.1zm19.5 19.5l-13.8 13.9c-.6.6-.6 1.7 0 2.3l13.9 14.2c.6.6 1.7.7 2.3 0l13.8-13c.7-.6.7-1.7.1-2.3l-13.9-15.1c-.6-.6-1.7-.7-2.4 0zm21.8 21.8l-13.8 14c-.6.6-.6 1.7 0 2.3l13.9 14.2c.6.6 1.7.6 2.3 0l13.8-13c.7-.6.7-1.7.1-2.3l-13.9-15.2c-.6-.6-1.6-.6-2.4 0 .1 0 0 0 0 0zm21.2 21.2l-13.8 13.9c-.6.6-.6 1.7 0 2.3l13.9 14.2c.6.6 1.7.6 2.3 0l13.8-13c.7-.6.7-1.7.1-2.3l-13.8-15.1c-.6-.7-1.6-.7-2.3-.1-.2 0-.2.1-.2.1zm42.1.2l-13.8 14c-.6.6-.6 1.7 0 2.3l13.9 14.2c.6.6 1.7.6 2.3 0l13.8-13c.7-.6.7-1.7.1-2.3L1282 196c-.7-.7-1.7-.8-2.4-.1zm21.1 21.2l-13.8 14c-.6.6-.6 1.7 0 2.3l13.9 14.2c.6.6 1.7.6 2.3 0l13.8-13c.7-.6.7-1.7.1-2.3l-13.9-15.1c-.6-.7-1.6-.8-2.4-.1 0-.1 0-.1 0 0zm-107.1-19.8l-13 13.1c-.8.9-.8 2.2 0 3.1l13.1 13.4c.8.9 2.2.9 3.1.1l13-12.2c.9-.8.9-2.2.1-3.1l-13.1-14.3c-.8-.9-2.3-1-3.2-.1zm21.1 21.2l-13 13.1c-.8.9-.8 2.2 0 3.1l13.1 13.5c.9.8 2.2.8 3.1 0l13-12.2c.9-.8.9-2.2.1-3.1l-13.1-14.3c-.8-1-2.3-1-3.2-.1 0-.1 0-.1 0 0zm21.2 21.1l-13 13.1c-.8.9-.8 2.2 0 3.1l13.1 13.5c.8.9 2.2.9 3.1.1l13-12.2c.9-.8.9-2.2.1-3.1l-13.1-14.3c-.8-1-2.2-1.1-3.2-.2.1-.1 0 0 0 0zm21.5 20.7l-13.8 14c-.6.6-.6 1.7 0 2.3l13.9 14.2c.6.6 1.7.7 2.3 0l13.8-13c.7-.6.7-1.7.1-2.3l-13.9-15.2c-.6-.6-1.6-.6-2.4 0 .1 0 .1 0 0 0zM1042.1 3.7l-11.8 12.1c-1.4 1.4-1.4 3.6 0 5l33 32.7c1.4 1.3 3.5 1.4 4.9.1l12.3-11.6c1.4-1.3 1.5-3.6.2-5l-.1-.1-33.5-33.1c-1.4-1.5-3.6-1.5-5-.1zm216 213.3l-14.5 14.8c-.6.7-.6 1.7 0 2.3l35.6 35.3c.6.6 1.7.6 2.3 0l15.1-14.2c.7-.6.7-1.7 0-2.3l-36.2-35.8c-.7-.7-1.7-.7-2.3-.1zm-150.2-105.4l-13.8 13.7c-.6.6-.6 1.7 0 2.3l76.8 78.7c.6.6 1.7.6 2.3 0l15-14.2c.7-.6.7-1.7 0-2.3l-78-78.2c-.6-.7-1.7-.7-2.3 0z"/>
  <path d="M1053.7 121.2l-60.6 60.2c-3.5 3.5-3.5 9.1-.1 12.7l112.1 115.2c3.5 3.6 9.2 3.6 12.7.2l62.4-61.4c3.5-3.5 3.6-9.2.1-12.7l-113.9-114c-3.3-3.6-8.9-3.8-12.5-.4l-.2.2z" opacity=".1"/>
  <path fill="#BFC3CA" d="M1053.7 118.7L993.1 179c-3.5 3.5-3.5 9.1-.1 12.7l112.1 115.2c3.5 3.6 9.2 3.6 12.7.2l62.4-61.4c3.5-3.5 3.6-9.2.1-12.7l-113.9-114c-3.5-3.8-9.1-3.8-12.7-.3z"/>
  <path fill="#377DFF" d="M1112-197.4l-15.4 107.3L1381 193.4 1395.5 87c.8-5.8-1.2-11.7-5.3-15.8l-271.9-270.7c-1.5-1.5-3.8-1.4-5.3 0-.6.6-.9 1.3-1 2.1z"/>
  <ellipse cx="752.1" cy="319.7" fill="#796EFF" opacity=".1" rx="23.1" ry="3.2"/>
  <ellipse cx="663.6" cy="328.6" fill="#796EFF" opacity=".1" rx="23.1" ry="3.2"/>
  <ellipse cx="559.3" cy="316.5" fill="#796EFF" opacity=".1" rx="23.1" ry="3.2"/>
  <ellipse cx="699" cy="354.2" fill="#796EFF" opacity=".1" rx="16.4" ry="2.3"/>
  <ellipse cx="607.1" cy="351.9" fill="#796EFF" opacity=".1" rx="16.4" ry="2.3"/>
  <path fill="#377DFF" d="M663.1 327.9s32.4-106.3-5.1-148.8c-28-31.8-59.9-28-74.1-24.1-7.5 2-13.7 7.1-17 14.1-5 10.8-4.1 28.2 31.1 48.6 58.9 34.1 62.6 80.9 62.6 80.9l2.5 29.3z"/>
  <path fill="none" stroke="#FFF" stroke-miterlimit="10" d="M588.9 170.1S684.5 200 663 327.9m-18.3-147.1s-13.1 8.9-9 22.2m-37.2-14.3s8-8.2 17.8-3.7m20 44.8s14.1-7.2 17.8 1.8m17.1 13.2s-10.6-.8-10.8 4.2"/>
  <path fill="#377DFF" d="M664.4 328.8s-38-77.2-48.4-75.5c-4.9.8-7.2 5.7-8.3 10.6-1.3 6.3-.6 12.9 2.1 18.8 5.4 12.3 19.8 35.7 54.6 46.1z"/>
  <path fill="none" stroke="#FFF" stroke-miterlimit="10" d="M616.3 267.9s39.8 57.8 47.5 60.3m-51.2-51.3h9.3m1.8 21.2l14.6.6m-5.7-17.6l-1.6 7.6m17.1 15.6l-.3 6.8"/>
  <path fill="#377DFF" d="M663.2 328.8s38-77.2 48.4-75.5c5 .8 7.2 5.7 8.3 10.6 1.3 6.3.6 12.9-2.1 18.8-5.4 12.3-19.8 35.7-54.6 46.1z"/>
  <path fill="none" stroke="#FFF" stroke-miterlimit="10" d="M711.4 267.9s-39.9 57.8-47.5 60.3m51.1-51.3h-9.3m-1.8 21.2l-14.6.6m5.7-17.6l1.6 7.6m-17.1 15.6l.3 6.8"/>
  <path fill="#377DFF" d="M598 346.8c-1-.8-1.8-2-2.2-3.3-.3-1.3.3-2.7 1.5-3.3 1.4-.5 2.9.4 4 1.4s2.4 2.1 3.9 1.9c-1.5-1.4-2.2-3.5-1.8-5.5.1-.4.2-.8.5-1.1.8-.8 2.2-.5 3.1.2 2.9 2.1 3.8 6 3.8 9.6.2-1.3.2-2.7.1-4-.1-1.3.4-2.7 1.5-3.5.7-.4 1.5-.6 2.3-.5 1.3-.2 2.7.2 3.7 1 1.1 1.2.8 3.2-.1 4.5-1.1 1.2-2.4 2.3-3.8 3.1-1.1.6-2 1.5-2.7 2.6-.1.1-.1.3-.2.5h-8.3c-2-1.1-3.7-2.2-5.3-3.6zm144.7-31.1c-1-.8-1.8-2-2.2-3.3-.3-1.3.3-2.7 1.5-3.3 1.4-.5 2.9.4 4 1.4s2.4 2.1 3.9 1.9c-1.5-1.4-2.2-3.5-1.8-5.5.1-.4.2-.8.5-1.1.8-.8 2.2-.5 3.1.2 2.9 2.1 3.8 6 3.8 9.6.2-1.3.2-2.7.1-4-.1-1.3.4-2.7 1.5-3.5.7-.4 1.5-.6 2.3-.5 1.3-.2 2.6.2 3.7 1 1.1 1.2.8 3.2-.1 4.5-1.1 1.2-2.4 2.2-3.8 3-1.1.7-2 1.5-2.7 2.6-.1.1-.2.3-.2.5H748c-2-1-3.7-2.1-5.3-3.5zm-48.2 31.1c-1-.8-1.8-2-2.2-3.3-.3-1.3.3-2.7 1.5-3.3 1.4-.5 2.9.4 4 1.4s2.4 2.1 3.9 1.9c-1.5-1.4-2.2-3.5-1.8-5.5.1-.4.2-.8.5-1.1.8-.8 2.2-.5 3.1.2 2.9 2.1 3.8 6 3.8 9.6.2-1.3.2-2.7 0-4-.1-1.3.4-2.6 1.5-3.5.7-.4 1.5-.6 2.3-.5 1.3-.2 2.7.2 3.7 1 1.1 1.2.8 3.2-.1 4.5-1.1 1.2-2.4 2.3-3.8 3.1-1.1.6-2 1.5-2.7 2.6-.1.1-.1.3-.2.5h-8.3c-1.9-1-3.7-2.2-5.2-3.6zm-136.7-62.9s-3.1 4 1.4 10.2 8.3 11.3 6.8 15.1c0 0-6.8-11.4-12.4-11.5-5.6-.1-1.9-6.9 4.2-13.8z"/>
  <path d="M557.8 283.9c-.3.4-.5.8-.6 1.3-5.4 6.4-8.3 12.3-3.1 12.5 4.9.1 10.7 8.8 12.1 11 0 .2-.1.3-.2.5 0 0-6.8-11.4-12.4-11.5-5.6-.1-1.9-6.9 4.2-13.8z" opacity=".1"/>
  <path fill="#FFD037" d="M552 289.1c0 1.4.2 2.6.4 2.6s.4-1.2.4-2.6-.2-.8-.4-.8-.4-.6-.4.8z"/>
  <path fill="#FFD037" d="M550 290.8c1.3.7 2.3 1.1 2.4.9.1-.2-.8-.9-2.1-1.5s-.8-.2-.9 0c-.1.2-.6 0 .6.6z"/>
  <path fill="#377DFF" d="M574.1 283.9s3.1 4-1.4 10.2-8.3 11.3-6.8 15.1c0 0 6.8-11.4 12.4-11.5 5.6-.1 1.9-6.9-4.2-13.8z"/>
  <path d="M574.1 283.9c.3.4.5.8.6 1.3 5.4 6.4 8.3 12.3 3.1 12.5-4.9.1-10.7 8.8-12.1 11 0 .2.1.3.2.5 0 0 6.8-11.4 12.4-11.5 5.6-.1 1.9-6.9-4.2-13.8z" opacity=".1"/>
  <path fill="#FFD037" d="M579.9 289.1c0 1.4-.2 2.6-.4 2.6s-.4-1.2-.4-2.6.2-.8.4-.8.4-.6.4.8z"/>
  <path fill="#FFD037" d="M581.9 290.8c-1.3.7-2.3 1.1-2.4.9s.9-.9 2.1-1.5c1.2-.6.8-.2.9 0s.6 0-.6.6z"/>
  <path fill="#A8A8A8" d="M578.9 308.7s-8.7-.3-11.3-2.1c-2.6-1.8-13.3-4.1-14-1.1s-13 14.8-3.2 14.9 22.7-1.5 25.3-3.1 3.2-8.6 3.2-8.6z"/>
  <path d="M550.3 319.3c9.8.1 22.7-1.5 25.3-3.1 2-1.2 2.8-5.5 3-7.5h.3s-.6 7-3.1 8.6-15.6 3.2-25.3 3.1c-2.8 0-3.8-1-3.8-2.5.4.8 1.5 1.4 3.6 1.4z" opacity=".2"/>
  <linearGradient id="a" x1="3274.476" x2="3274.476" y1="587.867" y2="959.947" gradientTransform="rotate(180 2000.04 395.73)" gradientUnits="userSpaceOnUse">
    <stop offset="0" stop-color="gray" stop-opacity=".25"/>
    <stop offset=".54" stop-color="gray" stop-opacity=".12"/>
    <stop offset="1" stop-color="gray" stop-opacity=".1"/>
  </linearGradient>
  <path fill="url(#a)" d="M629.5-28.6c-.2 4.2 3.4 9.8 3.4 9.8 1.1 2.7 14.6 14.9 14.6 14.9l10 6.7c-2 1.5-4.1 2.8-6.3 4-4.9 2.5-7.5 10.7-7.5 10.7s-7.4 17.7 7.5 20.2h.3l1.3 1.5c3.3 3.6 7.3 7.8 8.7 8.8 2.5 1.7 10.2 14.6 10.2 14.6s8.1 13.4 19 14 10.8-11.8 10-12.6c-.3-.5-.6-1.1-.7-1.7 2.6 4.2 6.1 9.6 7.3 10.4 1.9 1.2 8 11 8 11s7.7 17.6 8.9 19.4 3.5 11.2 3.5 11.2 4.4 12.9 6.4 14.6 3.1 7.9 3.1 7.9l7.5 10.9c1.3 2.3 2.4 4.6 3.5 7 0 0 3.5 5.6 3.5 7.8s7.2 5.9 7.2 5.9 5.2 6.1 8.2 7.2 5.8 8.2 6.3 7.8c.3-.1.6-.2.9-.2l1.2 1.2c4.8 4.7 14.3 14.2 16.7 16.4 3.3 3 10.8 3.4 17.1 2.2 3.2-.6 7.1-3.7 10.2-6.5 2.8-2.6 3-7.1.3-9.9l-.2-.2c-3-2.9-6.5-6.1-8-6.5-2.8-.9-10.8-6.5-14.6-11.2-2-2.4-5.5-4.7-8.5-6.4l-.4-.2c-.5-1.7-.8-3.5-.9-5.2 0 0 5.2-11.7 2.4-12.3s-13.5-19.1-13.5-19.1c-.1-14-13-25.8-13-25.8s-6.4-15.2-8.3-18.5c-1.1-1.7-1.1-3.9 0-5.6 0 0-3.6-2.8-4.2-4.2-.6-1.4-3.6-12-3.6-12s-3.6-6.4-3.8-9.3-7.2-11.2-7.2-11.2-2.9-13.9-6-16.3c-.6-.5-.5-2.3 0-4.9l.1-.2.5-.5.1-.1c1.4-1.4 2.8-2.9 4.1-4.5l.1-.1c.2-.3.4-.5.6-.7 4.5-6.2 7.4-21 7.4-21s.9-.4 2.1-1.1c1.6-.8 3.2-1.9 4.5-3.1.1-.1.1-.2.2-.2v-.1c0-.1.1-.1.1-.2v-1.2c0-.1 0-.2-.1-.4v-.1c0-.1-.1-.2-.1-.3v-.1l-.1-.4v-.1c-.2-.5-.4-1-.7-1.5l-.3-.5c-.5-.9-1-1.8-1.5-2.6l-.1-.1c1.1-3.1 3.2-8.6 5.2-10.5 2.8-2.8-1.6-17.7-1.6-17.7s-.9-10.6-2.2-13.7c-1.3-3.1 0-3.6-1-6.2-1.2-3-2.1-2.8-.5-9.6.6-2.6 1.5-5.4 2.3-8.1l1 .9c5.8 5.5 14.9 12.6 14.9 12.6s17.9 16.2 19.5 16.6 6.3 16.3 6.3 16.3-1.1 26.3 13.3 27.4c6.1.5 8.7-4.3 9.7-9.9 1.4-8.8-1.2-17.7-7.1-24.4l-8.6-9.8-7.7-13.7c-4.9-7.7-9-15.9-12.3-24.4-3.5-8.4-8.6-15.9-15.1-22.3l-.6-.6.8-.7s-1.3-10.3-2.2-11.5-4.4-8.4-4.4-10-2.2-1.9-3.5-3.7c0 0-2.2-4.4-4.2-5-.4-.1-.7-.4-1-.6-3.6-3.2-8.1-5.1-12.8-5.6l-1.3-.1c-2.8-.1-5.6-.1-8.3.1h-.1c-2.1-.6-3.7-2.3-5.4-3.8-2.7-2.4-5.6-4.4-8.8-6.1-3.3-1.7-6.9-3-10.6-2.4-2.8.5-5.4 2-8.1 2.8-3.9 1.1-8.8.9-11.3 4.1-1.2 1.5-1.5 3.6-2.6 5.2-1.6 2.3-4.5 3.3-6.1 5.5a8.3 8.3 0 0 0-1.4 5.5c-.1 1.6.1 3.2.6 4.7.4 1.3.7 2.6.9 4 0 .2-.1.4-.1.7-.2 1-.7 1.8-.9 2.8-.1.5-.1 1.1 0 1.6-.3 2.4 1.2 4.7 2.3 6.9.8 1.7 1.3 3.6 1.6 5.5-2.6.8-5.1 1.7-7.6 2.9-3.3 1.6-6.6 3.7-8.4 6.5-3.1 4.3-6.9 8-11.3 10.9-1.4 3.3-2.5 6.8-3.5 10.2-.9 4-1.9 10.6-4.7 14s-4.1 13.6-4.1 13.6-3.8 6.1-3.8 7.3-.5 7 0 8.7c.3.5.6 1 1.1 1.4l-.3 1c-1.6 4.3-3.3 10.9-3.4 13.5zm88.4-70.1c-.1.3-.2.7-.3 1 0-.3 0-.6.1-1h.2zm-35.7 133l-.5-.5-.2-.2c0-.1.1-.2.1-.4l.6 1.1zm-26-63.7l.2-.4.7-1.3 6-4.9.8.7s-.6 6.5-2.2 6.2c-.4-.1-.5 1.4-.6 3.8-2.8-2.4-5-4.1-4.9-4.1z"/>
  <path fill="#464353" d="M710.3-150.5s18.7-1.7 23.1-1.2l1.2.1c4.6.5 9 2.4 12.5 5.5.3.3.6.5 1 .6 2 .6 4.1 4.9 4.1 4.9s-4.7 37.5-4.7 37.9-9.8 17.4-9.8 17.4l-9.5 3.7-16.4 2.3-.5-7.1s7.9-4.3 7-13.3c-.8-8.7-8-50.8-8-50.8z"/>
  <path fill="#ECB4B6" d="M719.5-106s-4 18.1 0 23.9-39.5-9.5-39.5-9.5l-8-14.4s3-2.1 6.4-4.9c4.8-3.8 10.5-8.9 10.5-11 0-3.7 30.6 15.9 30.6 15.9z"/>
  <path d="M719.5-106s-4 18.1 0 23.9-39.5-9.5-39.5-9.5l-8-14.4s3-2.1 6.4-4.9c4.8-3.8 10.5-8.9 10.5-11 0-3.7 30.6 15.9 30.6 15.9z" opacity=".1"/>
  <circle cx="710.3" cy="-120.7" r="26.6" opacity=".1"/>
  <circle cx="710.3" cy="-121.9" r="26.6" fill="#ECB4B6"/>
  <path fill="#ECB4B6" d="M744.7-88.8c.1 1 2 3.1 4.6 5.5 5.7 5.4 14.5 12.4 14.5 12.4s17.5 15.9 19 16.4 6.1 16.1 6.1 16.1-1.1 25.9 13 26.9c6 .5 8.5-4.2 9.4-9.7 1.4-8.6-1.2-17.4-6.9-24l-8.4-9.7-7.5-13.5c-4.8-7.6-8.9-15.6-12.1-24-3.4-8.2-8.4-15.7-14.7-22-1.6-1.6-2.6-2.4-2.6-2.4l-7 2.1c.2 0-7.7 22.8-7.4 25.9z"/>
  <path fill="#C17174" d="M771.5 180.8l2.7 2.7c4.6 4.7 13.9 14 16.3 16.1 3.2 2.9 10.6 3.4 16.7 2.1 3.1-.6 7-3.6 9.9-6.4 2.8-2.6 2.9-6.9.3-9.7-.1-.1-.1-.2-.2-.2-2.9-2.8-6.3-6-7.8-6.5-2.8-.9-10.6-6.4-14.2-11-1.9-2.4-5.4-4.7-8.2-6.3-2.6-1.5-4.8-2.4-4.8-2.4l-10.7 21.6z"/>
  <path d="M775.3 180.8l2.3 2.3c4 4 11.8 11.9 13.9 13.7 2.7 2.5 9 2.9 14.2 1.8 2.3-.5 5.1-2.5 7.5-4.6 2.9-2.5 3.2-6.9.6-9.7l-.4-.4c-2.3-2.2-4.7-4.3-5.8-4.7-2.3-.8-9-5.5-12.1-9.4-2-2.2-4.4-4-7-5.3-2.2-1.3-4-2.1-4-2.1l-9.2 18.4z" opacity=".1"/>
  <path fill="#C17174" d="M649.9 35.4s2.1 2.4 4.6 5.2c3.2 3.5 7.1 7.7 8.5 8.6 2.4 1.7 9.9 14.4 9.9 14.4s8 13.2 18.5 13.8S702 65.8 701.2 65s-1.8-7.7-3.4-12.7c-1.2-3.8-10.6-12.9-15.2-17.1-1.5-1.3-2.4-2.2-2.4-2.2l-30.3 2.4z"/>
  <path d="M652.1 37.2s1.9 2.2 4.2 4.7c2.9 3.2 6.5 7 7.8 7.9 2.2 1.5 9.1 13.1 9.1 13.1s7.3 12 16.9 12.5c9.6.5 9.6-10.6 8.9-11.3-.7-.7-1.7-7-3.1-11.6-1.1-3.5-9.7-11.8-13.9-15.6-1.3-1.2-2.2-2-2.2-2l-27.7 2.3z" opacity=".1"/>
  <path d="M649.9 35.4s2.1 2.4 4.6 5.2c13.4 2 19.7-.3 19.7-.3s6.3-2.8 7.6-2.9c.4 0 .6-.9.9-2.3-1.5-1.3-2.4-2.2-2.4-2.2l-30.4 2.5z" opacity=".1"/>
  <path fill="#5E5A6B" d="M666.1-.7s-8.4 6.9-13.2 9.3c-4.8 2.5-7.3 10.5-7.3 10.5s-7.2 17.5 7.3 19.9 21.3 0 21.3 0 6.3-2.8 7.6-2.9c1.4-.2 1.4-13.3 6.4-17.3s16.7-13 16.7-13L666.1-.7z"/>
  <path d="M666.1-.7s-8.4 6.9-13.2 9.3c-4.8 2.5-7.3 10.5-7.3 10.5s-7.2 17.5 7.3 19.9 21.3 0 21.3 0 6.3-2.8 7.6-2.9c1.4-.2 1.4-13.3 6.4-17.3s16.7-13 16.7-13L666.1-.7z" opacity=".1"/>
  <path fill="#5E5A6B" d="M744.7-21.7s6 8.2 4.1 10.1c-1.9 2-6.4 4.1-6.4 4.1s-2.8 14.5-7.2 20.7-13.1 12.9-13.1 12.9L728.2-8l16.5-13.7z"/>
  <path d="M722.1 26.1c2.7-2.2 5.3-4.4 7.8-6.9 1.9-1.9 3.7-3.9 5.3-6 4.4-6.1 7.2-20.7 7.2-20.7s4.6-2.1 6.4-4.1c1.1-1.2-.6-4.7-2.2-7.2-1-1.7-1.9-2.9-1.9-2.9l-8.7 7.1-7.9 6.5-2.3 13.2-3.7 21zm49.4 154.7l2.7 2.7c1.7 0 4.2.2 4.2.2s12.4-14.8 10.4-17.5c-.9-1.4-1.5-3-1.8-4.6-2.6-1.5-4.8-2.4-4.8-2.4l-10.7 21.6z" opacity=".1"/>
  <path fill="#5E5A6B" d="M676.9 24.1c0 2.6 20.8 34.4 20.8 34.4s8.1 13.8 10 15c1.8 1.2 7.8 10.9 7.8 10.9s7.5 17.3 8.7 19.1 3.4 11 3.4 11 4.3 12.7 6.3 14.4 3.1 7.8 3.1 7.8 6.3 9.2 7.3 10.7c1.3 2.2 2.4 4.5 3.4 6.9 0 0 3.4 5.5 3.4 7.7s7 5.8 7 5.8 5 6 8 7 5.7 8.1 6.1 7.7c.4-.4 5.7 0 5.7 0s12.4-14.8 10.4-17.4-2.5-8.7-2.5-8.7 5-11.5 2.3-12.1-13.1-18.8-13.1-18.8c-.1-13.8-12.7-25.4-12.7-25.4s-6.3-15-8.1-18.2c-1.1-1.7-1.1-3.8 0-5.5 0 0-3.5-2.8-4.1-4.1-.6-1.3-3.5-11.8-3.5-11.8s-3.5-6.3-3.7-9.2-7-11-7-11-2.8-13.6-5.8-16.1c-.6-.5-.5-2.3 0-4.9 1.4-6.8 5.9-19.2 9-27.3 1.8-4.6 3.1-7.9 3.1-7.9l-5.9 1.5-50.4 12.6s-2.7 7.3-5.1 14.2c-2.2 5.3-3.9 10.5-3.9 11.7z"/>
  <path d="M774.7 149.4s15.8-6.1 8 1.7-22.6 7.3-22.6 7.3l14.6-9zm-26.9-31.2s-8.9 4.9-7.2 9.6c1.7 4.7 7.2-9.6 7.2-9.6zm-8.9-38c-1.7 3.1-5.1 5-8.7 4.7-6.4-.1 8.7-4.7 8.7-4.7zm-83.2-68s3.4 10.4 0 11.2c-3.4.8 0-11.2 0-11.2zm89-101c.1 1 2 3.1 4.6 5.5 1.5-4.7 2.8-9 2-10.4-1.2-2.1 3.6-6.7 2.7-9.8-.7-2.3 5.1-8.3 7.8-10.9-1.6-1.6-2.6-2.4-2.6-2.4l-7 2.1c.1 0-7.8 22.8-7.5 25.9zM680.5 12.3c5.8-.3 19.4-4.5 19.4-4.5s15.7-.5 26-2.6c5-1 8.6-2.4 8.6-4.3 0-2.5 2.1-5.9 4.4-9 1.6-2 3.3-4 5.1-5.8 1-1 1.7-2.2 2.1-3.5.1-.4.3-.9.5-1.4-1-1.7-1.9-2.9-1.9-2.9l-8.7 7.1L685.6-2c.1 0-2.7 7.4-5.1 14.3z" opacity=".1"/>
  <path fill="#464353" d="M663.8 2.3s11.3 6.7 14.7 8c3.4 1.2 21.4-4.4 21.4-4.4s34.6-1.1 34.6-7c0-4.5 6.6-11.7 9.6-14.8 1-1 1.7-2.2 2.1-3.5 1-3 3.2-8.6 5.1-10.5 2.8-2.8-1.5-17.4-1.5-17.4s-.9-10.4-2.1-13.5 0-3.5-1-6.1c-1.2-2.9-2-2.8-.5-9.5s5.2-15.3 4-17.5 3.6-6.7 2.7-9.8 9.2-12.2 9.2-12.2-1.3-10-2.2-11.3c-.9-1.3-4.3-8.3-4.3-9.8s-2.1-1.8-3.4-3.7c-1.3-1.9-15.4 47.4-15.4 47.4l-20.6 4.6-1.1.3s-11.7.5-19.3-3.7c0 0-13.1-2.1-17.4-23.9-3.3.8-6.5 2-9.5 3.4-3.2 1.5-6.4 3.7-8.2 6.3-3 4.2-6.7 7.9-11 10.7-1.3 3.3-2.4 6.6-3.4 10.1-.9 4-1.8 10.4-4.6 13.8s-4 13.5-4 13.5l27.6 25.1s-.6 6.4-2.1 6.1.6 29.3.6 29.3z"/>
  <path d="M669-111.1l14.7 30.7s6.1 4 8.3 1.8c2.1-2.2 10.3-2.1 10.3-2.1l1.1 2.1 15.5-3.7-2.4-5-1.1.3s-11.7.5-19.3-3.7c0 0-13.1-2.1-17.4-23.9-3.5.9-6.7 2-9.7 3.5z" opacity=".1"/>
  <path fill="#464353" d="M669-112.4l14.7 30.7s6.1 4 8.3 1.8c2.1-2.2 10.3-2.1 10.3-2.1l1.1 2.1 15.5-3.7-2.4-5-1.1.3s-11.7.5-19.3-3.7c0 0-13.1-2.1-17.4-23.9-3.5.9-6.7 2.1-9.7 3.5z"/>
  <path d="M675.4-23.1s32.5 10.2 34.9 11.5c2.4 1.3-34.7-7.9-34.9-11.5zm20.5 15.7s-8.5 4.8-11.6 3.1 11.6-3.1 11.6-3.1zm26.8-56.8s8.2 43.9-3.9 56.8l3.9-56.8zm13.5-66.1c3.1-3.4 3.3-8.6.3-12.1-1.1-1.2-2.5-2.1-3.3-3.5-.4-.9-1-1.8-1.6-2.7-1.6-1.6-4.2-1.2-6.4-1.9s-3.6-2.3-5.3-3.7c-2.6-2.4-5.5-4.4-8.5-6-3.2-1.7-6.8-2.9-10.3-2.3-2.8.5-5.2 2-8 2.8-3.8 1.1-8.6.9-11 4.1-1.1 1.5-1.5 3.5-2.6 5.1-1.5 2.2-4.4 3.3-6 5.4-1.8 2.5-1.6 5.9-.8 8.8.5 1.9 1.2 3.9.8 5.8-.2.9-.7 1.8-.9 2.8-.5 2.5 1.1 4.8 2.2 7.1 1.2 2.5 1.7 5.2 1.7 8-.1.6 0 1.2.3 1.8.3.5.7.8 1.2 1.1l4.6 2.9c.2.2.5.3.7.3.9.1 1.5-.9 2-1.6 1.5-1.8 4.5-1.7 6.6-.7s4 2.8 6.1 3.7c5.1 2.3 11 .3 16.5-.8 1.9-.3 3.8-.7 5.6-1.3 1.7-.7 3.4-1.6 4.9-2.6 1.6-.9 3-2 4.2-3.3 1.3-1.5 1.9-3.5 1.4-5.4-.5-1.6-1.9-3.1-1.6-4.9.6-3 5.2-4.9 7.2-6.9z" opacity=".1"/>
  <path fill="#464353" d="M736.2-131.5c3.1-3.4 3.3-8.6.3-12.1-1.1-1.2-2.5-2.1-3.3-3.4-.4-.9-1-1.8-1.6-2.7-1.6-1.6-4.2-1.2-6.4-1.8s-3.6-2.3-5.3-3.7c-2.6-2.4-5.5-4.4-8.5-6-3.2-1.7-6.8-2.9-10.3-2.3-2.8.5-5.2 2-8 2.8-3.8 1.1-8.6.9-11 4-1.1 1.5-1.5 3.5-2.6 5.1-1.5 2.2-4.4 3.3-6 5.4-1.8 2.5-1.6 5.9-.8 8.8.5 1.9 1.2 3.9.8 5.8-.2.9-.7 1.8-.9 2.8-.5 2.5 1.1 4.8 2.2 7.1 1.2 2.5 1.8 5.3 1.7 8.1-.1.6 0 1.2.3 1.8.3.5.7.8 1.2 1.1l4.6 2.9c.2.2.5.3.7.3.9.1 1.5-.9 2-1.6 1.5-1.8 4.5-1.7 6.6-.7s4 2.8 6.1 3.7c5.1 2.3 11 .3 16.5-.8 1.9-.3 3.8-.7 5.6-1.3 1.7-.7 3.4-1.6 4.9-2.6 1.6-.9 3-2 4.2-3.3 1.3-1.5 1.9-3.5 1.4-5.4-.5-1.6-1.9-3.1-1.6-4.9.6-3.3 5.2-5.1 7.2-7.1z"/>
  <path fill="#ECB4B6" d="M631.8-26.3c-.2 4.1 3.4 9.6 3.4 9.6C636.3-14.1 649.4-2 649.4-2l10.4 7s13.9 8.6 17.2 10.1c1.6.8 3.4 4 4.8 7.2s2.3 6 2.3 6c6.2-.9 11-5.9 11.6-12.2.4-3.9.6-7.5.3-7.5-.8-.1-9.3-6.6-9.3-6.6s-9.9-6.4-13.2-12.9c-3.2-6.4-15.8-16.2-15.8-16.2l.2-.4.7-1.3 1.5-5-24-10.7s-.6 2-1.4 4.6c-1.1 4.5-2.8 11.1-2.9 13.6z"/>
  <path d="M634.9-39.8c4.5 4.5 9.4 8.6 14.5 12.4 1.5.9 6.7.3 8.6.1l.7-1.3 1.5-5-24-10.7c.1-.2-.6 1.8-1.3 4.5z" opacity=".1"/>
  <path fill="#464353" d="M658.7-58.4s12.2 7.4 11.6 10.6c-.6 3.2-5.8 14.3-5.8 14.3l-5.8 4.8s-7.5 1.1-9.3 0-14.8-11.8-15.3-13.5 0-7.4 0-8.6 3.7-7.2 3.7-7.2l5.4-9.5 15.5 9.1z"/>
  <path d="M699.9 7.8l3.6 9.6-6.1 5.8-.3 1.7-13.4 7.7-4.3-10.8 20.5-14z" opacity=".1"/>
  <path fill="#5E5A6B" d="M699.9 7.1l3.6 9.7-6.1 5.8-.3 1.7-13.4 7.7-4.3-10.8 20.5-14.1z"/>
  <path d="M729.3-125.2c-.2-.6-.3-1.1-.2-1.7.5-3.1 5.1-5 7.1-7 1.3-1.4 2.1-3.1 2.4-5 .4 2.7-.5 5.5-2.4 7.5-1.8 1.7-5.9 3.5-6.9 6.2zm-56.6-4c.5 1.7 1.2 3.3 2.1 4.9 1.2 2.5 1.7 5.2 1.7 8-.1.6 0 1.2.2 1.8.3.5.7.8 1.2 1.1l4.6 2.9c.2.2.5.3.7.3.9.1 1.4-.9 2-1.6 1.5-1.8 4.5-1.7 6.6-.7s4 2.8 6.1 3.8c5.1 2.3 11 .3 16.5-.8 1.9-.3 3.8-.7 5.6-1.3 1.7-.7 3.4-1.6 4.9-2.6 1.6-.9 3-2 4.2-3.3.7-.8 1.2-1.7 1.4-2.8.4 1.9-.1 3.8-1.4 5.2-1.2 1.3-2.6 2.4-4.2 3.3-1.5 1-3.2 1.9-4.9 2.6-1.8.6-3.7 1-5.6 1.3-5.5 1.1-11.4 3.1-16.5.8-2.2-1-4-2.7-6.1-3.7s-5.1-1.2-6.6.7c-.6.7-1.1 1.7-2 1.6-.3-.1-.5-.2-.7-.3l-4.6-2.9c-.5-.3-.9-.6-1.2-1.1-.2-.6-.3-1.2-.2-1.8.1-2.7-.5-5.5-1.7-8-1.1-2.3-2.7-4.6-2.2-7.1.1-.1.1-.2.1-.3zm.1-10.7c.5 1.9 1.2 3.8.8 5.7-.2-1.1-.5-2.2-.8-3.2-.5-1.7-.6-3.4-.5-5.2.1.8.3 1.8.5 2.7z" opacity=".1"/>
  <circle cx="478.6" cy="-229.6" r="21.6" fill="#377DFF" opacity=".1"/>
  <circle cx="1065.7" cy="-320.7" r="21.6" fill="#377DFF" opacity=".1"/>
  <circle cx="1408.9" cy="-235.3" r="21.6" fill="#377DFF" opacity=".1"/>
  <circle cx="521.9" cy="-110.2" r="36.3" fill="#377DFF" opacity=".1"/>
  <circle cx="964.6" cy="426.8" r="36.3" fill="#377DFF" opacity=".1"/>
  <ellipse cx="1447.6" cy="405.9" fill="#377DFF" opacity=".1" rx="36.3" ry="36.3"/>
</svg>