<svg xmlns="http://www.w3.org/2000/svg" id="Layer_1" viewBox="52 -20.5 176 105.5">
  <style>
    .st0{opacity:.5;fill:#19a0ff;enable-background:new}.st1{fill:#fff}.st2{fill:none;stroke:#377dff;stroke-width:1.5;stroke-miterlimit:10}.st3{fill:#19a0ff}
  </style>
  <path id="services_132_" d="M212.4 84.2V6c0-2.1-1.7-3.8-3.8-3.8h-56.9c-2.1 0-3.8 1.7-3.8 3.8v78.2h64.5z" class="st0"/>
  <path id="services_131_" d="M207.1 84.2V6c0-2.1-1.5-3.8-3.3-3.8h-48.2c-1.8 0-3.3 1.7-3.3 3.8v78.2h54.8z" class="st1"/>
  <path id="services_130_" d="M147.9 12.1V5.4c0-1.8 1.4-3.2 3.2-3.2h58.1c1.8 0 3.2 1.4 3.2 3.2v6.7h-64.5z" class="st1"/>
  <path id="services_129_" d="M147.9 13.4v-8c0-1.8 1.4-3.2 3.2-3.2h8.6" class="st2"/>
  <path id="services_128_" d="M170.9 2.1h38.3c1.8 0 3.2 1.4 3.2 3.2v78.9" class="st2"/>
  <path id="services_127_" d="M162.8 2.1h4.4" class="st2"/>
  <path id="services_126_" d="M147.9 12.3h64.5" class="st2"/>
  <path id="services_125_" d="M155.3 7.7h1.5" class="st2"/>
  <path id="services_124_" d="M159.6 7.7h1.5" class="st2"/>
  <path id="services_53_" d="M164 7.7h1.5" class="st2"/>
  <path id="services_122_" d="M156.5 19.7h47.3v18.6h-47.3z" class="st0"/>
  <path id="services_121_" d="M156.5 50.2h14.4v18.6h-14.4z" class="st0"/>
  <path id="services_120_" d="M173 50.2h14.4v18.6H173z" class="st0"/>
  <path id="services_119_" d="M189.4 50.2h14.4v18.6h-14.4z" class="st0"/>
  <path id="services_295_" d="M175.3 15.2c-.8-.6-1.8-1-2.8-1h-24.6v70h5.6v-.7h-4.2V72.3h21.2v-.8h4c1.1 0 2-.9 2-2V37.3h.8V18.8c0-1.1-.4-2-1-2.8-.4-.4-.7-.7-1-.8z" class="st0"/>
  <path id="services_701_" d="M174.3 62.5h-80V16.9c0-1.1.9-2 2-2h76c1.1 0 2 .9 2 2v45.6z" class="st1"/>
  <path id="services_205_" d="M94.3 41.5v-8.7" class="st2"/>
  <path id="services_197_" d="M111.3 14.9h59.2c2.1 0 3.9 1.7 3.9 3.9v18.5" class="st2"/>
  <path id="services_697_" d="M98.7 19.6h71.4v37.6H98.7z" class="st1"/>
  <path id="services_683_" d="M122.3 70.9h24.1V78h-24.1z" class="st0"/>
  <path id="services_682_" d="M122.3 69.7h24.1V84h-24.1z" class="st2"/>
  <path id="services_681_" d="M174.3 60.7h-80v8.8c0 1.1.9 2 2 2h76c1.1 0 2-.9 2-2v-8.8z" class="st1"/>
  <path id="services_222_" d="M105.8 71.5h62.5" class="st2"/>
  <path id="services_219_" d="M161.8 60.7h-56" class="st2"/>
  <path id="services_679_" d="M117.6 84.2h33.8" class="st2"/>
  <path id="services_60_" d="M188.7 46.5h2.1v18.2h-2.1z" class="st1"/>
  <path id="services_59_" d="M190.3 84.2h-1.2c-1.4 0-2.6-1.1-2.6-2.6V64.8h6.3v16.9c.1 1.4-1 2.5-2.5 2.5z" class="st1"/>
  <path id="services_57_" d="M190.3 84.2h-1.2c-1.4 0-2.6-1.1-2.6-2.6V64.8h6.3v16.9c.1 1.4-1 2.5-2.5 2.5z" class="st2"/>
  <path id="services_56_" d="M184.7 64.8h10.1" class="st2"/>
  <path id="services_54_" d="M191.5 46.8H188l.4-6.2h2.7z" class="st1"/>
  <path id="services_51_" d="M188.7 64.7h2.1V46.8h.7l-.4-6.2h-2.7l-.4 6.2h.7z" class="st2"/>
  <path id="services_49_" d="M211.4 49.3c0-3.3-1.9-6.1-4.6-7.4v7.2l-3.7 2.1-3.7-2.1v-7.2c-2.7 1.4-4.6 4.2-4.6 7.4 0 3.4 2.1 6.3 5 7.6V81c0 1.8 1.5 3.3 3.3 3.3s3.3-1.5 3.3-3.3V56.9c3-1.3 5-4.2 5-7.6z" class="st1"/>
  <path id="services_48_" d="M211.4 49.3c0-3.3-1.9-6.1-4.6-7.4v7.2l-3.7 2.1-3.7-2.1v-7.2c-2.7 1.4-4.6 4.2-4.6 7.4 0 3.4 2.1 6.3 5 7.6V81c0 1.8 1.5 3.3 3.3 3.3s3.3-1.5 3.3-3.3V56.9c3-1.3 5-4.2 5-7.6z" class="st2"/>
  <path id="services_301_" d="M103.3 42.3h-9V69.6c0 1.1.9 2 2 2h9.5v.8h1.2V46c0-2.1-1.7-3.7-3.7-3.7z" class="st0"/>
  <path id="services_35_" d="M70.5 84.2h33.7v-39c0-1.2-1-2.2-2.2-2.2H72.7c-1.2 0-2.2 1-2.2 2.2v39z" class="st1"/>
  <path id="services_34_" d="M77.7 43h-4.2c-1.6 0-2.9 1.3-2.9 2.9v33.8" class="st2"/>
  <path id="services_33_" d="M85.4 43h-4.9" class="st2"/>
  <path id="services_340_" d="M104.2 79.7V46c0-1.6-1.3-2.9-2.9-2.9H86.6" class="st2"/>
  <path id="services_339_" d="M73.3 49.2h28.1v35H73.3z" class="st3"/>
  <path id="services_32_" d="M83.8 46.7H91" class="st2"/>
  <path id="services_27_" d="M106.1 84.2v-1.1c0-1.1-.9-2-2-2h-3c-.4-1.6-1-3.1-1.8-4.4l2.2-2.2c.8-.8.8-2 0-2.8l-1.6-1.6c-.8-.8-2-.8-2.8 0l-2.2 2.2c-1.3-.8-2.8-1.5-4.4-1.8v-3c0-1.1-.9-2-2-2h-2.3c-1.1 0-2 .9-2 2v3c-1.6.4-3 1-4.3 1.8l-2.1-2.2c-.8-.8-2-.8-2.8 0l-1.6 1.6c-.8.8-.8 2 0 2.8l2.1 2.2c-.8 1.3-1.5 2.8-1.8 4.4h-3c-1.1 0-2 .9-2 2v1.2h12.5c0-3.5 2.8-6.2 6.3-6.2s6.3 2.8 6.3 6.2l12.3-.1z" class="st1"/>
  <path id="services_20_" d="M106.1 84.2v-1.1c0-1.1-.9-2-2-2h-3c-.4-1.6-1-3.1-1.8-4.4l2.2-2.2c.8-.8.8-2 0-2.8l-1.6-1.6c-.8-.8-2-.8-2.8 0l-2.2 2.2c-1.3-.8-2.8-1.5-4.4-1.8v-3c0-1.1-.9-2-2-2h-2.3c-1.1 0-2 .9-2 2v3c-1.6.4-3 1-4.3 1.8l-2.1-2.2c-.8-.8-2-.8-2.8 0l-1.6 1.6c-.8.8-.8 2 0 2.8l2.1 2.2c-.8 1.3-1.5 2.8-1.8 4.4h-3c-1.1 0-2 .9-2 2v1.2m12.4-.1c0-3.5 2.8-6.2 6.3-6.2s6.3 2.8 6.3 6.2" class="st2"/>
  <path id="services_767_" d="M173.2 64v5.2" class="st2"/>
  <path id="services_764_" d="M173.2 39.7c-6.9 0-12.5 5.6-12.5 12.5s5.6 12.5 12.5 12.5 12.5-5.6 12.5-12.5-5.6-12.5-12.5-12.5zm0 22c-5.2 0-9.5-4.3-9.5-9.5s4.3-9.5 9.5-9.5 9.5 4.3 9.5 9.5-4.3 9.5-9.5 9.5z" class="st1"/>
  <path id="services_114_" d="M180.2 41.8c-2-1.4-4.4-2.2-7-2.2-6.9 0-12.5 5.6-12.5 12.5s5.6 12.5 12.5 12.5 12.5-5.6 12.5-12.5" class="st2"/>
  <path id="services_113_" d="M185.4 49.4c-.5-2.2-1.6-4.2-3.1-5.8" class="st2"/>
  <path id="services_762_" d="M172 44.2c4.7 0 8.6 3.8 8.6 8.6" class="st2"/>
  <path id="services_761_" d="M170.7 67.7v15.1c0 .8.6 1.4 1.4 1.4h2c.8 0 1.4-.6 1.4-1.4V67.7h-4.8z" class="st1"/>
  <path id="services_40_" d="M170.7 67.7v15.1c0 .8.6 1.4 1.4 1.4h2c.8 0 1.4-.6 1.4-1.4V67.7h-4.8z" class="st2"/>
  <path id="services_758_" d="M170.6 71.2h5.2" class="st2"/>
  <path id="services_39_" d="M170.6 73.8h5.2" class="st2"/>
  <path id="services_289_" d="M110.3 33.6c.4.1.9 0 1.2-.3s.3-.8.1-1.2l-5.5-8.4c1.2-2.8 1.6-5.8 1.3-8.7h-11c-1.1 0-2 .9-2 2v15.8h-.8v.6c2.6-.4 5.1-1.5 7.3-3.2l9.4 3.4z" class="st0"/>
  <path id="services_88_" d="M79.4 28c-7-5.4-8.2-15.5-2.8-22.4C82-1.4 92.1-2.6 99 2.8c6 4.7 7.8 12.8 4.7 19.4l5.7 8.8c.1.2-.1.5-.3.4l-9.9-3.5c-5.6 4.5-13.8 4.7-19.8.1z" class="st1"/>
  <path id="services_83_" d="M83.4.5c5.1-2 11-1.3 15.6 2.3 6 4.7 7.8 12.8 4.7 19.4l5.7 8.8c.1.2-.1.5-.3.4l-9.9-3.5c-5.6 4.5-13.8 4.7-19.8.1-6.7-5.2-8.1-14.6-3.5-21.5" class="st2"/>
  <path id="services_78_" d="M77.2 4.8c.3-.3.5-.6.8-.9 1-1 2.1-1.8 3.2-2.4" class="st2"/>
  <path id="services_77_" d="M78.1 15.4c0 6.2 5 11.3 11.3 11.3 6.2 0 11.3-5 11.3-11.3s-5-11.3-11.3-11.3-11.3 5.1-11.3 11.3z" class="st3"/>
  <path id="services_108_" d="M91 17.7h-2.7v-1.3c0-.5.1-.9.2-1.1.1-.2.4-.6.8-1l1.2-1.2c.2-.2.3-.5.3-.8s-.1-.6-.3-.8-.4-.3-.7-.3c-.3 0-.6.1-.8.4-.2.3-.3.6-.4 1.1h-2.8c.1-1.2.6-2.1 1.3-2.8.7-.7 1.7-1 2.8-1 1.1 0 2 .3 2.7.9s1 1.4 1 2.5c0 .5-.1.8-.2 1.1-.1.2-.2.4-.2.5s-.2.3-.3.5c-.2.2-.3.3-.3.4l-.8.8c-.3.2-.4.5-.5.6-.3-.1-.3.1-.3.5v1zm-2.5 3.4c-.3-.3-.5-.7-.5-1.1s.2-.8.5-1.1.7-.5 1.1-.5.8.2 1.1.5.5.7.5 1.1-.2.8-.5 1.1-.7.5-1.1.5-.8-.2-1.1-.5z" class="st1"/>
  <path id="services_160_" d="M89.4-3.9L89.3-2" class="st2"/>
  <path id="services_62_" d="M94.8-5l-1 3.6" class="st2"/>
  <path id="services_165_" d="M99-1.4L98 .3" class="st2"/>
  <path id="services_168_" d="M104.3.4l-2.7 2.7" class="st2"/>
  <path id="services_194_" d="M106.1 5.6l-1.7 1.1" class="st2"/>
  <path id="services_195_" d="M109.7 9.9l-3.6.9" class="st2"/>
  <path id="services_196_" d="M108.4 15.3h-1.7" class="st2"/>
  <path id="services_225_" d="M89.3 34.6l.1-1.9" class="st2"/>
  <path id="services_228_" d="M84 35.8l.9-3.6" class="st2"/>
  <path id="services_273_" d="M79.8 32.2l.9-1.7" class="st2"/>
  <path id="services_274_" d="M74.5 30.4l2.6-2.7" class="st2"/>
  <path id="services_275_" d="M72.8 25.1l1.6-.9" class="st2"/>
  <path id="services_276_" d="M69 21l3.6-1" class="st2"/>
  <path id="services_277_" d="M70.1 15.3l1.9.2" class="st2"/>
  <path id="services_280_" d="M68.9 10.1l3.6.9" class="st2"/>
  <path id="services_281_" d="M72.5 5.9l1.7.9" class="st2"/>
  <path id="services_283_" d="M74.3.6l2.6 2.6" class="st2"/>
  <path id="services_284_" d="M79.6-1.2l.9 1.6" class="st2"/>
  <path id="services_286_" d="M83.7-5l1 3.6" class="st2"/>
  <g id="services_481_">
    <path id="services_38_" d="M52.4 84.2h2.7" class="st2"/>
    <path id="services_41_" d="M222.3 84.2h6" class="st2"/>
    <path id="services_42_" d="M56.9 84.2h163.8" class="st2"/>
  </g>
</svg>