<svg preserveAspectRatio="none" xmlns="http://www.w3.org/2000/svg" viewBox="0 150 512 200" width="4000px" height="300px"> 
  <path fill="#fff" d="M38.6 264.9S111.8 196 188 236.5c131.9 70.3 193.4-3.9 250.3-9.5 83-8.1 121.8 34 121.8 34v107l-521.4.3V264.9z" opacity=".4"/>
  <path fill="#fffefe" d="M-72 267s70.2-69.7 146.3-29.1c131.9 70.3 193.4-3.9 250.3-9.5 83-8.1 119.4 32.4 119.4 32.4v108.8l-516 .4V267z" opacity=".4"/>
  <path fill="#fff" d="M-72 302s94.3-90.3 204-54.7c139.7 45.4 190 12.3 250.3-9.5C472.9 205.1 560 311 560 311v74H-72v-83z"/>
</svg>
