<svg xmlns="http://www.w3.org/2000/svg" id="Layer_1" viewBox="66 -19.4 204.1 102.4">
  <style>
    .st0{stroke-linecap:round}.st0,.st1{fill:none;stroke:#377dff;stroke-width:1.5;stroke-miterlimit:10}.st2{fill:#377dff}.st4{fill:#fff}.st5,.st6{opacity:.3;fill:#19a0ff;enable-background:new}.st6{opacity:.5}
  </style>
  <g id="web-design_406_">
    <g id="web-design_85_">
      <path id="web-design_87_" d="M82.4 19.1h4.3" class="st0"/>
      <path id="web-design_86_" d="M84.6 21.2v-4.3" class="st0"/>
    </g>
    <g id="web-design_111_">
      <path id="web-design_149_" d="M214.9-10.5h4.3" class="st0"/>
      <path id="web-design_134_" d="M217.1-8.3v-4.3" class="st0"/>
    </g>
    <g id="web-design_79_">
      <path id="web-design_81_" d="M165.3 1l3-3.1" class="st0"/>
      <path id="web-design_80_" d="M168.3 1l-3-3.1" class="st0"/>
    </g>
    <g id="web-design_105_">
      <path id="web-design_107_" d="M266.3 27.2l3.1-3.1" class="st0"/>
      <path id="web-design_106_" d="M269.4 27.2l-3.1-3.1" class="st0"/>
    </g>
    <path id="web-design_74_" d="M180.4-.6h22.3" class="st1"/>
    <path id="web-design_155_" d="M105.1-.6h22.2" class="st1"/>
    <path id="web-design_100_" d="M134.8-7h41.6" class="st1"/>
    <path id="web-design_109_" d="M66.7 36.7h26.1" class="st1"/>
    <path id="web-design_103_" d="M241.8 53.5h19.5" class="st1"/>
    <path id="web-design_104_" d="M266.3 53.5h-2.6" class="st1"/>
    <path id="web-design_99_" d="M178.4-.6h-4" class="st1"/>
    <path id="web-design_65_" d="M254.6 20.1c0 .6-.5 1.1-1.1 1.1s-1.1-.5-1.1-1.1.5-1.1 1.1-1.1c.7.1 1.1.5 1.1 1.1z" class="st2"/>
    <path id="web-design_150_" d="M127.8 7.1c0 .9-.7 1.6-1.6 1.6-.9 0-1.6-.7-1.6-1.6s.7-1.6 1.6-1.6c.9-.1 1.6.7 1.6 1.6z" class="st2"/>
    <path id="web-design_108_" d="M87.5 45.5c0 .6-.5 1.1-1.1 1.1s-1.1-.5-1.1-1.1.5-1.1 1.1-1.1 1.1.5 1.1 1.1z" class="st2"/>
    <g id="web-design_98_">
      <g id="web-design_264_">
        <path id="web-design_472_" fill="#19a0ff" d="M226.3 58.7h-86.9V8.9c0-1.1.9-2 2-2h83c1.1 0 2 .9 2 2l-.1 49.8z"/>
        <path id="web-design_82_" d="M155.6 7h53.7" class="st1"/>
        <path id="web-design_469_" d="M150.5 7h3.7" class="st1"/>
        <path id="web-design_468_" d="M226.3 58.7h-86.9V11.4c0-2.5 2-4.5 4.5-4.5h4.4" class="st1"/>
        <path id="web-design_467_" d="M144.1 12h77.6v40.8h-77.6V12z" class="st4"/>
        <path id="web-design_466_" d="M169.8 66.5H196V82h-26.2V66.5z" class="st4"/>
        <path id="web-design_465_" d="M169.9 67.8h26.2v7.8h-26.2v-7.8z" class="st5"/>
        <path id="web-design_461_" d="M169.8 81.4V66.5h26.1v14.9" class="st1"/>
        <path id="web-design_463_" d="M226.3 56.8h-86.9V63c0 3.1 2.5 5.6 5.6 5.6h75.8c3.1 0 5.6-2.5 5.6-5.6v-6.2h-.1z" class="st4"/>
        <path id="web-design_462_" d="M221.4 56.8h-82V64c0 2.5 2 4.5 4.5 4.5h77.6" class="st1"/>
        <path id="web-design_449_" d="M149.6 14.9h66.9v14.5h-66.9V14.9z" class="st6"/>
        <path id="web-design_474_" d="M174.1 31.6h17.8v18.7h-17.8V31.6z" class="st6"/>
        <path id="web-design_475_" d="M198.7 31.6h17.8v18.7h-17.8V31.6z" class="st5"/>
        <path id="web-design_101_" d="M226.1 23.7v9.1" class="st1"/>
      </g>
      <path id="web-design_148_" d="M173.4 31.1c0-1.4-1.1-2.5-2.5-2.5h-32.3V64c0 2.9 2.4 5.3 5.3 5.3H169v12.1h.8v.6h4.1c1-.7 1.8-1.7 2-3l.6-3.4h-3.1V31.1z" class="st5"/>
      <g id="web-design_63_">
        <path id="web-design_70_" d="M169.5 79.2h-67.4c-.5 0-1-.4-1-1V30.4c0-.5.5-1 1-1h67.4c.5 0 1 .5 1 1v47.9c0 .5-.4.9-1 .9z" class="st4"/>
        <path id="web-design_147_" d="M102.9 79.2c-.9 0-1.7-.8-1.7-1.7V48.2" class="st1"/>
        <path id="web-design_145_" d="M132.3 29.4h36.6c.9 0 1.7.8 1.7 1.7v45.3" class="st1"/>
        <path id="web-design_69_" d="M104.5 33.3h62.3v40.5h-62.3V33.3z" class="st2"/>
        <path id="web-design_332_" d="M169.3 82h-67.7c-1.6 0-3-1.2-3.3-2.8l-.5-2.9h31.4l1.2 1.7h8.7l1.3-1.7h33.1l-.4 2.6c-.3 1.8-1.9 3.1-3.8 3.1z" class="st4"/>
        <path id="web-design_78_" d="M169.3 82h-67.7c-1.6 0-3-1.2-3.3-2.8l-.5-2.9h31.4l1.2 1.7h8.7l1.3-1.7h33.1l-.4 2.6c-.3 1.8-1.9 3.1-3.8 3.1z" class="st1"/>
        <g id="web-design_64_">
          <path id="web-design_597_" d="M112.7 37.3h7v.9h-7v-.9z" class="st4"/>
          <path id="web-design_596_" d="M116.2 40.4h4.8v.9h-4.8v-.9z" class="st4"/>
          <path id="web-design_595_" d="M131.6 40.4h33.5v.9h-33.5v-.9z" class="st4"/>
          <path id="web-design_594_" d="M124.3 40.5h5.4v.9h-5.4v-.9z" class="st4"/>
          <path id="web-design_593_" d="M117.8 43h9.6v.9h-9.6V43z" class="st4"/>
          <path id="web-design_592_" d="M121.7 46.7h12.2v.9h-12.2v-.9z" class="st4"/>
          <path id="web-design_591_" d="M112.7 50.2H126v.9h-13.3v-.9z" class="st4"/>
          <path id="web-design_590_" d="M127.4 50.2h9.6v.9h-9.6v-.9z" class="st4"/>
          <path id="web-design_589_" d="M116.2 53.6H134v.9h-17.8v-.9z" class="st4"/>
          <path id="web-design_588_" d="M141.3 53.7h11.8v.9h-11.8v-.9z" class="st4"/>
          <path id="web-design_587_" d="M134.8 53.6h5.6v.9h-5.6v-.9z" class="st4"/>
          <path id="web-design_586_" d="M122.1 57.1h15.6v.9h-15.6v-.9z" class="st4"/>
          <path id="web-design_585_" d="M117.8 57.1h3.3v.9h-3.3v-.9z" class="st4"/>
          <path id="web-design_68_" d="M112.7 59.6h10.6v.9h-10.6v-.9z" class="st4"/>
          <path id="web-design_582_" d="M124.2 59.6h3.7v.9h-3.7v-.9z" class="st4"/>
          <path id="web-design_581_" d="M128.8 59.6h17.4v.9h-17.4v-.9z" class="st4"/>
          <path id="web-design_580_" d="M147.7 59.7h15.7v.9h-15.7v-.9z" class="st4"/>
          <path id="web-design_579_" d="M116.2 63.1h5.5v.9h-5.5v-.9z" class="st4"/>
          <path id="web-design_578_" d="M123.4 63.1h13.1v.9h-13.1v-.9z" class="st4"/>
          <path id="web-design_577_" d="M119.2 66.6h10.6v.9h-10.6v-.9z" class="st4"/>
          <path id="web-design_576_" d="M132 66.6h10.6v.9H132v-.9z" class="st4"/>
          <path id="web-design_575_" d="M144.3 66.6h10v.9h-10v-.9z" class="st4"/>
          <path id="web-design_351_" d="M161.1 46.8h3v.9h-3v-.9z" class="st4"/>
          <path id="web-design_67_" d="M134.9 46.7h24.9v.9h-24.9v-.9z" class="st4"/>
          <path id="web-design_328_" d="M121.7 37.3H150v.9h-28.3v-.9z" class="st4"/>
          <path id="web-design_326_" d="M108 36h1.5v1.5H108V36z" class="st4"/>
          <path id="web-design_294_" d="M108 39.8h1.5v1.5H108v-1.5z" class="st4"/>
          <path id="web-design_291_" d="M108 43.7h1.5v1.5H108v-1.5z" class="st4"/>
          <path id="web-design_182_" d="M108 47.6h1.5v1.5H108v-1.5z" class="st4"/>
          <path id="web-design_181_" d="M108 51.4h1.5v1.5H108v-1.5z" class="st4"/>
          <path id="web-design_178_" d="M108 55.3h1.5v1.5H108v-1.5z" class="st4"/>
          <path id="web-design_177_" d="M108 59.2h1.5v1.5H108v-1.5z" class="st4"/>
          <path id="web-design_66_" d="M108 63.1h1.5v1.5H108v-1.5z" class="st4"/>
          <path id="web-design_71_" d="M108 66.9h1.5v1.5H108v-1.5z" class="st4"/>
          <path id="web-design_72_" d="M108 70.8h1.5v1.5H108v-1.5z" class="st4"/>
        </g>
        <path id="web-design_73_" d="M102.1 29.7c-.4 0-.6.3-.6.6v16.8h27.8c1.6 0 2.9-1.3 2.9-2.9V29.7h-30.1z" class="st5"/>
        <path id="web-design_1454_" d="M126.1 45.5h-25.8c-2.6 0-4.6-2.1-4.6-4.6V24.8c0-2.6 2.1-4.6 4.6-4.6H126c2.6 0 4.6 2.1 4.6 4.6v16.1c.1 2.5-2 4.6-4.5 4.6z" class="st4"/>
        <path id="web-design_1453_" d="M95.7 25.6v-3.7c0-1 .8-1.8 1.8-1.8H129c1 0 1.8.8 1.8 1.8v3.7H95.7z" class="st6"/>
        <path id="web-design_1452_" d="M108.2 20.1H129c1 0 1.8.8 1.8 1.8v21.8c0 1-.8 1.8-1.8 1.8H97.5c-1 0-1.8-.8-1.8-1.8V21.9c0-1 .8-1.8 1.8-1.8h4.7" class="st1"/>
        <path id="web-design_882_" d="M103.4 20.1h2.8" class="st1"/>
        <path id="web-design_879_" d="M95.7 25.6h35" class="st1"/>
        <path id="web-design_876_" d="M98.5 23.1h.6" class="st1"/>
        <path id="web-design_873_" d="M100.8 23.1h.6" class="st1"/>
        <path id="web-design_872_" d="M103 23.1h.6" class="st1"/>
        <path id="web-design_76_" d="M111.2 33.5l-2.6.9 2.6.9v1l-3.7-1.4v-1l3.7-1.4v1zm2.8-2.9h1.1l-2.6 7.3h-1.1l2.6-7.3zm4.9 3.3v1l-3.7 1.4v-1l2.6-.9-2.6-.9v-1l3.7 1.4z" class="st2"/>
      </g>
      <g id="web-design_84_">
        <path id="web-design_95_" d="M224.6 81.9h2.9c.2 0 .4-.2.4-.4V39.2l-1.5-3.2c-.1-.3-.6-.3-.7 0l-1.5 3.2v42.3c0 .2.2.4.4.4z" class="st4"/>
        <path id="web-design_270_" d="M224.2 40.8h3.7v37.1h-3.7V40.8z" class="st6"/>
        <path id="web-design_93_" d="M224.2 81.9h3.7V39.3l-1.6-3.6c-.1-.2-.3-.2-.4 0l-1.6 3.6-.1 42.6z" class="st1"/>
        <path id="web-design_92_" d="M228.1 40.8h-3.9" class="st1"/>
        <path id="web-design_91_" d="M228.2 77.9h-4.3" class="st1"/>
      </g>
      <g id="web-design_112_">
        <path id="web-design_83_" d="M231.3 38.2c0-1.9 2.1-3.2 2.7-4.3 1.2-2.2 1.2-6 1.2-6 3.4.6 3.9 7.6 3.9 10.4s-1.8 5.1-3.9 5.1c-2.1-.1-3.9-2.4-3.9-5.2z" class="st6"/>
        <path id="web-design_77_" d="M235.2 50.6c1.8 0 3.1 1.7 3 3.7L236.7 77c-.1 1.8-.6 3.6-1.5 5.1l-.1.2c-1-1.6-1.5-3.5-1.7-5.5L232 54.3c.1-2.1 1.5-3.7 3.2-3.7z" class="st4"/>
        <path id="web-design_116_" d="M231.3 38.2c0-1.9 2.1-3.2 2.7-4.3 1.2-2.2 1.2-6 1.2-6 3.4.6 3.9 7.6 3.9 10.4s-1.8 5.1-3.9 5.1c-2.1-.1-3.9-2.4-3.9-5.2z" class="st1"/>
        <path id="web-design_114_" d="M235.2 50.6c1.8 0 3.1 1.7 3 3.7L236.7 77c-.1 1.5-1.1 4.2-1.4 5 0 .1-.2.1-.2 0-.9-1.6-1.4-3.4-1.5-5.3l-1.4-22.5c-.1-2 1.3-3.6 3-3.6z" class="st1"/>
        <path id="web-design_626_" d="M232.2 41.9h6.1v12.2h-6.1V41.9z" class="st4"/>
        <path id="web-design_89_" d="M232.2 41.9h6.1v12.2h-6.1V41.9z" class="st1"/>
      </g>
      <path id="web-design_133_" d="M226.3 8c0-1.1-.9-2-2-2h-10.2c-3.6 2.7-6.2 5.6-6.4 5.8l-.5.5.5.5c.4.4 9.3 10.2 16.8 10.2.8 0 1.6-.1 2.3-.3v-1.1h-.6l.1-13.6z" class="st5"/>
      <g id="web-design_609_">
        <path id="web-design_625_" d="M241.8 11.2s-9 10-16.3 10-16.3-10-16.3-10 9-10 16.3-10 16.3 10 16.3 10z" class="st4"/>
        <path id="web-design_96_" d="M241.8 11.2s-9 10-16.3 10-16.3-10-16.3-10 9-10 16.3-10 16.3 10 16.3 10z" class="st1"/>
        <g id="web-design_620_">
          <path id="web-design_624_" d="M232.8 11.2c0-4-3.2-7.2-7.2-7.2v14.4c4 0 7.2-3.2 7.2-7.2z" class="st6"/>
          <path id="web-design_622_" d="M225.6 4c-4 0-7.2 3.2-7.2 7.2s3.2 7.2 7.2 7.2V4z" class="st5"/>
        </g>
        <path id="web-design_615_" d="M229.1 11.2c0 2-1.6 3.5-3.5 3.5-2 0-3.5-1.6-3.5-3.5 0-2 1.6-3.5 3.5-3.5s3.5 1.6 3.5 3.5z" class="st4"/>
        <path id="web-design_614_" d="M233.1 11.2c0 4.2-3.4 7.6-7.6 7.6-4.2 0-7.6-3.4-7.6-7.6s3.4-7.6 7.6-7.6c4.2.1 7.6 3.5 7.6 7.6z" class="st1"/>
        <path id="web-design_613_" d="M227.8 11.2c0 1.2-1 2.2-2.2 2.2s-2.2-1-2.2-2.2 1-2.2 2.2-2.2 2.2 1 2.2 2.2z" class="st2"/>
        <path id="web-design_611_" d="M211.8 2.3V-.6h2.6" class="st1"/>
        <path id="web-design_627_" d="M239.4 21.7v2.9h-2.6" class="st1"/>
      </g>
      <g id="web-design_135_">
        <path id="web-design_154_" d="M251.4 80.6V72c0-.8-.6-1.4-1.4-1.4h-49c-.8 0-1.4.6-1.4 1.4v8.6c0 .8.6 1.4 1.4 1.4h49c.7 0 1.4-.6 1.4-1.4z" class="st4"/>
        <path id="web-design_146_" d="M251.4 80.6V72c0-.8-.6-1.4-1.4-1.4h-49c-.8 0-1.4.6-1.4 1.4v8.6c0 .8.6 1.4 1.4 1.4h49c.7 0 1.4-.6 1.4-1.4z" class="st1"/>
        <path id="web-design_144_" d="M205.4 70.6v7" class="st1"/>
        <path id="web-design_143_" d="M210.3 70.6v3.5" class="st1"/>
        <path id="web-design_142_" d="M215.2 70.6v3.5" class="st1"/>
        <path id="web-design_141_" d="M220.1 70.6v3.5" class="st1"/>
        <path id="web-design_140_" d="M225 70.6v7" class="st1"/>
        <path id="web-design_139_" d="M229.9 70.6v3.5" class="st1"/>
        <path id="web-design_138_" d="M234.8 70.6v3.5" class="st1"/>
        <path id="web-design_137_" d="M239.7 70.6v3.5" class="st1"/>
        <path id="web-design_136_" d="M244.6 70.6v7" class="st1"/>
      </g>
    </g>
    <g id="web-design_43_">
      <path id="web-design_75_" d="M81.8 82.2h2.8" class="st1"/>
      <path id="web-design_90_" d="M255.1 82.2h6.2" class="st1"/>
      <path id="web-design_293_" d="M86.4 82.2h167.2" class="st1"/>
    </g>
  </g>
</svg>