<svg xmlns="http://www.w3.org/2000/svg" xmlns:xlink="http://www.w3.org/1999/xlink" version="1.1" id="Layer_1" x="0px" y="0px" viewBox="0 0 808.2 82.7" style="enable-background:new 0 0 808.2 82.7;" xml:space="preserve">
<style type="text/css">
	.st0{fill:#FCED00;}
	.st1{fill:#221F1F;}
	.st2{fill:#FFFFFF;}
</style>
<rect x="0" class="st0" width="808.2" height="82.7"/>
<title>5AFF168C-E8C1-4787-85FE-0A32204139D9</title>
<desc>Created with sketchtool.</desc>
<g>
	<path d="M775.6,57.5c-0.6-0.1-1-0.3-1.5-0.4c-1.7-0.6-2.7-1.7-3.2-3.5c0.7,0,1.4,0,2.1,0c0,0.1,0.1,0.1,0.1,0.3   c1.3,2,3.6,2.5,5.6,1.4c0.7-0.4,1.3-1,1.3-1.8c0.1-1.1,0-2.2,0-3.4c-0.1,0.1-0.3,0.3-0.3,0.3c-2.2,2.8-6.4,2.1-8-0.7   c-1.4-2.5-1.5-5-0.1-7.6c1.5-3.1,6-3.6,8.1-0.6c0.1,0.1,0.1,0.3,0.4,0.4c0-0.8,0-1.5,0-2.2c1.3,0,2.5,0,3.8,0c0,0.6,0,1,0,1.5   c-0.6,0-1.1,0-1.8,0c0,0.3,0,0.6,0,0.8c0,3.4,0,6.9,0,10.2c0,1.5-0.4,3.1-1.8,3.9c-0.7,0.4-1.7,0.7-2.4,1c-0.1,0-0.3,0.1-0.4,0.1   C776.9,57.5,776.3,57.5,775.6,57.5z M780.3,46.1L780.3,46.1c0-0.8-0.2-1.7-0.5-2.5c-0.7-1.5-2.4-2.4-3.9-2.1   c-1.4,0.1-2.4,1.3-2.8,3.1c-0.3,1.3-0.3,2.4,0.1,3.6c0.3,1.1,1,2.1,2.1,2.5c1.4,0.6,2.9,0,4.1-1.1   C780.3,48.4,780.4,47.3,780.3,46.1z"/>
	<path d="M476.3,53.3c0-1.3,0-2.5,0-3.8c0.6,0,1.1,0,1.7,0c0-5.3,0-10.5,0-15.8c-0.6,0-1.1,0-1.7,0c0-1.3,0-2.5,0-3.8   c0.1,0,0.4,0,0.6,0c3.8,0,7.6,0,11.2,0c0.7,0,1.4,0,2.1,0.1c3.4,0.6,5.6,3.4,5.2,6.9c-0.1,1.5-0.8,2.7-2.1,3.5   c-0.3,0.1-0.4,0.3-0.8,0.6c0.3,0.1,0.4,0.3,0.6,0.3c2.2,1,3.2,2.8,3.2,5.2c0.1,3.8-2.2,6.4-6,6.9c-1,0.1-2.1,0.1-3.1,0.1   c-3.4,0-6.7,0-10.1,0C476.9,53.3,476.7,53.3,476.3,53.3z M483,49.4c1.8,0,3.6,0.1,5.5,0c1.3-0.1,2.2-0.7,2.9-2   c0.8-1.8-0.3-3.8-2.4-4.2c-1-0.1-2-0.1-2.9-0.1c-1,0-2,0-2.9,0C483,45.2,483,47.3,483,49.4z M483,39.3c1.7,0,3.4,0.1,5,0   c1.7-0.1,2.8-1.3,2.8-2.8c0.1-1.3-0.8-2.5-2.5-2.7c-1.8-0.3-3.6-0.1-5.5-0.3C483,35.7,483,37.5,483,39.3z"/>
	<path d="M676,35.5c1,4.5,2,9,2.9,13.5h0.1c0.7-3.4,1.5-6.6,2.2-9.9c-0.6,0-1.1,0-1.7,0c0-1.1,0-2.2,0-3.5c2.4,0,4.8,0,7.1,0   c0,1.1,0,2.2,0,3.4c-0.4,0-1,0-1.5,0c-1.3,4.8-2.5,9.5-3.8,14.3c-1.5,0-3.1,0-4.8,0c-1-4.1-2-8-2.9-12.1h-0.1   c-0.8,4.1-1.8,8-2.7,12.1c-1.7,0-3.2,0-4.8,0c-1.3-4.8-2.7-9.5-3.9-14.3c-0.6,0-1,0-1.5,0c0-1.1,0-2.2,0-3.5c2.4,0,4.8,0,7.1,0   c0,1.1,0,2.2,0,3.4c-0.6,0-1.1,0-1.8,0c0.8,3.4,1.5,6.7,2.4,10.1h0.1c1-4.5,2-9.1,2.8-13.6C672.9,35.5,674.5,35.5,676,35.5z"/>
	<path d="M653.9,48.3c-2.8,0-5.5,0-8.3,0c-0.6,1.7-1,3.4-1.5,5c-1.8,0-3.6,0-5.5,0c0-1.3,0-2.5,0-3.8c0.6,0,1.1,0,1.7,0   c2.2-6.6,4.3-13,6.4-19.6c1.8,0,3.8,0,5.6,0c2.1,6.4,4.2,13,6.4,19.5c0.6,0,1.1,0,1.7,0c0,1.3,0,2.5,0,3.8c-1.8,0-3.5,0-5.3,0   C654.8,51.7,654.4,50,653.9,48.3z M649.8,34.6L649.8,34.6c-1.1,3.4-2.1,6.7-3.2,9.9c2.1,0,4.1,0,6.2,0   C651.8,41.2,650.8,37.9,649.8,34.6z"/>
	<path d="M511.5,47.5c1.5,0,3.1,0,4.6,0c-0.6,2.4-1.7,4.1-3.9,5.2c-5.3,2.7-12.1,0.3-13-6.7c-0.4-3.2,0.3-6,2.4-8.4   c3.8-4.1,11.9-3.5,14.2,3.5c0.4,1.3,0.4,2.7,0.7,4.2c-4.3,0-8.7,0-12.9,0c-0.1,2.1,1.3,4.2,2.9,4.6   C508.7,50.5,510.1,49.8,511.5,47.5z M503.8,42.3c1.3,0,2.5,0,3.8,0s2.5,0,3.8,0c0-1.8-1.4-3.4-3.2-3.5   C506,38.6,504.2,40,503.8,42.3z"/>
	<path d="M738.8,45.4c-4.2,0-8.5,0-12.8,0c-0.1,2,1.1,4.1,2.8,4.6c2.1,0.7,3.6,0,4.9-2.4c0.7,0,1.5,0,2.2,0s1.5,0,2.2,0   c-0.3,1.4-0.8,2.5-1.8,3.6c-1.5,1.8-3.6,2.5-6,2.7c-5.5,0.3-9-3.8-9.2-8.7c-0.1-2.4,0.4-4.6,1.8-6.6c2-2.7,4.6-3.6,7.8-3.4   c3.4,0.4,5.5,2.2,6.7,5.3C738.6,42,738.8,43.5,738.8,45.4z M733.9,42.1c0.1-1.8-1.4-3.4-3.5-3.4c-2-0.1-3.9,1.5-4.1,3.4   C728.8,42.1,731.4,42.1,733.9,42.1z"/>
	<path d="M693,41c-1.4,0-2.8,0-4.3,0c0.1-0.7,0.3-1.4,0.4-2c0.8-2,2.4-3.2,4.3-3.6c2-0.6,4.1-0.4,6,0.1c2.7,0.8,4.1,2.8,4.1,5.6   c0,2.7,0,5.3,0,8c0,0.3,0,0.4,0,0.7c0.6,0,1,0,1.5,0c0,1.1,0,2.2,0,3.5c-1.8,0-3.6,0-5.5,0c0-0.6,0-1.3,0-2c-0.4,0.3-0.7,0.6-1,0.8   c-2.7,2.2-6.9,1.8-9-0.1c-2.2-2.1-2.5-6.7,1.4-8.5c1.8-0.8,3.6-1.1,5.5-1.4c1-0.1,2-0.3,3.1-0.3c-0.1-0.7-0.1-1.5-0.6-2.2   c-0.3-0.4-0.7-0.8-1.3-1c-0.8-0.1-1.8-0.1-2.7,0C693.8,38.8,693.1,39.7,693,41z M699.3,44.9c-0.7,0.1-1.4,0.1-2.1,0.3   c-1.1,0.3-2.2,0.4-3.4,0.8c-1,0.3-1.4,1.3-1.4,2.2c0,1,0.7,1.7,1.7,2.1c1.4,0.4,2.8,0.3,4.1-0.8C699.4,48.3,699.4,46.6,699.3,44.9z   "/>
	<path d="M575.9,38.5c0.7-0.7,1.4-1.5,2.2-2.2c1.3-1,2.7-1.3,4.2-1.1c2,0.3,3.4,2,3.4,4.2c0,3.6,0,7.4,0,11.1c0,0.3,0,0.4,0,0.8   c0.8,0,1.5,0,2.4,0c0,0.7,0,1.4,0,2.1c-1.7,0-3.2,0-5,0c0-0.3,0-0.6,0-0.7c0-3.9,0-7.8,0-11.8c0-0.6,0-1-0.1-1.5   c-0.4-1.5-1.4-2.2-2.9-2c-1.1,0.3-2.1,0.8-2.8,1.8c-0.8,1.1-1.4,2.4-1.4,3.9c0,2.5,0,5,0,7.4c0,0.3,0,0.4,0,0.7c0.8,0,1.7,0,2.5,0   c0,0.7,0,1.4,0,2.1c-1.7,0-3.4,0-5,0c0-0.3,0-0.6,0-0.7c0-3.9,0-7.8,0-11.8c0-0.6,0-1.3-0.1-1.8c-0.3-1.4-1.5-2-3.1-1.7   c-2,0.4-4.1,2.8-4.1,5c0,2.8,0,5.7,0,8.5c0,0.1,0,0.1,0,0.3c0.8,0,1.5,0,2.4,0c0,0.7,0,1.4,0,2.1c-2.5,0-5,0-7.6,0   c0-0.7,0-1.4,0-2.1c0.8,0,1.7,0,2.5,0c0-4.6,0-9.1,0-13.7c-0.8,0-1.7,0-2.5,0c0-0.7,0-1.4,0-2.1c1.7,0,3.4,0,5.2,0c0,1,0,2.1,0,3.1   h0.1c0.1-0.1,0.3-0.4,0.4-0.6c1.4-1.8,3.1-2.9,5.5-2.8c2,0.1,3.1,1.1,3.6,2.9C575.9,38.2,575.9,38.5,575.9,38.5z"/>
	<path d="M536.1,44c-1.8,0-3.6,0-5.3,0c0-0.8,0-1.5,0-2.2c2.7,0,5.3,0,8,0c0,3.9,0,7.7,0,11.6c-0.8,0-1.7,0-2.7,0c0-1.1,0-2.2,0-3.4   c-0.1,0.1-0.3,0.3-0.3,0.3c-2.4,4.1-8.4,5.2-12.5,1.5c-2.2-2-3.5-4.5-3.9-7.4c-0.6-3.8-0.1-7.3,2-10.5c1.5-2.4,3.6-4.1,6.4-4.3   c3.1-0.4,5.6,0.7,7.6,3.4c0.1,0.1,0.3,0.3,0.4,0.6c0-1.3,0-2.2,0-3.4c0.8,0,1.7,0,2.5,0c0,2.4,0,4.9,0,7.4c-0.8,0-1.7,0-2.5,0   c0-0.1-0.1-0.4-0.1-0.6c-0.8-2.8-3.5-4.9-6.3-4.8c-2.5,0.1-4.3,1.5-5.5,3.6c-1.3,2.2-1.5,4.6-1.3,7.1c0.1,2.1,0.7,4.1,2,5.9   c1.1,1.4,2.4,2.5,4.2,2.8c2.7,0.3,4.6-0.8,6-2.9C535.9,47.2,536.1,45.6,536.1,44z"/>
	<path d="M596,50.1c0,1.1,0,2.1,0,3.2c-1.7,0-3.4,0-5,0c0-0.7,0-1.4,0-2.1c0.8,0,1.5,0,2.4,0c0-6.7,0-13.5,0-20.3   c-0.8,0-1.5,0-2.4,0c0-0.7,0-1.4,0-2.1c1.7,0,3.2,0,4.9,0c0,3.4,0,6.6,0,10.1c0.4-0.6,0.7-1,1.1-1.4c2.8-3.2,7-3.2,9.8,0.1   c2.9,3.6,2.8,9.9-0.3,13.5c-2.7,3.1-6.9,3.1-9.5,0C596.7,51,596.4,50.5,596,50.1z M596,44.4L596,44.4c0,1.1,0,2.1,0.3,3.2   c0.7,2.2,2.7,3.8,4.6,3.8c2,0,3.6-1.1,4.5-3.4c0.8-2.5,0.8-5,0-7.6c-0.6-1.4-1.5-2.5-3.1-2.9c-2.1-0.6-3.6,0.4-4.9,2   C596.1,40.9,595.8,42.6,596,44.4z"/>
	<path d="M623.2,44.9c0.1,2.1,0.6,4.1,2.2,5.5c2.4,2.1,5.7,1.4,7.1-1.4c0.1-0.1,0.1-0.3,0.3-0.6c1,0,1.8,0,2.8,0   c-0.6,2-1.7,3.4-3.4,4.3c-4.1,2.2-9.1,0.6-11.1-3.9c-1.4-3.2-1.3-6.6,0.4-9.7c1.5-2.8,3.9-4.2,7.1-3.9c3.4,0.3,5.5,2.2,6.6,5.3   c0.4,1.4,0.7,2.8,0.7,4.3C631.7,44.9,627.5,44.9,623.2,44.9z M623.5,42.8c3.2,0,6.4,0,9.7,0c-0.1-1.1-0.3-2.2-0.7-3.1   c-1.1-2.1-3.4-2.9-5.5-2.1C624.9,38.3,623.5,40.6,623.5,42.8z"/>
	<path d="M556.3,51.2c0.8,0,1.7,0,2.5,0c0,0.7,0,1.4,0,2.1c-1.7,0-3.2,0-4.9,0c0-1,0-2,0-3.1c-0.4,0.6-0.7,0.8-1.1,1.3   c-2.4,2.7-6.9,2.8-9.2,0.4c-2.5-2.5-1.8-6.3,1.4-7.8c1.7-0.8,3.4-1.1,5.2-1.4c1.3-0.1,2.4-0.3,3.6-0.4c0.3-2.7-0.1-4.2-2.4-4.9   c-1.3-0.4-2.5-0.3-3.8,0.1c-1.4,0.4-1.8,1.5-2.2,2.8c-0.8,0-1.8,0-2.7,0c0.4-2.2,1.5-3.8,3.6-4.6c2-0.7,3.9-0.8,6-0.1   c2.4,0.7,3.9,2.7,3.9,5.2c0,3.2,0,6.3,0,9.5C556.3,50.7,556.3,50.8,556.3,51.2z M553.7,44.2c-0.8,0.1-1.7,0.1-2.4,0.3   c-1.5,0.3-3.1,0.6-4.6,1.3c-2.5,1-2.1,3.8-0.6,5c1.4,1.1,3.4,1.3,5.2,0.1C553.4,49.6,554.2,47.2,553.7,44.2z"/>
	<path d="M716.4,53.3c-2.8,0-5.5,0-8.1,0c0-1.1,0-2.2,0-3.5c0.6,0,1.1,0,1.7,0c0-3.6,0-7.1,0-10.8c-0.6,0-1,0-1.7,0   c0-1.3,0-2.4,0-3.5c2,0,3.9,0,6,0c0,0.8,0,1.5,0,2.4c1.4-2.7,3.6-3.4,6.4-2.7c0,1.4,0,2.7,0,4.1c-1,0-2.1-0.1-3.1,0   c-2.1,0.3-3.4,1.8-3.4,4.1c0,2,0,3.9,0,5.7c0,0.1,0,0.4,0,0.7c0.7,0,1.4,0,2.1,0C716.4,51,716.4,52.1,716.4,53.3z"/>
	<path d="M613.4,30.9c-0.8,0-1.7,0-2.4,0c0-0.7,0-1.4,0-2.1c1.4,0,2.9,0,4.3,0c0.3,0,0.4,0,0.7,0c0,7.4,0,14.9,0,22.3   c0.8,0,1.5,0,2.4,0c0,0.7,0,1.4,0,2.1c-2.5,0-4.9,0-7.4,0c0-0.7,0-1.4,0-2.1c0.8,0,1.5,0,2.5,0C613.4,44.5,613.4,37.8,613.4,30.9z"/>
	<path d="M758.4,46.6c-0.1,2.1-0.7,4.1-2.2,5.5c-3.1,2.8-8,1.7-9.5-2.2c-0.8-2-0.8-4.1-0.1-6c0.8-2.5,2.9-4.1,5.7-4.1   c2.7,0,4.8,1.5,5.7,4.1C758.1,44.8,758.3,45.6,758.4,46.6z M756.2,46.8c0-1.4-0.3-2.7-1-3.8c-1.5-2.2-5-2.1-6.2,0.3   c-1.1,2.2-1.1,4.6,0,6.9c1.1,2.1,4.1,2.4,5.7,0.7C755.9,49.7,756,48.2,756.2,46.8z"/>
	<path d="M760.1,53.3c0-0.6,0-1,0-1.5c0.6,0,1.3,0,1.8,0c0-3.4,0-6.9,0-10.2c-0.7,0-1.3,0-2,0c0-0.6,0-1,0-1.5c1.3,0,2.5,0,3.8,0   c0,1,0,1.8,0,2.8c1.1-2.2,2.8-3.5,5.5-2.8c0,0.6,0,1.3,0,1.8c-0.1,0-0.4,0-0.6,0c-2.5-0.4-4.6,1.1-4.8,3.8c-0.1,2.1,0,4.2,0,6.3   c0.7,0,1.4,0,2.2,0c0,0.6,0,1.1,0,1.5C764.2,53.3,762,53.3,760.1,53.3z"/>
	<path d="M741,53.3c0-0.7,0-1.4,0-2.2c0.7,0,1.4,0,2.2,0c0,0.7,0,1.4,0,2.2C742.6,53.3,741.7,53.3,741,53.3z"/>
</g>
<g>
	<path class="st1" d="M29.5,28.7l3.1,19.9l0,0l3.8-19.9h2.2l3.9,19.9l0,0l2.8-19.9h2.5L43.9,54h-2.4l-4-19.9l0,0l-4,19.9h-2.4   l-4.3-25.3H29.5z M52.8,28.7v10.9h7.6V28.7h2.5V54h-2.5V42h-7.6v12h-2.5V28.7H52.8z M76.8,28.7v2.6h-8.6v8.3h6.5V42h-6.5v9.7h9V54   H65.3V28.7H76.8z M83.5,28.7L90,47.5h0.2V28.7h2.5V54h-2.8l-7.8-22H82v22h-3V28.7H83.5z M116.3,28.7v2.6h-5.1V54h-2.8V31.3h-5.1   v-2.6C103.3,28.7,116.3,28.7,116.3,28.7z M121.5,28.7v10.9h7.6V28.7h2.6V54h-2.6V42h-7.6v12h-3V28.7H121.5z M145.5,28.7v2.6h-8.6   v8.3h6.5V42h-6.5v9.7h9V54h-11.8V28.7H145.5z M306.7,35.2c-0.2-2.5-1.3-4.5-3.9-4.5c-2.1,0-3.4,1.4-3.4,3.3   c0,5.7,10.2,5.8,10.2,13.9c0,4-2.4,6.4-6.5,6.4c-3.9,0-6.4-2.8-6.4-7.2h2.5c0,3.2,1.5,5,4.1,5c2.2,0,3.8-1.4,3.8-4.1   c0-5.8-10.2-6.4-10.2-13.6c0-3.5,2.5-5.9,6-5.9c3.7,0,6,2.5,6.3,6.9L306.7,35.2L306.7,35.2z M323.8,28.7v2.6h-5.1V54h-2.8V31.3   h-5.1v-2.6C310.8,28.7,323.8,28.7,323.8,28.7z M331.8,54.4c-4.3,0-7.1-3.5-7.1-13s2.8-13,7.1-13s7.1,3.5,7.1,13   C339,50.9,336.1,54.4,331.8,54.4 M331.8,30.8c-2.5,0-4.4,2.1-4.4,10.6s1.9,10.6,4.4,10.6s4.4-2.1,4.4-10.6   C336.2,32.8,334.3,30.8,331.8,30.8"/>
	<path class="st1" d="M341.6,28.7h6c4.1,0,6.7,2.8,6.7,7.1s-2.6,7.1-6.7,7.1h-3.1V54h-2.8V28.7H341.6z M344.6,40.2h2.7   c2.7,0,4.4-1.3,4.4-4.5s-1.7-4.5-4.4-4.5h-2.7V40.2z M366.4,35.2c-0.2-2.5-1.3-4.5-3.9-4.5c-2.1,0-3.4,1.4-3.4,3.3   c0,5.7,10.2,5.8,10.2,13.9c0,4-2.4,6.4-6.5,6.4c-3.9,0-6.4-2.8-6.4-7.2h2.5c0.1,3.2,1.5,5,4.1,5c2.2,0,3.8-1.4,3.8-4.1   c0-5.8-10.2-6.4-10.2-13.6c0-3.5,2.5-5.9,6-5.9c3.7,0,6,2.5,6.3,6.9L366.4,35.2L366.4,35.2z M306.7,35.2c-0.2-2.5-1.3-4.5-3.9-4.5   c-2.1,0-3.4,1.4-3.4,3.3c0,5.7,10.2,5.8,10.2,13.9c0,4-2.4,6.4-6.5,6.4c-3.9,0-6.4-2.8-6.4-7.2h2.5c0,3.2,1.5,5,4.1,5   c2.2,0,3.8-1.4,3.8-4.1c0-5.8-10.2-6.4-10.2-13.6c0-3.5,2.5-5.9,6-5.9c3.7,0,6,2.5,6.3,6.9L306.7,35.2L306.7,35.2z M323.8,28.7v2.6   h-5.1V54h-2.8V31.3h-5.1v-2.6C310.8,28.7,323.8,28.7,323.8,28.7z M331.8,54.4c-4.3,0-7.1-3.5-7.1-13s2.8-13,7.1-13s7.1,3.5,7.1,13   C339,50.9,336.1,54.4,331.8,54.4 M331.8,30.8c-2.5,0-4.4,2.1-4.4,10.6s1.9,10.6,4.4,10.6s4.4-2.1,4.4-10.6   C336.2,32.8,334.3,30.8,331.8,30.8"/>
	<path class="st1" d="M341.6,28.7h6c4.1,0,6.7,2.8,6.7,7.1s-2.6,7.1-6.7,7.1h-3.1V54h-2.8V28.7H341.6z M344.6,40.2h2.7   c2.7,0,4.4-1.3,4.4-4.5s-1.7-4.5-4.4-4.5h-2.7V40.2z M366.4,35.2c-0.2-2.5-1.3-4.5-3.9-4.5c-2.1,0-3.4,1.4-3.4,3.3   c0,5.7,10.2,5.8,10.2,13.9c0,4-2.4,6.4-6.5,6.4c-3.9,0-6.4-2.8-6.4-7.2h2.5c0.1,3.2,1.5,5,4.1,5c2.2,0,3.8-1.4,3.8-4.1   c0-5.8-10.2-6.4-10.2-13.6c0-3.5,2.5-5.9,6-5.9c3.7,0,6,2.5,6.3,6.9L366.4,35.2L366.4,35.2z M437.5,32.3h-1.7v7.8h1.7   c2.8,0,3.7-0.8,3.7-3.9C441.2,33.2,440.3,32.3,437.5,32.3 M421.9,32.2c-1.8,0-2.4,0.9-2.4,2.8v12.9c0,1.9,0.6,2.8,2.4,2.8   s2.4-0.9,2.4-2.8v-13C424.2,33,423.7,32.2,421.9,32.2 M430,5.7h-29.6l-20.7,20.8v29.6l20.7,20.7H430l18-18.1l2.6-2.6V26.5L430,5.7z    M391.9,54.4c-4,0-6.4-3.2-6.5-7l4.1-0.6c0.2,2.6,1.2,3.8,2.6,3.8c1.5,0,2.5-0.8,2.5-2.4c0-5-8.9-6.4-8.9-13.6c0-4,2.5-6.3,6.7-6.3   c3.5,0,5.7,2.6,6,6.1l-4.1,0.6c-0.2-2.1-1.3-2.8-2.4-2.8c-1.4,0-2.1,0.9-2.1,2.5c0,4.3,8.9,6.4,8.9,13.2   C398.7,52.1,395.9,54.4,391.9,54.4 M413,32.6h-4.3v21.5h-4.4V32.6h-4.1v-3.8H413V32.6L413,32.6z M428.6,47.9c0,3.5-2.1,6.5-6.6,6.5   s-6.6-3-6.6-6.5v-13c0-3.5,2.1-6.5,6.6-6.5s6.6,3,6.6,6.5V47.9z M437.7,43.7h-1.9v10.4h-4.4V28.7h6.3c5.4,0,7.8,2.1,7.8,7.4   C445.5,41.7,443,43.7,437.7,43.7"/>
	<path class="st1" d="M446.7,5.8v0.5h-1.1v4.6H445V6.3h-1.1V5.8H446.7L446.7,5.8z M448.1,5.8l0.8,3.8l0.8-3.8h0.8v5.1H450V6.3   l-1.1,4.6h-0.4l-1.1-4.6v4.6h-0.5V5.8H448.1z M215.2,50.1c2.7,0,3.1-1.7,3.1-2.7v-30h18.6v29.9c0,10.3-8,20.9-21.4,20.9h-0.2   c-13.4,0-21.4-10.6-21.4-20.9V17.4h18.6v29.9C212.2,48.4,212.6,50.1,215.2,50.1L215.2,50.1z"/>
	<path class="st0" d="M215.4,67.1h-0.2c-12.6,0-20.2-10-20.2-19.7V18.6h16.1v28.7c0,0.9,0.4,3.9,4.3,3.9c4,0,4.3-3.1,4.3-3.9V18.6   h16.1v28.7C235.6,57.2,228.1,67.1,215.4,67.1z M195.7,19.4v28c0,9.3,7.3,19,19.5,19h0.2c12.2,0,19.5-9.7,19.5-19v-28h-14.5v28   c0,1.3-0.5,2.4-1.2,3.2c-0.8,0.9-2.2,1.5-3.9,1.5s-3.1-0.5-3.9-1.5c-0.7-0.8-1.2-1.9-1.2-3.2v-28L195.7,19.4L195.7,19.4z"/>
	<path class="st1" d="M266.9,17.4v15.5l-9.2-14.2l-0.8-1.3h-17.4v50.4h18.2V52.2l9.5,14.2l0.9,1.3h17V17.4H266.9z"/>
	<path class="st0" d="M283.8,66.6h-15.3l-0.5-0.7l-11.6-17.6v18.3h-15.8v-48h15.5l0.5,0.8L268.2,37V18.7h15.7L283.8,66.6L283.8,66.6   z M269,65.8h14.1V19.4h-14.2v20.2L256,19.9l-0.2-0.5h-14.3v46.3h14.3V45.6l13,19.7L269,65.8L269,65.8z"/>
	<path class="st1" d="M190.9,34.6V17.4h-33.6v50.4h18.3V54.4H191V37.3h-15.4v-2.7H190.9z"/>
	<path class="st0" d="M174.3,66.6h-15.8v-48h31.2v14.8h-15.4v5.2h15.4v14.7h-15.4V66.6L174.3,66.6z M159.2,65.8h14.3V52.4h15.4V39.3   h-15.4v-6.6h15.4V19.4h-29.7V65.8L159.2,65.8z"/>
	<circle class="st2" cx="170.2" cy="62.4" r="0.8"/>
	<circle class="st2" cx="166.3" cy="62.4" r="0.8"/>
	<circle class="st2" cx="162.5" cy="62.4" r="0.8"/>
	<circle class="st2" cx="170.2" cy="59" r="0.8"/>
	<circle class="st2" cx="166.3" cy="59" r="0.8"/>
	<circle class="st2" cx="162.5" cy="59" r="0.8"/>
	<circle class="st2" cx="170.2" cy="55.7" r="0.8"/>
	<circle class="st2" cx="166.3" cy="55.7" r="0.8"/>
	<circle class="st2" cx="162.5" cy="55.7" r="0.8"/>
	<circle class="st2" cx="170.2" cy="52.4" r="0.8"/>
	<circle class="st2" cx="166.3" cy="52.4" r="0.8"/>
	<circle class="st2" cx="162.5" cy="52.4" r="0.8"/>
	<circle class="st2" cx="185.6" cy="49.1" r="0.8"/>
	<circle class="st2" cx="181.7" cy="49.1" r="0.8"/>
	<circle class="st2" cx="177.9" cy="49.1" r="0.8"/>
	<circle class="st2" cx="174" cy="49.1" r="0.8"/>
	<circle class="st2" cx="170.2" cy="49.1" r="0.8"/>
	<circle class="st2" cx="166.3" cy="49.1" r="0.8"/>
	<circle class="st2" cx="162.5" cy="49.1" r="0.8"/>
	<circle class="st2" cx="185.6" cy="45.8" r="0.8"/>
	<circle class="st2" cx="181.7" cy="45.8" r="0.8"/>
	<circle class="st2" cx="177.9" cy="45.8" r="0.8"/>
	<circle class="st2" cx="174" cy="45.8" r="0.8"/>
	<circle class="st2" cx="170.2" cy="45.8" r="0.8"/>
	<circle class="st2" cx="166.3" cy="45.8" r="0.8"/>
	<circle class="st2" cx="162.5" cy="45.8" r="0.8"/>
	<circle class="st2" cx="185.6" cy="42.5" r="0.8"/>
	<circle class="st2" cx="181.7" cy="42.5" r="0.8"/>
	<circle class="st2" cx="177.9" cy="42.5" r="0.8"/>
	<circle class="st2" cx="174" cy="42.5" r="0.8"/>
	<circle class="st2" cx="170.2" cy="42.5" r="0.8"/>
	<circle class="st2" cx="166.3" cy="42.5" r="0.8"/>
	<circle class="st2" cx="162.5" cy="42.5" r="0.8"/>
	<circle class="st2" cx="170.2" cy="39.2" r="0.8"/>
	<circle class="st2" cx="166.3" cy="39.2" r="0.8"/>
	<circle class="st2" cx="162.5" cy="39.2" r="0.8"/>
	<circle class="st2" cx="170.2" cy="35.9" r="0.8"/>
	<circle class="st2" cx="166.3" cy="35.9" r="0.8"/>
	<circle class="st2" cx="162.5" cy="35.9" r="0.8"/>
	<circle class="st2" cx="170.2" cy="32.6" r="0.8"/>
	<circle class="st2" cx="166.3" cy="32.6" r="0.8"/>
	<circle class="st2" cx="162.5" cy="32.6" r="0.8"/>
	<circle class="st2" cx="185.6" cy="29.4" r="0.8"/>
	<circle class="st2" cx="181.7" cy="29.4" r="0.8"/>
	<circle class="st2" cx="177.9" cy="29.4" r="0.8"/>
	<circle class="st2" cx="174" cy="29.4" r="0.8"/>
	<circle class="st2" cx="170.2" cy="29.4" r="0.8"/>
	<circle class="st2" cx="166.3" cy="29.4" r="0.8"/>
	<circle class="st2" cx="162.5" cy="29.4" r="0.8"/>
	<circle class="st2" cx="185.6" cy="25.9" r="0.8"/>
	<circle class="st2" cx="181.7" cy="25.9" r="0.8"/>
	<circle class="st2" cx="177.9" cy="25.9" r="0.8"/>
	<circle class="st2" cx="174" cy="25.9" r="0.8"/>
	<circle class="st2" cx="170.2" cy="25.9" r="0.8"/>
	<circle class="st2" cx="166.3" cy="25.9" r="0.8"/>
	<circle class="st2" cx="162.5" cy="25.9" r="0.8"/>
	<circle class="st2" cx="185.6" cy="22.6" r="0.8"/>
	<circle class="st2" cx="181.7" cy="22.6" r="0.8"/>
	<circle class="st2" cx="177.9" cy="22.6" r="0.8"/>
	<circle class="st2" cx="174" cy="22.6" r="0.8"/>
	<circle class="st2" cx="170.2" cy="22.6" r="0.8"/>
	<circle class="st2" cx="166.3" cy="22.6" r="0.8"/>
	<circle class="st2" cx="162.5" cy="22.6" r="0.8"/>
	<circle class="st2" cx="279.8" cy="62.5" r="0.8"/>
	<circle class="st2" cx="275.9" cy="62.5" r="0.8"/>
	<circle class="st2" cx="272" cy="62.5" r="0.8"/>
	<circle class="st2" cx="252.4" cy="62.5" r="0.8"/>
	<circle class="st2" cx="248.6" cy="62.5" r="0.8"/>
	<circle class="st2" cx="244.7" cy="62.5" r="0.8"/>
	<circle class="st2" cx="279.8" cy="59.2" r="0.8"/>
	<circle class="st2" cx="275.9" cy="59.2" r="0.8"/>
	<circle class="st2" cx="272" cy="59.2" r="0.8"/>
	<circle class="st2" cx="268.1" cy="59.2" r="0.8"/>
	<circle class="st2" cx="252.4" cy="59.2" r="0.8"/>
	<circle class="st2" cx="248.6" cy="59.2" r="0.8"/>
	<circle class="st2" cx="244.7" cy="59.2" r="0.8"/>
	<circle class="st2" cx="279.8" cy="55.9" r="0.8"/>
	<circle class="st2" cx="275.9" cy="55.9" r="0.8"/>
	<circle class="st2" cx="272" cy="55.9" r="0.8"/>
	<circle class="st2" cx="268.1" cy="55.9" r="0.8"/>
	<circle class="st2" cx="252.4" cy="55.9" r="0.8"/>
	<circle class="st2" cx="248.6" cy="55.9" r="0.8"/>
	<circle class="st2" cx="244.7" cy="55.9" r="0.8"/>
	<circle class="st2" cx="279.8" cy="52.5" r="0.8"/>
	<circle class="st2" cx="275.9" cy="52.5" r="0.8"/>
	<circle class="st2" cx="272" cy="52.5" r="0.8"/>
	<circle class="st2" cx="268.1" cy="52.5" r="0.8"/>
	<circle class="st2" cx="264.2" cy="52.5" r="0.8"/>
	<circle class="st2" cx="252.4" cy="52.5" r="0.8"/>
	<circle class="st2" cx="248.6" cy="52.5" r="0.8"/>
	<circle class="st2" cx="244.7" cy="52.5" r="0.8"/>
	<circle class="st2" cx="279.8" cy="49.2" r="0.8"/>
	<circle class="st2" cx="275.9" cy="49.2" r="0.8"/>
	<circle class="st2" cx="272" cy="49.2" r="0.8"/>
	<circle class="st2" cx="268.1" cy="49.2" r="0.8"/>
	<circle class="st2" cx="264.2" cy="49.2" r="0.8"/>
	<circle class="st2" cx="252.4" cy="49.2" r="0.8"/>
	<circle class="st2" cx="248.6" cy="49.2" r="0.8"/>
	<circle class="st2" cx="244.7" cy="49.2" r="0.8"/>
	<circle class="st2" cx="279.8" cy="45.9" r="0.8"/>
	<circle class="st2" cx="275.9" cy="45.9" r="0.8"/>
	<circle class="st2" cx="272" cy="45.9" r="0.8"/>
	<circle class="st2" cx="268.1" cy="45.9" r="0.8"/>
	<circle class="st2" cx="264.2" cy="45.9" r="0.8"/>
	<circle class="st2" cx="260.3" cy="45.9" r="0.8"/>
	<circle class="st2" cx="252.4" cy="45.9" r="0.8"/>
	<circle class="st2" cx="248.6" cy="45.9" r="0.8"/>
	<circle class="st2" cx="244.7" cy="45.9" r="0.8"/>
	<circle class="st2" cx="279.8" cy="42.6" r="0.8"/>
	<circle class="st2" cx="275.9" cy="42.6" r="0.8"/>
	<circle class="st2" cx="272" cy="42.6" r="0.8"/>
	<circle class="st2" cx="268.1" cy="42.6" r="0.8"/>
	<circle class="st2" cx="264.2" cy="42.6" r="0.8"/>
	<circle class="st2" cx="260.3" cy="42.6" r="0.8"/>
	<circle class="st2" cx="256.3" cy="42.6" r="0.8"/>
	<circle class="st2" cx="252.4" cy="42.6" r="0.8"/>
	<circle class="st2" cx="248.6" cy="42.6" r="0.8"/>
	<circle class="st2" cx="244.7" cy="42.6" r="0.8"/>
	<circle class="st2" cx="279.8" cy="39.2" r="0.8"/>
	<circle class="st2" cx="275.9" cy="39.2" r="0.8"/>
	<circle class="st2" cx="272" cy="39.2" r="0.8"/>
	<circle class="st2" cx="264.2" cy="39.2" r="0.8"/>
	<circle class="st2" cx="260.3" cy="39.2" r="0.8"/>
	<circle class="st2" cx="256.3" cy="39.2" r="0.8"/>
	<circle class="st2" cx="252.4" cy="39.2" r="0.8"/>
	<circle class="st2" cx="248.6" cy="39.2" r="0.8"/>
	<circle class="st2" cx="244.7" cy="39.2" r="0.8"/>
	<circle class="st2" cx="279.8" cy="36" r="0.8"/>
	<circle class="st2" cx="275.9" cy="36" r="0.8"/>
	<circle class="st2" cx="272" cy="36" r="0.8"/>
	<circle class="st2" cx="260.3" cy="36" r="0.8"/>
	<circle class="st2" cx="256.3" cy="36" r="0.8"/>
	<circle class="st2" cx="252.4" cy="36" r="0.8"/>
	<circle class="st2" cx="248.6" cy="36" r="0.8"/>
	<circle class="st2" cx="244.7" cy="36" r="0.8"/>
	<circle class="st2" cx="279.8" cy="32.6" r="0.8"/>
	<circle class="st2" cx="275.9" cy="32.6" r="0.8"/>
	<circle class="st2" cx="272" cy="32.6" r="0.8"/>
	<circle class="st2" cx="260.3" cy="32.6" r="0.8"/>
	<circle class="st2" cx="256.3" cy="32.6" r="0.8"/>
	<circle class="st2" cx="252.4" cy="32.6" r="0.8"/>
	<circle class="st2" cx="248.6" cy="32.6" r="0.8"/>
	<circle class="st2" cx="244.7" cy="32.6" r="0.8"/>
	<circle class="st2" cx="279.8" cy="29.4" r="0.8"/>
	<circle class="st2" cx="275.9" cy="29.4" r="0.8"/>
	<circle class="st2" cx="272" cy="29.4" r="0.8"/>
	<circle class="st2" cx="256.3" cy="29.4" r="0.8"/>
	<circle class="st2" cx="252.4" cy="29.4" r="0.8"/>
	<circle class="st2" cx="248.6" cy="29.4" r="0.8"/>
	<circle class="st2" cx="244.7" cy="29.4" r="0.8"/>
	<circle class="st2" cx="279.8" cy="25.9" r="0.8"/>
	<circle class="st2" cx="275.9" cy="25.9" r="0.8"/>
	<circle class="st2" cx="272" cy="25.9" r="0.8"/>
	<circle class="st2" cx="256.3" cy="25.9" r="0.8"/>
	<circle class="st2" cx="252.4" cy="25.9" r="0.8"/>
	<circle class="st2" cx="248.6" cy="25.9" r="0.8"/>
	<circle class="st2" cx="244.7" cy="25.9" r="0.8"/>
	<circle class="st2" cx="279.8" cy="22.6" r="0.8"/>
	<circle class="st2" cx="275.9" cy="22.6" r="0.8"/>
	<circle class="st2" cx="272" cy="22.6" r="0.8"/>
	<circle class="st2" cx="252.4" cy="22.6" r="0.8"/>
	<circle class="st2" cx="248.6" cy="22.6" r="0.8"/>
	<circle class="st2" cx="244.7" cy="22.6" r="0.8"/>
	<circle class="st2" cx="223.4" cy="62.4" r="0.8"/>
	<circle class="st2" cx="219.3" cy="62.4" r="0.8"/>
	<circle class="st2" cx="215.1" cy="62.4" r="0.8"/>
	<circle class="st2" cx="211.1" cy="62.4" r="0.8"/>
	<circle class="st2" cx="207" cy="62.4" r="0.8"/>
	<circle class="st2" cx="227.5" cy="59" r="0.8"/>
	<circle class="st2" cx="223.4" cy="59" r="0.8"/>
	<circle class="st2" cx="219.3" cy="59" r="0.8"/>
	<circle class="st2" cx="215.1" cy="59" r="0.8"/>
	<circle class="st2" cx="211.1" cy="59" r="0.8"/>
	<circle class="st2" cx="207" cy="59" r="0.8"/>
	<circle class="st2" cx="202.8" cy="59" r="0.8"/>
	<circle class="st2" cx="227.5" cy="55.7" r="0.8"/>
	<circle class="st2" cx="223.4" cy="55.7" r="0.8"/>
	<circle class="st2" cx="219.3" cy="55.7" r="0.8"/>
	<circle class="st2" cx="215.1" cy="55.7" r="0.8"/>
	<circle class="st2" cx="211.1" cy="55.7" r="0.8"/>
	<circle class="st2" cx="207" cy="55.7" r="0.8"/>
	<circle class="st2" cx="202.8" cy="55.7" r="0.8"/>
	<circle class="st2" cx="231.7" cy="52.4" r="0.8"/>
	<circle class="st2" cx="227.5" cy="52.4" r="0.8"/>
	<circle class="st2" cx="223.4" cy="52.4" r="0.8"/>
	<circle class="st2" cx="207" cy="52.4" r="0.8"/>
	<circle class="st2" cx="202.8" cy="52.4" r="0.8"/>
	<path class="st2" d="M198.7,51.6c0.5,0,0.8,0.4,0.8,0.8s-0.4,0.8-0.8,0.8s-0.8-0.4-0.8-0.8S198.2,51.6,198.7,51.6z"/>
	<circle class="st2" cx="231.7" cy="49.1" r="0.8"/>
	<circle class="st2" cx="227.5" cy="49.1" r="0.8"/>
	<circle class="st2" cx="223.4" cy="49.1" r="0.8"/>
	<circle class="st2" cx="207" cy="49.1" r="0.8"/>
	<circle class="st2" cx="202.8" cy="49.1" r="0.8"/>
	<path class="st2" d="M198.7,48.3c0.5,0,0.8,0.4,0.8,0.8s-0.4,0.8-0.8,0.8s-0.8-0.4-0.8-0.8S198.2,48.3,198.7,48.3z"/>
	<circle class="st2" cx="231.7" cy="45.8" r="0.8"/>
	<circle class="st2" cx="227.5" cy="45.8" r="0.8"/>
	<circle class="st2" cx="223.4" cy="45.8" r="0.8"/>
	<circle class="st2" cx="207" cy="45.8" r="0.8"/>
	<circle class="st2" cx="202.8" cy="45.8" r="0.8"/>
	<path class="st2" d="M198.7,45c0.5,0,0.8,0.4,0.8,0.8s-0.4,0.8-0.8,0.8s-0.8-0.4-0.8-0.8C197.9,45.3,198.2,45,198.7,45z"/>
	<circle class="st2" cx="231.7" cy="42.5" r="0.8"/>
	<circle class="st2" cx="227.5" cy="42.5" r="0.8"/>
	<circle class="st2" cx="223.4" cy="42.5" r="0.8"/>
	<circle class="st2" cx="207" cy="42.5" r="0.8"/>
	<circle class="st2" cx="202.8" cy="42.5" r="0.8"/>
	<path class="st2" d="M198.7,41.7c0.5,0,0.8,0.4,0.8,0.8s-0.4,0.8-0.8,0.8s-0.8-0.4-0.8-0.8C197.9,42,198.2,41.7,198.7,41.7z"/>
	<circle class="st2" cx="231.7" cy="39.2" r="0.8"/>
	<circle class="st2" cx="227.5" cy="39.2" r="0.8"/>
	<circle class="st2" cx="223.4" cy="39.2" r="0.8"/>
	<circle class="st2" cx="207" cy="39.2" r="0.8"/>
	<circle class="st2" cx="202.8" cy="39.2" r="0.8"/>
	<path class="st2" d="M198.7,38.4c0.5,0,0.8,0.4,0.8,0.8s-0.4,0.8-0.8,0.8s-0.8-0.4-0.8-0.8C197.9,38.7,198.2,38.4,198.7,38.4z"/>
	<circle class="st2" cx="231.7" cy="35.9" r="0.8"/>
	<circle class="st2" cx="227.5" cy="35.9" r="0.8"/>
	<circle class="st2" cx="223.4" cy="35.9" r="0.8"/>
	<circle class="st2" cx="207" cy="35.9" r="0.8"/>
	<circle class="st2" cx="202.8" cy="35.9" r="0.8"/>
	<path class="st2" d="M198.7,35c0.5,0,0.8,0.4,0.8,0.8s-0.4,0.8-0.8,0.8s-0.8-0.4-0.8-0.8C197.9,35.4,198.2,35,198.7,35z"/>
	<circle class="st2" cx="231.7" cy="32.6" r="0.8"/>
	<circle class="st2" cx="227.5" cy="32.6" r="0.8"/>
	<circle class="st2" cx="223.4" cy="32.6" r="0.8"/>
	<circle class="st2" cx="207" cy="32.6" r="0.8"/>
	<circle class="st2" cx="202.8" cy="32.6" r="0.8"/>
	<path class="st2" d="M198.7,31.7c0.5,0,0.8,0.4,0.8,0.8s-0.4,0.8-0.8,0.8s-0.8-0.4-0.8-0.8C197.9,32.1,198.2,31.7,198.7,31.7z"/>
	<circle class="st2" cx="231.7" cy="29.3" r="0.8"/>
	<circle class="st2" cx="227.5" cy="29.3" r="0.8"/>
	<circle class="st2" cx="223.4" cy="29.3" r="0.8"/>
	<circle class="st2" cx="207" cy="29.3" r="0.8"/>
	<circle class="st2" cx="202.8" cy="29.3" r="0.8"/>
	<path class="st2" d="M198.7,28.4c0.5,0,0.8,0.4,0.8,0.8c0,0.5-0.4,0.8-0.8,0.8s-0.8-0.4-0.8-0.8C197.9,28.8,198.2,28.4,198.7,28.4z   "/>
	<circle class="st2" cx="231.7" cy="25.9" r="0.8"/>
	<circle class="st2" cx="227.5" cy="25.9" r="0.8"/>
	<circle class="st2" cx="223.4" cy="25.9" r="0.8"/>
	<circle class="st2" cx="207" cy="25.9" r="0.8"/>
	<circle class="st2" cx="202.8" cy="25.9" r="0.8"/>
	<path class="st2" d="M198.7,25.1c0.5,0,0.8,0.4,0.8,0.8c0,0.5-0.4,0.8-0.8,0.8s-0.8-0.4-0.8-0.8C197.9,25.5,198.2,25.1,198.7,25.1z   "/>
	<circle class="st2" cx="231.7" cy="22.6" r="0.8"/>
	<circle class="st2" cx="227.5" cy="22.6" r="0.8"/>
	<circle class="st2" cx="223.4" cy="22.6" r="0.8"/>
	<circle class="st2" cx="207" cy="22.6" r="0.8"/>
	<circle class="st2" cx="202.8" cy="22.6" r="0.8"/>
	<path class="st2" d="M198.7,21.8c0.5,0,0.8,0.4,0.8,0.8s-0.4,0.8-0.8,0.8s-0.8-0.4-0.8-0.8S198.2,21.8,198.7,21.8z"/>
</g>
</svg>