<svg version="1.1" xmlns="http://www.w3.org/2000/svg" x="0" y="0" viewBox="0 0 512 480" xml:space="preserve"><style type="text/css">
	.st0{fill:#CAD0D7;}
	.st1{fill:#E1E6E9;}
	.st2{fill:#99A5AD;}
	.st3{fill:#5A5B67;}
</style><path class="st0" d="M496 0H16C7.2 0 0 7.2 0 16v448c0 8.8 7.2 16 16 16h480c8.8 0 16-7.2 16-16V16C512 7.2 504.8 0 496 0zM496 456c0 4.4-3.6 8-8 8H24c-4.4 0-8-3.6-8-8V72c0-4.4 3.6-8 8-8h464c4.4 0 8 3.6 8 8V456z"/><path class="st1" d="M490 40H118c-3.3 0-6-2.7-6-6v-4c0-3.3 2.7-6 6-6h372c3.3 0 6 2.7 6 6v4C496 37.3 493.3 40 490 40z"/><path class="st2" d="M24 40L24 40c-4.4 0-8-3.6-8-8v0c0-4.4 3.6-8 8-8h0c4.4 0 8 3.6 8 8v0C32 36.4 28.4 40 24 40zM64 32L64 32c0-4.4-3.6-8-8-8h0c-4.4 0-8 3.6-8 8v0c0 4.4 3.6 8 8 8h0C60.4 40 64 36.4 64 32zM96 32L96 32c0-4.4-3.6-8-8-8h0c-4.4 0-8 3.6-8 8v0c0 4.4 3.6 8 8 8h0C92.4 40 96 36.4 96 32z"/><path class="st2" d="M256 224L256 224c-17.7 0-32 14.3-32 32v0c0 17.7 14.3 32 32 32h0c17.7 0 32-14.3 32-32v0C288 238.3 273.7 224 256 224zM256 272c-8.8 0-16-7.2-16-16s7.2-16 16-16 16 7.2 16 16S264.8 272 256 272z"/><path class="st2" d="M256 368L256 368c-17.7 0-32 14.3-32 32v0c0 17.7 14.3 32 32 32h0c17.7 0 32-14.3 32-32v0C288 382.3 273.7 368 256 368zM256 416c-8.8 0-16-7.2-16-16s7.2-16 16-16 16 7.2 16 16S264.8 416 256 416z"/><path class="st3" d="M256 96L256 96c-17.7 0-32 14.3-32 32v0c0 17.7 14.3 32 32 32h0c17.7 0 32-14.3 32-32v0C288 110.3 273.7 96 256 96zM256 144c-8.8 0-16-7.2-16-16s7.2-16 16-16 16 7.2 16 16S264.8 144 256 144z"/><path class="st3" d="M256 136L256 136c-4.4 0-8-3.6-8-8v0c0-4.4 3.6-8 8-8h0c4.4 0 8 3.6 8 8v0C264 132.4 260.4 136 256 136z"/><path class="st0" d="M256 184L256 184c-4.4 0-8-3.6-8-8v0c0-4.4 3.6-8 8-8h0c4.4 0 8 3.6 8 8v0C264 180.4 260.4 184 256 184zM264 208L264 208c0-4.4-3.6-8-8-8h0c-4.4 0-8 3.6-8 8v0c0 4.4 3.6 8 8 8h0C260.4 216 264 212.4 264 208zM264 312L264 312c0-4.4-3.6-8-8-8h0c-4.4 0-8 3.6-8 8l0 0c0 4.4 3.6 8 8 8h0C260.4 320 264 316.4 264 312zM264 344L264 344c0-4.4-3.6-8-8-8h0c-4.4 0-8 3.6-8 8l0 0c0 4.4 3.6 8 8 8h0C260.4 352 264 348.4 264 344z"/><path class="st0" d="M408 128h-80c-4.4 0-8-3.6-8-8v0c0-4.4 3.6-8 8-8h80c4.4 0 8 3.6 8 8v0C416 124.4 412.4 128 408 128zM480 152L480 152c0-4.4-3.6-8-8-8H328c-4.4 0-8 3.6-8 8v0c0 4.4 3.6 8 8 8h144C476.4 160 480 156.4 480 152zM384 392L384 392c0-4.4-3.6-8-8-8h-48c-4.4 0-8 3.6-8 8l0 0c0 4.4 3.6 8 8 8h48C380.4 400 384 396.4 384 392zM416 424L416 424c0-4.4-3.6-8-8-8h-80c-4.4 0-8 3.6-8 8l0 0c0 4.4 3.6 8 8 8h80C412.4 432 416 428.4 416 424zM480 424L480 424c0-4.4-3.6-8-8-8h-32c-4.4 0-8 3.6-8 8l0 0c0 4.4 3.6 8 8 8h32C476.4 432 480 428.4 480 424zM192 248L192 248c0-4.4-3.6-8-8-8h-80c-4.4 0-8 3.6-8 8v0c0 4.4 3.6 8 8 8h80C188.4 256 192 252.4 192 248zM192 280L192 280c0-4.4-3.6-8-8-8h-32c-4.4 0-8 3.6-8 8l0 0c0 4.4 3.6 8 8 8h32C188.4 288 192 284.4 192 280zM128 280L128 280c0-4.4-3.6-8-8-8H40c-4.4 0-8 3.6-8 8l0 0c0 4.4 3.6 8 8 8h80C124.4 288 128 284.4 128 280z"/></svg>