<svg version="1.1" xmlns="http://www.w3.org/2000/svg" x="0" y="0" viewBox="0 0 512 512" xml:space="preserve"><style type="text/css">
	.st0{fill:#C0DB78;}
	.st1{fill:#50C4CA;}
</style><path class="st0" d="M382.1 256L178.2 52.1 144.2 86l-28.3-28.3 -79.2 79.2L65 165.2l-33.9 33.9L87.9 256h14.1l-10.2-10.2 35.4-35.4 12 12L105.8 256H176v140h215V256H382.1zM224.8 112.9l12 12 -35.4 35.4 -12-12L224.8 112.9zM152.7 209.1l-12-12 35.4-35.4 12 12L152.7 209.1z"/><path class="st1" d="M456 304v-48H56v48H16v112h40v48h400v-48h40V304H456zM200 299h146v17H200V299zM149 454h-17v-50h17V454zM149 385h-17v-50h17V385zM149 316h-1.1H132v-15.9V266h17V316zM252 384h-36.1H200v-15.9V367h52V384zM320 384h-52v-17h52V384zM388 350H200v-17h188V350z"/></svg>