<svg version="1.1" xmlns="http://www.w3.org/2000/svg" x="0" y="0" viewBox="0 0 128 128" xml:space="preserve"><style type="text/css">
	.st0{fill:#24BDBC;}
	.st1{fill:#FFFFFF;}
</style><path class="st0" d="M38.1 50.8c-0.3 0.7-1 1.2-1.8 1.2h-5.7c-2.8 0-4.8-2.9-3.7-5.5C32.6 32.7 46.2 23 62 23h4c15.8 0 29.4 9.7 35.1 23.5 1.1 2.6-0.9 5.5-3.7 5.5h-5.7c-0.8 0-1.5-0.5-1.8-1.2C85.9 41.5 76.7 35 66 35h-4C51.3 35 42.1 41.5 38.1 50.8z"/><path class="st1" d="M64 0L64 0C28.7 0 0 28.7 0 64v0c0 17.3 6.9 33 18 44.5 3.9 4.1 8.4 7.6 13.3 10.5 9.6 5.7 20.8 9 32.7 9h0c12 0 23.1-3.3 32.7-9 4.1-2.4 7.9-5.3 11.3-8.5 12.3-11.7 20-28.2 20-46.5v0C128 28.7 99.3 0 64 0zM63 106c-7.2 0-13-5.8-13-13s5.8-13 13-13c7.2 0 13 5.8 13 13S70.2 106 63 106zM107.1 93H84v0c0-11.6-9.4-21-21-21 -4.5 0-8.7 1.4-12.1 3.8L34.1 59c-2.2-2.2-5.8-2.2-8 0 -2.2 2.2-2.2 5.8 0 8l17.7 17.7C42.6 87.3 42 90.1 42 93v0H20.9C15.3 84.7 12 74.7 12 64c0-28.7 23.3-52 52-52s52 23.3 52 52C116 74.7 112.7 84.7 107.1 93z"/></svg>