<svg version="1.1" xmlns="http://www.w3.org/2000/svg" x="0" y="0" viewBox="0 0 500 500" xml:space="preserve"><style type="text/css">
	.st0{fill:#154658;}
</style><path class="st0" d="M400.8 332.9c0 48-40.3 86.2-88.2 82.7 -9.9-0.7-19.5-4.8-29.3-7.3 -2.1-0.5-4.7-1.3-6.5-0.5 -59.8 25.6-139.1-11.2-160.6-80.7 -6.7-21.6-10-43.8-10.9-66.2 -0.4-9.5 2.2-18.8 6.5-27.4 6-12 16.6-17 29.1-19.4 18.8-3.5 37.5-7.4 56.2-10.9 1.6-0.3 3.6 0.1 4.9 0.9 22 13.6 43.9 13.5 65.8 0 1.3-0.8 3.4-1.2 4.9-0.9 18.1 3.5 36.1 7.6 54.2 10.7 22.3 3.8 33.5 14.8 36.7 37.6 0.4 3.1 0.4 6.4 1.1 9.4 0.5 2.1 1.6 4.7 3.2 6C389.1 283.3 400.8 306.9 400.8 332.9zM318 253.9c-42.6-1-78.4 35-79.4 77.1 -1.1 44.8 35.9 80.7 77.8 81.4 44.2 0.8 80.4-35.9 80.9-78.3C397.9 290.1 361.1 252.8 318 253.9z"/><path class="st0" d="M234.7 203.8c-32.6 0-58.6-26.4-58.5-59.4 0-32.3 26.5-58.3 59.2-58.3 32.6 0 58.6 26.4 58.5 59.4C293.8 177.8 267.4 203.9 234.7 203.8z"/><path class="st0" d="M348.7 282.9c5 5 9.4 9.4 14.1 14.1 -23.9 24.3-48.1 48.8-72.1 73.2 -4.8-4.9-9.3-9.4-14-14.1C300.4 331.9 324.6 307.4 348.7 282.9z"/><path class="st0" d="M369 384c0 2.3 0 3.5 0 7 -34.7 0-68.3 0-102 0 0-2.3 0-4.7 0-7C300.7 384 334.3 384 369 384z"/><path class="st0" d="M275 357.6c4.8 5.2 8.8 9.6 13.2 14.3 -6.2 2.2-12.7 4.4-20 6.9C270.5 371.6 272.6 365.2 275 357.6z"/><path class="st0" d="M368 291.8c-0.3 0.3-1.6 1.5-3.2 3.1 -4.5-4.9-8.7-9.6-13.2-14.6 0.5-0.6 1.7-1.9 2.9-3.2C358.9 281.9 363.3 286.7 368 291.8z"/></svg>