<?xml version="1.0" encoding="utf-8"?>
<!-- Generator: Adobe Illustrator 19.0.0, SVG Export Plug-In . SVG Version: 6.00 Build 0)  -->
<svg version="1.1" id="Layer_1" xmlns="http://www.w3.org/2000/svg" xmlns:xlink="http://www.w3.org/1999/xlink" x="0px" y="0px"
	 viewBox="-319 320 129 129" style="enable-background:new -319 320 129 129;" xml:space="preserve">
<style type="text/css">
	.st0{fill:#E91E63;}
	.st1{fill:#FFFFFF;}
</style>
<g>
	<path class="st0" d="M-308.4,378.8h44.2c2.3,0,4.1-1.8,4.1-4.1v-44.2c0-2.3-1.8-4.1-4.1-4.1h-44.2c-2.3,0-4.1,1.8-4.1,4.1v44.2
		C-312.5,377-310.7,378.8-308.4,378.8z"/>
	<rect x="-304.4" y="334.6" class="st0" width="36" height="36"/>
	<path class="st0" d="M-200.6,378.8c2.3,0,4.1-1.8,4.1-4.1v-44.2c0-2.3-1.8-4.1-4.1-4.1h-44.2c-2.3,0-4.1,1.8-4.1,4.1v44.2
		c0,2.3,1.8,4.1,4.1,4.1C-244.8,378.8-200.6,378.8-200.6,378.8z"/>
	<rect x="-240.7" y="334.6" class="st0" width="36" height="36"/>
	<path class="st1" d="M-308.4,402.4c-2.3,0-4.1,1.8-4.1,4.1s1.8,4.1,4.1,4.1l107.9,0.1c2.3,0,4.1-1.8,4.1-4.1c0-2.3-1.8-4.1-4.1-4.1
		L-308.4,402.4C-308.4,402.4-308.4,402.4-308.4,402.4z"/>
	<path class="st1" d="M-308.5,442.4l107.9,0.1c2.3,0,4.1-1.8,4.1-4.1c0-2.3-1.8-4.1-4.1-4.1l-107.9-0.1c-2.3,0-4.1,1.8-4.1,4.1
		C-312.6,440.6-310.7,442.4-308.5,442.4z"/>
</g>
</svg>
