<svg version="1.1" xmlns="http://www.w3.org/2000/svg" x="0" y="0" viewBox="0 0 128 128" xml:space="preserve"><style type="text/css">
	.st0{fill:#27BDBE;}
	.st1{fill:#FFFFFF;}
</style><path class="st0" d="M121 85H63c-2.2 0-4 1.8-4 4v31c0 4.4 3.6 8 8 8h50c4.4 0 8-3.6 8-8V89C125 86.8 123.2 85 121 85zM98 117c0 3.3-2.7 6-6 6s-6-2.7-6-6v-5c0-3.3 2.7-6 6-6s6 2.7 6 6V117z"/><path class="st0" d="M114 64v12h-12V64c0-5.5-4.5-10-10-10s-10 4.5-10 10v12H70V64c0-12.2 9.8-22 22-22h0C104.2 42 114 51.8 114 64z"/><path class="st1" d="M126 40.1l-8 7.9c-4.1-10.1-14.5-17-26-17h-6c-14.4 0-26 11.7-26 26v8c-6.9 1.6-12 6.6-12 14 0 0 0 39.2 0 39.2l-3.3 3.3c-0.1 0-0.1 0.1-0.2 0.1L7 127c-1.7 0.3-3.8 0.2-5-1l0 0c-1.3-1.3-1.3-3.2-1-5l5-38L87.5 2.2c2.7-2.7 7-2.7 9.7 0L126 31C128.5 33.5 128.5 37.6 126 40.1z"/></svg>