<?xml version="1.0" encoding="utf-8"?>
<!-- Generator: Adobe Illustrator 19.0.0, SVG Export Plug-In . SVG Version: 6.00 Build 0)  -->
<svg version="1.1" id="Layer_1" xmlns="http://www.w3.org/2000/svg" xmlns:xlink="http://www.w3.org/1999/xlink" x="0px" y="0px"
	 viewBox="-293 385 24 24" style="enable-background:new -293 385 24 24;" xml:space="preserve">
<style type="text/css">
	.st0{fill:#FFFFFF;}
	.st1{fill:#2196F3;}
</style>
<path class="st0" d="M-276,391c-3.3,0-6,2.7-6,6s2.7,6,6,6s6-2.7,6-6S-272.7,391-276,391z"/>
<path class="st1" d="M-288,393c-2.2,0-4,1.8-4,4s1.8,4,4,4s4-1.8,4-4S-285.8,393-288,393z M-288,399c-1.1,0-2-0.9-2-2s0.9-2,2-2
	s2,0.9,2,2S-286.9,399-288,399z"/>
</svg>
