<?xml version="1.0" encoding="utf-8"?>
<!-- Generator: Adobe Illustrator 19.0.0, SVG Export Plug-In . SVG Version: 6.00 Build 0)  -->
<svg version="1.1" id="Layer_1" xmlns="http://www.w3.org/2000/svg" xmlns:xlink="http://www.w3.org/1999/xlink" x="0px" y="0px"
	 viewBox="-293 385 24 24" style="enable-background:new -293 385 24 24;" xml:space="preserve">
<style type="text/css">
	.st0{fill:#2196F3;}
	.st1{fill:#FFFFFF;}
</style>
<path class="st0" d="M-284,390c-1.9,0-3.5,1.6-3.5,3.5s1.6,3.5,3.5,3.5s3.5-1.6,3.5-3.5S-282.1,390-284,390z M-284,395
	c-0.8,0-1.5-0.7-1.5-1.5s0.7-1.5,1.5-1.5s1.5,0.7,1.5,1.5S-283.2,395-284,395z"/>
<path class="st0" d="M-284,402h-4.3c1-0.5,2.7-1,4.2-1c0.1,0,0.2,0,0.3,0c0.3-0.7,0.9-1.3,1.6-1.8c-0.7-0.1-1.4-0.2-2-0.2
	c-2.3,0-7,1.2-7,3.5v1.5h7v-1.5C-284,402.3-284,402.2-284,402z"/>
<path class="st1" d="M-276.5,399.5c-1.8,0-5.5,1-5.5,3v1.5h11v-1.5C-271,400.5-274.7,399.5-276.5,399.5z"/>
<path class="st1" d="M-275.3,397.7c0.8-0.4,1.3-1.2,1.3-2.2c0-1.4-1.1-2.5-2.5-2.5s-2.5,1.1-2.5,2.5c0,0.9,0.5,1.8,1.3,2.2
	c0.4,0.2,0.8,0.3,1.2,0.3S-275.6,397.9-275.3,397.7z"/>
</svg>
