<svg version="1.1" xmlns="http://www.w3.org/2000/svg" x="0" y="0" viewBox="0 0 128 128" xml:space="preserve"><style type="text/css">
	.st0{fill:#27BDBE;}
	.st1{fill:#FFFFFF;}
</style><path class="st0" d="M85 92H44c-4.4 0-8-3.6-8-8V44c0-4.4 3.6-8 8-8h41c4.4 0 8 3.6 8 8v40C93 88.4 89.4 92 85 92z"/><path class="st1" d="M124.5 73H105V55h19.5c1.9 0 3.5-1.6 3.5-3.5s-1.6-3.5-3.5-3.5H105V34c0-6.6-5.4-12-12-12H79V3.5C79 1.6 77.4 0 75.5 0S72 1.6 72 3.5V22H55V3.5C55 1.6 53.4 0 51.5 0S48 1.6 48 3.5V22H34c-6.6 0-12 5.4-12 12v14H3.5C1.6 48 0 49.6 0 51.5S1.6 55 3.5 55H22v18H3.5C1.6 73 0 74.6 0 76.5S1.6 80 3.5 80H22v14c0 6.6 5.4 12 12 12h14v18.5c0 1.9 1.6 3.5 3.5 3.5s3.5-1.6 3.5-3.5V106h17v18.5c0 1.9 1.6 3.5 3.5 3.5s3.5-1.6 3.5-3.5V106h14c6.6 0 12-5.4 12-12V80h19.5c1.9 0 3.5-1.6 3.5-3.5S126.4 73 124.5 73zM97 90c0 4.4-3.6 8-8 8H39c-4.4 0-8-3.6-8-8V39c0-4.4 3.6-8 8-8h50c4.4 0 8 3.6 8 8V90z"/></svg>