<svg version="1.1" xmlns="http://www.w3.org/2000/svg" x="0" y="0" viewBox="0 0 128 128" xml:space="preserve"><style type="text/css">
	.st0{fill:#24BDBC;}
	.st1{fill:#FFFFFF;}
</style><path class="st0" d="M118 88c-3 0-5.5 1.6-6.9 4h-4.7l2.1-20.1c0.3-2.5-1.9-4.7-4.4-4.4l-19.1 2v-3.7c2.4-1.4 4-4 4-6.9 0-4.4-3.6-8-8-8s-8 3.6-8 8c0 3 1.6 5.5 4 6.9v3.7l-18.9-2c-2.6-0.3-4.8 2-4.4 4.5l3.1 21.5c0.1 0.8 0.1 2 0 2.8l-3.2 23.1c-0.3 2.4 1.5 4.5 4 4.5H77v-5.1c-2.4-1.4-4-4-4-6.9 0-4.4 3.6-8 8-8s8 3.6 8 8c0 3-1.6 5.5-4 6.9v5.1h19.5c2.4 0 4.2-2.1 4-4.4l-2.1-19.6h4.7c1.4 2.4 4 4 6.9 4 4.4 0 8-3.6 8-8S122.4 88 118 88z"/><path class="st1" d="M29 31L29 31c-6.6 0-12-5.4-12-12v0c0-6.6 5.4-12 12-12h0c6.6 0 12 5.4 12 12v0C41 25.6 35.6 31 29 31z"/><path class="st1" d="M81 41.5c0 3.6-2.9 6.5-6.5 6.5H45v71c0 2.8-2.2 5-5 5H22c-2.8 0-5-2.2-5-5V84h-7c-2.8 0-5-2.2-5-5V39c0-2.2 1.8-4 4-4h9l6 13 2.8-5.6C25.7 41.6 25 40.4 25 39c0-2.2 1.8-4 4-4s4 1.8 4 4c0 1.4-0.7 2.6-1.8 3.4L34 48l6-13h34.5C78.1 35 81 37.9 81 41.5z"/></svg>