<?xml version="1.0" encoding="utf-8"?>
<!-- Generator: Adobe Illustrator 19.0.0, SVG Export Plug-In . SVG Version: 6.00 Build 0)  -->
<svg version="1.1" id="Capa_1" xmlns="http://www.w3.org/2000/svg" xmlns:xlink="http://www.w3.org/1999/xlink" x="0px" y="0px"
	 viewBox="-101 103.6 563.4 563.4" style="enable-background:new -101 103.6 563.4 563.4;" xml:space="preserve">
<style type="text/css">
	.st0{fill:#E91E63;}
</style>
<path class="st0" d="M179.8,418.1c83.3,0,150.8-67.5,150.8-150.8S263.1,117,179.8,117S29,184.5,29,267.3S96.5,418.1,179.8,418.1z
	 M179.8,181c47.9,0,86.8,38.7,86.8,86.3c0,47.9-38.9,86.8-86.8,86.8S93,315.2,93,267.3C93,219.7,131.9,181,179.8,181z"/>
<path class="st0" d="M273.2,444.5h-185c-104.1,0-189.2,84.7-189.2,189.2c0,11.1,8.8,19.9,19.9,19.9h523.6c11.1,0,19.9-8.8,19.9-19.9
	C462.4,529.6,377.8,444.5,273.2,444.5z M-29,589.6c17.9-47.3,63.7-81.1,117.2-81.1h185c53.5,0,99.3,33.8,117.2,81.1H-29z"/>
</svg>
