<svg version="1.1" xmlns="http://www.w3.org/2000/svg" x="0px" y="0px" viewBox="0 0 512 480" xml:space="preserve"><style type="text/css">
	.st0{fill:#CAD0D7;}
	.st1{fill:#E1E6E9;}
	.st2{fill:#99A5AD;}
	.st3{fill:#5A5B67;}
	.st4{fill:#59A7D8;}
	.st5{fill:#FCB33B;}
	.st6{fill:#EE2F3D;}
	.st7{fill:#53BA5E;}
</style><path class="st0" d="M496 0H16C7.2 0 0 7.2 0 16v448c0 8.8 7.2 16 16 16h480c8.8 0 16-7.2 16-16V16C512 7.2 504.8 0 496 0zM496 456c0 4.4-3.6 8-8 8H24c-4.4 0-8-3.6-8-8V72c0-4.4 3.6-8 8-8h464c4.4 0 8 3.6 8 8V456z"/><path class="st1" d="M490 40H118c-3.3 0-6-2.7-6-6v-4c0-3.3 2.7-6 6-6h372c3.3 0 6 2.7 6 6v4C496 37.3 493.3 40 490 40z"/><path class="st2" d="M24 40L24 40c-4.4 0-8-3.6-8-8v0c0-4.4 3.6-8 8-8h0c4.4 0 8 3.6 8 8v0C32 36.4 28.4 40 24 40zM64 32L64 32c0-4.4-3.6-8-8-8h0c-4.4 0-8 3.6-8 8v0c0 4.4 3.6 8 8 8h0C60.4 40 64 36.4 64 32zM96 32L96 32c0-4.4-3.6-8-8-8h0c-4.4 0-8 3.6-8 8v0c0 4.4 3.6 8 8 8h0C92.4 40 96 36.4 96 32z"/><path class="st3" d="M416 176H296c-4.4 0-8-3.6-8-8v0c0-4.4 3.6-8 8-8h120c4.4 0 8 3.6 8 8v0C424 172.4 420.4 176 416 176z"/><path class="st0" d="M416 224H296c-4.4 0-8-3.6-8-8v0c0-4.4 3.6-8 8-8h120c4.4 0 8 3.6 8 8v0C424 220.4 420.4 224 416 224zM480 248L480 248c0-4.4-3.6-8-8-8H296c-4.4 0-8 3.6-8 8v0c0 4.4 3.6 8 8 8h176C476.4 256 480 252.4 480 248zM424 280L424 280c0-4.4-3.6-8-8-8H296c-4.4 0-8 3.6-8 8l0 0c0 4.4 3.6 8 8 8h120C420.4 288 424 284.4 424 280zM456 312L456 312c0-4.4-3.6-8-8-8H296c-4.4 0-8 3.6-8 8l0 0c0 4.4 3.6 8 8 8h152C452.4 320 456 316.4 456 312zM448 344L448 344c0-4.4-3.6-8-8-8H296c-4.4 0-8 3.6-8 8l0 0c0 4.4 3.6 8 8 8h144C444.4 352 448 348.4 448 344zM384 376L384 376c0-4.4-3.6-8-8-8h-80c-4.4 0-8 3.6-8 8l0 0c0 4.4 3.6 8 8 8h80C380.4 384 384 380.4 384 376z"/><path class="st1" d="M240 184H56c-4.4 0-8 3.6-8 8v152c0 4.4 3.6 8 8 8h184c4.4 0 8-3.6 8-8V192C248 187.6 244.4 184 240 184zM208 192v24h-24v-24H208zM152 256h24v24h-24V256zM144 280h-24v-24h24V280zM152 248v-24h24v24H152zM144 248h-24v-24h24V248zM112 248H88v-24h24V248zM112 256v24H88v-24H112zM112 288v24H88v-24H112zM120 288h24v24h-24V288zM152 288h24v24h-24V288zM184 288h24v24h-24V288zM184 280v-24h24v24H184zM184 248v-24h24v24H184zM176 192v24h-24v-24H176zM144 192v24h-24v-24H144zM112 192v24H88v-24H112zM56 192h24v24H56V192zM56 224h24v24H56V224zM56 256h24v24H56V256zM56 288h24v24H56V288zM56 344v-24h24v24H56zM88 344v-24h24v24H88zM120 344v-24h24v24H120zM152 344v-24h24v24H152zM184 344v-24h24v24H184zM240 344h-24v-24h24V344zM240 312h-24v-24h24V312zM240 280h-24v-24h24V280zM240 248h-24v-24h24V248zM240 216h-24v-24h24V216z"/><path class="st4" d="M100 240L100 240c-2.2 0-4-1.8-4-4l0 0c0-2.2 1.8-4 4-4h0c2.2 0 4 1.8 4 4l0 0C104 238.2 102.2 240 100 240z"/><path class="st5" d="M196 272L196 272c-2.2 0-4-1.8-4-4l0 0c0-2.2 1.8-4 4-4l0 0c2.2 0 4 1.8 4 4l0 0C200 270.2 198.2 272 196 272z"/><path class="st6" d="M132 304L132 304c-2.2 0-4-1.8-4-4l0 0c0-2.2 1.8-4 4-4l0 0c2.2 0 4 1.8 4 4l0 0C136 302.2 134.2 304 132 304z"/><path class="st7" d="M228 336L228 336c-2.2 0-4-1.8-4-4l0 0c0-2.2 1.8-4 4-4l0 0c2.2 0 4 1.8 4 4l0 0C232 334.2 230.2 336 228 336z"/></svg>