<?xml version="1.0" encoding="utf-8"?>
<!-- Generator: Adobe Illustrator 19.0.0, SVG Export Plug-In . SVG Version: 6.00 Build 0)  -->
<svg version="1.1" xmlns="http://www.w3.org/2000/svg" xmlns:xlink="http://www.w3.org/1999/xlink" x="0px" y="0px"
	 viewBox="0 0 512 480" style="enable-background:new 0 0 512 480;" xml:space="preserve">
<style type="text/css">
	.st0{fill:#CAD0D7;}
	.st1{fill:#E1E6E9;}
	.st2{fill:#99A5AD;}
	.st3{display:none;}
	.st4{display:inline;}
	.st5{fill:#6E8493;}
	.st6{fill:#33A0D7;}
	.st7{fill:#64B3E1;}
	.st8{fill:#D6D8DB;}
	.st9{fill:#D6D9DD;}
	.st10{fill:#5A5B67;}
	.st11{fill:#FCB33B;}
	.st12{display:inline;fill:#53BA5E;}
	.st13{opacity:0.25;fill:#FFFFFF;}
	.st14{fill:#595A65;}
	.st15{opacity:0.5;fill:#D7DADD;}
	.st16{fill:#36373F;}
	.st17{opacity:0.5;fill:#B9BDC1;}
	.st18{fill:#69B4E4;}
	.st19{fill:#53BA5E;}
	.st20{display:inline;fill:#CAD0D7;}
	.st21{display:inline;fill:#E1E6E9;}
	.st22{display:inline;fill:#FCB33B;}
	.st23{display:inline;fill:#EE2F3D;}
	.st24{display:inline;fill:#B6DAF0;}
	.st25{display:inline;fill:#59A7D8;}
	.st26{display:inline;fill:#FFFFFF;}
	.st27{fill:#B6DAF0;}
	.st28{fill:#FFFFFF;}
	.st29{fill:#59A7D8;}
	.st30{fill:#297D3E;}
	.st31{fill:#EE2F3D;}
	.st32{fill:#4E7BBB;}
	.st33{fill:#F59F42;}
	.st34{fill:#3087C5;}
	.st35{display:inline;fill:#99A5AD;}
	.st36{fill:#C0652E;}
	.st37{fill:#1A6FAC;}
</style>
<g id="Frame">
	<path id="XMLID_9_" class="st0" d="M496,0H16C7.2,0,0,7.2,0,16v448c0,8.8,7.2,16,16,16h480c8.8,0,16-7.2,16-16V16
		C512,7.2,504.8,0,496,0z M496,456c0,4.4-3.6,8-8,8H24c-4.4,0-8-3.6-8-8V72c0-4.4,3.6-8,8-8h464c4.4,0,8,3.6,8,8V456z"/>
	<path id="XMLID_4_" class="st1" d="M490,40H118c-3.3,0-6-2.7-6-6v-4c0-3.3,2.7-6,6-6h372c3.3,0,6,2.7,6,6v4
		C496,37.3,493.3,40,490,40z"/>
	<g id="XMLID_11_">
		<path id="XMLID_5_" class="st2" d="M24,40L24,40c-4.4,0-8-3.6-8-8v0c0-4.4,3.6-8,8-8h0c4.4,0,8,3.6,8,8v0C32,36.4,28.4,40,24,40z"
			/>
		<path id="XMLID_6_" class="st2" d="M56,40L56,40c-4.4,0-8-3.6-8-8v0c0-4.4,3.6-8,8-8h0c4.4,0,8,3.6,8,8v0C64,36.4,60.4,40,56,40z"
			/>
		<path id="XMLID_10_" class="st2" d="M88,40L88,40c-4.4,0-8-3.6-8-8v0c0-4.4,3.6-8,8-8h0c4.4,0,8,3.6,8,8v0C96,36.4,92.4,40,88,40z
			"/>
	</g>
</g>
<g id="blank" class="st3">
	<g id="XMLID_479_" class="st4">
		<g id="XMLID_478_">
			<path id="XMLID_475_" class="st5" d="M492,0H20C9,0,0,9,0,20v60h512V20C512,9,503,0,492,0z M29,27c-3.9,0-7-3.1-7-7
				c0-3.9,3.1-7,7-7s7,3.1,7,7C36,23.9,32.9,27,29,27z M51,27c-3.9,0-7-3.1-7-7c0-3.9,3.1-7,7-7s7,3.1,7,7C58,23.9,54.9,27,51,27z
				 M74,27c-3.9,0-7-3.1-7-7c0-3.9,3.1-7,7-7s7,3.1,7,7C81,23.9,77.9,27,74,27z"/>
			<g id="XMLID_472_">
				<rect id="XMLID_465_" y="40" class="st6" width="512" height="40"/>
				<path id="XMLID_469_" class="st7" d="M395,67H29c-3.9,0-7-3.1-7-7v0c0-3.9,3.1-7,7-7h366c3.9,0,7,3.1,7,7v0
					C402,63.9,398.9,67,395,67z"/>
				<path id="XMLID_470_" class="st8" d="M483,67h-57c-3.9,0-7-3.1-7-7v0c0-3.9,3.1-7,7-7h57c3.9,0,7,3.1,7,7v0
					C490,63.9,486.9,67,483,67z"/>
			</g>
		</g>
		<path id="XMLID_471_" class="st9" d="M492,480H20c-11,0-20-9-20-20V80h512v380C512,471,503,480,492,480z"/>
	</g>
</g>
<g id="Poll" class="st3">
	<g id="XMLID_15_" class="st4">
		<path id="XMLID_13_" class="st10" d="M360,144H152c-4.4,0-8-3.6-8-8v0c0-4.4,3.6-8,8-8h208c4.4,0,8,3.6,8,8v0
			C368,140.4,364.4,144,360,144z"/>
		<path id="XMLID_14_" class="st10" d="M320,176H192c-4.4,0-8-3.6-8-8v0c0-4.4,3.6-8,8-8h128c4.4,0,8,3.6,8,8v0
			C328,172.4,324.4,176,320,176z"/>
	</g>
	<g id="XMLID_19_" class="st4">
		<path id="XMLID_16_" class="st11" d="M117.3,226.7l4,8c0.7,1.4,2.1,2.4,3.6,2.6l8.9,1.3c4,0.6,5.6,5.5,2.7,8.3l-6.4,6.3
			c-1.1,1.1-1.7,2.7-1.4,4.3l1.5,8.8c0.7,4-3.5,7-7,5.1l-7.9-4.2c-1.4-0.7-3.1-0.7-4.5,0l-7.9,4.2c-3.6,1.9-7.7-1.1-7-5.1l1.5-8.8
			c0.3-1.6-0.3-3.2-1.4-4.3l-6.4-6.3c-2.9-2.8-1.3-7.7,2.7-8.3l8.9-1.3c1.6-0.2,2.9-1.2,3.6-2.6l4-8
			C110.4,223.1,115.6,223.1,117.3,226.7z"/>
		<path id="XMLID_17_" class="st11" d="M188.4,226.7l4,8c0.7,1.4,2.1,2.4,3.6,2.6l8.9,1.3c4,0.6,5.6,5.5,2.7,8.3l-6.4,6.3
			c-1.1,1.1-1.7,2.7-1.4,4.3l1.5,8.8c0.7,4-3.5,7-7,5.1l-7.9-4.2c-1.4-0.7-3.1-0.7-4.5,0l-7.9,4.2c-3.6,1.9-7.7-1.1-7-5.1l1.5-8.8
			c0.3-1.6-0.3-3.2-1.4-4.3l-6.4-6.3c-2.9-2.8-1.3-7.7,2.7-8.3l8.9-1.3c1.6-0.2,2.9-1.2,3.6-2.6l4-8
			C181.4,223.1,186.6,223.1,188.4,226.7z"/>
		<path id="XMLID_18_" class="st11" d="M260.4,226.7l4,8c0.7,1.4,2.1,2.4,3.6,2.6l8.9,1.3c4,0.6,5.6,5.5,2.7,8.3l-6.4,6.3
			c-1.1,1.1-1.7,2.7-1.4,4.3l1.5,8.8c0.7,4-3.5,7-7,5.1l-7.9-4.2c-1.4-0.7-3.1-0.7-4.5,0l-7.9,4.2c-3.6,1.9-7.7-1.1-7-5.1l1.5-8.8
			c0.3-1.6-0.3-3.2-1.4-4.3l-6.4-6.3c-2.9-2.8-1.3-7.7,2.7-8.3l8.9-1.3c1.6-0.2,2.9-1.2,3.6-2.6l4-8
			C253.4,223.1,258.6,223.1,260.4,226.7z"/>
		<path id="XMLID_20_" class="st0" d="M405.4,226.7l4,8c0.7,1.4,2.1,2.4,3.6,2.6l8.9,1.3c4,0.6,5.6,5.5,2.7,8.3l-6.4,6.3
			c-1.1,1.1-1.7,2.7-1.4,4.3l1.5,8.8c0.7,4-3.5,7-7,5.1l-7.9-4.2c-1.4-0.7-3.1-0.7-4.5,0l-7.9,4.2c-3.6,1.9-7.7-1.1-7-5.1l1.5-8.8
			c0.3-1.6-0.3-3.2-1.4-4.3l-6.4-6.3c-2.9-2.8-1.3-7.7,2.7-8.3l8.9-1.3c1.6-0.2,2.9-1.2,3.6-2.6l4-8
			C398.4,223.1,403.6,223.1,405.4,226.7z"/>
		<path id="XMLID_23_" class="st11" d="M324.6,226.7l-4,8c-0.7,1.4-2.1,2.4-3.6,2.6l-8.9,1.3c-4,0.6-5.6,5.5-2.7,8.3l6.4,6.3
			c1.1,1.1,1.7,2.7,1.4,4.3l-1.5,8.8c-0.7,4,3.5,7,7,5.1l7.9-4.2c0.7-0.4,1.5-0.6,2.3-0.6V224C327.3,224,325.5,224.9,324.6,226.7z"
			/>
		<path id="XMLID_25_" class="st0" d="M339.2,271.4c3.6,1.9,7.7-1.1,7-5.1l-1.5-8.8c-0.3-1.6,0.3-3.2,1.4-4.3l6.4-6.3
			c2.9-2.8,1.3-7.7-2.7-8.3l-8.9-1.3c-1.6-0.2-2.9-1.2-3.6-2.6l-4-8c-0.9-1.8-2.6-2.7-4.3-2.7v42.7c0.8,0,1.5,0.2,2.2,0.6
			L339.2,271.4z"/>
	</g>
	<path id="XMLID_21_" class="st12" d="M312,392H200c-13.3,0-24-10.7-24-24v0c0-13.3,10.7-24,24-24h112c13.3,0,24,10.7,24,24v0
		C336,381.3,325.3,392,312,392z"/>
	<g id="XMLID_27_" class="st4">
		<path id="XMLID_22_" class="st13" d="M224,376L224,376c-4.4,0-8-3.6-8-8l0,0c0-4.4,3.6-8,8-8h0c4.4,0,8,3.6,8,8l0,0
			C232,372.4,228.4,376,224,376z"/>
		<path id="XMLID_24_" class="st13" d="M256,376L256,376c-4.4,0-8-3.6-8-8l0,0c0-4.4,3.6-8,8-8h0c4.4,0,8,3.6,8,8l0,0
			C264,372.4,260.4,376,256,376z"/>
		<path id="XMLID_26_" class="st13" d="M288,376L288,376c-4.4,0-8-3.6-8-8l0,0c0-4.4,3.6-8,8-8l0,0c4.4,0,8,3.6,8,8l0,0
			C296,372.4,292.4,376,288,376z"/>
	</g>
</g>
<g id="Slider" class="st3">
	<g id="XMLID_30_" class="st4">
		<g id="XMLID_408_">
			<circle id="XMLID_402_" class="st0" cx="97" cy="400" r="24"/>
			<path id="XMLID_405_" class="st0" d="M377,392H153c-4.4,0-8-3.6-8-8l0,0c0-4.4,3.6-8,8-8h224c4.4,0,8,3.6,8,8l0,0
				C385,388.4,381.4,392,377,392z"/>
			<path id="XMLID_406_" class="st0" d="M289,424H153c-4.4,0-8-3.6-8-8l0,0c0-4.4,3.6-8,8-8h136c4.4,0,8,3.6,8,8l0,0
				C297,420.4,293.4,424,289,424z"/>
		</g>
		<g id="XMLID_29_">
			<g id="XMLID_28_">
				<g id="XMLID_401_">
					<g id="XMLID_392_">
						<path id="XMLID_395_" class="st14" d="M148.3,238.7L72,312.9V336c0,8.8,7.2,16,16,16h186.2L171.5,238.7
							C165.1,232.3,154.7,232.3,148.3,238.7z"/>
						<path id="XMLID_404_" class="st15" d="M125.9,287.8l-6-6c-1.6-1.6-1.6-4.1,0-5.7l29.2-29.2c1.6-1.6,4.1-1.6,5.7,0l6,6
							c1.6,1.6,1.6,4.1,0,5.7l-29.2,29.2C130,289.4,127.5,289.4,125.9,287.8z"/>
					</g>
					<g id="XMLID_393_">
						<path id="XMLID_394_" class="st16" d="M306.6,352c-10.3-11.3-46.9-51.3-54.8-56.6c-8-5.6-21.5-4.4-30.9-2.6l-0.2,0.2
							l53.4,58.9H306.6z"/>
						<path id="XMLID_407_" class="st10" d="M389.3,289.3c0,0-12.9-16.8,10.4-22.2l-64.7-63.3c-6.4-6.4-16.8-6.4-23.2,0L221,292.9
							c9.3-1.8,22.9-3.1,30.9,2.6c7.9,5.3,44.5,45.3,54.8,56.6h115.7c-0.3-9.6-2.7-27.2-14.5-42.2
							C397.3,297,389.3,289.3,389.3,289.3z"/>
						<path id="XMLID_399_" class="st17" d="M277.7,265.2l-6-6c-1.6-1.6-1.6-4.1,0-5.7l29.2-29.2c1.6-1.6,4.1-1.6,5.7,0l6,6
							c1.6,1.6,1.6,4.1,0,5.7l-29.2,29.2C281.8,266.8,279.3,266.8,277.7,265.2z"/>
						<path id="XMLID_409_" class="st16" d="M389.3,289.3c0,0,8,7.7,18.5,20.5c11.8,15,14.2,32.6,14.5,42.2h1.7c8.8,0,16-7.2,16-16
							v-29.5l-40.2-39.3C376.4,272.5,389.3,289.3,389.3,289.3z"/>
					</g>
				</g>
				<path id="XMLID_396_" class="st18" d="M311.9,203.8c6.4-6.4,16.8-6.4,23.2,0l64.7,63.3l40.2,39.3V112c0-8.8-7.2-16-16-16H88
					c-8.8,0-16,7.2-16,16v200.9l76.3-74.2c6.4-6.4,16.8-6.4,23.2,0l49.3,54.4l0.2-0.2L311.9,203.8z"/>
				<circle id="XMLID_397_" class="st11" cx="144" cy="160" r="32"/>
			</g>
			<g id="XMLID_12_">
				<g id="XMLID_391_">
					<path id="XMLID_398_" class="st2" d="M62.1,245l-13.5-21l13.5-21c2.6-2.6,2.6-6.6,0-9.2c-2.8-2.4-7.1-2.4-9.9,0l-18.2,25.6
						c-1.1,1.2-1.9,2.8-1.9,4.6c0,1.8,0.9,3.4,1.9,4.6l18.2,25.6c2.8,2.4,7.1,2.4,9.9,0C64.6,251.6,64.6,247.6,62.1,245z"/>
				</g>
				<g id="XMLID_400_">
					<path id="XMLID_416_" class="st2" d="M449.9,254.2c2.8,2.4,7.1,2.4,9.9,0l18.2-25.6c1.1-1.2,1.9-2.8,1.9-4.6
						c0-1.8-0.9-3.4-1.9-4.6l-18.2-25.6c-2.8-2.4-7.1-2.4-9.9,0c-2.6,2.6-2.6,6.6,0,9.2l13.5,21l-13.5,21
						C447.4,247.6,447.4,251.6,449.9,254.2z"/>
				</g>
			</g>
		</g>
	</g>
</g>
<g id="Rss" class="st3">
	<g id="XMLID_780_" class="st4">
		<g id="XMLID_794_">
			<g id="XMLID_782_">
				<path id="XMLID_783_" class="st10" d="M368,120H160c-4.4,0-8-3.6-8-8v0c0-4.4,3.6-8,8-8h208c4.4,0,8,3.6,8,8v0
					C376,116.4,372.4,120,368,120z"/>
				<path id="XMLID_784_" class="st10" d="M328,152H200c-4.4,0-8-3.6-8-8v0c0-4.4,3.6-8,8-8h128c4.4,0,8,3.6,8,8v0
					C336,148.4,332.4,152,328,152z"/>
			</g>
			<g id="XMLID_793_">
				<path id="XMLID_786_" class="st0" d="M384,384H72c-4.4,0-8-3.6-8-8l0,0c0-4.4,3.6-8,8-8h312c4.4,0,8,3.6,8,8l0,0
					C392,380.4,388.4,384,384,384z"/>
				<path id="XMLID_787_" class="st0" d="M216,416H72c-4.4,0-8-3.6-8-8l0,0c0-4.4,3.6-8,8-8h144c4.4,0,8,3.6,8,8l0,0
					C224,412.4,220.4,416,216,416z"/>
				<path id="XMLID_788_" class="st0" d="M272,416h-24c-4.4,0-8-3.6-8-8l0,0c0-4.4,3.6-8,8-8h24c4.4,0,8,3.6,8,8l0,0
					C280,412.4,276.4,416,272,416z"/>
				<path id="XMLID_789_" class="st0" d="M440,384h-24c-4.4,0-8-3.6-8-8l0,0c0-4.4,3.6-8,8-8h24c4.4,0,8,3.6,8,8l0,0
					C448,380.4,444.4,384,440,384z"/>
			</g>
		</g>
		<g id="XMLID_781_">
			<path id="XMLID_785_" class="st19" d="M232.7,262.6c-14.2,0-25.7,11.5-25.7,25.7c0,14.2,11.5,25.7,25.7,25.7
				c14.2,0,25.7-11.5,25.7-25.7C258.4,274.1,246.9,262.6,232.7,262.6z M232.7,303.8c-8.6,0-15.5-7-15.5-15.5c0-8.6,7-15.5,15.5-15.5
				c8.6,0,15.5,7,15.5,15.5C248.3,296.9,241.3,303.8,232.7,303.8z M327,305.4c0,4.8-3.8,8.6-8.6,8.6c-4.8,0-8.6-3.8-8.6-8.6
				c0-25.2-9.9-49-27.6-66.7s-41.5-27.6-66.7-27.6c-4.8,0-8.6-3.8-8.6-8.6s3.8-8.6,8.6-8.6C276.9,194,327,244.1,327,305.4z
				 M292.7,305.4c0,4.8-3.8,8.6-8.6,8.6s-8.6-3.8-8.6-8.6c0-16.1-5.9-31.1-17.4-42.6c-11.3-11.3-26.3-17.4-42.6-17.4
				c-4.8,0-8.6-3.8-8.6-8.6s3.8-8.6,8.6-8.6C258.4,228.3,292.7,262.8,292.7,305.4z"/>
		</g>
	</g>
</g>
<g id="Donate" class="st3">
	<path id="XMLID_31_" class="st20" d="M360,112H152c-4.4,0-8-3.6-8-8v0c0-4.4,3.6-8,8-8h208c4.4,0,8,3.6,8,8v0
		C368,108.4,364.4,112,360,112z"/>
	<path id="XMLID_32_" class="st20" d="M320,144H192c-4.4,0-8-3.6-8-8v0c0-4.4,3.6-8,8-8h128c4.4,0,8,3.6,8,8v0
		C328,140.4,324.4,144,320,144z"/>
	<path id="XMLID_33_" class="st21" d="M456,424H56c-8.8,0-16-7.2-16-16V184c0-8.8,7.2-16,16-16h400c8.8,0,16,7.2,16,16v224
		C472,416.8,464.8,424,456,424z"/>
	<path id="XMLID_43_" class="st22" d="M248,208L248,208c-53,0-96,43-96,96v0c0,53,43,96,96,96h0c53,0,96-43,96-96v0h-96V208z"/>
	<path id="XMLID_45_" class="st23" d="M264,192L264,192l0,96h96v0C360,235,317,192,264,192z"/>
</g>
<g id="Twitter" class="st3">
	<path id="XMLID_38_" class="st24" d="M240.2,122H116.8c-11.5,0-20.8,9.3-20.8,20.8v83.3c0,11.5,9.3,20.8,20.8,20.8h4.2l33.2,17
		c2.7,1.4,5.8-0.6,5.8-3.6V247h80.2c11.5,0,20.8-9.3,20.8-20.8v-83.3C261,131.3,251.7,122,240.2,122z"/>
	<path id="XMLID_47_" class="st25" d="M400.4,170h-200c-8.8,0-16.4,7.2-16.4,16v158c0,8.8,7.5,16,16.4,16H240v24.5
		c0,3.2,3.8,5.1,6.4,3.3l42-27.9h112c8.8,0,15.6-7.2,15.6-16V186C416,177.2,409.2,170,400.4,170z"/>
	<path id="XMLID_34_" class="st26" d="M373,221.9c-5.4,2.6-11.1,4-17,4.8c6-3.7,10.8-9.6,13-16.5c-5.7,3.4-12.2,5.7-19,7.1
		c-5.4-5.7-13-9.4-21.8-9.4c-16.5,0-29.8,13.3-29.8,29.8c0,2.3,0.3,4.5,0.9,6.8c-24.7-1.1-46.8-13-61.3-31.2
		c-2.6,4.5-4.3,9.6-4.3,15c0,10.5,5.4,19.6,13.3,24.7c-4.8,0-9.4-1.4-13.3-3.7c0,0.3,0,0.3,0,0.6c0,14.5,10.2,26.4,23.8,29.2
		c-2.6,0.6-5.1,0.9-7.9,0.9c-2,0-3.7,0-5.7-0.3c4,11.6,15,20.4,27.8,20.4c-9.9,8.2-23,12.8-36.9,12.8c-2.3,0-4.8,0-7.1-0.3
		c13,8.5,28.9,13.3,45.7,13.3c54.7,0,84.8-45.4,84.8-84.8c0-1.1,0-2.6,0-3.7C363.9,233.2,369,227.9,373,221.9z"/>
</g>
<g id="Gallery" class="st3">
	<g id="XMLID_49_" class="st4">
		<g id="XMLID_42_">
			<path id="XMLID_46_" class="st27" d="M101.8,215.3l12.7,14l31.7-31c3.1-3.1,8.2-3.1,11.3,0l18.4,18V104c0-4.4-3.6-8-8-8H56
				c-4.4,0-8,3.6-8,8v152.7l42.5-41.4C93.6,212.2,98.7,212.2,101.8,215.3z"/>
			<path id="XMLID_51_" class="st10" d="M115.5,230.4l-0.9-1l-12.7-14c-3.1-3.1-8.2-3.1-11.3,0L48,256.7v7.3c0,4.4,3.6,8,8,8h89h7
				L115.5,230.4z"/>
			<path id="XMLID_63_" class="st15" d="M89.5,220.9l-11.3,11.3c-1.6,1.6-1.6,4.1,0,5.7c1.6,1.6,4.1,1.6,5.7,0l11.3-11.3
				c1.6-1.6,1.6-4.1,0-5.7C93.6,219.3,91,219.3,89.5,220.9z"/>
			<path id="XMLID_44_" class="st10" d="M157.6,198.3c-3.1-3.1-8.2-3.1-11.3,0l-31.7,31l0.9,1l-0.5-0.5l0.1-0.1
				c4.5-0.9,11.1-1.5,15,1.2c4.4,2.9,37.7,39.7,38.8,40.9c4-0.5,7.1-3.8,7.1-7.9v-47.6L157.6,198.3z"/>
			<path id="XMLID_70_" class="st17" d="M139.5,209.9l-11.3,11.3c-1.6,1.6-1.6,4.1,0,5.7c1.6,1.6,4.1,1.6,5.7,0l11.3-11.3
				c1.6-1.6,1.6-4.1,0-5.7C143.6,208.3,141,208.3,139.5,209.9z"/>
			<path id="XMLID_50_" class="st16" d="M130.1,231c-3.9-2.7-10.5-2.1-15-1.2l-0.1,0.1l0.5,0.5L152,272h1.2H168c0.3,0,0.6,0,0.9-0.1
				C167.8,270.7,134.6,233.9,130.1,231z"/>
		</g>
		<path id="XMLID_48_" class="st11" d="M88,144L88,144c-8.8,0-16-7.2-16-16v0c0-8.8,7.2-16,16-16h0c8.8,0,16,7.2,16,16v0
			C104,136.8,96.8,144,88,144z"/>
		<path id="XMLID_53_" class="st28" d="M160,148c0-6.6-5.4-12-12-12c-5.3,0-9.8,3.4-11.4,8.2c-1.7-2-4.3-3.2-7.1-3.2
			c-5.2,0-9.5,4.3-9.5,9.5c0,5.1,4,9.2,9,9.5v0h20v-0.1C155.2,159.4,160,154.3,160,148z"/>
	</g>
	<g id="XMLID_52_" class="st4">
		<g id="XMLID_57_">
			<path id="XMLID_69_" class="st27" d="M389.8,375.3l12.7,14l31.7-31c3.1-3.1,8.2-3.1,11.3,0l18.4,18V264c0-4.4-3.6-8-8-8H344
				c-4.4,0-8,3.6-8,8v152.7l42.5-41.4C381.6,372.2,386.7,372.2,389.8,375.3z"/>
			<path id="XMLID_68_" class="st10" d="M403.5,390.4l-0.9-1l-12.7-14c-3.1-3.1-8.2-3.1-11.3,0L336,416.7v7.3c0,4.4,3.6,8,8,8h89h7
				L403.5,390.4z"/>
			<path id="XMLID_67_" class="st15" d="M377.5,380.9l-11.3,11.3c-1.6,1.6-1.6,4.1,0,5.7c1.6,1.6,4.1,1.6,5.7,0l11.3-11.3
				c1.6-1.6,1.6-4.1,0-5.7C381.6,379.3,379,379.3,377.5,380.9z"/>
			<path id="XMLID_66_" class="st10" d="M445.6,358.3c-3.1-3.1-8.2-3.1-11.3,0l-31.7,31l0.9,1l-0.5-0.5l0.1-0.1
				c4.5-0.9,11.1-1.5,15,1.2c4.4,2.9,37.7,39.7,38.8,40.9c4-0.5,7.1-3.8,7.1-7.9v-47.6L445.6,358.3z"/>
			<path id="XMLID_65_" class="st17" d="M427.5,369.9l-11.3,11.3c-1.6,1.6-1.6,4.1,0,5.7c1.6,1.6,4.1,1.6,5.7,0l11.3-11.3
				c1.6-1.6,1.6-4.1,0-5.7C431.6,368.3,429,368.3,427.5,369.9z"/>
			<path id="XMLID_61_" class="st16" d="M418.1,391c-3.9-2.7-10.5-2.1-15-1.2l-0.1,0.1l0.5,0.5L440,432h1.2H456c0.3,0,0.6,0,0.9-0.1
				C455.8,430.7,422.6,393.9,418.1,391z"/>
		</g>
		<path id="XMLID_55_" class="st11" d="M376,304L376,304c-8.8,0-16-7.2-16-16v0c0-8.8,7.2-16,16-16h0c8.8,0,16,7.2,16,16v0
			C392,296.8,384.8,304,376,304z"/>
		<path id="XMLID_54_" class="st28" d="M448,308c0-6.6-5.4-12-12-12c-5.3,0-9.8,3.4-11.4,8.2c-1.7-2-4.3-3.2-7.1-3.2
			c-5.2,0-9.5,4.3-9.5,9.5c0,5.1,4,9.2,9,9.5v0h20v-0.1C443.2,319.4,448,314.3,448,308z"/>
	</g>
	<g id="XMLID_71_" class="st4">
		<path id="XMLID_86_" class="st27" d="M245.8,231.3l12.7,14l31.7-31c3.1-3.1,8.2-3.1,11.3,0l18.4,18V104c0-4.4-3.6-8-8-8H200
			c-4.4,0-8,3.6-8,8v168.7l42.5-41.4C237.6,228.2,242.7,228.2,245.8,231.3z"/>
		<path id="XMLID_82_" class="st10" d="M259.5,246.4l-0.9-1l-12.7-14c-3.1-3.1-8.2-3.1-11.3,0L192,272.7v7.3c0,4.4,3.6,8,8,8h89h7
			L259.5,246.4z"/>
		<path id="XMLID_78_" class="st15" d="M233.5,236.9l-11.3,11.3c-1.6,1.6-1.6,4.1,0,5.7c1.6,1.6,4.1,1.6,5.7,0l11.3-11.3
			c1.6-1.6,1.6-4.1,0-5.7C237.6,235.3,235,235.3,233.5,236.9z"/>
		<path id="XMLID_77_" class="st10" d="M301.6,214.3c-3.1-3.1-8.2-3.1-11.3,0l-31.7,31l0.9,1l-0.5-0.5l0.1-0.1
			c4.5-0.9,11.1-1.5,15,1.2c4.4,2.9,37.7,39.7,38.8,40.9c4-0.5,7.1-3.8,7.1-7.9v-47.6L301.6,214.3z"/>
		<path id="XMLID_76_" class="st17" d="M283.5,225.9l-11.3,11.3c-1.6,1.6-1.6,4.1,0,5.7c1.6,1.6,4.1,1.6,5.7,0l11.3-11.3
			c1.6-1.6,1.6-4.1,0-5.7C287.6,224.3,285,224.3,283.5,225.9z"/>
		<path id="XMLID_75_" class="st16" d="M274.1,247c-3.9-2.7-10.5-2.1-15-1.2l-0.1,0.1l0.5,0.5L296,288h1.2H312c0.3,0,0.6,0,0.9-0.1
			C311.8,286.7,278.6,249.9,274.1,247z"/>
		<path id="XMLID_73_" class="st11" d="M232,160L232,160c-8.8,0-16-7.2-16-16v0c0-8.8,7.2-16,16-16h0c8.8,0,16,7.2,16,16v0
			C248,152.8,240.8,160,232,160z"/>
		<path id="XMLID_72_" class="st28" d="M304,172c0-6.6-5.4-12-12-12c-5.3,0-9.8,3.4-11.4,8.2c-1.7-2-4.3-3.2-7.1-3.2
			c-5.2,0-9.5,4.3-9.5,9.5c0,5.1,4,9.2,9,9.5v0h20v-0.1C299.2,183.4,304,178.3,304,172z"/>
	</g>
	<g id="XMLID_74_" class="st4">
		<path id="XMLID_97_" class="st27" d="M389.8,183.3l12.7,14l31.7-31c3.1-3.1,8.2-3.1,11.3,0l18.4,18V104c0-4.4-3.6-8-8-8H344
			c-4.4,0-8,3.6-8,8v120.7l42.5-41.4C381.6,180.2,386.7,180.2,389.8,183.3z"/>
		<path id="XMLID_93_" class="st10" d="M403.5,198.4l-0.9-1l-12.7-14c-3.1-3.1-8.2-3.1-11.3,0L336,224.7v7.3c0,4.4,3.6,8,8,8h89h7
			L403.5,198.4z"/>
		<path id="XMLID_92_" class="st15" d="M377.5,188.9l-11.3,11.3c-1.6,1.6-1.6,4.1,0,5.7c1.6,1.6,4.1,1.6,5.7,0l11.3-11.3
			c1.6-1.6,1.6-4.1,0-5.7C381.6,187.3,379,187.3,377.5,188.9z"/>
		<path id="XMLID_91_" class="st10" d="M445.6,166.3c-3.1-3.1-8.2-3.1-11.3,0l-31.7,31l0.9,1l-0.5-0.5l0.1-0.1
			c4.5-0.9,11.1-1.5,15,1.2c4.4,2.9,37.7,39.7,38.8,40.9c4-0.5,7.1-3.8,7.1-7.9v-47.6L445.6,166.3z"/>
		<path id="XMLID_90_" class="st17" d="M427.5,177.9l-11.3,11.3c-1.6,1.6-1.6,4.1,0,5.7c1.6,1.6,4.1,1.6,5.7,0l11.3-11.3
			c1.6-1.6,1.6-4.1,0-5.7C431.6,176.3,429,176.3,427.5,177.9z"/>
		<path id="XMLID_89_" class="st16" d="M418.1,199c-3.9-2.7-10.5-2.1-15-1.2l-0.1,0.1l0.5,0.5L440,240h1.2H456c0.3,0,0.6,0,0.9-0.1
			C455.8,238.7,422.6,201.9,418.1,199z"/>
		<path id="XMLID_88_" class="st11" d="M376,144L376,144c-8.8,0-16-7.2-16-16v0c0-8.8,7.2-16,16-16h0c8.8,0,16,7.2,16,16v0
			C392,136.8,384.8,144,376,144z"/>
		<path id="XMLID_87_" class="st28" d="M448,140c0-6.6-5.4-12-12-12c-5.3,0-9.8,3.4-11.4,8.2c-1.7-2-4.3-3.2-7.1-3.2
			c-5.2,0-9.5,4.3-9.5,9.5c0,5.1,4,9.2,9,9.5v0h20v-0.1C443.2,151.4,448,146.3,448,140z"/>
	</g>
	<g id="XMLID_101_" class="st4">
		<path id="XMLID_112_" class="st27" d="M101.8,375.3l12.7,14l31.7-31c3.1-3.1,8.2-3.1,11.3,0l18.4,18V296c0-4.4-3.6-8-8-8H56
			c-4.4,0-8,3.6-8,8v120.7l42.5-41.4C93.6,372.2,98.7,372.2,101.8,375.3z"/>
		<path id="XMLID_108_" class="st10" d="M115.5,390.4l-0.9-1l-12.7-14c-3.1-3.1-8.2-3.1-11.3,0L48,416.7v7.3c0,4.4,3.6,8,8,8h89h7
			L115.5,390.4z"/>
		<path id="XMLID_107_" class="st15" d="M89.5,380.9l-11.3,11.3c-1.6,1.6-1.6,4.1,0,5.7c1.6,1.6,4.1,1.6,5.7,0l11.3-11.3
			c1.6-1.6,1.6-4.1,0-5.7C93.6,379.3,91,379.3,89.5,380.9z"/>
		<path id="XMLID_106_" class="st10" d="M157.6,358.3c-3.1-3.1-8.2-3.1-11.3,0l-31.7,31l0.9,1l-0.5-0.5l0.1-0.1
			c4.5-0.9,11.1-1.5,15,1.2c4.4,2.9,37.7,39.7,38.8,40.9c4-0.5,7.1-3.8,7.1-7.9v-47.6L157.6,358.3z"/>
		<path id="XMLID_105_" class="st17" d="M139.5,369.9l-11.3,11.3c-1.6,1.6-1.6,4.1,0,5.7c1.6,1.6,4.1,1.6,5.7,0l11.3-11.3
			c1.6-1.6,1.6-4.1,0-5.7C143.6,368.3,141,368.3,139.5,369.9z"/>
		<path id="XMLID_104_" class="st16" d="M130.1,391c-3.9-2.7-10.5-2.1-15-1.2l-0.1,0.1l0.5,0.5L152,432h1.2H168c0.3,0,0.6,0,0.9-0.1
			C167.8,430.7,134.6,393.9,130.1,391z"/>
		<path id="XMLID_103_" class="st11" d="M88,336L88,336c-8.8,0-16-7.2-16-16v0c0-8.8,7.2-16,16-16h0c8.8,0,16,7.2,16,16v0
			C104,328.8,96.8,336,88,336z"/>
		<path id="XMLID_102_" class="st28" d="M160,332c0-6.6-5.4-12-12-12c-5.3,0-9.8,3.4-11.4,8.2c-1.7-2-4.3-3.2-7.1-3.2
			c-5.2,0-9.5,4.3-9.5,9.5c0,5.1,4,9.2,9,9.5v0h20v-0.1C155.2,343.4,160,338.3,160,332z"/>
	</g>
	<g id="XMLID_116_" class="st4">
		<path id="XMLID_127_" class="st27" d="M245.8,375.3l12.7,14l31.7-31c3.1-3.1,8.2-3.1,11.3,0l18.4,18V312c0-4.4-3.6-8-8-8H200
			c-4.4,0-8,3.6-8,8v104.7l42.5-41.4C237.6,372.2,242.7,372.2,245.8,375.3z"/>
		<path id="XMLID_123_" class="st10" d="M259.5,390.4l-0.9-1l-12.7-14c-3.1-3.1-8.2-3.1-11.3,0L192,416.7v7.3c0,4.4,3.6,8,8,8h89h7
			L259.5,390.4z"/>
		<path id="XMLID_122_" class="st15" d="M233.5,380.9l-11.3,11.3c-1.6,1.6-1.6,4.1,0,5.7c1.6,1.6,4.1,1.6,5.7,0l11.3-11.3
			c1.6-1.6,1.6-4.1,0-5.7C237.6,379.3,235,379.3,233.5,380.9z"/>
		<path id="XMLID_121_" class="st10" d="M301.6,358.3c-3.1-3.1-8.2-3.1-11.3,0l-31.7,31l0.9,1l-0.5-0.5l0.1-0.1
			c4.5-0.9,11.1-1.5,15,1.2c4.4,2.9,37.7,39.7,38.8,40.9c4-0.5,7.1-3.8,7.1-7.9v-47.6L301.6,358.3z"/>
		<path id="XMLID_120_" class="st17" d="M283.5,369.9l-11.3,11.3c-1.6,1.6-1.6,4.1,0,5.7c1.6,1.6,4.1,1.6,5.7,0l11.3-11.3
			c1.6-1.6,1.6-4.1,0-5.7C287.6,368.3,285,368.3,283.5,369.9z"/>
		<path id="XMLID_119_" class="st16" d="M274.1,391c-3.9-2.7-10.5-2.1-15-1.2l-0.1,0.1l0.5,0.5L296,432h1.2H312c0.3,0,0.6,0,0.9-0.1
			C311.8,430.7,278.6,393.9,274.1,391z"/>
		<path id="XMLID_118_" class="st11" d="M225,352L225,352c-8.8,0-16-7.2-16-16v0c0-8.8,7.2-16,16-16h0c8.8,0,16,7.2,16,16v0
			C241,344.8,233.8,352,225,352z"/>
		<path id="XMLID_117_" class="st28" d="M304,332c0-6.6-5.4-12-12-12c-5.3,0-9.8,3.4-11.4,8.2c-1.7-2-4.3-3.2-7.1-3.2
			c-5.2,0-9.5,4.3-9.5,9.5c0,5.1,4,9.2,9,9.5v0h20v-0.1C299.2,343.4,304,338.3,304,332z"/>
	</g>
</g>
<g id="Digishop" class="st3">
	<path id="XMLID_131_" class="st20" d="M360,376H152c-4.4,0-8-3.6-8-8l0,0c0-4.4,3.6-8,8-8h208c4.4,0,8,3.6,8,8l0,0
		C368,372.4,364.4,376,360,376z"/>
	<path id="XMLID_132_" class="st20" d="M320,408H192c-4.4,0-8-3.6-8-8l0,0c0-4.4,3.6-8,8-8h128c4.4,0,8,3.6,8,8l0,0
		C328,404.4,324.4,408,320,408z"/>
	<path id="XMLID_133_" class="st25" d="M255.3,320L255.3,320c-57.4,0-104-46.6-104-104v0c0-57.4,46.6-104,104-104h0
		c57.4,0,104,46.6,104,104v0C359.3,273.4,312.7,320,255.3,320z"/>
	<path id="XMLID_138_" class="st26" d="M304,218h-13.9c-3.9,0-7.1,3.4-7.1,7.4v10.4c0,2-1.4,3.2-3.4,3.2H231c-2,0-4-1.3-4-3.2v-10.4
		c0-3.9-2.5-7.4-6.5-7.4h-13.9c-3.9,0-6.6,3.4-6.6,7.4v34.8c0,5.6,1,6.9,6.6,6.9H304c5.6,0,7-1.2,7-6.9v-34.8
		C311,221.4,307.9,218,304,218z M304,256.6c0,2-1.5,3.4-3.5,3.4h-90.4c-2,0-3.1-1.4-3.1-3.4v-27.8c0-2,1.2-3.8,3.1-3.8h7
		c2,0,3.9,1.9,3.9,3.8v10.4c0,5.6,0.9,6.7,6.5,6.7h55.6c5.6,0,6.9-1.1,6.9-6.7v-10.4c0-2,1.6-3.8,3.6-3.8h7c2,0,3.5,1.9,3.5,3.8
		V256.6z M230.1,201.4l22.8,23.2c1.3,1.3,3.5,1.3,4.8,0l22.8-23.1c1.3-1.5,1.1-3.4-0.9-3.4H262v-31.5c0-2-1.3-3.5-3.2-3.5h-7
		c-2,0-3.8,1.5-3.8,3.5V198h-17C229,198,228.8,199.8,230.1,201.4z"/>
	<path id="XMLID_137_" class="st26" d="M276,256L276,256c-1.7,0-3-1.3-3-3l0,0c0-1.7,1.3-3,3-3l0,0c1.7,0,3,1.3,3,3l0,0
		C279,254.7,277.7,256,276,256z"/>
	<path id="XMLID_142_" class="st26" d="M287,256L287,256c-1.7,0-3-1.3-3-3l0,0c0-1.7,1.3-3,3-3l0,0c1.7,0,3,1.3,3,3l0,0
		C290,254.7,288.7,256,287,256z"/>
	<path id="XMLID_146_" class="st26" d="M265,256L265,256c-1.7,0-3-1.3-3-3l0,0c0-1.7,1.3-3,3-3l0,0c1.7,0,3,1.3,3,3l0,0
		C268,254.7,266.7,256,265,256z"/>
</g>
<g id="Comments" class="st3">
	<g id="XMLID_177_" class="st4">
		<g id="XMLID_155_">
			<g id="XMLID_152_">
				<path id="XMLID_150_" class="st1" d="M432,120H184c-8.8,0-16,7.2-16,16v2c0,7.2-5.8,13-13,13v0c7.2,0,13,5.8,13,13v4
					c0,8.8,7.2,16,16,16h248c8.8,0,16-7.2,16-16v-32C448,127.2,440.8,120,432,120z"/>
				<g id="XMLID_147_">
					<path id="XMLID_148_" class="st2" d="M272,160L272,160c-4.4,0-8-3.6-8-8v0c0-4.4,3.6-8,8-8l0,0c4.4,0,8,3.6,8,8v0
						C280,156.4,276.4,160,272,160z"/>
					<path id="XMLID_149_" class="st2" d="M312,160L312,160c-4.4,0-8-3.6-8-8v0c0-4.4,3.6-8,8-8l0,0c4.4,0,8,3.6,8,8v0
						C320,156.4,316.4,160,312,160z"/>
					<path id="XMLID_151_" class="st2" d="M352,160L352,160c-4.4,0-8-3.6-8-8v0c0-4.4,3.6-8,8-8l0,0c4.4,0,8,3.6,8,8v0
						C360,156.4,356.4,160,352,160z"/>
				</g>
			</g>
			<g id="XMLID_154_">
				<path id="XMLID_153_" class="st27" d="M96,184L96,184c-17.7,0-32-14.3-32-32v0c0-17.7,14.3-32,32-32h0c17.7,0,32,14.3,32,32v0
					C128,169.7,113.7,184,96,184z"/>
				<path id="XMLID_159_" class="st29" d="M104,160v-3.1c2.4-2.2,4-5.4,4-8.9c0-6.6-5.4-12-12-12s-12,5.4-12,12c0,3.5,1.6,6.7,4,8.9
					v3.1l-14,9c0,0-1.7,2-2.2,3.9C77.7,179.7,86.3,184,96,184h0c9.6,0,18.2-4.2,24-10.9c-0.4-2-2.2-4.1-2.2-4.1L104,160z"/>
			</g>
		</g>
		<g id="XMLID_156_" class="st3">
			<g id="XMLID_161_" class="st4">
				<path id="XMLID_166_" class="st1" d="M432,344H184c-8.8,0-16,7.2-16,16v2c0,7.2-5.8,13-13,13v0c7.2,0,13,5.8,13,13v4
					c0,8.8,7.2,16,16,16h248c8.8,0,16-7.2,16-16v-32C448,351.2,440.8,344,432,344z"/>
				<g id="XMLID_162_">
					<path id="XMLID_165_" class="st2" d="M272,384L272,384c-4.4,0-8-3.6-8-8l0,0c0-4.4,3.6-8,8-8l0,0c4.4,0,8,3.6,8,8l0,0
						C280,380.4,276.4,384,272,384z"/>
					<path id="XMLID_164_" class="st2" d="M312,384L312,384c-4.4,0-8-3.6-8-8l0,0c0-4.4,3.6-8,8-8l0,0c4.4,0,8,3.6,8,8l0,0
						C320,380.4,316.4,384,312,384z"/>
					<path id="XMLID_163_" class="st2" d="M352,384L352,384c-4.4,0-8-3.6-8-8l0,0c0-4.4,3.6-8,8-8l0,0c4.4,0,8,3.6,8,8l0,0
						C360,380.4,356.4,384,352,384z"/>
				</g>
			</g>
			<g id="XMLID_157_" class="st4">
				<path id="XMLID_160_" class="st27" d="M96,408L96,408c-17.7,0-32-14.3-32-32v0c0-17.7,14.3-32,32-32h0c17.7,0,32,14.3,32,32v0
					C128,393.7,113.7,408,96,408z"/>
				<path id="XMLID_158_" class="st29" d="M104,384v-3.1c2.4-2.2,4-5.4,4-8.9c0-6.6-5.4-12-12-12s-12,5.4-12,12c0,3.5,1.6,6.7,4,8.9
					v3.1l-14,9c0,0-1.7,2-2.2,3.9C77.7,403.7,86.3,408,96,408h0c9.6,0,18.2-4.2,24-10.9c-0.4-2-2.2-4.1-2.2-4.1L104,384z"/>
			</g>
		</g>
		<g id="XMLID_167_">
			<g id="XMLID_171_">
				<path id="XMLID_176_" class="st1" d="M80,234h248c8.8,0,16,7.2,16,16v2c0,7.2,5.8,13,13,13v0c-7.2,0-13,5.8-13,13v4
					c0,8.8-7.2,16-16,16H80c-8.8,0-16-7.2-16-16v-32C64,241.2,71.2,234,80,234z"/>
				<g id="XMLID_172_">
					<path id="XMLID_175_" class="st2" d="M240,274L240,274c4.4,0,8-3.6,8-8l0,0c0-4.4-3.6-8-8-8h0c-4.4,0-8,3.6-8,8l0,0
						C232,270.4,235.6,274,240,274z"/>
					<path id="XMLID_174_" class="st2" d="M200,274L200,274c4.4,0,8-3.6,8-8l0,0c0-4.4-3.6-8-8-8h0c-4.4,0-8,3.6-8,8l0,0
						C192,270.4,195.6,274,200,274z"/>
					<path id="XMLID_173_" class="st2" d="M160,274L160,274c4.4,0,8-3.6,8-8l0,0c0-4.4-3.6-8-8-8h0c-4.4,0-8,3.6-8,8l0,0
						C152,270.4,155.6,274,160,274z"/>
				</g>
			</g>
			<g id="XMLID_168_">
				<path id="XMLID_170_" class="st27" d="M416,298L416,298c17.7,0,32-14.3,32-32v0c0-17.7-14.3-32-32-32h0c-17.7,0-32,14.3-32,32v0
					C384,283.7,398.3,298,416,298z"/>
				<path id="XMLID_169_" class="st29" d="M408,274v-3.1c-2.4-2.2-4-5.4-4-8.9c0-6.6,5.4-12,12-12s12,5.4,12,12c0,3.5-1.6,6.7-4,8.9
					v3.1l14,9c0,0,1.7,2,2.2,3.9c-5.9,6.8-14.5,11.1-24.2,11.1h0c-9.6,0-18.2-4.2-24-10.9c0.4-2,2.2-4.1,2.2-4.1L408,274z"/>
			</g>
		</g>
	</g>
	<g id="XMLID_235_" class="st4">
		<path id="XMLID_327_" class="st2" d="M352,424H72c-4.4,0-8-3.6-8-8v-32c0-4.4,3.6-8,8-8h280c4.4,0,8,3.6,8,8v32
			C360,420.4,356.4,424,352,424z"/>
		<rect id="XMLID_328_" x="72" y="384" class="st1" width="280" height="32"/>
	</g>
	<g id="XMLID_3_" class="st4">
		<path id="XMLID_329_" class="st19" d="M448,416h-48c-8.8,0-16-7.2-16-16v0c0-8.8,7.2-16,16-16h48c8.8,0,16,7.2,16,16v0
			C464,408.8,456.8,416,448,416z"/>
		<path id="XMLID_330_" class="st30" d="M424,408L424,408c-4.4,0-8-3.6-8-8l0,0c0-4.4,3.6-8,8-8l0,0c4.4,0,8,3.6,8,8l0,0
			C432,404.4,428.4,408,424,408z"/>
	</g>
</g>
<g id="Events" class="st3">
	<g id="XMLID_201_" class="st4">
		<path id="XMLID_178_" class="st10" d="M416,176H296c-4.4,0-8-3.6-8-8v0c0-4.4,3.6-8,8-8h120c4.4,0,8,3.6,8,8v0
			C424,172.4,420.4,176,416,176z"/>
		<path id="XMLID_179_" class="st0" d="M416,224H296c-4.4,0-8-3.6-8-8v0c0-4.4,3.6-8,8-8h120c4.4,0,8,3.6,8,8v0
			C424,220.4,420.4,224,416,224z"/>
		<path id="XMLID_180_" class="st0" d="M472,256H296c-4.4,0-8-3.6-8-8v0c0-4.4,3.6-8,8-8h176c4.4,0,8,3.6,8,8v0
			C480,252.4,476.4,256,472,256z"/>
		<path id="XMLID_181_" class="st0" d="M416,288H296c-4.4,0-8-3.6-8-8l0,0c0-4.4,3.6-8,8-8h120c4.4,0,8,3.6,8,8l0,0
			C424,284.4,420.4,288,416,288z"/>
		<path id="XMLID_182_" class="st0" d="M448,320H296c-4.4,0-8-3.6-8-8l0,0c0-4.4,3.6-8,8-8h152c4.4,0,8,3.6,8,8l0,0
			C456,316.4,452.4,320,448,320z"/>
		<path id="XMLID_183_" class="st0" d="M440,352H296c-4.4,0-8-3.6-8-8l0,0c0-4.4,3.6-8,8-8h144c4.4,0,8,3.6,8,8l0,0
			C448,348.4,444.4,352,440,352z"/>
		<path id="XMLID_184_" class="st0" d="M376,384h-80c-4.4,0-8-3.6-8-8l0,0c0-4.4,3.6-8,8-8h80c4.4,0,8,3.6,8,8l0,0
			C384,380.4,380.4,384,376,384z"/>
	</g>
	<g id="XMLID_204_" class="st4">
		<path id="XMLID_190_" class="st1" d="M240,184H56c-4.4,0-8,3.6-8,8v152c0,4.4,3.6,8,8,8h184c4.4,0,8-3.6,8-8V192
			C248,187.6,244.4,184,240,184z M240,344H56V192h184V344z"/>
		<rect id="XMLID_185_" x="112" y="192" class="st1" width="8" height="152"/>
		<rect id="XMLID_186_" x="144" y="192" class="st1" width="8" height="152"/>
		<rect id="XMLID_187_" x="176" y="192" class="st1" width="8" height="152"/>
		<rect id="XMLID_191_" x="208" y="192" class="st1" width="8" height="152"/>
		<rect id="XMLID_192_" x="80" y="192" class="st1" width="8" height="152"/>
		<rect id="XMLID_193_" x="56" y="216" class="st1" width="184" height="8"/>
		<rect id="XMLID_194_" x="56" y="248" class="st1" width="184" height="8"/>
		<rect id="XMLID_195_" x="56" y="280" class="st1" width="184" height="8"/>
		<rect id="XMLID_196_" x="56" y="312" class="st1" width="184" height="8"/>
		<path id="XMLID_197_" class="st29" d="M100,240L100,240c-2.2,0-4-1.8-4-4l0,0c0-2.2,1.8-4,4-4h0c2.2,0,4,1.8,4,4l0,0
			C104,238.2,102.2,240,100,240z"/>
		<path id="XMLID_198_" class="st11" d="M196,272L196,272c-2.2,0-4-1.8-4-4l0,0c0-2.2,1.8-4,4-4l0,0c2.2,0,4,1.8,4,4l0,0
			C200,270.2,198.2,272,196,272z"/>
		<path id="XMLID_199_" class="st31" d="M132,304L132,304c-2.2,0-4-1.8-4-4l0,0c0-2.2,1.8-4,4-4l0,0c2.2,0,4,1.8,4,4l0,0
			C136,302.2,134.2,304,132,304z"/>
		<path id="XMLID_200_" class="st19" d="M228,336L228,336c-2.2,0-4-1.8-4-4l0,0c0-2.2,1.8-4,4-4l0,0c2.2,0,4,1.8,4,4l0,0
			C232,334.2,230.2,336,228,336z"/>
	</g>
</g>
<g id="Youtybe_Player" class="st3">
	<g id="XMLID_205_" class="st4">
		<path id="XMLID_202_" class="st31" d="M344,344H40V120c0-8.8,7.2-16,16-16h272c8.8,0,16,7.2,16,16V344z"/>
		<path id="XMLID_203_" class="st1" d="M328,424H56c-8.8,0-16-7.2-16-16v-64h304v64C344,416.8,336.8,424,328,424z"/>
		<path id="XMLID_212_" class="st10" d="M304,376H198.6c-3.3-9.3-12.2-16-22.6-16s-19.3,6.7-22.6,16H80c-4.4,0-8,3.6-8,8s3.6,8,8,8
			h73.4c3.3,9.3,12.2,16,22.6,16s19.3-6.7,22.6-16H304c4.4,0,8-3.6,8-8S308.4,376,304,376z M176,392c-4.4,0-8-3.6-8-8s3.6-8,8-8
			s8,3.6,8,8S180.4,392,176,392z"/>
		<path id="XMLID_207_" class="st28" d="M160,191.8v66.4c0,5.1,5.4,8.4,9.8,6l67.3-35.2c4-2.2,3.8-9.8-0.3-11.7l-67.4-31.7
			C165,183.6,160,186.8,160,191.8z"/>
	</g>
	<g id="XMLID_219_" class="st4">
		<g id="XMLID_210_">
			<path id="XMLID_206_" class="st31" d="M466,184H366c-3.3,0-6-2.7-6-6v-68c0-3.3,2.7-6,6-6h100c3.3,0,6,2.7,6,6v68
				C472,181.3,469.3,184,466,184z"/>
			<path id="XMLID_209_" class="st28" d="M400,130.7v26.5c0,2.1,2.1,3.4,3.9,2.4l26.9-14.1c1.6-0.9,1.5-3.9-0.1-4.7l-26.9-12.7
				C402,127.4,400,128.7,400,130.7z"/>
		</g>
		<g id="XMLID_213_">
			<path id="XMLID_215_" class="st31" d="M466,280H366c-3.3,0-6-2.7-6-6v-68c0-3.3,2.7-6,6-6h100c3.3,0,6,2.7,6,6v68
				C472,277.3,469.3,280,466,280z"/>
			<path id="XMLID_214_" class="st28" d="M400,226.7v26.5c0,2.1,2.1,3.4,3.9,2.4l26.9-14.1c1.6-0.9,1.5-3.9-0.1-4.7l-26.9-12.7
				C402,223.4,400,224.7,400,226.7z"/>
		</g>
		<g id="XMLID_216_">
			<path id="XMLID_218_" class="st31" d="M466,376H366c-3.3,0-6-2.7-6-6v-68c0-3.3,2.7-6,6-6h100c3.3,0,6,2.7,6,6v68
				C472,373.3,469.3,376,466,376z"/>
			<path id="XMLID_217_" class="st28" d="M400,322.7v26.5c0,2.1,2.1,3.4,3.9,2.4l26.9-14.1c1.6-0.9,1.5-3.9-0.1-4.7l-26.9-12.7
				C402,319.4,400,320.7,400,322.7z"/>
		</g>
	</g>
</g>
<g id="Portfolio" class="st3">
	<g id="XMLID_228_" class="st4">
		<g id="XMLID_225_">
			<path id="XMLID_221_" class="st1" d="M384,392H128c-4.4,0-8-3.6-8-8v-24h272v24C392,388.4,388.4,392,384,392z"/>
			<path id="XMLID_222_" class="st2" d="M256,384L256,384c-4.4,0-8-3.6-8-8l0,0c0-4.4,3.6-8,8-8h0c4.4,0,8,3.6,8,8l0,0
				C264,380.4,260.4,384,256,384z"/>
		</g>
		<path id="XMLID_227_" class="st0" d="M302.6,417.8L288,405v-13h-64v13h0l-14.6,12.8c-0.9,0.8-1.4,1.9-1.4,3v5.2c0,3.3,2.7,6,6,6
			h84c3.3,0,6-2.7,6-6v-5.2C304,419.7,303.5,418.6,302.6,417.8z"/>
	</g>
	<g id="XMLID_232_" class="st4">
		<g id="XMLID_230_">
			<path id="XMLID_220_" class="st10" d="M392,360H120V200c0-8.8,7.2-16,16-16h240c8.8,0,16,7.2,16,16V360z"/>
			<path id="XMLID_229_" class="st27" d="M376,352H136c-4.4,0-8-3.6-8-8V200c0-4.4,3.6-8,8-8h240c4.4,0,8,3.6,8,8v144
				C384,348.4,380.4,352,376,352z"/>
		</g>
		<g id="XMLID_231_">
			<path id="XMLID_223_" class="st11" d="M180,248L180,248c-11,0-20-9-20-20v0c0-11,9-20,20-20h0c11,0,20,9,20,20v0
				C200,239,191,248,180,248z"/>
			<g id="XMLID_224_">
				<path id="XMLID_239_" class="st0" d="M339,305c7.3,10.3,17.3,14.5,21,31c1.3,5.6,2.6,11,3.3,16H376c4.4,0,8-3.6,8-8v-13.8
					l-33.6-33.3C345.9,296,338.9,295.9,339,305z"/>
				<path id="XMLID_241_" class="st28" d="M339,305c-0.1-9.1,6.9-9,11.4-8.1l-44.7-44.2c-1.7-1.7-4.1-2.7-6.5-2.7h-0.4
					c-2.4,0-4.8,1-6.5,2.7l-60.2,59.6l0.6,0.7c4.1-1.8,10.9-3.2,20.2,0c9.7,9.6,27.9,30.3,35.5,39h74.8c-0.7-5-2-10.4-3.3-16
					C356.3,319.5,346.3,315.3,339,305z"/>
				<path id="XMLID_243_" class="st0" d="M253,313c-9.3-3.2-16.1-1.8-20.2,0l34.7,39h21C280.9,343.3,262.7,322.6,253,313z"/>
				<path id="XMLID_226_" class="st28" d="M232.8,313l-0.6-0.7l-33.5-37.6c-1.7-1.7-4.1-2.7-6.5-2.7h-0.4c-2.4,0-4.8,1-6.5,2.7
					L128,331.4V344c0,4.4,3.6,8,8,8h56.1h75.4L232.8,313z"/>
			</g>
		</g>
	</g>
	<g id="XMLID_1_" class="st4">
		<path id="XMLID_233_" class="st0" d="M360,120H152c-4.4,0-8-3.6-8-8v0c0-4.4,3.6-8,8-8h208c4.4,0,8,3.6,8,8v0
			C368,116.4,364.4,120,360,120z"/>
		<path id="XMLID_234_" class="st0" d="M320,152H192c-4.4,0-8-3.6-8-8v0c0-4.4,3.6-8,8-8h128c4.4,0,8,3.6,8,8v0
			C328,148.4,324.4,152,320,152z"/>
	</g>
	<path id="XMLID_2_" class="st21" d="M294,425h-76c-1.1,0-2-0.9-2-2l0,0c0-1.1,0.9-2,2-2h76c1.1,0,2,0.9,2,2l0,0
		C296,424.1,295.1,425,294,425z"/>
</g>
<g id="Timeline" class="st3">
	<g id="XMLID_363_" class="st4">
		<g id="XMLID_362_">
			<path id="XMLID_333_" class="st2" d="M256,224L256,224c-17.7,0-32,14.3-32,32v0c0,17.7,14.3,32,32,32h0c17.7,0,32-14.3,32-32v0
				C288,238.3,273.7,224,256,224z M256,272c-8.8,0-16-7.2-16-16s7.2-16,16-16s16,7.2,16,16S264.8,272,256,272z"/>
			<path id="XMLID_335_" class="st2" d="M256,368L256,368c-17.7,0-32,14.3-32,32v0c0,17.7,14.3,32,32,32h0c17.7,0,32-14.3,32-32v0
				C288,382.3,273.7,368,256,368z M256,416c-8.8,0-16-7.2-16-16s7.2-16,16-16s16,7.2,16,16S264.8,416,256,416z"/>
			<g id="XMLID_361_">
				<path id="XMLID_340_" class="st10" d="M256,96L256,96c-17.7,0-32,14.3-32,32v0c0,17.7,14.3,32,32,32h0c17.7,0,32-14.3,32-32v0
					C288,110.3,273.7,96,256,96z M256,144c-8.8,0-16-7.2-16-16s7.2-16,16-16s16,7.2,16,16S264.8,144,256,144z"/>
				<path id="XMLID_334_" class="st10" d="M256,136L256,136c-4.4,0-8-3.6-8-8v0c0-4.4,3.6-8,8-8h0c4.4,0,8,3.6,8,8v0
					C264,132.4,260.4,136,256,136z"/>
			</g>
		</g>
		<g id="XMLID_360_">
			<g id="XMLID_345_">
				<path id="XMLID_343_" class="st0" d="M256,184L256,184c-4.4,0-8-3.6-8-8v0c0-4.4,3.6-8,8-8h0c4.4,0,8,3.6,8,8v0
					C264,180.4,260.4,184,256,184z"/>
				<path id="XMLID_344_" class="st0" d="M256,216L256,216c-4.4,0-8-3.6-8-8v0c0-4.4,3.6-8,8-8h0c4.4,0,8,3.6,8,8v0
					C264,212.4,260.4,216,256,216z"/>
			</g>
			<g id="XMLID_346_">
				<path id="XMLID_348_" class="st0" d="M256,320L256,320c-4.4,0-8-3.6-8-8l0,0c0-4.4,3.6-8,8-8h0c4.4,0,8,3.6,8,8l0,0
					C264,316.4,260.4,320,256,320z"/>
				<path id="XMLID_347_" class="st0" d="M256,352L256,352c-4.4,0-8-3.6-8-8l0,0c0-4.4,3.6-8,8-8h0c4.4,0,8,3.6,8,8l0,0
					C264,348.4,260.4,352,256,352z"/>
			</g>
		</g>
	</g>
	<g id="XMLID_364_" class="st4">
		<g id="XMLID_351_">
			<path id="XMLID_349_" class="st0" d="M408,128h-80c-4.4,0-8-3.6-8-8v0c0-4.4,3.6-8,8-8h80c4.4,0,8,3.6,8,8v0
				C416,124.4,412.4,128,408,128z"/>
			<path id="XMLID_350_" class="st0" d="M472,160H328c-4.4,0-8-3.6-8-8v0c0-4.4,3.6-8,8-8h144c4.4,0,8,3.6,8,8v0
				C480,156.4,476.4,160,472,160z"/>
		</g>
		<g id="XMLID_355_">
			<path id="XMLID_354_" class="st0" d="M376,400h-48c-4.4,0-8-3.6-8-8l0,0c0-4.4,3.6-8,8-8h48c4.4,0,8,3.6,8,8l0,0
				C384,396.4,380.4,400,376,400z"/>
			<path id="XMLID_353_" class="st0" d="M408,432h-80c-4.4,0-8-3.6-8-8l0,0c0-4.4,3.6-8,8-8h80c4.4,0,8,3.6,8,8l0,0
				C416,428.4,412.4,432,408,432z"/>
			<path id="XMLID_352_" class="st0" d="M472,432h-32c-4.4,0-8-3.6-8-8l0,0c0-4.4,3.6-8,8-8h32c4.4,0,8,3.6,8,8l0,0
				C480,428.4,476.4,432,472,432z"/>
		</g>
		<g id="XMLID_359_">
			<path id="XMLID_356_" class="st0" d="M184,256h-80c-4.4,0-8-3.6-8-8v0c0-4.4,3.6-8,8-8h80c4.4,0,8,3.6,8,8v0
				C192,252.4,188.4,256,184,256z"/>
			<path id="XMLID_357_" class="st0" d="M184,288h-32c-4.4,0-8-3.6-8-8l0,0c0-4.4,3.6-8,8-8h32c4.4,0,8,3.6,8,8l0,0
				C192,284.4,188.4,288,184,288z"/>
			<path id="XMLID_358_" class="st0" d="M120,288H40c-4.4,0-8-3.6-8-8l0,0c0-4.4,3.6-8,8-8h80c4.4,0,8,3.6,8,8l0,0
				C128,284.4,124.4,288,120,288z"/>
		</g>
	</g>
</g>
<g id="Blog" class="st3">
	<g id="XMLID_267_" class="st4">
		<path id="XMLID_266_" class="st27" d="M109.8,175.3l12.7,14l31.7-31c3.1-3.1,8.2-3.1,11.3,0l18.4,18V128c0-4.4-3.6-8-8-8H64
			c-4.4,0-8,3.6-8,8v88.7l42.5-41.4C101.6,172.2,106.7,172.2,109.8,175.3z"/>
		<path id="XMLID_265_" class="st10" d="M123.5,190.4l-0.9-1l-12.7-14c-3.1-3.1-8.2-3.1-11.3,0L56,216.7v7.3c0,4.4,3.6,8,8,8h89h7
			L123.5,190.4z"/>
		<path id="XMLID_264_" class="st15" d="M97.5,180.9l-11.3,11.3c-1.6,1.6-1.6,4.1,0,5.7c1.6,1.6,4.1,1.6,5.7,0l11.3-11.3
			c1.6-1.6,1.6-4.1,0-5.7C101.6,179.3,99,179.3,97.5,180.9z"/>
		<path id="XMLID_263_" class="st10" d="M165.6,158.3c-3.1-3.1-8.2-3.1-11.3,0l-31.7,31l0.9,1l-0.5-0.5l0.1-0.1
			c4.5-0.9,11.1-1.5,15,1.2c4.4,2.9,37.7,39.7,38.8,40.9c4-0.5,7.1-3.8,7.1-7.9v-47.6L165.6,158.3z"/>
		<path id="XMLID_262_" class="st17" d="M147.5,169.9l-11.3,11.3c-1.6,1.6-1.6,4.1,0,5.7c1.6,1.6,4.1,1.6,5.7,0l11.3-11.3
			c1.6-1.6,1.6-4.1,0-5.7C151.6,168.3,149,168.3,147.5,169.9z"/>
		<path id="XMLID_261_" class="st16" d="M138.1,191c-3.9-2.7-10.5-2.1-15-1.2l-0.1,0.1l0.5,0.5L160,232h1.2H176c0.3,0,0.6,0,0.9-0.1
			C175.8,230.7,142.6,193.9,138.1,191z"/>
		<path id="XMLID_260_" class="st11" d="M96,152L96,152c-4.4,0-8-3.6-8-8v0c0-4.4,3.6-8,8-8h0c4.4,0,8,3.6,8,8v0
			C104,148.4,100.4,152,96,152z"/>
	</g>
	<g id="XMLID_268_" class="st4">
		<path id="XMLID_278_" class="st27" d="M381.8,343.3l12.7,14l31.7-31c3.1-3.1,8.2-3.1,11.3,0l18.4,18V296c0-4.4-3.6-8-8-8H336
			c-4.4,0-8,3.6-8,8v88.7l42.5-41.4C373.6,340.2,378.7,340.2,381.8,343.3z"/>
		<path id="XMLID_274_" class="st10" d="M395.5,358.4l-0.9-1l-12.7-14c-3.1-3.1-8.2-3.1-11.3,0L328,384.7v7.3c0,4.4,3.6,8,8,8h89h7
			L395.5,358.4z"/>
		<path id="XMLID_273_" class="st15" d="M369.5,348.9l-11.3,11.3c-1.6,1.6-1.6,4.1,0,5.7c1.6,1.6,4.1,1.6,5.7,0l11.3-11.3
			c1.6-1.6,1.6-4.1,0-5.7C373.6,347.3,371,347.3,369.5,348.9z"/>
		<path id="XMLID_272_" class="st10" d="M437.6,326.3c-3.1-3.1-8.2-3.1-11.3,0l-31.7,31l0.9,1l-0.5-0.5l0.1-0.1
			c4.5-0.9,11.1-1.5,15,1.2c4.4,2.9,37.7,39.7,38.8,40.9c4-0.5,7.1-3.8,7.1-7.9v-47.6L437.6,326.3z"/>
		<path id="XMLID_271_" class="st17" d="M419.5,337.9l-11.3,11.3c-1.6,1.6-1.6,4.1,0,5.7c1.6,1.6,4.1,1.6,5.7,0l11.3-11.3
			c1.6-1.6,1.6-4.1,0-5.7C423.6,336.3,421,336.3,419.5,337.9z"/>
		<path id="XMLID_270_" class="st16" d="M410.1,359c-3.9-2.7-10.5-2.1-15-1.2l-0.1,0.1l0.5,0.5L432,400h1.2H448c0.3,0,0.6,0,0.9-0.1
			C447.8,398.7,414.6,361.9,410.1,359z"/>
		<path id="XMLID_269_" class="st11" d="M368,320L368,320c-4.4,0-8-3.6-8-8l0,0c0-4.4,3.6-8,8-8l0,0c4.4,0,8,3.6,8,8l0,0
			C376,316.4,372.4,320,368,320z"/>
	</g>
	<g id="XMLID_286_" class="st4">
		<path id="XMLID_282_" class="st10" d="M264,136h-40c-4.4,0-8-3.6-8-8v0c0-4.4,3.6-8,8-8h40c4.4,0,8,3.6,8,8v0
			C272,132.4,268.4,136,264,136z"/>
		<path id="XMLID_283_" class="st0" d="M448,168H224c-4.4,0-8-3.6-8-8v0c0-4.4,3.6-8,8-8h224c4.4,0,8,3.6,8,8v0
			C456,164.4,452.4,168,448,168z"/>
		<path id="XMLID_284_" class="st0" d="M224,200h136c4.4,0,8-3.6,8-8v0c0-4.4-3.6-8-8-8H224c-4.4,0-8,3.6-8,8v0
			C216,196.4,219.6,200,224,200z"/>
		<path id="XMLID_285_" class="st0" d="M400,232H224c-4.4,0-8-3.6-8-8v0c0-4.4,3.6-8,8-8h176c4.4,0,8,3.6,8,8v0
			C408,228.4,404.4,232,400,232z"/>
	</g>
	<g id="XMLID_287_" class="st4">
		<path id="XMLID_297_" class="st10" d="M104,304H64c-4.4,0-8-3.6-8-8l0,0c0-4.4,3.6-8,8-8h40c4.4,0,8,3.6,8,8l0,0
			C112,300.4,108.4,304,104,304z"/>
		<path id="XMLID_293_" class="st0" d="M288,336H64c-4.4,0-8-3.6-8-8l0,0c0-4.4,3.6-8,8-8h224c4.4,0,8,3.6,8,8l0,0
			C296,332.4,292.4,336,288,336z"/>
		<path id="XMLID_289_" class="st0" d="M64,368h136c4.4,0,8-3.6,8-8l0,0c0-4.4-3.6-8-8-8H64c-4.4,0-8,3.6-8,8l0,0
			C56,364.4,59.6,368,64,368z"/>
		<path id="XMLID_288_" class="st0" d="M240,400H64c-4.4,0-8-3.6-8-8l0,0c0-4.4,3.6-8,8-8h176c4.4,0,8,3.6,8,8l0,0
			C248,396.4,244.4,400,240,400z"/>
	</g>
</g>
<g id="Facebook" class="st3">
	<g id="XMLID_304_" class="st4">
		<g id="XMLID_303_">
			<path id="XMLID_298_" class="st0" d="M360,120H152c-4.4,0-8-3.6-8-8v0c0-4.4,3.6-8,8-8h208c4.4,0,8,3.6,8,8v0
				C368,116.4,364.4,120,360,120z"/>
			<path id="XMLID_299_" class="st0" d="M192,152h129c4.4,0,8-3.6,8-8v0c0-4.4-3.6-8-8-8H192c-4.4,0-8,3.6-8,8v0
				C184,148.4,187.6,152,192,152z"/>
		</g>
		<g id="XMLID_300_">
			<path id="XMLID_302_" class="st32" d="M256.7,384L256.7,384c-53,0-96-43-96-96v0c0-53,43-96,96-96h0c53,0,96,43,96,96v0
				C352.7,341,309.7,384,256.7,384z"/>
			<path id="XMLID_301_" class="st28" d="M266.1,236c-10.9,0-21.1,9.4-21.1,20.4V271h-15v14h15v55h15v-55h19.3l3.7-14H260v-14.6
				c0-2.2,4.1-5.4,6.4-5.4H282v-15h-15.6H266.1z"/>
		</g>
	</g>
</g>
<g id="Custom" class="st3">
	<g id="XMLID_326_" class="st4">
		<g id="XMLID_314_">
			<path id="XMLID_305_" class="st0" d="M225,176H49c-4.4,0-8-3.6-8-8v0c0-4.4,3.6-8,8-8h176c4.4,0,8,3.6,8,8v0
				C233,172.4,229.4,176,225,176z"/>
			<path id="XMLID_306_" class="st0" d="M49,208h136c4.4,0,8-3.6,8-8v0c0-4.4-3.6-8-8-8H49c-4.4,0-8,3.6-8,8v0
				C41,204.4,44.6,208,49,208z"/>
			<path id="XMLID_307_" class="st0" d="M49,240h112c4.4,0,8-3.6,8-8v0c0-4.4-3.6-8-8-8H49c-4.4,0-8,3.6-8,8v0
				C41,236.4,44.6,240,49,240z"/>
			<path id="XMLID_308_" class="st0" d="M49,272h136c4.4,0,8-3.6,8-8l0,0c0-4.4-3.6-8-8-8H49c-4.4,0-8,3.6-8,8l0,0
				C41,268.4,44.6,272,49,272z"/>
			<path id="XMLID_309_" class="st0" d="M50,304h159c4.4,0,8-3.6,8-8l0,0c0-4.4-3.6-8-8-8H50c-4.4,0-8,3.6-8,8l0,0
				C42,300.4,45.6,304,50,304z"/>
			<path id="XMLID_310_" class="st0" d="M49,336h112c4.4,0,8-3.6,8-8l0,0c0-4.4-3.6-8-8-8H49c-4.4,0-8,3.6-8,8l0,0
				C41,332.4,44.6,336,49,336z"/>
			<path id="XMLID_311_" class="st0" d="M185,368H49c-4.4,0-8-3.6-8-8l0,0c0-4.4,3.6-8,8-8h136c4.4,0,8,3.6,8,8l0,0
				C193,364.4,189.4,368,185,368z"/>
			<path id="XMLID_312_" class="st0" d="M225,400H49c-4.4,0-8-3.6-8-8l0,0c0-4.4,3.6-8,8-8h176c4.4,0,8,3.6,8,8l0,0
				C233,396.4,229.4,400,225,400z"/>
			<path id="XMLID_313_" class="st0" d="M105,432H49c-4.4,0-8-3.6-8-8l0,0c0-4.4,3.6-8,8-8h56c4.4,0,8,3.6,8,8l0,0
				C113,428.4,109.4,432,105,432z"/>
		</g>
		<g id="XMLID_324_">
			<path id="XMLID_315_" class="st0" d="M409,176H289c-4.4,0-8-3.6-8-8v0c0-4.4,3.6-8,8-8h120c4.4,0,8,3.6,8,8v0
				C417,172.4,413.4,176,409,176z"/>
			<path id="XMLID_316_" class="st0" d="M289,208h176c4.4,0,8-3.6,8-8v0c0-4.4-3.6-8-8-8H289c-4.4,0-8,3.6-8,8v0
				C281,204.4,284.6,208,289,208z"/>
			<path id="XMLID_317_" class="st0" d="M289,240h120c4.4,0,8-3.6,8-8v0c0-4.4-3.6-8-8-8H289c-4.4,0-8,3.6-8,8v0
				C281,236.4,284.6,240,289,240z"/>
			<path id="XMLID_318_" class="st0" d="M289,272h152c4.4,0,8-3.6,8-8l0,0c0-4.4-3.6-8-8-8H289c-4.4,0-8,3.6-8,8l0,0
				C281,268.4,284.6,272,289,272z"/>
			<path id="XMLID_319_" class="st0" d="M289,304h144c4.4,0,8-3.6,8-8l0,0c0-4.4-3.6-8-8-8H289c-4.4,0-8,3.6-8,8l0,0
				C281,300.4,284.6,304,289,304z"/>
			<path id="XMLID_320_" class="st0" d="M465,336H289c-4.4,0-8-3.6-8-8l0,0c0-4.4,3.6-8,8-8h176c4.4,0,8,3.6,8,8l0,0
				C473,332.4,469.4,336,465,336z"/>
			<path id="XMLID_321_" class="st0" d="M289,368h120c4.4,0,8-3.6,8-8l0,0c0-4.4-3.6-8-8-8H289c-4.4,0-8,3.6-8,8l0,0
				C281,364.4,284.6,368,289,368z"/>
			<path id="XMLID_322_" class="st0" d="M289,400h96c4.4,0,8-3.6,8-8l0,0c0-4.4-3.6-8-8-8h-96c-4.4,0-8,3.6-8,8l0,0
				C281,396.4,284.6,400,289,400z"/>
			<path id="XMLID_323_" class="st0" d="M289,432h56c4.4,0,8-3.6,8-8l0,0c0-4.4-3.6-8-8-8h-56c-4.4,0-8,3.6-8,8l0,0
				C281,428.4,284.6,432,289,432z"/>
		</g>
		<path id="XMLID_325_" class="st10" d="M169,128H49c-4.4,0-8-3.6-8-8v0c0-4.4,3.6-8,8-8h120c4.4,0,8,3.6,8,8v0
			C177,124.4,173.4,128,169,128z"/>
	</g>
</g>
<g id="Forms" class="st3">
	<g id="XMLID_236_" class="st4">
		<path id="XMLID_240_" class="st10" d="M296,128h-80c-4.4,0-8-3.6-8-8v0c0-4.4,3.6-8,8-8h80c4.4,0,8,3.6,8,8v0
			C304,124.4,300.4,128,296,128z"/>
		<g id="XMLID_256_">
			<g id="XMLID_245_">
				<path id="XMLID_242_" class="st0" d="M384,208H128c-4.4,0-8-3.6-8-8v-32c0-4.4,3.6-8,8-8h256c4.4,0,8,3.6,8,8v32
					C392,204.4,388.4,208,384,208z"/>
				<rect id="XMLID_244_" x="128" y="168" class="st1" width="256" height="32"/>
			</g>
			<g id="XMLID_246_">
				<path id="XMLID_248_" class="st0" d="M384,272H128c-4.4,0-8-3.6-8-8v-32c0-4.4,3.6-8,8-8h256c4.4,0,8,3.6,8,8v32
					C392,268.4,388.4,272,384,272z"/>
				<rect id="XMLID_247_" x="128" y="232" class="st1" width="256" height="32"/>
			</g>
			<g id="XMLID_249_">
				<path id="XMLID_251_" class="st0" d="M384,336H128c-4.4,0-8-3.6-8-8v-32c0-4.4,3.6-8,8-8h256c4.4,0,8,3.6,8,8v32
					C392,332.4,388.4,336,384,336z"/>
				<rect id="XMLID_250_" x="128" y="296" class="st1" width="256" height="32"/>
			</g>
		</g>
		<g id="XMLID_237_">
			<path id="XMLID_252_" class="st19" d="M320,408H208c-13.3,0-24-10.7-24-24v0c0-13.3,10.7-24,24-24h112c13.3,0,24,10.7,24,24v0
				C344,397.3,333.3,408,320,408z"/>
			<g id="XMLID_257_">
				<path id="XMLID_253_" class="st30" d="M232,392L232,392c-4.4,0-8-3.6-8-8l0,0c0-4.4,3.6-8,8-8h0c4.4,0,8,3.6,8,8l0,0
					C240,388.4,236.4,392,232,392z"/>
				<path id="XMLID_254_" class="st30" d="M264,392L264,392c-4.4,0-8-3.6-8-8l0,0c0-4.4,3.6-8,8-8l0,0c4.4,0,8,3.6,8,8l0,0
					C272,388.4,268.4,392,264,392z"/>
				<path id="XMLID_255_" class="st30" d="M296,392L296,392c-4.4,0-8-3.6-8-8l0,0c0-4.4,3.6-8,8-8l0,0c4.4,0,8,3.6,8,8l0,0
					C304,388.4,300.4,392,296,392z"/>
			</g>
		</g>
	</g>
</g>
<g id="Ad_Block" class="st3">
	<path id="XMLID_389_" class="st21" d="M320,440H192c-8.8,0-16-7.2-16-16V112c0-8.8,7.2-16,16-16h128c8.8,0,16,7.2,16,16v312
		C336,432.8,328.8,440,320,440z"/>
	<g id="XMLID_375_" class="st4">
		<g id="XMLID_366_">
			<path id="XMLID_331_" class="st33" d="M144,240H64c-4.4,0-8-3.6-8-8v-80c0-4.4,3.6-8,8-8h80c4.4,0,8,3.6,8,8v80
				C152,236.4,148.4,240,144,240z"/>
			<rect id="XMLID_332_" x="64" y="152" class="st11" width="80" height="80"/>
			<path id="XMLID_365_" class="st28" d="M107.5,170l4.9,10.4c0.5,1.1,1.4,1.8,2.5,1.9l10.9,1.7c2.8,0.4,3.9,4,1.9,6.1l-7.9,8.1
				c-0.8,0.8-1.2,2-1,3.2l1.9,11.4c0.5,2.9-2.4,5.1-4.9,3.8l-9.7-5.4c-1-0.5-2.2-0.5-3.1,0l-9.7,5.4c-2.5,1.4-5.4-0.8-4.9-3.8
				l1.9-11.4c0.2-1.2-0.2-2.3-1-3.2l-7.9-8.1c-2-2.1-0.9-5.7,1.9-6.1l10.9-1.7c1.1-0.2,2-0.9,2.5-1.9l4.9-10.4
				C102.7,167.4,106.3,167.4,107.5,170z"/>
		</g>
		<g id="XMLID_367_">
			<path id="XMLID_370_" class="st33" d="M296,224h-80c-4.4,0-8-3.6-8-8v-80c0-4.4,3.6-8,8-8h80c4.4,0,8,3.6,8,8v80
				C304,220.4,300.4,224,296,224z"/>
			<rect id="XMLID_369_" x="216" y="136" class="st11" width="80" height="80"/>
			<path id="XMLID_368_" class="st28" d="M259.5,154l4.9,10.4c0.5,1.1,1.4,1.8,2.5,1.9l10.9,1.7c2.8,0.4,3.9,4,1.9,6.1l-7.9,8.1
				c-0.8,0.8-1.2,2-1,3.2l1.9,11.4c0.5,2.9-2.4,5.1-4.9,3.8l-9.7-5.4c-1-0.5-2.2-0.5-3.1,0l-9.7,5.4c-2.5,1.4-5.4-0.8-4.9-3.8
				l1.9-11.4c0.2-1.2-0.2-2.3-1-3.2l-7.9-8.1c-2-2.1-0.9-5.7,1.9-6.1l10.9-1.7c1.1-0.2,2-0.9,2.5-1.9l4.9-10.4
				C254.7,151.4,258.3,151.4,259.5,154z"/>
		</g>
		<g id="XMLID_371_">
			<path id="XMLID_374_" class="st33" d="M448,240h-80c-4.4,0-8-3.6-8-8v-80c0-4.4,3.6-8,8-8h80c4.4,0,8,3.6,8,8v80
				C456,236.4,452.4,240,448,240z"/>
			<rect id="XMLID_373_" x="368" y="152" class="st11" width="80" height="80"/>
			<path id="XMLID_372_" class="st28" d="M411.5,170l4.9,10.4c0.5,1.1,1.4,1.8,2.5,1.9l10.9,1.7c2.8,0.4,3.9,4,1.9,6.1l-7.9,8.1
				c-0.8,0.8-1.2,2-1,3.2l1.9,11.4c0.5,2.9-2.4,5.1-4.9,3.8l-9.7-5.4c-1-0.5-2.2-0.5-3.1,0l-9.7,5.4c-2.5,1.4-5.4-0.8-4.9-3.8
				l1.9-11.4c0.2-1.2-0.2-2.3-1-3.2l-7.9-8.1c-2-2.1-0.9-5.7,1.9-6.1l10.9-1.7c1.1-0.2,2-0.9,2.5-1.9l4.9-10.4
				C406.7,167.4,410.3,167.4,411.5,170z"/>
		</g>
	</g>
	<g id="XMLID_388_" class="st4">
		<g id="XMLID_379_">
			<path id="XMLID_376_" class="st0" d="M144,280H64c-4.4,0-8-3.6-8-8l0,0c0-4.4,3.6-8,8-8h80c4.4,0,8,3.6,8,8l0,0
				C152,276.4,148.4,280,144,280z"/>
			<path id="XMLID_377_" class="st0" d="M128,312H80c-4.4,0-8-3.6-8-8l0,0c0-4.4,3.6-8,8-8h48c4.4,0,8,3.6,8,8l0,0
				C136,308.4,132.4,312,128,312z"/>
			<path id="XMLID_378_" class="st0" d="M136,344H72c-4.4,0-8-3.6-8-8l0,0c0-4.4,3.6-8,8-8h64c4.4,0,8,3.6,8,8l0,0
				C144,340.4,140.4,344,136,344z"/>
		</g>
		<g id="XMLID_380_">
			<path id="XMLID_383_" class="st0" d="M448,280h-80c-4.4,0-8-3.6-8-8l0,0c0-4.4,3.6-8,8-8h80c4.4,0,8,3.6,8,8l0,0
				C456,276.4,452.4,280,448,280z"/>
			<path id="XMLID_382_" class="st0" d="M432,312h-48c-4.4,0-8-3.6-8-8l0,0c0-4.4,3.6-8,8-8h48c4.4,0,8,3.6,8,8l0,0
				C440,308.4,436.4,312,432,312z"/>
			<path id="XMLID_381_" class="st0" d="M440,344h-64c-4.4,0-8-3.6-8-8l0,0c0-4.4,3.6-8,8-8h64c4.4,0,8,3.6,8,8l0,0
				C448,340.4,444.4,344,440,344z"/>
		</g>
		<g id="XMLID_384_">
			<path id="XMLID_387_" class="st2" d="M296,280h-80c-4.4,0-8-3.6-8-8l0,0c0-4.4,3.6-8,8-8h80c4.4,0,8,3.6,8,8l0,0
				C304,276.4,300.4,280,296,280z"/>
			<path id="XMLID_386_" class="st2" d="M280,312h-48c-4.4,0-8-3.6-8-8l0,0c0-4.4,3.6-8,8-8h48c4.4,0,8,3.6,8,8l0,0
				C288,308.4,284.4,312,280,312z"/>
			<path id="XMLID_385_" class="st2" d="M288,344h-64c-4.4,0-8-3.6-8-8l0,0c0-4.4,3.6-8,8-8h64c4.4,0,8,3.6,8,8l0,0
				C296,340.4,292.4,344,288,344z"/>
		</g>
	</g>
</g>
<g id="Booking" class="st3">
	<path id="XMLID_441_" class="st20" d="M426,192H86c-3.3,0-6,2.7-6,6v228c0,3.3,2.7,6,6,6h340c3.3,0,6-2.7,6-6V198
		C432,194.7,429.3,192,426,192z M136,416H96v-40h40V416z M136,360H96v-40h40V360z M136,304H96v-40h40V304z M136,248H96v-40h40V248z
		 M192,416h-40v-40h40V416z M192,360h-40v-40h40V360z M192,304h-40v-40h40V304z M192,248h-40v-40h40V248z M248,416h-40v-40h40V416z
		 M248,360h-40v-40h40V360z M248,304h-40v-40h40V304z M248,248h-40v-40h40V248z M304,416h-40v-40h40V416z M304,360h-40v-40h40V360z
		 M304,304h-40v-40h40V304z M304,248h-40v-40h40V248z M360,416h-40v-40h40V416z M360,360h-40v-40h40V360z M360,304h-40v-40h40V304z
		 M360,248h-40v-40h40V248z M416,416h-40v-40h40V416z M416,360h-40v-40h40V360z M416,304h-40v-40h40V304z M416,248h-40v-40h40V248z"
		/>
	<g id="XMLID_417_" class="st4">
		<path id="XMLID_390_" class="st19" d="M116,240L116,240c-6.6,0-12-5.4-12-12v0c0-6.6,5.4-12,12-12h0c6.6,0,12,5.4,12,12v0
			C128,234.6,122.6,240,116,240z"/>
		<path id="XMLID_403_" class="st31" d="M340,240L340,240c-6.6,0-12-5.4-12-12v0c0-6.6,5.4-12,12-12l0,0c6.6,0,12,5.4,12,12v0
			C352,234.6,346.6,240,340,240z"/>
		<path id="XMLID_410_" class="st31" d="M228,296L228,296c-6.6,0-12-5.4-12-12l0,0c0-6.6,5.4-12,12-12h0c6.6,0,12,5.4,12,12l0,0
			C240,290.6,234.6,296,228,296z"/>
		<path id="XMLID_411_" class="st34" d="M284,352L284,352c-6.6,0-12-5.4-12-12l0,0c0-6.6,5.4-12,12-12l0,0c6.6,0,12,5.4,12,12l0,0
			C296,346.6,290.6,352,284,352z"/>
		<path id="XMLID_412_" class="st19" d="M228,408L228,408c-6.6,0-12-5.4-12-12l0,0c0-6.6,5.4-12,12-12h0c6.6,0,12,5.4,12,12l0,0
			C240,402.6,234.6,408,228,408z"/>
	</g>
	<g id="XMLID_415_" class="st4">
		<path id="XMLID_413_" class="st10" d="M320,152H192c-4.4,0-8-3.6-8-8v0c0-4.4,3.6-8,8-8h128c4.4,0,8,3.6,8,8v0
			C328,148.4,324.4,152,320,152z"/>
		<path id="XMLID_414_" class="st10" d="M360,120H152c-4.4,0-8-3.6-8-8v0c0-4.4,3.6-8,8-8h208c4.4,0,8,3.6,8,8v0
			C368,116.4,364.4,120,360,120z"/>
	</g>
</g>
<g id="Gmaps" class="st3">
	<g id="XMLID_424_" class="st4">
		<path id="XMLID_418_" class="st19" d="M120,168H64c-4.4,0-8-3.6-8-8v-56c0-4.4,3.6-8,8-8h56c4.4,0,8,3.6,8,8v56
			C128,164.4,124.4,168,120,168z"/>
		<path id="XMLID_419_" class="st19" d="M264,168H152c-4.4,0-8-3.6-8-8v-56c0-4.4,3.6-8,8-8h112c4.4,0,8,3.6,8,8v56
			C272,164.4,268.4,168,264,168z"/>
		<path id="XMLID_420_" class="st11" d="M152,256H64c-4.4,0-8-3.6-8-8v-56c0-4.4,3.6-8,8-8h88c4.4,0,8,3.6,8,8v56
			C160,252.4,156.4,256,152,256z"/>
		<path id="XMLID_421_" class="st27" d="M336,256H184c-4.4,0-8-3.6-8-8v-56c0-4.4,3.6-8,8-8h152c4.4,0,8,3.6,8,8v56
			C344,252.4,340.4,256,336,256z"/>
		<path id="XMLID_422_" class="st27" d="M448,168H296c-4.4,0-8-3.6-8-8v-56c0-4.4,3.6-8,8-8h152c4.4,0,8,3.6,8,8v56
			C456,164.4,452.4,168,448,168z"/>
		<path id="XMLID_423_" class="st19" d="M448,256h-80c-4.4,0-8-3.6-8-8v-56c0-4.4,3.6-8,8-8h80c4.4,0,8,3.6,8,8v56
			C456,252.4,452.4,256,448,256z"/>
	</g>
	<g id="XMLID_258_" class="st4">
		<g id="XMLID_436_">
			<g id="XMLID_428_">
				<path id="XMLID_425_" class="st0" d="M288,352H64c-4.4,0-8-3.6-8-8l0,0c0-4.4,3.6-8,8-8h224c4.4,0,8,3.6,8,8l0,0
					C296,348.4,292.4,352,288,352z"/>
				<path id="XMLID_426_" class="st0" d="M248,384H64c-4.4,0-8-3.6-8-8l0,0c0-4.4,3.6-8,8-8h184c4.4,0,8,3.6,8,8l0,0
					C256,380.4,252.4,384,248,384z"/>
				<path id="XMLID_427_" class="st0" d="M256,416H64c-4.4,0-8-3.6-8-8l0,0c0-4.4,3.6-8,8-8h192c4.4,0,8,3.6,8,8l0,0
					C264,412.4,260.4,416,256,416z"/>
			</g>
			<path id="XMLID_433_" class="st10" d="M144,312H64c-4.4,0-8-3.6-8-8l0,0c0-4.4,3.6-8,8-8h80c4.4,0,8,3.6,8,8l0,0
				C152,308.4,148.4,312,144,312z"/>
		</g>
		<g id="XMLID_435_">
			<g id="XMLID_432_">
				<path id="XMLID_429_" class="st0" d="M424,416h-72c-4.4,0-8-3.6-8-8l0,0c0-4.4,3.6-8,8-8h72c4.4,0,8,3.6,8,8l0,0
					C432,412.4,428.4,416,424,416z"/>
				<path id="XMLID_430_" class="st0" d="M448,352h-96c-4.4,0-8-3.6-8-8l0,0c0-4.4,3.6-8,8-8h96c4.4,0,8,3.6,8,8l0,0
					C456,348.4,452.4,352,448,352z"/>
				<path id="XMLID_431_" class="st0" d="M408,384h-56c-4.4,0-8-3.6-8-8l0,0c0-4.4,3.6-8,8-8h56c4.4,0,8,3.6,8,8l0,0
					C416,380.4,412.4,384,408,384z"/>
			</g>
			<path id="XMLID_434_" class="st10" d="M416,312h-64c-4.4,0-8-3.6-8-8l0,0c0-4.4,3.6-8,8-8h64c4.4,0,8,3.6,8,8l0,0
				C424,308.4,420.4,312,416,312z"/>
		</g>
	</g>
	<rect id="XMLID_238_" x="398" y="151" class="st26" width="20" height="18"/>
	<path id="XMLID_468_" class="st23" d="M408,128L408,128c-17.7,0-32,14.3-32,32v0c0,17.4,16.6,52.1,29.4,63.5
		c0.4,0.3,0.8,0.5,1.3,0.5h2.5c0.5,0,1-0.2,1.3-0.5c12.9-11.4,29.4-46.1,29.4-63.5v0C440,142.3,425.7,128,408,128z M408,168
		c-4.4,0-8-3.6-8-8s3.6-8,8-8s8,3.6,8,8S412.4,168,408,168z"/>
</g>
<g id="Carousel" class="st3">
	<g id="XMLID_484_" class="st4">
		<path id="XMLID_480_" class="st0" d="M136,304L136,304c-22.1,0-40-17.9-40-40v0c0-22.1,17.9-40,40-40h0c22.1,0,40,17.9,40,40v0
			C176,286.1,158.1,304,136,304z"/>
		<path id="XMLID_481_" class="st0" d="M256,304L256,304c-22.1,0-40-17.9-40-40v0c0-22.1,17.9-40,40-40h0c22.1,0,40,17.9,40,40v0
			C296,286.1,278.1,304,256,304z"/>
		<path id="XMLID_482_" class="st0" d="M376,304L376,304c-22.1,0-40-17.9-40-40v0c0-22.1,17.9-40,40-40h0c22.1,0,40,17.9,40,40v0
			C416,286.1,398.1,304,376,304z"/>
		<path id="XMLID_488_" class="st0" d="M207,256h-22c-5.5,0-14-5.5-14-11v38c0-5.5,8.5-11,14-11h22c5.5,0,14,5.5,14,11v-38
			C221,250.5,212.5,256,207,256z"/>
		<path id="XMLID_483_" class="st0" d="M327,256h-22c-5.5,0-14-5.5-14-11v38c0-5.5,8.5-11,14-11h22c5.5,0,14,5.5,14,11v-38
			C341,250.5,332.5,256,327,256z"/>
	</g>
	<g id="XMLID_487_" class="st4">
		<g id="XMLID_489_">
			<path id="XMLID_490_" class="st10" d="M136,250L136,250l-8.9,4.1l-1.8-8.3l12.4-5.8h9.3v48h-11V250z"/>
		</g>
		<g id="XMLID_485_">
			<path id="XMLID_492_" class="st10" d="M239,288v-7.1l6.2-5.5c10.2-9.1,15.3-14.4,15.4-19.9c0-3.8-2.3-6.8-7.7-6.8
				c-4,0-7.5,2-10,3.9l-3.1-7.8c3.5-2.7,9-4.8,15.3-4.8c10.6,0,16.4,6.2,16.4,14.7c0,7.8-5.7,14.1-12.4,20.2l-4.3,3.6v0.6h18v9H239z
				"/>
		</g>
		<g id="XMLID_486_">
			<path id="XMLID_494_" class="st10" d="M363.2,276.4c1.9,1,6.4,2.9,10.9,2.9c5.7,0,8.6-2.9,8.6-6.4c0-4.6-4.6-6.9-9.4-6.9H369v-8
				h4c3.7,0,8.4-1.2,8.4-5.1c0-2.8-2.3-4.8-6.9-4.8c-3.8,0-7.8,1.7-9.8,2.9l-2.2-7.9c2.8-1.8,8.4-3.5,14.5-3.5
				c10,0,15.6,5.3,15.6,11.7c0,5-2.5,8.9-8.5,10.9v0.1c6,1,10.1,5.3,10.1,11.4c0,8.3-7.3,14.3-19.2,14.3c-6,0-11.2-1.6-13.9-3.3
				L363.2,276.4z"/>
		</g>
	</g>
	<g id="XMLID_498_" class="st4">
		<path id="XMLID_496_" class="st0" d="M320,176H192c-4.4,0-8-3.6-8-8v0c0-4.4,3.6-8,8-8h128c4.4,0,8,3.6,8,8v0
			C328,172.4,324.4,176,320,176z"/>
		<path id="XMLID_497_" class="st0" d="M360,144H152c-4.4,0-8-3.6-8-8v0c0-4.4,3.6-8,8-8h208c4.4,0,8,3.6,8,8v0
			C368,140.4,364.4,144,360,144z"/>
	</g>
	<g id="XMLID_499_" class="st4">
		<path id="XMLID_504_" class="st19" d="M312,400H200c-13.3,0-24-10.7-24-24v0c0-13.3,10.7-24,24-24h112c13.3,0,24,10.7,24,24v0
			C336,389.3,325.3,400,312,400z"/>
		<g id="XMLID_500_">
			<path id="XMLID_503_" class="st30" d="M224,384L224,384c-4.4,0-8-3.6-8-8l0,0c0-4.4,3.6-8,8-8h0c4.4,0,8,3.6,8,8l0,0
				C232,380.4,228.4,384,224,384z"/>
			<path id="XMLID_502_" class="st30" d="M256,384L256,384c-4.4,0-8-3.6-8-8l0,0c0-4.4,3.6-8,8-8h0c4.4,0,8,3.6,8,8l0,0
				C264,380.4,260.4,384,256,384z"/>
			<path id="XMLID_501_" class="st30" d="M288,384L288,384c-4.4,0-8-3.6-8-8l0,0c0-4.4,3.6-8,8-8l0,0c4.4,0,8,3.6,8,8l0,0
				C296,380.4,292.4,384,288,384z"/>
		</g>
	</g>
</g>
<g id="Latest_Blog">
	<g id="XMLID_520_">
		<g id="XMLID_519_">
			<path id="XMLID_600_" class="st0" d="M432,152H80c-4.4,0-8-3.6-8-8v0c0-4.4,3.6-8,8-8h352c4.4,0,8,3.6,8,8v0
				C440,148.4,436.4,152,432,152z M352,176L352,176c0-4.4-3.6-8-8-8H80c-4.4,0-8,3.6-8,8v0c0,4.4,3.6,8,8,8h264
				C348.4,184,352,180.4,352,176z M392,208L392,208c0-4.4-3.6-8-8-8H80c-4.4,0-8,3.6-8,8v0c0,4.4,3.6,8,8,8h304
				C388.4,216,392,212.4,392,208z"/>
			<path id="XMLID_605_" class="st10" d="M152,120H80c-4.4,0-8-3.6-8-8v0c0-4.4,3.6-8,8-8h72c4.4,0,8,3.6,8,8v0
				C160,116.4,156.4,120,152,120z"/>
		</g>
		<g id="XMLID_518_">
			<path id="XMLID_604_" class="st10" d="M152,256H80c-4.4,0-8-3.6-8-8v0c0-4.4,3.6-8,8-8h72c4.4,0,8,3.6,8,8v0
				C160,252.4,156.4,256,152,256z"/>
			<path id="XMLID_513_" class="st0" d="M432,288H80c-4.4,0-8-3.6-8-8l0,0c0-4.4,3.6-8,8-8h352c4.4,0,8,3.6,8,8l0,0
				C440,284.4,436.4,288,432,288z M352,312L352,312c0-4.4-3.6-8-8-8H80c-4.4,0-8,3.6-8,8l0,0c0,4.4,3.6,8,8,8h264
				C348.4,320,352,316.4,352,312z"/>
		</g>
		<g id="XMLID_517_">
			<path id="XMLID_601_" class="st10" d="M152,360H80c-4.4,0-8-3.6-8-8l0,0c0-4.4,3.6-8,8-8h72c4.4,0,8,3.6,8,8l0,0
				C160,356.4,156.4,360,152,360z"/>
			<path id="XMLID_514_" class="st0" d="M432,392H80c-4.4,0-8-3.6-8-8l0,0c0-4.4,3.6-8,8-8h352c4.4,0,8,3.6,8,8l0,0
				C440,388.4,436.4,392,432,392z M352,416L352,416c0-4.4-3.6-8-8-8H80c-4.4,0-8,3.6-8,8l0,0c0,4.4,3.6,8,8,8h264
				C348.4,424,352,420.4,352,416z"/>
		</g>
	</g>
</g>
<g id="Categories" class="st3">
	<g id="XMLID_535_" class="st4">
		<path id="XMLID_526_" class="st11" d="M288,184h-64c-4.4,0-8,3.6-8,8v64c0,4.4,3.6,8,8,8h64c4.4,0,8-3.6,8-8v-64
			C296,187.6,292.4,184,288,184z M272,224c0,8.8-7.2,16-16,16s-16-7.2-16-16v0c0-8.8,7.2-16,16-16S272,215.2,272,224L272,224z"/>
		<path id="XMLID_521_" class="st11" d="M168,344h-64c-4.4,0-8,3.6-8,8v64c0,4.4,3.6,8,8,8h64c4.4,0,8-3.6,8-8v-64
			C176,347.6,172.4,344,168,344z M152,384c0,8.8-7.2,16-16,16s-16-7.2-16-16v0c0-8.8,7.2-16,16-16S152,375.2,152,384L152,384z"/>
		<path id="XMLID_527_" class="st11" d="M288,344h-64c-4.4,0-8,3.6-8,8v64c0,4.4,3.6,8,8,8h64c4.4,0,8-3.6,8-8v-64
			C296,347.6,292.4,344,288,344z M272,384c0,8.8-7.2,16-16,16s-16-7.2-16-16v0c0-8.8,7.2-16,16-16S272,375.2,272,384L272,384z"/>
		<path id="XMLID_530_" class="st11" d="M408,344h-64c-4.4,0-8,3.6-8,8v64c0,4.4,3.6,8,8,8h64c4.4,0,8-3.6,8-8v-64
			C416,347.6,412.4,344,408,344z M392,384c0,8.8-7.2,16-16,16s-16-7.2-16-16v0c0-8.8,7.2-16,16-16S392,375.2,392,384L392,384z"/>
	</g>
	<path id="XMLID_539_" class="st35" d="M378,296H264v-32h-16v32H134c-3.3,0-6,2.7-6,6v10v32h16v-32h104v32h16v-32h104v32h16v-32v-10
		C384,298.7,381.3,296,378,296z"/>
	<g id="XMLID_538_" class="st4">
		<path id="XMLID_533_" class="st0" d="M360,120H152c-4.4,0-8-3.6-8-8v0c0-4.4,3.6-8,8-8h208c4.4,0,8,3.6,8,8v0
			C368,116.4,364.4,120,360,120z"/>
		<path id="XMLID_534_" class="st0" d="M320,152H192c-4.4,0-8-3.6-8-8v0c0-4.4,3.6-8,8-8h128c4.4,0,8,3.6,8,8v0
			C328,148.4,324.4,152,320,152z"/>
	</g>
</g>
<g id="Search" class="st3">
	<g id="XMLID_548_" class="st4">
		<path id="XMLID_543_" class="st34" d="M415,240H95c-13.3,0-24,10.7-24,24v0c0,13.3,10.7,24,24,24h320c13.3,0,24-10.7,24-24v0
			C439,250.7,428.3,240,415,240z M432,264c0,8.8-7.2,16-16,16H199v-32h217C424.8,248,432,255.2,432,264L432,264z"/>
		<g id="XMLID_547_">
			<path id="XMLID_536_" class="st0" d="M376,392H79c-4.4,0-8-3.6-8-8l0,0c0-4.4,3.6-8,8-8h297c4.4,0,8,3.6,8,8l0,0
				C384,388.4,380.4,392,376,392z"/>
			<path id="XMLID_537_" class="st0" d="M208,424H79c-4.4,0-8-3.6-8-8l0,0c0-4.4,3.6-8,8-8h129c4.4,0,8,3.6,8,8l0,0
				C216,420.4,212.4,424,208,424z"/>
			<path id="XMLID_540_" class="st0" d="M264,424h-24c-4.4,0-8-3.6-8-8l0,0c0-4.4,3.6-8,8-8h24c4.4,0,8,3.6,8,8l0,0
				C272,420.4,268.4,424,264,424z"/>
		</g>
		<g id="XMLID_546_">
			<path id="XMLID_544_" class="st10" d="M360,128H152c-4.4,0-8-3.6-8-8v0c0-4.4,3.6-8,8-8h208c4.4,0,8,3.6,8,8v0
				C368,124.4,364.4,128,360,128z"/>
			<path id="XMLID_545_" class="st10" d="M320,160H192c-4.4,0-8-3.6-8-8v0c0-4.4,3.6-8,8-8h128c4.4,0,8,3.6,8,8v0
				C328,156.4,324.4,160,320,160z"/>
		</g>
	</g>
</g>
<g id="Cart" class="st3">
	<g id="XMLID_579_" class="st4">
		<g id="XMLID_578_">
			<path id="XMLID_549_" class="st36" d="M232,272H56c-4.4,0-8-3.6-8-8V120c0-4.4,3.6-8,8-8h176c4.4,0,8,3.6,8,8v144
				C240,268.4,236.4,272,232,272z"/>
			<g id="XMLID_550_">
				<path id="XMLID_555_" class="st28" d="M184,152h-16c-4.4,0-8,3.6-8,8v8h-40c-4.4,0-8,3.6-8,8v24c0,4.4,3.6,8,8,8h48
					c4.4,0,8-3.6,8-8v-32h8c4.4,0,8-3.6,8-8v0C192,155.6,188.4,152,184,152z"/>
				<path id="XMLID_552_" class="st28" d="M129,232h-1c-4.4,0-8-3.6-8-8v0c0-4.4,3.6-8,8-8h1c4.4,0,8,3.6,8,8v0
					C137,228.4,133.4,232,129,232z"/>
				<path id="XMLID_553_" class="st28" d="M160,232h-1c-4.4,0-8-3.6-8-8v0c0-4.4,3.6-8,8-8h1c4.4,0,8,3.6,8,8v0
					C168,228.4,164.4,232,160,232z"/>
			</g>
		</g>
		<g id="XMLID_577_">
			<g id="XMLID_556_">
				<path id="XMLID_551_" class="st36" d="M88,336H56c-4.4,0-8-3.6-8-8v-32c0-4.4,3.6-8,8-8h32c4.4,0,8,3.6,8,8v32
					C96,332.4,92.4,336,88,336z"/>
				<path id="XMLID_554_" class="st28" d="M72,320h-1c-4.4,0-8-3.6-8-8l0,0c0-4.4,3.6-8,8-8h1c4.4,0,8,3.6,8,8l0,0
					C80,316.4,76.4,320,72,320z"/>
			</g>
			<g id="XMLID_557_">
				<path id="XMLID_559_" class="st36" d="M160,336h-32c-4.4,0-8-3.6-8-8v-32c0-4.4,3.6-8,8-8h32c4.4,0,8,3.6,8,8v32
					C168,332.4,164.4,336,160,336z"/>
				<path id="XMLID_558_" class="st28" d="M144,320h-1c-4.4,0-8-3.6-8-8l0,0c0-4.4,3.6-8,8-8h1c4.4,0,8,3.6,8,8l0,0
					C152,316.4,148.4,320,144,320z"/>
			</g>
			<g id="XMLID_560_">
				<path id="XMLID_562_" class="st36" d="M232,336h-32c-4.4,0-8-3.6-8-8v-32c0-4.4,3.6-8,8-8h32c4.4,0,8,3.6,8,8v32
					C240,332.4,236.4,336,232,336z"/>
				<path id="XMLID_561_" class="st28" d="M216,320h-1c-4.4,0-8-3.6-8-8l0,0c0-4.4,3.6-8,8-8h1c4.4,0,8,3.6,8,8l0,0
					C224,316.4,220.4,320,216,320z"/>
			</g>
		</g>
	</g>
	<g id="XMLID_580_" class="st4">
		<g id="XMLID_576_">
			<path id="XMLID_563_" class="st10" d="M408,128H288c-4.4,0-8-3.6-8-8v0c0-4.4,3.6-8,8-8h120c4.4,0,8,3.6,8,8v0
				C416,124.4,412.4,128,408,128z"/>
			<path id="XMLID_564_" class="st0" d="M408,176H288c-4.4,0-8-3.6-8-8v0c0-4.4,3.6-8,8-8h120c4.4,0,8,3.6,8,8v0
				C416,172.4,412.4,176,408,176z"/>
			<path id="XMLID_565_" class="st0" d="M408,240H288c-4.4,0-8-3.6-8-8v0c0-4.4,3.6-8,8-8h120c4.4,0,8,3.6,8,8v0
				C416,236.4,412.4,240,408,240z"/>
			<path id="XMLID_566_" class="st0" d="M464,208H288c-4.4,0-8-3.6-8-8v0c0-4.4,3.6-8,8-8h176c4.4,0,8,3.6,8,8v0
				C472,204.4,468.4,208,464,208z"/>
			<path id="XMLID_567_" class="st0" d="M440,272H288c-4.4,0-8-3.6-8-8l0,0c0-4.4,3.6-8,8-8h152c4.4,0,8,3.6,8,8l0,0
				C448,268.4,444.4,272,440,272z"/>
			<path id="XMLID_568_" class="st0" d="M432,304H288c-4.4,0-8-3.6-8-8l0,0c0-4.4,3.6-8,8-8h144c4.4,0,8,3.6,8,8l0,0
				C440,300.4,436.4,304,432,304z"/>
			<path id="XMLID_569_" class="st0" d="M368,336h-80c-4.4,0-8-3.6-8-8l0,0c0-4.4,3.6-8,8-8h80c4.4,0,8,3.6,8,8l0,0
				C376,332.4,372.4,336,368,336z"/>
		</g>
		<g id="XMLID_570_">
			<path id="XMLID_575_" class="st19" d="M416,424H304c-13.3,0-24-10.7-24-24v0c0-13.3,10.7-24,24-24h112c13.3,0,24,10.7,24,24v0
				C440,413.3,429.3,424,416,424z"/>
			<g id="XMLID_571_">
				<path id="XMLID_574_" class="st30" d="M328,408L328,408c-4.4,0-8-3.6-8-8l0,0c0-4.4,3.6-8,8-8l0,0c4.4,0,8,3.6,8,8l0,0
					C336,404.4,332.4,408,328,408z"/>
				<path id="XMLID_573_" class="st30" d="M360,408L360,408c-4.4,0-8-3.6-8-8l0,0c0-4.4,3.6-8,8-8l0,0c4.4,0,8,3.6,8,8l0,0
					C368,404.4,364.4,408,360,408z"/>
				<path id="XMLID_572_" class="st30" d="M392,408L392,408c-4.4,0-8-3.6-8-8l0,0c0-4.4,3.6-8,8-8l0,0c4.4,0,8,3.6,8,8l0,0
					C400,404.4,396.4,408,392,408z"/>
			</g>
		</g>
	</g>
</g>
<g id="blogcombo" class="st3">
	<g id="XMLID_259_" class="st4">
		<path id="XMLID_603_" class="st2" d="M352,416H200c-4.4,0-8-3.6-8-8l0,0c0-4.4,3.6-8,8-8h152c4.4,0,8,3.6,8,8l0,0
			C360,412.4,356.4,416,352,416z"/>
		<g id="XMLID_437_">
			<g id="XMLID_598_">
				<circle id="XMLID_602_" class="st18" cx="104" cy="152" r="32"/>
				<path id="XMLID_599_" class="st37" d="M104,184c9.5,0,18.1-4.2,24-10.8c0.1-1.1,0-2.9-1.1-4.2c-1.6-1.1-15-9-15-9v-3.1
					c2.4-2.2,4-5.4,4-8.9c0-6.6-5.4-12-12-12s-12,5.4-12,12c0,3.5,1.6,6.7,4,8.9v3.1c0,0-13.4,7.9-15,9c-1,1.2-1.1,2.8-1.1,3.9
					C85.6,179.7,94.3,184,104,184z"/>
			</g>
			<g id="XMLID_438_">
				<g id="XMLID_588_">
					<g id="XMLID_594_">
						<path id="XMLID_597_" class="st2" d="M440,136H200c-4.4,0-8-3.6-8-8v0c0-4.4,3.6-8,8-8h240c4.4,0,8,3.6,8,8v0
							C448,132.4,444.4,136,440,136z"/>
						<path id="XMLID_596_" class="st2" d="M392,200H200c-4.4,0-8-3.6-8-8v0c0-4.4,3.6-8,8-8h192c4.4,0,8,3.6,8,8v0
							C400,196.4,396.4,200,392,200z"/>
						<path id="XMLID_595_" class="st2" d="M352,168H200c-4.4,0-8-3.6-8-8v0c0-4.4,3.6-8,8-8h152c4.4,0,8,3.6,8,8v0
							C360,164.4,356.4,168,352,168z"/>
					</g>
					<g id="XMLID_590_">
						<path id="XMLID_593_" class="st2" d="M440,264H200c-4.4,0-8-3.6-8-8v0c0-4.4,3.6-8,8-8h240c4.4,0,8,3.6,8,8v0
							C448,260.4,444.4,264,440,264z"/>
						<path id="XMLID_592_" class="st2" d="M392,328H200c-4.4,0-8-3.6-8-8l0,0c0-4.4,3.6-8,8-8h192c4.4,0,8,3.6,8,8l0,0
							C400,324.4,396.4,328,392,328z"/>
						<path id="XMLID_591_" class="st2" d="M352,296H200c-4.4,0-8-3.6-8-8l0,0c0-4.4,3.6-8,8-8h152c4.4,0,8,3.6,8,8l0,0
							C360,292.4,356.4,296,352,296z"/>
					</g>
					<path id="XMLID_589_" class="st2" d="M440,384H200c-4.4,0-8-3.6-8-8l0,0c0-4.4,3.6-8,8-8h240c4.4,0,8,3.6,8,8l0,0
						C448,380.4,444.4,384,440,384z"/>
				</g>
				<g id="XMLID_581_">
					<g id="XMLID_585_">
						<path id="XMLID_587_" class="st0" d="M136,232H80c-4.4,0-8-3.6-8-8v0c0-4.4,3.6-8,8-8h56c4.4,0,8,3.6,8,8v0
							C144,228.4,140.4,232,136,232z"/>
						<path id="XMLID_586_" class="st0" d="M120,264H80c-4.4,0-8-3.6-8-8v0c0-4.4,3.6-8,8-8h40c4.4,0,8,3.6,8,8v0
							C128,260.4,124.4,264,120,264z"/>
					</g>
					<g id="XMLID_582_">
						<path id="XMLID_584_" class="st0" d="M136,328H80c-4.4,0-8-3.6-8-8l0,0c0-4.4,3.6-8,8-8h56c4.4,0,8,3.6,8,8l0,0
							C144,324.4,140.4,328,136,328z"/>
						<path id="XMLID_583_" class="st0" d="M120,360H80c-4.4,0-8-3.6-8-8l0,0c0-4.4,3.6-8,8-8h40c4.4,0,8,3.6,8,8l0,0
							C128,356.4,124.4,360,120,360z"/>
					</g>
				</g>
			</g>
		</g>
	</g>
</g>
</svg>
