<svg version="1.1" xmlns="http://www.w3.org/2000/svg" x="0" y="0" viewBox="0 0 512 480" xml:space="preserve"><style type="text/css">
	.st0{fill:#CAD0D7;}
	.st1{fill:#E1E6E9;}
	.st2{fill:#99A5AD;}
	.st3{fill:#5A5B67;}
	.st4{fill:#FCB33B;}
	.st5{fill:#53BA5E;}
	.st6{fill:#8FCC90;}
</style><path class="st0" d="M496 0H16C7.2 0 0 7.2 0 16v448c0 8.8 7.2 16 16 16h480c8.8 0 16-7.2 16-16V16C512 7.2 504.8 0 496 0zM496 456c0 4.4-3.6 8-8 8H24c-4.4 0-8-3.6-8-8V72c0-4.4 3.6-8 8-8h464c4.4 0 8 3.6 8 8V456z"/><path class="st1" d="M490 40H118c-3.3 0-6-2.7-6-6v-4c0-3.3 2.7-6 6-6h372c3.3 0 6 2.7 6 6v4C496 37.3 493.3 40 490 40z"/><path class="st2" d="M24 40L24 40c-4.4 0-8-3.6-8-8v0c0-4.4 3.6-8 8-8h0c4.4 0 8 3.6 8 8v0C32 36.4 28.4 40 24 40zM64 32L64 32c0-4.4-3.6-8-8-8h0c-4.4 0-8 3.6-8 8v0c0 4.4 3.6 8 8 8h0C60.4 40 64 36.4 64 32zM96 32L96 32c0-4.4-3.6-8-8-8h0c-4.4 0-8 3.6-8 8v0c0 4.4 3.6 8 8 8h0C92.4 40 96 36.4 96 32z"/><path class="st3" d="M360 144H152c-4.4 0-8-3.6-8-8v0c0-4.4 3.6-8 8-8h208c4.4 0 8 3.6 8 8v0C368 140.4 364.4 144 360 144zM328 168L328 168c0-4.4-3.6-8-8-8H192c-4.4 0-8 3.6-8 8v0c0 4.4 3.6 8 8 8h128C324.4 176 328 172.4 328 168z"/><path class="st4" d="M117.3 226.7l4 8c0.7 1.4 2.1 2.4 3.6 2.6l8.9 1.3c4 0.6 5.6 5.5 2.7 8.3l-6.4 6.3c-1.1 1.1-1.7 2.7-1.4 4.3l1.5 8.8c0.7 4-3.5 7-7 5.1l-7.9-4.2c-1.4-0.7-3.1-0.7-4.5 0l-7.9 4.2c-3.6 1.9-7.7-1.1-7-5.1l1.5-8.8c0.3-1.6-0.3-3.2-1.4-4.3l-6.4-6.3c-2.9-2.8-1.3-7.7 2.7-8.3l8.9-1.3c1.6-0.2 2.9-1.2 3.6-2.6l4-8C110.4 223.1 115.6 223.1 117.3 226.7zM179.7 226.7l-4 8c-0.7 1.4-2.1 2.4-3.6 2.6l-8.9 1.3c-4 0.6-5.6 5.5-2.7 8.3l6.4 6.3c1.1 1.1 1.7 2.7 1.4 4.3l-1.5 8.8c-0.7 4 3.5 7 7 5.1l7.9-4.2c1.4-0.7 3.1-0.7 4.5 0l7.9 4.2c3.6 1.9 7.7-1.1 7-5.1l-1.5-8.8c-0.3-1.6 0.3-3.2 1.4-4.3l6.4-6.3c2.9-2.8 1.3-7.7-2.7-8.3l-8.9-1.3c-1.6-0.2-2.9-1.2-3.6-2.6l-4-8C186.6 223.1 181.4 223.1 179.7 226.7zM251.7 226.7l-4 8c-0.7 1.4-2.1 2.4-3.6 2.6l-8.9 1.3c-4 0.6-5.6 5.5-2.7 8.3l6.4 6.3c1.1 1.1 1.7 2.7 1.4 4.3l-1.5 8.8c-0.7 4 3.5 7 7 5.1l7.9-4.2c1.4-0.7 3.1-0.7 4.5 0l7.9 4.2c3.6 1.9 7.7-1.1 7-5.1l-1.5-8.8c-0.3-1.6 0.3-3.2 1.4-4.3l6.4-6.3c2.9-2.8 1.3-7.7-2.7-8.3l-8.9-1.3c-1.6-0.2-2.9-1.2-3.6-2.6l-4-8C258.6 223.1 253.4 223.1 251.7 226.7z"/><path class="st0" d="M405.4 226.7l4 8c0.7 1.4 2.1 2.4 3.6 2.6l8.9 1.3c4 0.6 5.6 5.5 2.7 8.3l-6.4 6.3c-1.1 1.1-1.7 2.7-1.4 4.3l1.5 8.8c0.7 4-3.5 7-7 5.1l-7.9-4.2c-1.4-0.7-3.1-0.7-4.5 0l-7.9 4.2c-3.6 1.9-7.7-1.1-7-5.1l1.5-8.8c0.3-1.6-0.3-3.2-1.4-4.3l-6.4-6.3c-2.9-2.8-1.3-7.7 2.7-8.3l8.9-1.3c1.6-0.2 2.9-1.2 3.6-2.6l4-8C398.4 223.1 403.6 223.1 405.4 226.7z"/><path class="st4" d="M329 224v42.7c-0.8 0-1.6 0.2-2.3 0.6l-7.9 4.2c-3.6 1.9-7.7-1.1-7-5.1l1.5-8.8c0.3-1.6-0.3-3.2-1.4-4.3l-6.4-6.3c-2.9-2.8-1.3-7.7 2.7-8.3l8.9-1.3c1.6-0.2 2.9-1.2 3.6-2.6l4-8C325.5 224.9 327.3 224 329 224z"/><path class="st0" d="M331.2 267.3c-0.7-0.4-1.5-0.6-2.2-0.6V224c1.7 0 3.4 0.9 4.3 2.7l4 8c0.7 1.4 2.1 2.4 3.6 2.6l8.9 1.3c4 0.6 5.6 5.5 2.7 8.3l-6.4 6.3c-1.1 1.1-1.7 2.7-1.4 4.3l1.5 8.8c0.7 4-3.5 7-7 5.1L331.2 267.3z"/><path class="st5" d="M312 392H200c-13.3 0-24-10.7-24-24v0c0-13.3 10.7-24 24-24h112c13.3 0 24 10.7 24 24v0C336 381.3 325.3 392 312 392z"/><path class="st6" d="M224 376L224 376c-4.4 0-8-3.6-8-8l0 0c0-4.4 3.6-8 8-8h0c4.4 0 8 3.6 8 8l0 0C232 372.4 228.4 376 224 376zM264 368L264 368c0-4.4-3.6-8-8-8h0c-4.4 0-8 3.6-8 8l0 0c0 4.4 3.6 8 8 8h0C260.4 376 264 372.4 264 368zM296 368L296 368c0-4.4-3.6-8-8-8l0 0c-4.4 0-8 3.6-8 8l0 0c0 4.4 3.6 8 8 8l0 0C292.4 376 296 372.4 296 368z"/></svg>