<?xml version="1.0" encoding="utf-8"?>
<!-- Generator: Adobe Illustrator 19.0.0, SVG Export Plug-In . SVG Version: 6.00 Build 0)  -->
<svg version="1.1" id="Layer_1" xmlns="http://www.w3.org/2000/svg" xmlns:xlink="http://www.w3.org/1999/xlink" x="0px" y="0px"
	 viewBox="0 0 512 480" style="enable-background:new 0 0 512 480;" xml:space="preserve">
<style type="text/css">
	.st0{fill:#CAD0D7;}
	.st1{fill:#E1E6E9;}
	.st2{fill:#99A5AD;}
	.st3{fill:#59A7D8;}
	.st4{fill:#53BA5E;}
	.st5{fill:#297D3E;}
</style>
<path id="XMLID_9_" class="st0" d="M496,0H16C7.2,0,0,7.2,0,16v448c0,8.8,7.2,16,16,16h480c8.8,0,16-7.2,16-16V16
	C512,7.2,504.8,0,496,0z M496,456c0,4.4-3.6,8-8,8H24c-4.4,0-8-3.6-8-8V72c0-4.4,3.6-8,8-8h464c4.4,0,8,3.6,8,8V456z"/>
<path id="XMLID_4_" class="st1" d="M490,40H118c-3.3,0-6-2.7-6-6v-4c0-3.3,2.7-6,6-6h372c3.3,0,6,2.7,6,6v4
	C496,37.3,493.3,40,490,40z"/>
<g id="XMLID_11_">
	<path id="XMLID_5_" class="st2" d="M24,40L24,40c-4.4,0-8-3.6-8-8v0c0-4.4,3.6-8,8-8h0c4.4,0,8,3.6,8,8v0C32,36.4,28.4,40,24,40z"
		/>
	<path id="XMLID_6_" class="st2" d="M56,40L56,40c-4.4,0-8-3.6-8-8v0c0-4.4,3.6-8,8-8h0c4.4,0,8,3.6,8,8v0C64,36.4,60.4,40,56,40z"
		/>
	<path id="XMLID_10_" class="st2" d="M88,40L88,40c-4.4,0-8-3.6-8-8v0c0-4.4,3.6-8,8-8h0c4.4,0,8,3.6,8,8v0C96,36.4,92.4,40,88,40z"
		/>
</g>
<g id="XMLID_600_">
	<path id="XMLID_605_" class="st0" d="M344,128H136c-4.4,0-8-3.6-8-8v0c0-4.4,3.6-8,8-8h208c4.4,0,8,3.6,8,8v0
		C352,124.4,348.4,128,344,128z"/>
	<path id="XMLID_606_" class="st0" d="M256,152L256,152c0-4.4-3.6-8-8-8H136c-4.4,0-8,3.6-8,8v0c0,4.4,3.6,8,8,8h112
		C252.4,160,256,156.4,256,152z"/>
	<path id="XMLID_607_" class="st0" d="M352,192L352,192c0-4.4-3.6-8-8-8H136c-4.4,0-8,3.6-8,8v0c0,4.4,3.6,8,8,8h208
		C348.4,200,352,196.4,352,192z"/>
	<path id="XMLID_608_" class="st0" d="M256,224L256,224c0-4.4-3.6-8-8-8H136c-4.4,0-8,3.6-8,8v0c0,4.4,3.6,8,8,8h112
		C252.4,232,256,228.4,256,224z"/>
	<path id="XMLID_609_" class="st0" d="M256,296L256,296c0-4.4-3.6-8-8-8H136c-4.4,0-8,3.6-8,8l0,0c0,4.4,3.6,8,8,8h112
		C252.4,304,256,300.4,256,296z"/>
	<path id="XMLID_611_" class="st0" d="M352,264L352,264c0-4.4-3.6-8-8-8H136c-4.4,0-8,3.6-8,8l0,0c0,4.4,3.6,8,8,8h208
		C348.4,272,352,268.4,352,264z"/>
</g>
<g id="XMLID_601_">
	<path id="XMLID_615_" class="st3" d="M91.2,112H52.8c-2.7,0-4.8,2.1-4.8,4.8v38.4c0,2.7,2.1,4.8,4.8,4.8h38.4
		c2.7,0,4.8-2.1,4.8-4.8v-38.4C96,114.1,93.9,112,91.2,112z M81.6,136c0,5.3-4.3,9.6-9.6,9.6s-9.6-4.3-9.6-9.6v0
		c0-5.3,4.3-9.6,9.6-9.6S81.6,130.7,81.6,136L81.6,136z"/>
	<path id="XMLID_618_" class="st3" d="M91.2,184H52.8c-2.7,0-4.8,2.1-4.8,4.8v38.4c0,2.7,2.1,4.8,4.8,4.8h38.4
		c2.7,0,4.8-2.1,4.8-4.8v-38.4C96,186.1,93.9,184,91.2,184z M81.6,208c0,5.3-4.3,9.6-9.6,9.6s-9.6-4.3-9.6-9.6v0
		c0-5.3,4.3-9.6,9.6-9.6S81.6,202.7,81.6,208L81.6,208z"/>
	<path id="XMLID_621_" class="st3" d="M91.2,256H52.8c-2.7,0-4.8,2.1-4.8,4.8v38.4c0,2.7,2.1,4.8,4.8,4.8h38.4
		c2.7,0,4.8-2.1,4.8-4.8v-38.4C96,258.1,93.9,256,91.2,256z M81.6,280c0,5.3-4.3,9.6-9.6,9.6s-9.6-4.3-9.6-9.6v0
		c0-5.3,4.3-9.6,9.6-9.6S81.6,274.7,81.6,280L81.6,280z"/>
</g>
<g id="XMLID_624_">
	<path id="XMLID_629_" class="st4" d="M432,408H320c-13.3,0-24-10.7-24-24v0c0-13.3,10.7-24,24-24h112c13.3,0,24,10.7,24,24v0
		C456,397.3,445.3,408,432,408z"/>
	<g id="XMLID_625_">
		<path id="XMLID_628_" class="st5" d="M344,392L344,392c-4.4,0-8-3.6-8-8l0,0c0-4.4,3.6-8,8-8l0,0c4.4,0,8,3.6,8,8l0,0
			C352,388.4,348.4,392,344,392z"/>
		<path id="XMLID_627_" class="st5" d="M376,392L376,392c-4.4,0-8-3.6-8-8l0,0c0-4.4,3.6-8,8-8l0,0c4.4,0,8,3.6,8,8l0,0
			C384,388.4,380.4,392,376,392z"/>
		<path id="XMLID_626_" class="st5" d="M408,392L408,392c-4.4,0-8-3.6-8-8l0,0c0-4.4,3.6-8,8-8l0,0c4.4,0,8,3.6,8,8l0,0
			C416,388.4,412.4,392,408,392z"/>
	</g>
</g>
<g id="XMLID_630_">
	<path id="XMLID_632_" class="st0" d="M224,408H56c-4.4,0-8-3.6-8-8v-32c0-4.4,3.6-8,8-8h168c4.4,0,8,3.6,8,8v32
		C232,404.4,228.4,408,224,408z"/>
	<rect id="XMLID_631_" x="55" y="368" class="st1" width="170" height="32"/>
</g>
</svg>
