<svg version="1.1" xmlns="http://www.w3.org/2000/svg" x="0" y="0" viewBox="0 0 512 480" xml:space="preserve"><style type="text/css">
	.st0{fill:#CAD0D7;}
	.st1{fill:#E1E6E9;}
	.st2{fill:#99A5AD;}
	.st3{fill:#5A5B67;}
	.st4{fill:#53BA5E;}
	.st5{fill:#297D3E;}
</style><path class="st0" d="M496 0H16C7.2 0 0 7.2 0 16v448c0 8.8 7.2 16 16 16h480c8.8 0 16-7.2 16-16V16C512 7.2 504.8 0 496 0zM496 456c0 4.4-3.6 8-8 8H24c-4.4 0-8-3.6-8-8V72c0-4.4 3.6-8 8-8h464c4.4 0 8 3.6 8 8V456z"/><path class="st1" d="M490 40H118c-3.3 0-6-2.7-6-6v-4c0-3.3 2.7-6 6-6h372c3.3 0 6 2.7 6 6v4C496 37.3 493.3 40 490 40z"/><path class="st2" d="M24 40L24 40c-4.4 0-8-3.6-8-8v0c0-4.4 3.6-8 8-8h0c4.4 0 8 3.6 8 8v0C32 36.4 28.4 40 24 40zM64 32L64 32c0-4.4-3.6-8-8-8h0c-4.4 0-8 3.6-8 8v0c0 4.4 3.6 8 8 8h0C60.4 40 64 36.4 64 32zM96 32L96 32c0-4.4-3.6-8-8-8h0c-4.4 0-8 3.6-8 8v0c0 4.4 3.6 8 8 8h0C92.4 40 96 36.4 96 32z"/><path class="st0" d="M416 264L416 264c0 22.1-17.9 40-40 40h0c-17.4 0-32.2-11.1-37.7-26.6 -3-3.1-7.7-5.4-11.3-5.4h-22c-3.6 0-8.4 2.3-11.3 5.4 -5.5 15.5-20.3 26.6-37.7 26.6h0c-17.4 0-32.2-11.1-37.7-26.6 -3-3.1-7.7-5.4-11.3-5.4h-22c-3.6 0-8.4 2.3-11.3 5.4 -5.5 15.5-20.3 26.6-37.7 26.6h0c-22.1 0-40-17.9-40-40v0c0-22.1 17.9-40 40-40h0c17.4 0 32.2 11.1 37.7 26.6 3 3.1 7.7 5.4 11.3 5.4h22c3.6 0 8.4-2.3 11.3-5.4 5.5-15.5 20.3-26.6 37.7-26.6h0c17.4 0 32.2 11.1 37.7 26.6 3 3.1 7.7 5.4 11.3 5.4h22c3.6 0 8.4-2.3 11.3-5.4 5.5-15.5 20.3-26.6 37.7-26.6h0C398.1 224 416 241.9 416 264z"/><path class="st3" d="M136 250L136 250l-8.9 4.1 -1.8-8.3 12.4-5.8h9.3v48h-11V250zM239 288v-7.1l6.2-5.5c10.2-9.1 15.3-14.4 15.4-19.9 0-3.8-2.3-6.8-7.7-6.8 -4 0-7.5 2-10 3.9l-3.1-7.8c3.5-2.7 9-4.8 15.3-4.8 10.6 0 16.4 6.2 16.4 14.7 0 7.8-5.7 14.1-12.4 20.2l-4.3 3.6v0.6h18v9H239zM363.2 276.4c1.9 1 6.4 2.9 10.9 2.9 5.7 0 8.6-2.9 8.6-6.4 0-4.6-4.6-6.9-9.4-6.9H369v-8h4c3.7 0 8.4-1.2 8.4-5.1 0-2.8-2.3-4.8-6.9-4.8 -3.8 0-7.8 1.7-9.8 2.9l-2.2-7.9c2.8-1.8 8.4-3.5 14.5-3.5 10 0 15.6 5.3 15.6 11.7 0 5-2.5 8.9-8.5 10.9v0.1c6 1 10.1 5.3 10.1 11.4 0 8.3-7.3 14.3-19.2 14.3 -6 0-11.2-1.6-13.9-3.3L363.2 276.4z"/><path class="st0" d="M320 176H192c-4.4 0-8-3.6-8-8v0c0-4.4 3.6-8 8-8h128c4.4 0 8 3.6 8 8v0C328 172.4 324.4 176 320 176zM368 136L368 136c0-4.4-3.6-8-8-8H152c-4.4 0-8 3.6-8 8v0c0 4.4 3.6 8 8 8h208C364.4 144 368 140.4 368 136z"/><path class="st4" d="M312 400H200c-13.3 0-24-10.7-24-24v0c0-13.3 10.7-24 24-24h112c13.3 0 24 10.7 24 24v0C336 389.3 325.3 400 312 400z"/><path class="st5" d="M224 384L224 384c-4.4 0-8-3.6-8-8l0 0c0-4.4 3.6-8 8-8h0c4.4 0 8 3.6 8 8l0 0C232 380.4 228.4 384 224 384zM264 376L264 376c0-4.4-3.6-8-8-8h0c-4.4 0-8 3.6-8 8l0 0c0 4.4 3.6 8 8 8h0C260.4 384 264 380.4 264 376zM296 376L296 376c0-4.4-3.6-8-8-8l0 0c-4.4 0-8 3.6-8 8l0 0c0 4.4 3.6 8 8 8l0 0C292.4 384 296 380.4 296 376z"/></svg>