<svg version="1.1" xmlns="http://www.w3.org/2000/svg" x="0" y="0" viewBox="0 0 512 480" xml:space="preserve"><style type="text/css">
	.st0{fill:#CAD0D7;}
	.st1{fill:#E1E6E9;}
	.st2{fill:#99A5AD;}
	.st3{fill:#6E8493;}
	.st4{fill:#33A0D7;}
	.st5{fill:#64B3E1;}
	.st6{fill:#D6D8DB;}
	.st7{fill:#D6D9DD;}
</style><path class="st0" d="M496 0H16C7.2 0 0 7.2 0 16v448c0 8.8 7.2 16 16 16h480c8.8 0 16-7.2 16-16V16C512 7.2 504.8 0 496 0zM496 456c0 4.4-3.6 8-8 8H24c-4.4 0-8-3.6-8-8V72c0-4.4 3.6-8 8-8h464c4.4 0 8 3.6 8 8V456z"/><path class="st1" d="M490 40H118c-3.3 0-6-2.7-6-6v-4c0-3.3 2.7-6 6-6h372c3.3 0 6 2.7 6 6v4C496 37.3 493.3 40 490 40z"/><path class="st2" d="M24 40L24 40c-4.4 0-8-3.6-8-8v0c0-4.4 3.6-8 8-8h0c4.4 0 8 3.6 8 8v0C32 36.4 28.4 40 24 40zM64 32L64 32c0-4.4-3.6-8-8-8h0c-4.4 0-8 3.6-8 8v0c0 4.4 3.6 8 8 8h0C60.4 40 64 36.4 64 32zM96 32L96 32c0-4.4-3.6-8-8-8h0c-4.4 0-8 3.6-8 8v0c0 4.4 3.6 8 8 8h0C92.4 40 96 36.4 96 32z"/><path class="st3" d="M492 0H20C9 0 0 9 0 20v60h512V20C512 9 503 0 492 0zM29 27c-3.9 0-7-3.1-7-7 0-3.9 3.1-7 7-7s7 3.1 7 7C36 23.9 32.9 27 29 27zM51 27c-3.9 0-7-3.1-7-7 0-3.9 3.1-7 7-7s7 3.1 7 7C58 23.9 54.9 27 51 27zM74 27c-3.9 0-7-3.1-7-7 0-3.9 3.1-7 7-7s7 3.1 7 7C81 23.9 77.9 27 74 27z"/><rect y="40" class="st4" width="512" height="40"/><path class="st5" d="M395 67H29c-3.9 0-7-3.1-7-7v0c0-3.9 3.1-7 7-7h366c3.9 0 7 3.1 7 7v0C402 63.9 398.9 67 395 67z"/><path class="st6" d="M483 67h-57c-3.9 0-7-3.1-7-7v0c0-3.9 3.1-7 7-7h57c3.9 0 7 3.1 7 7v0C490 63.9 486.9 67 483 67z"/><path class="st7" d="M492 480H20c-11 0-20-9-20-20V80h512v380C512 471 503 480 492 480z"/></svg>