<svg version="1.1" xmlns="http://www.w3.org/2000/svg" x="0" y="0" viewBox="0 0 512 480" xml:space="preserve"><style type="text/css">
	.st0{fill:#CAD0D7;}
	.st1{fill:#E1E6E9;}
	.st2{fill:#99A5AD;}
	.st3{fill:#53BA5E;}
	.st4{fill:#FCB33B;}
	.st5{fill:#B6DAF0;}
	.st6{fill:#5A5B67;}
	.st7{fill:#FFFFFF;}
	.st8{fill:#EE2F3D;}
</style><path class="st0" d="M496 0H16C7.2 0 0 7.2 0 16v448c0 8.8 7.2 16 16 16h480c8.8 0 16-7.2 16-16V16C512 7.2 504.8 0 496 0zM496 456c0 4.4-3.6 8-8 8H24c-4.4 0-8-3.6-8-8V72c0-4.4 3.6-8 8-8h464c4.4 0 8 3.6 8 8V456z"/><path class="st1" d="M490 40H118c-3.3 0-6-2.7-6-6v-4c0-3.3 2.7-6 6-6h372c3.3 0 6 2.7 6 6v4C496 37.3 493.3 40 490 40z"/><path class="st2" d="M24 40L24 40c-4.4 0-8-3.6-8-8v0c0-4.4 3.6-8 8-8h0c4.4 0 8 3.6 8 8v0C32 36.4 28.4 40 24 40zM64 32L64 32c0-4.4-3.6-8-8-8h0c-4.4 0-8 3.6-8 8v0c0 4.4 3.6 8 8 8h0C60.4 40 64 36.4 64 32zM96 32L96 32c0-4.4-3.6-8-8-8h0c-4.4 0-8 3.6-8 8v0c0 4.4 3.6 8 8 8h0C92.4 40 96 36.4 96 32z"/><path class="st3" d="M120 168H64c-4.4 0-8-3.6-8-8v-56c0-4.4 3.6-8 8-8h56c4.4 0 8 3.6 8 8v56C128 164.4 124.4 168 120 168z"/><path class="st3" d="M264 168H152c-4.4 0-8-3.6-8-8v-56c0-4.4 3.6-8 8-8h112c4.4 0 8 3.6 8 8v56C272 164.4 268.4 168 264 168z"/><path class="st4" d="M152 256H64c-4.4 0-8-3.6-8-8v-56c0-4.4 3.6-8 8-8h88c4.4 0 8 3.6 8 8v56C160 252.4 156.4 256 152 256z"/><path class="st5" d="M336 256H184c-4.4 0-8-3.6-8-8v-56c0-4.4 3.6-8 8-8h152c4.4 0 8 3.6 8 8v56C344 252.4 340.4 256 336 256z"/><path class="st5" d="M448 168H296c-4.4 0-8-3.6-8-8v-56c0-4.4 3.6-8 8-8h152c4.4 0 8 3.6 8 8v56C456 164.4 452.4 168 448 168z"/><path class="st3" d="M448 256h-80c-4.4 0-8-3.6-8-8v-56c0-4.4 3.6-8 8-8h80c4.4 0 8 3.6 8 8v56C456 252.4 452.4 256 448 256z"/><path class="st0" d="M288 352H64c-4.4 0-8-3.6-8-8l0 0c0-4.4 3.6-8 8-8h224c4.4 0 8 3.6 8 8l0 0C296 348.4 292.4 352 288 352z"/><path class="st0" d="M248 384H64c-4.4 0-8-3.6-8-8l0 0c0-4.4 3.6-8 8-8h184c4.4 0 8 3.6 8 8l0 0C256 380.4 252.4 384 248 384z"/><path class="st0" d="M256 416H64c-4.4 0-8-3.6-8-8l0 0c0-4.4 3.6-8 8-8h192c4.4 0 8 3.6 8 8l0 0C264 412.4 260.4 416 256 416z"/><path class="st6" d="M144 312H64c-4.4 0-8-3.6-8-8l0 0c0-4.4 3.6-8 8-8h80c4.4 0 8 3.6 8 8l0 0C152 308.4 148.4 312 144 312z"/><path class="st0" d="M424 416h-72c-4.4 0-8-3.6-8-8l0 0c0-4.4 3.6-8 8-8h72c4.4 0 8 3.6 8 8l0 0C432 412.4 428.4 416 424 416z"/><path class="st0" d="M448 352h-96c-4.4 0-8-3.6-8-8l0 0c0-4.4 3.6-8 8-8h96c4.4 0 8 3.6 8 8l0 0C456 348.4 452.4 352 448 352z"/><path class="st0" d="M408 384h-56c-4.4 0-8-3.6-8-8l0 0c0-4.4 3.6-8 8-8h56c4.4 0 8 3.6 8 8l0 0C416 380.4 412.4 384 408 384z"/><path class="st6" d="M416 312h-64c-4.4 0-8-3.6-8-8l0 0c0-4.4 3.6-8 8-8h64c4.4 0 8 3.6 8 8l0 0C424 308.4 420.4 312 416 312z"/><rect x="398" y="151" class="st7" width="20" height="18"/><path class="st8" d="M408 128L408 128c-17.7 0-32 14.3-32 32v0c0 17.4 16.6 52.1 29.4 63.5 0.4 0.3 0.8 0.5 1.3 0.5h2.5c0.5 0 1-0.2 1.3-0.5 12.9-11.4 29.4-46.1 29.4-63.5v0C440 142.3 425.7 128 408 128zM408 168c-4.4 0-8-3.6-8-8s3.6-8 8-8 8 3.6 8 8S412.4 168 408 168z"/></svg>