<svg version="1.1" xmlns="http://www.w3.org/2000/svg" x="0" y="0" viewBox="0 0 512 480" xml:space="preserve"><style type="text/css">
	.st0{fill:#CAD0D7;}
	.st1{fill:#E1E6E9;}
	.st2{fill:#99A5AD;}
	.st3{fill:#B6DAF0;}
	.st4{fill:#59A7D8;}
	.st5{fill:#53BA5E;}
	.st6{fill:#297D3E;}
</style><path class="st0" d="M496 0H16C7.2 0 0 7.2 0 16v448c0 8.8 7.2 16 16 16h480c8.8 0 16-7.2 16-16V16C512 7.2 504.8 0 496 0zM496 456c0 4.4-3.6 8-8 8H24c-4.4 0-8-3.6-8-8V72c0-4.4 3.6-8 8-8h464c4.4 0 8 3.6 8 8V456z"/><path class="st1" d="M490 40H118c-3.3 0-6-2.7-6-6v-4c0-3.3 2.7-6 6-6h372c3.3 0 6 2.7 6 6v4C496 37.3 493.3 40 490 40z"/><path class="st2" d="M24 40L24 40c-4.4 0-8-3.6-8-8v0c0-4.4 3.6-8 8-8h0c4.4 0 8 3.6 8 8v0C32 36.4 28.4 40 24 40zM64 32L64 32c0-4.4-3.6-8-8-8h0c-4.4 0-8 3.6-8 8v0c0 4.4 3.6 8 8 8h0C60.4 40 64 36.4 64 32zM96 32L96 32c0-4.4-3.6-8-8-8h0c-4.4 0-8 3.6-8 8v0c0 4.4 3.6 8 8 8h0C92.4 40 96 36.4 96 32z"/><path class="st1" d="M448 136v32c0 8.8-7.2 16-16 16H184c-8.8 0-16-7.2-16-16v-4c0-7.2-5.8-13-13-13v0c7.2 0 13-5.8 13-13v-2c0-8.8 7.2-16 16-16h248C440.8 120 448 127.2 448 136z"/><path class="st2" d="M272 160L272 160c-4.4 0-8-3.6-8-8v0c0-4.4 3.6-8 8-8l0 0c4.4 0 8 3.6 8 8v0C280 156.4 276.4 160 272 160zM320 152L320 152c0-4.4-3.6-8-8-8l0 0c-4.4 0-8 3.6-8 8v0c0 4.4 3.6 8 8 8l0 0C316.4 160 320 156.4 320 152zM360 152L360 152c0-4.4-3.6-8-8-8l0 0c-4.4 0-8 3.6-8 8v0c0 4.4 3.6 8 8 8l0 0C356.4 160 360 156.4 360 152z"/><path class="st3" d="M96 184L96 184c-17.7 0-32-14.3-32-32v0c0-17.7 14.3-32 32-32h0c17.7 0 32 14.3 32 32v0C128 169.7 113.7 184 96 184z"/><path class="st4" d="M104 160v-3.1c2.4-2.2 4-5.4 4-8.9 0-6.6-5.4-12-12-12s-12 5.4-12 12c0 3.5 1.6 6.7 4 8.9v3.1l-14 9c0 0-1.7 2-2.2 3.9C77.7 179.7 86.3 184 96 184h0c9.6 0 18.2-4.2 24-10.9 -0.4-2-2.2-4.1-2.2-4.1L104 160z"/><path class="st1" d="M80 234h248c8.8 0 16 7.2 16 16v2c0 7.2 5.8 13 13 13v0c-7.2 0-13 5.8-13 13v4c0 8.8-7.2 16-16 16H80c-8.8 0-16-7.2-16-16v-32C64 241.2 71.2 234 80 234z"/><path class="st2" d="M232 266L232 266c0-4.4 3.6-8 8-8h0c4.4 0 8 3.6 8 8l0 0c0 4.4-3.6 8-8 8h0C235.6 274 232 270.4 232 266zM200 274L200 274c4.4 0 8-3.6 8-8l0 0c0-4.4-3.6-8-8-8h0c-4.4 0-8 3.6-8 8l0 0C192 270.4 195.6 274 200 274zM160 274L160 274c4.4 0 8-3.6 8-8l0 0c0-4.4-3.6-8-8-8h0c-4.4 0-8 3.6-8 8l0 0C152 270.4 155.6 274 160 274z"/><path class="st3" d="M416 298L416 298c17.7 0 32-14.3 32-32v0c0-17.7-14.3-32-32-32h0c-17.7 0-32 14.3-32 32v0C384 283.7 398.3 298 416 298z"/><path class="st4" d="M408 274v-3.1c-2.4-2.2-4-5.4-4-8.9 0-6.6 5.4-12 12-12s12 5.4 12 12c0 3.5-1.6 6.7-4 8.9v3.1l14 9c0 0 1.7 2 2.2 3.9 -5.9 6.8-14.5 11.1-24.2 11.1h0c-9.6 0-18.2-4.2-24-10.9 0.4-2 2.2-4.1 2.2-4.1L408 274z"/><path class="st2" d="M352 424H72c-4.4 0-8-3.6-8-8v-32c0-4.4 3.6-8 8-8h280c4.4 0 8 3.6 8 8v32C360 420.4 356.4 424 352 424z"/><path class="st1" d="M352 416H72v-32h280V416z"/><path class="st5" d="M448 416h-48c-8.8 0-16-7.2-16-16v0c0-8.8 7.2-16 16-16h48c8.8 0 16 7.2 16 16v0C464 408.8 456.8 416 448 416z"/><path class="st6" d="M424 408L424 408c-4.4 0-8-3.6-8-8l0 0c0-4.4 3.6-8 8-8l0 0c4.4 0 8 3.6 8 8l0 0C432 404.4 428.4 408 424 408z"/></svg>