<?xml version="1.0" encoding="UTF-8"?>
<svg width="14px" height="16px" viewBox="0 0 22 24" version="1.1" xmlns="http://www.w3.org/2000/svg" xmlns:xlink="http://www.w3.org/1999/xlink">
    <defs></defs>
    <g id="Page-1" stroke="none" stroke-width="1" fill="none" fill-rule="evenodd">
        <g id="Style-Guide" transform="translate(-1205.000000, -462.000000)" fill="#00b181">
            <g id="live-betting" transform="translate(1205.000000, 462.000000)">
                <g id="live_betting">
                    <path d="M3.96,13.68 C3.96,17.3913535 6.96864648,20.4 10.68,20.4 C14.3913535,20.4 17.4,17.3913535 17.4,13.68 C17.4,9.96864648 14.3913535,6.96 10.68,6.96 C8.89676828,6.9568071 7.18565422,7.6637797 5.92471696,8.92471696 C4.6637797,10.1856542 3.9568071,11.8967683 3.96,13.68 L3.96,13.68 Z M12,14.76 L9.6,14.76 L9.6,9.12 L12,9.12 L12,14.76 Z" id="Shape"></path>
                    <rect id="Rectangle-path" x="7.2" y="0" width="6.84" height="2.4"></rect>
                    <path d="M18.84,7.08 L20.52,5.4 L18.84,3.72 L17.16,5.4 C15.3270666,4.01550561 13.0969852,3.25811948 10.8,3.24 C5.10042138,3.24 0.48,7.86042138 0.48,13.56 C0.518936607,16.7947282 2.01868208,19.8383293 4.56,21.84 C6.33802713,23.2410243 8.53632031,24.001972 10.8,24 L10.8,24 C13.5370342,24 16.1619666,22.9127174 18.097342,20.977342 C20.0327174,19.0419666 21.12,16.4170342 21.12,13.68 C21.1371377,11.2839967 20.3324105,8.95452306 18.84,7.08 L18.84,7.08 Z M19.2,13.68 C19.1999999,18.3191918 15.4391918,22.0799999 10.8,22.0799999 C6.16080815,22.0799999 2.40000007,18.3191918 2.4,13.68 C2.45821821,9.06513798 6.18513798,5.33821821 10.8,5.28 L11.64,5.28 C15.9483709,5.71295264 19.2216993,9.34998423 19.2,13.68 L19.2,13.68 Z" id="Shape"></path>
                </g>
            </g>
        </g>
    </g>
</svg>
