<svg xmlns="http://www.w3.org/2000/svg" viewBox="936 -511.2 1920 1070.2">
  <path fill="#F0F1F3" d="M936-511.2h1920V559H936z"/>
  <path fill="#00C671" d="M2510.8-40s-.4.4 0 0zm5-4.6c-5-5-11.1-9.6-18-11.5s-15-1.2-20.7 2.7c8.8 9.2 21.5 14.2 33.8 13.4 1.9 0 7.3.4 8.8-.8.4-.4-.8-1.5-1.9-2.7-.5 0-1.6-.8-2-1.1z"/>
  <path fill="#191C3C" d="M2517.7-43.1c-.4-.4-1.5-1.2-1.9-1.5-5-5-11.1-9.6-18-11.5-3.5-.8-6.9-1.2-10.4-.8 3.8 0 8.1 1.2 11.5 3.1 6.1 3.1 11.1 8.4 15.4 14.2 1.9 0 4.6-.4 5.4-.8.3-.4-.9-1.9-2-2.7z" opacity=".2"/>
  <path fill="#00C671" d="M2521.5-55.4c1.2 3.1 2.3 7.3 1.2 10-.8 2.3-2.7 5.4-5 5-1.9-2.3-5.8-7.3-8.1-9.2-1.9-1.5-5-3.5-6.9-5-5-4.2-6.5-10.4-9.2-16.1 5 .4 9.6 1.5 14.6 2.7 3.1.8 6.1 1.9 8.4 4.2 2.7 1.9 4.3 5 5 8.4z"/>
  <path fill="#F5F7F9" d="M2511.2-49.6c-1.5-1.9-4.6-4.2-6.1-6.1-3.5-4.2-4.6-9.2-5.8-14.6-1.9-.4-3.8-.8-6.1-.8 2.7 6.1 4.6 11.9 9.2 16.1 1.9 1.9 5 3.5 6.9 5 1.2.8 2.7 2.7 3.8 4.2 0-1.5-1.2-3.1-1.9-3.8z" opacity=".08"/>
  <path fill="#00C671" d="M2524.2-71.1c1.5 4.6 1.5 9.2 1.5 14.2 0 1.9.4 5 0 6.5s-1.2 3.1-2.3 4.2c-.8 1.2-1.5-.4-2.3-1.2-.8-1.2-1.9-2.7-1.2-2.3-.8-2.7-1.2-4.6-1.9-7.3-.8-2.3-1.5-4.2-1.9-6.5-.8-5.4 0-11.1 1.2-16.5 3.1 2.3 5.4 5.4 6.9 8.9z"/>
  <path fill="#1E2022" d="M2480.4-52.7c6.1-.4 12.3 0 18.4 1.5 5.8 1.5 10.8 4.2 15.7 8.1.4.4.4-.4.4-.4-4.6-3.5-10-6.1-15.7-7.7-6.5-1.9-12.6-1.9-18.8-1.5zM2495.4-69.2c5 2.3 9.6 5.4 13.4 9.2 4.2 4.2 7.3 9.2 10.4 14.2h.4c-5.4-10.4-13-18.8-24.2-23.4zM2517.7-78c3.5 9.6 7.3 19.2 5 29.6 0 .4.4.4.4 0 1.9-10.1-1.2-20.4-5.4-29.6z"/>
  <path fill="#1E2022" d="M2485.1-48.9c.8-.8 1.2-1.5 1.9-1.9.8-.8 1.5-1.2 2.3-1.5-1.6.4-3.5 1.5-4.2 3.4zM2490-46.6c1.9-3.1 4.2-4.2 7.7-4.6.4 0 .4-.4 0-.4-3 .4-6.5 1.6-7.7 5zM2496.2-46.2c1.9-1.5 3.8-3.8 6.9-3.1 0 0 .4-.4 0-.4-2.7-.7-5 1.6-6.9 3.5zM2502.3-42.7c1.9-2.3 4.6-4.6 7.7-3.1.4 0 .4-.4 0-.4-2.7-1.5-6.1.4-7.7 3.5zM2488.1-56.5c.4 1.9 2.3 3.1 3.8 4.2 0 0 .4 0 0-.4-1.5-.8-3-1.9-3.8-3.8z"/>
  <path fill="#1E2022" d="M2494.7-56.2c.8 1.9 1.9 3.5 3.5 5 0 0 .4 0 .4-.4-1.6-1.1-2.8-2.6-3.9-4.6zM2500.4-53.9c.4.8.8 1.9 1.5 2.7.4.8 1.2 1.5 1.9 1.9h.4v-.4h-.4v.4c.4 0-.8-1.2-.8-1.2-.4-.4-.4-.8-.8-.8-.6-1-1.4-1.8-1.8-2.6zM2505-51.6c1.2 1.9 3.1 3.8 5 5.4.4.4.4 0 .4-.4-1.9-1.5-3.5-3.4-5.4-5zM2498.5-62.7c3.5-.4 6.5 0 9.6 1.9.4 0 .4-.4.4-.4-3.1-1.9-6.9-2.6-10-1.5zM2503.9-56.9c1.5 0 3.5 0 5 .4s3.1.8 4.2 1.5c.4 0 .4-.4 0-.4-2.7-1.1-6.2-2.3-9.2-1.5zM2510.4-51.9c1.2 0 2.3.4 3.5.4 1.2.4 2.3.8 3.1 1.9 0 0 .4 0 .4-.4-.8-.8-1.5-1.5-3.1-1.9h-3.9z"/>
  <path fill="#1E2022" d="M2505.8-66.5c0 1.2.8 2.7 1.2 3.8.4.8.8 1.9 1.5 2.3-1.6-1.9-1.6-4.6-2.7-6.1 0-.4 0-.4 0 0zM2510.8-65c.4 3.5 1.5 6.9 2.7 10h.4c-1.6-3.5-2-6.9-3.1-10 0-.4 0-.4 0 0zM2516.5-57.7c0 3.1.8 6.1 1.2 8.8 0 .4.4 0 .4 0-.8-3-1.2-6.1-1.6-8.8 0-.4 0-.4 0 0zM2516.5-72.3c1.9 2.3 3.8 5 5 7.7 0 .4.4 0 .4-.4-1.1-2.7-3.1-5.4-5.4-7.3 0-.4 0-.4 0 0zM2523.5-71.9c-1.2 2.3-1.2 5-1.2 7.7 0 .4.4.4.4 0 0-1.5.4-2.7.4-4.2 0-1.2.4-2.4.4-3.5zM2519.6-63.5c1.5 2.3 2.7 5 3.5 7.7 0-3-1.6-5.7-3.5-7.7 0-.3 0 0 0 0zM2523.5-55.8c.8-1.9 1.2-3.5 2.3-5 0 0 0-.4-.4 0-.8 1.2-1.9 3.1-1.9 5z"/>
  <path fill="#D4DBE3" d="M936 367.4s247.7-143.2 566.4-66.4 489.6-78.7 604.8-145.9S2600.6-202.8 2856-20v578.7H936V367.4z"/>
  <g>
    <path fill="#00C9A7" d="M1389.5 178.1c.8.4 0 0 0 0zm-5-2.7c-.8.8-1.9 1.9-1.5 1.9 1.2.8 5 .8 6.5.4 9.6.4 19.2-3.5 25.7-10.4-4.6-3.1-10.4-3.5-15.7-1.9-5.4 1.5-10 5-13.8 8.8 0 .4-.8 1.2-1.2 1.2z"/>
    <path fill="#191C3C" d="M1384.5 175.4c.4-.4 1.2-.8 1.5-1.2 3.8-3.8 8.4-7.3 13.8-8.8 2.7-.8 5.4-1.2 7.7-.8-3.1 0-6.1.8-8.8 2.3-4.6 2.3-8.4 6.5-11.5 10.8-1.5 0-3.5 0-4.2-.4-.4 0 .7-.8 1.5-1.9z" opacity=".2"/>
    <path fill="#00C9A7" d="M1385.3 159.6c1.9-1.5 4.2-2.3 6.5-3.1 3.5-1.2 7.3-1.9 11.1-1.9-1.9 4.6-3.5 8.8-6.9 12.3-1.5 1.2-3.8 2.7-5.4 3.8-1.9 1.5-4.6 5.4-6.1 6.9-1.5.4-3.1-1.9-3.8-3.8-.8-2.3 0-5.4.8-7.7.7-2.2 1.9-4.5 3.8-6.5z"/>
    <path fill="#F5F7F9" d="M1389.5 170.8c1.2-1.5 3.5-3.1 4.6-4.6 2.7-3.1 3.5-6.9 4.2-10.8 1.5-.4 3.1-.4 4.6-.8-1.9 4.6-3.5 8.8-6.9 12.3-1.5 1.2-3.8 2.7-5.4 3.8l-3.1 3.1c.5-1.1 1.2-2.6 2-3z" opacity=".08"/>
    <path fill="#00C9A7" d="M1384.9 147.4c.8 4.2 1.5 8.4.8 12.7-.4 1.5-.8 3.5-1.5 5-.8 2.3-.8 3.5-1.5 5.4.4-.4-.4 1.2-.8 1.9-.4.8-1.2 1.9-1.9.8-.8-.8-1.5-1.9-1.5-3.1-.4-1.2 0-3.5 0-5 0-3.5 0-7.3 1.2-10.8 1-2.7 2.9-5 5.2-6.9z"/>
    <path fill="#191C3C" d="M1412.5 168.5c-4.6 0-9.2 0-13.8 1.2-4.2 1.2-8.4 3.5-11.9 6.1-.4 0-.4 0 0-.4 3.5-2.7 7.7-4.6 11.9-6.1 4.6-1.2 9.2-1.2 13.8-.8.4 0 .4 0 0 0zM1401.4 155.8c-3.8 1.9-7.3 4.2-10.4 7.3s-5.4 6.9-8.1 10.8c0 0-.4 0 0 0 4.3-8.1 10.1-14.6 18.5-18.1zM1384.5 149.3c-2.3 7.3-5.4 14.6-3.8 22.3 0 0-.4.4-.4 0-1.2-7.3.8-15.8 4.2-22.3z"/>
    <path fill="#191C3C" d="M1409.5 171.2l-1.5-1.5c-.8-.4-1.2-.8-1.9-1.2 1.1.4 2.6 1.5 3.4 2.7zM1405.6 173.1c-1.2-2.3-3.1-3.1-5.8-3.5-.4 0 0-.4 0-.4 2.4.4 4.7 1.2 5.8 3.9zM1400.6 173.5c-1.5-1.2-3.1-3.1-5.4-2.3 2.4-1.2 4.3.7 5.4 2.3.4 0 0 0 0 0zM1396 175.8c-1.5-1.9-3.5-3.5-5.8-2.3 0 0-.4 0 0-.4 2.4-.8 4.7.8 5.8 2.7zM1406.8 165.4c-.4 1.5-1.5 2.3-2.7 3.1 1.1-.8 2.3-1.6 2.7-3.1zM1401.8 165.8c-.4 1.5-1.5 2.7-2.7 3.8 0 0-.4 0 0 0 1.2-1.1 1.9-2.3 2.7-3.8zM1397.6 167.3c-.4.8-.8 1.2-1.2 1.9-.4.4-.8 1.2-1.5 1.5v-.4s.8-.8.4-.8l.8-.8c1.1.2 1.5-.6 1.5-1.4z"/>
    <path fill="#191C3C" d="M1394.1 169.2c-.8 1.5-2.3 3.1-3.8 4.2 0 0-.4 0-.4-.4 1.5-1.1 3.1-2.2 4.2-3.8zM1399.1 160.8c-2.7 0-5 0-7.3 1.5 0 0-.4 0 0-.4 1.9-1.1 5-1.9 7.3-1.1zM1394.9 165c-1.2 0-2.3 0-3.8.4-1.2.4-2.3.8-3.5 1.2 0 0-.4 0 0-.4 2.7-.8 5-1.6 7.3-1.2zM1389.9 169.2c-.8 0-1.9 0-2.7.4-1.2.4-1.5.8-2.3 1.5 0 0-.4 0 0 0 .8-.8 1.2-1.2 2.3-1.5 1.2-.4 1.9-.7 2.7-.4.4-.3.4 0 0 0z"/>
    <path fill="#191C3C" d="M1393.7 157.7c0 .8-.4 1.9-.8 2.7-.4.4-.4 1.5-1.2 1.5.9-1.1.9-3 2-4.2zM1389.5 158.9c-.4 2.7-1.2 5.4-1.9 7.7h-.4c1.2-2.3 1.9-5 2.3-7.7 0 0 .4 0 0 0zM1385.3 164.6c0 2.3-.8 4.6-.8 6.5h-.4c.4-2.2.8-4.5 1.2-6.5 0-.3 0-.3 0 0zM1385.3 153.5c-1.5 1.9-2.7 3.8-3.8 5.8h-.4c1.1-2.3 2.3-4.3 4.2-5.8 0-.4 0-.4 0 0z"/>
    <path fill="#191C3C" d="M1380.3 153.9c.8 1.5.8 3.8 1.2 5.8h-.4c0-1.2 0-2.3-.4-3.1-.4-1.2-.4-1.9-.4-2.7zM1383 160c-1.2 1.9-1.9 3.8-2.7 5.8.4-1.9 1.5-4.2 2.7-5.8zM1380.3 165.8c-.4-1.2-.8-2.7-1.5-3.8.7 1.1 1.1 2.6 1.5 3.8 0 .4 0 .4 0 0z"/>
  </g>
  <g>
    <path fill="#00C9A7" d="M1368.4 178.1s-.4.4 0 0zm3.8-3.9c-3.8-4.2-8.8-7.7-14.2-9.2s-11.9-1.2-16.5 2.3c6.9 7.3 16.9 11.1 26.9 10.8 1.5 0 5.8 0 6.9-.4.4-.4-.8-1.2-1.5-2.3 0-.4-1.2-.8-1.6-1.2z"/>
    <path fill="#191C3C" d="M1373.8 175.4c-.4-.4-1.2-.8-1.5-1.2-3.8-4.2-8.8-7.7-14.2-9.2-2.7-.8-5.4-1.2-8.1-.8 3.1 0 6.1.8 9.2 2.3 5 2.7 8.8 6.5 11.9 11.5 1.5 0 3.5 0 4.2-.8.4.1-.8-1-1.5-1.8z" opacity=".2"/>
    <path fill="#00C9A7" d="M1377.2 165.8c.8 2.3 1.9 5.8.8 8.1-.8 1.9-2.3 4.2-3.8 3.8-1.5-1.9-4.6-5.8-6.5-7.3-1.5-1.2-3.8-2.7-5.4-3.8-3.8-3.5-5.4-8.1-7.3-12.7 3.8.4 7.7 1.2 11.5 2.3 2.3.8 5 1.5 6.9 3.5 1.5 1.1 2.7 3.4 3.8 6.1z"/>
    <path fill="#F5F7F9" d="M1368.8 170.4c-1.2-1.5-3.5-3.5-4.6-5-2.7-3.5-3.5-7.3-4.6-11.5-1.5-.4-3.1-.4-4.6-.8 2.3 4.6 3.5 9.2 7.3 12.7 1.5 1.5 3.8 2.7 5.4 3.8.8.8 1.9 1.9 3.1 3.5-.5-.8-1.3-1.9-2-2.7z" opacity=".08"/>
    <path fill="#00C9A7" d="M1379.1 153.5c1.2 3.5 1.2 7.3 1.2 11.1 0 1.5.4 3.8 0 5.4-.4 1.2-1.2 2.3-1.9 3.1-.8.8-1.2 0-1.9-1.2-.4-.8-1.5-2.3-.8-1.9-.8-2.3-1.2-3.5-1.5-5.8-.8-1.5-1.2-3.5-1.5-5-.8-4.2 0-8.8.8-13.1 2.6 2 4.5 4.3 5.6 7.4z"/>
    <path fill="#191C3C" d="M1344.6 168.1c5 0 9.6 0 14.6 1.2 4.6 1.2 8.8 3.5 12.3 6.1.4 0 .4 0 .4-.4-3.8-2.7-8.1-5-12.3-6.1-5.4-1.2-10-1.2-15-.8zM1356.5 155c3.8 1.9 7.7 4.2 10.8 7.3 3.5 3.5 5.8 7.3 8.1 11.1 0 0 .4 0 0 0-4.3-8-10.5-14.9-18.9-18.4 0-.3 0 0 0 0zM1373.8 148.1c2.7 7.7 5.8 15 3.8 23.4 0 0 .4.4.4 0 1.5-8-.8-16.5-4.2-23.4 0-.4 0 0 0 0z"/>
    <path fill="#191C3C" d="M1348 170.8l1.5-1.5c.8-.4 1.2-.8 1.9-1.2-1.1.4-2.6 1.5-3.4 2.7zM1351.9 172.7c1.5-2.3 3.5-3.1 6.1-3.5.4 0 0-.4 0-.4-2.3.4-5 1.2-6.1 3.9zM1356.9 173.1c1.5-1.2 3.1-3.1 5.4-2.7-2-.4-3.9 1.2-5.4 2.7zM1361.9 175.8c1.5-1.9 3.5-3.5 6.1-2.3 0 0 .4 0 0-.4-2.3-1.2-5 .4-6.1 2.7zM1350.3 165c.4 1.5 1.5 2.7 3.1 3.5-1.1-1.2-2.3-1.9-3.1-3.5.4 0 0 0 0 0z"/>
    <path fill="#191C3C" d="M1355.7 165.4c.8 1.5 1.5 2.7 2.7 3.8 0 0 .4 0 0 0-1.2-1.1-1.9-2.6-2.7-3.8zM1360.3 166.9c.4.8.8 1.5 1.2 1.9s.8 1.2 1.5 1.5v-.4c.4 0-.8-.8-.8-.8l-.8-.8c-.3-.2-.7-.6-1.1-1.4zM1363.8 168.9c.8 1.5 2.3 3.1 3.8 4.2 0 0 .4 0 .4-.4-1.5-1.1-2.7-2.3-4.2-3.8zM1358.8 160c2.7 0 5 0 7.7 1.5 0 0 .4 0 0-.4-2.3-1.1-5.4-2.2-7.7-1.1zM1363 164.6c1.2 0 2.7 0 3.8.4 1.2.4 2.3.8 3.5 1.2 0 0 .4 0 0-.4-2.3-.8-5-1.9-7.3-1.2zM1368 168.9c.8 0 1.9 0 2.7.4 1.2.4 1.9.8 2.3 1.5 0 0 .4 0 .4-.4-.8-.8-1.2-1.2-2.3-1.5-.8-.4-1.9-.4-3.1 0 0-.4 0 0 0 0z"/>
    <path fill="#191C3C" d="M1364.2 157c0 1.2.8 1.9.8 3.1.4.8.4 1.5 1.2 1.5-.9-1.2-.9-3.5-2-4.6.3 0 0 0 0 0zM1368.4 158.1c.4 2.7 1.2 5.4 1.9 8.1h.4c-.8-2.7-1.5-5.4-2.3-8.1zM1373 163.9c0 2.3.8 4.6.8 6.9h.4l-1.2-6.9zM1373 152.4c1.5 1.9 3.1 3.8 3.8 6.1h.4c-.8-2.3-2.3-4.6-4.2-6.1 0-.4 0 0 0 0zM1378.4 152.7c-.8 1.9-.8 3.8-1.2 5.8h.4c0-1.2 0-2.3.4-3.5 0-.3.4-1.5.4-2.3zM1375.3 159.3c1.2 1.9 1.9 3.8 2.7 5.8 0-2-1.2-4.3-2.7-5.8zM1378.4 165.4c.4-1.5.8-2.7 1.9-3.8 0 0 0-.4 0 0-1.2 1.1-1.9 2.3-1.9 3.8z"/>
  </g>
  <g>
    <path fill="none" stroke="#191C3C" stroke-miterlimit="10" stroke-width="1.592" d="M2714.7 92.1l8.8-8.8c.8-.8 1.5-.8 2.3 0l4.6 4.6c3.8 3.8 5.4 9.6 4.2 15l-2.3 8.4"/>
    <path fill="#7783A0" d="M2678.2 123.2l-.8 6.9-6.5 1.1 1.5-11.5z"/>
    <path fill="#7783A0" d="M2721.2 127.4l-1.5 9.6-42.6-6.9 1.1-6.9z"/>
    <path fill="#3A3C4E" d="M2677.4 127.8l-.3 2.3 42.6 6.9.4-1.9z"/>
    <path fill="#7783A0" d="M2742.733 118.714l-23.73 23.503-30.26-30.551 23.731-23.504z"/>
    <path fill="#191C3C" d="M2718.736 94.35l-23.731 23.504-.845-.852 23.731-23.504zM2721.527 97.187l-23.731 23.503-.845-.852 23.731-23.504z"/>
    <g>
      <path fill="#FEC55E" d="M2817.459 189.38l-10.054 5.584-9.517-17.134 10.053-5.584z"/>
      <path fill="#DB3F32" d="M2775.7 80.9v64.5l25 38.4 11.1-5.3-19.9-44.2 5.3-45.7z"/>
      <path fill="#FEC55E" d="M2768.1 179.2h12.7v19.6h-12.7z"/>
      <path fill="#191C3C" d="M2788.8 132.8l5-14.2 3.4-30-19.2-6.9-2.3 16.9v46.8l10.4 15.8z" opacity=".3"/>
      <path fill="#DE4437" d="M2804.2 62.9l1.2 1.9c.8 1.9 1.2 3.8 1.2 5.8l-.4 12.7c-.4 5.4-1.9 11.1-5 15.7l-7.3 11.5-7.7 22.3-4.6 48.8H2767l3.1-47.2-.8-2.3c-.8-2.3-.8-4.6-.4-6.9l6.5-44.2-4.6-12.3 33.4-5.8z"/>
      <path fill="#FEC55E" d="M2736.2 8.4c0-1.9 0-3.8-.8-5.8-1.2-1.9-3.1-3.5-5-4.6-4.6-2.7-10.4-4.2-15.7-4.6v.4c-.4 3.1 1.2 5.8 2.3 8.8 2.7 5.8 5 12.3 4.6 18.8-.4 6.1-3.5 11.5-6.5 16.5 1.5-1.9 3.5-3.8 5.8-5.8-1.2 3.8-2.7 7.3-4.6 10.8 4.2-2.3 6.5-6.9 8.8-11.1-.4 3.8-1.2 7.3-3.1 10.8 3.1-3.5 5.4-7.3 7.3-11.5.4 3.1-.4 6.5-1.9 9.2 3.1-4.2 6.1-8.4 7.7-13.4 1.1-6.3 1.1-12.4 1.1-18.5z"/>
      <path fill="#191C3C" d="M2736.2 8.4c0-1.9 0-3.8-.8-5.8-1.2-1.9-3.1-3.5-5-4.6-4.6-2.7-10.4-4.2-15.7-4.6v.4c-.4 3.1 1.2 5.8 2.3 8.8 1.9 4.6 4.2 9.6 4.6 14.6 2.3 1.9 6.1 1.5 8.1-1.2l1.2-1.5 5.4 2.3c-.1-3.1-.1-5.8-.1-8.4z" opacity=".3"/>
      <path fill="#FEC55E" d="M2743.838 5.175l-4.34 10.216-11.32-4.808 4.339-10.216z"/>
      <path fill="#191C3C" d="M2736.6 1.4l-3.5 11.2-5.4-1.9 4.7-10.4z" opacity=".3"/>
      <path fill="#FEC55E" d="M2707.4-5.1l5 8.4 1.2 1.2v5.8h3.1l4.2 3.8c2.3 2.3 6.5 1.9 8.4-.8l9.2-13.4-6.5-15.4s-20-6.5-24.6 10.4z"/>
      <linearGradient id="a" x1="2706.583" x2="2707.038" y1="202.008" y2="202.008" gradientTransform="matrix(1 0 0 -1 0 197.108)" gradientUnits="userSpaceOnUse">
        <stop offset="0" stop-color="#ffc107"/>
        <stop offset="1" stop-color="#de4437"/>
      </linearGradient>
      <path fill="url(#a)" d="M2707-4.7l-.4-.4.4.4z"/>
      <linearGradient id="b" x1="2707.038" x2="2708.118" y1="201.308" y2="201.308" gradientTransform="matrix(1 0 0 -1 0 197.108)" gradientUnits="userSpaceOnUse">
        <stop offset="0" stop-color="#ffc107"/>
        <stop offset="1" stop-color="#de4437"/>
      </linearGradient>
      <path fill="url(#b)" d="M2708.2-3.6l-1.2-1.2c.4.5.8.9 1.2 1.2z"/>
      <linearGradient id="c" x1="2706.153" x2="2765.365" y1="205.861" y2="205.861" gradientTransform="matrix(1 0 0 -1 0 197.108)" gradientUnits="userSpaceOnUse">
        <stop offset="0" stop-color="#ffc107"/>
        <stop offset="1" stop-color="#de4437"/>
      </linearGradient>
      <path fill="url(#c)" d="M2761.9.7c-3.5-2.7-8.8-2.7-11.1-6.5-.4-.8-.8-1.9-1.5-2.7-1.9-1.9-5.4-1.5-7.3-3.8-.8-1.2-.8-2.3-1.2-3.5-.8-1.9-1.9-3.5-3.5-4.6-1.2-.8-2.7-1.5-4.2-1.9-1.5-.8-3.1-1.2-4.6-1.9-1.5-.8-3.1-1.2-4.6-1.5-2.3-.4-4.6.4-6.5 1.2-1.2.4-2.3.8-3.1 1.2-3.1 1.9-4.6 5.4-5.8 8.4-1.2 2.3-2.3 5-1.9 7.7 0 .8.4 1.5.8 1.9 1.9 1.5 4.6 1.2 6.9.8 2.3-.4 5-1.2 7.3-.8 1.9.4 3.8.8 5.8.8s3.5 1.5 4.6 3.1c1.2 1.5 2.3 3.1 4.2 4.2 1.2.8 2.3 1.2 3.5 1.2 1.2.4 2.3.4 3.5.4 1.9 0 3.5-1.2 5.4-1.5 1.9-.8 3.5-1.2 5.4-1.5h2.7c1.2.4 2.3 1.2 3.1 1.9 1.2.8 2.3 1.9 3.5 2.7.8.8 2.3 1.2 2.7 2.3-.2-2.6-1.8-6.1-4.1-7.6z"/>
      <path fill="#191C3C" d="M2806.5 70.6c0-1.2 0-2.3-.4-3.5l-1.2-3.1-.8-1.5-33 5.8 3.1 8.4 32.3-1.9v-4.2z" opacity=".3"/>
      <path fill="#FFF" d="M2740.8 4.1l9.6-2.7h5c3.8 0 7.7 1.2 10.8 3.8l15 12.3c5.4 4.6 9.6 10 12.7 16.5l14.6 38-36.5 5.4-15.7-47.2-13.4-7.3-3.8-7.3 1.7-11.5z"/>
      <path fill="#FEC55E" d="M2745.4 208.4l.4-1.2c1.2-2.3 3.1-4.6 5.4-5.8l10-3.5 6.5-4.2v3.5h7.7l3.1-1.9h2.3v13.1h-35.4z"/>
      <path fill="#191C3C" d="M2744.6 208.4h38v1.9h-38z"/>
      <path fill="#FEC55E" d="M2792.3 210.3v-1.9c.4-2.7.4-2.7 1.9-4.6l6.5-6.9 3.8-6.1 1.5 3.1 6.1-3.5 1.9-2.7 1.9-.8 5.4 10.8-25.3 12.7-3.7-.1z"/>
      <path fill="#191C3C" d="M2823.842 198l-23.984 12.18-.86-1.693 23.984-12.18z"/>
      <path fill="#191C3C" d="M2792.3 210.3h7.6l2.7-1.9h-10.3z"/>
      <g fill="#FFF">
        <path d="M2748.9 203h25v-1.2H2750c0 .5-.4.9-1.1 1.2zM2754.6 200h26.1v-1.2h-23z"/>
      </g>
      <g fill="#FFF">
        <path d="M2816.8 188.8l-17.2 9.2-2 2.4 19.6-10.8zM2812.6 194.2l-18.8 10c-.4.8-.8 1.2-1.2 1.5l20-10.8v-.7z"/>
      </g>
      <g fill="#41446B" opacity=".3">
        <path d="M2803.4 91.3c-1.5 5.4-4.6 9.2-10 11.5-1.2.4-1.9 2.3-1.2 3.5-.8.4-1.5.8-2.3 1.2-1.5.8.8 1.5 2.3 1.9 3.1.4-1.5 3.1-1.9 5-.4 2.3-1.5 4.6-1.9 6.9-.4 2.3-.4 4.2 0 6.1l5.8-16.9 7.3-11.5c1.9-2.7 3.1-5.8 3.8-9.2-.8 0-1.5.7-1.9 1.5zM2786.5 132c-1.5 0-3.1-.4-4.2-.8-2.7-.8-.4 1.9 2.3 3.1.8.4-2.3 1.5-1.5 1.9 0 0-2.3 1.2-2.3 1.5-1.9 1.2.8 2.3 2.7 2.7-.4.4-.4.8-.8 1.5-1.2 3.5.4 9.2.8 12.7 0 .8.4 1.2.8 1.5l2.3-23-.1-1.1z"/>
      </g>
      <path fill="#191C3C" d="M2770.8 56.4c-.8 0-3.1-.8-3.8-.8.4-.4 2.3-1.9 1.9-2.3-3.5-.8-5.8-3.1-6.1-6.9 0-.8-.8-1.2-1.5-.8l2.7 7.7c.4.4 1.2.8 1.5.8 0 0-.4 0-.4.4-.4 0-.4.4-.4.4l.4 1.5h.8c-.4 0-.4.4-.4.8l.4 1.2s1.9 4.6 2.3 6.9l3.1 8.8c0-3.8-.4-8.1-1.2-11.9-.4-1.5-.4-3.1-1.2-3.8 1.2-.4 2.3-.4 3.5-.8.7-.9-.5-1.2-1.6-1.2z" opacity=".1"/>
      <path fill="#FEC55E" d="M2750.8 43.7l1.9 14.6-18.8 24.2-6.1-.8-5.8 3.1-1.5 2.7.8 6.9 11.1 1.2 6.1-7.3 25.3-23.4c.8-.8 1.2-1.9 1.2-3.1l-1.9-19.6-12.3 1.5z"/>
      <path fill="#191C3C" d="M2763.5 41.8l-12.7 1.9.4 1.5 12.3-1.5z" opacity=".3"/>
      <path fill="#FFF" d="M2764.6 22.2l-2.3 6.1 2.3 13.5-15.7 1.9-6.2-21.1 2.7-7z"/>
      <path fill="#191C3C" d="M2763.1 39.5c-.8-3.8-.4-6.5-1.5-10.4-.4-1.9-.8-2.3-1.5-2.7.8-.4.8-1.2.4-1.5 1.2-.8 1.2-2.3 2.3-3.1s.8-1.2-.4-.8c-1.5.8-3.1 1.5-4.2 2.7-.4.4-.8 1.2-.4 1.5-.4 0 0 1.2-.4 1.2-.8.4-1.2.8-.4 1.2 2.3 1.2 2.7 3.5 3.1 5.8.8 2.7 1.2 5.4 1.9 8.1.7 1.4 1.5-.9 1.1-2z" opacity=".1"/>
    </g>
    <g>
      <path fill="#D8ED96" d="M2629.4 162s-.7.7 0 0zm8.5-8.1c-8.8-9.2-19.2-16.9-31.5-20-11.9-3.5-25.7-2.3-36.5 4.6 15 16.1 37.2 25 59.5 23.8 3.1.4 12.3.4 15-1.2.8-.4-1.5-2.7-3.1-4.6-.3-.7-2.6-2.2-3.4-2.6z"/>
      <path fill="#191C3C" d="M2641.3 156.2c-.8-.8-2.7-1.9-3.1-2.3-8.8-9.2-19.2-16.9-31.5-20-5.8-1.5-11.9-2.3-18-1.5 6.9.4 13.8 2.3 20 5.4 11.1 5.8 19.6 14.6 26.5 25 3.8 0 7.7-.4 9.2-1.2.8-1.2-1.1-3.5-3.1-5.4z" opacity=".2"/>
      <path fill="#D8ED96" d="M2648.3 134.7c1.9 5 4.2 12.7 1.9 17.7-1.5 3.8-4.6 9.6-8.4 8.8-3.1-4.2-10-13.1-14.2-16.1-3.5-2.7-8.8-5.8-12.3-8.8-8.4-7.7-11.5-18-16.5-28.4 8.4.8 16.9 2.3 25.3 4.6 5.4 1.5 10.8 3.5 15 7.3 4.9 3.8 7.2 9.5 9.2 14.9z"/>
      <path fill="#F5F7F9" d="M2630.2 145.1c-3.1-3.5-7.7-7.3-10.8-10.8-5.8-7.7-7.7-16.1-10-25.3-3.5-.8-6.9-1.2-10.8-1.5 4.6 10.4 8.1 20.7 16.5 28.4 3.1 3.1 8.8 6.1 12.3 8.8 1.9 1.5 4.6 4.6 6.9 7.3-1-2.7-2.6-5.4-4.1-6.9z" opacity=".08"/>
      <path fill="#D8ED96" d="M2652.9 107.8c3.1 7.7 2.7 16.5 2.7 24.6 0 3.1.8 8.4 0 11.5-.8 2.7-2.3 5-3.8 7.3-1.5 1.9-3.1-.4-4.2-2.3-1.2-1.9-3.1-4.6-2.3-4.2-1.5-4.6-2.3-7.7-3.5-12.7-1.2-3.8-2.3-7.7-3.1-11.5-1.5-9.6.4-19.2 2.3-28.8 5.3 4.2 9.2 10 11.9 16.1z"/>
      <path fill="#1E2022" d="M2576.4 140.1c10.8-.4 21.5 0 32.3 3.1 10 2.7 19.2 7.7 27.3 13.8.4.4.8-.4.4-.8-8.1-6.1-17.7-10.8-27.6-13.8-10.8-3.1-21.6-3.1-32.4-2.3-.3-.4-.3 0 0 0zM2602.6 110.9c8.8 4.2 16.9 9.6 23.8 16.5 7.7 7.3 12.7 16.1 18 25 0 .4.8 0 .4-.4-9.2-18.1-23-33.4-42.2-41.1 0-.4 0 0 0 0zM2641.3 95.5c5.8 16.9 12.3 33.4 8.4 51.8 0 .4.4.8.8 0 3.5-17.2-1.5-36-9.2-51.8z"/>
      <path fill="#1E2022" d="M2584.1 146.2c1.2-1.2 2.3-2.3 3.8-3.5s2.7-1.9 4.2-2.7v-.4c-3 1.2-6.1 3.9-8 6.6zM2593 150.4c3.1-5.4 7.7-7.3 13.4-7.7.4 0 .4-.8 0-.8-5.8.9-11.5 2.8-13.4 8.5zM2604.1 151.2c3.5-2.7 6.9-6.9 11.9-5.8.4 0 .4-.4 0-.4-5-1.1-8.8 3.1-11.9 6.2-.4 0-.4 0 0 0zM2614.8 157c3.1-4.2 8.1-7.7 13.4-5 .4 0 .8-.4.4-.4-5.7-3.1-11.1.4-13.8 5.4-.3 0 0 0 0 0zM2589.5 133.2c.8 3.5 3.8 5.8 6.5 7.7.4 0 .4-.4.4-.4-2.7-2-5.7-3.9-6.9-7.3.4-.4 0 0 0 0zM2601.4 133.9c1.2 3.5 3.5 6.1 6.1 8.8.4.4.8 0 .4-.4-3-2.6-5-5.3-6.5-8.4 0 0-.4 0 0 0z"/>
      <path fill="#1E2022" d="M2611 137.8c.8 1.5 1.5 3.1 2.3 4.6.8 1.2 1.9 3.1 3.1 3.5h.4v-.4h-.4v.4c.4 0-1.2-1.9-1.2-1.9-.4-.8-.8-1.2-1.5-1.5-.8-2.1-1.9-3.6-2.7-4.7zM2619.1 141.6c2.3 3.8 5.4 6.9 8.8 9.6.4.4.8-.4.8-.8-3.9-2.3-6.6-5.7-9.6-8.8zM2607.9 122.4c6.1-.4 11.5 0 16.5 3.1.4.4.8-.4.4-.8-4.6-3.1-11.5-5-16.9-3.1-.3.4-.3.8 0 .8zM2617.2 132.4c3.1 0 5.8 0 8.4.8 2.7.8 5 1.5 7.7 2.3.4 0 .4-.4 0-.8-5-1.5-10.8-3.9-16.1-2.3zM2628.7 141.2c1.9 0 4.2.4 6.1.8 2.3.4 3.8 1.5 5.4 3.5.4.4.8 0 .4-.4-1.5-1.5-2.7-2.7-5-3.5-2.3-.4-4.6-.8-6.9-.4z"/>
      <path fill="#1E2022" d="M2620.2 115.5c0 2.3 1.2 4.6 2.3 6.5.8 1.2 1.2 3.5 2.7 3.8 0 0 .4 0 0-.4-2.7-2.2-2.7-6.8-5-9.9.4-.4 0-.4 0 0zM2629.4 117.8c.8 6.1 2.3 11.9 4.6 17.7 0 .4.8 0 .4 0-2.3-5.8-3.4-11.6-5-17.7zM2639.4 130.8c0 5 1.2 10.4 2.3 15.4 0 .4.8.4.8 0-1.5-5.4-2.3-10.4-3.1-15.4 0-.3 0-.3 0 0zM2639.4 105.1c3.8 4.2 6.5 8.4 8.8 13.4.4.4.8 0 .8-.4-2.3-4.9-5.4-9.1-9.6-13 0-.4 0 0 0 0z"/>
      <path fill="#1E2022" d="M2651.3 106.3c-1.9 3.8-2.3 8.8-2.3 13.1 0 .4.8.4.8 0 0-2.3.4-4.6.8-7.3 0-2 .7-3.9.7-5.8.4-.4 0-.4 0 0zM2644.8 120.9c2.7 4.2 4.6 8.4 6.1 13.1h.4c-.7-4.7-3.4-9.7-6.5-13.1 0-.4-.4 0 0 0zM2651.3 134.3c1.2-3.1 2.3-6.1 3.8-8.8 0-.4-.4-.4-.4-.4-1.5 2.7-3 5.7-3.4 9.2z"/>
    </g>
  </g>
  <path fill="#D4DEE8" d="M936 329.4S1336.5 81 1614.9 187.7s654.3 60.3 654.3 60.3v311H936V329.4z"/>
  <linearGradient id="d" x1="936" x2="2856" y1="-83.971" y2="-83.971" gradientTransform="matrix(1 0 0 -1 0 197.108)" gradientUnits="userSpaceOnUse">
    <stop offset="0" stop-color="#dae1e9"/>
    <stop offset="1" stop-color="#f0f1f3"/>
  </linearGradient>
  <path fill="url(#d)" d="M936 143.5s255.7 194.7 743 19.2c108.3-39.2 215.4-81.4 324.1-119.8 67.2-23.8 139-41.1 210.8-39.2 70.7 2.3 139.8 21.9 204.7 49.5 36.9 16.1 72.6 34.9 107.1 55.3 33 19.6 64.1 43 99.8 58 31.9 13.1 65.3 21.1 99.5 25.3 25 3.1 50.3 4.6 75.3 5.4 18.4.4 37.2.4 55.7.4v361H936V143.5z"/>
  <g>
    <path fill="#D1D3DB" d="M2361.8 288.7l-17.7-.4-1.5-1.2h-.4l88.3-49.9 4.6-1.9h-.8c1.5-.4 2.7-.8 3.5-1.2l16.1-8.4 5-2.7 21.9-6.9-17.3 11.9c-.4.8.8 1.2 2.7 1.5 2.7.4 8.4 0 12.3-1.2l43.4-10.8h-1.5l2.7-.8 43.4-5.4c-.8-.4-3.5-.4-6.5-.4l-8.4 1.2h-1.9c-1.5 0-3.8 0-5.8.4l-4.2.4-12.3.8c-3.5.4-6.9.8-9.6 1.5l-5.8 1.5h.8-1.9l-19.6 4.2 16.9-8.8c3.1-1.5 2.7-3.1-.8-3.8l-19.6-4.2c5-1.2 10-2.7 12.7-3.5 1.5-.4 1.9-.8 2.7-1.5l3.1-.4s6.9-1.5 7.3-2.3v-.4c2.7-1.2 4.6-1.9 7.3-3.1.8-.4 1.9-.8 2.3-1.2s.4-.4.4-.8.4-1.2.4-1.5c.4-.8-1.9-.8-4.2-1.2s-3.8-.8-6.5-.8c-1.9 0-4.2 0-6.1.4-.8 0-1.9.4-2.7.4h-3.8c-3.1 0-7.3.8-10 1.5-.4 0-.8.4-1.2.4s-1.2 0-1.5.4c-6.1 1.2-7.7 2.7-9.6 3.8-.8.4-1.9.8-2.3 1.5-1.5 0-3.1.4-3.1.4-3.8 1.2-3.5 2.3-3.5 2.3l2.3.4c-.4 0-.4.4-.8.4s-.8.4-1.2.4c-1.9.8-2.7 1.5-3.1 1.9l-3.5 1.5-41.1 4.6c-7.3.8-14.2 2.3-18.4 3.8l-22.3 8.8-.4-4.2h-1.9l1.2-1.5c.4-.8-.4-1.2-2.7-1.5l-8.8-.8-1.9-.4c-1.2-.4-2.7-.4-4.6-.4h-2.7l-4.2-1.2c-1.5-.4-4.6-.4-7.3.4l20 5.4-.8.8h-2.3l-5.4 10.8c-.4 1.2 3.1 1.5 8.1 1.2 3.1-.4 6.5-.8 9.6-1.5l26.5-8.8-5 2.3-4.2 1.9-2.3.8-15 6.1-8.4 3.5c-.8.4-1.5.8-1.2 1.2l-3.5 1.5-76.8 27.6-51.1 22.7h-2.3l-5.8 1.2-20.4.4c-5.4.4-6.5.8-10.4 1.9l-1.2.4h39.2l5-.8-1.9.8h13.1l8.1-3.5h-.8l23.4-9.6 25.3-10.4 67.2-20.4-.4.4-.4.4-25.7 20.4-31.1 19.2h-.4l-8.1 3.5h13.1l1.9-.8.8.8h39.2l.4-.4c1.5-.6 1.1-.6-2.3-1z"/>
  </g>
  <g>
    <path fill="#377DFF" d="M2241.6 54.4l-17.3 122.1-.4 99.5h26.1l5.4-86.8 24.6-87.9 22.3 89.8 13.4 84.9h27.7l-26.9-221.6z"/>
    <path fill="#2D1582" d="M2222.4 274.8l-4.2 4.2-21.1 2.3c-5 1.5-5.8 2.7-7.3 7.7l-.4 1.2h43.8l3.1-3.8v3.8h14.6v-15.7h-11.5l-17 .3zM2343.7 274.8l4.2 4.2 21.1 2.3c5 1.5 5.8 2.7 7.3 7.7l.4 1.2H2333l-3.1-3.8v3.8h-14.6v-15.7h11.5l16.9.3z"/>
    <path fill="#474963" d="M2269.2-86.1l-29.6 16.5 2.7 69.9L2240 46c-.4 4.6 3.5 8.4 8.1 8.4h61.1c5 0 8.4-4.2 8.1-8.8l-3.8-47.2 15-66-33-18.4-26.3-.1z"/>
    <path fill="#FEC55E" d="M2295.4-85l-13.1 23.8-13.1-23.8v-17.2h26.2z"/>
    <path fill="#4D5068" d="M2306.9-137.6c-.4-1.2-.8-2.3-1.2-3.1-1.2-1.9-2.3-4.2-3.1-6.1-1.9-3.8-3.8-3.1-7.3-4.2-3.1-1.2-6.1-3.1-9.6-3.5-2.3 0-4.2.8-6.1 1.5-.8.4-1.5.8-2.3 1.2-1.5.4-3.1 0-4.6 0-3.5 0-6.9 2.7-7.7 6.1 0 .4-.4 1.2-.4 1.5l-1.2 1.2c-4.6 4.2-1.9 11.5-1.2 16.9.4 3.1 0 6.1 2.7 8.4l-1.2-.4c3.1 3.1 6.9 4.6 11.1 5.4 4.2.8 8.4.8 12.7.8h15c.8 0 1.9 0 2.7-.8.8-.8 1.2-1.9 1.2-3.1.8-5.8.4-11.5.8-17.3-.3-1.8.1-3.3-.3-4.5z"/>
    <path fill="#191C3C" d="M2269.2-92.3l3.8 6.5c2.3 4.2 6.9 6.9 11.9 6.9 4.2 0 8.4-1.9 10.8-5.4V-102h-26.5v9.7z" opacity=".3"/>
    <path fill="#FEC55E" d="M2266.9-128.7v20c0 4.6 1.2 8.8 3.5 13.1l3.8 6.5c2.3 4.2 6.9 6.9 11.9 6.9 4.6 0 9.2-2.3 11.5-6.5l.8-1.2c2.3-3.8 3.8-8.8 3.8-13.4v-36.9h-34.6l-.7 11.5z"/>
    <path fill="#FEC55E" d="M2267.3-105.7l-3.8-2.3s-4.2-6.1-2.3-10.4c0 0 1.5-3.5 4.2-1.9l3.8 3.8-1.9 10.8zM2301.1-105.7l3.8-2.3s4.2-6.1 2.3-10.4c0 0-1.5-3.5-4.2-1.9l-3.8 3.8 1.9 10.8z"/>
    <path fill="#4D5068" d="M2265.8-125.3c.4 3.1.8 6.1.8 9.6 0 1.2-.4 5 1.9 3.8.8-.4 1.2-1.2 1.2-1.9.4-3.1-2.3-5.8-.8-8.4 1.2-1.9 3.5-3.5 3.8-5.8.4-1.5-.4-3.5-.8-5 0-1.2 0-2.7.8-3.8.8-1.2 2.3-1.5 3.5-1.2 1.2.3 1.9 1.5 3.1 2.3 2.3 1.9 5.4 2.7 8.1 1.5 1.5-.8 3.1-1.9 4.6-2.7 1.5-1.2 3.5-1.5 5-1.2 2.7.8 3.5 3.5 4.2 6.1.4 2.7 1.2 5.8.8 8.4-.4 2.3-1.5 4.2-1.9 6.5 0 .4-.4 1.2-.4 1.5 0 1.2.8 1.9 1.2 2.7 0 0 0 .4.4.4s.4 0 .8-.4c1.5-1.2 1.9-3.5 2.3-5.4.4-2.7 1.5-4.2.8-6.9-1.2-5.4.4-10.8-.8-16.1 0-.4-.4-1.2-.4-1.5-.4-.4-1.2-.8-1.5-1.2-7.7-2.7-15.7-2.3-23.8-1.9-2.7 0-5.8.4-8.1 1.9-2.7 1.9-4.2 5-5 8.4-.6 3.4-.2 6.9.2 10.3z"/>
    <path fill="#FEC55E" d="M2196.7-26.6l-1.2-3.5-35.3-22.7c1.9-1.9 5.4-2.3 7.7-.8l6.9 4.2 2.7-.4c1.9-.4 4.2 0 6.1 1.2l3.5 2.3 11.9 3.5c3.1.8 5.8 3.5 6.9 6.5l2.7 6.5-11.9 3.2zM2367.9-26.6l1.2-3.5 35.3-22.7c-1.9-1.9-5.4-2.3-7.7-.8l-6.9 4.2-2.7-.4c-1.9-.4-4.2 0-6.1 1.2l-3.5 2.3-11.9 3.5c-3.1.8-5.8 3.5-6.9 6.5l-2.7 6.5 11.9 3.2z"/>
    <path fill="#474963" d="M2269.2-86.1l-34.9 19.6c-6.1 3.5-10.4 9.6-10.8 16.9l-3.1 38-11.1-18.4-15 4.6 21.1 47.2c1.9 4.2 7.3 6.1 11.5 4.2 2.7-1.5 5.4-3.5 6.9-6.9l11.1-56.1 24.2-35.7v-13.4h.1zM2295.4-86.1l34.9 19.6c6.1 3.5 10.4 9.6 10.8 16.9l3.1 38 11.1-18.4 15 4.6-21.1 47.2c-1.9 4.2-7.3 6.1-11.5 4.2-2.7-1.5-5.4-3.5-6.9-6.9L2319.7-37l-24.2-35.7v-13.4h-.1z"/>
    <path fill="#2D1582" d="M2241.2 50.6h76v11.5h-76z"/>
    <path fill="#FEC55E" d="M2271.9 50.6h13.1v11.5h-13.1z"/>
    <path fill="#191C3C" d="M2313.8-1.6l6.9-30.7c-2.3 3.5-4.2 7.3-6.1 11.1-.8 1.5 0 3.1 1.2 3.8-1.5 3.5-7.3 9.2-9.6 11.5-1.9 1.9 3.5 2.3 5.8 1.5h.4c-1.5 2.7-3.1 5.4-5 7.7-1.2 1.5-4.2 3.8-2.3 3.5 1.5-.4 6.5.8 8.1.4-.8 1.9-1.2 3.5-1.9 5.4-.8 1.9.4 3.8 1.9 4.2-1.2 0 .4 10.8.8 11.9.8 3.5 1.5 5.8 3.1 8.1l-1.5-26.5v-.4l-1.8-11.5zM2248.9 5.3c-6.1-3.1-7.7-6.1-5.4-9.2 2.3.8 5.8 0 8.1.8 1.5.4.8-1.5-4.2-1.9.8 0-5.4-7.7-3.1-7.7 1.2 0 1.9-1.5 1.5-2.7-2.7-4.6-3.1-11.1-4.6-16.5l.8 23.4c.4.4 1.2.8 1.5 1.5-.4 0-1.2-.4-1.5-.4l.4 8.1v2.7c.4.4.4.8.8 1.2h-.8l-1.5 35.3c.4-.4.8-.8.8-1.2 0-7.3 2.3-13.4 3.1-20.4.4-2.3-1.5-10.8 3.5-9.6 1 0 2.1-2.7.6-3.4z" opacity=".17"/>
    <path fill="#FFF" d="M2269.2-86.1l-7.6 4.6 8.8 32.3 11.9-12zM2295.4-86.1l8 4.6-9.2 32.3-11.9-12z"/>
    <circle cx="2282.3" cy="-49.6" r="1.5" fill="#191C3C"/>
    <path fill="#191C3C" d="M2283.1-32c0 .8-.8 1.5-1.5 1.5-.8 0-1.5-.8-1.5-1.5 0-.8.8-1.5 1.5-1.5s1.5.8 1.5 1.5zM2282.3-14.7c0 .8-.8 1.5-1.5 1.5-.8 0-1.5-.8-1.5-1.5 0-.8.8-1.5 1.5-1.5 1.1.4 1.5.7 1.5 1.5z"/>
    <circle cx="2280.4" cy="3" r="1.5" fill="#191C3C"/>
    <circle cx="2279.6" cy="20.6" r="1.5" fill="#191C3C"/>
    <path fill="#191C3C" d="M2280.4 37.9c0 .8-.8 1.5-1.5 1.5-.8 0-1.5-.8-1.5-1.5s.8-1.5 1.5-1.5c1.1.4 1.5.8 1.5 1.5z"/>
    <path fill="#191C3C" d="M2255.4 189.2l-2.7 44.5c-.4.4-.8.4-1.2.8-.4-13.8-2.7-27.6-6.5-40.7 2.3-.8 4.6-2.3 6.1-4.2-1.5 0-3.1-.4-4.6-.4 1.2-.8 2.3-1.9 2.7-3.1h-10.4c9.6-2.3 16.9-11.5 16.5-21.1-1.2.4-2.7 0-3.8-.8 3.5-5.4 6.9-10.8 10.4-16.5.8-.8 1.2-1.9.8-3.1-1.9 1.5-3.8 2.7-6.1 3.1 2.7-3.1 5.4-6.5 6.5-10.4 1.5-4.6 1.2-9.6 1.9-14.2 1.5-8.8 6.9-16.5 14.6-20.7l-24.2 86.8zm25-85.2v-1.9l-.4-.4.4 2.3zM2342.6 269.5l-25.3-210.8h-.8l-.4 1.2c-1.2 13.8-1.2 27.6 1.2 41.1 1.2 8.1 3.1 16.1 1.2 24.2-.4 2.7-1.5 4.6-2.7 7.3-1.2 3.1-1.5 6.9-1.9 10-.8 3.5-1.2 6.5-1.5 10-.4 3.5-1.2 6.9-1.2 10.8 0 .4 13.4-2.7 15-4.2-1.2 6.1-3.5 12.7-5.8 18.4 1.5-3.1 3.5-6.1 6.1-8.4-2.3 4.2-3.5 8.8-4.2 13.8 2.7-.4 5.4-.8 8.4-.8-2.3 5.4-4.6 10.4-7.3 15.7 3.1-1.5 5.8-3.1 8.8-4.6-.8 13.1-1.5 26.1-2.3 38.8-.4 5-.4 10 1.5 14.6 1.5 3.5 3.8 6.1 5.8 9.2 3.1 5.4 4.6 11.9 3.8 18 .4-1.3.8-2.8 1.6-4.3z" opacity=".11"/>
    <path fill="#4D5068" d="M2276.9-100.3c-.4 1.2-.8 1.9-1.2 3.1-.4.8-1.5 1.9-2.7 1.5-1.2-.4-1.5-1.9-1.5-3.1-.4-3.5.4-6.5-.8-10-.4-.8-.8-1.5-.8-2.7v-2.7c0-.8-.8-1.5-1.5-1.5-.8 0-1.5.8-1.5 1.5v2.3c.8 3.8 1.2 7.3.8 10.8-.4 3.8 1.2 7.3 2.3 10.8.4 1.2.8 2.3 1.5 3.5 1.5 2.7 4.6 4.6 7.7 5.4 3.1.8 6.5.8 9.6.8 1.9 0 4.2 0 6.1-.8 5.8-2.3 7.3-13.1 8.1-18.4.4-2.3-.4-4.2-.4-6.5-.4-2.7.8-5.8 1.2-8.4 0-.4 0-.8-.4-1.2s-1.2-.4-1.2-.8c-.8.8-1.9 1.9-2.3 3.1v1.5c0 2.3 0 4.6-.4 6.5-.8 2.7-1.5 5-1.9 7.7 0 1.2-.4 2.7-1.9 3.1-.8.4-1.9-.4-2.3-1.5-.4-.8-.4-1.9-.4-3.1s0-1.9-.8-2.7c-.8-1.2-2.3-1.2-3.8-1.2-3.4-.1-9.2-2-11.5 3z"/>
  </g>
  <g>
    <path fill="#FFF" d="M1371.1-237c-2.3-6.5-8.4-11.5-15.7-11.5-3.1 0-6.1.8-8.4 2.7-1.5-10.4-10.4-18.4-21.5-18.4-9.6 0-18 6.5-20.7 15.4-1.2-.4-2.7-.4-3.8-.4-7.3 0-13.4 5.4-14.6 12.7h-2.3c-6.1 0-11.1 5-11.1 11.1v.8c0 6.1 5 11.1 11.1 11.1h87.2c6.1 0 11.1-5 11.1-11.1v-.8c-.2-6.6-5.2-11.6-11.3-11.6zM1164.5-296.2c-1.5-4.6-6.1-8.1-11.1-8.1-2.3 0-4.2.8-6.1 1.9-1.2-7.3-7.7-13.1-15.4-13.1-6.9 0-12.7 4.6-14.6 10.8-.8-.4-1.9-.4-2.7-.4-5.4 0-9.6 3.8-10.4 8.8h-1.9c-4.2 0-8.1 3.5-8.1 8.1v.8c0 4.2 3.5 8.1 8.1 8.1h62.2c4.2 0 8.1-3.5 8.1-8.1v-.8c-.4-4.5-3.9-8-8.1-8zM1485.5-323c-1.9-5.8-7.3-10-13.4-10-2.7 0-5.4.8-7.3 2.3-1.5-9.2-9.2-16.1-18.4-16.1-8.4 0-15.7 5.8-18 13.4-1.2-.4-2.3-.4-3.5-.4-6.5 0-11.9 4.6-12.7 10.8h-1.9c-5.4 0-9.6 4.2-9.6 9.6v.8c0 5.4 4.2 9.6 9.6 9.6h76c5.4 0 9.6-4.2 9.6-9.6v-.8c-.8-5.4-5-9.6-10.4-9.6zM1486.7-186.7c-1.2-3.1-3.8-5-6.9-5-1.5 0-2.7.4-3.8 1.2-.8-4.6-4.6-8.4-9.6-8.4-4.2 0-8.1 3.1-9.2 6.9-.4 0-1.2-.4-1.9-.4-3.5 0-6.1 2.3-6.5 5.8h-1.2c-2.7 0-5 2.3-5 5v.4c0 2.7 2.3 5 5 5h39.4c2.7 0 5-2.3 5-5v-.4c-.4-2.8-2.7-5.1-5.3-5.1z"/>
    <path fill="#DAE1E9" d="M2341.8-366h-.8c-3.1-10.4-12.3-17.7-23.4-17.7-5 0-9.2 1.5-13.1 3.8-2.3-16.1-16.5-28.4-33-28.4-15 0-27.6 10-31.9 23.4-1.9-.4-3.8-.8-6.1-.8-11.5 0-21.1 8.4-22.7 19.6h-3.8c-9.6 0-17.3 7.7-17.3 17.3v1.2c0 9.6 7.7 17.3 17.3 17.3h135.2c9.6 0 17.3-7.7 17.3-17.3v-1.2c-.4-9.6-8.5-17.2-17.7-17.2z"/>
    <path fill="#FFF" d="M2326.1-361.8h-.8c-2.7-8.8-10.8-15.7-20.7-15.7-4.2 0-8.4 1.2-11.5 3.5-2.3-14.2-14.6-25-29.2-25-13.4 0-24.6 8.8-28.4 20.7-1.5-.4-3.5-.8-5.4-.8-10 0-18.4 7.3-20 17.3h-3.1c-8.4 0-15 6.9-15 15v1.2c0 8.4 6.9 15 15 15h119c8.4 0 15-6.9 15-15v-1.2c.1-8.1-6.9-15-14.9-15z"/>
  </g>
  <g>
    <path fill="#FFF" d="M1370.7-307.3h-33l-15.4-30c-1.2-2.3.4-5 3.1-5h11.5c1.2 0 1.9.4 2.7 1.2l31.1 33.8z"/>
    <path fill="#FFF" d="M1370.7-307.3h-33l-15.4-30c-1.2-2.3.4-5 3.1-5h11.5c1.2 0 1.9.4 2.7 1.2l31.1 33.8z"/>
    <path fill="#DAE1E9" d="M1328.8-342.6h-3.5c-2.7 0-4.2 2.7-3.1 5l15.4 30h12.7l-21.1-33.8c0-.1 0-.5-.4-1.2z"/>
    <path fill="none" stroke="#DAE1E9" stroke-miterlimit="10" stroke-width="1.92" d="M1370.7-307.3h-33l-15.4-30c-1.2-2.3.4-5 3.1-5h11.5c1.2 0 1.9.4 2.7 1.2l31.1 33.8z"/>
    <path fill="#FFF" d="M1485.1-295.8h-3.1c-2.7-7.7-10-13.1-18.8-13.1h-134.4c0 18.4 15 33.4 33.4 33.4h122.9c5 0 9.2-4.2 9.2-9.2v-1.9c0-5-3.8-9.2-9.2-9.2z"/>
    <path fill="#DAE1E9" d="M1485.1-283.1h-122.9c-15.7 0-29.2-11.1-32.6-25.7h-1.2c0 18.4 15 33.4 33.4 33.4h122.9c5 0 9.2-4.2 9.2-9.2v-1.9c0-1.2-.4-1.9-.4-3.1-.7 3.8-4.2 6.5-8.4 6.5z"/>
    <path fill="none" stroke="#DAE1E9" stroke-miterlimit="10" stroke-width="1.92" d="M1485.1-295.8h-3.1c-2.7-7.7-10-13.1-18.8-13.1h-134.4c0 18.4 15 33.4 33.4 33.4h122.9c5 0 9.2-4.2 9.2-9.2v-1.9c0-5-3.8-9.2-9.2-9.2z"/>
    <path fill="#FFF" d="M1367.6-298.1h-38.8c-2.3 0-4.6-1.9-4.6-4.6v-1.5c0-2.3 1.9-4.6 4.6-4.6h38.8c2.3 0 4.6 1.9 4.6 4.6v1.5c-.4 2.7-2.3 4.6-4.6 4.6zM1442.9-271.2h-47.6c-2.3 0-4.6-1.9-4.6-4.6v-3.5c0-2.3 1.9-4.6 4.6-4.6h47.6c2.3 0 4.6 1.9 4.6 4.6v3.5c0 2.3-1.9 4.6-4.6 4.6z"/>
    <path fill="none" stroke="#DAE1E9" stroke-miterlimit="10" stroke-width="1.92" d="M1367.6-298.1h-38.8c-2.3 0-4.6-1.9-4.6-4.6v-1.5c0-2.3 1.9-4.6 4.6-4.6h38.8c2.3 0 4.6 1.9 4.6 4.6v1.5c-.4 2.7-2.3 4.6-4.6 4.6zM1442.9-271.2h-47.6c-2.3 0-4.6-1.9-4.6-4.6v-3.5c0-2.3 1.9-4.6 4.6-4.6h47.6c2.3 0 4.6 1.9 4.6 4.6v3.5c0 2.3-1.9 4.6-4.6 4.6z"/>
    <path fill="none" stroke="#DAE1E9" stroke-miterlimit="10" stroke-width="5.76" d="M1454.8-298.1h16.9M1435.2-298.1h8.4M1421.8-298.1h8.4M1408.3-298.1h8.1M1394.5-298.1h8.4M1381.1-298.1h8.4"/>
  </g>
  <g>
    <path fill="#DAE1E9" d="M2692-300.8h7.7v-.4c0-2.7 3.8-7.3 6.1-9.6 2.7-3.1 4.6-7.7 4.6-12.3 0-10.4-8.4-18.4-18.4-18.4v40.7z"/>
    <path fill="#FFF" d="M2692-300.8h-7.7v-.4c0-2.7-3.8-7.3-6.1-9.6-2.7-3.1-4.6-7.7-4.6-12.3 0-10.4 8.4-18.4 18.4-18.4v40.7z"/>
    <path fill="#FFF" d="M2692-300.8h4.6v-.4c0-2.7 2.3-7.3 3.5-9.6 1.5-3.1 2.7-7.7 2.7-12.3 0-10.4-4.6-18.4-10.8-18.4v40.7z"/>
    <path fill="#DAE1E9" d="M2692-300.8h-4.6v-.4c0-2.7-2.3-7.3-3.5-9.6-1.5-3.1-2.7-7.7-2.7-12.3 0-10.4 4.6-18.4 10.8-18.4v40.7z"/>
    <path fill="#FFF" d="M2694.3-276.2h-3.5c-2.7 0-5-2.3-5-5v-6.5h13.4v6.5c.1 2.7-2.2 5-4.9 5z"/>
    <path fill="#E4EDF7" d="M2687.4-281.2v-6.5h-1.9v6.5c0 2.7 2.3 5 5 5h1.9c-2.7 0-5-2.3-5-5z"/>
    <path fill="#E4EDF7" d="M2696.3-287.7v6.5c0 2.7-2.3 5-5 5h3.1c2.7 0 5-2.3 5-5v-6.5h-3.1z"/>
    <path fill="#DAE1E9" d="M2685.5-284.6l13.8-2v-1.1h-13.8z" opacity=".3"/>
    <path fill="none" stroke="#DAE1E9" stroke-miterlimit="10" stroke-width="1.881" d="M2694.3-276.2h-3.5c-2.7 0-5-2.3-5-5v-6.5h13.4v6.5c.1 2.7-2.2 5-4.9 5z"/>
    <path fill="#FFF" d="M2699.7-287.7h-14.6c-.8 0-1.2-.4-1.2-1.2 0-.8.4-1.2 1.2-1.2h14.6c.8 0 1.2.4 1.2 1.2 0 .8-.4 1.2-1.2 1.2z"/>
    <path fill="none" stroke="#DAE1E9" stroke-miterlimit="10" stroke-width="1.881" d="M2699.7-287.7h-14.6c-.8 0-1.2-.4-1.2-1.2 0-.8.4-1.2 1.2-1.2h14.6c.8 0 1.2.4 1.2 1.2 0 .8-.4 1.2-1.2 1.2zM2689.7-301.2v11.2M2694.7-301.2v11.2M2684.4-301.2l3.4 11.2M2700.1-300.8L2697-290"/>
  </g>
  <g>
    <path fill="#00C671" d="M1189.1 271s-2 .8 0 0zm16.1-16.1c-16.9-17.7-37.6-32.3-60.7-38.8-23.4-6.9-49.9-4.6-70.3 9.2 29.2 30.7 72.2 48 114.8 45.7 6.1.4 24.2.8 29.2-2.3 1.2-.8-2.7-5.4-6.1-9.2-1.5-1.2-5.8-3.5-6.9-4.6z"/>
    <path fill="#191C3C" d="M1211.7 259.5c-1.2-1.2-5.4-3.5-6.1-4.6-16.9-17.7-37.6-32.3-60.7-38.8-11.5-3.1-23.4-4.2-34.9-3.1 13.4.4 26.9 4.2 38.8 10.4 21.1 10.8 38 28.4 51.5 48.4 6.9 0 15.4-.8 18-2.3 1.1-1.9-3.1-6.2-6.6-10z" opacity=".2"/>
    <path fill="#00C671" d="M1225.5 218c3.5 9.6 8.1 24.2 3.8 33.8-3.1 7.3-9.2 18.4-16.5 16.9-6.1-8.1-18.8-25-27.3-31.5-6.9-5.4-17.3-11.1-23.8-16.9-16.5-14.6-22.7-34.6-31.9-54.5 16.5 1.5 33 4.6 49.2 9.2 10.4 3.1 21.1 6.9 29.2 14.2 8.5 7.3 13.5 18.1 17.3 28.8z"/>
    <path fill="#F5F7F9" d="M1190.2 237.6c-5.8-6.5-15.4-14.2-20.4-20.7-11.1-14.6-15-31.1-18.8-48.8-6.9-1.2-13.4-1.9-20.4-2.7 9.2 20 15.4 39.9 31.9 54.5 6.1 5.8 16.9 11.5 23.8 16.9 3.8 3.1 8.8 8.4 13.4 14.2-3.3-5-6.8-10.3-9.5-13.4z" opacity=".08"/>
    <path fill="#00C671" d="M1234 165.4c5.8 15.4 5.4 31.9 5.4 48 0 6.1 1.5 16.5 0 22.3-1.2 5-4.6 9.6-7.3 13.8-2.7 3.5-5.8-.8-8.1-4.2-1.9-3.5-5.8-9.2-4.2-8.1-2.7-9.2-4.2-15.4-6.9-24.6-2.3-7.3-4.6-14.6-6.1-21.9-3.1-18.8.4-37.6 4.2-56.1 10.3 8.2 18.4 18.9 23 30.8z"/>
    <path fill="#1E2022" d="M1086.1 228c21.1-.8 41.9 0 62.2 5.8 19.2 5.4 36.9 14.6 53 26.9.8.8 1.5-.8.8-1.2-15.7-11.9-34.2-21.1-53.4-26.5-20.7-5.8-41.1-6.2-62.6-5-.3-.4-.3 0 0 0zM1137.2 171.9c16.9 8.1 32.6 18.8 46.1 31.9 14.6 14.2 24.2 31.1 35.3 48 0 .4 1.2 0 .8-.4-18.8-34.9-44.9-64.1-81.8-79.9-.4-.3-.8.1-.4.4zM1211.7 142.4c11.1 33 24.2 64.5 16.5 99.8 0 .8.8 1.2 1.2 0 7.3-33.4-3.1-69.5-17.7-99.8 0-.4 0-.4 0 0z"/>
    <path fill="#1E2022" d="M1101.5 239.9c2.3-2.3 4.6-4.6 6.9-6.5 2.7-1.9 5.4-3.5 8.4-5v-.4c-6.1 1.9-12.2 6.5-15.3 11.9-.4 0-.4 0 0 0zM1118.4 248.4c5.8-10.8 14.6-13.8 26.1-15.4.8 0 .8-1.2 0-1.2-11.1 1.6-22.3 5-26.1 16.6zM1139.5 249.9c6.9-5.4 13.4-13.4 23-10.8.4 0 .8-.8 0-.8-9.2-2.6-16.8 5.4-23 11.6-.4 0-.4 0 0 0zM1160.3 260.6c6.1-8.1 15.4-15.4 25.7-9.6.8 0 1.2-.8.4-.8-10-5.3-20.8 1.2-26.1 10.4-.4 0 0 .4 0 0zM1111.9 214.6c1.2 6.9 7.3 10.8 12.7 14.6.4 0 .8-.4.4-.8-5.4-3.5-10.8-7.3-13.1-13.8.4 0 0 0 0 0z"/>
    <path fill="#1E2022" d="M1134.1 216.1c2.3 6.5 6.9 12.3 11.9 16.9.4.4 1.2 0 .8-.8-5.4-4.6-9.2-10-12.7-16.1zM1153 223.8c1.2 3.1 2.7 5.8 4.6 8.4 1.5 1.9 3.8 5.8 6.1 6.5h.8v-.8h-.8v.8c.8 0-2.3-3.5-2.3-3.5-.8-1.2-1.9-1.9-2.7-3.1-1.9-2.9-3.8-5.6-5.7-8.3.3-.4 0-.4 0 0zM1168.7 231.5c4.2 6.9 10.8 13.4 16.9 18.4.8.8 1.9-.4 1.2-1.2-6.9-5.4-11.9-11.5-17.7-17.7 0 .1-.8.5-.4.5zM1147.2 193.8c11.9-.8 21.9 0 32.3 6.1.8.4 1.2-.8.8-1.2-9.2-5.8-22.3-9.6-33-5.8-.9.5-.9.9-.1.9zM1165.2 213.4c5.8 0 11.1 0 16.5 1.2 5 1.2 9.6 3.1 14.6 4.6.8 0 .8-.8 0-1.2-10-3.5-21.1-8.1-31.9-5.4l.8.8zM1187.1 230.7c3.8 0 8.1.8 11.9 1.2 4.6.8 7.3 3.1 10.4 6.5.4.4 1.2 0 .8-.8-2.7-3.1-5.4-5.4-9.6-6.5-4.6-.8-9.2-1.2-13.5-.4 0-.4 0 0 0 0z"/>
    <path fill="#1E2022" d="M1171 180.4c0 4.2 2.3 8.4 4.2 12.7 1.2 2.3 1.9 6.9 5.4 7.3 0 0 .4 0 0-.4-5.4-4.6-5.4-13.5-9.6-19.6.4-.4 0-.4 0 0zM1188.7 185.4c1.2 11.9 4.6 23.4 8.8 34.2 0 .4 1.2 0 .8 0-4.3-11.2-6.6-22.3-9.6-34.2zM1207.9 210.3c0 10 2.3 20 4.2 30 0 .8 1.2.4 1.2 0-1.9-10-3.1-19.6-4.6-29.6-.4-.7-.8-.7-.8-.4zM1208.3 160.8c6.9 8.1 12.7 16.5 17.3 26.1.4.8 1.5 0 1.2-.8-4.6-9.6-10.4-18.4-17.7-26.1-.8 0-1.2.4-.8.8z"/>
    <path fill="#1E2022" d="M1230.9 162.7c-3.5 7.3-4.2 17.3-4.6 25.3 0 .8 1.2.8 1.2 0 0-4.6.8-9.2 1.5-14.2.8-3.8 1.9-7.3 2.3-11.5.4 0-.4 0-.4.4zM1218.2 191.1c5.4 8.1 8.4 16.5 12.3 25.3h.4c-1.1-9.1-6.1-18.7-12.7-25.3 0-.3-.3-.3 0 0zM1231.3 216.9c2.3-5.8 4.2-11.5 7.3-16.9 0-.4-.4-.8-.8-.4-2.7 5.4-6.1 11.1-6.5 17.3-.4.3-.4.3 0 0z"/>
  </g>
  <g>
    <path fill="#AAB2BA" d="M1201.3 265.6l3.1 16.2h47.2l-.3-8.1-44.2-10.8z" opacity=".2"/>
    <path fill="#FEC55E" d="M1233.6 249.1l-16.9-1.1 13.4-15.4zM1220.2 264.1l-16.6-1.2 13.1-14.9z"/>
    <path fill="#FEC55E" d="M1252.8 279.1h-46.1l40-45.3z"/>
    <path fill="#FED17E" d="M1252.8 279.1l-32.6-15 13.4-15.4zM1203.6 262.9l3.1 16.2 13.1-15z"/>
    <path fill="#FED17E" d="M1216.7 248l3.5 16.1 13.4-15zM1230.1 232.6l3.5 16.1 13.1-14.9z"/>
  </g>
  <path fill="#D1D3DB" d="M2050.8 115.9h-.8c-1.5 0-2.3-.8-2.7-1.5 0-.8.8-1.9 1.5-3.1l3.8-3.8c.8-.4 1.2-1.2 1.9-1.5.4-.4.4-.8.8-1.2 1.2-1.5 3.5-3.1 4.6-5 .4-.4.4-.8.4-1.2-.4-.4-1.5-.4-2.7-.4-1.2.4-1.9.8-2.7 1.2V99c-.4 0-.8-.4-1.5 0h-.4c-.4 0-.8.4-.8.4-.4 0-.4-.4-.8-.4-.8-.4-1.9-.4-2.7-.4-3.1-.4-6.5-.4-10.4.4h-1.2l.8-.8c.4-.4 0-.8-.8-.4h-1.2-.8l-15.7 1.9c-.4 0-1.2.4-1.2.4l-4.2 3.8c-.4.4 0 .8.8.4l9.2.4.8-.4-3.8 3.8c-.8.8-.4 1.2 1.2 1.2h4.2l-2.3 2.3-9.2.8-11.9.8-.4.4-13.4-.4-5.4-10.4 1.5-2.3-.4-2.3 1.5-1.9-.4-1.9c-1.2.4-1.5 1.2-1.5 1.5v.4l-1.5 1.9h-.4v-.8l-3.5-1.9-.4.4c-.4.4-.4.4 0 .8l2.3 1.5v.4l-.4.4-.8-.8-4.6-.8-.8.8 3.1.4 1.5.8-.8.8-5.4-.8v.4l.4.4 3.8.8.4 2.3 1.2 1.2.8 11.5 17.7 1.5-.4.4 7.3 1.5-4.2 3.8c-1.5 1.5-2.3 2.7-3.1 4.2l-.4 1.5-18.4 16.9h.4l-1.2.8-26.1 17.3-5 17.7-1.2 1.2-10 1.9-8.8 1.5h-.4c-.4.4-2.3 2.3 5 1.9.8 0 1.5.4 2.7.4 6.1 0 18.8-.4 18.8-.4 1.2-.4 2.3-1.2 2.7-1.5l.8-.8s0-.4.4-.4c0-.4 0-.4-.4-.8l3.5-3.5h-.8.8s20.4-14.6 22.3-20.7l15.7-12.3.8-.8-.4 1.2c3.5-1.5 6.5-3.1 8.4-5l10.4-10.4c.8 0 1.5-.4 2.3-.4l3.1-1.2 10.8-8.4h1.2l9.2-8.4c.8-.8.4-1.2-.4-1.2l-8.4-2.3 3.1-2.7c.4 0 1.2-.4 1.9-.4 1.5-.4 3.5-1.2 5-1.5-.8.4-1.5.8-1.9 1.2-1.5 1.2-3.1 2.3-2.7 3.5 0 .4.4.8.8.8 1.2.8 2.7 1.2 4.2 1.5h.4c0-.4 0-.8.4-1.2.8.4 1.5.8 2.3 1.2.1 2.7 1.2 2.7 3.2 2.3 0 .4-.4 0 0 0-.4 0 0 0 0 0zm-30.4.7zm-51.4 47.7l-.4 1.2v.4l-3.8 4.2-1.9 2.3c.8-1.5.8-3.1-.4-4.2l6.5-3.9z"/>
  <g>
    <path fill="#E0A546" d="M1945.5 172.3l-.8 5.4-14.2 6.9-10.8 2.3s.8 4.6 9.2 5 25-.8 25-.8c1.2-1.2 1.5-2.7 1.5-4.2V185c0-1.2-.8-2.3-1.9-2.7v-8.8l-8-1.2z"/>
    <path fill="#19A0FF" d="M1955.9 185c0-.4 0-.8-.4-1.2-.8.4-2.3 2.7-3.1 2.7-5.4 0-11.5.8-16.1.4-4.6 0-7.3-.4-8.4-1.5l-8.1 1.9s.8 4.6 9.2 5c8.4.4 25-.8 25-.8 1.2-1.2 1.5-2.7 1.5-4.2l.4-2.3z"/>
    <path fill="#FEC55E" d="M1936.3 174.2v2.7l-21.1 8.8s-1.2 6.9 11.9 5.4l23-4.6s.8-2.7 1.2-5c.4-1.5-.4-3.1-1.5-3.8l-4.6-4.6-8.9 1.1z"/>
    <path fill="#377DFF" d="M1951.3 179.2c-1.2 1.9-2.7 3.1-5 3.8l-8.8 2.7c-11.1 1.2-12.3-2.7-12.3-4.2l-10 4.2s-1.2 6.9 11.9 5.4l23-4.6s.8-2.7 1.2-5c.8-.7.4-1.5 0-2.3z"/>
    <path fill="#3A3C4E" d="M1957.4 82.5l-3.8 37.6c6.9 16.1.4 53.4.4 53.4h-8.4l-5-48-5-13.4 21.8-29.6z"/>
    <g fill="#191C3C">
      <path d="M1939.8 124.3l13.4-32.6 3.1-2.7.4-.4.8-6.1-22.3 29.6 4.6 12.2zM1945.2 173.5h2.3s1.9-23.8-6.5-37.6l4.2 37.6z" opacity=".3"/>
    </g>
    <path fill="#4D5068" d="M1930.6 69.4l-13.1 59.9 19.2 44.5 9.2-.8s2.3-31.1-10.4-42.6l15.7-38.8 3.1-2.7c2.7-2.3 4.6-5.8 4.6-9.2V66.3l-28.3 3.1z"/>
    <path fill="#DD9C3E" d="M1972.4-5.1c-1.5-2.3-1.9-5-2.3-7.3-.4-3.1-.4-6.1 0-9.2 0-1.2.4-2.7 0-3.8 0-.8-.4-1.9-.8-2.7-.8-3.8-.4-8.4-1.2-12.3 0-.8-.4-1.9-1.2-2.7-1.2-1.2-2.7-1.2-3.8-.8-1.2.8-1.9 1.9-2.3 3.5v-.4c-1.9 5-.8 10.4-1.9 15.7-.8 3.1-1.5 5.8-2.3 8.8-.4 3.1-.4 6.5 1.5 8.8.8.8 1.5 1.5 2.7 2.3 2.7 1.9 5.4 3.1 8.4 4.2-.8-.8-1.5-1.9-1.5-3.1 1.5 1.2 3.1 2.3 5 3.1 1.9.8 3.8.8 5.8 0-1.9-.2-4.5-1.8-6.1-4.1z"/>
    <path fill="#BF9447" d="M1964-4.3c-.8-.8-1.9-1.2-2.7-2.3-1.9-2.3-2.3-5.8-1.5-8.8.4-3.1 1.5-5.8 2.3-8.8.8-5 0-14.6 0-14.6 0-1.5-.8-1.9-.8-1.9-1.9 5-.8 10.4-1.9 15.7-.8 3.1-1.5 5.8-2.3 8.8-.4 3.1-.4 6.5 1.5 8.8.8.8 1.5 1.5 2.7 2.3 2.7 1.9 5.4 3.1 8.4 4.2l-.4-.4c-1.9-1.1-3.8-1.9-5.3-3zM1978.6-1.2h.4-1.2.8zM1970.9-3.6c0 .4 0 .8.4 1.2.8.4 1.5.8 2.3 1.2.8 0 1.2.4 1.5.4-1.9-.8-3.1-1.6-4.2-2.8z"/>
    <path fill="#DD9C3E" d="M1960.9-40c-.8.4-1.5.4-2.3 0-.8-.4-1.2-.8-1.9-1.2-1.2-.8-3.1-.8-4.6-1.2-5-.8-10.4-1.2-14.2 1.5h-.4c3.8 9.2 8.4 18.4 13.1 27.6.8-.8 1.9-1.5 2.7-2.3 3.8-3.5 8.1-7.3 8.8-12.3.3-4.1-1.6-7.9-1.2-12.1z"/>
    <path fill="#FEC55E" d="M1938.2-19.3h13.4V7.6h-13.4z"/>
    <path fill="#191C3C" d="M1943.6-11.6l-5-1.2v-6.9h13.4v1.2c.1 4.6-4.2 8-8.4 6.9z" opacity=".3"/>
    <path fill="#FEC55E" d="M1929.4-27.4v11.9c0 1.9 1.5 3.1 3.1 3.1h8.1c5 0 8.8-3.8 8.8-8.8V-31.6c0-1.5-.8-3.1-1.9-3.8l-5.4-4.2c-1.5-1.2-3.5-1.2-5-.4-2.3 1.1-5.4 4.6-7.7 12.6z"/>
    <path fill="#474963" d="M1936.7-41.2l5 2.7c2.3 1.2 3.8 3.1 3.8 5.8v1.9l-12.3-2.7 3.5-7.7z"/>
    <path fill="#474963" d="M1915.6-25.8l13.1 1.2 1.2-1.2 5 .8s5.8 1.9 11.9-3.1l1.2-4.2-15.4-7.7-17 14.2z"/>
    <path fill="#474963" d="M1918.3-28.1l18.4-5c.8 0 1.2-.8 1.2-1.2V-42c0-.8-.8-1.5-1.9-1.2l-18.4 5c-.8 0-1.2.8-1.2 1.2v7.7c0 .4.7 1.2 1.9 1.2z"/>
    <path fill="#191C3C" d="M1936.7-33.1l23.8 11.5s.4 0 .4-.4v-4.6l-24.2-11.9v5.4z"/>
    <path fill="#474963" d="M1958.6-22.4s.4 0 .4-.4v-4.6l1.5.8v4.6c0 .4-.4.4-.4.4l-1.5-.8zM1955.5-23.9s.4 0 .4-.4v-4.6l1.5.8v4.6c0 .4-.4.4-.4.4l-1.5-.8zM1952.1-25.4s.4 0 .4-.4v-4.6l1.5.8v4.6c0 .4-.4.4-.4.4l-1.5-.8zM1948.6-27.4s.4 0 .4-.4v-4.6l1.5.8v4.6c0 .4-.4.4-.4.4l-1.5-.8zM1945.2-28.9s.4 0 .4-.4v-4.6l1.5.8v4.6c0 .4-.4.4-.4.4l-1.5-.8zM1941.7-30.4s.4 0 .4-.4V-35l1.5.8v4.6c0 .4-.4.4-.4.4l-1.5-1.2zM1938.2-32.4s.4 0 .4-.4v-4.6l1.5.8v4.6c0 .4-.4.4-.4.4l-1.5-.8z"/>
    <path fill="#191C3C" d="M1915.6-25.8l18.4-5c.8 0 1.2-.8 1.2-1.2v-10.4c0-.8-.8-1.5-1.9-1.2l-18.4 5c-.8 0-1.2.8-1.2 1.2V-27c.3.8 1.1 1.6 1.9 1.2z"/>
    <ellipse cx="1923.6" cy="-34.7" fill="#474963" rx="1.2" ry="1.9"/>
    <path fill="#FEC55E" d="M1949.8-26.2s3.1-2.7 4.6 0v4.2c0 1.5-.8 3.1-2.3 3.8-.8.4-1.5.4-2.7 0l.4-8z"/>
    <path fill="#191C3C" d="M1960.9-36.6l-2.7-2.7c-.8-.8-.4-1.5 0-1.9l.4-.4c.8-.8 1.5-.4 1.9 0l2.7 2.7c.8.8.4 1.5 0 1.9l-.4.4c-.4.4-1.1.4-1.9 0z"/>
    <path fill="#191C3C" d="M1955.5 87.5c1.9-1.9 3.1-5 3.1-7.7V66.4l-28 3.1-3.5 15.4v1.5c13.4 3.1 23.8-10.4 23.8-10.4l4.6 11.5z" opacity=".3"/>
    <path fill="#377DFF" d="M1923.6-2v26.9c0 3.5.8 6.9 1.9 10.4l1.5 3.8v43.4c13.4 3.1 23.8-10.4 23.8-10.4l6.9 17.7c2.7-3.8 4.2-8.4 3.8-12.7l-1.9-39.6.8-39.6-8.4 1.9-1.2 1.2c-3.5 3.8-9.6 3.5-12.7-1.2L1923.6-2z"/>
    <path fill="#FEC55E" d="M1859.5-34.3l-8.1-1.5.8 1.2c0 .4.4.4.8.8l6.5 1.9 3.8 5.8 3.5 3.1 18.4 30 26.1 3.8V-2.3l-19.2-1.2-22.3-26.1-.8-5.4-3.5-5.4-1.2-5.4-3.8-5c-.8 1.2-.8 2.7.4 3.8l.8 1.2 1.2 5-.8-.4-.8-1.5-7.3-4.6v1.2c0 .8.4 1.2.8 1.9l5.4 4.2.4 1.2-.4.8-2.3-1.9-6.9-1.5v1.9l5 1.2 3.5 2.3"/>
    <path fill="#191C3C" d="M1869.1-35l-2.7-.8c-.8 0-1.2 0-1.5.4l-2.3 1.9v.4l2.3-1.5c.4-.4 1.2-.4 1.5-.4h2.7zM1908.7 9.9l3 .4V-2.4h-1.1z" opacity=".3"/>
    <path fill="#377DFF" d="M1938.2-7l-11.1 1.9-15.4 1.5v15l11.9 3.9 14.6-15.4z"/>
    <path fill="#3A3C4E" d="M1959.7 37.5V36c-.4-.8-.8-1.2-1.2-1.5.4-.4.8-.8 1.2-.8v-6.5c-.4 0-.8 0-.8-.4.4-.8.4-1.5-.4-2.3.4-.4.8-.8 1.5-.8v-3.1c-.4-.4-1.2-.4-1.9 0-1.2.8-2.7 1.5-3.8 2.3-1.2.8-1.2 2.3 0 3.1-1.2.8-1.2 2.7.4 3.1 1.2.4 2.7.8 3.8 1.2-1.2.8-3.1 1.5-3.8 2.3-.8.8-.8 1.5-.4 2.3 0 .4.8 1.2 1.2 1.5 1.5 4.2 0 3.5.4 6.5 0 1.2.4 2.3.8 3.5-1.9-1.2 3.1 1.2 1.9-1.2-1.2-2.3 1.1-7.7 1.1-7.7z" opacity=".1"/>
    <path fill="#3A3C4E" d="M1958.6 26l-1.5 13.4-11.5-6.1-.8-7.7-3.1-3.1-1.2-4.6-4.6-5.4c-.8 1.2-.4 2.7.4 3.8l1.5 2.7v6.5l-1.2.4-3.8-5.4c-1.2 1.2-1.2 2.7-.8 4.2l8.4 13.4 20 14.6-.8-15V26.2h-1.2l.2-.2z" opacity=".2"/>
    <path fill="#FEC55E" d="M1967.4 24.1l-2.3 21.5-2.3 3.1c-1.2 1.5-3.1 1.9-4.6.8l-17.7-13.8-8.4-13.4c-.8-1.2-.8-3.1.8-4.2l3.8 5.4 1.2-.4v-6.5l-2.3-3.5c-.8-1.2-.8-2.3 0-3.1l.4-.4 4.6 6.1 1.2 4.6 3.1 3.1.8 7.7 11.5 6.1 1.5-13.4 8.7.3z"/>
    <path fill="#191C3C" d="M1967.4 24.1h-8.8V26h8.4z" opacity=".3"/>
    <path fill="#377DFF" d="M1952.1-7l15 6.1c1.2.8 2.3 1.9 2.3 3.1v21.5h-11.9v-9.6l-5-14.6V-7h-.4z"/>
  </g>
</svg>