<svg width="172" height="172" xmlns="http://www.w3.org/2000/svg" xmlns:svg="http://www.w3.org/2000/svg">

 <g>
  <title>Layer 1</title>
  <g id="svg_1" text-anchor="none" font-size="none" font-weight="none" font-family="none" stroke-dashoffset="0" stroke-miterlimit="10" fill-rule="nonzero" fill="none">
   <path id="svg_2" fill="none" d="m0,172l0,-172l172,0l0,172l-172,0z"/>
   <path id="svg_3" fill="#009a44" d="m86,172c-47.49649,0 -86,-38.50351 -86,-86l0,0c0,-47.49649 38.50351,-86 86,-86l0,0c47.49649,0 86,38.50351 86,86l0,0c0,47.49649 -38.50351,86 -86,86z"/>
   <g id="svg_4">
    <path id="svg_5" fill="#ffffff" d="m86,141.9c-30.82455,0 -55.9,-25.07545 -55.9,-55.9c0,-30.82455 25.07545,-55.9 55.9,-55.9c30.82455,0 55.9,25.07545 55.9,55.9c0,30.82455 -25.07545,55.9 -55.9,55.9zm0,-107.5c-28.45095,0 -51.6,23.14905 -51.6,51.6c0,28.45095 23.14905,51.6 51.6,51.6c28.45095,0 51.6,-23.14905 51.6,-51.6c0,-28.45095 -23.14905,-51.6 -51.6,-51.6z"/>
    <path id="svg_6" fill="#ffffff" d="m86,129c-23.7102,0 -43,-19.2898 -43,-43c0,-23.7102 19.2898,-43 43,-43c23.7102,0 43,19.2898 43,43c0,23.7102 -19.2898,43 -43,43zm0,-81.7c-21.33875,0 -38.7,17.36125 -38.7,38.7c0,21.33875 17.36125,38.7 38.7,38.7c21.33875,0 38.7,-17.36125 38.7,-38.7c0,-21.33875 -17.36125,-38.7 -38.7,-38.7z"/>
    <path id="svg_7" fill="#ffffff" d="m107.5,70.95c0,1.1868 -0.9632,2.15 -2.15,2.15l-38.7,0c-1.1868,0 -2.15,-0.9632 -2.15,-2.15l0,-4.3c0,-1.1868 0.9632,-2.15 2.15,-2.15l38.7,0c1.1868,0 2.15,0.9632 2.15,2.15l0,4.3z"/>
    <path id="svg_8" fill="#ffffff" d="m107.5,88.15c0,1.1868 -0.9632,2.15 -2.15,2.15l-38.7,0c-1.1868,0 -2.15,-0.9632 -2.15,-2.15l0,-4.3c0,-1.1868 0.9632,-2.15 2.15,-2.15l38.7,0c1.1868,0 2.15,0.9632 2.15,2.15l0,4.3z"/>
    <path id="svg_9" fill="#ffffff" d="m107.5,105.35c0,1.1868 -0.9632,2.15 -2.15,2.15l-38.7,0c-1.1868,0 -2.15,-0.9632 -2.15,-2.15l0,-4.3c0,-1.1868 0.9632,-2.15 2.15,-2.15l38.7,0c1.1868,0 2.15,0.9632 2.15,2.15l0,4.3z"/>
   </g>
  </g>
 </g>
</svg>