<?xml version="1.0" encoding="UTF-8"?>
<svg width="22px" height="22px" viewBox="0 0 42 42" version="1.1" xmlns="http://www.w3.org/2000/svg" xmlns:xlink="http://www.w3.org/1999/xlink">z
    <!-- Generator: Sketch 50.2 (55047) - http://www.bohemiancoding.com/sketch -->
    <title>plusEighteen</title>
    <desc>Created with Sketch.</desc>
    <defs></defs>
    <g id="Wagering-journey---desktop" stroke="none" stroke-width="1" fill="none" fill-rule="evenodd">
        <g id="plusEighteen">
            <ellipse id="Oval-2" fill="#FF5500" cx="21" cy="21.0081153" rx="21" ry="21.0081153"></ellipse>
            <path d="M14.3867188,30 L11,30 L11,16.9453125 L6.95703125,18.1992188 L6.95703125,15.4453125 L14.0234375,12.9140625 L14.3867188,12.9140625 L14.3867188,30 Z M28.8007812,17.4726562 C28.8007812,18.3007854 28.5937521,19.035153 28.1796875,19.6757812 C27.7656229,20.3164095 27.1953161,20.8281231 26.46875,21.2109375 C27.2968791,21.609377 27.9531226,22.1581996 28.4375,22.8574219 C28.9218774,23.5566441 29.1640625,24.3789015 29.1640625,25.3242188 C29.1640625,26.8398513 28.6484427,28.037105 27.6171875,28.9160156 C26.5859323,29.7949263 25.1836026,30.234375 23.4101562,30.234375 C21.6367099,30.234375 20.2304739,29.7929732 19.1914062,28.9101562 C18.1523386,28.0273393 17.6328125,26.8320388 17.6328125,25.3242188 C17.6328125,24.3789015 17.8749976,23.554691 18.359375,22.8515625 C18.8437524,22.148434 19.4960896,21.6015645 20.3164062,21.2109375 C19.5898401,20.8281231 19.0214864,20.3164095 18.6113281,19.6757812 C18.2011698,19.035153 17.9960938,18.3007854 17.9960938,17.4726562 C17.9960938,16.019524 18.4804639,14.8613324 19.4492188,13.9980469 C20.4179736,13.1347613 21.7343667,12.703125 23.3984375,12.703125 C25.0546958,12.703125 26.3691358,13.1308551 27.3417969,13.9863281 C28.314458,14.8418012 28.8007812,16.0038989 28.8007812,17.4726562 Z M25.765625,25.078125 C25.765625,24.3359338 25.5507834,23.7421897 25.1210938,23.296875 C24.6914041,22.8515603 24.1132849,22.6289062 23.3867188,22.6289062 C22.6679652,22.6289062 22.0937521,22.8496072 21.6640625,23.2910156 C21.2343729,23.7324241 21.0195312,24.3281213 21.0195312,25.078125 C21.0195312,25.8046911 21.2304666,26.3906228 21.6523438,26.8359375 C22.0742209,27.2812522 22.6601525,27.5039062 23.4101562,27.5039062 C24.1445349,27.5039062 24.720701,27.2890646 25.1386719,26.859375 C25.5566427,26.4296854 25.765625,25.8359413 25.765625,25.078125 Z M25.4140625,17.6367188 C25.4140625,18.3164096 25.2402361,18.8632792 24.8925781,19.2773438 C24.5449201,19.6914083 24.0507845,19.8984375 23.4101562,19.8984375 C22.769528,19.8984375 22.2734393,19.6914083 21.921875,19.2773438 C21.5703107,18.8632792 21.3945312,18.3164096 21.3945312,17.6367188 C21.3945312,16.9492153 21.5703107,16.4101582 21.921875,16.0195312 C22.2734393,15.6289043 22.7656218,15.4335938 23.3984375,15.4335938 C24.0390657,15.4335938 24.5351545,15.6347636 24.8867188,16.0371094 C25.238283,16.4394551 25.4140625,16.9726529 25.4140625,17.6367188 Z M34.7441406,15.4287109 L37.2119141,15.4287109 L37.2119141,17.2128906 L34.7441406,17.2128906 L34.7441406,20.0019531 L32.8642578,20.0019531 L32.8642578,17.2128906 L30.3896484,17.2128906 L30.3896484,15.4287109 L32.8642578,15.4287109 L32.8642578,12.7558594 L34.7441406,12.7558594 L34.7441406,15.4287109 Z" id="Combined-Shape" fill="#FFFFFF"></path>
        </g>
    </g>
</svg>
