<svg version="1.1" xmlns="http://www.w3.org/2000/svg" x="0" y="0" viewBox="0 0 512 480" xml:space="preserve"><style type="text/css">
	.st0{fill:#CAD0D7;}
	.st1{fill:#E1E6E9;}
	.st2{fill:#99A5AD;}
	.st3{fill:#B6DAF0;}
	.st4{fill:#5A5B67;}
	.st5{fill:#D1D3D4;}
	.st6{fill:#36373F;}
	.st7{fill:#FCB33B;}
	.st8{fill:#FFFFFF;}
	.st9{fill:#BCBEC0;}
</style><path class="st0" d="M496 0H16C7.2 0 0 7.2 0 16v448c0 8.8 7.2 16 16 16h480c8.8 0 16-7.2 16-16V16C512 7.2 504.8 0 496 0zM496 456c0 4.4-3.6 8-8 8H24c-4.4 0-8-3.6-8-8V72c0-4.4 3.6-8 8-8h464c4.4 0 8 3.6 8 8V456z"/><path class="st1" d="M490 40H118c-3.3 0-6-2.7-6-6v-4c0-3.3 2.7-6 6-6h372c3.3 0 6 2.7 6 6v4C496 37.3 493.3 40 490 40z"/><path class="st2" d="M24 40L24 40c-4.4 0-8-3.6-8-8v0c0-4.4 3.6-8 8-8h0c4.4 0 8 3.6 8 8v0C32 36.4 28.4 40 24 40zM64 32L64 32c0-4.4-3.6-8-8-8h0c-4.4 0-8 3.6-8 8v0c0 4.4 3.6 8 8 8h0C60.4 40 64 36.4 64 32zM96 32L96 32c0-4.4-3.6-8-8-8h0c-4.4 0-8 3.6-8 8v0c0 4.4 3.6 8 8 8h0C92.4 40 96 36.4 96 32z"/><path class="st3" d="M389.8 183.3l12.7 14 31.7-31c3.1-3.1 8.2-3.1 11.3 0l18.4 18V104c0-4.4-3.6-8-8-8H344c-4.4 0-8 3.6-8 8v120.7l42.5-41.4C381.6 180.2 386.7 180.2 389.8 183.3z"/><path class="st4" d="M445.6 166.3c-3.1-3.1-8.2-3.1-11.3 0L403 197h-0.7l-12.4-13.7c-3.1-3.1-8.2-3.1-11.3 0L336 224.7v7.3c0 4.4 3.6 8 8 8h113v-0.1c3.9-0.5 7-3.9 7-7.9v-47.6L445.6 166.3z"/><path class="st5" d="M377.5 188.9l-11.3 11.3c-1.6 1.6-1.6 4.1 0 5.7 1.6 1.6 4.1 1.6 5.7 0l11.3-11.3c1.6-1.6 1.6-4.1 0-5.7C381.6 187.3 379 187.3 377.5 188.9z"/><path class="st5" d="M427.5 177.9l-11.3 11.3c-1.6 1.6-1.6 4.1 0 5.7 1.6 1.6 4.1 1.6 5.7 0l11.3-11.3c1.6-1.6 1.6-4.1 0-5.7C431.6 176.3 429 176.3 427.5 177.9z"/><path class="st6" d="M418.1 199c-3.9-2.7-10.5-2.1-15-1.2l-0.1 0.1 0.5 0.5L440 240h1.2H456c0.3 0 0.6 0 0.9-0.1C455.8 238.7 422.6 201.9 418.1 199z"/><path class="st7" d="M376 144L376 144c-8.8 0-16-7.2-16-16v0c0-8.8 7.2-16 16-16h0c8.8 0 16 7.2 16 16v0C392 136.8 384.8 144 376 144z"/><path class="st8" d="M448 140c0-6.6-5.4-12-12-12 -5.3 0-9.8 3.4-11.4 8.2 -1.7-2-4.3-3.2-7.1-3.2 -5.2 0-9.5 4.3-9.5 9.5 0 5.1 4 9.2 9 9.5v0h20v-0.1C443.2 151.4 448 146.3 448 140z"/><path class="st3" d="M101.8 375.3l12.7 14 31.7-31c3.1-3.1 8.2-3.1 11.3 0l18.4 18V296c0-4.4-3.6-8-8-8H56c-4.4 0-8 3.6-8 8v120.7l42.5-41.4C93.6 372.2 98.7 372.2 101.8 375.3z"/><path class="st4" d="M157.6 358.3c-3.1-3.1-8.2-3.1-11.3 0L115 389h-0.7l-12.4-13.7c-3.1-3.1-8.2-3.1-11.3 0L48 416.7v7.3c0 4.4 3.6 8 8 8h113v-0.1c3.9-0.5 7-3.9 7-7.9v-47.6L157.6 358.3z"/><path class="st5" d="M89.5 380.9l-11.3 11.3c-1.6 1.6-1.6 4.1 0 5.7 1.6 1.6 4.1 1.6 5.7 0l11.3-11.3c1.6-1.6 1.6-4.1 0-5.7C93.6 379.3 91 379.3 89.5 380.9z"/><path class="st5" d="M139.5 369.9l-11.3 11.3c-1.6 1.6-1.6 4.1 0 5.7 1.6 1.6 4.1 1.6 5.7 0l11.3-11.3c1.6-1.6 1.6-4.1 0-5.7C143.6 368.3 141 368.3 139.5 369.9z"/><path class="st6" d="M130.1 391c-3.9-2.7-10.5-2.1-15-1.2l-0.1 0.1 0.5 0.5L152 432h1.2H168c0.3 0 0.6 0 0.9-0.1C167.8 430.7 134.6 393.9 130.1 391z"/><path class="st7" d="M88 336L88 336c-8.8 0-16-7.2-16-16v0c0-8.8 7.2-16 16-16h0c8.8 0 16 7.2 16 16v0C104 328.8 96.8 336 88 336z"/><path class="st8" d="M160 332c0-6.6-5.4-12-12-12 -5.3 0-9.8 3.4-11.4 8.2 -1.7-2-4.3-3.2-7.1-3.2 -5.2 0-9.5 4.3-9.5 9.5 0 5.1 4 9.2 9 9.5v0h20v-0.1C155.2 343.4 160 338.3 160 332z"/><path class="st3" d="M245.8 375.3l12.7 14 31.7-31c3.1-3.1 8.2-3.1 11.3 0l18.4 18V312c0-4.4-3.6-8-8-8H200c-4.4 0-8 3.6-8 8v104.7l42.5-41.4C237.6 372.2 242.7 372.2 245.8 375.3z"/><path class="st7" d="M225 352L225 352c-8.8 0-16-7.2-16-16v0c0-8.8 7.2-16 16-16h0c8.8 0 16 7.2 16 16v0C241 344.8 233.8 352 225 352z"/><path class="st8" d="M304 332c0-6.6-5.4-12-12-12 -5.3 0-9.8 3.4-11.4 8.2 -1.7-2-4.3-3.2-7.1-3.2 -5.2 0-9.5 4.3-9.5 9.5 0 5.1 4 9.2 9 9.5v0h20v-0.1C299.2 343.4 304 338.3 304 332z"/><path class="st4" d="M301.6 358.3c-3.1-3.1-8.2-3.1-11.3 0L259 389h-0.7l-12.4-13.7c-3.1-3.1-8.2-3.1-11.3 0L192 416.7v7.3c0 4.4 3.6 8 8 8h113v-0.1c3.9-0.5 7-3.9 7-7.9v-47.6L301.6 358.3z"/><path class="st5" d="M233.5 380.9l-11.3 11.3c-1.6 1.6-1.6 4.1 0 5.7 1.6 1.6 4.1 1.6 5.7 0l11.3-11.3c1.6-1.6 1.6-4.1 0-5.7C237.6 379.3 235 379.3 233.5 380.9z"/><path class="st5" d="M283.5 369.9l-11.3 11.3c-1.6 1.6-1.6 4.1 0 5.7 1.6 1.6 4.1 1.6 5.7 0l11.3-11.3c1.6-1.6 1.6-4.1 0-5.7C287.6 368.3 285 368.3 283.5 369.9z"/><path class="st6" d="M274.1 391c-3.9-2.7-10.5-2.1-15-1.2l-0.1 0.1 0.5 0.5L296 432h1.2H312c0.3 0 0.6 0 0.9-0.1C311.8 430.7 278.6 393.9 274.1 391z"/><path class="st3" d="M389.8 375.3l12.7 14 31.7-31c3.1-3.1 8.2-3.1 11.3 0l18.4 18V264c0-4.4-3.6-8-8-8H344c-4.4 0-8 3.6-8 8v152.7l42.5-41.4C381.6 372.2 386.7 372.2 389.8 375.3z"/><path class="st7" d="M376 304L376 304c-8.8 0-16-7.2-16-16v0c0-8.8 7.2-16 16-16h0c8.8 0 16 7.2 16 16v0C392 296.8 384.8 304 376 304z"/><path class="st8" d="M448 308c0-6.6-5.4-12-12-12 -5.3 0-9.8 3.4-11.4 8.2 -1.7-2-4.3-3.2-7.1-3.2 -5.2 0-9.5 4.3-9.5 9.5 0 5.1 4 9.2 9 9.5v0h20v-0.1C443.2 319.4 448 314.3 448 308z"/><path class="st4" d="M445.6 358.3c-3.1-3.1-8.2-3.1-11.3 0L403 389h-0.7l-12.4-13.7c-3.1-3.1-8.2-3.1-11.3 0L336 416.7v7.3c0 4.4 3.6 8 8 8h113v-0.1c3.9-0.5 7-3.9 7-7.9v-47.6L445.6 358.3z"/><path class="st9" d="M377.5 380.9l-11.3 11.3c-1.6 1.6-1.6 4.1 0 5.7 1.6 1.6 4.1 1.6 5.7 0l11.3-11.3c1.6-1.6 1.6-4.1 0-5.7C381.6 379.3 379 379.3 377.5 380.9z"/><path class="st9" d="M427.5 369.9l-11.3 11.3c-1.6 1.6-1.6 4.1 0 5.7 1.6 1.6 4.1 1.6 5.7 0l11.3-11.3c1.6-1.6 1.6-4.1 0-5.7C431.6 368.3 429 368.3 427.5 369.9z"/><path class="st6" d="M418.1 391c-3.9-2.7-10.5-2.1-15-1.2l-0.1 0.1 0.5 0.5L440 432h1.2H456c0.3 0 0.6 0 0.9-0.1C455.8 430.7 422.6 393.9 418.1 391z"/><path class="st3" d="M245.8 231.3l12.7 14 31.7-31c3.1-3.1 8.2-3.1 11.3 0l18.4 18V104c0-4.4-3.6-8-8-8H200c-4.4 0-8 3.6-8 8v168.7l42.5-41.4C237.6 228.2 242.7 228.2 245.8 231.3z"/><path class="st7" d="M232 160L232 160c-8.8 0-16-7.2-16-16v0c0-8.8 7.2-16 16-16h0c8.8 0 16 7.2 16 16v0C248 152.8 240.8 160 232 160z"/><path class="st8" d="M304 172c0-6.6-5.4-12-12-12 -5.3 0-9.8 3.4-11.4 8.2 -1.7-2-4.3-3.2-7.1-3.2 -5.2 0-9.5 4.3-9.5 9.5 0 5.1 4 9.2 9 9.5v0h20v-0.1C299.2 183.4 304 178.3 304 172z"/><path class="st4" d="M301.6 213.3c-3.1-3.1-8.2-3.1-11.3 0L259 244h-0.7l-12.4-13.7c-3.1-3.1-8.2-3.1-11.3 0L192 271.7v7.3c0 4.4 3.6 8 8 8h113v-0.1c3.9-0.5 7-3.9 7-7.9v-47.6L301.6 213.3z"/><path class="st5" d="M233.5 235.9l-11.3 11.3c-1.6 1.6-1.6 4.1 0 5.7 1.6 1.6 4.1 1.6 5.7 0l11.3-11.3c1.6-1.6 1.6-4.1 0-5.7C237.6 234.3 235 234.3 233.5 235.9z"/><path class="st5" d="M283.5 224.9l-11.3 11.3c-1.6 1.6-1.6 4.1 0 5.7 1.6 1.6 4.1 1.6 5.7 0l11.3-11.3c1.6-1.6 1.6-4.1 0-5.7C287.6 223.3 285 223.3 283.5 224.9z"/><path class="st6" d="M274.1 246c-3.9-2.7-10.5-2.1-15-1.2l-0.1 0.1 0.5 0.5L296 287h1.2H312c0.3 0 0.6 0 0.9-0.1C311.8 285.7 278.6 248.9 274.1 246z"/><path class="st3" d="M101.8 215.3l12.7 14 31.7-31c3.1-3.1 8.2-3.1 11.3 0l18.4 18V104c0-4.4-3.6-8-8-8H56c-4.4 0-8 3.6-8 8v152.7l42.5-41.4C93.6 212.2 98.7 212.2 101.8 215.3z"/><path class="st7" d="M88 144L88 144c-8.8 0-16-7.2-16-16v0c0-8.8 7.2-16 16-16h0c8.8 0 16 7.2 16 16v0C104 136.8 96.8 144 88 144z"/><path class="st8" d="M160 148c0-6.6-5.4-12-12-12 -5.3 0-9.8 3.4-11.4 8.2 -1.7-2-4.3-3.2-7.1-3.2 -5.2 0-9.5 4.3-9.5 9.5 0 5.1 4 9.2 9 9.5v0h20v-0.1C155.2 159.4 160 154.3 160 148z"/><path class="st4" d="M157.6 197.3c-3.1-3.1-8.2-3.1-11.3 0L115 228h-0.7l-12.4-13.7c-3.1-3.1-8.2-3.1-11.3 0L48 255.7v7.3c0 4.4 3.6 8 8 8h113v-0.1c3.9-0.5 7-3.9 7-7.9v-47.6L157.6 197.3z"/><path class="st9" d="M89.5 219.9l-11.3 11.3c-1.6 1.6-1.6 4.1 0 5.7 1.6 1.6 4.1 1.6 5.7 0l11.3-11.3c1.6-1.6 1.6-4.1 0-5.7C93.6 218.3 91 218.3 89.5 219.9z"/><path class="st9" d="M139.5 208.9l-11.3 11.3c-1.6 1.6-1.6 4.1 0 5.7 1.6 1.6 4.1 1.6 5.7 0l11.3-11.3c1.6-1.6 1.6-4.1 0-5.7C143.6 207.3 141 207.3 139.5 208.9z"/><path class="st6" d="M130.1 230c-3.9-2.7-10.5-2.1-15-1.2l-0.1 0.1 0.5 0.5L152 271h1.2H168c0.3 0 0.6 0 0.9-0.1C167.8 269.7 134.6 232.9 130.1 230z"/></svg>