<svg xmlns="http://www.w3.org/2000/svg">
<defs>
<font id="InfiniteJustice" horiz-adv-x="632" >
  <font-face 
    font-family="Infinite Justice"
    font-weight="400"
    font-stretch="normal"
    units-per-em="2048"
    panose-1="2 0 0 0 0 0 0 0 0 0"
    ascent="1638"
    descent="-410"
    x-height="1126"
    cap-height="1433"
    bbox="-61 -431 2674 1810"
    underline-thickness="48"
    underline-position="-140"
    unicode-range="U+0020-U+00BF"
  />
<missing-glyph horiz-adv-x="2386" 
d="M101 1810h2186v-2186h-2186v2186zM148 493l2113 87h-2069zM384 875h-99l71 -50h-84l-50 -182h99zM1281 754q5 15 5 27q0 46 -60 46q-34 0 -53 -7l1 5h-83l-49 -182h84l30 118q9 28 30 28q16 0 16 -17q0 -4 -1 -11l-32 -118h83zM726 827q-117 0 -132 -57q-1 -6 -1 -12
q0 -21 24 -33q13 -4 63 -14q31 -5 31 -15q0 -16 -29 -16q-20 0 -20 13q0 3 1 6h-92q-3 -57 104 -57q117 0 132 56q1 6 1 12q0 22 -25 33q-12 5 -62 14q-30 6 -30 15q0 17 25 17q19 0 19 -13q0 -4 -1 -7h93q3 58 -101 58zM1054 746q3 13 3 25q0 56 -91 56q-97 0 -129 -62h87
q7 23 33 23q20 0 20 -16q0 -3 -1 -7l-1 -4q-20 -9 -61.5 -12.5t-60.5 -11.5q-32 -13 -40 -42q-1 -7 -1 -12q0 -41 90 -41q23 0 42 8l-1 -7h82zM926 679q-21 0 -21 13v5q2 9 14 14q7 4 22.5 5.5t22.5 4.5l-7 -24q-5 -18 -31 -18zM577 754q5 15 5 27q0 46 -61 46q-33 0 -52 -7
l1 5h-84l-48 -182h83l31 118q7 28 30 28q16 0 16 -17q0 -4 -2 -11l-32 -118h84zM1413 875h-82l-11 -38h84zM1400 825h-83l-49 -182h83zM1572 825h-41l14 50h-83l-13 -50h-40l-15 -49h42l-36 -133h83l35 133h40zM1705 825l-41 -67l-5 67h-78l15 -181l-35 -60h78l148 241h-82z
M1998 742q5 15 5 27q0 58 -85 58q-22 0 -41 -9l1 7h-83l-65 -241h83l18 66q15 -8 37 -8q104 0 127 84zM1890 708q-7 -28 -29 -28q-16 0 -16 16q0 4 1 12l14 53q8 27 30 27q16 0 16 -16q0 -4 -2 -11zM2249 742q4 14 4 25q0 60 -103 60q-120 0 -144 -85l-3 -16q-4 -13 -4 -24
q0 -60 102 -60q103 0 135 61h-96q-7 -23 -29 -23q-16 0 -16 16q0 6 2 13l4 13h142zM2109 755l2 6q7 28 30 28q16 0 16 -17q0 -4 -2 -11l-1 -6h-45z" />
    <glyph glyph-name=".notdef" horiz-adv-x="2386" 
d="M101 1810h2186v-2186h-2186v2186zM148 493l2113 87h-2069zM384 875h-99l71 -50h-84l-50 -182h99zM1281 754q5 15 5 27q0 46 -60 46q-34 0 -53 -7l1 5h-83l-49 -182h84l30 118q9 28 30 28q16 0 16 -17q0 -4 -1 -11l-32 -118h83zM726 827q-117 0 -132 -57q-1 -6 -1 -12
q0 -21 24 -33q13 -4 63 -14q31 -5 31 -15q0 -16 -29 -16q-20 0 -20 13q0 3 1 6h-92q-3 -57 104 -57q117 0 132 56q1 6 1 12q0 22 -25 33q-12 5 -62 14q-30 6 -30 15q0 17 25 17q19 0 19 -13q0 -4 -1 -7h93q3 58 -101 58zM1054 746q3 13 3 25q0 56 -91 56q-97 0 -129 -62h87
q7 23 33 23q20 0 20 -16q0 -3 -1 -7l-1 -4q-20 -9 -61.5 -12.5t-60.5 -11.5q-32 -13 -40 -42q-1 -7 -1 -12q0 -41 90 -41q23 0 42 8l-1 -7h82zM926 679q-21 0 -21 13v5q2 9 14 14q7 4 22.5 5.5t22.5 4.5l-7 -24q-5 -18 -31 -18zM577 754q5 15 5 27q0 46 -61 46q-33 0 -52 -7
l1 5h-84l-48 -182h83l31 118q7 28 30 28q16 0 16 -17q0 -4 -2 -11l-32 -118h84zM1413 875h-82l-11 -38h84zM1400 825h-83l-49 -182h83zM1572 825h-41l14 50h-83l-13 -50h-40l-15 -49h42l-36 -133h83l35 133h40zM1705 825l-41 -67l-5 67h-78l15 -181l-35 -60h78l148 241h-82z
M1998 742q5 15 5 27q0 58 -85 58q-22 0 -41 -9l1 7h-83l-65 -241h83l18 66q15 -8 37 -8q104 0 127 84zM1890 708q-7 -28 -29 -28q-16 0 -16 16q0 4 1 12l14 53q8 27 30 27q16 0 16 -16q0 -4 -2 -11zM2249 742q4 14 4 25q0 60 -103 60q-120 0 -144 -85l-3 -16q-4 -13 -4 -24
q0 -60 102 -60q103 0 135 61h-96q-7 -23 -29 -23q-16 0 -16 16q0 6 2 13l4 13h142zM2109 755l2 6q7 28 30 28q16 0 16 -17q0 -4 -2 -11l-1 -6h-45z" />
    <glyph glyph-name="space" unicode=" " 
 />
    <glyph glyph-name="exclam" unicode="!" 
d="M655 308h-512l-83 -307h512zM956 1433h-512l-281 -1049h512z" />
    <glyph glyph-name="quotedbl" unicode="&#x22;" horiz-adv-x="1144" 
d="M841 1266l-145 -280h-302l5 280l45 167h442zM1423 1266l-145 -280h-302l5 280l45 167h442z" />
    <glyph glyph-name="numbersign" unicode="#" horiz-adv-x="1392" 
d="M984 552l88 330h-280l-88 -330h280zM1500 552l-82 -306h-210l-66 -245h-306l66 245h-280l-66 -245h-306l66 245h-210l82 306h210l88 330h-210l82 306h210l66 245h306l-66 -245h280l66 245h306l-66 -245h210l-82 -306h-210l-88 -330h210z" />
    <glyph glyph-name="dollar" unicode="$" horiz-adv-x="1438" 
d="M868 1126h-14q-170 0 -203 -123q-6 -20 -6 -37q0 -86 143 -86h14zM955 308h14q170 0 202 123q6 20 6 37q0 86 -143 86h-14zM771 -376h-306l101 377h-426l83 307h426l65 246h-126q-315 0 -315 248q0 67 23 152l21 79q107 400 507 400h126l101 377h306l-101 -377h376
l-82 -307h-376l-66 -246h126q315 0 315 -248q0 -67 -22 -151l-21 -79q-108 -401 -508 -401h-126z" />
    <glyph glyph-name="percent" unicode="%" horiz-adv-x="2254" 
d="M2397 1433l-1544 -1432h-612l1544 1432h612zM1138 1067q-98 -365 -504 -365q-327 0 -327 237q0 57 19 128q98 365 504 365q327 0 327 -237q0 -57 -19 -128zM804 1014l28 107q8 28 8 48q0 61 -64 61q-86 0 -116 -109l-28 -107q-8 -27 -8 -48q0 -60 65 -60q86 0 115 108z
M2312 366q-98 -365 -504 -365q-327 0 -327 237q0 57 19 128q98 365 504 365q327 0 327 -237q0 -57 -19 -128zM1978 313l29 107q7 28 7 48q0 61 -64 61q-86 0 -115 -109l-29 -107q-7 -27 -7 -48q0 -60 64 -60q86 0 115 108z" />
    <glyph glyph-name="ampersand" unicode="&#x26;" horiz-adv-x="1263" 
d="M478 1h-17q-322 0 -323 232q-1 56 18 126q96 358 391 358q-222 0 -222 204q0 66 24 154q96 358 496 358h17l82 307h306l-82 -307h419l-82 -307h-430q-200 0 -234 -127q-5 -19 -5 -35q0 -93 169 -93h431l-82 -307h-431q-199 0 -233 -128q-5 -19 -5 -35q0 -93 171 -93h430
l-83 -307h-419l-82 -307h-306z" />
    <glyph glyph-name="quotesingle" unicode="'" horiz-adv-x="562" 
d="M841 1266l-145 -280h-302l5 280l45 167h442z" />
    <glyph glyph-name="parenleft" unicode="(" horiz-adv-x="812" 
d="M671 -376h-312q-315 0 -315 248q0 67 22 152l372 1386q107 400 507 400h312l-82 -307q-200 0 -254 -200l-314 -1172q-11 -42 -11 -76q0 -124 158 -124z" />
    <glyph glyph-name="parenright" unicode=")" horiz-adv-x="812" 
d="M-61 -376h312q400 0 507 400l372 1386q22 85 22 151q0 249 -315 249h-312l-82 -307q157 0 157 -124q0 -34 -11 -76l-314 -1172q-53 -200 -253 -200z" />
    <glyph glyph-name="asterisk" unicode="*" horiz-adv-x="644" 
d="M774 1097l-54 46l-21 -81l-182 1l22 81l-81 -48l-64 149l123 73l-84 73l143 148l57 -48l22 83l181 -1l-21 -80l77 46l65 -148l-124 -73l85 -73z" />
    <glyph glyph-name="plus" unicode="+" horiz-adv-x="965" 
d="M1056 564h-270l-72 -270h-306l72 270h-269l82 306h270l72 270h306l-72 -270h269z" />
    <glyph glyph-name="comma" unicode="," horiz-adv-x="562" 
d="M543 154q-59 -223 -404 -293q89 70 107 140h-186l83 307h442z" />
    <glyph glyph-name="hyphen" unicode="-" horiz-adv-x="933" 
d="M899 564h-708l82 306h708z" />
    <glyph glyph-name="hyphen" unicode="&#x2010;" horiz-adv-x="933" 
d="M899 564h-708l82 306h708z" />
    <glyph glyph-name="period" unicode="." horiz-adv-x="562" 
d="M502 1h-442l83 307h442z" />
    <glyph glyph-name="slash" unicode="/" horiz-adv-x="1212" 
d="M1596 1433l-984 -1432h-612l984 1432h612z" />
    <glyph glyph-name="zero" unicode="0" horiz-adv-x="1544" 
d="M1591 401q-107 -400 -507 -400h-624q-315 0 -315 248q0 67 22 152l170 632q107 400 507 400h624q315 0 315 -248q0 -67 -22 -152zM1108 508l112 418q11 42 11 76q0 124 -157 124q-200 0 -254 -200l-112 -418q-11 -42 -11 -76q0 -124 158 -124q200 0 253 200z" />
    <glyph glyph-name="one" unicode="1" 
d="M572 1l-511 1l301 1124l594 307z" />
    <glyph glyph-name="two" unicode="2" horiz-adv-x="1432" 
d="M1628 954q-108 -400 -508 -400h-160q-240 0 -305 -246h765l-83 -307h-1277l124 460q107 400 507 400h200q200 0 235 133q6 21 6 38q-1 95 -170 95h-565l82 306h877q314 0 315 -247q1 -67 -22 -153z" />
    <glyph glyph-name="three" unicode="3" horiz-adv-x="1362" 
d="M1399 359q-96 -358 -497 -358h-842l83 307h530q200 0 234 128q5 19 5 34q0 94 -170 94h-431l82 307h431q199 0 234 128q5 18 5 34q0 93 -171 93h-530l82 307h842q322 0 323 -233q0 -56 -19 -125q-96 -358 -390 -358q223 0 223 -204q0 -66 -24 -154z" />
    <glyph glyph-name="four" unicode="4" horiz-adv-x="1397" 
d="M1267 1h-512l113 422h-695l82 306l423 634h372l-352 -633h253l188 703l512 1l-188 -704h70l-83 -307h-70z" />
    <glyph glyph-name="five" unicode="5" horiz-adv-x="1437" 
d="M1711 1433h-1267l-236 -879h645q143 0 143 -86q0 -17 -6 -37q-32 -123 -202 -123h-645l-83 -307h917q400 0 508 401l21 79q22 84 22 151q0 248 -315 248h-405l66 246h755z" />
    <glyph glyph-name="six" unicode="6" horiz-adv-x="1432" 
d="M1514 530q23 85 23 152q0 248 -316 248h-400q53 197 249 197h499l82 306h-807q-400 0 -507 -400l-170 -632q-22 -85 -22 -152q0 -248 315 -248h512q400 0 507 400zM985 466q-42 -158 -186 -158q-112 0 -112 96q0 27 10 62l42 157h144q111 0 111 -94q0 -28 -9 -63z" />
    <glyph glyph-name="seven" unicode="7" horiz-adv-x="1292" 
d="M823 1h-513l712 1126h-660l82 306h1172l-82 -306z" />
    <glyph glyph-name="eight" unicode="8" horiz-adv-x="1402" 
d="M1439 359q-96 -358 -497 -358h-481q-322 0 -322 232q0 57 18 126q96 358 390 358q-223 0 -222 204q0 66 23 154q96 358 497 358h481q322 0 323 -232q0 -57 -19 -126q-96 -358 -389 -358q222 0 222 -204q0 -66 -24 -154zM1097 998q7 26 8 47q0 81 -101 81
q-129 0 -164 -128q-7 -27 -7 -48q0 -80 102 -80q128 0 162 128zM947 436q7 26 7 46q1 81 -101 81q-129 0 -163 -128q-8 -26 -8 -47q0 -41 25.5 -60.5t77.5 -19.5q128 1 162 128z" />
    <glyph glyph-name="nine" unicode="9" horiz-adv-x="1432" 
d="M302 904q-22 -85 -22 -152q0 -248 315 -248h400q-53 -197 -249 -197h-499l-82 -306h807q400 0 507 400l170 632q23 85 22 152q0 248 -315 248h-512q-400 0 -507 -400zM832 969q42 157 186 157q112 0 111 -96q0 -27 -10 -62l-42 -157h-144q-112 0 -111 96q0 27 10 62z" />
    <glyph glyph-name="colon" unicode=":" horiz-adv-x="562" 
d="M502 1h-442l83 307h442zM721 819h-442l83 307h442z" />
    <glyph glyph-name="semicolon" unicode=";" horiz-adv-x="562" 
d="M543 154q-59 -223 -404 -293q89 70 107 140h-186l83 307h442zM721 819h-442l83 307h442z" />
    <glyph glyph-name="less" unicode="&#x3c;" horiz-adv-x="1288" 
d="M1248 1h-612l-421 576l74 279l731 577h612l-907 -716z" />
    <glyph glyph-name="equal" unicode="=" horiz-adv-x="828" 
d="M974 770h-708l82 306h708zM864 358h-708l82 306h708z" />
    <glyph glyph-name="greater" unicode="&#x3e;" horiz-adv-x="1288" 
d="M40 1h612l731 576l74 279l-421 577h-612l523 -716z" />
    <glyph glyph-name="question" unicode="?" horiz-adv-x="1292" 
d="M1474 904q-107 -400 -507 -400h-190l-32 -120h-512l115 428h390q200 0 242 158q7 28 7 50q0 107 -165 107h-460l82 306h772q317 0 315 -251q0 -66 -22 -149zM642 1h-512l83 307h512z" />
    <glyph glyph-name="at" unicode="@" horiz-adv-x="1654" 
d="M1485 983q-37 150 -267 150h-174q-350 0 -444 -350l-116 -432q-18 -66 -18 -119q0 -211 280 -211h854l-89 -330h-934q-473 0 -473 373q0 100 34 227l153 572q161 600 761 600h334q473 0 473 -374q0 -99 -34 -226l-185 -692h-704q-276 0 -276 217q0 59 20 133l30 112
q93 350 433 350h342zM1115 653q-70 0 -90 -76q-5 -17 -5 -31q0 -45 54 -45h325l40 152h-324z" />
    <glyph glyph-name="A" unicode="A" horiz-adv-x="1803" 
d="M1803 1h-636l7 282h-393l-145 -282h-636l675 1135h447l-270 297h868zM1177 580l16 510l-265 -510h249z" />
    <glyph glyph-name="B" unicode="B" horiz-adv-x="1632" 
d="M1675 379q-102 -378 -503 -378h-1112l302 1125h520l-438 307h1112q326 0 326 -225q0 -51 -17 -113q-90 -338 -384 -338q219 0 219 -209q0 -72 -25 -169zM1226 991q5 21 5 38q0 97 -169 97h-88l-73 -270h88q200 0 237 135zM1089 483q9 33 9 60q0 115 -162 115h-88
l-93 -350h88q200 0 246 175z" />
    <glyph glyph-name="C" unicode="C" horiz-adv-x="1438" 
d="M1378 1h-918q-316 0 -315 250q0 65 22 150l170 632q107 400 507 400h918l-82 -307h-506q-200 0 -254 -200l-112 -418q-11 -42 -11 -76q0 -124 158 -124h506z" />
    <glyph glyph-name="D" unicode="D" horiz-adv-x="1632" 
d="M1679 401q-107 -400 -507 -400h-1112l302 1125h520l-438 307h1112q315 0 315 -248q0 -67 -22 -152zM1096 508l112 418q12 43 11 76q0 124 -157 124h-88l-219 -818h88q200 0 253 200z" />
    <glyph glyph-name="E" unicode="E" horiz-adv-x="1438" 
d="M1378 1h-1318l302 1125h520l-438 307h1318l-82 -307h-706l-69 -256h606l-82 -306h-606l-68 -256h706z" />
    <glyph glyph-name="F" unicode="F" horiz-adv-x="1438" 
d="M1680 1126h-706l-69 -256h606l-82 -306h-606l-151 -563h-612l302 1125h520l-438 307h1318z" />
    <glyph glyph-name="G" unicode="G" horiz-adv-x="1692" 
d="M1632 1h-1172q-321 0 -315 258q1 63 22 142l170 632q107 400 507 400h1172l-82 -307h-760q-200 0 -254 -200l-112 -418q-11 -42 -11 -76q0 -124 158 -124h251l68 257h-145l82 306h654z" />
    <glyph glyph-name="H" unicode="H" horiz-adv-x="1750" 
d="M1690 1h-612l151 562h-406l-151 -562h-612l302 1125h520l-438 307h612l-151 -563h406l151 563l612 1z" />
    <glyph glyph-name="I" unicode="I" horiz-adv-x="732" 
d="M672 1h-612l302 1125h520l-438 307h612z" />
    <glyph glyph-name="J" unicode="J" horiz-adv-x="1075" 
d="M1122 401q-107 -400 -507 -400h-555l83 307h108q235 0 288 200l166 618h520l-438 307h612z" />
    <glyph glyph-name="K" unicode="K" horiz-adv-x="1675" 
d="M1675 1h-612l-262 481l-129 -481h-612l302 1125h520l-438 307h612l-129 -481l520 481h612l-774 -716z" />
    <glyph glyph-name="L" unicode="L" horiz-adv-x="1438" 
d="M1378 1h-1318l302 1125h520l-438 307h612l-301 -1125h706z" />
    <glyph glyph-name="M" unicode="M" horiz-adv-x="1954" 
d="M1894 1h-613l207 767l-460 -575l-150 575l-206 -767h-612l302 1125h520l-438 307h612l150 -575l460 576h611z" />
    <glyph glyph-name="N" unicode="N" horiz-adv-x="1750" 
d="M1690 1h-612l-200 767l-206 -767h-612l302 1125h520l-438 307h612l200 -767l206 767l612 1z" />
    <glyph glyph-name="O" unicode="O" horiz-adv-x="1744" 
d="M1791 401q-107 -400 -507 -400h-824q-315 0 -315 248q0 67 22 152l170 632q107 400 507 400h824q315 0 315 -248q0 -67 -22 -152zM1208 508l112 418q11 42 11 76q0 124 -157 124q-200 0 -254 -200l-112 -418q-11 -42 -11 -76q0 -124 158 -124q200 0 253 200z" />
    <glyph glyph-name="P" unicode="P" horiz-adv-x="1632" 
d="M1814 904q-107 -400 -507 -400h-500l-135 -503h-612l302 1125h520l-438 307h1112q315 0 315 -248q0 -67 -22 -152zM1220 969q7 28 7 50q0 107 -165 107h-88l-85 -315h88q200 0 243 158z" />
    <glyph glyph-name="Q" unicode="Q" horiz-adv-x="1744" 
d="M1684 1h-1224q-315 0 -315 248q0 67 22 152l170 632q107 400 507 400h824q315 0 315 -248q0 -67 -22 -152zM1208 508l112 418q11 42 11 76q0 124 -157 124q-200 0 -254 -200l-112 -418q-11 -43 -11 -77q0 -125 158 -123l53 200h200z" />
    <glyph glyph-name="R" unicode="R" horiz-adv-x="1675" 
d="M1675 1l-664 1l-248 338l-91 -339h-612l302 1125h520l-438 307h1112q315 0 315 -248q0 -67 -22 -152l-35 -129q-108 -403 -507 -400zM1220 969q7 28 7 50q0 107 -165 107h-88l-85 -315h88q200 0 243 158z" />
    <glyph glyph-name="S" unicode="S" horiz-adv-x="1478" 
d="M1752 1433h-908q-400 0 -507 -400l-21 -79q-23 -85 -23 -152q0 -248 315 -248h276q143 0 143 -86q0 -17 -6 -37q-32 -123 -202 -123h-676l-83 -307h958q400 0 508 401l21 79q22 84 22 151q0 248 -315 248h-276q-142 0 -143 86q0 17 6 37q33 123 203 123h626z" />
    <glyph glyph-name="T" unicode="T" horiz-adv-x="1772" 
d="M2014 1126h-520l-302 -1125h-612l302 1125h-520l82 307h1652z" />
    <glyph glyph-name="U" unicode="U" horiz-adv-x="1750" 
d="M1798 402q-108 -401 -508 -401h-830q-315 0 -315 250q0 66 23 151l194 724h520l-438 307h612l-248 -925q-11 -42 -11 -76q0 -124 158 -124q206 0 259 200l248 925l612 1z" />
    <glyph glyph-name="V" unicode="V" horiz-adv-x="1803" 
d="M2187 1433l-851 -1432h-868l-66 1125h470l-488 307h636l-26 -1085l557 1085h636z" />
    <glyph glyph-name="W" unicode="W" horiz-adv-x="2290" 
d="M2674 1433l-821 -1432l-616 1l24 450l-215 -451h-618l-35 1125h469l-478 307h626l-124 -965l395 965h487l-124 -964l395 964h635z" />
    <glyph glyph-name="X" unicode="X" horiz-adv-x="1822" 
d="M1822 1h-762l-142 304l-346 -304l-571 1l749 656l-222 468h414l-558 307h761l144 -303l347 303l570 1l-749 -658z" />
    <glyph glyph-name="Y" unicode="Y" horiz-adv-x="1803" 
d="M2187 1433l-824 -869l-150 -562l-613 -1l151 563l-238 562h359l-488 307h636l144 -450l387 450h636z" />
    <glyph glyph-name="Z" unicode="Z" horiz-adv-x="1478" 
d="M1418 1h-1358l83 307l827 818h-608l82 307h1358l-82 -307l-817 -818h598z" />
    <glyph glyph-name="bracketleft" unicode="[" horiz-adv-x="812" 
d="M671 -376h-712l586 2186h712l-82 -307h-200l-421 -1572h200z" />
    <glyph glyph-name="backslash" unicode="\" horiz-adv-x="1292" 
d="M1252 1h-612l-216 1432h612z" />
    <glyph glyph-name="bracketright" unicode="]" horiz-adv-x="812" 
d="M-61 -376h712l586 2186h-712l-82 -307h200l-421 -1572h-200z" />
    <glyph glyph-name="asciicircum" unicode="^" horiz-adv-x="980" 
d="M1052 1574l169 -447h-313l-68 179l-164 -179h-314l411 447h279z" />
    <glyph glyph-name="underscore" unicode="_" horiz-adv-x="1108" 
d="M966 -305h-988l82 306h988z" />
    <glyph glyph-name="grave" unicode="`" horiz-adv-x="603" 
d="M807 986h-302l-61 447h413z" />
    <glyph glyph-name="a" unicode="a" horiz-adv-x="1493" 
d="M1433 1h-512l11 41q-122 -51 -267 -51q-551 0 -551 251q0 35 11 75q49 184 242 263q118 48 374 71t375 73l8 30q7 26 7 47q2 93 -126 93q-157 0 -199 -140h-538q197 382 802 382q555 0 556 -344q0 -71 -22 -154zM1010 333l39 146q-42 -17 -134.5 -28t-136.5 -29
q-72 -30 -88 -89q-4 -16 -4 -30q0 -76 136 -76q160 0 188 106z" />
    <glyph glyph-name="b" unicode="b" horiz-adv-x="1494" 
d="M1593 518q-141 -527 -778 -527q-136 0 -232 51l-11 -41h-512l384 1432h512l-92 -345q119 48 257 48q521 0 522 -351q0 -79 -25 -174zM950 402l87 325q11 43 11 74q0 96 -101 96q-135 0 -180 -170l-87 -325q-12 -43 -12 -74q0 -96 101 -96q135 0 181 170z" />
    <glyph glyph-name="c" unicode="c" horiz-adv-x="1564" 
d="M1632 402q-187 -411 -847 -411q-628 0 -629 372q0 71 23 154l24 93q141 526 888 526q629 0 629 -371q0 -19 -1 -38h-602q11 43 11 75q0 95 -101 95q-135 0 -180 -170l-87 -325q-12 -43 -12 -74q0 -96 101 -96q135 0 181 170h602z" />
    <glyph glyph-name="d" unicode="d" horiz-adv-x="1494" 
d="M1434 1h-512l11 41q-122 -51 -258 -51q-524 0 -522 356q1 77 26 171l25 93q140 525 777 525q138 0 233 -48l92 345h512zM1030 402l87 325q11 43 11 74q0 96 -101 96q-135 0 -180 -170l-87 -325q-12 -43 -12 -74q0 -96 101 -96q135 0 181 170z" />
    <glyph glyph-name="e" unicode="e" horiz-adv-x="1574" 
d="M1664 488h-881l-23 -86q-12 -43 -12 -75q0 -95 101 -95q134 0 172 140h596q-195 -381 -832 -381q-629 0 -629 373q0 69 23 153l24 93q141 526 888 526q630 0 630 -370q0 -72 -24 -157zM1107 687l11 40q11 41 11 73q2 98 -100 98q-135 0 -181 -171l-11 -40h270z" />
    <glyph glyph-name="f" unicode="f" horiz-adv-x="1150" 
d="M1447 1258h-113q-150 0 -218 -132h238l-83 -307h-250l-219 -818h-512l219 818h-250l83 307h265q190 392 738 392h171z" />
    <glyph glyph-name="g" unicode="g" horiz-adv-x="1494" 
d="M1459 95q-140 -526 -787 -526q-637 0 -638 311q0 20 3 40h596q-5 -20 -5 -36q2 -75 111 -75q132 0 177 169l16 61q-119 -48 -257 -48q-521 0 -522 351q0 79 25 174l25 93q141 527 778 527q136 0 232 -51l11 41h512zM1029 400l87 325q12 43 12 74q0 96 -101 96
q-135 0 -181 -170l-87 -325q-11 -43 -11 -74q0 -96 101 -96q135 0 180 170z" />
    <glyph glyph-name="h" unicode="h" horiz-adv-x="1414" 
d="M1354 1h-511l195 727q12 43 12 75q0 95 -101 95q-136 0 -182 -171l-195 -726h-512l384 1432h512l-92 -345q120 48 327 48q371 0 371 -287q0 -74 -26 -168z" />
    <glyph glyph-name="i" unicode="i" 
d="M894 1202h-512l62 231h512zM572 1h-512l302 1125h512z" />
    <glyph glyph-name="j" unicode="j" 
d="M894 1202h-512l62 231h512zM490 -306h-512l384 1432h512z" />
    <glyph glyph-name="k" unicode="k" horiz-adv-x="1395" 
d="M1355 1h-512l-154 437l-116 -436h-512l383 1431l512 1l-174 -651l313 343h512l-467 -512z" />
    <glyph glyph-name="l" unicode="l" 
d="M572 1h-512l384 1432h512z" />
    <glyph glyph-name="m" unicode="m" horiz-adv-x="2197" 
d="M2138 2h-512l194 726q12 43 12 75q0 95 -101 95q-136 0 -182 -169l-195 -728h-512l195 727q11 43 12 74q0 96 -101 96q-135 0 -181 -171l-195 -726h-512l302 1125h512l-10 -38q119 48 327 48q242 0 324 -127q157 128 460 128q370 0 370 -287q0 -74 -26 -169z" />
    <glyph glyph-name="n" unicode="n" horiz-adv-x="1414" 
d="M1354 1h-512l195 727q11 43 12 74q0 96 -101 96q-135 0 -181 -171l-195 -726h-512l302 1125h512l-10 -38q120 48 327 48q371 0 371 -287q0 -74 -26 -168z" />
    <glyph glyph-name="o" unicode="o" horiz-adv-x="1574" 
d="M1673 518q-141 -527 -888 -527q-633 0 -629 377q1 69 23 150l24 92q141 526 888 526q629 0 629 -373q0 -70 -23 -153zM1030 402l87 325q11 43 11 74q0 96 -101 96q-135 0 -180 -170l-87 -325q-12 -43 -12 -74q0 -96 101 -96q135 0 181 170z" />
    <glyph glyph-name="p" unicode="p" horiz-adv-x="1494" 
d="M1592 516q-140 -525 -777 -525q-138 0 -233 48l-108 -405h-512l400 1492h512l-11 -41q122 51 258 51q524 0 522 -356q-1 -77 -26 -171zM1036 725q12 43 12 74q0 96 -101 96q-135 0 -181 -170l-87 -325q-11 -43 -11 -74q0 -96 101 -96q135 0 180 170z" />
    <glyph glyph-name="q" unicode="q" horiz-adv-x="1494" 
d="M1336 -366h-512l108 405q-120 -48 -257 -48q-522 0 -522 351q0 79 25 174l25 93q139 517 776 517h757zM1029 400l87 325q12 43 12 74q0 96 -101 96q-135 0 -181 -170l-87 -325q-11 -43 -11 -74q0 -96 101 -96q135 0 180 170z" />
    <glyph glyph-name="r" unicode="r" horiz-adv-x="1061" 
d="M1256 878q-116 20 -238 20q-205 0 -270 -241l-176 -656h-512l302 1125h512l-10 -38q128 48 266 48t194 -4z" />
    <glyph glyph-name="s" unicode="s" horiz-adv-x="1545" 
d="M1713 778h-572q6 22 6 41q0 79 -113 79q-166 0 -166 -97q0 -63 192 -97q306 -55 382 -88q156 -68 156 -201q0 -35 -10 -73q-94 -351 -813 -351q-660 0 -641 359h572q-6 -21 -6 -39q0 -81 124 -81q174 0 174 97q0 62 -192 96q-303 54 -382 88q-156 67 -156 201q0 34 10 73
q95 352 814 352q640 0 621 -359z" />
    <glyph glyph-name="t" unicode="t" horiz-adv-x="1092" 
d="M1271 819h-250l-219 -818h-512l219 818h-250l83 307h250l82 307h512l-82 -307h250z" />
    <glyph glyph-name="u" unicode="u" horiz-adv-x="1414" 
d="M1354 1h-512l10 38q-120 -48 -327 -48q-371 0 -371 286q0 75 26 169l182 680h512l-195 -727q-11 -42 -11 -74q0 -95 101 -95q135 0 180 170l195 726h512z" />
    <glyph glyph-name="v" unicode="v" horiz-adv-x="1468" 
d="M1730 1126l-680 -1125h-632l-76 1125h512l8 -650l356 650h512z" />
    <glyph glyph-name="w" unicode="w" horiz-adv-x="1964" 
d="M2226 1126l-609 -1124h-542l19 417l-204 -418h-542l-6 1125h512l-89 -600l293 600h452l-29 -599l233 599h512z" />
    <glyph glyph-name="x" unicode="x" horiz-adv-x="1452" 
d="M1412 1h-532l-97 211l-211 -211l-531 1l560 562l-259 562h532l97 -211l211 212h532l-561 -563z" />
    <glyph glyph-name="y" unicode="y" horiz-adv-x="1353" 
d="M1615 1126l-915 -1492h-483l221 370l-96 1122h482l34 -414l246 414h511z" />
    <glyph glyph-name="z" unicode="z" horiz-adv-x="1264" 
d="M1287 308l-82 -306l-1145 -1l83 307l708 511h-572l83 307h1144l-83 -307l-708 -511h572z" />
    <glyph glyph-name="braceleft" unicode="{" horiz-adv-x="952" 
d="M811 -376h-312q-315 0 -315 248q0 67 22 152q56 156 56 296q0 132 -47 258l75 280q235 256 288 552q107 400 507 400h312l-82 -307q-200 0 -254 -200q-88 -328 -297 -586q32 -115 32 -245q0 -159 -49 -341q-11 -41 -11 -73q-2 -127 158 -127z" />
    <glyph glyph-name="bar" unicode="|" 
d="M471 -376l586 2186h-512l-586 -2186h512z" />
    <glyph glyph-name="braceright" unicode="}" horiz-adv-x="952" 
d="M-61 -376h312q400 0 507 400q10 54 19 87q65 244 270 467l75 280q-47 130 -47 263q0 144 55 289q22 85 22 152q0 248 -315 248h-312l-82 -307q159 0 157 -126q0 -33 -11 -74q-48 -181 -49 -340q0 -131 32 -246q-209 -258 -297 -586q-53 -200 -253 -200z" />
    <glyph glyph-name="asciitilde" unicode="~" horiz-adv-x="1020" 
d="M1120 599q-212 -80 -317 -80q-59 0 -168.5 45t-169.5 45q-91 0 -263 -80l82 306q212 80 317 80q60 0 169.5 -45t168.5 -45q91 0 263 80z" />
    <glyph glyph-name="exclamdown" unicode="&#xa1;" 
d="M874 1126h-512l82 307h512zM572 1h-512l281 1049h512z" />
    <glyph glyph-name="cent" unicode="&#xa2;" horiz-adv-x="1564" 
d="M839 -376h-306l100 373q-475 42 -477 364q0 71 23 156l24 93q126 469 734 520l100 373h306l-100 -373q477 -42 477 -366q0 -18 -1 -37h-602q11 43 11 75q0 95 -101 95q-135 0 -180 -170l-87 -325q-12 -43 -12 -74q0 -96 101 -96q135 0 181 170h602q-165 -361 -693 -405z
" />
    <glyph glyph-name="copyright" unicode="&#xa9;" horiz-adv-x="1723" 
d="M1770 401q-107 -400 -507 -400h-803q-315 0 -315 249q0 66 22 151l170 632q107 400 507 400h803q315 0 315 -249q0 -66 -22 -151zM1512 481l126 472q12 42 12 76q0 124 -158 124h-643q-200 0 -254 -200l-126 -472q-11 -42 -11 -75q-1 -125 157 -125h643q200 0 254 200z
M1481 619q-114 -251 -517 -251q-384 0 -384 227q0 43 14 94l15 57q86 321 542 321q403 0 383 -250h-368q7 26 7 46q0 58 -61 58q-82 0 -110 -104l-53 -198q-7 -26 -7 -46q0 -58 61 -58q82 0 110 104h368z" />
    <glyph glyph-name="registered" unicode="&#xae;" horiz-adv-x="1723" 
d="M1770 401q-107 -400 -507 -400h-803q-315 0 -315 249q0 66 22 151l170 632q107 400 507 400h803q315 0 315 -249q0 -66 -22 -151zM1512 481l126 472q12 42 12 76q0 124 -158 124h-643q-200 0 -254 -200l-126 -472q-11 -42 -11 -75q-1 -125 157 -125h643q200 0 254 200z
M1397 906q-71 12 -145 12q-125 0 -164 -147l-108 -400h-313l184 686h313l-6 -23q82 29 164 29t116 -2z" />
    <glyph glyph-name="questiondown" unicode="&#xbf;" horiz-adv-x="1252" 
d="M1354 530q23 85 23 152q0 248 -316 248h-190l32 120h-512l-114 -428h390q165 0 165 -107q0 -23 -7 -50q-43 -158 -243 -158h-460l-82 -306h772q400 0 507 400zM1006 1433h-512l-82 -307h512z" />
    </font>
</defs>
</svg>
