<svg version="1.1" xmlns="http://www.w3.org/2000/svg" x="0" y="0" viewBox="0 0 512 480" xml:space="preserve"><style type="text/css">
	.st0{fill:#CAD0D7;}
	.st1{fill:#E1E6E9;}
	.st2{fill:#99A5AD;}
	.st3{fill:#FCB33B;}
	.st4{fill:#EE2F3D;}
</style><path class="st0" d="M496 0H16C7.2 0 0 7.2 0 16v448c0 8.8 7.2 16 16 16h480c8.8 0 16-7.2 16-16V16C512 7.2 504.8 0 496 0zM496 456c0 4.4-3.6 8-8 8H24c-4.4 0-8-3.6-8-8V72c0-4.4 3.6-8 8-8h464c4.4 0 8 3.6 8 8V456z"/><path class="st1" d="M490 40H118c-3.3 0-6-2.7-6-6v-4c0-3.3 2.7-6 6-6h372c3.3 0 6 2.7 6 6v4C496 37.3 493.3 40 490 40z"/><path class="st2" d="M24 40L24 40c-4.4 0-8-3.6-8-8v0c0-4.4 3.6-8 8-8h0c4.4 0 8 3.6 8 8v0C32 36.4 28.4 40 24 40zM64 32L64 32c0-4.4-3.6-8-8-8h0c-4.4 0-8 3.6-8 8v0c0 4.4 3.6 8 8 8h0C60.4 40 64 36.4 64 32zM96 32L96 32c0-4.4-3.6-8-8-8h0c-4.4 0-8 3.6-8 8v0c0 4.4 3.6 8 8 8h0C92.4 40 96 36.4 96 32z"/><path class="st0" d="M360 112H152c-4.4 0-8-3.6-8-8v0c0-4.4 3.6-8 8-8h208c4.4 0 8 3.6 8 8v0C368 108.4 364.4 112 360 112zM328 136L328 136c0-4.4-3.6-8-8-8H192c-4.4 0-8 3.6-8 8v0c0 4.4 3.6 8 8 8h128C324.4 144 328 140.4 328 136z"/><path class="st1" d="M456 424H56c-8.8 0-16-7.2-16-16V184c0-8.8 7.2-16 16-16h400c8.8 0 16 7.2 16 16v224C472 416.8 464.8 424 456 424z"/><path class="st3" d="M248 304h96v0c0 53-43 96-96 96h0c-53 0-96-43-96-96v0c0-53 43-96 96-96h0V304z"/><path class="st4" d="M360 288L360 288l-96 0v-96h0C317 192 360 235 360 288z"/></svg>