<svg version="1.1" xmlns="http://www.w3.org/2000/svg" x="0" y="0" viewBox="0 0 512 480" xml:space="preserve"><style type="text/css">
	.st0{fill:#CAD0D7;}
	.st1{fill:#E1E6E9;}
	.st2{fill:#99A5AD;}
	.st3{fill:#5A5B67;}
	.st4{fill:#53BA5E;}
</style><path class="st0" d="M496 0H16C7.2 0 0 7.2 0 16v448c0 8.8 7.2 16 16 16h480c8.8 0 16-7.2 16-16V16C512 7.2 504.8 0 496 0zM496 456c0 4.4-3.6 8-8 8H24c-4.4 0-8-3.6-8-8V72c0-4.4 3.6-8 8-8h464c4.4 0 8 3.6 8 8V456z"/><path class="st1" d="M490 40H118c-3.3 0-6-2.7-6-6v-4c0-3.3 2.7-6 6-6h372c3.3 0 6 2.7 6 6v4C496 37.3 493.3 40 490 40z"/><path class="st2" d="M24 40L24 40c-4.4 0-8-3.6-8-8v0c0-4.4 3.6-8 8-8h0c4.4 0 8 3.6 8 8v0C32 36.4 28.4 40 24 40zM64 32L64 32c0-4.4-3.6-8-8-8h0c-4.4 0-8 3.6-8 8v0c0 4.4 3.6 8 8 8h0C60.4 40 64 36.4 64 32zM96 32L96 32c0-4.4-3.6-8-8-8h0c-4.4 0-8 3.6-8 8v0c0 4.4 3.6 8 8 8h0C92.4 40 96 36.4 96 32z"/><path class="st3" d="M368 120H160c-4.4 0-8-3.6-8-8v0c0-4.4 3.6-8 8-8h208c4.4 0 8 3.6 8 8v0C376 116.4 372.4 120 368 120zM336 144L336 144c0-4.4-3.6-8-8-8H200c-4.4 0-8 3.6-8 8v0c0 4.4 3.6 8 8 8h128C332.4 152 336 148.4 336 144z"/><path class="st0" d="M384 384H72c-4.4 0-8-3.6-8-8l0 0c0-4.4 3.6-8 8-8h312c4.4 0 8 3.6 8 8l0 0C392 380.4 388.4 384 384 384zM224 408L224 408c0-4.4-3.6-8-8-8H72c-4.4 0-8 3.6-8 8l0 0c0 4.4 3.6 8 8 8h144C220.4 416 224 412.4 224 408zM280 408L280 408c0-4.4-3.6-8-8-8h-24c-4.4 0-8 3.6-8 8l0 0c0 4.4 3.6 8 8 8h24C276.4 416 280 412.4 280 408zM448 376L448 376c0-4.4-3.6-8-8-8h-24c-4.4 0-8 3.6-8 8l0 0c0 4.4 3.6 8 8 8h24C444.4 384 448 380.4 448 376z"/><path class="st4" d="M232.7 262.6c-14.2 0-25.7 11.5-25.7 25.7 0 14.2 11.5 25.7 25.7 25.7 14.2 0 25.7-11.5 25.7-25.7C258.4 274.1 246.9 262.6 232.7 262.6zM232.7 303.8c-8.6 0-15.5-7-15.5-15.5 0-8.6 7-15.5 15.5-15.5 8.6 0 15.5 7 15.5 15.5C248.3 296.9 241.3 303.8 232.7 303.8zM327 305.4c0 4.8-3.8 8.6-8.6 8.6 -4.8 0-8.6-3.8-8.6-8.6 0-25.2-9.9-49-27.6-66.7s-41.5-27.6-66.7-27.6c-4.8 0-8.6-3.8-8.6-8.6s3.8-8.6 8.6-8.6C276.9 194 327 244.1 327 305.4zM292.7 305.4c0 4.8-3.8 8.6-8.6 8.6s-8.6-3.8-8.6-8.6c0-16.1-5.9-31.1-17.4-42.6 -11.3-11.3-26.3-17.4-42.6-17.4 -4.8 0-8.6-3.8-8.6-8.6s3.8-8.6 8.6-8.6C258.4 228.3 292.7 262.8 292.7 305.4z"/></svg>