<svg version="1.1" xmlns="http://www.w3.org/2000/svg" x="0px" y="0px" viewBox="0 0 512 480" xml:space="preserve"><style type="text/css">
	.st0{fill:#CAD0D7;}
	.st1{fill:#E1E6E9;}
	.st2{fill:#99A5AD;}
	.st3{fill:#F59F42;}
	.st4{fill:#FCB33B;}
	.st5{fill:#FFFFFF;}
</style><path class="st0" d="M496 0H16C7.2 0 0 7.2 0 16v448c0 8.8 7.2 16 16 16h480c8.8 0 16-7.2 16-16V16C512 7.2 504.8 0 496 0zM496 456c0 4.4-3.6 8-8 8H24c-4.4 0-8-3.6-8-8V72c0-4.4 3.6-8 8-8h464c4.4 0 8 3.6 8 8V456z"/><path class="st1" d="M490 40H118c-3.3 0-6-2.7-6-6v-4c0-3.3 2.7-6 6-6h372c3.3 0 6 2.7 6 6v4C496 37.3 493.3 40 490 40z"/><path class="st2" d="M24 40L24 40c-4.4 0-8-3.6-8-8v0c0-4.4 3.6-8 8-8h0c4.4 0 8 3.6 8 8v0C32 36.4 28.4 40 24 40zM64 32L64 32c0-4.4-3.6-8-8-8h0c-4.4 0-8 3.6-8 8v0c0 4.4 3.6 8 8 8h0C60.4 40 64 36.4 64 32zM96 32L96 32c0-4.4-3.6-8-8-8h0c-4.4 0-8 3.6-8 8v0c0 4.4 3.6 8 8 8h0C92.4 40 96 36.4 96 32z"/><path class="st1" d="M320 440H192c-8.8 0-16-7.2-16-16V112c0-8.8 7.2-16 16-16h128c8.8 0 16 7.2 16 16v312C336 432.8 328.8 440 320 440z"/><path class="st3" d="M144 240H64c-4.4 0-8-3.6-8-8v-80c0-4.4 3.6-8 8-8h80c4.4 0 8 3.6 8 8v80C152 236.4 148.4 240 144 240z"/><path class="st4" d="M144 232H64v-80h80V232z"/><path class="st5" d="M107.5 170l4.9 10.4c0.5 1.1 1.4 1.8 2.5 1.9l10.9 1.7c2.8 0.4 3.9 4 1.9 6.1l-7.9 8.1c-0.8 0.8-1.2 2-1 3.2l1.9 11.4c0.5 2.9-2.4 5.1-4.9 3.8l-9.7-5.4c-1-0.5-2.2-0.5-3.1 0l-9.7 5.4c-2.5 1.4-5.4-0.8-4.9-3.8l1.9-11.4c0.2-1.2-0.2-2.3-1-3.2l-7.9-8.1c-2-2.1-0.9-5.7 1.9-6.1l10.9-1.7c1.1-0.2 2-0.9 2.5-1.9l4.9-10.4C102.7 167.4 106.3 167.4 107.5 170z"/><path class="st3" d="M296 224h-80c-4.4 0-8-3.6-8-8v-80c0-4.4 3.6-8 8-8h80c4.4 0 8 3.6 8 8v80C304 220.4 300.4 224 296 224z"/><path class="st4" d="M296 216h-80v-80h80V216z"/><path class="st5" d="M259.5 154l4.9 10.4c0.5 1.1 1.4 1.8 2.5 1.9l10.9 1.7c2.8 0.4 3.9 4 1.9 6.1l-7.9 8.1c-0.8 0.8-1.2 2-1 3.2l1.9 11.4c0.5 2.9-2.4 5.1-4.9 3.8l-9.7-5.4c-1-0.5-2.2-0.5-3.1 0l-9.7 5.4c-2.5 1.4-5.4-0.8-4.9-3.8l1.9-11.4c0.2-1.2-0.2-2.3-1-3.2l-7.9-8.1c-2-2.1-0.9-5.7 1.9-6.1l10.9-1.7c1.1-0.2 2-0.9 2.5-1.9l4.9-10.4C254.7 151.4 258.3 151.4 259.5 154z"/><path class="st3" d="M448 240h-80c-4.4 0-8-3.6-8-8v-80c0-4.4 3.6-8 8-8h80c4.4 0 8 3.6 8 8v80C456 236.4 452.4 240 448 240z"/><path class="st4" d="M448 232h-80v-80h80V232z"/><path class="st5" d="M411.5 170l4.9 10.4c0.5 1.1 1.4 1.8 2.5 1.9l10.9 1.7c2.8 0.4 3.9 4 1.9 6.1l-7.9 8.1c-0.8 0.8-1.2 2-1 3.2l1.9 11.4c0.5 2.9-2.4 5.1-4.9 3.8l-9.7-5.4c-1-0.5-2.2-0.5-3.1 0l-9.7 5.4c-2.5 1.4-5.4-0.8-4.9-3.8l1.9-11.4c0.2-1.2-0.2-2.3-1-3.2l-7.9-8.1c-2-2.1-0.9-5.7 1.9-6.1l10.9-1.7c1.1-0.2 2-0.9 2.5-1.9l4.9-10.4C406.7 167.4 410.3 167.4 411.5 170z"/><path class="st0" d="M144 280H64c-4.4 0-8-3.6-8-8l0 0c0-4.4 3.6-8 8-8h80c4.4 0 8 3.6 8 8l0 0C152 276.4 148.4 280 144 280zM136 304L136 304c0-4.4-3.6-8-8-8H80c-4.4 0-8 3.6-8 8l0 0c0 4.4 3.6 8 8 8h48C132.4 312 136 308.4 136 304zM144 336L144 336c0-4.4-3.6-8-8-8H72c-4.4 0-8 3.6-8 8l0 0c0 4.4 3.6 8 8 8h64C140.4 344 144 340.4 144 336z"/><path class="st0" d="M448 280h-80c-4.4 0-8-3.6-8-8l0 0c0-4.4 3.6-8 8-8h80c4.4 0 8 3.6 8 8l0 0C456 276.4 452.4 280 448 280zM440 304L440 304c0-4.4-3.6-8-8-8h-48c-4.4 0-8 3.6-8 8l0 0c0 4.4 3.6 8 8 8h48C436.4 312 440 308.4 440 304zM448 336L448 336c0-4.4-3.6-8-8-8h-64c-4.4 0-8 3.6-8 8l0 0c0 4.4 3.6 8 8 8h64C444.4 344 448 340.4 448 336z"/><path class="st2" d="M296 280h-80c-4.4 0-8-3.6-8-8l0 0c0-4.4 3.6-8 8-8h80c4.4 0 8 3.6 8 8l0 0C304 276.4 300.4 280 296 280zM288 304L288 304c0-4.4-3.6-8-8-8h-48c-4.4 0-8 3.6-8 8l0 0c0 4.4 3.6 8 8 8h48C284.4 312 288 308.4 288 304zM296 336L296 336c0-4.4-3.6-8-8-8h-64c-4.4 0-8 3.6-8 8l0 0c0 4.4 3.6 8 8 8h64C292.4 344 296 340.4 296 336z"/></svg>