<?xml version="1.0" standalone="no"?>
<!DOCTYPE svg PUBLIC "-//W3C//DTD SVG 20010904//EN"
 "http://www.w3.org/TR/2001/REC-SVG-20010904/DTD/svg10.dtd">
<svg version="1.0" xmlns="http://www.w3.org/2000/svg"
 width="320.000000pt" height="100.000000pt" viewBox="0 0 320.000000 100.000000"
 preserveAspectRatio="xMidYMid meet">
<metadata>
Created by potrace 1.10, written by Peter Selinger 2001-2011
</metadata>
<g transform="translate(0.000000,100.000000) scale(0.100000,-0.100000)"
fill="#228b22" stroke="none">
<path d="M0 1500 l0 -1500 1489 0 1488 0 7 55 c3 31 10 75 16 98 5 23 16 87
25 142 9 55 21 123 27 150 13 69 38 217 49 295 5 36 13 78 19 94 5 16 10 42
10 59 0 16 6 59 14 96 8 36 22 111 31 166 9 55 21 123 26 150 15 73 40 223 46
273 5 40 11 46 40 43 7 -1 85 -76 175 -167 l163 -166 529 526 c291 289 532
526 535 526 4 0 67 -61 139 -135 73 -74 136 -135 141 -135 5 0 80 70 166 156
l157 157 -167 167 c-115 115 -166 173 -164 185 5 21 49 31 474 100 55 9 132
23 170 31 39 8 81 14 94 14 24 0 147 21 262 46 37 8 82 14 101 14 19 0 49 5
66 11 17 6 61 14 98 17 40 4 69 12 72 20 3 9 -631 12 -3147 12 l-3151 0 0
-1500z"/>
<path d="M6610 2997 c0 -6 -32 -200 -45 -277 -7 -41 -20 -115 -29 -165 -8 -49
-22 -128 -30 -175 -9 -47 -22 -123 -30 -170 -9 -47 -25 -139 -36 -205 -12 -66
-25 -145 -30 -175 -5 -30 -16 -93 -24 -140 -9 -47 -23 -131 -32 -188 -27 -163
-16 -164 -211 31 -92 92 -172 167 -177 167 -6 0 -243 -232 -526 -515 -293
-293 -523 -515 -533 -515 -9 0 -74 59 -144 130 -69 72 -131 130 -137 130 -14
0 -326 -311 -326 -325 0 -6 72 -82 160 -170 115 -114 160 -166 158 -180 -3
-17 -16 -22 -83 -32 -44 -7 -122 -19 -172 -28 -51 -8 -132 -22 -180 -29 -49
-8 -128 -22 -178 -31 -49 -9 -117 -20 -150 -25 -33 -5 -114 -19 -180 -30 -168
-29 -288 -49 -370 -61 -38 -5 -74 -12 -80 -14 -5 -2 1427 -4 3183 -4 l3192 -1
0 1500 0 1500 -1495 0 c-822 0 -1495 -2 -1495 -3z"/>
<path d="M6375 2859 c-22 -4 -85 -15 -140 -24 -55 -9 -136 -23 -180 -30 -44
-8 -125 -21 -180 -30 -55 -9 -136 -23 -180 -30 -206 -35 -277 -47 -370 -61
-55 -9 -104 -20 -110 -25 -6 -6 37 -56 118 -137 70 -70 127 -133 127 -141 0
-7 -90 -103 -200 -212 -110 -110 -200 -203 -200 -207 0 -4 63 -70 140 -147 77
-77 140 -147 140 -155 0 -8 -139 -152 -310 -321 -170 -168 -310 -312 -310
-318 0 -16 177 -194 189 -189 5 1 240 233 523 513 282 281 519 514 527 519 10
6 50 -28 147 -125 73 -73 137 -130 141 -126 3 4 10 33 14 65 5 31 15 95 23
142 25 138 46 259 61 350 8 47 21 123 29 170 29 160 45 255 60 340 8 47 19
105 25 129 5 25 8 49 5 53 -6 10 -35 9 -89 -3z"/>
</g>
</svg>
