<svg id="svg" version="1.1" xmlns="http://www.w3.org/2000/svg" xmlns:xlink="http://www.w3.org/1999/xlink" width="400" height="127.6470588235294" viewBox="0, 0, 400,127.6470588235294"><g id="svgg"><path id="path0" d="M274.125 0.931 C 274.071 0.985,273.290 1.130,272.388 1.253 C 271.487 1.377,270.337 1.557,269.833 1.652 C 269.329 1.748,267.979 1.983,266.833 2.175 C 265.688 2.368,264.188 2.628,263.500 2.754 C 262.813 2.880,261.837 3.032,261.333 3.092 C 260.829 3.151,259.967 3.304,259.417 3.431 C 258.867 3.558,258.103 3.663,257.719 3.664 C 257.336 3.666,256.811 3.748,256.553 3.847 C 256.294 3.946,255.371 4.131,254.500 4.258 C 253.629 4.385,252.054 4.641,251.000 4.827 C 249.946 5.012,248.446 5.242,247.667 5.338 C 246.887 5.433,246.063 5.580,245.833 5.664 C 245.604 5.749,244.711 5.899,243.848 5.999 C 242.986 6.098,242.210 6.223,242.124 6.276 C 242.039 6.329,241.282 6.468,240.443 6.585 C 239.603 6.702,238.504 6.877,238.000 6.975 C 237.496 7.072,236.333 7.271,235.417 7.417 C 234.500 7.563,232.958 7.829,231.990 8.008 C 231.022 8.187,229.965 8.333,229.641 8.333 C 229.318 8.333,228.685 8.445,228.235 8.581 C 227.785 8.718,226.929 8.874,226.333 8.929 C 225.737 8.984,225.025 9.097,224.750 9.180 C 224.475 9.263,223.500 9.444,222.583 9.582 C 220.040 9.966,218.540 10.212,214.833 10.853 C 214.237 10.956,213.112 11.135,212.333 11.250 C 211.554 11.366,210.542 11.543,210.083 11.643 C 209.625 11.744,208.902 11.869,208.476 11.921 C 207.308 12.063,207.282 12.032,214.476 19.280 C 218.117 22.948,221.232 26.158,221.400 26.414 L 221.704 26.879 216.311 32.201 C 213.344 35.128,210.120 38.313,209.147 39.279 C 207.474 40.938,207.355 41.023,206.980 40.828 C 206.762 40.714,204.130 38.150,201.131 35.130 C 197.831 31.807,195.578 29.662,195.423 29.695 C 195.177 29.748,179.600 45.121,155.076 69.512 C 152.772 71.803,151.450 73.000,151.223 73.000 C 150.989 73.000,148.606 70.719,143.866 65.962 C 140.010 62.091,136.807 58.971,136.748 59.029 C 136.690 59.088,136.578 59.536,136.501 60.026 C 136.168 62.122,135.954 63.313,135.738 64.267 C 135.612 64.826,135.463 65.726,135.406 66.267 C 135.350 66.808,135.238 67.475,135.157 67.750 C 135.076 68.025,134.891 69.000,134.744 69.917 C 134.209 73.265,134.018 74.385,133.851 75.143 C 133.757 75.569,133.601 76.442,133.504 77.083 C 133.022 80.269,132.839 81.296,132.677 81.723 C 132.580 81.979,132.501 82.427,132.502 82.719 C 132.503 83.011,132.358 84.000,132.180 84.917 C 131.523 88.304,131.255 89.828,130.833 92.583 C 130.735 93.225,130.575 94.087,130.477 94.500 C 130.379 94.912,130.199 95.888,130.077 96.667 C 129.450 100.656,129.317 101.437,129.231 101.667 C 129.178 101.804,129.036 102.554,128.914 103.333 C 128.379 106.750,128.171 107.954,128.022 108.500 C 127.934 108.821,127.786 109.646,127.694 110.333 C 127.602 111.021,127.445 112.015,127.346 112.542 C 126.890 114.975,126.794 115.502,126.581 116.750 C 126.456 117.483,126.268 118.646,126.165 119.333 C 126.061 120.021,125.870 121.033,125.740 121.583 C 125.610 122.133,125.421 123.183,125.321 123.917 C 125.221 124.650,125.099 125.501,125.050 125.807 L 124.960 126.364 126.105 126.249 C 126.735 126.186,127.571 126.029,127.964 125.901 C 128.357 125.772,128.994 125.666,129.381 125.665 C 129.767 125.664,130.683 125.515,131.417 125.333 C 132.150 125.152,133.064 125.003,133.447 125.002 C 133.831 125.001,134.346 124.923,134.592 124.830 C 135.002 124.674,136.049 124.497,139.500 124.000 C 140.188 123.900,141.087 123.740,141.500 123.643 C 141.912 123.546,142.962 123.364,143.833 123.239 C 144.704 123.114,146.279 122.857,147.333 122.668 C 148.387 122.479,149.925 122.221,150.750 122.096 C 153.289 121.710,154.536 121.500,155.750 121.253 C 156.392 121.123,157.479 120.942,158.167 120.852 C 158.854 120.762,159.792 120.612,160.250 120.519 C 161.084 120.350,162.176 120.168,164.833 119.754 C 167.249 119.378,168.539 119.155,169.750 118.903 C 170.392 118.769,171.442 118.614,172.083 118.557 C 172.725 118.500,173.370 118.393,173.516 118.318 C 173.662 118.244,174.450 118.100,175.266 118.000 C 176.082 117.900,177.012 117.744,177.333 117.654 C 177.654 117.564,178.479 117.421,179.167 117.336 C 180.366 117.189,180.885 117.102,183.667 116.584 C 184.354 116.456,185.367 116.303,185.917 116.243 C 186.467 116.183,187.292 116.036,187.750 115.915 C 188.208 115.794,189.108 115.651,189.750 115.597 C 190.921 115.497,192.276 115.127,192.220 114.921 C 192.203 114.860,189.079 111.667,185.276 107.824 C 179.572 102.059,178.380 100.776,178.456 100.483 C 178.507 100.289,180.394 98.299,182.649 96.062 C 184.905 93.826,188.032 90.722,189.599 89.164 C 191.742 87.034,192.549 86.333,192.859 86.333 C 193.178 86.333,194.518 87.589,198.818 91.917 C 201.870 94.988,204.467 97.500,204.589 97.500 C 204.711 97.500,208.585 93.751,213.197 89.169 C 245.343 57.237,248.382 54.247,248.749 54.199 C 249.058 54.158,249.679 54.696,251.819 56.860 C 264.106 69.285,263.266 68.525,263.419 67.366 C 263.476 66.936,263.630 66.129,263.761 65.573 C 263.893 65.017,264.003 64.267,264.007 63.906 C 264.011 63.545,264.122 62.950,264.253 62.583 C 264.384 62.217,264.542 61.354,264.603 60.667 C 264.664 59.979,264.785 59.229,264.873 59.000 C 264.960 58.771,265.134 57.908,265.259 57.083 C 265.766 53.727,265.979 52.483,266.138 51.963 C 266.229 51.662,266.352 50.895,266.410 50.257 C 266.469 49.620,266.578 49.020,266.653 48.924 C 266.729 48.828,266.844 48.191,266.909 47.508 C 266.974 46.825,267.125 45.962,267.245 45.591 C 267.365 45.220,267.505 44.429,267.556 43.833 C 267.606 43.237,267.764 42.303,267.907 41.757 C 268.050 41.210,268.167 40.484,268.167 40.143 C 268.167 39.801,268.244 39.318,268.339 39.069 C 268.503 38.638,268.779 37.071,269.174 34.333 C 269.273 33.646,269.456 32.708,269.579 32.250 C 269.703 31.792,269.851 30.967,269.910 30.417 C 269.969 29.867,270.119 28.929,270.245 28.333 C 270.522 27.018,270.742 25.731,271.572 20.583 C 271.720 19.667,271.909 18.729,271.992 18.500 C 272.076 18.271,272.194 17.565,272.255 16.931 C 272.316 16.297,272.470 15.435,272.598 15.014 C 272.725 14.594,272.831 13.950,272.832 13.582 C 272.833 13.215,272.914 12.652,273.012 12.332 C 273.111 12.012,273.293 11.112,273.417 10.333 C 273.887 7.379,274.028 6.561,274.191 5.833 C 274.283 5.421,274.460 4.371,274.584 3.500 C 274.708 2.629,274.885 1.673,274.977 1.375 C 275.137 0.854,274.522 0.533,274.125 0.931 M270.056 6.029 C 270.180 6.225,270.172 6.666,270.029 7.529 C 269.917 8.200,269.726 9.350,269.604 10.083 C 269.482 10.817,269.296 11.867,269.191 12.417 C 268.919 13.834,268.690 15.180,268.415 16.960 C 268.284 17.809,268.099 18.648,268.005 18.824 C 267.911 19.001,267.833 19.511,267.833 19.959 C 267.833 20.406,267.685 21.330,267.504 22.011 C 267.323 22.693,267.173 23.564,267.171 23.947 C 267.168 24.331,267.090 24.846,266.997 25.092 C 266.903 25.338,266.716 26.262,266.580 27.145 C 266.086 30.363,265.989 30.930,265.806 31.667 C 265.704 32.079,265.524 33.092,265.406 33.917 C 265.288 34.742,265.116 35.792,265.024 36.250 C 264.679 37.969,264.229 40.605,263.762 43.638 C 263.617 44.585,263.433 45.485,263.355 45.638 C 263.276 45.791,263.165 46.446,263.108 47.092 C 263.051 47.739,262.891 48.639,262.754 49.092 C 262.616 49.546,262.502 50.217,262.500 50.583 C 262.498 50.950,262.348 51.850,262.167 52.583 C 261.985 53.317,261.836 54.157,261.835 54.450 C 261.834 54.744,261.721 55.416,261.583 55.944 C 261.446 56.471,261.333 57.147,261.333 57.446 C 261.333 58.101,260.889 59.493,260.576 59.819 C 260.383 60.020,259.521 59.215,254.726 54.353 C 250.908 50.483,249.007 48.668,248.806 48.701 C 248.643 48.728,245.131 52.106,241.002 56.208 C 236.873 60.310,233.421 63.667,233.331 63.667 C 233.241 63.667,233.167 63.731,233.167 63.809 C 233.167 63.887,232.060 65.048,230.708 66.387 C 229.356 67.727,223.075 73.972,216.751 80.265 C 205.413 91.545,204.755 92.152,204.197 91.846 C 203.632 91.536,195.833 83.520,195.833 83.249 C 195.833 83.095,199.377 79.448,203.708 75.146 C 220.077 58.885,222.178 56.765,222.131 56.555 C 222.105 56.436,219.480 53.724,216.297 50.529 C 213.115 47.333,210.430 44.505,210.331 44.245 C 210.153 43.776,210.252 43.671,218.675 35.322 C 226.052 28.010,227.177 26.830,227.033 26.561 C 226.941 26.389,224.421 23.785,221.433 20.773 C 216.055 15.351,215.571 14.760,216.375 14.597 C 216.581 14.555,216.975 14.473,217.250 14.414 C 217.525 14.356,218.200 14.235,218.750 14.145 C 219.300 14.055,220.275 13.873,220.917 13.740 C 221.558 13.608,222.646 13.428,223.333 13.341 C 224.021 13.254,225.033 13.101,225.583 13.001 C 227.118 12.722,228.491 12.485,229.500 12.324 C 230.004 12.244,231.092 12.063,231.917 11.923 C 232.742 11.782,233.904 11.584,234.500 11.483 C 235.096 11.382,236.270 11.203,237.109 11.086 C 237.949 10.968,238.720 10.820,238.823 10.756 C 238.926 10.693,239.722 10.573,240.592 10.491 C 241.462 10.409,242.319 10.264,242.496 10.169 C 242.673 10.074,243.290 9.955,243.867 9.905 C 244.444 9.855,245.404 9.709,246.000 9.580 C 246.596 9.452,247.571 9.276,248.167 9.188 C 250.683 8.819,251.816 8.634,252.917 8.411 C 253.558 8.280,254.608 8.103,255.250 8.015 C 255.892 7.928,256.754 7.780,257.167 7.686 C 257.579 7.592,258.278 7.511,258.719 7.507 C 259.161 7.503,259.666 7.423,259.842 7.328 C 260.019 7.234,260.858 7.053,261.706 6.925 C 264.210 6.549,265.506 6.334,266.833 6.074 C 268.035 5.838,269.160 5.703,269.649 5.735 C 269.776 5.743,269.960 5.875,270.056 6.029 " stroke="none" fill="#fafbf9" fill-rule="evenodd"></path><path id="path1" d="M0.000 63.750 L 0.000 127.500 62.708 127.495 L 125.417 127.490 125.738 127.049 C 126.056 126.613,126.056 126.610,125.738 126.740 C 124.975 127.052,124.843 127.036,124.650 126.612 C 124.455 126.185,124.585 124.894,124.988 123.250 C 125.078 122.883,125.232 122.021,125.330 121.333 C 125.427 120.646,125.614 119.483,125.744 118.750 C 125.874 118.017,126.068 116.817,126.176 116.083 C 126.284 115.350,126.471 114.375,126.593 113.917 C 126.716 113.458,126.862 112.599,126.920 112.007 C 126.977 111.415,127.131 110.675,127.262 110.362 C 127.393 110.049,127.500 109.405,127.500 108.931 C 127.500 108.458,127.618 107.623,127.762 107.077 C 127.906 106.530,128.085 105.596,128.160 105.000 C 128.290 103.968,128.421 103.227,128.835 101.167 C 128.937 100.662,129.118 99.575,129.239 98.750 C 129.359 97.925,129.536 97.025,129.632 96.750 C 129.728 96.475,129.855 95.656,129.913 94.930 C 129.971 94.203,130.086 93.484,130.168 93.331 C 130.249 93.179,130.394 92.430,130.490 91.668 C 130.586 90.905,130.735 90.049,130.821 89.766 C 130.908 89.482,131.060 88.688,131.159 88.000 C 131.673 84.416,131.819 83.615,131.985 83.448 C 132.085 83.348,132.167 82.845,132.167 82.330 C 132.167 81.815,132.315 80.837,132.496 80.155 C 132.677 79.474,132.827 78.616,132.829 78.249 C 132.832 77.882,132.914 77.319,133.012 76.999 C 133.110 76.679,133.296 75.742,133.426 74.917 C 133.557 74.092,133.736 73.079,133.824 72.667 C 133.913 72.254,133.989 71.640,133.993 71.303 C 133.997 70.965,134.089 70.477,134.198 70.219 C 134.307 69.961,134.489 69.075,134.602 68.250 C 134.715 67.425,134.885 66.375,134.980 65.917 C 135.146 65.111,135.335 64.008,135.665 61.917 C 136.121 59.028,136.300 58.500,136.823 58.500 C 136.979 58.500,140.238 61.650,144.066 65.500 C 147.893 69.350,151.120 72.500,151.236 72.500 C 151.352 72.500,155.519 68.450,160.497 63.500 C 165.475 58.550,169.607 54.500,169.679 54.500 C 169.752 54.500,169.858 54.350,169.917 54.167 C 169.975 53.983,170.076 53.833,170.141 53.833 C 170.312 53.833,172.167 51.999,172.167 51.830 C 172.167 51.753,172.317 51.642,172.500 51.583 C 172.683 51.525,172.833 51.370,172.833 51.239 C 172.833 51.107,172.905 51.000,172.992 51.000 C 173.199 51.000,174.000 50.199,174.000 49.992 C 174.000 49.905,174.062 49.833,174.139 49.833 C 174.215 49.833,178.950 45.183,184.661 39.500 C 192.696 31.505,195.137 29.167,195.451 29.167 C 195.851 29.167,202.000 35.123,202.000 35.510 C 202.000 35.596,202.069 35.667,202.153 35.667 C 202.353 35.667,204.333 37.647,204.333 37.847 C 204.333 37.931,204.408 38.000,204.500 38.000 C 204.591 38.000,205.170 38.525,205.785 39.167 C 206.400 39.808,207.020 40.333,207.163 40.333 C 207.444 40.333,221.000 26.988,221.000 26.712 C 221.000 26.552,219.180 24.675,210.658 16.047 C 207.236 12.584,206.761 12.001,207.156 11.757 C 207.381 11.617,208.728 11.349,210.167 11.157 C 210.854 11.066,211.754 10.907,212.167 10.806 C 212.579 10.704,213.629 10.524,214.500 10.405 C 215.371 10.287,216.458 10.113,216.917 10.019 C 218.024 9.792,219.648 9.525,221.105 9.331 C 221.758 9.244,222.730 9.059,223.265 8.920 C 223.799 8.781,224.587 8.667,225.014 8.667 C 225.442 8.667,226.089 8.562,226.453 8.433 C 226.816 8.305,227.707 8.148,228.432 8.084 C 229.157 8.020,230.071 7.863,230.464 7.734 C 230.857 7.605,231.583 7.500,232.078 7.500 C 232.573 7.500,233.189 7.416,233.447 7.314 C 233.706 7.211,234.592 7.026,235.417 6.902 C 237.790 6.545,239.014 6.343,240.000 6.145 C 240.504 6.044,241.629 5.862,242.500 5.740 C 243.371 5.618,244.496 5.441,245.000 5.347 C 246.192 5.125,247.720 4.871,249.583 4.584 C 250.408 4.458,251.345 4.274,251.666 4.177 C 251.986 4.080,252.555 4.000,252.931 4.000 C 253.306 4.000,253.982 3.886,254.432 3.746 C 254.882 3.606,255.887 3.446,256.667 3.390 C 257.446 3.334,258.172 3.218,258.281 3.132 C 258.390 3.047,259.198 2.909,260.076 2.826 C 260.955 2.743,261.811 2.601,261.979 2.511 C 262.147 2.421,262.802 2.303,263.434 2.248 C 264.066 2.193,264.958 2.048,265.417 1.926 C 265.875 1.805,266.813 1.623,267.500 1.522 C 268.188 1.421,269.125 1.267,269.583 1.179 C 270.042 1.092,270.795 1.015,271.258 1.010 C 271.721 1.004,272.192 0.908,272.304 0.796 C 272.719 0.381,275.408 0.519,275.470 0.958 C 275.499 1.165,275.581 1.333,275.652 1.333 C 275.776 1.333,298.943 24.420,361.788 87.168 C 388.512 113.852,399.445 124.665,399.843 124.806 C 399.941 124.840,400.000 101.342,400.000 62.431 L 400.000 0.000 200.000 0.000 L 0.000 0.000 0.000 63.750 M221.417 20.167 C 221.868 20.625,222.275 21.000,222.321 21.000 C 222.367 21.000,222.035 20.625,221.583 20.167 C 221.132 19.708,220.725 19.333,220.679 19.333 C 220.633 19.333,220.965 19.708,221.417 20.167 M266.095 26.929 C 266.034 27.173,266.016 27.405,266.055 27.444 C 266.094 27.483,266.177 27.316,266.238 27.071 C 266.299 26.827,266.317 26.595,266.278 26.556 C 266.239 26.517,266.157 26.684,266.095 26.929 M220.331 59.292 L 218.250 61.417 220.375 59.336 C 222.349 57.403,222.576 57.167,222.456 57.167 C 222.432 57.167,221.475 58.123,220.331 59.292 M216.828 62.792 L 215.917 63.750 216.875 62.839 C 217.402 62.338,217.833 61.907,217.833 61.881 C 217.833 61.757,217.674 61.901,216.828 62.792 M214.577 65.042 L 213.750 65.917 214.625 65.090 C 215.106 64.635,215.500 64.241,215.500 64.215 C 215.500 64.090,215.346 64.229,214.577 65.042 M230.406 72.708 L 229.917 73.250 230.458 72.760 C 230.963 72.304,231.077 72.167,230.948 72.167 C 230.919 72.167,230.675 72.410,230.406 72.708 M226.915 76.208 L 224.083 79.083 226.958 76.252 C 228.540 74.695,229.833 73.401,229.833 73.377 C 229.833 73.258,229.545 73.537,226.915 76.208 M199.162 80.292 L 198.083 81.417 199.208 80.338 C 199.827 79.745,200.333 79.239,200.333 79.213 C 200.333 79.090,200.164 79.247,199.162 80.292 M216.073 80.208 L 215.583 80.750 216.125 80.260 C 216.630 79.804,216.743 79.667,216.615 79.667 C 216.586 79.667,216.342 79.910,216.073 80.208 M197.003 82.413 C 196.600 82.824,196.304 83.184,196.344 83.214 C 196.384 83.243,196.746 82.907,197.149 82.467 C 198.071 81.458,197.976 81.423,197.003 82.413 M208.906 94.042 L 208.417 94.583 208.958 94.094 C 209.463 93.638,209.577 93.500,209.448 93.500 C 209.419 93.500,209.175 93.744,208.906 94.042 M183.500 105.385 C 183.500 105.414,183.744 105.658,184.042 105.927 L 184.583 106.417 184.094 105.875 C 183.638 105.370,183.500 105.257,183.500 105.385 M185.833 107.750 C 186.144 108.071,186.436 108.333,186.482 108.333 C 186.528 108.333,186.311 108.071,186.000 107.750 C 185.689 107.429,185.397 107.167,185.351 107.167 C 185.305 107.167,185.522 107.429,185.833 107.750 M178.250 118.000 C 178.040 118.090,178.009 118.143,178.167 118.143 C 178.304 118.143,178.567 118.079,178.750 118.000 C 178.960 117.910,178.991 117.857,178.833 117.857 C 178.696 117.857,178.433 117.921,178.250 118.000 " stroke="none" fill="#71c934" fill-rule="evenodd"></path><path id="path2" d="M275.413 2.208 C 275.348 2.690,275.230 3.206,275.151 3.357 C 275.072 3.507,274.934 4.282,274.843 5.078 C 274.753 5.875,274.606 6.764,274.518 7.055 C 274.429 7.346,274.272 8.183,274.167 8.917 C 273.736 11.938,273.525 13.143,273.372 13.438 C 273.284 13.610,273.169 14.313,273.118 15.000 C 273.066 15.688,272.906 16.578,272.762 16.979 C 272.618 17.380,272.500 18.056,272.500 18.480 C 272.500 18.905,272.420 19.514,272.321 19.834 C 272.137 20.433,271.825 22.241,271.500 24.583 C 271.398 25.317,271.214 26.254,271.089 26.667 C 270.965 27.079,270.810 27.972,270.745 28.651 C 270.681 29.331,270.524 30.134,270.397 30.438 C 270.270 30.741,270.165 31.348,270.163 31.786 C 270.161 32.225,270.080 32.883,269.984 33.250 C 269.888 33.617,269.707 34.554,269.583 35.333 C 269.346 36.817,269.139 37.966,268.833 39.500 C 268.732 40.004,268.576 41.017,268.486 41.750 C 268.397 42.483,268.213 43.366,268.078 43.712 C 267.944 44.057,267.832 44.695,267.829 45.128 C 267.827 45.562,267.745 46.217,267.647 46.583 C 267.549 46.950,267.398 47.737,267.312 48.333 C 267.225 48.929,267.046 49.942,266.912 50.583 C 266.779 51.225,266.586 52.275,266.485 52.917 C 266.383 53.558,266.205 54.683,266.089 55.417 C 265.973 56.150,265.796 57.087,265.696 57.500 C 265.596 57.913,265.436 58.775,265.341 59.417 C 265.128 60.852,264.876 62.316,264.653 63.417 C 264.560 63.875,264.413 64.785,264.328 65.438 C 264.043 67.622,263.654 68.833,263.237 68.833 C 263.029 68.833,257.995 63.863,250.931 56.682 C 249.930 55.665,248.985 54.833,248.830 54.833 C 248.675 54.833,245.069 58.286,240.816 62.506 C 223.692 79.496,207.063 95.980,205.977 97.042 C 205.344 97.660,204.696 98.167,204.536 98.167 C 204.376 98.167,201.770 95.671,198.735 92.612 C 195.704 89.557,193.100 87.010,192.948 86.952 C 192.747 86.875,192.053 87.455,190.395 89.090 C 189.143 90.324,188.054 91.333,187.976 91.333 C 187.898 91.333,187.833 91.401,187.833 91.484 C 187.833 91.567,186.851 92.598,185.651 93.775 C 182.899 96.476,182.502 96.887,182.501 97.042 C 182.500 97.110,182.433 97.167,182.352 97.167 C 182.092 97.167,178.987 100.393,179.036 100.612 C 179.062 100.728,182.215 103.970,186.042 107.818 C 189.869 111.665,192.999 114.911,192.997 115.032 C 192.990 115.663,192.860 115.700,188.333 116.338 C 187.646 116.435,186.558 116.629,185.917 116.769 C 185.275 116.909,184.225 117.089,183.583 117.170 C 182.942 117.250,182.042 117.393,181.583 117.486 C 180.150 117.777,178.802 117.997,177.333 118.179 C 176.554 118.275,175.595 118.462,175.203 118.594 C 174.810 118.726,174.050 118.833,173.515 118.833 C 172.980 118.833,172.214 118.950,171.813 119.093 C 171.412 119.235,170.483 119.419,169.750 119.500 C 169.017 119.581,168.042 119.723,167.583 119.816 C 166.655 120.004,163.072 120.615,162.167 120.740 C 161.492 120.833,159.822 121.112,158.500 121.351 C 157.996 121.443,157.058 121.590,156.417 121.679 C 155.775 121.768,154.725 121.952,154.083 122.089 C 153.442 122.226,152.429 122.405,151.833 122.487 C 150.081 122.730,148.497 122.993,147.250 123.249 C 146.608 123.381,145.611 123.528,145.034 123.576 C 144.457 123.624,143.836 123.743,143.654 123.840 C 143.471 123.938,142.625 124.076,141.772 124.148 C 140.920 124.220,140.132 124.335,140.022 124.403 C 139.912 124.471,139.093 124.632,138.202 124.761 C 136.556 124.998,135.314 125.205,133.667 125.517 C 133.162 125.612,132.075 125.792,131.250 125.918 C 130.425 126.043,129.412 126.222,129.000 126.316 C 128.587 126.409,127.829 126.489,127.314 126.493 C 126.404 126.500,125.500 126.925,125.500 127.345 C 125.500 127.440,178.522 127.500,262.750 127.500 L 400.000 127.500 400.000 126.274 L 400.000 125.048 398.214 123.315 C 392.028 117.318,386.359 111.691,361.043 86.417 C 297.819 23.299,275.775 1.333,275.656 1.333 C 275.587 1.333,275.478 1.727,275.413 2.208 M268.653 6.331 C 268.508 6.416,267.871 6.529,267.237 6.583 C 266.602 6.637,265.671 6.785,265.167 6.912 C 264.662 7.039,263.688 7.222,263.000 7.319 C 259.687 7.787,258.497 7.982,258.334 8.083 C 258.236 8.143,257.442 8.260,256.569 8.343 C 255.695 8.426,254.645 8.607,254.235 8.747 C 253.824 8.886,253.088 9.000,252.598 9.000 C 252.108 9.000,251.454 9.104,251.145 9.232 C 250.836 9.359,250.021 9.515,249.333 9.579 C 248.646 9.642,247.713 9.801,247.261 9.930 C 246.809 10.060,246.157 10.167,245.811 10.167 C 245.466 10.167,244.781 10.271,244.289 10.400 C 243.797 10.528,242.799 10.687,242.072 10.753 C 241.345 10.819,240.668 10.939,240.568 11.019 C 240.468 11.098,239.654 11.240,238.760 11.332 C 237.865 11.425,237.047 11.556,236.942 11.623 C 236.836 11.691,236.037 11.838,235.167 11.952 C 233.459 12.174,232.090 12.398,230.250 12.757 C 229.608 12.883,228.558 13.057,227.917 13.144 C 227.275 13.231,226.450 13.383,226.083 13.481 C 225.717 13.579,225.074 13.661,224.655 13.663 C 224.236 13.665,223.524 13.774,223.072 13.905 C 222.620 14.036,221.725 14.193,221.083 14.254 C 220.442 14.315,219.595 14.471,219.203 14.599 C 218.810 14.728,218.172 14.834,217.786 14.836 C 216.180 14.842,215.837 14.381,222.378 20.989 C 225.379 24.020,227.833 26.600,227.833 26.722 C 227.833 26.940,224.815 30.029,224.495 30.139 C 224.406 30.169,224.331 30.282,224.329 30.389 C 224.326 30.496,224.078 30.766,223.776 30.989 C 223.475 31.213,223.046 31.642,222.823 31.943 C 222.599 32.244,222.373 32.493,222.319 32.495 C 222.097 32.506,210.833 43.851,210.833 44.064 C 210.833 44.191,213.441 46.917,216.627 50.120 C 219.814 53.323,222.519 56.160,222.640 56.424 L 222.858 56.903 215.887 63.795 C 202.883 76.653,196.500 83.062,196.500 83.262 C 196.500 83.469,204.401 91.500,204.604 91.500 C 204.726 91.500,205.305 90.929,220.160 76.167 C 225.372 70.987,230.205 66.201,230.901 65.529 C 231.597 64.858,232.167 64.239,232.167 64.154 C 232.167 64.069,232.239 64.000,232.328 64.000 C 232.514 64.000,234.000 62.485,234.000 62.295 C 234.000 62.224,234.065 62.167,234.144 62.167 C 234.223 62.167,237.487 58.979,241.396 55.083 C 245.922 50.573,248.623 48.000,248.831 48.000 C 249.039 48.000,251.171 50.030,254.696 53.583 C 257.742 56.654,260.280 59.167,260.336 59.167 C 260.453 59.167,260.777 57.585,260.998 55.931 C 261.083 55.297,261.200 54.659,261.257 54.514 C 261.315 54.369,261.468 53.508,261.597 52.601 C 261.726 51.695,261.897 50.870,261.976 50.768 C 262.056 50.666,262.165 49.983,262.219 49.250 C 262.273 48.517,262.434 47.588,262.575 47.187 C 262.717 46.786,262.833 46.111,262.833 45.686 C 262.833 45.262,262.914 44.652,263.012 44.332 C 263.111 44.012,263.293 43.112,263.417 42.333 C 263.939 39.057,264.027 38.551,264.190 37.917 C 264.284 37.550,264.461 36.537,264.583 35.667 C 264.706 34.796,264.884 33.783,264.979 33.417 C 265.074 33.050,265.231 32.188,265.327 31.500 C 265.593 29.598,265.946 27.502,266.141 26.667 C 266.371 25.685,266.638 24.072,266.844 22.417 C 266.935 21.683,267.120 20.801,267.255 20.455 C 267.390 20.109,267.501 19.472,267.502 19.038 C 267.503 18.605,267.652 17.650,267.833 16.917 C 268.015 16.183,268.164 15.313,268.165 14.983 C 268.166 14.653,268.244 14.160,268.339 13.888 C 268.527 13.350,268.884 11.331,269.235 8.820 C 269.358 7.942,269.543 7.065,269.646 6.873 C 270.006 6.200,269.422 5.881,268.653 6.331 " stroke="none" fill="#4c8c24" fill-rule="evenodd"></path><path id="path3" d="M272.750 0.616 C 272.567 0.661,272.342 0.776,272.250 0.870 C 272.136 0.987,272.242 1.005,272.583 0.925 C 272.858 0.861,273.590 0.769,274.208 0.719 C 275.508 0.615,275.472 0.550,275.074 2.265 C 274.931 2.880,274.750 3.841,274.672 4.400 C 274.593 4.959,274.368 6.317,274.172 7.417 C 273.976 8.517,273.710 10.080,273.581 10.891 C 273.452 11.701,273.303 12.501,273.250 12.667 C 273.147 12.993,272.684 15.713,272.569 16.667 L 272.499 17.250 272.739 16.631 C 272.871 16.290,273.026 15.465,273.084 14.797 C 273.143 14.130,273.259 13.433,273.342 13.250 C 273.483 12.943,273.692 11.739,274.170 8.500 C 274.271 7.813,274.421 7.025,274.503 6.750 C 274.585 6.475,274.726 5.647,274.817 4.910 C 274.908 4.172,275.058 3.370,275.150 3.126 C 275.243 2.883,275.341 2.211,275.368 1.633 L 275.417 0.583 274.250 0.558 C 273.608 0.544,272.933 0.570,272.750 0.616 M269.833 1.108 C 269.604 1.143,269.154 1.241,268.833 1.327 C 268.512 1.413,267.628 1.561,266.867 1.655 C 266.106 1.749,265.356 1.906,265.200 2.004 C 264.887 2.201,264.872 2.202,267.667 1.766 C 268.537 1.629,269.550 1.440,269.917 1.344 C 270.283 1.248,270.883 1.144,271.250 1.113 C 271.807 1.065,271.779 1.055,271.083 1.051 C 270.625 1.048,270.063 1.074,269.833 1.108 M262.667 2.342 C 262.346 2.417,261.821 2.556,261.500 2.650 L 260.917 2.821 261.583 2.752 C 263.062 2.598,264.809 2.202,264.000 2.204 C 263.587 2.204,262.987 2.267,262.667 2.342 M258.750 2.952 C 258.324 3.055,258.012 3.337,258.342 3.323 C 258.475 3.317,259.033 3.211,259.583 3.087 L 260.583 2.861 259.833 2.867 C 259.421 2.870,258.933 2.908,258.750 2.952 M255.417 3.512 C 255.050 3.590,254.525 3.725,254.250 3.813 L 253.750 3.971 254.267 3.986 C 254.551 3.994,255.008 3.922,255.283 3.826 C 255.557 3.730,256.262 3.590,256.849 3.514 L 257.917 3.376 257.000 3.373 C 256.496 3.371,255.783 3.434,255.417 3.512 M251.583 4.190 C 251.308 4.278,250.408 4.455,249.583 4.583 C 247.642 4.883,246.143 5.134,245.000 5.349 C 244.496 5.443,243.708 5.581,243.250 5.654 C 242.421 5.786,242.420 5.786,243.083 5.806 C 243.450 5.817,244.050 5.750,244.417 5.657 C 244.783 5.565,245.796 5.385,246.667 5.258 C 247.537 5.131,248.662 4.946,249.167 4.849 C 249.671 4.751,250.871 4.527,251.833 4.352 C 253.110 4.119,253.380 4.032,252.833 4.031 C 252.421 4.030,251.858 4.101,251.583 4.190 M240.250 6.090 C 239.792 6.210,238.854 6.389,238.167 6.488 C 235.057 6.934,233.887 7.142,233.500 7.317 C 232.994 7.545,233.005 7.544,236.167 7.000 C 237.313 6.803,238.752 6.571,239.365 6.486 C 241.149 6.237,242.602 5.860,241.750 5.867 C 241.383 5.870,240.708 5.970,240.250 6.090 M269.083 5.938 C 268.900 5.977,268.150 6.113,267.417 6.242 C 266.683 6.371,265.408 6.597,264.583 6.744 C 263.758 6.891,262.633 7.076,262.083 7.156 C 261.533 7.236,260.596 7.383,260.000 7.484 C 254.944 8.339,255.117 8.302,256.168 8.320 C 256.581 8.327,257.181 8.256,257.501 8.161 C 257.821 8.067,258.796 7.882,259.667 7.751 C 262.883 7.267,263.602 7.149,264.417 6.972 C 264.875 6.872,265.925 6.695,266.750 6.578 C 267.575 6.461,268.550 6.287,268.917 6.191 C 269.826 5.953,269.935 6.126,269.608 7.294 C 269.457 7.832,269.340 8.567,269.349 8.928 C 269.363 9.497,269.399 9.429,269.622 8.417 C 270.112 6.200,270.013 5.744,269.083 5.938 M230.466 7.735 C 230.126 7.856,229.240 8.009,228.497 8.074 C 227.754 8.138,226.869 8.293,226.531 8.417 C 225.479 8.804,225.956 8.748,230.167 7.991 C 230.762 7.884,231.588 7.740,232.000 7.671 L 232.750 7.545 231.917 7.530 C 231.458 7.521,230.805 7.614,230.466 7.735 M254.120 8.436 C 254.064 8.492,253.395 8.641,252.634 8.766 L 251.250 8.994 252.500 8.920 C 253.869 8.838,255.705 8.366,254.736 8.344 C 254.453 8.338,254.176 8.379,254.120 8.436 M223.250 8.912 C 222.792 9.035,222.229 9.176,222.000 9.225 C 221.112 9.417,223.481 9.144,224.583 8.928 L 225.750 8.699 224.917 8.694 C 224.458 8.691,223.708 8.789,223.250 8.912 M249.917 9.172 C 249.642 9.248,248.592 9.438,247.583 9.594 C 246.575 9.749,245.112 9.984,244.333 10.115 C 243.554 10.246,242.279 10.453,241.500 10.574 C 240.721 10.695,239.633 10.875,239.083 10.973 C 238.533 11.071,237.146 11.307,236.000 11.496 C 234.854 11.686,233.504 11.919,233.000 12.015 C 232.496 12.111,231.558 12.257,230.917 12.340 C 229.015 12.583,227.417 12.970,228.250 12.986 C 228.617 12.993,229.179 12.926,229.500 12.837 C 230.088 12.676,232.498 12.266,234.500 11.988 C 235.096 11.905,236.108 11.726,236.750 11.589 C 237.392 11.452,238.442 11.267,239.083 11.176 C 240.986 10.908,242.505 10.665,243.833 10.415 C 245.323 10.134,246.651 9.920,248.967 9.587 C 250.626 9.348,251.795 8.995,250.833 9.022 C 250.604 9.029,250.192 9.096,249.917 9.172 M219.953 9.436 C 219.896 9.492,219.603 9.597,219.300 9.669 L 218.750 9.799 219.250 9.809 C 219.525 9.814,220.125 9.714,220.583 9.587 L 221.417 9.356 220.736 9.345 C 220.362 9.338,220.009 9.380,219.953 9.436 M269.041 10.583 C 268.926 11.133,268.758 12.071,268.668 12.667 C 268.578 13.262,268.428 14.012,268.335 14.332 C 268.243 14.652,268.173 15.215,268.181 15.582 C 268.199 16.445,268.553 15.002,268.836 12.917 C 268.935 12.183,269.095 11.318,269.191 10.993 C 269.287 10.668,269.340 10.218,269.308 9.993 C 269.269 9.719,269.181 9.915,269.041 10.583 M216.583 10.033 C 216.308 10.126,215.746 10.260,215.333 10.329 L 214.583 10.455 215.267 10.478 C 215.643 10.490,216.181 10.420,216.463 10.321 C 216.745 10.223,217.337 10.082,217.780 10.008 L 218.583 9.873 217.833 9.867 C 217.421 9.864,216.858 9.939,216.583 10.033 M212.667 10.694 C 212.438 10.789,211.650 10.935,210.917 11.018 C 209.677 11.157,208.502 11.378,207.500 11.660 C 206.659 11.897,206.927 12.271,210.646 16.036 C 219.181 24.676,221.000 26.552,221.000 26.712 C 221.000 26.988,207.444 40.333,207.163 40.333 C 207.020 40.333,206.394 39.802,205.772 39.153 C 205.149 38.503,204.608 38.003,204.569 38.042 C 204.424 38.187,206.767 40.468,207.120 40.525 C 207.540 40.591,221.167 27.155,221.167 26.674 C 221.167 26.532,218.138 23.359,214.435 19.624 C 207.834 12.963,207.035 12.101,207.304 11.935 C 207.525 11.798,210.767 11.167,211.276 11.161 C 212.117 11.152,214.534 10.531,213.750 10.526 C 213.383 10.523,212.896 10.599,212.667 10.694 M226.143 13.079 C 226.099 13.123,225.468 13.266,224.740 13.398 C 223.603 13.603,223.521 13.639,224.156 13.652 C 224.563 13.660,225.350 13.558,225.906 13.425 C 226.462 13.292,227.067 13.151,227.250 13.111 C 227.433 13.071,227.277 13.030,226.903 13.019 C 226.528 13.009,226.186 13.036,226.143 13.079 M222.072 13.827 C 221.882 13.904,221.207 14.017,220.572 14.079 C 219.936 14.140,218.892 14.303,218.250 14.441 C 217.608 14.579,216.910 14.726,216.699 14.768 C 216.013 14.904,216.389 15.348,222.007 21.025 C 225.028 24.078,227.500 26.658,227.500 26.759 C 227.500 26.860,223.676 30.724,219.001 35.346 C 214.092 40.201,210.502 43.876,210.501 44.049 C 210.501 44.219,213.017 46.884,216.367 50.261 C 221.928 55.865,222.491 56.454,222.497 56.676 C 222.501 56.797,221.768 57.532,207.936 71.285 C 201.463 77.721,196.167 83.107,196.167 83.253 C 196.167 83.680,204.302 91.810,204.640 91.722 C 204.920 91.649,209.268 87.366,235.323 61.500 C 242.571 54.304,248.632 48.395,248.792 48.369 C 248.986 48.337,250.954 50.198,254.653 53.911 C 257.716 56.985,260.287 59.500,260.365 59.500 C 260.593 59.500,260.849 58.693,261.105 57.167 C 261.235 56.387,261.455 55.075,261.594 54.250 C 261.732 53.425,261.920 52.413,262.010 52.000 C 262.100 51.587,262.290 50.538,262.431 49.667 C 263.053 45.842,263.155 45.255,263.317 44.524 C 263.411 44.098,263.572 43.225,263.675 42.583 C 264.156 39.579,264.313 38.641,264.476 37.811 C 264.572 37.319,264.809 35.979,265.003 34.833 C 265.197 33.688,265.465 32.188,265.599 31.500 C 265.835 30.286,265.937 29.691,266.326 27.250 C 266.428 26.608,266.620 25.558,266.752 24.917 C 266.885 24.275,267.038 23.337,267.094 22.833 C 267.150 22.329,267.262 21.692,267.343 21.417 C 267.513 20.836,268.003 17.891,268.090 16.917 C 268.134 16.432,268.065 16.569,267.839 17.417 C 267.667 18.058,267.521 18.945,267.514 19.386 C 267.506 19.827,267.422 20.333,267.328 20.511 C 267.233 20.688,267.047 21.564,266.915 22.458 C 266.427 25.762,266.318 26.433,266.146 27.167 C 265.979 27.878,265.761 29.121,265.343 31.750 C 265.241 32.392,265.078 33.254,264.981 33.667 C 264.884 34.079,264.700 35.129,264.572 36.000 C 264.444 36.871,264.263 37.977,264.170 38.458 C 263.738 40.684,263.654 41.163,263.491 42.333 C 263.395 43.021,263.208 44.007,263.075 44.524 C 262.942 45.041,262.832 45.716,262.831 46.024 C 262.830 46.332,262.723 46.982,262.593 47.470 C 262.464 47.958,262.309 48.858,262.251 49.470 C 262.192 50.082,262.076 50.771,261.992 51.000 C 261.909 51.229,261.721 52.167,261.574 53.083 C 261.427 54.000,261.210 55.350,261.092 56.083 C 260.859 57.528,260.538 58.970,260.400 59.194 C 260.352 59.271,257.826 56.822,254.787 53.750 C 248.990 47.893,248.794 47.737,248.145 48.458 C 247.872 48.762,219.625 76.812,210.183 86.156 C 204.413 91.867,204.622 91.699,203.998 91.104 C 202.238 89.421,196.333 83.354,196.333 83.227 C 196.333 83.139,197.365 82.050,198.625 80.805 C 217.350 62.321,222.706 56.886,222.584 56.489 C 222.516 56.266,220.238 53.846,217.522 51.111 C 210.838 44.381,210.907 44.453,210.793 44.145 C 210.719 43.946,212.885 41.697,218.853 35.774 C 223.342 31.320,227.200 27.454,227.428 27.183 L 227.843 26.691 227.160 25.970 C 226.785 25.574,224.270 23.020,221.572 20.294 C 216.467 15.137,216.230 14.833,217.303 14.833 C 217.653 14.833,218.309 14.725,218.761 14.594 C 219.213 14.462,220.146 14.301,220.833 14.236 C 222.128 14.114,223.672 13.691,222.833 13.689 C 222.604 13.688,222.261 13.751,222.072 13.827 M272.193 18.583 C 272.070 19.317,271.868 20.517,271.744 21.250 C 271.620 21.983,271.407 23.258,271.272 24.083 C 271.136 24.908,270.950 25.958,270.858 26.417 C 270.766 26.875,270.535 28.150,270.344 29.250 C 270.154 30.350,269.853 32.075,269.675 33.083 C 269.284 35.299,269.214 35.706,268.931 37.417 C 268.513 39.952,268.160 41.919,267.997 42.627 C 267.774 43.598,267.779 44.028,268.009 43.633 C 268.162 43.370,268.324 42.472,268.904 38.667 C 269.023 37.887,269.171 37.063,269.232 36.833 C 269.363 36.350,269.746 34.096,270.077 31.862 C 270.204 31.006,270.359 30.181,270.421 30.028 C 270.483 29.875,270.637 29.075,270.763 28.250 C 271.075 26.194,271.320 24.781,271.583 23.500 C 271.706 22.904,271.854 22.015,271.912 21.523 C 271.969 21.032,272.130 20.188,272.268 19.648 C 272.406 19.109,272.496 18.348,272.468 17.959 C 272.422 17.326,272.393 17.394,272.193 18.583 M184.661 39.500 C 178.950 45.183,174.215 49.833,174.139 49.833 C 174.062 49.833,174.000 49.928,174.000 50.043 C 174.000 50.159,173.850 50.347,173.667 50.461 C 173.483 50.576,173.333 50.757,173.333 50.863 C 173.333 50.970,177.402 47.000,182.375 42.041 C 194.729 29.720,195.128 29.333,195.459 29.334 C 195.619 29.334,197.156 30.747,198.875 32.475 C 200.594 34.203,202.000 35.557,202.000 35.485 C 202.000 35.115,195.835 29.167,195.451 29.167 C 195.137 29.167,192.696 31.505,184.661 39.500 M202.307 35.885 C 202.818 36.500,204.333 37.959,204.333 37.836 C 204.333 37.682,202.366 35.667,202.216 35.667 C 202.167 35.667,202.208 35.765,202.307 35.885 M267.519 45.292 C 267.402 46.002,267.274 46.883,267.236 47.250 L 267.167 47.917 267.417 47.167 C 267.659 46.443,267.960 44.000,267.808 44.000 C 267.767 44.000,267.637 44.581,267.519 45.292 M266.789 49.523 C 266.627 50.381,266.496 51.223,266.498 51.393 C 266.499 51.563,266.391 52.201,266.259 52.809 C 266.126 53.418,265.858 54.854,265.664 56.000 C 264.441 63.215,263.543 68.129,263.407 68.349 C 263.228 68.638,262.733 68.175,256.417 61.829 C 248.607 53.982,249.152 54.502,248.735 54.501 C 248.544 54.500,248.124 54.781,247.803 55.125 C 247.311 55.651,225.064 77.754,209.552 93.128 C 205.490 97.153,204.745 97.833,204.400 97.833 C 204.333 97.833,201.756 95.275,198.674 92.148 C 194.896 88.313,192.979 86.482,192.790 86.523 C 192.421 86.602,178.890 100.097,178.788 100.487 C 178.731 100.707,180.566 102.669,185.678 107.852 C 193.698 115.983,193.295 115.313,190.417 115.734 C 189.500 115.868,188.338 116.054,187.833 116.148 C 187.329 116.242,185.979 116.475,184.833 116.664 C 183.688 116.854,182.112 117.121,181.333 117.257 C 180.554 117.393,179.429 117.582,178.833 117.677 C 178.237 117.772,177.450 117.916,177.083 117.998 L 176.417 118.147 177.250 118.092 C 178.232 118.028,180.147 117.734,181.667 117.415 C 182.262 117.290,183.162 117.141,183.667 117.084 C 184.171 117.027,185.071 116.874,185.667 116.743 C 186.262 116.611,187.275 116.430,187.917 116.339 C 192.521 115.688,192.869 115.598,192.802 115.081 C 192.767 114.812,190.497 112.412,185.875 107.759 C 182.094 103.952,179.000 100.722,179.000 100.580 C 179.000 100.108,192.672 86.657,192.980 86.826 C 193.129 86.908,195.749 89.493,198.804 92.571 C 201.859 95.648,204.435 98.167,204.528 98.167 C 204.780 98.167,204.462 98.480,232.893 70.271 C 244.727 58.530,248.617 54.763,248.870 54.805 C 249.054 54.836,252.346 58.021,256.185 61.883 C 262.519 68.256,263.189 68.882,263.426 68.645 C 263.685 68.386,264.035 66.967,264.335 64.964 C 264.583 63.301,264.842 61.836,265.094 60.667 C 265.223 60.071,265.373 59.133,265.428 58.583 C 265.483 58.033,265.602 57.358,265.694 57.083 C 265.785 56.808,265.962 55.908,266.087 55.083 C 266.547 52.044,266.802 50.565,266.994 49.820 C 267.103 49.400,267.168 48.810,267.138 48.509 C 267.099 48.117,267.000 48.403,266.789 49.523 M172.375 51.610 C 172.260 51.657,172.167 51.757,172.167 51.833 C 172.167 52.000,170.310 53.833,170.141 53.833 C 170.076 53.833,169.975 53.983,169.917 54.167 C 169.858 54.350,169.752 54.500,169.679 54.500 C 169.607 54.500,165.475 58.550,160.497 63.500 C 155.519 68.450,151.352 72.500,151.236 72.500 C 151.120 72.500,147.893 69.350,144.066 65.500 C 140.238 61.650,136.979 58.500,136.823 58.500 C 136.299 58.500,136.090 59.123,135.674 61.917 C 135.593 62.467,135.447 63.217,135.350 63.583 C 135.254 63.950,135.183 64.587,135.193 65.000 C 135.204 65.412,135.240 65.563,135.275 65.333 C 135.336 64.930,135.505 63.985,136.107 60.667 C 136.385 59.132,136.557 58.667,136.846 58.667 C 136.922 58.667,140.114 61.817,143.938 65.667 C 148.284 70.041,151.012 72.667,151.212 72.667 C 151.398 72.667,152.390 71.813,153.585 70.625 C 154.715 69.502,159.506 64.740,164.233 60.042 C 168.959 55.344,172.772 51.506,172.705 51.513 C 172.638 51.520,172.490 51.564,172.375 51.610 M134.875 66.483 C 134.760 66.856,134.673 67.369,134.682 67.622 C 134.693 67.973,134.753 67.884,134.931 67.250 C 135.221 66.225,135.169 65.525,134.875 66.483 M134.548 68.917 C 134.549 69.375,134.581 69.543,134.620 69.289 C 134.658 69.036,134.657 68.661,134.617 68.456 C 134.578 68.251,134.546 68.458,134.548 68.917 M134.171 70.238 C 134.077 70.486,134.009 71.002,134.019 71.386 C 134.030 71.769,134.070 71.933,134.108 71.750 C 134.146 71.567,134.260 71.096,134.362 70.704 C 134.571 69.894,134.431 69.553,134.171 70.238 M133.790 72.750 C 133.724 73.117,133.631 73.754,133.583 74.167 L 133.495 74.917 133.755 74.000 C 133.898 73.496,133.991 72.858,133.962 72.583 C 133.913 72.115,133.902 72.126,133.790 72.750 M133.354 75.417 C 133.341 75.692,133.218 76.285,133.082 76.735 C 132.945 77.185,132.843 77.860,132.854 78.235 L 132.875 78.917 133.002 78.250 C 133.071 77.883,133.217 77.148,133.324 76.615 C 133.432 76.082,133.489 75.482,133.450 75.282 C 133.396 75.005,133.373 75.038,133.354 75.417 M132.450 80.290 C 132.294 80.936,132.178 81.791,132.192 82.191 C 132.210 82.717,132.234 82.779,132.278 82.417 C 132.312 82.142,132.460 81.382,132.607 80.728 C 132.754 80.074,132.842 79.444,132.804 79.328 C 132.765 79.212,132.606 79.645,132.450 80.290 M131.914 83.504 C 131.848 83.611,131.695 84.384,131.574 85.224 C 131.453 86.063,131.278 87.087,131.184 87.500 C 131.091 87.912,131.022 88.550,131.031 88.917 C 131.047 89.571,131.049 89.568,131.173 88.750 C 131.393 87.297,131.820 84.943,132.002 84.186 C 132.178 83.453,132.138 83.143,131.914 83.504 M130.781 89.903 C 130.712 90.079,130.625 90.679,130.587 91.236 C 130.549 91.794,130.552 92.063,130.595 91.833 C 130.637 91.604,130.754 91.148,130.854 90.819 C 131.065 90.123,131.003 89.338,130.781 89.903 M130.284 92.750 C 129.924 94.508,129.855 94.996,129.868 95.667 C 129.878 96.150,129.905 96.239,129.943 95.917 C 129.976 95.642,130.124 94.808,130.273 94.064 C 130.421 93.320,130.507 92.608,130.464 92.481 C 130.421 92.354,130.340 92.475,130.284 92.750 M129.538 97.042 C 129.425 97.353,129.340 97.864,129.347 98.178 C 129.359 98.657,129.400 98.589,129.601 97.760 C 129.876 96.623,129.839 96.208,129.538 97.042 M129.191 99.333 C 129.175 99.654,129.054 100.217,128.921 100.583 C 128.789 100.950,128.688 101.587,128.697 102.000 C 128.705 102.412,128.740 102.563,128.775 102.333 C 128.809 102.104,128.955 101.458,129.098 100.898 C 129.241 100.338,129.327 99.625,129.289 99.315 L 129.220 98.750 129.191 99.333 M128.375 103.547 C 128.260 103.982,128.172 104.581,128.178 104.877 C 128.187 105.330,128.228 105.270,128.435 104.501 C 128.570 103.997,128.659 103.398,128.632 103.170 C 128.595 102.851,128.535 102.937,128.375 103.547 M127.789 106.931 C 127.627 107.656,127.504 108.550,127.516 108.917 C 127.529 109.283,127.568 109.433,127.604 109.250 C 127.640 109.067,127.789 108.308,127.935 107.564 C 128.286 105.771,128.165 105.245,127.789 106.931 M127.204 110.464 C 127.101 110.761,126.971 111.471,126.916 112.043 C 126.861 112.615,126.716 113.458,126.593 113.917 C 126.471 114.375,126.284 115.350,126.176 116.083 C 125.906 117.922,125.557 119.938,125.352 120.833 C 125.258 121.246,125.188 121.921,125.197 122.333 L 125.214 123.083 125.339 122.250 C 125.408 121.792,125.629 120.517,125.829 119.417 C 126.029 118.317,126.290 116.768,126.410 115.974 C 126.529 115.181,126.668 114.467,126.717 114.386 C 126.767 114.306,126.892 113.605,126.995 112.829 C 127.097 112.052,127.259 111.172,127.354 110.874 C 127.584 110.152,127.445 109.774,127.204 110.464 M174.533 118.356 C 174.230 118.443,173.555 118.577,173.033 118.653 L 172.083 118.793 172.906 118.813 C 173.358 118.824,174.183 118.725,174.739 118.592 C 175.295 118.459,175.900 118.318,176.083 118.278 C 176.267 118.238,176.117 118.203,175.750 118.201 C 175.383 118.199,174.835 118.268,174.533 118.356 M170.250 119.079 C 169.024 119.328,167.212 119.640,165.333 119.926 C 163.698 120.175,161.346 120.561,159.911 120.815 C 159.364 120.912,157.979 121.147,156.833 121.336 C 155.688 121.526,154.337 121.757,153.833 121.851 C 153.329 121.944,152.392 122.092,151.752 122.178 C 151.111 122.264,150.024 122.442,149.335 122.573 C 148.647 122.704,147.333 122.937,146.417 123.091 C 144.335 123.441,144.241 123.471,145.168 123.487 C 145.581 123.494,146.181 123.422,146.501 123.328 C 146.821 123.233,147.758 123.050,148.583 122.922 C 149.408 122.793,151.021 122.528,152.167 122.331 C 153.313 122.135,154.925 121.872,155.750 121.747 C 156.575 121.622,157.662 121.442,158.167 121.348 C 159.249 121.145,160.686 120.907,162.750 120.588 C 163.575 120.461,164.662 120.278,165.167 120.183 C 167.297 119.781,168.159 119.640,169.473 119.477 C 170.883 119.303,172.524 118.846,171.667 118.867 C 171.438 118.872,170.800 118.968,170.250 119.079 M124.876 123.768 C 124.192 126.096,124.485 127.242,125.646 126.778 C 126.028 126.625,126.657 126.497,127.045 126.493 C 127.433 126.489,128.087 126.412,128.500 126.322 C 128.912 126.232,129.925 126.056,130.750 125.929 C 131.575 125.803,132.700 125.617,133.250 125.516 C 134.908 125.212,136.183 125.002,137.500 124.816 C 138.188 124.719,139.162 124.536,139.667 124.411 C 140.171 124.285,141.071 124.137,141.667 124.083 C 142.847 123.976,144.679 123.530,144.017 123.511 C 143.797 123.505,143.047 123.607,142.350 123.737 C 141.653 123.867,140.071 124.134,138.833 124.330 C 137.596 124.526,136.239 124.761,135.818 124.852 C 135.397 124.943,134.347 125.125,133.484 125.256 C 130.344 125.733,128.745 126.002,128.500 126.095 C 128.362 126.147,127.682 126.255,126.988 126.334 C 126.295 126.414,125.529 126.528,125.287 126.589 C 124.668 126.744,124.553 126.151,124.915 124.674 C 125.221 123.423,125.191 122.698,124.876 123.768 " stroke="none" fill="#9ac47f" fill-rule="evenodd"></path><path id="path4" d="M273.039 0.840 C 272.831 0.923,272.156 1.037,271.539 1.094 C 270.922 1.150,270.192 1.263,269.917 1.346 C 269.642 1.428,268.704 1.604,267.833 1.738 C 266.962 1.871,265.350 2.137,264.250 2.328 C 263.150 2.518,261.987 2.713,261.667 2.759 C 260.845 2.877,257.459 3.439,256.167 3.671 C 255.571 3.779,254.858 3.899,254.583 3.939 C 253.562 4.087,250.053 4.677,249.167 4.849 C 248.662 4.947,247.575 5.127,246.750 5.249 C 245.925 5.371,244.762 5.556,244.167 5.659 C 242.572 5.936,239.326 6.480,238.750 6.566 C 238.475 6.608,237.313 6.803,236.167 7.001 C 235.021 7.198,233.446 7.459,232.667 7.579 C 231.887 7.700,230.762 7.886,230.167 7.993 C 229.571 8.100,228.446 8.293,227.667 8.423 C 226.887 8.552,225.575 8.776,224.750 8.920 C 223.925 9.065,222.696 9.252,222.019 9.336 C 221.343 9.420,220.555 9.561,220.269 9.648 C 219.984 9.736,219.231 9.858,218.598 9.920 C 217.964 9.982,217.101 10.137,216.681 10.264 C 216.261 10.392,215.654 10.497,215.333 10.498 C 215.012 10.499,213.963 10.648,213.000 10.830 C 212.037 11.011,210.500 11.288,209.583 11.444 C 207.179 11.854,207.090 11.895,207.430 12.414 C 207.581 12.643,210.733 15.888,214.435 19.624 C 218.138 23.359,221.167 26.532,221.167 26.674 C 221.167 27.124,207.543 40.592,207.151 40.529 C 206.965 40.500,204.326 37.969,201.287 34.904 C 198.155 31.747,195.632 29.333,195.464 29.333 C 195.301 29.333,194.352 30.140,193.354 31.125 C 191.915 32.547,162.873 61.393,153.586 70.625 C 152.390 71.813,151.398 72.667,151.212 72.667 C 151.012 72.667,148.284 70.041,143.938 65.667 C 140.114 61.817,136.922 58.667,136.846 58.667 C 136.471 58.667,136.368 59.073,135.567 63.708 C 135.420 64.556,135.190 65.813,135.056 66.500 C 134.922 67.188,134.742 68.326,134.656 69.030 C 134.571 69.734,134.430 70.496,134.344 70.723 C 134.257 70.950,134.138 71.611,134.079 72.193 C 134.020 72.774,133.906 73.475,133.825 73.750 C 133.685 74.225,133.415 75.797,132.919 79.033 C 132.797 79.831,132.659 80.545,132.613 80.619 C 132.566 80.694,132.447 81.354,132.348 82.086 C 132.248 82.818,132.091 83.754,131.998 84.167 C 131.812 84.992,131.431 87.139,131.082 89.333 C 130.958 90.112,130.777 91.200,130.681 91.750 C 130.584 92.300,130.387 93.425,130.242 94.250 C 130.097 95.075,129.833 96.500,129.654 97.417 C 129.476 98.333,129.331 99.322,129.332 99.614 C 129.333 99.906,129.254 100.353,129.158 100.607 C 129.061 100.861,128.874 101.784,128.742 102.659 C 128.610 103.534,128.425 104.662,128.331 105.167 C 127.944 107.235,127.506 109.798,127.077 112.500 C 126.938 113.371,126.782 114.196,126.728 114.333 C 126.675 114.471,126.533 115.221,126.412 116.000 C 126.291 116.779,126.030 118.317,125.832 119.417 C 125.633 120.517,125.405 121.904,125.323 122.500 C 125.242 123.096,125.053 124.090,124.903 124.709 C 124.553 126.154,124.673 126.743,125.287 126.589 C 125.529 126.528,126.295 126.414,126.988 126.334 C 127.682 126.255,128.362 126.147,128.500 126.095 C 128.745 126.002,130.344 125.733,133.484 125.256 C 134.347 125.125,135.397 124.943,135.818 124.852 C 136.239 124.761,137.596 124.526,138.833 124.330 C 140.071 124.134,141.646 123.873,142.333 123.751 C 143.021 123.629,143.958 123.481,144.417 123.422 C 144.875 123.364,145.813 123.212,146.500 123.085 C 147.188 122.958,148.688 122.698,149.833 122.507 C 150.979 122.316,152.329 122.081,152.833 121.984 C 153.337 121.888,154.237 121.747,154.833 121.672 C 155.429 121.596,156.592 121.411,157.417 121.260 C 158.242 121.109,159.592 120.875,160.417 120.738 C 161.242 120.602,162.329 120.417,162.833 120.326 C 163.337 120.236,164.275 120.088,164.917 119.997 C 165.558 119.906,166.683 119.722,167.417 119.588 C 168.150 119.455,169.688 119.190,170.833 118.999 C 171.979 118.807,173.554 118.544,174.333 118.414 C 175.112 118.283,176.425 118.063,177.250 117.926 C 178.075 117.788,179.463 117.551,180.333 117.400 C 181.204 117.248,182.142 117.094,182.417 117.058 C 183.057 116.972,186.636 116.372,187.833 116.148 C 188.338 116.054,189.500 115.868,190.417 115.734 C 193.295 115.313,193.698 115.983,185.678 107.852 C 180.566 102.669,178.731 100.707,178.788 100.487 C 178.890 100.097,192.421 86.602,192.790 86.523 C 192.979 86.482,194.896 88.313,198.674 92.148 C 201.756 95.275,204.333 97.833,204.400 97.833 C 204.745 97.833,205.490 97.153,209.552 93.128 C 225.064 77.754,247.311 55.651,247.803 55.125 C 248.124 54.781,248.544 54.500,248.735 54.501 C 249.152 54.502,248.607 53.982,256.417 61.829 C 262.733 68.175,263.228 68.638,263.407 68.349 C 263.543 68.129,264.441 63.215,265.664 56.000 C 265.858 54.854,266.126 53.418,266.259 52.809 C 266.391 52.201,266.500 51.488,266.501 51.226 C 266.501 50.964,266.577 50.479,266.669 50.149 C 266.761 49.818,266.943 48.880,267.073 48.065 C 267.204 47.250,267.471 45.683,267.667 44.583 C 267.862 43.483,268.130 41.910,268.262 41.087 C 268.394 40.264,268.546 39.451,268.600 39.281 C 268.654 39.111,268.800 38.322,268.925 37.527 C 269.192 35.831,269.247 35.504,269.675 33.083 C 269.853 32.075,270.154 30.350,270.344 29.250 C 270.535 28.150,270.766 26.875,270.858 26.417 C 270.950 25.958,271.136 24.908,271.272 24.083 C 271.528 22.526,271.777 21.031,272.230 18.333 C 272.376 17.462,272.572 16.412,272.664 16.000 C 272.757 15.588,272.906 14.717,272.996 14.066 C 273.085 13.414,273.199 12.776,273.249 12.647 C 273.298 12.518,273.446 11.738,273.577 10.914 C 273.709 10.091,273.976 8.517,274.172 7.417 C 274.368 6.317,274.593 4.959,274.672 4.400 C 274.750 3.841,274.931 2.880,275.074 2.265 C 275.456 0.617,275.477 0.665,274.375 0.677 C 273.848 0.683,273.247 0.756,273.039 0.840 M274.977 1.375 C 274.885 1.673,274.708 2.629,274.584 3.500 C 274.460 4.371,274.283 5.421,274.191 5.833 C 274.028 6.561,273.887 7.379,273.417 10.333 C 273.293 11.112,273.111 12.012,273.012 12.332 C 272.914 12.652,272.833 13.215,272.832 13.582 C 272.831 13.950,272.725 14.594,272.598 15.014 C 272.470 15.435,272.316 16.297,272.255 16.931 C 272.194 17.565,272.076 18.271,271.992 18.500 C 271.909 18.729,271.720 19.667,271.572 20.583 C 270.742 25.731,270.522 27.018,270.245 28.333 C 270.119 28.929,269.969 29.867,269.910 30.417 C 269.851 30.967,269.703 31.792,269.579 32.250 C 269.456 32.708,269.273 33.646,269.174 34.333 C 268.779 37.071,268.503 38.638,268.339 39.069 C 268.244 39.318,268.167 39.801,268.167 40.143 C 268.167 40.484,268.050 41.210,267.907 41.757 C 267.764 42.303,267.606 43.237,267.556 43.833 C 267.505 44.429,267.365 45.220,267.245 45.591 C 267.125 45.962,266.974 46.825,266.909 47.508 C 266.844 48.191,266.729 48.828,266.653 48.924 C 266.578 49.020,266.469 49.620,266.410 50.257 C 266.352 50.895,266.229 51.662,266.138 51.963 C 265.979 52.483,265.766 53.727,265.259 57.083 C 265.134 57.908,264.960 58.771,264.873 59.000 C 264.785 59.229,264.664 59.979,264.603 60.667 C 264.542 61.354,264.384 62.217,264.253 62.583 C 264.122 62.950,264.011 63.545,264.007 63.906 C 264.003 64.267,263.893 65.017,263.761 65.573 C 263.630 66.129,263.476 66.936,263.419 67.366 C 263.266 68.525,264.106 69.285,251.819 56.860 C 249.679 54.696,249.058 54.158,248.749 54.199 C 248.382 54.247,245.343 57.237,213.197 89.169 C 208.585 93.751,204.711 97.500,204.589 97.500 C 204.467 97.500,201.870 94.988,198.818 91.917 C 194.518 87.589,193.178 86.333,192.859 86.333 C 192.549 86.333,191.742 87.034,189.599 89.164 C 188.032 90.722,184.905 93.826,182.649 96.062 C 180.394 98.299,178.507 100.289,178.456 100.483 C 178.380 100.776,179.572 102.059,185.276 107.824 C 189.079 111.667,192.203 114.860,192.220 114.921 C 192.276 115.127,190.921 115.497,189.750 115.597 C 189.108 115.651,188.208 115.794,187.750 115.915 C 187.292 116.036,186.467 116.183,185.917 116.243 C 185.367 116.303,184.354 116.456,183.667 116.584 C 180.885 117.102,180.366 117.189,179.167 117.336 C 178.479 117.421,177.654 117.564,177.333 117.654 C 177.012 117.744,176.082 117.900,175.266 118.000 C 174.450 118.100,173.662 118.244,173.516 118.318 C 173.370 118.393,172.725 118.500,172.083 118.557 C 171.442 118.614,170.392 118.769,169.750 118.903 C 168.539 119.155,167.249 119.378,164.833 119.754 C 162.176 120.168,161.084 120.350,160.250 120.519 C 159.792 120.612,158.854 120.762,158.167 120.852 C 157.479 120.942,156.392 121.123,155.750 121.253 C 154.536 121.500,153.289 121.710,150.750 122.096 C 149.925 122.221,148.387 122.479,147.333 122.668 C 146.279 122.857,144.704 123.114,143.833 123.239 C 142.962 123.364,141.912 123.546,141.500 123.643 C 141.087 123.740,140.188 123.900,139.500 124.000 C 136.049 124.497,135.002 124.674,134.592 124.830 C 134.346 124.923,133.831 125.001,133.447 125.002 C 133.064 125.003,132.150 125.152,131.417 125.333 C 130.683 125.515,129.767 125.664,129.381 125.665 C 128.994 125.666,128.357 125.772,127.964 125.901 C 127.571 126.029,126.735 126.186,126.105 126.249 L 124.960 126.364 125.050 125.807 C 125.099 125.501,125.221 124.650,125.321 123.917 C 125.421 123.183,125.610 122.133,125.740 121.583 C 125.870 121.033,126.061 120.021,126.165 119.333 C 126.268 118.646,126.456 117.483,126.581 116.750 C 126.794 115.502,126.890 114.975,127.346 112.542 C 127.445 112.015,127.602 111.021,127.694 110.333 C 127.786 109.646,127.934 108.821,128.022 108.500 C 128.171 107.954,128.379 106.750,128.914 103.333 C 129.036 102.554,129.178 101.804,129.231 101.667 C 129.317 101.437,129.450 100.656,130.077 96.667 C 130.199 95.888,130.379 94.912,130.477 94.500 C 130.575 94.087,130.735 93.225,130.833 92.583 C 131.255 89.828,131.523 88.304,132.180 84.917 C 132.358 84.000,132.503 83.011,132.502 82.719 C 132.501 82.427,132.580 81.979,132.677 81.723 C 132.839 81.296,133.022 80.269,133.504 77.083 C 133.601 76.442,133.757 75.569,133.851 75.143 C 134.018 74.385,134.209 73.265,134.744 69.917 C 134.891 69.000,135.076 68.025,135.157 67.750 C 135.238 67.475,135.350 66.808,135.406 66.267 C 135.463 65.726,135.612 64.826,135.738 64.267 C 135.954 63.313,136.168 62.122,136.501 60.026 C 136.578 59.536,136.690 59.088,136.748 59.029 C 136.807 58.971,140.010 62.091,143.866 65.962 C 148.606 70.719,150.989 73.000,151.223 73.000 C 151.450 73.000,152.772 71.803,155.076 69.512 C 179.600 45.121,195.177 29.748,195.423 29.695 C 195.578 29.662,197.831 31.807,201.131 35.130 C 204.130 38.150,206.762 40.714,206.980 40.828 C 207.355 41.023,207.474 40.938,209.147 39.279 C 210.120 38.313,213.344 35.128,216.311 32.201 L 221.704 26.879 221.400 26.414 C 221.232 26.158,218.117 22.948,214.476 19.280 C 207.282 12.032,207.308 12.063,208.476 11.921 C 208.902 11.869,209.625 11.744,210.083 11.643 C 210.542 11.543,211.554 11.366,212.333 11.250 C 213.112 11.135,214.237 10.956,214.833 10.853 C 218.540 10.212,220.040 9.966,222.583 9.582 C 223.500 9.444,224.475 9.263,224.750 9.180 C 225.025 9.097,225.737 8.984,226.333 8.929 C 226.929 8.874,227.785 8.718,228.235 8.581 C 228.685 8.445,229.318 8.333,229.641 8.333 C 229.965 8.333,231.022 8.187,231.990 8.008 C 232.958 7.829,234.500 7.563,235.417 7.417 C 236.333 7.271,237.496 7.072,238.000 6.975 C 238.504 6.877,239.603 6.702,240.443 6.585 C 241.282 6.468,242.039 6.329,242.124 6.276 C 242.210 6.223,242.986 6.098,243.848 5.999 C 244.711 5.899,245.604 5.749,245.833 5.664 C 246.063 5.580,246.887 5.433,247.667 5.338 C 248.446 5.242,249.946 5.012,251.000 4.827 C 252.054 4.641,253.629 4.385,254.500 4.258 C 255.371 4.131,256.294 3.946,256.553 3.847 C 256.811 3.748,257.336 3.666,257.719 3.664 C 258.103 3.663,258.867 3.558,259.417 3.431 C 259.967 3.304,260.829 3.151,261.333 3.092 C 261.837 3.032,262.813 2.880,263.500 2.754 C 264.188 2.628,265.688 2.368,266.833 2.175 C 267.979 1.983,269.329 1.748,269.833 1.652 C 270.337 1.557,271.487 1.377,272.388 1.253 C 273.290 1.130,274.071 0.985,274.125 0.931 C 274.522 0.533,275.137 0.854,274.977 1.375 M268.750 5.774 C 268.383 5.804,267.521 5.939,266.833 6.074 C 265.506 6.334,264.210 6.549,261.706 6.925 C 260.858 7.053,260.019 7.234,259.842 7.328 C 259.666 7.423,259.161 7.503,258.719 7.507 C 258.278 7.511,257.579 7.592,257.167 7.686 C 256.754 7.780,255.892 7.928,255.250 8.015 C 254.608 8.103,253.558 8.280,252.917 8.411 C 251.816 8.634,250.683 8.819,248.167 9.188 C 247.571 9.276,246.596 9.452,246.000 9.580 C 245.404 9.709,244.444 9.855,243.867 9.905 C 243.290 9.955,242.673 10.074,242.496 10.169 C 242.319 10.264,241.462 10.409,240.592 10.491 C 239.722 10.573,238.926 10.693,238.823 10.756 C 238.720 10.820,237.949 10.968,237.109 11.086 C 236.270 11.203,235.096 11.382,234.500 11.483 C 233.904 11.584,232.742 11.782,231.917 11.923 C 231.092 12.063,230.004 12.244,229.500 12.324 C 228.491 12.485,227.118 12.722,225.583 13.001 C 225.033 13.101,224.021 13.254,223.333 13.341 C 222.646 13.428,221.558 13.608,220.917 13.740 C 220.275 13.873,219.300 14.055,218.750 14.145 C 218.200 14.235,217.525 14.356,217.250 14.414 C 216.975 14.473,216.581 14.555,216.375 14.597 C 215.571 14.760,216.055 15.351,221.433 20.773 C 224.421 23.785,226.941 26.389,227.033 26.561 C 227.177 26.830,226.052 28.010,218.675 35.322 C 210.252 43.671,210.153 43.776,210.331 44.245 C 210.430 44.505,213.115 47.333,216.297 50.529 C 219.480 53.724,222.105 56.436,222.131 56.555 C 222.178 56.765,220.077 58.885,203.708 75.146 C 199.377 79.448,195.833 83.095,195.833 83.249 C 195.833 83.520,203.632 91.536,204.197 91.846 C 204.755 92.152,205.413 91.545,216.751 80.265 C 223.075 73.972,229.356 67.727,230.708 66.387 C 232.060 65.048,233.167 63.887,233.167 63.809 C 233.167 63.731,233.241 63.667,233.331 63.667 C 233.421 63.667,236.873 60.310,241.002 56.208 C 245.131 52.106,248.643 48.728,248.806 48.701 C 249.007 48.668,250.908 50.483,254.726 54.353 C 259.521 59.215,260.383 60.020,260.576 59.819 C 260.889 59.493,261.333 58.101,261.333 57.446 C 261.333 57.147,261.446 56.471,261.583 55.944 C 261.721 55.416,261.834 54.744,261.835 54.450 C 261.836 54.157,261.985 53.317,262.167 52.583 C 262.348 51.850,262.498 50.950,262.500 50.583 C 262.502 50.217,262.616 49.546,262.754 49.092 C 262.891 48.639,263.051 47.739,263.108 47.092 C 263.165 46.446,263.276 45.791,263.355 45.638 C 263.433 45.485,263.617 44.585,263.762 43.638 C 264.229 40.605,264.679 37.969,265.024 36.250 C 265.116 35.792,265.288 34.742,265.406 33.917 C 265.524 33.092,265.704 32.079,265.806 31.667 C 265.989 30.930,266.086 30.363,266.580 27.145 C 266.716 26.262,266.903 25.338,266.997 25.092 C 267.090 24.846,267.168 24.331,267.171 23.947 C 267.173 23.564,267.323 22.693,267.504 22.011 C 267.685 21.330,267.833 20.406,267.833 19.959 C 267.833 19.511,267.911 19.001,268.005 18.824 C 268.099 18.648,268.284 17.809,268.415 16.960 C 268.690 15.180,268.919 13.834,269.191 12.417 C 269.296 11.867,269.482 10.817,269.604 10.083 C 269.726 9.350,269.917 8.200,270.029 7.529 C 270.312 5.826,270.188 5.656,268.750 5.774 M269.974 6.328 C 270.006 6.552,269.949 7.014,269.846 7.355 C 269.677 7.921,269.556 8.601,269.006 12.083 C 268.905 12.725,268.712 13.775,268.577 14.417 C 268.443 15.058,268.263 16.033,268.177 16.583 C 267.695 19.687,267.474 20.970,267.343 21.417 C 267.262 21.692,267.150 22.329,267.094 22.833 C 267.038 23.337,266.885 24.275,266.752 24.917 C 266.620 25.558,266.428 26.608,266.326 27.250 C 265.937 29.691,265.835 30.286,265.599 31.500 C 265.465 32.188,265.197 33.688,265.003 34.833 C 264.809 35.979,264.572 37.319,264.476 37.811 C 264.313 38.641,264.156 39.579,263.675 42.583 C 263.572 43.225,263.411 44.098,263.317 44.524 C 263.155 45.255,263.053 45.842,262.431 49.667 C 262.290 50.538,262.100 51.587,262.010 52.000 C 261.920 52.413,261.732 53.425,261.594 54.250 C 261.455 55.075,261.235 56.387,261.105 57.167 C 260.849 58.693,260.593 59.500,260.365 59.500 C 260.287 59.500,257.716 56.985,254.653 53.911 C 250.954 50.198,248.986 48.337,248.792 48.369 C 248.632 48.395,242.571 54.304,235.323 61.500 C 209.268 87.366,204.920 91.649,204.640 91.722 C 204.302 91.810,196.167 83.680,196.167 83.253 C 196.167 83.107,201.463 77.721,207.936 71.285 C 221.768 57.532,222.501 56.797,222.497 56.676 C 222.491 56.454,221.928 55.865,216.367 50.261 C 213.017 46.884,210.501 44.219,210.501 44.049 C 210.502 43.876,214.092 40.201,219.001 35.346 C 223.676 30.724,227.500 26.860,227.500 26.759 C 227.500 26.658,225.028 24.078,222.007 21.025 C 216.387 15.346,216.014 14.905,216.699 14.766 C 219.082 14.283,219.758 14.160,220.833 14.011 C 222.548 13.773,224.852 13.386,228.417 12.738 C 229.242 12.588,230.404 12.404,231.000 12.328 C 231.596 12.253,232.496 12.112,233.000 12.016 C 233.504 11.919,234.854 11.686,236.000 11.496 C 237.146 11.307,238.533 11.071,239.083 10.973 C 239.633 10.875,240.721 10.696,241.500 10.575 C 242.279 10.453,243.592 10.242,244.417 10.105 C 247.317 9.622,248.922 9.356,249.417 9.274 C 249.692 9.229,250.854 9.031,252.000 8.834 C 253.146 8.637,254.533 8.409,255.083 8.326 C 255.633 8.243,256.683 8.064,257.417 7.928 C 258.850 7.663,260.483 7.393,262.083 7.158 C 262.633 7.077,263.758 6.891,264.583 6.744 C 265.408 6.597,266.683 6.371,267.417 6.242 C 268.150 6.113,268.900 5.977,269.083 5.938 C 269.684 5.813,269.916 5.914,269.974 6.328 " stroke="none" fill="#accc9c" fill-rule="evenodd"></path></g></svg>