<svg version="1.1" xmlns="http://www.w3.org/2000/svg" x="0" y="0" viewBox="0 0 512 480" xml:space="preserve"><style type="text/css">
	.st0{fill:#CAD0D7;}
	.st1{fill:#E1E6E9;}
	.st2{fill:#99A5AD;}
	.st3{fill:#B6DAF0;}
	.st4{fill:#59A7D8;}
	.st5{fill:#FFFFFF;}
</style><path class="st0" d="M496 0H16C7.2 0 0 7.2 0 16v448c0 8.8 7.2 16 16 16h480c8.8 0 16-7.2 16-16V16C512 7.2 504.8 0 496 0zM496 456c0 4.4-3.6 8-8 8H24c-4.4 0-8-3.6-8-8V72c0-4.4 3.6-8 8-8h464c4.4 0 8 3.6 8 8V456z"/><path class="st1" d="M490 40H118c-3.3 0-6-2.7-6-6v-4c0-3.3 2.7-6 6-6h372c3.3 0 6 2.7 6 6v4C496 37.3 493.3 40 490 40z"/><path class="st2" d="M24 40L24 40c-4.4 0-8-3.6-8-8v0c0-4.4 3.6-8 8-8h0c4.4 0 8 3.6 8 8v0C32 36.4 28.4 40 24 40zM64 32L64 32c0-4.4-3.6-8-8-8h0c-4.4 0-8 3.6-8 8v0c0 4.4 3.6 8 8 8h0C60.4 40 64 36.4 64 32zM96 32L96 32c0-4.4-3.6-8-8-8h0c-4.4 0-8 3.6-8 8v0c0 4.4 3.6 8 8 8h0C92.4 40 96 36.4 96 32z"/><path class="st3" d="M261 142.8v83.3c0 11.5-9.3 20.8-20.8 20.8H160v13.5c0 3-3.2 4.9-5.8 3.6L121 247h-4.2c-11.5 0-20.8-9.3-20.8-20.8v-83.3c0-11.5 9.3-20.8 20.8-20.8h123.3C251.7 122 261 131.3 261 142.8z"/><path class="st4" d="M416 186v158c0 8.8-6.8 16-15.6 16h-112l-42 27.9c-2.7 1.8-6.4-0.1-6.4-3.3V360h-39.6c-8.8 0-16.4-7.2-16.4-16V186c0-8.8 7.5-16 16.4-16h200C409.2 170 416 177.2 416 186z"/><path class="st5" d="M358.3 237.5c0 1.1 0 2.6 0 3.7 0 39.4-30.1 84.8-84.8 84.8 -16.7 0-32.6-4.8-45.7-13.3 2.3 0.3 4.8 0.3 7.1 0.3 13.9 0 26.9-4.5 36.9-12.8 -12.8 0-23.8-8.8-27.8-20.4 2 0.3 3.7 0.3 5.7 0.3 2.8 0 5.4-0.3 7.9-0.9 -13.6-2.8-23.8-14.8-23.8-29.2 0-0.3 0-0.3 0-0.6 4 2.3 8.5 3.7 13.3 3.7 -7.9-5.1-13.3-14.2-13.3-24.7 0-5.4 1.7-10.5 4.3-15 14.5 18.2 36.6 30.1 61.3 31.2 -0.6-2.3-0.9-4.5-0.9-6.8 0-16.5 13.3-29.8 29.8-29.8 8.8 0 16.5 3.7 21.8 9.4 6.8-1.4 13.3-3.7 19-7.1 -2.3 6.8-7.1 12.8-13 16.5 6-0.9 11.6-2.3 17-4.8C369 227.9 363.9 233.2 358.3 237.5z"/></svg>