<svg xmlns="http://www.w3.org/2000/svg" xmlns:xlink="http://www.w3.org/1999/xlink" version="1.1" x="0px" y="0px" viewBox="0 0 64 64" style="enable-background:new 0 0 64 64;" xml:space="preserve">
<g id="COMMODITIES">
	<g>
		<path style="fill:#008290;" d="M22.443,14.637c1.113,1.637,2.211,3.191,3.245,4.787c1.125,1.737,2.219,3.496,3.277,5.275    c1.504,2.529,2.962,5.088,4.001,7.853c0.421,1.12,0.782,2.266,1.121,3.413c0.346,1.172,0.278,2.377,0.099,3.565    c-0.261,1.721-0.883,3.312-1.865,4.753c-1.809,2.657-4.265,4.388-7.426,5.026c-2.537,0.513-5.02,0.295-7.395-0.809    c-3.625-1.685-5.824-4.525-6.732-8.378c-0.522-2.214-0.187-4.381,0.655-6.459c0.645-1.593,1.297-3.194,2.112-4.703    c1.324-2.453,2.749-4.854,4.198-7.236c1.059-1.74,2.22-3.418,3.345-5.117C21.5,15.97,21.949,15.349,22.443,14.637z"/>
		<path style="fill:#008290;" d="M53.659,32.602c1.275-3.182,1.278-3.778,0.023-5.292c1.381-3.475,1.306-4.202-0.546-5.309    c1.178-3.887,0.481-5.8-1.718-5.724c-0.951-1.66-1.774-3.193-2.692-4.668c-0.668-1.073-1.539-1.167-2.244-0.045    c-0.947,1.506-1.79,3.077-2.712,4.679c-2.341-0.701-2.779,2.834-1.709,5.91c-1.771,0.372-1.599,1.668-1.346,2.963    c0.23,1.178,1.127,2.255-0.013,3.556c-0.361,0.412,0.027,1.549,0.191,2.33c0.121,0.579,0.433,1.118,0.622,1.58    c-1.849,1.876-0.524,3.607,0.031,5.346c-1.322,1.067-1.319,2.25,0.013,5.183c-1.604,1.114-1.012,2.59-0.54,3.94    c0.871,2.494,2.78,3.655,5.869,3.523c-0.004,0.226-0.009,0.442-0.013,0.66c0.235-0.033,0.478-0.056,0.735-0.056    c0.271,0,0.524,0.024,0.77,0.061c0-0.206-0.001-0.412-0.002-0.618c3.009,0.037,4.716-1.008,5.704-3.37    c0.825-1.972,0.7-3.115-0.462-4.231c1.315-2.708,1.317-4.019,0.035-5.161C54.203,36.092,55.546,34.356,53.659,32.602z     M51.679,18.123c0.938,2.589-0.342,4.7-2.895,4.777C47.996,20.871,49.363,18.615,51.679,18.123z M43.44,18.154    c2.229,0.309,3.692,2.61,2.963,4.798C43.773,22.668,42.656,20.807,43.44,18.154z M46.411,25.948    c0.188,0.554,0.223,1.368-0.067,1.799c-0.184,0.274-1.152,0.222-1.666,0.034c-1.672-0.612-2.249-2.017-2.424-3.774    C44.246,23.83,45.956,24.599,46.411,25.948z M46.478,32.963c-0.382,0.266-1.067,0.279-1.564,0.156    c-1.58-0.391-2.458-1.763-2.592-3.914c2.269-0.101,3.752,0.724,4.193,2.351C46.639,32.012,46.711,32.801,46.478,32.963z     M46.604,37.024c0.245,1.188-0.162,1.614-1.363,1.426c-1.607-0.252-2.745-1.77-2.938-4.021    C44.694,34.331,46.244,35.286,46.604,37.024z M45.393,48.945c-1.703-0.177-2.919-1.72-3.053-3.997    c2.322-0.205,4.003,0.89,4.298,2.694C46.804,48.657,46.385,49.048,45.393,48.945z M45.431,43.702    c-1.754-0.154-3.102-1.914-3.047-4.019c2.276-0.197,3.912,0.854,4.249,2.688C46.818,43.381,46.451,43.792,45.431,43.702z     M47.559,18.836c-0.438-0.019-1-0.647-1.244-1.14c-0.934-1.891,0.063-3.353,1.298-4.956c1.15,1.647,2.243,3.104,1.195,4.996    C48.541,18.215,47.967,18.853,47.559,18.836z M49.944,48.915c-1.199,0.202-1.624-0.229-1.376-1.398    c0.373-1.765,1.933-2.737,4.253-2.581C52.723,47.128,51.604,48.636,49.944,48.915z M48.74,41.799    c0.512-1.556,2.018-2.292,4.049-2.114c0.047,1.847-0.81,3.34-2.324,3.809c-0.533,0.165-1.358,0.248-1.687-0.043    C48.491,43.196,48.569,42.317,48.74,41.799z M49.861,38.461c-1.048,0.136-1.532-0.223-1.313-1.357    c0.352-1.809,2.011-2.851,4.283-2.635C52.757,36.633,51.559,38.241,49.861,38.461z M48.623,32.991    c-0.264-2.508,1.345-3.968,4.245-3.767C52.604,32.217,50.918,33.675,48.623,32.991z M50.68,27.685    c-0.588,0.224-1.326,0.049-1.996,0.056c0.052-0.673-0.059-1.415,0.188-2.006c0.53-1.269,2.348-1.967,4.056-1.673    C52.71,25.718,52.227,27.096,50.68,27.685z"/>
	</g>
</g>
<g id="Layer_1">
</g>
</svg>