<svg xmlns="http://www.w3.org/2000/svg" xmlns:xlink="http://www.w3.org/1999/xlink" version="1.1" id="Layer_1" x="0px" y="0px" viewBox="0 0 64 64" style="enable-background:new 0 0 64 64;" xml:space="preserve">
<style type="text/css">
	.st0{fill:#008290;stroke:#008290;stroke-width:2;stroke-miterlimit:10;}
	.st1{fill:#008290;}
</style>
<path class="st0" d="M30.6,10c0.9,0,1.8,0,2.8,0c0.1,0,0.2,0.1,0.4,0.1c1.3,0.2,2.7,0.4,4,0.7C46,13,52.2,19.8,53.7,28.3  c0.1,0.8,0.2,1.6,0.3,2.4c0,0.9,0,1.8,0,2.8c0,0.1-0.1,0.2-0.1,0.4c-0.2,2.1-0.6,4.2-1.4,6.2c-3.1,7.6-8.7,12.2-16.8,13.8  c-0.8,0.2-1.6,0.2-2.4,0.3c-0.9,0-1.8,0-2.8,0c-0.1,0-0.2-0.1-0.3-0.1c-1.4-0.2-2.8-0.4-4.1-0.7c-8.1-2.1-14.5-9.1-15.9-17.4  c-0.1-0.8-0.2-1.6-0.3-2.4c0-0.9,0-1.8,0-2.8c0-0.1,0.1-0.2,0.1-0.4c0.2-1.3,0.4-2.7,0.7-4c2.2-8.3,9-14.4,17.5-15.9  C29,10.2,29.8,10.1,30.6,10z M32,11.4c-11.4,0-20.6,9.3-20.6,20.6c0,11.4,9.2,20.6,20.6,20.6c11.3,0,20.6-9.2,20.7-20.6  C52.6,20.7,43.4,11.4,32,11.4z"/>
<path class="st1" d="M38.3,31.3c0.8,0.3,1.7,0.6,2.4,1c1.7,0.9,2.5,2.3,2.6,4.2c0,0.7,0,1.5-0.2,2.2c-0.3,1.6-1.3,2.7-2.8,3.4  c-1.4,0.6-2.8,0.8-4.2,0.9c-0.3,0-0.6,0-0.9,0.1c0,1.4,0,2.7,0,4.1c-0.9,0-1.8,0-2.7,0c0-1.4,0-2.7,0-4.1c-0.8,0-1.6,0-2.4,0  c0,1.4,0,2.7,0,4.1c-0.9,0-1.8,0-2.8,0c0-1.4,0-2.7,0-4.1c-1.8,0-3.5,0-5.3,0c0-0.8,0-1.7,0-2.5c0.4,0,0.9,0,1.3,0  c0.5,0,0.9-0.1,1.4-0.1c0.3-0.1,0.6-0.3,0.6-0.6c0.1-0.4,0.1-0.8,0.1-1.2c0-4.4,0-8.8,0-13.1c0-0.2,0-0.3,0-0.5  c-0.1-1.1-0.3-1.3-1.5-1.4c-0.6,0-1.3,0-1.9,0c0-0.8,0-1.6,0-2.5c1.7,0,3.5,0,5.3,0c0-1.4,0-2.7,0-4.1c0.9,0,1.8,0,2.7,0  c0,1.3,0,2.7,0,4.1c0.8,0,1.6,0,2.4,0c0-1.3,0-2.7,0-4.1c0.9,0,1.8,0,2.8,0c0,1.4,0,2.7,0,4.1c1,0.1,1.9,0.2,2.8,0.4  c0.6,0.1,1.2,0.3,1.8,0.6c1.7,0.8,2.6,2.2,2.7,4.1c0.1,2.5-0.9,4-3.2,4.9C39,31.1,38.6,31.2,38.3,31.3z M30.1,40.5  c0.9,0,1.7,0,2.5,0c1,0,2.1,0,3.1-0.2c1.7-0.3,2.6-1.1,2.8-2.6c0.1-0.5,0.1-0.9,0.1-1.4c-0.1-1.8-0.9-2.8-2.8-3.2  c-1.9-0.4-3.7-0.2-5.6-0.2c0,0,0,0-0.1,0.1C30.1,35.4,30.1,38,30.1,40.5z M30.1,30.3c1.1,0.2,4.4,0,5.4-0.2c0.8-0.2,1.4-0.5,1.9-1.2  c1.3-2.1,0.2-4.8-2.3-5.1c-1.6-0.2-3.3-0.1-4.9-0.2c0,0,0,0-0.1,0.1C30.1,25.8,30.1,28,30.1,30.3z"/>
</svg>