<svg xmlns="http://www.w3.org/2000/svg" xmlns:xlink="http://www.w3.org/1999/xlink" version="1.1" x="0px" y="0px" viewBox="0 0 64 64" style="enable-background:new 0 0 64 64;" xml:space="preserve">
<g id="FOREX">
	<g>
		<path style="fill:#008290;" d="M27.85,9.661c-0.135-0.456-0.075-0.904,0.527-1.055c0.484-0.121,0.855,0.05,1.318-0.066    c0.521-0.13,0.959-0.273,1.45-0.396c0.502-0.125,0.734,0.527,1.252,0.527c0.542,0,0.827-0.272,1.319-0.396    c0.447-0.112,0.891,0.401,0.988,0.791c0.157,0.63,0.334,0.796,0.791,1.252c0.396,0.396-0.29,0.832-0.396,1.252    c-0.123,0.493-0.294,1.195-0.856,1.055c-0.572-0.143-0.643,0.545-1.319-0.132c-0.216-0.216-0.762,0.33-1.186,0.33    c-0.451,0-0.877-0.441-1.252-0.066c-0.344,0.344-0.596,0.46-1.121,0.198c-0.301-0.15-0.994-0.38-1.318-0.461    c-0.524-0.131-0.921-0.194-1.187-0.725c-0.232-0.465,0.314-0.908,0.593-1.187C27.736,10.302,27.698,10.039,27.85,9.661z"/>
		<path style="fill:#008290;" d="M25.542,11.902c0.245,0.49-0.118,0.941,0.264,1.45c0.377,0.504,0.589,0.925,1.252,0.593    s0.637,0.616,0.33,0.923c-0.127,0.127-1.048,0-1.252,0c-0.63,0-0.894-0.017-1.252,0.461c-0.333,0.445-0.768,0.575-0.527,1.055    c0.17,0.34-0.003,1.061-0.132,1.318c-0.215,0.43-0.285,0.881-0.066,1.318c0.208,0.417,0.923,0.756,0.923,0.066    c0-0.651,0.381-0.645,0.791-1.055c0.264-0.265-0.021-1.034,0.33-1.384c0.399-0.4,0.631,0.669,0.725,0.857    c0.263,0.525,0.355,0.793,0.791,1.121c0.326,0.244,0.452,1.045,0.725,1.318c0.414,0.414-0.348,1.063-0.396,1.252    c-0.145,0.577-0.653,0.502-1.187,0.396c-0.7-0.14-0.7-0.099-1.121,0.461c-0.23,0.307,0.488,1.002-0.33,0.593    c-0.53-0.265-0.79,0.329-1.187,0.527c-0.435,0.217-0.959-0.318-1.121,0.33c-0.139,0.555-0.124,0.994-0.791,0.593    c-0.464-0.278-0.774,0.427-0.989,0.857c-0.277,0.555,0.142,0.885-0.461,1.187c-0.726,0.363-0.132-0.52-0.132-0.791    c0-0.402-0.546-1.027-0.725-1.384c-0.261-0.523-0.497-0.652-1.055-0.791c-0.649-0.163-0.896,0.277-1.121,0.725    c-0.212,0.424,0.042,0.886-0.066,1.318c-0.137,0.549,0.455,0.86,0.857,0.659c0.545-0.272,0.909,0.277,0.527,0.659    c-0.424,0.424-0.518,0.452-0.066,1.055c0.531,0.708,0.33,0.161,0.33,1.055c0,0.264,0,0.527,0,0.791    c0,0.257-0.034,0.532,0.338,0.758c0.452,0.274,0.67,0.442,1.149,0.346c0.41-0.082,0.684,0.081,1.018,0.214    c0.473,0.189,0.718,0.747,1.121,0.989c0.515,0.31,0.919,0.513,1.45,0.726c0.405,0.162,0.934,0.388,1.187,0.725    c0.295,0.394,0.696,0.786,1.055,1.055c0.42,0.315,0.93,0.403,1.318,0.791c0.362,0.362,0.717,0.386,1.121,0.923    c0.379,0.506,0.907,0.553,1.384,0.791c0.416,0.208,0.723-0.661,1.252-0.132c0.275,0.276,0.72,0.64,0.791,0.923    c0.133,0.53-0.564,0.726-0.923,0.726c-0.281,0-0.038,0.057-0.132,0.197c-0.354,0-0.198,0.792-0.527,0.923    c-0.158,0.063-0.384,0.097-0.527,0.132h-0.33l-0.264-0.065c-0.284-0.071-1.039,0.453-1.318,0.593    c-0.354,0.177-0.959,0.104-1.327,0.289c-1.523-0.481-3.114-1.188-4.482-1.994c-0.047-0.033,0.149-1.243,0.008-1.524    c-0.219-0.438-0.622-0.881-1.055-0.989c-0.582-0.146-0.935-0.84-1.055-1.318c-0.13-0.521-0.309-0.979-0.725-1.187    c-0.699-0.35-0.063-0.825,0.264-0.988c0.467-0.233,0.632-0.863,0.33-1.187c-0.5-0.535-0.705-0.369-1.121-0.577    c-0.341-0.17-0.624-0.337-0.725-0.742c-0.111-0.444-0.348-0.863-0.461-1.318s-0.22-0.88-0.33-1.318    c-0.051-0.204-0.694-0.969-0.857-1.187c-0.362-1.401-0.722-2.372-0.721-2.649c0.002-0.893,0.308-0.563,0.296-0.977    c-0.02-0.733,0.004-1.028,0.152-1.508c0.089-0.289,0.244-0.451,0.14-0.865c-0.126-0.506-0.051-0.954,0.157-1.368    c0.251-0.502,0.346-0.518,0.346-1.133c0-0.695,0.596-1.278,1.211-1.586c0.542-0.271,0.942-0.735,1.45-0.989    c0.449-0.224,1.137-0.494,1.384-0.989c0.223-0.445,0.441-0.881,0.66-1.318c0.075-0.151-0.038-0.302,0.033-0.44    c0.349-0.68,0.29-0.606,1.022-1.076c0.326-0.327,0.857-0.843,0.857-1.318c0-0.532-0.205-0.85,0.198-1.252    c0.197-0.197,1.051-0.066,1.318-0.066c0.599,0,0.805,0.067,1.318,0.272c0.712,0.285,0.017,0.757-0.313,1.088    C25.704,10.425,25.452,10.667,25.542,11.902z"/>
		<path style="fill:#008290;" d="M30.091,13.386c-0.077,0.121-0.154,0.242-0.231,0.362c-0.169,0.266,0.137,0.062,0.297,0.461    c0.111,0.278-0.024,0.438,0.033,0.725c0.062,0.31,0.283,0.554,0.33,0.89c0.017,0.118-0.281,0.498-0.362,0.593    c-0.298,0.35-0.127,0.887-0.198,1.318c-0.071,0.285,0.33,0.581,0.33,0.857c0,0.22,0.281,0.297,0.461,0.297    c0.349,0,0.372-0.041,0.461-0.264c0.069-0.172,0.096-0.559,0.264-0.659c0.117-0.071,0.527-0.337,0.527-0.461    c0-0.25,0.384-0.483,0.561-0.659c0.199-0.199,0.471-0.351,0.692-0.461c0.325-0.163,0.429-0.264,0.429-0.626    c0-0.238-0.347-0.574-0.297-0.824c0.054-0.267-0.061-0.709-0.197-0.89c-0.227-0.299-0.244-0.414-0.297-0.758    c-0.043-0.276-0.166-0.362-0.429-0.23c-0.303,0.151-0.489,0.23-0.824,0.23c-0.199,0-0.41-0.033-0.626-0.033    C30.668,13.42,30.468,13.372,30.091,13.386z"/>
		<path style="fill:#008290;" d="M37.645,13.171c-0.396-0.095-0.419,0.03-0.709,0.61c-0.256,0.943,0.125,0.827,0.23,1.269    c0.093,0.389,0.33,0.897,0.33,1.285c0,0.543,0.095,1.054,0.626,1.187c0.636,0.159,0.622,0.198,1.236,0.198    c0.68,0,0.351-0.813,0.197-1.121c-0.241-0.483-0.465-0.843-0.923-1.187c-0.283-0.213-0.09-0.906,0.33-0.066    c0.296,0.592,0.606,0.732,1.12,0.989c0.577,0.289,0.372,0.946,0.066,1.252c-0.365,0.365-0.625,0.559-0.989,0.923    c-0.225,0.225-0.185,1.004-0.264,1.318c-0.126,0.503-0.715,0.735-0.329,1.121c0.365,0.366,0.851,0.115,0.527,0.923    c-0.229,0.571-0.546,0.508-0.923,0.791c-0.469,0.351-0.314,0.689-0.066,1.187c0.266,0.53,0.141,0.725,0.857,0.725    c0.683,0,0.695,0.162,1.187-0.33c0.224-0.224-0.072-1.014,0-1.302c0.196-0.785,0.506-0.299,0.197-1.071    c-0.146-0.368,0.379-0.939,0.774-0.939c0.398,0,1.13,0.665,1.615,0.544c0.709-0.177-0.189-0.792-0.544-0.792    c-0.461,0-1.211-0.323-0.396-0.527c0.535-0.134,0.302-0.188,0.973-0.016c0.283,0.072,0.303,0.213,0.507,0.464    c0.155,0.19,0.296,0.129,0.63-0.003c0.108-0.468-0.338-0.375-0.354-0.642c-0.021-0.307,0.271-0.425,0.354-0.594    c0.2-0.399-0.406-0.819-0.494-1.17c-0.11-0.44-0.23-1.681,0.28-1.681c0.52,0,1.319,0.15,1.467,0.741    c0.129,0.516-0.594,0.891-0.791,1.384c-0.187,0.465-0.398,0.92-0.066,1.252c0.337,0.337,0.527-0.668,0.527,0.132    c0,0.532,0.694-0.731,0.726-0.857c0.182-0.729,0.527,0.294,0.527,0.659c0,0.524-0.147,0.965-0.462,1.384    c-0.343,0.458-0.729,0.471-0.988,0.989c-0.315,0.63-0.065,0.724-0.726,1.055c-0.424,0.212-1.071,0.048-1.318-0.198    c-0.501-0.501-0.57-0.408-1.055,0.198c-0.357,0.447-0.689,0.689-1.055,1.055c-0.38,0.38-0.949,0.449-1.187,0.923    c-0.209,0.419-0.5,0.965-0.396,1.384c0.137,0.544-0.322,0.916-0.659,1.252c-0.33,0.331-0.491,0.977-0.593,1.384    c-0.163,0.649,0.001,0.662,0.264,1.187c0.115,0.23-0.286,1.055-0.33,1.318c-0.037,0.226,0.848,0.838,0.989,1.121    c0.187,0.373,0.892,0.101,1.187,0.396c0.253,0.253,0.995-0.08,1.252-0.132c0.526-0.105,0.813-0.427,1.318-0.527    c0.299-0.06,0.642-0.65,1.055-0.857c0.468-0.234,0.843-0.256,1.253-0.461c0.334-0.167-0.334,0.953,0,1.12    c0.465,0.232,0.753,0.282,0.593,0.924c-0.102,0.408-0.29,0.724-0.428,1.104c-0.31,0.85-0.078,0.572-0.1,1.17    c1.434-1.731,1.623-1.884,2.769-3.79c1.12-2.041,1.778-3.849,2.044-6.328c0.046-0.428,0.065-0.87,0.065-1.318    c0-0.426,0.052-1.158-0.329-1.318c-0.822-0.347-0.773-0.546-1.582-0.791c-0.385-0.192-1.025-0.818-0.923-1.253    c0.389-0.062,0.817,0.388,1.191,0.628c0.392,0.251,0.466,0.774,1.083,0.954c0.271-0.23-0.393-2.99-0.198-3.378    c-0.148-1.064-1.356-3.347-1.104-3.906c-1.236-2.09-1.529-2.657-3.098-4.417c-1.36-1.526-3.021-2.637-4.861-3.56    c-2.216-0.993-4.256-1.553-6.724-1.516c-0.576-0.057-0.528,0.495-1.187,0.495c-0.505,0-0.795-0.263-1.318-0.132    c-0.135,0.034-0.264,0.088-0.396,0.132C29.637,6.282,29.407,7,28.943,6.381c-0.07-0.093,1.606-0.384,0.659-0.857    c-0.497-0.249-1.115,0.578-0.857,0.923c0.148,0.198-0.282,0.593-0.857,0.593c-0.498,0-0.987-0.06-0.857,0.461    c0.131,0.525,0.554-0.086-0.264,0.527C26.273,8.4,27.539,8.186,27.69,8.095c0.454-0.272,0.78-0.33,1.318-0.33    c0.399,0,0.841-0.313,1.252-0.396c0.577-0.116,1.01,0.109,1.45,0.33c0.195,0.097,1.07-0.172,1.252-0.264    c0.73-0.365,0.361,0.128,0.527,0.461c0.109,0.219,0.816,0.183,1.055,0.659c0.295,0.589,0.061,0.788,0.726,1.121    c0.039,0.02,0.67-0.222,1.318,0.264c0.43,0.322,0.807,0.154,1.187,0.659c0.084,0.113,0.217,0.197,0.264,0.33    c0.17,0.485-0.102,0.192,0.23,0.643c0.066,0.09,0.236-0.027,0.329,0.461c0.185,0.965,0.909,1.258,0.644,1.648    c-0.234,0.344-0.263,0.069-1.104-0.379l-0.132-0.066c-0.106,0-0.187-0.066-0.28-0.066H37.645z"/>
		<path style="fill:#008290;" d="M53.983,51.753c-0.33,0.173-1.068,0.409-1.792,0.409c-0.785,0-1.524-0.236-2.027-0.802    c-0.235-0.268-0.408-0.629-0.519-1.101h3.945v-1.115h-4.165c0-0.095,0-0.157,0-0.252c0-0.157,0-0.33,0.016-0.487h4.149v-1.116    h-3.914c0.11-0.408,0.283-0.77,0.503-1.021c0.487-0.597,1.179-0.849,1.934-0.849c0.691,0,1.336,0.204,1.744,0.378l0.44-1.792    c-0.565-0.252-1.398-0.472-2.357-0.472c-1.478,0-2.734,0.598-3.631,1.604c-0.503,0.581-0.88,1.304-1.084,2.152h-1.054v1.116h0.881    c0,0.157-0.016,0.314-0.016,0.472c0,0.094,0,0.188,0,0.268h-0.865v1.115h1.022c0.141,0.833,0.455,1.509,0.88,2.043    c0.88,1.163,2.295,1.792,3.835,1.792c1.006,0,1.917-0.299,2.451-0.598L53.983,51.753z M39.606,53.922v-2.515h2.468v-1.116h-2.468    v-1.006h2.468V48.17h-1.87l2.688-4.464h-2.515l-1.116,2.499c-0.267,0.613-0.472,1.21-0.676,1.729h-0.031    c-0.204-0.55-0.377-1.084-0.66-1.713l-1.101-2.515h-2.562l2.562,4.464h-1.87v1.115h2.437v1.006h-2.437v1.116h2.437v2.515H39.606z     M30.275,53.922v-1.949h-4.196v-0.031c0.377-0.33,0.629-0.723,0.77-1.115c0.126-0.362,0.157-0.724,0.142-1.116h1.949v-1.619    h-2.153c-0.094-0.393-0.141-0.77-0.141-1.179c0-0.754,0.346-1.478,1.461-1.478c0.582,0,1.021,0.11,1.32,0.283l0.393-1.808    c-0.346-0.188-0.99-0.377-1.855-0.377c-2.106,0-3.552,1.305-3.552,3.285c0,0.424,0.047,0.88,0.126,1.272h-1.257v1.619h1.54    c0.031,0.22,0.047,0.408,0.047,0.629c0,1.068-0.928,1.964-1.76,2.31v1.273H30.275z M15.49,55.289v-1.603    c1.807-0.314,2.797-1.509,2.797-2.908c0-1.414-0.754-2.278-2.625-2.938c-1.336-0.503-1.886-0.833-1.886-1.352    c0-0.44,0.33-0.881,1.352-0.881c1.132,0,1.854,0.362,2.263,0.535l0.456-1.776c-0.519-0.251-1.226-0.472-2.279-0.519v-1.383h-1.54    v1.493c-1.682,0.33-2.656,1.414-2.656,2.797c0,1.524,1.147,2.311,2.829,2.876c1.163,0.394,1.666,0.771,1.666,1.368    c0,0.628-0.613,0.974-1.509,0.974c-1.021,0-1.949-0.33-2.609-0.691l-0.472,1.839c0.597,0.346,1.619,0.629,2.672,0.676v1.493H15.49    z"/>
	</g>
</g>
<g id="Layer_1">
</g>
</svg>