<svg xmlns="http://www.w3.org/2000/svg" xmlns:xlink="http://www.w3.org/1999/xlink" version="1.1" x="0px" y="0px" viewBox="0 0 64 64" style="enable-background:new 0 0 64 64;" xml:space="preserve">
<g id="INDICES">
	<g>
		<path style="fill:#008290;" d="M55.75,29.398c-0.979-0.962-1.963-1.92-2.938-2.888c-0.963-0.957-1.916-1.922-2.954-2.965    c-5.837,5.91-11.644,11.788-17.429,17.644c-1.894-1.884-3.674-3.655-5.524-5.495c-4.854,4.921-9.657,9.79-14.479,14.679    c-1.206-1.2-2.283-2.277-3.366-3.349c-0.26-0.257-0.54-0.495-0.811-0.741V46.19c1.614-1.598,3.232-3.19,4.842-4.792    c4.503-4.479,9.004-8.962,13.506-13.443c0.098-0.097,0.2-0.189,0.29-0.273c1.797,1.78,3.581,3.547,5.374,5.323    c4.491-4.539,8.964-9.059,13.455-13.598c-1.836-1.833-3.771-3.764-5.791-5.781c5.34,0,10.582,0,15.824,0    C55.75,18.884,55.75,24.141,55.75,29.398z"/>
	</g>
</g>
<g id="Layer_1">
</g>
</svg>