<svg xmlns="http://www.w3.org/2000/svg" xmlns:xlink="http://www.w3.org/1999/xlink" version="1.1" x="0px" y="0px" viewBox="0 0 64 64" style="enable-background:new 0 0 64 64;" xml:space="preserve">
<g id="BONDS">
	<g>
		<path style="fill:#008290;" d="M45.623,37.163c1.049,1.044,1.574,2.309,1.574,3.792c0,1.485-0.525,2.749-1.574,3.793    c-1.051,1.045-2.316,1.566-3.797,1.566s-2.742-0.521-3.783-1.566C37,43.704,36.48,42.44,36.48,40.955    c0-1.483,0.52-2.748,1.563-3.792c1.041-1.044,2.303-1.566,3.783-1.566S44.572,36.119,45.623,37.163z M35.879,34.978    c-1.65,1.655-2.475,3.647-2.475,5.978c0,2.331,0.824,4.324,2.475,5.979c1.648,1.654,3.635,2.481,5.959,2.481    s4.313-0.827,5.961-2.481c1.65-1.654,2.475-3.647,2.475-5.979c0-2.33-0.824-4.322-2.475-5.978    c-1.648-1.654-3.637-2.481-5.961-2.481S37.527,33.323,35.879,34.978z M25.97,16.224c1.05,1.05,1.575,2.315,1.575,3.796    c0,1.481-0.525,2.743-1.575,3.784c-1.05,1.042-2.315,1.563-3.796,1.563c-1.481,0-2.743-0.521-3.784-1.563    c-1.042-1.042-1.563-2.303-1.563-3.784c0-1.481,0.521-2.747,1.563-3.796c1.042-1.05,2.303-1.575,3.784-1.575    C23.654,14.649,24.92,15.174,25.97,16.224z M43.484,10.865c-2.59,0.732-4.695,1.217-6.316,1.453    c-1.619,0.236-3.342,0.354-5.166,0.354c-2.476,0-4.773-0.228-6.891-0.684c-1.385-0.293-2.378-0.439-2.981-0.439    c-1.417,0-2.801,0.391-4.153,1.172c-1.352,0.781-2.395,1.811-3.127,3.088c-0.733,1.278-1.1,2.698-1.1,4.26    c0,2.344,0.805,4.333,2.414,5.969s3.591,2.454,5.948,2.454c2.568,0,4.628-0.879,6.18-2.637c1.552-1.758,2.329-3.751,2.329-5.981    c0-1.563-0.505-3.043-1.514-4.443l1.319,0.024c4.072,0,7.523-0.344,10.355-1.032L16.922,50.831h3.225l26.22-39.966H43.484z"/>
	</g>
</g>
<g id="Layer_1">
</g>
</svg>