<?xml version="1.0" encoding="utf-8"?>
<!-- Generator: Adobe Illustrator 19.0.0, SVG Export Plug-In . SVG Version: 6.00 Build 0)  -->
<svg version="1.1" id="Layer_1" xmlns="http://www.w3.org/2000/svg" xmlns:xlink="http://www.w3.org/1999/xlink" x="0px" y="0px"
	 viewBox="0 0 60 60" style="enable-background:new 0 0 60 60;" xml:space="preserve">
<style type="text/css">
	.st0{fill:#E9EAEB;}
	.st1{fill:none;stroke:#D8D9D8;stroke-width:2;stroke-miterlimit:10;}
	.st2{fill:#FFFFFF;stroke:#2B5183;stroke-width:2;stroke-miterlimit:10;}
	.st3{fill:#30C1E5;stroke:#2B5183;stroke-width:2;stroke-miterlimit:10;}
	.st4{fill:none;stroke:#2B5183;stroke-width:2;stroke-miterlimit:10;}
</style>
<g id="XMLID_2_">
	<circle id="XMLID_25_" class="st0" cx="30" cy="30.9" r="20.4"/>
	<path id="XMLID_24_" class="st1" d="M7.2,48.2c-3.6-4.8-5.7-10.7-5.7-17.1C1.5,15.3,14.3,2.6,30,2.6c15.7,0,28.5,12.8,28.5,28.5
		c0,6.4-2.1,12.3-5.7,17.1"/>
	<g id="XMLID_3_">
		<path id="XMLID_23_" class="st2" d="M30,37c2.3,0,6.6-3.1,7.1-4.1c0.6-1,0.8-1.9,1-3.1c0.1-0.3,0.8-1.8,1-2c1-1.3,1-5.1,1-5.1
			l-1-1c0,0-0.2-3.2-0.4-4.8C38.2,12.4,35,9.5,30,9.5s-8.2,2.9-8.8,7.5c-0.1,1.6-0.4,4.8-0.4,4.8l-1,1c0,0,0.1,3.8,1,5.1
			c0.2,0.2,1,1.8,1,2c0.2,1.2,0.4,2.1,1,3.1C23.4,33.9,27.6,37,30,37z"/>
		<path id="XMLID_22_" class="st3" d="M30,57.4c7.1,0,13.6-2.5,18.3-7.1v-4.1c-0.6-2-2.2-3.1-4.1-4.1l-7.1-3.1c0,0-3.7,3.1-7.1,3.1
			s-6.1-3.1-6.1-3.1l-8.2,3.1c-1.9,1-3.5,2-4.1,4.1v4.1C16.3,54.9,22.8,57.4,30,57.4z"/>
		<g id="XMLID_6_">
			<line id="XMLID_21_" class="st4" x1="23.9" y1="39.1" x2="23.9" y2="34"/>
		</g>
		<g id="XMLID_4_">
			<line id="XMLID_20_" class="st4" x1="36.1" y1="39.7" x2="36.1" y2="34"/>
		</g>
	</g>
</g>
</svg>
