<svg viewBox="0 0 32 32" xmlns="http://www.w3.org/2000/svg"><g fill="#fff"><path d="m23 17a.99974.99974 0 0 1 -1-1 15.84146 15.84146 0 0 1 3.0498-9.37158 1.01065 1.01065 0 0 0 -.0898-1.36572 13.94172 13.94172 0 0 0 -19.22562 1.24267 1.00031 1.00031 0 0 1 -1.46875-1.35837 15.94388 15.94388 0 0 1 21.97949-1.41751 3.014 3.014 0 0 1 .42288 4.07471 13.84826 13.84826 0 0 0 -2.668 8.1958.99974.99974 0 0 1 -1 1z"/><path d="m16 32a15.98534 15.98534 0 0 1 -10.24512-3.72949 3.014 3.014 0 0 1 -.42288-4.07471 13.84826 13.84826 0 0 0 2.668-8.1958 1 1 0 0 1 2 0 15.84146 15.84146 0 0 1 -3.0498 9.37158 1.01065 1.01065 0 0 0 .0898 1.36572 13.94172 13.94172 0 0 0 19.22559-1.24268 1.00031 1.00031 0 0 1 1.46875 1.3584 16.04569 16.04569 0 0 1 -11.73434 5.14698z"/><path d="m27 27.646-.73437-.793a15.94428 15.94428 0 0 1 -4.26563-10.853 1 1 0 0 1 2 0 13.92557 13.92557 0 0 0 3 8.63574 13.92681 13.92681 0 0 0 .8252-16.10791.99994.99994 0 1 1 1.6875-1.07324 15.93247 15.93247 0 0 1 -1.77832 19.39841z"/><path d="m3.44238 25.17969a.99807.99807 0 0 1 -.83691-.45166 15.93181 15.93181 0 0 1 1.66016-19.58103l.73437-.793.73438.793a15.93889 15.93889 0 0 1 4.26562 10.853 1 1 0 0 1 -2 0 13.92249 13.92249 0 0 0 -3-8.63574 13.92731 13.92731 0 0 0 -.72266 16.26709.99994.99994 0 0 1 -.835 1.54834z"/><path d="m7.291 9.7915a1.00027 1.00027 0 0 1 -.80273-1.59521 10.6129 10.6129 0 0 1 1.87501-1.96729.99992.99992 0 1 1 1.27344 1.542 8.60507 8.60507 0 0 0 -1.541 1.61572.999.999 0 0 1 -.80472.40478z"/><path d="m9.041 26.0415a.99633.99633 0 0 1 -.63574-.22852 12.3205 12.3205 0 0 1 -1.9082-1.98145.99966.99966 0 1 1 1.58794-1.21483 10.40378 10.40378 0 0 0 1.59371 1.6533 1.00021 1.00021 0 0 1 -.63771 1.7715z"/><path d="m8.874 14.4585a1 1 0 0 1 -.21-1.97754l2.125-.4585a1 1 0 0 1 .42188 1.95508l-2.125.4585a1.01529 1.01529 0 0 1 -.21188.02246z"/><path d="m11 20.00049a.99935.99935 0 0 1 -.28223-.041l-2.125-.625a1.00012 1.00012 0 0 1 .56445-1.91895l2.125.625a1.00042 1.00042 0 0 1 -.28222 1.95995z"/><path d="m24.709 9.5415a.999.999 0 0 1 -.80469-.40479 3.09152 3.09152 0 0 0 -.82227-.75732c-.19141-.13818-.39941-.28809-.63574-.4834a.99992.99992 0 1 1 1.27344-1.542c.19727.16211.37012.28613.53027.40088a5.052 5.052 0 0 1 1.26172 1.19141 1.00027 1.00027 0 0 1 -.80273 1.59522z"/><path d="m23.043 26.0415a1.0002 1.0002 0 0 1 -.6377-1.771l.24121-.19873a9.34276 9.34276 0 0 0 1.47656-1.3877.99966.99966 0 1 1 1.58789 1.21484 10.91 10.91 0 0 1 -1.79687 1.7207l-.23535.19287a.99686.99686 0 0 1 -.63574.22902z"/><path d="m23.126 14.375a1.03146 1.03146 0 0 1 -.19141-.01807l-1.93652-.375a1.00023 1.00023 0 0 1 .38086-1.96387l1.93652.375a1.00016 1.00016 0 0 1 -.18945 1.98194z"/><path d="m21.18848 20.00049a1.00031 1.00031 0 0 1 -.28028-1.96049l1.85352-.5415a1 1 0 0 1 .56055 1.91992l-1.85352.5415a.9978.9978 0 0 1 -.28027.04057z"/></g></svg>