<svg viewBox="0 0 32 32" xmlns="http://www.w3.org/2000/svg"><g fill="#fff"><path d="m27 17h-26a1 1 0 0 1 0-2h26a1 1 0 0 1 0 2z"/><path d="m22.31641 27.91992h-.07227a11.24759 11.24759 0 0 1 -7.93262-3.31348 9.31791 9.31791 0 0 0 -11.26172-1.47167 1.00036 1.00036 0 0 1 -1.00586-1.72949 11.32026 11.32026 0 0 1 13.68164 1.78711 9.25811 9.25811 0 0 0 6.53027 2.72754 9.6492 9.6492 0 0 0 3.31152-.584 4.40526 4.40526 0 0 0 .96777-.53271 4.94852 4.94852 0 0 0 1.39259-1.46922 14.00063 14.00063 0 0 0 -21.67089-17.38722 2.407 2.407 0 0 0 -.54984 2.61767 2.05759 2.05759 0 0 0 1.9209 1.355l.05957.00049a9.26611 9.26611 0 0 0 6.624-2.72754 11.30923 11.30923 0 0 1 7.19531-3.28516 1 1 0 0 1 .14063 1.99512 9.31 9.31 0 0 0 -5.92187 2.7041 11.2273 11.2273 0 0 1 -7.99609 3.31348h-.06832a4.07392 4.07392 0 0 1 -3.81347-2.61867 4.39279 4.39279 0 0 1 1.0166-4.79 16.04447 16.04447 0 0 1 12.75097-4.43168 15.84053 15.84053 0 0 1 14.25391 13.84619 15.92519 15.92519 0 0 1 -2.23828 10.457 6.94714 6.94714 0 0 1 -1.95215 2.06152 6.31551 6.31551 0 0 1 -1.41406.76563 11.28546 11.28546 0 0 1 -3.94824.70999z"/><path d="m18.417 31.8208c-6.92969 0-12.56738-7.09717-12.56738-15.82129a18.24955 18.24955 0 0 1 3.292-10.686 11.6006 11.6006 0 0 1 9.27538-5.13529 1 1 0 1 1 0 2 9.50919 9.50919 0 0 0 -7.6582 4.311 16.24416 16.24416 0 0 0 -2.90918 9.51025c0 7.62109 4.74023 13.82129 10.56738 13.82129a1 1 0 1 1 0 2z"/><path d="m16 32a16.0092 16.0092 0 0 1 -14.65527-22.43164 1.00048 1.00048 0 0 1 1.832.80469 14.00715 14.00715 0 0 0 18.73147 18.32324 1 1 0 0 1 .8457 1.8125 15.8704 15.8704 0 0 1 -6.7539 1.49121z"/></g></svg>