<svg viewBox="0 0 32 32" xmlns="http://www.w3.org/2000/svg"><g fill="#fff"><path d="m16 32a15.89472 15.89472 0 0 1 -11.31348-4.68652 16.0641 16.0641 0 0 1 -1.4873-20.915q.3999-.5332.85254-1.041a1.0002 1.0002 0 0 1 1.49414 1.33002q-.39551.44385-.748.9126a14.05508 14.05508 0 0 0 1.30269 18.29931 13.99989 13.99989 0 1 0 19.79882-19.79882.99989.99989 0 0 1 1.41406-1.41406 16 16 0 0 1 -11.31347 27.31347z"/><path d="m26.60645 6.39355a.99676.99676 0 0 1 -.707-.293 14.04328 14.04328 0 0 0 -18.36039-1.25729 1 1 0 1 1 -1.21094-1.5918 16.04891 16.04891 0 0 1 20.98536 1.43506 1 1 0 0 1 -.707 1.707z"/><path d="m16 32a1 1 0 0 1 0-2c2.83789 0 6-5.74951 6-14s-3.16211-14-6-14a1 1 0 0 1 0-2c4.48633 0 8 7.02783 8 16s-3.51367 16-8 16z"/><path d="m26.12988 11.91992a.97922.97922 0 0 1 -.71-.30029.64314.64314 0 0 1 -.12988-.1499c-.03027-.0498-.06055-.10986-.08984-.16992a1.07919 1.07919 0 0 1 -.05078-.18994.64136.64136 0 0 1 -.0293-.18994.9796.9796 0 0 1 .2998-.71 1.03425 1.03425 0 0 1 1.41016 0 .99183.99183 0 0 1 .29.71.60047.60047 0 0 1 -.02051.18994 1.07944 1.07944 0 0 1 -.0498.18994c-.03027.06006-.05957.12012-.08984.16992a.64314.64314 0 0 1 -.12988.1499.93619.93619 0 0 1 -.15039.13037c-.0498.02979-.11035.06006-.16992.08984a1.38509 1.38509 0 0 1 -.19043.06006 1.24751 1.24751 0 0 1 -.18939.02002z"/><circle cx="26.09375" cy="10.92708" r=".625"/><path d="m26.09375 12.17725a1.25 1.25 0 1 1 1.25-1.25 1.25116 1.25116 0 0 1 -1.25 1.25zm.001-1.25-.002.00049.001.62451z"/><circle cx="26.09374" cy="21.01042" r=".625"/><path d="m26.09375 22.26025a1.25 1.25 0 1 1 1.25-1.25 1.25116 1.25116 0 0 1 -1.25 1.25zm.001-1.25-.002.00049.001.62451z"/><path d="m27.21 16.85986a.98818.98818 0 0 1 -.71-.29 1.20777 1.20777 0 0 1 -.21973-.31982 1.02956 1.02956 0 0 1 .21973-1.09037.98924.98924 0 0 1 .89941-.27 1.06256 1.06256 0 0 1 .19043.05029c.05957.02979.12012.06006.16992.08984a.65612.65612 0 0 1 .15039.12988.98429.98429 0 0 1 .2998.71 1 1 0 0 1 -.08008.38037.87739.87739 0 0 1 -.21973.31982.65612.65612 0 0 1 -.15039.12988c-.0498.03027-.11035.06006-.16992.09033a1.06286 1.06286 0 0 1 -.19043.0498.61135.61135 0 0 1 -.1894.01998z"/><circle cx="27.11458" cy="16.04167" r=".625"/><path d="m27.11426 17.2915a1.25 1.25 0 1 1 1.25-1.25 1.25116 1.25116 0 0 1 -1.25 1.25zm.001-1.25h-.001v.625z"/><circle cx="18.96875" cy="15.95833" r=".625"/><path d="m18.96875 17.2085a1.25 1.25 0 1 1 1.25-1.25 1.25116 1.25116 0 0 1 -1.25 1.25zm.001-1.25-.002.00049.001.62451z"/><circle cx="18.98958" cy="11.10417" r=".625"/><path d="m18.98926 12.354a1.25 1.25 0 1 1 1.25-1.25 1.25116 1.25116 0 0 1 -1.25 1.25zm.001-1.25h-.001v.625z"/><circle cx="17.36458" cy="6.95833" r=".625"/><path d="m17.36426 8.2085a1.25 1.25 0 1 1 1.25-1.25 1.25116 1.25116 0 0 1 -1.25 1.25zm.001-1.25h-.001v.625z"/><circle cx="17.34375" cy="25.10417" r=".625"/><path d="m17.34375 26.354a1.25 1.25 0 1 1 1.25-1.25 1.25116 1.25116 0 0 1 -1.25 1.25zm.001-1.25-.002.00049.001.62451z"/><circle cx="18.96875" cy="20.95833" r=".625"/><path d="m18.96875 22.2085a1.25 1.25 0 1 1 1.25-1.25 1.25116 1.25116 0 0 1 -1.25 1.25zm.001-1.25-.002.00049.001.62451z"/></g></svg>