<svg viewBox="0 0 32 32" xmlns="http://www.w3.org/2000/svg"><g fill="#fff"><path d="m28.36035 23h-3.77441l-6-6h-17.58594a1 1 0 0 1 0-2h17.58594l6-6h3.77441a3.00655 3.00655 0 0 1 2.94141 2.41211l.69824 3.58789-.01953 2.19629-.67871 3.39209a3.0066 3.0066 0 0 1 -2.94141 2.41162zm-2.94629-2h2.94629a1.00163 1.00163 0 0 0 .98047-.80371l.65918-3.29541v-1.80176l-.65918-3.29492a1.00158 1.00158 0 0 0 -.98047-.8042h-2.94629l-5 5z"/><path d="m31 17h-5a1 1 0 0 1 0-2h5a1 1 0 0 1 0 2z"/><path d="m17.53516 13.46436a.99676.99676 0 0 1 -.707-.293 3.97255 3.97255 0 0 0 -2.82816-1.17136h-.3623a3.97267 3.97267 0 0 0 -2.82812 1.17188 1.00024 1.00024 0 0 1 -1.41406-1.415 5.9638 5.9638 0 0 1 4.24218-1.75688h.3623a5.95721 5.95721 0 0 1 4.24219 1.75732.99976.99976 0 0 1 -.707 1.707z"/><path d="m5.16113 14.00049a1.00154 1.00154 0 0 1 -.94238-1.33449 10.01392 10.01392 0 0 1 9.41895-6.666h.3623a9.94766 9.94766 0 0 1 6.7832 2.66064.99992.99992 0 1 1 -1.35937 1.4668 7.95527 7.95527 0 0 0 -5.42383-2.12744h-.3623a8.01166 8.01166 0 0 0 -7.53418 5.334 1.00008 1.00008 0 0 1 -.94239.66649z"/><path d="m1.001 14a1.018 1.018 0 0 1 -.23145-.02686.99953.99953 0 0 1 -.74219-1.20361 13.93785 13.93785 0 0 1 13.61034-10.76953h.3623a13.89811 13.89811 0 0 1 9.78223 3.99463 1.00029 1.00029 0 0 1 -1.40039 1.42871 11.90837 11.90837 0 0 0 -8.38184-3.42334h-.3623a11.94647 11.94647 0 0 0 -11.665 9.23047.99893.99893 0 0 1 -.9717.76953z"/><path d="m14 22h-.3623a5.9638 5.9638 0 0 1 -4.24219-1.75684 1.00024 1.00024 0 0 1 1.41406-1.415 3.97267 3.97267 0 0 0 2.82813 1.17184h.3623a3.97255 3.97255 0 0 0 2.82813-1.17139.99989.99989 0 1 1 1.41406 1.41406 5.95721 5.95721 0 0 1 -4.24219 1.75733z"/><path d="m14 26h-.3623a10.01392 10.01392 0 0 1 -9.41895-6.666.99982.99982 0 0 1 1.88477-.668 8.01166 8.01166 0 0 0 7.53418 5.334h.3623a7.95527 7.95527 0 0 0 5.42383-2.12744.99992.99992 0 1 1 1.35938 1.4668 9.94766 9.94766 0 0 1 -6.78321 2.66064z"/><path d="m14 30h-.3623a13.93785 13.93785 0 0 1 -13.61036-10.76953.99959.99959 0 1 1 1.94531-.46094 11.94647 11.94647 0 0 0 11.66505 9.23047h.3623a11.90837 11.90837 0 0 0 8.38184-3.42334 1.00029 1.00029 0 0 1 1.40039 1.42871 13.89811 13.89811 0 0 1 -9.78223 3.99463z"/></g></svg>