<svg viewBox="0 0 32 32" xmlns="http://www.w3.org/2000/svg"><g fill="#fff"><path d="m7.96729 17.5a1 1 0 0 1 -1-1v-6a1 1 0 0 1 2 0v6a1 1 0 0 1 -1 1z"/><path d="m10.96729 14.5h-6a1 1 0 1 1 0-2h6a1 1 0 0 1 0 2z"/><path d="m28.2041 28.5a3.80147 3.80147 0 0 1 -2.70752-1.12207l-3.20508-3.20459a8.74 8.74 0 0 0 -12.583 0l-3.20557 3.20508a3.82832 3.82832 0 0 1 -6.53564-2.707v-2.17142a78.07487 78.07487 0 0 1 1.10791-13.63623 6.672 6.672 0 0 1 11.26074-3.40918l.92725.92725a3.98716 3.98716 0 0 0 4.35547.76807 1 1 0 1 1 .82227 1.82324 6.03922 6.03922 0 0 1 -6.5918-1.17676l-.92725-.92773a4.6724 4.6724 0 0 0 -7.88574 2.3877 75.80711 75.80711 0 0 0 -1.06885 13.24364v2.17139a1.82853 1.82853 0 0 0 3.12109 1.29346l3.20605-3.20557a10.73837 10.73837 0 0 1 15.41113 0l3.20557 3.20508a1.82853 1.82853 0 0 0 3.12158-1.293v-2.17136a75.80711 75.80711 0 0 0 -1.06884-13.24365 4.6724 4.6724 0 0 0 -7.88574-2.3877.99989.99989 0 0 1 -1.41406-1.41406 6.672 6.672 0 0 1 11.26073 3.40918 78.07487 78.07487 0 0 1 1.10791 13.63623v2.17139a3.83266 3.83266 0 0 1 -3.82861 3.82861z"/><circle cx="21.03125" cy="13.09375" r=".625"/><path d="m21.03125 14.34375a1.25 1.25 0 1 1 1.25-1.25 1.25116 1.25116 0 0 1 -1.25 1.25zm0-1.251.00049.00146.62451-.00049z"/><circle cx="27.03125" cy="13.09375" r=".625"/><path d="m27.03125 14.34375a1.25 1.25 0 1 1 1.25-1.25 1.25116 1.25116 0 0 1 -1.25 1.25zm0-1.251.00049.00146.62451-.00049z"/><circle cx="24.03125" cy="10.09375" r=".625"/><path d="m24.03125 11.34375a1.25 1.25 0 1 1 1.25-1.25 1.25116 1.25116 0 0 1 -1.25 1.25zm.001-1.25-.00146.00049.00049.62451z"/><circle cx="24.03125" cy="16.09375" r=".625"/><path d="m24.03125 17.34375a1.25 1.25 0 1 1 1.25-1.25 1.25116 1.25116 0 0 1 -1.25 1.25zm.001-1.25-.00146.00049.00049.62451z"/></g></svg>