<svg viewBox="0 0 32 32" xmlns="http://www.w3.org/2000/svg"><g fill="#fff"><path d="m11.09863 23.15137a14.11776 14.11776 0 0 1 -3.707-.4873l-.31836-.09131-.20117-.26318a17.21887 17.21887 0 0 1 -2.44336-4.97119l-.459-1.30859.30078-.93945a15.39766 15.39766 0 0 1 2.624-5.42969l.18359-.22217.27246-.09082a12.4728 12.4728 0 0 1 3.97853-.52247l3.53809.13184.23926.60889a31.45087 31.45087 0 0 0 3.07324 5.89014l.37988.57031-.3916.56494a25.23113 25.23113 0 0 0 -2.89648 5.40527l-.40137 1.03809-3.3418.10986c-.1416.00439-.28516.00683-.42969.00683zm-2.83496-2.32569a12.52 12.52 0 0 0 3.19824.31982l2.02051-.06641a27.24662 27.24662 0 0 1 2.666-5.07861 33.28027 33.28027 0 0 1 -2.65625-5.09326l-2.2373-.083a10.55709 10.55709 0 0 0 -2.998.3374 14.46459 14.46459 0 0 0 -2.082 4.5376l-.0957.30127.23633.67529a16.42455 16.42455 0 0 0 1.94817 4.1499z"/><path d="m5 17.01514h-4a1 1 0 0 1 0-2h4a1 1 0 1 1 0 2z"/><path d="m17 27.97363a.99886.99886 0 0 1 -.86719-.501l-2.832-4.9165a.99967.99967 0 1 1 1.73242-.998l2.832 4.9165a.99961.99961 0 0 1 -.86523 1.499z"/><path d="m7.668 11.29639a.99883.99883 0 0 1 -.84961-.47119l-2.667-4.28125a.99991.99991 0 0 1 1.69724-1.05762l2.667 4.28125a1.00037 1.00037 0 0 1 -.84763 1.52881z"/><path d="m13.999 11.01514a.99979.99979 0 0 1 -.85642-1.51414l2.999-5a.99977.99977 0 1 1 1.71487 1.0283l-2.999 5a.99835.99835 0 0 1 -.85845.48584z"/><path d="m16.999 32.01514a1 1 0 0 1 -.07617-1.99707 14.21133 14.21133 0 0 0 13.06155-14.66553 13.94242 13.94242 0 0 0 -13.03028-13.33838 12.87511 12.87511 0 0 0 -3.46582.23633l-.33984.0542a14.00437 14.00437 0 0 0 -.0498 27.40967.46739.46739 0 0 0 .44434-.1748l2.99414-3.52441h5.15038a1 1 0 0 1 0 2h-4.22461l-2.39648 2.81985a2.46818 2.46818 0 0 1 -2.37988.83643 16.00357 16.00357 0 0 1 .1123-31.33549l.31934-.0498a14.646 14.646 0 0 1 3.94824-.26856 15.95323 15.95323 0 0 1 14.916 15.24316 16.22676 16.22676 0 0 1 -14.90526 16.75147c-.02637.00195-.05274.00293-.07815.00293z"/><path d="m21.6875 6.01514h-4.6885a1 1 0 1 1 0-2h4.6885a1 1 0 0 1 0 2z"/><path d="m26.501 20.48486a.99892.99892 0 0 1 -.85059-.47314l-2.51074-4.05029 3.12012-6.57324h3.32421a1 1 0 1 1 0 2h-2.06056l-2.11035 4.44629 1.93652 3.12352a.9993.9993 0 0 1 -.84863 1.52686z"/><path d="m4.999 26.97363a1.00064 1.00064 0 0 1 -.84766-1.52979l2.667-4.271a1.00043 1.00043 0 0 1 1.69727 1.05957l-2.667 4.271a1.0002 1.0002 0 0 1 -.84961.47022z"/><path d="m24 17.01514h-6.791a1 1 0 0 1 0-2h6.791a1 1 0 0 1 0 2z"/><path d="m16.668 6.09912a1.00028 1.00028 0 0 1 -.91406-.59277l-1.75-3.9165a1 1 0 1 1 1.82614-.81544l1.75 3.9165a1.00064 1.00064 0 0 1 -.91211 1.4082z"/><path d="m29.5 22.98486h-1.5a1 1 0 0 1 0-2h1.5a1 1 0 0 1 0 2z"/></g></svg>