<svg viewBox="0 0 32 32" xmlns="http://www.w3.org/2000/svg"><g fill="#fff"><path d="m16 32a11 11 0 1 1 11-11 11.01245 11.01245 0 0 1 -11 11zm0-20a9 9 0 1 0 9 9 9.01015 9.01015 0 0 0 -9-9z"/><path d="m16 26a.99974.99974 0 0 1 -1-1v-7h-1a1 1 0 0 1 0-2h3v9a.99974.99974 0 0 1 -1 1z"/><path d="m18 26h-4a1 1 0 0 1 0-2h4a1 1 0 0 1 0 2z"/><path d="m20.11523 8.88477a.9963.9963 0 0 1 -.74707-.33545l-6.16992-6.93946a.99987.99987 0 1 1 1.49414-1.3291l6.16992 6.93945a1 1 0 0 1 -.74707 1.66455z"/><path d="m20 8.88477h-8.11523a.99928.99928 0 0 1 -.707-.293l-6.81449-6.81443a.99989.99989 0 0 1 1.41406-1.41406l6.52148 6.52148h7.70118a1 1 0 0 1 0 2z"/><path d="m16 4a1 1 0 0 1 -.707-1.707l2.04684-2.04691a.99989.99989 0 0 1 1.41406 1.41406l-2.0469 2.04685a.99676.99676 0 0 1 -.707.293z"/><path d="m20.11523 8.88477a1 1 0 0 1 -.707-1.707l6.80661-6.80668a.99989.99989 0 0 1 1.41406 1.41406l-6.80663 6.80665a.99676.99676 0 0 1 -.70704.29297z"/><path d="m16 12a3.00328 3.00328 0 0 1 -3-3 1 1 0 0 1 2 0 1 1 0 0 0 2 0 1 1 0 0 1 2 0 3.00328 3.00328 0 0 1 -3 3z"/></g></svg>