<svg viewBox="0 0 32 32" xmlns="http://www.w3.org/2000/svg"><g fill="#fff"><path d="m10.33984 27.40723q-.3208 0-.63965-.01074a9.51684 9.51684 0 0 1 -2.99268-.58936l-.49851-.18506a9.45879 9.45879 0 0 1 -5.34132-4.95654 9.5859 9.5859 0 0 1 -.66651-5.91753l.39355-1.88477a4.4655 4.4655 0 0 1 4.52-3.54883l3.39844.11377a45.636 45.636 0 0 1 14.37258 2.83013l.24658.09033 4.93604-12.66992a.99979.99979 0 1 1 1.86328.72559l-5.2915 13.5835a1.00047 1.00047 0 0 1 -1.27588.57617l-1.17041-.4292a43.64822 43.64822 0 0 0 -13.748-2.70752l-3.39844-.11377a2.382 2.382 0 0 0 -1.10986.22314 2.47235 2.47235 0 0 0 -1.38477 1.73584l-.39355 1.88477a7.57379 7.57379 0 0 0 .52588 4.67432 7.47241 7.47241 0 0 0 4.21973 3.91553l.49854.18506a7.51183 7.51183 0 0 0 2.36377.46533 17.49513 17.49513 0 0 0 7.86035-1.57959l1.24268-.57031a1.00025 1.00025 0 0 1 .834 1.81836l-1.24268.56982a19.56569 19.56569 0 0 1 -8.12166 1.77148z"/><path d="m25.0083 28.96729a7.00256 7.00256 0 0 1 -4.36475-12.48145.99989.99989 0 0 1 1.24316 1.56641 4.9999 4.9999 0 1 0 7.55566 1.62158 4.95478 4.95478 0 0 0 -2.28662-2.21924.99989.99989 0 0 1 -.52245-1.20559l.56006-1.76123 2.89893-6.877a1.0002 1.0002 0 1 1 1.84277.77832l-2.86719 6.791-.28271.896a7.00344 7.00344 0 0 1 -3.77686 12.8912z"/><path d="m24 28h2v4h-2z"/></g></svg>