<svg viewBox="0 0 32 32" xmlns="http://www.w3.org/2000/svg"><g fill="#fff"><path d="m26.82861 15a7.77223 7.77223 0 0 1 -5.22705-2h-3.60156a3 3 0 0 1 0-6h5a1 1 0 0 1 0 2h-5a1 1 0 0 0 0 2h4a1.00013 1.00013 0 0 1 .707.293 5.79176 5.79176 0 0 0 4.12161 1.707 8.23793 8.23793 0 0 0 3.6665-.86572 1.02863 1.02863 0 0 1 1.37061.43311.97284.97284 0 0 1 -.41846 1.32715 10.32265 10.32265 0 0 1 -4.61865 1.10546z"/><path d="m31 6h-2a1.001 1.001 0 0 1 -.47461-.11963l-7.19434-3.88037h-8.94873a3.61156 3.61156 0 0 0 -2.03857.62793l-1.82275 1.24023a.99989.99989 0 0 1 -1.125-1.65332l1.82275-1.24023a5.60073 5.60073 0 0 1 3.16357-.97461h9.20118a1.001 1.001 0 0 1 .47461.11963l7.19433 3.88037h1.74756a1 1 0 0 1 0 2z"/><path d="m14 32a14 14 0 0 1 0-28c1.12549.02295 2.437.03613 2.79248.022a.97521.97521 0 0 1 .20752-.022h3a.99963.99963 0 0 1 .832.44531l2 3a1 1 0 1 1 -1.664 1.10938l-1.70316-2.55469h-2.415c-.52393.05225-1.42676.03418-3.07031 0a12 12 0 1 0 12.02047 12v-1a1 1 0 0 1 2 0v1a14.01573 14.01573 0 0 1 -14 14z"/><path d="m8.62939 24.30615-4.62939-3.17969v-5.49365l-1.80713-1.11523a1.00018 1.00018 0 1 1 1.05078-1.70215l1.69335 1.0459 3.6753-2.83252 6.37256 2.85693v8.30176zm-2.62939-4.23242 2.94092 2.02051 4.04395-1.34814v-5.56544l-4.09912-1.8374-2.88575 2.22363z"/><path d="m2.73682 23.35156a1 1 0 0 1 -.6123-1.791l2.26367-1.75146a1 1 0 0 1 1.22363 1.582l-2.26368 1.75148a.99728.99728 0 0 1 -.61132.20898z"/><path d="m19.33887 24.30566-6.354-2.11816v-7.6543a1 1 0 0 1 2 0v6.21289l4.04639 1.34863 2.96874-2.02343v-4.07129a1 1 0 0 1 2 0v5.12891z"/><path d="m26.09912 23.35156a.99345.99345 0 0 1 -.49072-.12939l-3.1001-1.75147a.99986.99986 0 1 1 .9834-1.74121l3.1001 1.75151a1 1 0 0 1 -.49268 1.87061z"/><path d="m8.74854 13.18652a.989.989 0 0 1 -.39893-.084.99965.99965 0 0 1 -.51709-1.31592l1.34131-3.0766a3.1146 3.1146 0 0 1 2.82617-1.71h1a1 1 0 0 1 0 2h-1a1.27457 1.27457 0 0 0 -.97656.46924l-1.35791 3.11621a.99944.99944 0 0 1 -.91699.60107z"/><path d="m16.21729 29h-1.21729a1 1 0 0 1 0-2h1.21729a.73258.73258 0 0 0 .6958-.50146l1.333-3.64209a.99991.99991 0 0 1 1.87793.6875l-1.32324 3.61475a2.71941 2.71941 0 0 1 -2.58349 1.8413z"/><path d="m10 28.00049a1.00086 1.00086 0 0 1 -.95264-.6958l-1.21484-3.7998a1.00018 1.00018 0 1 1 1.90527-.60937l1.21484 3.7998a1.00106 1.00106 0 0 1 -.95263 1.30517z"/><path d="m24 13a1.38349 1.38349 0 0 1 -.2002-.02.652.652 0 0 1 -.18018-.06006.56442.56442 0 0 1 -.16992-.09033.927.927 0 0 1 -.1597-.11961 1.03554 1.03554 0 0 1 -.21045-.33008.999.999 0 0 1 -.07955-.37992 1.05006 1.05006 0 0 1 .29-.71.99868.99868 0 0 1 1.08984-.21045 1.03554 1.03554 0 0 1 .33016.21045.927.927 0 0 1 .11963.15967.56442.56442 0 0 1 .09033.16992.61608.61608 0 0 1 .06006.19043 1.24729 1.24729 0 0 1 .01998.18998.99953.99953 0 0 1 -.08008.37988.90089.90089 0 0 1 -.54.54.838.838 0 0 1 -.37992.08012z"/></g></svg>