<svg viewBox="0 0 32 32" xmlns="http://www.w3.org/2000/svg"><g fill="#fff"><path d="m16 17c-7.70605 0-16-1.56445-16-5s8.29395-5 16-5 16 1.56445 16 5c0 1.33984-1.207 2.45508-3.58594 3.31445a1 1 0 1 1 -.67969-1.88086c1.88086-.6792 2.26563-1.30371 2.26563-1.43359 0-.897-4.7627-3-14-3s-14 2.103-14 3 4.7627 3 14 3a47.84314 47.84314 0 0 0 7.99316-.62939 1.00006 1.00006 0 0 1 .3418 1.9707 49.89475 49.89475 0 0 1 -8.33496.65869z"/><path d="m16 25c-7.70605 0-16-1.56445-16-5v-8a1 1 0 0 1 2 0v8c0 .897 4.7627 3 14 3s14-2.103 14-3v-8a1 1 0 0 1 2 0v8c0 3.43555-8.29395 5-16 5z"/></g></svg>