<svg viewBox="0 0 32 32" xmlns="http://www.w3.org/2000/svg"><g fill="#fff"><path d="m23.24951 25a.99982.99982 0 0 1 -.8999-1.43555l1.30811-2.70508a13.54489 13.54489 0 0 0 1.34228-5.85937 1 1 0 0 1 2 0 15.55815 15.55815 0 0 1 -1.5415 6.73l-1.30811 2.70557a1.00025 1.00025 0 0 1 -.90088.56443z"/><path d="m24 32h-11a3 3 0 0 1 0-6h5a1 1 0 0 1 0 2h-5a1 1 0 0 0 0 2h11v-5h-2a1 1 0 0 1 0-2h2a2.002 2.002 0 0 1 2 2v5a2.002 2.002 0 0 1 -2 2z"/><path d="m7 32a1 1 0 0 1 -1-1v-6a2.002 2.002 0 0 1 2-2h10a1 1 0 0 1 0 2h-10v6a1 1 0 0 1 -1 1z"/><path d="m26 16a1 1 0 0 1 -1-1v-5.9165a1 1 0 1 1 2 0v5.9165a1 1 0 0 1 -1 1z"/><path d="m8.0249 25a.99989.99989 0 0 1 -1-.99023l-.022-2.19775-1.82956-2.74708a6.9828 6.9828 0 0 1 -1.17334-3.87988l.00439-.56738-.00439-5.61668a3.00328 3.00328 0 0 1 3-3h1a1 1 0 0 1 0 2h-1a1.0013 1.0013 0 0 0 -1 1v6.19189a4.98022 4.98022 0 0 0 .83838 2.76367l1.99414 2.99414a1.00012 1.00012 0 0 1 .16748.54442l.0249 2.49512a1.0001 1.0001 0 0 1 -.99023 1.00976z"/><path d="m12 8a1 1 0 0 1 -1-1v-2a1 1 0 0 1 2 0v2a1 1 0 0 1 -1 1z"/><path d="m13.5 13.00049h-4.16943a1 1 0 0 1 0-2h4.16943a1.50164 1.50164 0 0 0 1.5-1.5v-1.49949h-7a1 1 0 0 1 -1-1v-4.001a3.00328 3.00328 0 0 1 3-3h4a3.00328 3.00328 0 0 1 3 3v3a1 1 0 0 0 2 0v-3a1.0013 1.0013 0 0 0 -1-1 1 1 0 0 1 0-2 3.00328 3.00328 0 0 1 3 3v3a3.00045 3.00045 0 0 1 -4 2.82861v.67188a3.50425 3.50425 0 0 1 -3.5 3.5zm-4.5-6.99949h6v-3.001a1.0013 1.0013 0 0 0 -1-1h-4a1.0013 1.0013 0 0 0 -1 1z"/><path d="m22 9a3.00328 3.00328 0 0 1 -3-3v-1a1 1 0 0 1 2 0v1a1 1 0 0 0 2 0v-3a1.0013 1.0013 0 0 0 -1-1 1 1 0 0 1 0-2 3.00328 3.00328 0 0 1 3 3v3a3.00328 3.00328 0 0 1 -3 3z"/><path d="m26 9a3.00328 3.00328 0 0 1 -3-3v-1a1 1 0 0 1 2 0v1a1 1 0 0 0 2 0v-3a1.0013 1.0013 0 0 0 -1-1 1 1 0 0 1 0-2 3.00328 3.00328 0 0 1 3 3v3a3.00328 3.00328 0 0 1 -3 3z"/></g></svg>