<svg viewBox="0 0 32 32" xmlns="http://www.w3.org/2000/svg"><g fill="#fff"><path d="m10.04395 31.99023a21.932 21.932 0 0 1 -8.00586-1.51318 1.00381 1.00381 0 0 1 -.56738-.56641 21.85984 21.85984 0 0 1 3.835-22.356 1.00035 1.00035 0 0 1 1.51167 1.31059 19.85678 19.85678 0 0 0 -3.63965 19.90528 19.91719 19.91719 0 0 0 25.56543-25.56494 19.85494 19.85494 0 0 0 -19.90527 3.63867 1 1 0 1 1 -1.31055-1.51074 21.8537 21.8537 0 0 1 22.35547-3.8345 1.00381 1.00381 0 0 1 .56738.56641 21.91454 21.91454 0 0 1 -20.40625 29.9248z"/><path d="m18.11035 21.93848a.99928.99928 0 0 1 -.707-.293l-4.9502-4.94971a.99989.99989 0 1 1 1.41406-1.41406l4.24316 4.24268 2.12109-2.12158a.99989.99989 0 0 1 1.41406 1.41406l-2.82812 2.82861a.99928.99928 0 0 1 -.70705.293z"/><path d="m2.41016 30.55469a1 1 0 0 1 -.04395-1.999 17.16131 17.16131 0 0 0 7.08105-2.45605 16.9476 16.9476 0 0 1 -8.958-2.28864 1.00016 1.00016 0 0 1 1-1.73242 15.03546 15.03546 0 0 0 9.09374 1.94681l2.74219-.27979a.99967.99967 0 0 1 .68359 1.80762c-4.30078 3.08252-8.40331 4.8584-11.55273 5.00049z"/><path d="m24.60449 14.56348a1 1 0 0 1 -.99512-1.10156l.2793-2.74219a15.01361 15.01361 0 0 0 -.72367-6.39356 1.00027 1.00027 0 0 1 1.89453-.64258 17.00361 17.00361 0 0 1 .90336 5.89941 17.14894 17.14894 0 0 0 2.45605-7.07959 1 1 0 0 1 1.998.08984c-.1416 3.14746-1.917 7.25-5 11.55273a.99776.99776 0 0 1 -.81245.4175z"/></g></svg>