<svg viewBox="0 0 32 32" xmlns="http://www.w3.org/2000/svg"><g fill="#fff"><path d="m4.75 31a4.75 4.75 0 1 1 4.75-4.75 4.7554 4.7554 0 0 1 -4.75 4.75zm0-7.5a2.75 2.75 0 1 0 2.75 2.75 2.7528 2.7528 0 0 0 -2.75-2.75z"/><path d="m12.25 31a4.75 4.75 0 1 1 4.75-4.75 4.7554 4.7554 0 0 1 -4.75 4.75zm0-7.5a2.75 2.75 0 1 0 2.75 2.75 2.7528 2.7528 0 0 0 -2.75-2.75z"/><path d="m19.75 31a4.75 4.75 0 1 1 4.75-4.75 4.7554 4.7554 0 0 1 -4.75 4.75zm0-7.5a2.75 2.75 0 1 0 2.75 2.75 2.7528 2.7528 0 0 0 -2.75-2.75z"/><path d="m27.25 31a4.75 4.75 0 1 1 4.75-4.75 4.7554 4.7554 0 0 1 -4.75 4.75zm0-7.5a2.75 2.75 0 1 0 2.75 2.75 2.7528 2.7528 0 0 0 -2.75-2.75z"/><path d="m8.5 24.5a4.75 4.75 0 1 1 4.75-4.75 4.7554 4.7554 0 0 1 -4.75 4.75zm0-7.5a2.75 2.75 0 1 0 2.75 2.75 2.7528 2.7528 0 0 0 -2.75-2.75z"/><path d="m16 24.5a4.75 4.75 0 1 1 4.75-4.75 4.7554 4.7554 0 0 1 -4.75 4.75zm0-7.5a2.75 2.75 0 1 0 2.75 2.75 2.7528 2.7528 0 0 0 -2.75-2.75z"/><path d="m23.5 24.50049a4.7578 4.7578 0 0 1 -4.64941-3.78125 4.49031 4.49031 0 0 1 1.52541-4.34224l.96-.85352a.99991.99991 0 0 1 1.32813 1.49512l-.9375.833a2.50969 2.50969 0 0 0 -.918 2.46 2.75027 2.75027 0 1 0 4.19824-2.86133 1.00028 1.00028 0 0 1 1.0957-1.67383 4.75034 4.75034 0 0 1 -2.60257 8.72405z"/><path d="m12.25 18a4.75 4.75 0 1 1 4.75-4.75 4.7554 4.7554 0 0 1 -4.75 4.75zm0-7.5a2.75 2.75 0 1 0 2.75 2.75 2.7528 2.7528 0 0 0 -2.75-2.75z"/><path d="m19.75 18a4.75 4.75 0 1 1 4.75-4.75 4.7554 4.7554 0 0 1 -4.75 4.75zm0-7.5a2.75 2.75 0 1 0 2.75 2.75 2.7528 2.7528 0 0 0 -2.75-2.75z"/><path d="m16 11a4.75 4.75 0 0 1 0-9.5 1 1 0 0 1 0 2 2.75013 2.75013 0 1 0 2.0332.89844 1.00027 1.00027 0 0 1 1.47852-1.34766 4.75053 4.75053 0 0 1 -3.51172 7.94922z"/></g></svg>