<svg viewBox="0 0 32 32" xmlns="http://www.w3.org/2000/svg"><g fill="#fff"><path d="m3.93262 31.89551a.99676.99676 0 0 1 -.707-.293l-2.82816-2.8281a.99964.99964 0 0 1 0-1.41406l5.64014-5.64062a5.02031 5.02031 0 0 0 1.40967-4.27344l-.26123-1.749a13.21421 13.21421 0 0 1 3.81787-11.6719 13.49146 13.49146 0 0 1 8.9414-4.01367 11.47551 11.47551 0 0 1 8.73584 3.30664 11.62587 11.62587 0 0 1 3.13185 10.35937.9999.9999 0 0 1 -1.9707-.33984 9.653 9.653 0 0 0 -2.5752-8.60547 9.499 9.499 0 0 0 -7.23437-2.72266 11.49887 11.49887 0 0 0 -7.61473 3.42969 11.23194 11.23194 0 0 0 -3.25928 9.92871l.26709 1.7832a7.03048 7.03048 0 0 1 -1.97412 5.98242l-4.93314 4.9336 1.41406 1.41406 4.93359-4.93359a7.02964 7.02964 0 0 1 5.98242-1.97363l1.74951.26074a10.73592 10.73592 0 0 0 4.79-.21777.99967.99967 0 1 1 .53027 1.92773 12.69948 12.69948 0 0 1 -5.65039.2627l-1.71436-.25488a5.02145 5.02145 0 0 0 -4.27344 1.40918l-5.64056 5.64062a.99676.99676 0 0 1 -.70703.29297z"/><path d="m16.66064 24.82422a.99676.99676 0 0 1 -.707-.293l-5.65676-5.65622a.99989.99989 0 0 1 1.41406-1.41406l5.65674 5.65625a1 1 0 0 1 -.707 1.707z"/><path d="m26 27a6 6 0 1 1 6-6 6.00656 6.00656 0 0 1 -6 6zm0-10a4 4 0 1 0 4 4 4.00427 4.00427 0 0 0 -4-4z"/></g></svg>