<svg viewBox="0 0 32 32" xmlns="http://www.w3.org/2000/svg"><path d="m15.99609 31.9541a15.89708 15.89708 0 0 1 -14.626-9.46582.99988.99988 0 1 1 1.82813-.81055 13.96446 13.96446 0 0 0 3.5 4.78613 14.11579 14.11579 0 0 0 18.71191-.09766 14.00728 14.00728 0 0 0 -4.40913-23.44628l-1.0625-.35059a6.47654 6.47654 0 0 0 1.501 6.84961l1.40918 1.40918a8.72517 8.72517 0 0 1 .40332 12.05567 8.499 8.499 0 0 1 -12.20117.1875l-1.63188-1.63184a6.48448 6.48448 0 0 0 -7.56543-1.18555.99916.99916 0 0 1 -1.418-.61426l-.06934-.24219a16.06605 16.06605 0 0 1 3.75782-14.11913 11.92191 11.92191 0 0 1 2.41311-2.18359 15.99239 15.99239 0 0 1 9.77344-3.0918 1.00009 1.00009 0 0 1 -.01953 2h-.01953a14.13384 14.13384 0 0 0 -8.54 2.69727 10.252 10.252 0 0 0 -2.09965 1.89062 14.06159 14.06159 0 0 0 -3.49317 11.37891 8.465 8.465 0 0 1 8.69433 2.05566l1.63184 1.63184a6.49991 6.49991 0 0 0 9.33105-.14453 6.71279 6.71279 0 0 0 -.36133-9.27051l-1.40917-1.40919a8.47494 8.47494 0 0 1 -1.55078-9.89355 1.00567 1.00567 0 0 1 1.13379-.51269l1.07324.27051 1.00293.34273a15.96839 15.96839 0 0 1 -5.68848 30.9141z" fill="#fff"/></svg>