<svg viewBox="0 0 32 32" xmlns="http://www.w3.org/2000/svg"><g fill="#fff"><path d="m16 32a16 16 0 1 1 6.74023-30.51562 1.00052 1.00052 0 0 1 -.84375 1.81445 14.00212 14.00212 0 1 0 8.10352 12.70117 14.03588 14.03588 0 0 0 -5.87891-11.4043 1.00048 1.00048 0 1 1 1.16211-1.6289 16.00107 16.00107 0 0 1 -9.2832 29.0332z"/><path d="m16.001 32a1.0001 1.0001 0 0 1 -.89551-.55273l-.39453-.78906a16.03036 16.03036 0 0 1 .4209-15.1543.99991.99991 0 0 1 1.73633.99219 14.03314 14.03314 0 0 0 -.36819 13.26757l.39453.78906a.99991.99991 0 0 1 -.89353 1.44727z"/><path d="m16.0127 16.99316a.99866.99866 0 0 1 -.835-.44824l-.48633-.73535a14.10727 14.10727 0 0 0 -1.1709-1.53418 14.07271 14.07271 0 0 0 -10.50484-4.78223 1 1 0 0 1 .00488-2h.00488a16.06579 16.06579 0 0 1 13.335 7.21387l.48535.73438a1 1 0 0 1 -.833 1.55176z"/><path d="m19.13184 16.666a1.00011 1.00011 0 0 1 -.21094-1.97754 13.98771 13.98771 0 0 0 8.75977-5.99707l.4873-.73633a1 1 0 1 1 1.668 1.10352l-.48633.73535a15.97744 15.97744 0 0 1 -10.00488 6.84961.9924.9924 0 0 1 -.21292.02246z"/><path d="m14.39648 25.49414a1 1 0 0 1 -.00488-2 17.91974 17.91974 0 0 0 14.90527-8.06348l.61133-.92676a1.00026 1.00026 0 1 1 1.66992 1.10156l-.61133.92676a19.91824 19.91824 0 0 1 -16.56543 8.96191z"/><path d="m24.70215 14.002a.996.996 0 0 1 -.835-.44922l-.627-.94922a18.38892 18.38892 0 0 0 -15.293-8.27246 1 1 0 0 1 .00488-2h.00497a20.38442 20.38442 0 0 1 16.95218 9.1709l.626.94922a1.00022 1.00022 0 0 1 -.833 1.55078z"/><path d="m9.58594 30.58691a1.0001 1.0001 0 0 1 -.89551-.55273l-.51074-1.02051a20.46484 20.46484 0 0 1 .53711-19.34277.99991.99991 0 1 1 1.73633.99219 18.46762 18.46762 0 0 0 -.48437 17.45605l.51074 1.02051a.99991.99991 0 0 1 -.89355 1.44727z"/></g></svg>