<svg xmlns="http://www.w3.org/2000/svg" viewBox="10.3 126 503.7 272" width="128">
  <path fill="#ffffff" d="M20.4 126h113c4.3 0 8.1 2.7 9.5 6.8l85.5 252c2.2 6.5-2.6 13.2-9.5 13.2H106c-4.3 0-8.1-2.7-9.5-6.8l-85.7-252c-2.1-6.5 2.7-13.2 9.6-13.2z" class="logoshape1"/>
  <path fill="#ffffff" d="M504 126H390c-4.3 0-8 2.7-9.4 6.7l-19.5 55.9 62.4 168.6c1.6 4.4 7.8 4.4 9.4 0l80.5-217.7c2.4-6.6-2.4-13.5-9.4-13.5z" class="logoshape2"/>
  <path fill="#ffffff" d="M420.9 384.6l-92.2-252c-1.4-3.9-5.2-6.6-9.4-6.6H198c-4.3 0-8.1 2.7-9.5 6.7l-16.9 48.9 60 174.7c1.5 4.4 7.8 4.5 9.4.1l12.8-34.2c1.6-4.3 7.7-4.3 9.4 0l26.1 69.3c1.5 3.9 5.2 6.5 9.4 6.5h112.8c7 0 11.8-6.9 9.4-13.4z" class="logoshape3"/>
</svg>